<?xml version="1.0" encoding="UTF-8" standalone="no"?>
<!DOCTYPE svg PUBLIC "-//W3C//DTD SVG 1.1//EN"
 "http://www.w3.org/Graphics/SVG/1.1/DTD/svg11.dtd">
<!-- Generated by graphviz version 14.0.2 (20251019.1705)
 -->
<!-- Title: G Pages: 1 -->
<svg width="361pt" height="450pt"
 viewBox="0.00 0.00 361.00 450.00" xmlns="http://www.w3.org/2000/svg" xmlns:xlink="http://www.w3.org/1999/xlink">
<g id="graph0" class="graph" transform="scale(1 1) rotate(0) translate(4 446)">
<title>G</title>
<polygon fill="#fffafa" stroke="none" points="-4,4 -4,-446 356.69,-446 356.69,4 -4,4"/>
<!-- node_0x604000000c10 -->
<g id="node1" class="node">
<title>node_0x604000000c10</title>
<path fill="#00ffff" stroke="#964b00" d="M83.31,-375.5C83.31,-375.5 186.41,-375.5 186.41,-375.5 192.41,-375.5 198.41,-381.5 198.41,-387.5 198.41,-387.5 198.41,-429.5 198.41,-429.5 198.41,-435.5 192.41,-441.5 186.41,-441.5 186.41,-441.5 83.31,-441.5 83.31,-441.5 77.31,-441.5 71.31,-435.5 71.31,-429.5 71.31,-429.5 71.31,-387.5 71.31,-387.5 71.31,-381.5 77.31,-375.5 83.31,-375.5"/>
<text xml:space="preserve" text-anchor="middle" x="134.86" y="-426.3" font-family="Times,serif" font-size="14.00">type = OPERATOR</text>
<polyline fill="none" stroke="#964b00" points="71.31,-419.5 198.41,-419.5"/>
<text xml:space="preserve" text-anchor="middle" x="134.65" y="-404.3" font-family="Times,serif" font-size="14.00">val = 12(OP_IF)</text>
<polyline fill="none" stroke="#964b00" points="71.31,-397.5 198.41,-397.5"/>
<text xml:space="preserve" text-anchor="middle" x="102.59" y="-382.3" font-family="Times,serif" font-size="14.00">L</text>
<polyline fill="none" stroke="#964b00" points="133.86,-375.5 133.86,-397.5"/>
<text xml:space="preserve" text-anchor="middle" x="166.03" y="-382.3" font-family="Times,serif" font-size="14.00">R</text>
</g>
<!-- node_0x604000000c90 -->
<g id="node2" class="node">
<title>node_0x604000000c90</title>
<path fill="#daa520" stroke="#964b00" d="M12,-250.5C12,-250.5 111.72,-250.5 111.72,-250.5 117.72,-250.5 123.72,-256.5 123.72,-262.5 123.72,-262.5 123.72,-304.5 123.72,-304.5 123.72,-310.5 117.72,-316.5 111.72,-316.5 111.72,-316.5 12,-316.5 12,-316.5 6,-316.5 0,-310.5 0,-304.5 0,-304.5 0,-262.5 0,-262.5 0,-256.5 6,-250.5 12,-250.5"/>
<text xml:space="preserve" text-anchor="middle" x="61.86" y="-301.3" font-family="Times,serif" font-size="14.00">type = VARIABLE</text>
<polyline fill="none" stroke="#964b00" points="0,-294.5 123.72,-294.5"/>
<text xml:space="preserve" text-anchor="middle" x="61.77" y="-279.3" font-family="Times,serif" font-size="14.00">val = 0(a)</text>
<polyline fill="none" stroke="#964b00" points="0,-272.5 123.72,-272.5"/>
<text xml:space="preserve" text-anchor="middle" x="30.5" y="-257.3" font-family="Times,serif" font-size="14.00">0</text>
<polyline fill="none" stroke="#964b00" points="61,-250.5 61,-272.5"/>
<text xml:space="preserve" text-anchor="middle" x="92" y="-257.3" font-family="Times,serif" font-size="14.00">0</text>
</g>
<!-- node_0x604000000c10&#45;&gt;node_0x604000000c90 -->
<g id="edge1" class="edge">
<title>node_0x604000000c10&#45;&gt;node_0x604000000c90</title>
<path fill="none" stroke="#964b00" d="M109.94,-365.52C102.45,-352.89 94.23,-339.04 86.74,-326.41"/>
<polygon fill="#964b00" stroke="#964b00" points="106.79,-367.07 114.91,-373.88 112.81,-363.5 106.79,-367.07"/>
<polygon fill="#964b00" stroke="#964b00" points="89.8,-324.72 81.68,-317.9 83.78,-328.29 89.8,-324.72"/>
</g>
<!-- node_0x604000000e10 -->
<g id="node3" class="node">
<title>node_0x604000000e10</title>
<path fill="#00ffff" stroke="#964b00" d="M157.31,-250.5C157.31,-250.5 260.41,-250.5 260.41,-250.5 266.41,-250.5 272.41,-256.5 272.41,-262.5 272.41,-262.5 272.41,-304.5 272.41,-304.5 272.41,-310.5 266.41,-316.5 260.41,-316.5 260.41,-316.5 157.31,-316.5 157.31,-316.5 151.31,-316.5 145.31,-310.5 145.31,-304.5 145.31,-304.5 145.31,-262.5 145.31,-262.5 145.31,-256.5 151.31,-250.5 157.31,-250.5"/>
<text xml:space="preserve" text-anchor="middle" x="208.86" y="-301.3" font-family="Times,serif" font-size="14.00">type = OPERATOR</text>
<polyline fill="none" stroke="#964b00" points="145.31,-294.5 272.41,-294.5"/>
<text xml:space="preserve" text-anchor="middle" x="208.45" y="-279.3" font-family="Times,serif" font-size="14.00">val = 11(OP_SP)</text>
<polyline fill="none" stroke="#964b00" points="145.31,-272.5 272.41,-272.5"/>
<text xml:space="preserve" text-anchor="middle" x="176.59" y="-257.3" font-family="Times,serif" font-size="14.00">L</text>
<polyline fill="none" stroke="#964b00" points="207.86,-250.5 207.86,-272.5"/>
<text xml:space="preserve" text-anchor="middle" x="240.03" y="-257.3" font-family="Times,serif" font-size="14.00">R</text>
</g>
<!-- node_0x604000000c10&#45;&gt;node_0x604000000e10 -->
<g id="edge2" class="edge">
<title>node_0x604000000c10&#45;&gt;node_0x604000000e10</title>
<path fill="none" stroke="#964b00" d="M160.12,-365.52C167.72,-352.89 176.05,-339.04 183.64,-326.41"/>
<polygon fill="#964b00" stroke="#964b00" points="157.24,-363.51 155.08,-373.89 163.24,-367.12 157.24,-363.51"/>
<polygon fill="#964b00" stroke="#964b00" points="186.61,-328.27 188.77,-317.9 180.61,-324.66 186.61,-328.27"/>
</g>
<!-- node_0x604000000d90 -->
<g id="node4" class="node">
<title>node_0x604000000d90</title>
<path fill="#00ffff" stroke="#964b00" d="M157.31,-125.5C157.31,-125.5 260.41,-125.5 260.41,-125.5 266.41,-125.5 272.41,-131.5 272.41,-137.5 272.41,-137.5 272.41,-179.5 272.41,-179.5 272.41,-185.5 266.41,-191.5 260.41,-191.5 260.41,-191.5 157.31,-191.5 157.31,-191.5 151.31,-191.5 145.31,-185.5 145.31,-179.5 145.31,-179.5 145.31,-137.5 145.31,-137.5 145.31,-131.5 151.31,-125.5 157.31,-125.5"/>
<text xml:space="preserve" text-anchor="middle" x="208.86" y="-176.3" font-family="Times,serif" font-size="14.00">type = OPERATOR</text>
<polyline fill="none" stroke="#964b00" points="145.31,-169.5 272.41,-169.5"/>
<text xml:space="preserve" text-anchor="middle" x="208.76" y="-154.3" font-family="Times,serif" font-size="14.00">val = 7(OP_ASS)</text>
<polyline fill="none" stroke="#964b00" points="145.31,-147.5 272.41,-147.5"/>
<text xml:space="preserve" text-anchor="middle" x="176.59" y="-132.3" font-family="Times,serif" font-size="14.00">L</text>
<polyline fill="none" stroke="#964b00" points="207.86,-125.5 207.86,-147.5"/>
<text xml:space="preserve" text-anchor="middle" x="240.03" y="-132.3" font-family="Times,serif" font-size="14.00">R</text>
</g>
<!-- node_0x604000000e10&#45;&gt;node_0x604000000d90 -->
<g id="edge3" class="edge">
<title>node_0x604000000e10&#45;&gt;node_0x604000000d90</title>
<path fill="none" stroke="#964b00" d="M208.86,-238.7C208.86,-227.05 208.86,-214.47 208.86,-202.84"/>
<polygon fill="#964b00" stroke="#964b00" points="205.36,-238.67 208.86,-248.67 212.36,-238.67 205.36,-238.67"/>
<polygon fill="#964b00" stroke="#964b00" points="212.36,-203.11 208.86,-193.11 205.36,-203.11 212.36,-203.11"/>
</g>
<!-- node_0x604000000d50 -->
<g id="node5" class="node">
<title>node_0x604000000d50</title>
<path fill="#daa520" stroke="#964b00" d="M83,-0.5C83,-0.5 182.72,-0.5 182.72,-0.5 188.72,-0.5 194.72,-6.5 194.72,-12.5 194.72,-12.5 194.72,-54.5 194.72,-54.5 194.72,-60.5 188.72,-66.5 182.72,-66.5 182.72,-66.5 83,-66.5 83,-66.5 77,-66.5 71,-60.5 71,-54.5 71,-54.5 71,-12.5 71,-12.5 71,-6.5 77,-0.5 83,-0.5"/>
<text xml:space="preserve" text-anchor="middle" x="132.86" y="-51.3" font-family="Times,serif" font-size="14.00">type = VARIABLE</text>
<polyline fill="none" stroke="#964b00" points="71,-44.5 194.72,-44.5"/>
<text xml:space="preserve" text-anchor="middle" x="132.77" y="-29.3" font-family="Times,serif" font-size="14.00">val = 0(a)</text>
<polyline fill="none" stroke="#964b00" points="71,-22.5 194.72,-22.5"/>
<text xml:space="preserve" text-anchor="middle" x="101.5" y="-7.3" font-family="Times,serif" font-size="14.00">0</text>
<polyline fill="none" stroke="#964b00" points="132,-0.5 132,-22.5"/>
<text xml:space="preserve" text-anchor="middle" x="163" y="-7.3" font-family="Times,serif" font-size="14.00">0</text>
</g>
<!-- node_0x604000000d90&#45;&gt;node_0x604000000d50 -->
<g id="edge4" class="edge">
<title>node_0x604000000d90&#45;&gt;node_0x604000000d50</title>
<path fill="none" stroke="#964b00" d="M182.92,-115.52C175.04,-102.76 166.39,-88.76 158.53,-76.04"/>
<polygon fill="#964b00" stroke="#964b00" points="179.86,-117.23 188.1,-123.9 185.82,-113.55 179.86,-117.23"/>
<polygon fill="#964b00" stroke="#964b00" points="161.72,-74.56 153.49,-67.89 155.77,-78.24 161.72,-74.56"/>
</g>
<!-- node_0x604000000dd0 -->
<g id="node6" class="node">
<title>node_0x604000000dd0</title>
<path fill="#98fb98" stroke="#964b00" d="M229.04,-0.5C229.04,-0.5 340.69,-0.5 340.69,-0.5 346.69,-0.5 352.69,-6.5 352.69,-12.5 352.69,-12.5 352.69,-54.5 352.69,-54.5 352.69,-60.5 346.69,-66.5 340.69,-66.5 340.69,-66.5 229.04,-66.5 229.04,-66.5 223.04,-66.5 217.04,-60.5 217.04,-54.5 217.04,-54.5 217.04,-12.5 217.04,-12.5 217.04,-6.5 223.04,-0.5 229.04,-0.5"/>
<text xml:space="preserve" text-anchor="middle" x="284.86" y="-51.3" font-family="Times,serif" font-size="14.00">type = CONST_VAR</text>
<polyline fill="none" stroke="#964b00" points="217.04,-44.5 352.69,-44.5"/>
<text xml:space="preserve" text-anchor="middle" x="284.78" y="-29.3" font-family="Times,serif" font-size="14.00">val = 11</text>
<polyline fill="none" stroke="#964b00" points="217.04,-22.5 352.69,-22.5"/>
<text xml:space="preserve" text-anchor="middle" x="250.54" y="-7.3" font-family="Times,serif" font-size="14.00">0</text>
<polyline fill="none" stroke="#964b00" points="284.04,-0.5 284.04,-22.5"/>
<text xml:space="preserve" text-anchor="middle" x="318.04" y="-7.3" font-family="Times,serif" font-size="14.00">0</text>
</g>
<!-- node_0x604000000d90&#45;&gt;node_0x604000000dd0 -->
<g id="edge5" class="edge">
<title>node_0x604000000d90&#45;&gt;node_0x604000000dd0</title>
<path fill="none" stroke="#964b00" d="M234.8,-115.52C242.68,-102.76 251.33,-88.76 259.19,-76.04"/>
<polygon fill="#964b00" stroke="#964b00" points="231.9,-113.55 229.62,-123.9 237.86,-117.23 231.9,-113.55"/>
<polygon fill="#964b00" stroke="#964b00" points="261.95,-78.24 264.23,-67.89 256,-74.56 261.95,-78.24"/>
</g>
</g>
</svg>
