<?xml version="1.0" encoding="UTF-8" standalone="no"?>
<!DOCTYPE svg PUBLIC "-//W3C//DTD SVG 1.1//EN"
 "http://www.w3.org/Graphics/SVG/1.1/DTD/svg11.dtd">
<!-- Generated by graphviz version 14.0.2 (20251019.1705)
 -->
<!-- Title: G Pages: 1 -->
<svg width="594pt" height="575pt"
 viewBox="0.00 0.00 594.00 575.00" xmlns="http://www.w3.org/2000/svg" xmlns:xlink="http://www.w3.org/1999/xlink">
<g id="graph0" class="graph" transform="scale(1 1) rotate(0) translate(4 571)">
<title>G</title>
<polygon fill="#fffafa" stroke="none" points="-4,4 -4,-571 589.69,-571 589.69,4 -4,4"/>
<!-- node_0x604000001110 -->
<g id="node1" class="node">
<title>node_0x604000001110</title>
<path fill="#00ffff" stroke="#964b00" d="M238.31,-500.5C238.31,-500.5 341.41,-500.5 341.41,-500.5 347.41,-500.5 353.41,-506.5 353.41,-512.5 353.41,-512.5 353.41,-554.5 353.41,-554.5 353.41,-560.5 347.41,-566.5 341.41,-566.5 341.41,-566.5 238.31,-566.5 238.31,-566.5 232.31,-566.5 226.31,-560.5 226.31,-554.5 226.31,-554.5 226.31,-512.5 226.31,-512.5 226.31,-506.5 232.31,-500.5 238.31,-500.5"/>
<text xml:space="preserve" text-anchor="middle" x="289.86" y="-551.3" font-family="Times,serif" font-size="14.00">type = OPERATOR</text>
<polyline fill="none" stroke="#964b00" points="226.31,-544.5 353.41,-544.5"/>
<text xml:space="preserve" text-anchor="middle" x="289.45" y="-529.3" font-family="Times,serif" font-size="14.00">val = 11(OP_SP)</text>
<polyline fill="none" stroke="#964b00" points="226.31,-522.5 353.41,-522.5"/>
<text xml:space="preserve" text-anchor="middle" x="257.59" y="-507.3" font-family="Times,serif" font-size="14.00">L</text>
<polyline fill="none" stroke="#964b00" points="288.86,-500.5 288.86,-522.5"/>
<text xml:space="preserve" text-anchor="middle" x="321.03" y="-507.3" font-family="Times,serif" font-size="14.00">R</text>
</g>
<!-- node_0x604000000590 -->
<g id="node2" class="node">
<title>node_0x604000000590</title>
<path fill="#00ffff" stroke="#964b00" d="M163.31,-375.5C163.31,-375.5 266.41,-375.5 266.41,-375.5 272.41,-375.5 278.41,-381.5 278.41,-387.5 278.41,-387.5 278.41,-429.5 278.41,-429.5 278.41,-435.5 272.41,-441.5 266.41,-441.5 266.41,-441.5 163.31,-441.5 163.31,-441.5 157.31,-441.5 151.31,-435.5 151.31,-429.5 151.31,-429.5 151.31,-387.5 151.31,-387.5 151.31,-381.5 157.31,-375.5 163.31,-375.5"/>
<text xml:space="preserve" text-anchor="middle" x="214.86" y="-426.3" font-family="Times,serif" font-size="14.00">type = OPERATOR</text>
<polyline fill="none" stroke="#964b00" points="151.31,-419.5 278.41,-419.5"/>
<text xml:space="preserve" text-anchor="middle" x="214.65" y="-404.3" font-family="Times,serif" font-size="14.00">val = 12(OP_IF)</text>
<polyline fill="none" stroke="#964b00" points="151.31,-397.5 278.41,-397.5"/>
<text xml:space="preserve" text-anchor="middle" x="182.59" y="-382.3" font-family="Times,serif" font-size="14.00">L</text>
<polyline fill="none" stroke="#964b00" points="213.86,-375.5 213.86,-397.5"/>
<text xml:space="preserve" text-anchor="middle" x="246.03" y="-382.3" font-family="Times,serif" font-size="14.00">R</text>
</g>
<!-- node_0x604000001110&#45;&gt;node_0x604000000590 -->
<g id="edge1" class="edge">
<title>node_0x604000001110&#45;&gt;node_0x604000000590</title>
<path fill="none" stroke="#964b00" d="M264.26,-490.52C256.56,-477.89 248.11,-464.04 240.42,-451.41"/>
<polygon fill="#964b00" stroke="#964b00" points="261.17,-492.18 269.37,-498.89 267.15,-488.53 261.17,-492.18"/>
<polygon fill="#964b00" stroke="#964b00" points="243.42,-449.61 235.22,-442.89 237.44,-453.25 243.42,-449.61"/>
</g>
<!-- node_0x604000000810 -->
<g id="node8" class="node">
<title>node_0x604000000810</title>
<path fill="#00ffff" stroke="#964b00" d="M312.03,-375.5C312.03,-375.5 417.69,-375.5 417.69,-375.5 423.69,-375.5 429.69,-381.5 429.69,-387.5 429.69,-387.5 429.69,-429.5 429.69,-429.5 429.69,-435.5 423.69,-441.5 417.69,-441.5 417.69,-441.5 312.03,-441.5 312.03,-441.5 306.03,-441.5 300.03,-435.5 300.03,-429.5 300.03,-429.5 300.03,-387.5 300.03,-387.5 300.03,-381.5 306.03,-375.5 312.03,-375.5"/>
<text xml:space="preserve" text-anchor="middle" x="364.58" y="-426.3" font-family="Times,serif" font-size="14.00">type = OPERATOR</text>
<polyline fill="none" stroke="#964b00" points="300.03,-419.5 429.69,-419.5"/>
<text xml:space="preserve" text-anchor="middle" x="364.86" y="-404.3" font-family="Times,serif" font-size="14.00">val = 13(OP_ELSE)</text>
<polyline fill="none" stroke="#964b00" points="300.03,-397.5 429.69,-397.5"/>
<text xml:space="preserve" text-anchor="middle" x="331.81" y="-382.3" font-family="Times,serif" font-size="14.00">L</text>
<polyline fill="none" stroke="#964b00" points="363.58,-375.5 363.58,-397.5"/>
<text xml:space="preserve" text-anchor="middle" x="396.25" y="-382.3" font-family="Times,serif" font-size="14.00">R</text>
</g>
<!-- node_0x604000001110&#45;&gt;node_0x604000000810 -->
<g id="edge7" class="edge">
<title>node_0x604000001110&#45;&gt;node_0x604000000810</title>
<path fill="none" stroke="#964b00" d="M315.46,-490.52C323.16,-477.89 331.61,-464.04 339.3,-451.41"/>
<polygon fill="#964b00" stroke="#964b00" points="312.57,-488.53 310.35,-498.89 318.55,-492.18 312.57,-488.53"/>
<polygon fill="#964b00" stroke="#964b00" points="342.28,-453.25 344.5,-442.89 336.3,-449.61 342.28,-453.25"/>
</g>
<!-- node_0x604000000610 -->
<g id="node3" class="node">
<title>node_0x604000000610</title>
<path fill="#daa520" stroke="#964b00" d="M18,-250.5C18,-250.5 117.72,-250.5 117.72,-250.5 123.72,-250.5 129.72,-256.5 129.72,-262.5 129.72,-262.5 129.72,-304.5 129.72,-304.5 129.72,-310.5 123.72,-316.5 117.72,-316.5 117.72,-316.5 18,-316.5 18,-316.5 12,-316.5 6,-310.5 6,-304.5 6,-304.5 6,-262.5 6,-262.5 6,-256.5 12,-250.5 18,-250.5"/>
<text xml:space="preserve" text-anchor="middle" x="67.86" y="-301.3" font-family="Times,serif" font-size="14.00">type = VARIABLE</text>
<polyline fill="none" stroke="#964b00" points="6,-294.5 129.72,-294.5"/>
<text xml:space="preserve" text-anchor="middle" x="67.77" y="-279.3" font-family="Times,serif" font-size="14.00">val = 0(a)</text>
<polyline fill="none" stroke="#964b00" points="6,-272.5 129.72,-272.5"/>
<text xml:space="preserve" text-anchor="middle" x="36.5" y="-257.3" font-family="Times,serif" font-size="14.00">0</text>
<polyline fill="none" stroke="#964b00" points="67,-250.5 67,-272.5"/>
<text xml:space="preserve" text-anchor="middle" x="98" y="-257.3" font-family="Times,serif" font-size="14.00">0</text>
</g>
<!-- node_0x604000000590&#45;&gt;node_0x604000000610 -->
<g id="edge2" class="edge">
<title>node_0x604000000590&#45;&gt;node_0x604000000610</title>
<path fill="none" stroke="#964b00" d="M167.41,-367.8C150.64,-353.76 131.78,-337.98 115.03,-323.97"/>
<polygon fill="#964b00" stroke="#964b00" points="165.16,-370.48 175.08,-374.21 169.65,-365.11 165.16,-370.48"/>
<polygon fill="#964b00" stroke="#964b00" points="117.56,-321.52 107.64,-317.79 113.06,-326.89 117.56,-321.52"/>
</g>
<!-- node_0x604000000790 -->
<g id="node4" class="node">
<title>node_0x604000000790</title>
<path fill="#00ffff" stroke="#964b00" d="M163.31,-250.5C163.31,-250.5 266.41,-250.5 266.41,-250.5 272.41,-250.5 278.41,-256.5 278.41,-262.5 278.41,-262.5 278.41,-304.5 278.41,-304.5 278.41,-310.5 272.41,-316.5 266.41,-316.5 266.41,-316.5 163.31,-316.5 163.31,-316.5 157.31,-316.5 151.31,-310.5 151.31,-304.5 151.31,-304.5 151.31,-262.5 151.31,-262.5 151.31,-256.5 157.31,-250.5 163.31,-250.5"/>
<text xml:space="preserve" text-anchor="middle" x="214.86" y="-301.3" font-family="Times,serif" font-size="14.00">type = OPERATOR</text>
<polyline fill="none" stroke="#964b00" points="151.31,-294.5 278.41,-294.5"/>
<text xml:space="preserve" text-anchor="middle" x="214.45" y="-279.3" font-family="Times,serif" font-size="14.00">val = 11(OP_SP)</text>
<polyline fill="none" stroke="#964b00" points="151.31,-272.5 278.41,-272.5"/>
<text xml:space="preserve" text-anchor="middle" x="182.59" y="-257.3" font-family="Times,serif" font-size="14.00">L</text>
<polyline fill="none" stroke="#964b00" points="213.86,-250.5 213.86,-272.5"/>
<text xml:space="preserve" text-anchor="middle" x="246.03" y="-257.3" font-family="Times,serif" font-size="14.00">R</text>
</g>
<!-- node_0x604000000590&#45;&gt;node_0x604000000790 -->
<g id="edge3" class="edge">
<title>node_0x604000000590&#45;&gt;node_0x604000000790</title>
<path fill="none" stroke="#964b00" d="M214.86,-363.7C214.86,-352.05 214.86,-339.47 214.86,-327.84"/>
<polygon fill="#964b00" stroke="#964b00" points="211.36,-363.67 214.86,-373.67 218.36,-363.67 211.36,-363.67"/>
<polygon fill="#964b00" stroke="#964b00" points="218.36,-328.11 214.86,-318.11 211.36,-328.11 218.36,-328.11"/>
</g>
<!-- node_0x604000000710 -->
<g id="node5" class="node">
<title>node_0x604000000710</title>
<path fill="#00ffff" stroke="#964b00" d="M162.31,-125.5C162.31,-125.5 265.41,-125.5 265.41,-125.5 271.41,-125.5 277.41,-131.5 277.41,-137.5 277.41,-137.5 277.41,-179.5 277.41,-179.5 277.41,-185.5 271.41,-191.5 265.41,-191.5 265.41,-191.5 162.31,-191.5 162.31,-191.5 156.31,-191.5 150.31,-185.5 150.31,-179.5 150.31,-179.5 150.31,-137.5 150.31,-137.5 150.31,-131.5 156.31,-125.5 162.31,-125.5"/>
<text xml:space="preserve" text-anchor="middle" x="213.86" y="-176.3" font-family="Times,serif" font-size="14.00">type = OPERATOR</text>
<polyline fill="none" stroke="#964b00" points="150.31,-169.5 277.41,-169.5"/>
<text xml:space="preserve" text-anchor="middle" x="213.76" y="-154.3" font-family="Times,serif" font-size="14.00">val = 7(OP_ASS)</text>
<polyline fill="none" stroke="#964b00" points="150.31,-147.5 277.41,-147.5"/>
<text xml:space="preserve" text-anchor="middle" x="181.59" y="-132.3" font-family="Times,serif" font-size="14.00">L</text>
<polyline fill="none" stroke="#964b00" points="212.86,-125.5 212.86,-147.5"/>
<text xml:space="preserve" text-anchor="middle" x="245.03" y="-132.3" font-family="Times,serif" font-size="14.00">R</text>
</g>
<!-- node_0x604000000790&#45;&gt;node_0x604000000710 -->
<g id="edge4" class="edge">
<title>node_0x604000000790&#45;&gt;node_0x604000000710</title>
<path fill="none" stroke="#964b00" d="M214.5,-238.7C214.41,-227.05 214.31,-214.47 214.21,-202.84"/>
<polygon fill="#964b00" stroke="#964b00" points="211,-238.7 214.59,-248.67 218,-238.64 211,-238.7"/>
<polygon fill="#964b00" stroke="#964b00" points="217.71,-203.09 214.13,-193.11 210.72,-203.14 217.71,-203.09"/>
</g>
<!-- node_0x6040000006d0 -->
<g id="node6" class="node">
<title>node_0x6040000006d0</title>
<path fill="#daa520" stroke="#964b00" d="M12,-0.5C12,-0.5 111.72,-0.5 111.72,-0.5 117.72,-0.5 123.72,-6.5 123.72,-12.5 123.72,-12.5 123.72,-54.5 123.72,-54.5 123.72,-60.5 117.72,-66.5 111.72,-66.5 111.72,-66.5 12,-66.5 12,-66.5 6,-66.5 0,-60.5 0,-54.5 0,-54.5 0,-12.5 0,-12.5 0,-6.5 6,-0.5 12,-0.5"/>
<text xml:space="preserve" text-anchor="middle" x="61.86" y="-51.3" font-family="Times,serif" font-size="14.00">type = VARIABLE</text>
<polyline fill="none" stroke="#964b00" points="0,-44.5 123.72,-44.5"/>
<text xml:space="preserve" text-anchor="middle" x="61.77" y="-29.3" font-family="Times,serif" font-size="14.00">val = 0(a)</text>
<polyline fill="none" stroke="#964b00" points="0,-22.5 123.72,-22.5"/>
<text xml:space="preserve" text-anchor="middle" x="30.5" y="-7.3" font-family="Times,serif" font-size="14.00">0</text>
<polyline fill="none" stroke="#964b00" points="61,-0.5 61,-22.5"/>
<text xml:space="preserve" text-anchor="middle" x="92" y="-7.3" font-family="Times,serif" font-size="14.00">0</text>
</g>
<!-- node_0x604000000710&#45;&gt;node_0x6040000006d0 -->
<g id="edge5" class="edge">
<title>node_0x604000000710&#45;&gt;node_0x6040000006d0</title>
<path fill="none" stroke="#964b00" d="M165.07,-118.02C147.67,-103.94 128.08,-88.08 110.67,-74"/>
<polygon fill="#964b00" stroke="#964b00" points="162.77,-120.66 172.75,-124.23 167.18,-115.22 162.77,-120.66"/>
<polygon fill="#964b00" stroke="#964b00" points="112.95,-71.34 102.97,-67.77 108.54,-76.78 112.95,-71.34"/>
</g>
<!-- node_0x604000000750 -->
<g id="node7" class="node">
<title>node_0x604000000750</title>
<path fill="#98fb98" stroke="#964b00" d="M158.04,-0.5C158.04,-0.5 269.69,-0.5 269.69,-0.5 275.69,-0.5 281.69,-6.5 281.69,-12.5 281.69,-12.5 281.69,-54.5 281.69,-54.5 281.69,-60.5 275.69,-66.5 269.69,-66.5 269.69,-66.5 158.04,-66.5 158.04,-66.5 152.04,-66.5 146.04,-60.5 146.04,-54.5 146.04,-54.5 146.04,-12.5 146.04,-12.5 146.04,-6.5 152.04,-0.5 158.04,-0.5"/>
<text xml:space="preserve" text-anchor="middle" x="213.86" y="-51.3" font-family="Times,serif" font-size="14.00">type = CONST_VAR</text>
<polyline fill="none" stroke="#964b00" points="146.04,-44.5 281.69,-44.5"/>
<text xml:space="preserve" text-anchor="middle" x="213.54" y="-29.3" font-family="Times,serif" font-size="14.00">val = 7</text>
<polyline fill="none" stroke="#964b00" points="146.04,-22.5 281.69,-22.5"/>
<text xml:space="preserve" text-anchor="middle" x="179.54" y="-7.3" font-family="Times,serif" font-size="14.00">0</text>
<polyline fill="none" stroke="#964b00" points="213.04,-0.5 213.04,-22.5"/>
<text xml:space="preserve" text-anchor="middle" x="247.04" y="-7.3" font-family="Times,serif" font-size="14.00">0</text>
</g>
<!-- node_0x604000000710&#45;&gt;node_0x604000000750 -->
<g id="edge6" class="edge">
<title>node_0x604000000710&#45;&gt;node_0x604000000750</title>
<path fill="none" stroke="#964b00" d="M213.86,-113.7C213.86,-102.05 213.86,-89.47 213.86,-77.84"/>
<polygon fill="#964b00" stroke="#964b00" points="210.36,-113.67 213.86,-123.67 217.36,-113.67 210.36,-113.67"/>
<polygon fill="#964b00" stroke="#964b00" points="217.36,-78.11 213.86,-68.11 210.36,-78.11 217.36,-78.11"/>
</g>
<!-- node_0x604000000950 -->
<g id="node9" class="node">
<title>node_0x604000000950</title>
<path fill="#00ffff" stroke="#964b00" d="M314.31,-250.5C314.31,-250.5 417.41,-250.5 417.41,-250.5 423.41,-250.5 429.41,-256.5 429.41,-262.5 429.41,-262.5 429.41,-304.5 429.41,-304.5 429.41,-310.5 423.41,-316.5 417.41,-316.5 417.41,-316.5 314.31,-316.5 314.31,-316.5 308.31,-316.5 302.31,-310.5 302.31,-304.5 302.31,-304.5 302.31,-262.5 302.31,-262.5 302.31,-256.5 308.31,-250.5 314.31,-250.5"/>
<text xml:space="preserve" text-anchor="middle" x="365.86" y="-301.3" font-family="Times,serif" font-size="14.00">type = OPERATOR</text>
<polyline fill="none" stroke="#964b00" points="302.31,-294.5 429.41,-294.5"/>
<text xml:space="preserve" text-anchor="middle" x="365.45" y="-279.3" font-family="Times,serif" font-size="14.00">val = 11(OP_SP)</text>
<polyline fill="none" stroke="#964b00" points="302.31,-272.5 429.41,-272.5"/>
<text xml:space="preserve" text-anchor="middle" x="333.59" y="-257.3" font-family="Times,serif" font-size="14.00">L</text>
<polyline fill="none" stroke="#964b00" points="364.86,-250.5 364.86,-272.5"/>
<text xml:space="preserve" text-anchor="middle" x="397.03" y="-257.3" font-family="Times,serif" font-size="14.00">R</text>
</g>
<!-- node_0x604000000810&#45;&gt;node_0x604000000950 -->
<g id="edge8" class="edge">
<title>node_0x604000000810&#45;&gt;node_0x604000000950</title>
<path fill="none" stroke="#964b00" d="M365.22,-363.7C365.31,-352.05 365.41,-339.47 365.51,-327.84"/>
<polygon fill="#964b00" stroke="#964b00" points="361.72,-363.64 365.14,-373.67 368.72,-363.7 361.72,-363.64"/>
<polygon fill="#964b00" stroke="#964b00" points="369.01,-328.14 365.59,-318.11 362.01,-328.09 369.01,-328.14"/>
</g>
<!-- node_0x6040000008d0 -->
<g id="node10" class="node">
<title>node_0x6040000008d0</title>
<path fill="#00ffff" stroke="#964b00" d="M314.31,-125.5C314.31,-125.5 417.41,-125.5 417.41,-125.5 423.41,-125.5 429.41,-131.5 429.41,-137.5 429.41,-137.5 429.41,-179.5 429.41,-179.5 429.41,-185.5 423.41,-191.5 417.41,-191.5 417.41,-191.5 314.31,-191.5 314.31,-191.5 308.31,-191.5 302.31,-185.5 302.31,-179.5 302.31,-179.5 302.31,-137.5 302.31,-137.5 302.31,-131.5 308.31,-125.5 314.31,-125.5"/>
<text xml:space="preserve" text-anchor="middle" x="365.86" y="-176.3" font-family="Times,serif" font-size="14.00">type = OPERATOR</text>
<polyline fill="none" stroke="#964b00" points="302.31,-169.5 429.41,-169.5"/>
<text xml:space="preserve" text-anchor="middle" x="365.76" y="-154.3" font-family="Times,serif" font-size="14.00">val = 7(OP_ASS)</text>
<polyline fill="none" stroke="#964b00" points="302.31,-147.5 429.41,-147.5"/>
<text xml:space="preserve" text-anchor="middle" x="333.59" y="-132.3" font-family="Times,serif" font-size="14.00">L</text>
<polyline fill="none" stroke="#964b00" points="364.86,-125.5 364.86,-147.5"/>
<text xml:space="preserve" text-anchor="middle" x="397.03" y="-132.3" font-family="Times,serif" font-size="14.00">R</text>
</g>
<!-- node_0x604000000950&#45;&gt;node_0x6040000008d0 -->
<g id="edge9" class="edge">
<title>node_0x604000000950&#45;&gt;node_0x6040000008d0</title>
<path fill="none" stroke="#964b00" d="M365.86,-238.7C365.86,-227.05 365.86,-214.47 365.86,-202.84"/>
<polygon fill="#964b00" stroke="#964b00" points="362.36,-238.67 365.86,-248.67 369.36,-238.67 362.36,-238.67"/>
<polygon fill="#964b00" stroke="#964b00" points="369.36,-203.11 365.86,-193.11 362.36,-203.11 369.36,-203.11"/>
</g>
<!-- node_0x604000000890 -->
<g id="node11" class="node">
<title>node_0x604000000890</title>
<path fill="#daa520" stroke="#964b00" d="M316,-0.5C316,-0.5 415.72,-0.5 415.72,-0.5 421.72,-0.5 427.72,-6.5 427.72,-12.5 427.72,-12.5 427.72,-54.5 427.72,-54.5 427.72,-60.5 421.72,-66.5 415.72,-66.5 415.72,-66.5 316,-66.5 316,-66.5 310,-66.5 304,-60.5 304,-54.5 304,-54.5 304,-12.5 304,-12.5 304,-6.5 310,-0.5 316,-0.5"/>
<text xml:space="preserve" text-anchor="middle" x="365.86" y="-51.3" font-family="Times,serif" font-size="14.00">type = VARIABLE</text>
<polyline fill="none" stroke="#964b00" points="304,-44.5 427.72,-44.5"/>
<text xml:space="preserve" text-anchor="middle" x="365.77" y="-29.3" font-family="Times,serif" font-size="14.00">val = 0(a)</text>
<polyline fill="none" stroke="#964b00" points="304,-22.5 427.72,-22.5"/>
<text xml:space="preserve" text-anchor="middle" x="334.5" y="-7.3" font-family="Times,serif" font-size="14.00">0</text>
<polyline fill="none" stroke="#964b00" points="365,-0.5 365,-22.5"/>
<text xml:space="preserve" text-anchor="middle" x="396" y="-7.3" font-family="Times,serif" font-size="14.00">0</text>
</g>
<!-- node_0x6040000008d0&#45;&gt;node_0x604000000890 -->
<g id="edge10" class="edge">
<title>node_0x6040000008d0&#45;&gt;node_0x604000000890</title>
<path fill="none" stroke="#964b00" d="M365.86,-113.7C365.86,-102.05 365.86,-89.47 365.86,-77.84"/>
<polygon fill="#964b00" stroke="#964b00" points="362.36,-113.67 365.86,-123.67 369.36,-113.67 362.36,-113.67"/>
<polygon fill="#964b00" stroke="#964b00" points="369.36,-78.11 365.86,-68.11 362.36,-78.11 369.36,-78.11"/>
</g>
<!-- node_0x604000000910 -->
<g id="node12" class="node">
<title>node_0x604000000910</title>
<path fill="#98fb98" stroke="#964b00" d="M462.04,-0.5C462.04,-0.5 573.69,-0.5 573.69,-0.5 579.69,-0.5 585.69,-6.5 585.69,-12.5 585.69,-12.5 585.69,-54.5 585.69,-54.5 585.69,-60.5 579.69,-66.5 573.69,-66.5 573.69,-66.5 462.04,-66.5 462.04,-66.5 456.04,-66.5 450.04,-60.5 450.04,-54.5 450.04,-54.5 450.04,-12.5 450.04,-12.5 450.04,-6.5 456.04,-0.5 462.04,-0.5"/>
<text xml:space="preserve" text-anchor="middle" x="517.86" y="-51.3" font-family="Times,serif" font-size="14.00">type = CONST_VAR</text>
<polyline fill="none" stroke="#964b00" points="450.04,-44.5 585.69,-44.5"/>
<text xml:space="preserve" text-anchor="middle" x="517.54" y="-29.3" font-family="Times,serif" font-size="14.00">val = 6</text>
<polyline fill="none" stroke="#964b00" points="450.04,-22.5 585.69,-22.5"/>
<text xml:space="preserve" text-anchor="middle" x="483.54" y="-7.3" font-family="Times,serif" font-size="14.00">0</text>
<polyline fill="none" stroke="#964b00" points="517.04,-0.5 517.04,-22.5"/>
<text xml:space="preserve" text-anchor="middle" x="551.04" y="-7.3" font-family="Times,serif" font-size="14.00">0</text>
</g>
<!-- node_0x6040000008d0&#45;&gt;node_0x604000000910 -->
<g id="edge11" class="edge">
<title>node_0x6040000008d0&#45;&gt;node_0x604000000910</title>
<path fill="none" stroke="#964b00" d="M414.65,-118.02C432.05,-103.94 451.64,-88.08 469.05,-74"/>
<polygon fill="#964b00" stroke="#964b00" points="412.55,-115.22 406.97,-124.23 416.95,-120.66 412.55,-115.22"/>
<polygon fill="#964b00" stroke="#964b00" points="471.18,-76.78 476.75,-67.77 466.78,-71.34 471.18,-76.78"/>
</g>
</g>
</svg>
