<?xml version="1.0" encoding="UTF-8" standalone="no"?>
<!DOCTYPE svg PUBLIC "-//W3C//DTD SVG 1.1//EN"
 "http://www.w3.org/Graphics/SVG/1.1/DTD/svg11.dtd">
<!-- Generated by graphviz version 14.0.2 (20251019.1705)
 -->
<!-- Title: G Pages: 1 -->
<svg width="970pt" height="700pt"
 viewBox="0.00 0.00 970.00 700.00" xmlns="http://www.w3.org/2000/svg" xmlns:xlink="http://www.w3.org/1999/xlink">
<g id="graph0" class="graph" transform="scale(1 1) rotate(0) translate(4 696)">
<title>G</title>
<polygon fill="#fffafa" stroke="none" points="-4,4 -4,-696 965.69,-696 965.69,4 -4,4"/>
<!-- node_0x604000001150 -->
<g id="node1" class="node">
<title>node_0x604000001150</title>
<path fill="#00ffff" stroke="#964b00" d="M389.31,-625.5C389.31,-625.5 492.41,-625.5 492.41,-625.5 498.41,-625.5 504.41,-631.5 504.41,-637.5 504.41,-637.5 504.41,-679.5 504.41,-679.5 504.41,-685.5 498.41,-691.5 492.41,-691.5 492.41,-691.5 389.31,-691.5 389.31,-691.5 383.31,-691.5 377.31,-685.5 377.31,-679.5 377.31,-679.5 377.31,-637.5 377.31,-637.5 377.31,-631.5 383.31,-625.5 389.31,-625.5"/>
<text xml:space="preserve" text-anchor="middle" x="440.86" y="-676.3" font-family="Times,serif" font-size="14.00">type = OPERATOR</text>
<polyline fill="none" stroke="#964b00" points="377.31,-669.5 504.41,-669.5"/>
<text xml:space="preserve" text-anchor="middle" x="440.45" y="-654.3" font-family="Times,serif" font-size="14.00">val = 11(OP_SP)</text>
<polyline fill="none" stroke="#964b00" points="377.31,-647.5 504.41,-647.5"/>
<text xml:space="preserve" text-anchor="middle" x="408.59" y="-632.3" font-family="Times,serif" font-size="14.00">L</text>
<polyline fill="none" stroke="#964b00" points="439.86,-625.5 439.86,-647.5"/>
<text xml:space="preserve" text-anchor="middle" x="472.03" y="-632.3" font-family="Times,serif" font-size="14.00">R</text>
</g>
<!-- node_0x604000001110 -->
<g id="node2" class="node">
<title>node_0x604000001110</title>
<path fill="#00ffff" stroke="#964b00" d="M314.31,-500.5C314.31,-500.5 417.41,-500.5 417.41,-500.5 423.41,-500.5 429.41,-506.5 429.41,-512.5 429.41,-512.5 429.41,-554.5 429.41,-554.5 429.41,-560.5 423.41,-566.5 417.41,-566.5 417.41,-566.5 314.31,-566.5 314.31,-566.5 308.31,-566.5 302.31,-560.5 302.31,-554.5 302.31,-554.5 302.31,-512.5 302.31,-512.5 302.31,-506.5 308.31,-500.5 314.31,-500.5"/>
<text xml:space="preserve" text-anchor="middle" x="365.86" y="-551.3" font-family="Times,serif" font-size="14.00">type = OPERATOR</text>
<polyline fill="none" stroke="#964b00" points="302.31,-544.5 429.41,-544.5"/>
<text xml:space="preserve" text-anchor="middle" x="365.45" y="-529.3" font-family="Times,serif" font-size="14.00">val = 11(OP_SP)</text>
<polyline fill="none" stroke="#964b00" points="302.31,-522.5 429.41,-522.5"/>
<text xml:space="preserve" text-anchor="middle" x="333.59" y="-507.3" font-family="Times,serif" font-size="14.00">L</text>
<polyline fill="none" stroke="#964b00" points="364.86,-500.5 364.86,-522.5"/>
<text xml:space="preserve" text-anchor="middle" x="397.03" y="-507.3" font-family="Times,serif" font-size="14.00">R</text>
</g>
<!-- node_0x604000001150&#45;&gt;node_0x604000001110 -->
<g id="edge1" class="edge">
<title>node_0x604000001150&#45;&gt;node_0x604000001110</title>
<path fill="none" stroke="#964b00" d="M415.26,-615.52C407.56,-602.89 399.11,-589.04 391.42,-576.41"/>
<polygon fill="#964b00" stroke="#964b00" points="412.17,-617.18 420.37,-623.89 418.15,-613.53 412.17,-617.18"/>
<polygon fill="#964b00" stroke="#964b00" points="394.42,-574.61 386.22,-567.89 388.44,-578.25 394.42,-574.61"/>
</g>
<!-- node_0x604000000a90 -->
<g id="node14" class="node">
<title>node_0x604000000a90</title>
<path fill="#00ffff" stroke="#964b00" d="M538.31,-500.5C538.31,-500.5 641.41,-500.5 641.41,-500.5 647.41,-500.5 653.41,-506.5 653.41,-512.5 653.41,-512.5 653.41,-554.5 653.41,-554.5 653.41,-560.5 647.41,-566.5 641.41,-566.5 641.41,-566.5 538.31,-566.5 538.31,-566.5 532.31,-566.5 526.31,-560.5 526.31,-554.5 526.31,-554.5 526.31,-512.5 526.31,-512.5 526.31,-506.5 532.31,-500.5 538.31,-500.5"/>
<text xml:space="preserve" text-anchor="middle" x="589.86" y="-551.3" font-family="Times,serif" font-size="14.00">type = OPERATOR</text>
<polyline fill="none" stroke="#964b00" points="526.31,-544.5 653.41,-544.5"/>
<text xml:space="preserve" text-anchor="middle" x="589.45" y="-529.3" font-family="Times,serif" font-size="14.00">val = 11(OP_SP)</text>
<polyline fill="none" stroke="#964b00" points="526.31,-522.5 653.41,-522.5"/>
<text xml:space="preserve" text-anchor="middle" x="557.59" y="-507.3" font-family="Times,serif" font-size="14.00">L</text>
<polyline fill="none" stroke="#964b00" points="588.86,-500.5 588.86,-522.5"/>
<text xml:space="preserve" text-anchor="middle" x="621.03" y="-507.3" font-family="Times,serif" font-size="14.00">R</text>
</g>
<!-- node_0x604000001150&#45;&gt;node_0x604000000a90 -->
<g id="edge13" class="edge">
<title>node_0x604000001150&#45;&gt;node_0x604000000a90</title>
<path fill="none" stroke="#964b00" d="M488.68,-618.02C505.74,-603.94 524.95,-588.08 542.01,-574"/>
<polygon fill="#964b00" stroke="#964b00" points="486.66,-615.15 481.18,-624.22 491.12,-620.55 486.66,-615.15"/>
<polygon fill="#964b00" stroke="#964b00" points="544.06,-576.84 549.55,-567.78 539.61,-571.44 544.06,-576.84"/>
</g>
<!-- node_0x604000000590 -->
<g id="node3" class="node">
<title>node_0x604000000590</title>
<path fill="#00ffff" stroke="#964b00" d="M163.31,-375.5C163.31,-375.5 266.41,-375.5 266.41,-375.5 272.41,-375.5 278.41,-381.5 278.41,-387.5 278.41,-387.5 278.41,-429.5 278.41,-429.5 278.41,-435.5 272.41,-441.5 266.41,-441.5 266.41,-441.5 163.31,-441.5 163.31,-441.5 157.31,-441.5 151.31,-435.5 151.31,-429.5 151.31,-429.5 151.31,-387.5 151.31,-387.5 151.31,-381.5 157.31,-375.5 163.31,-375.5"/>
<text xml:space="preserve" text-anchor="middle" x="214.86" y="-426.3" font-family="Times,serif" font-size="14.00">type = OPERATOR</text>
<polyline fill="none" stroke="#964b00" points="151.31,-419.5 278.41,-419.5"/>
<text xml:space="preserve" text-anchor="middle" x="214.65" y="-404.3" font-family="Times,serif" font-size="14.00">val = 12(OP_IF)</text>
<polyline fill="none" stroke="#964b00" points="151.31,-397.5 278.41,-397.5"/>
<text xml:space="preserve" text-anchor="middle" x="182.59" y="-382.3" font-family="Times,serif" font-size="14.00">L</text>
<polyline fill="none" stroke="#964b00" points="213.86,-375.5 213.86,-397.5"/>
<text xml:space="preserve" text-anchor="middle" x="246.03" y="-382.3" font-family="Times,serif" font-size="14.00">R</text>
</g>
<!-- node_0x604000001110&#45;&gt;node_0x604000000590 -->
<g id="edge2" class="edge">
<title>node_0x604000001110&#45;&gt;node_0x604000000590</title>
<path fill="none" stroke="#964b00" d="M317.39,-493.02C300.11,-478.94 280.64,-463.08 263.35,-449"/>
<polygon fill="#964b00" stroke="#964b00" points="315.05,-495.63 325.01,-499.23 319.47,-490.2 315.05,-495.63"/>
<polygon fill="#964b00" stroke="#964b00" points="265.67,-446.37 255.7,-442.77 261.25,-451.8 265.67,-446.37"/>
</g>
<!-- node_0x604000000810 -->
<g id="node9" class="node">
<title>node_0x604000000810</title>
<path fill="#00ffff" stroke="#964b00" d="M313.03,-375.5C313.03,-375.5 418.69,-375.5 418.69,-375.5 424.69,-375.5 430.69,-381.5 430.69,-387.5 430.69,-387.5 430.69,-429.5 430.69,-429.5 430.69,-435.5 424.69,-441.5 418.69,-441.5 418.69,-441.5 313.03,-441.5 313.03,-441.5 307.03,-441.5 301.03,-435.5 301.03,-429.5 301.03,-429.5 301.03,-387.5 301.03,-387.5 301.03,-381.5 307.03,-375.5 313.03,-375.5"/>
<text xml:space="preserve" text-anchor="middle" x="365.58" y="-426.3" font-family="Times,serif" font-size="14.00">type = OPERATOR</text>
<polyline fill="none" stroke="#964b00" points="301.03,-419.5 430.69,-419.5"/>
<text xml:space="preserve" text-anchor="middle" x="365.86" y="-404.3" font-family="Times,serif" font-size="14.00">val = 13(OP_ELSE)</text>
<polyline fill="none" stroke="#964b00" points="301.03,-397.5 430.69,-397.5"/>
<text xml:space="preserve" text-anchor="middle" x="332.81" y="-382.3" font-family="Times,serif" font-size="14.00">L</text>
<polyline fill="none" stroke="#964b00" points="364.58,-375.5 364.58,-397.5"/>
<text xml:space="preserve" text-anchor="middle" x="397.25" y="-382.3" font-family="Times,serif" font-size="14.00">R</text>
</g>
<!-- node_0x604000001110&#45;&gt;node_0x604000000810 -->
<g id="edge8" class="edge">
<title>node_0x604000001110&#45;&gt;node_0x604000000810</title>
<path fill="none" stroke="#964b00" d="M365.86,-488.7C365.86,-477.05 365.86,-464.47 365.86,-452.84"/>
<polygon fill="#964b00" stroke="#964b00" points="362.36,-488.67 365.86,-498.67 369.36,-488.67 362.36,-488.67"/>
<polygon fill="#964b00" stroke="#964b00" points="369.36,-453.11 365.86,-443.11 362.36,-453.11 369.36,-453.11"/>
</g>
<!-- node_0x604000000610 -->
<g id="node4" class="node">
<title>node_0x604000000610</title>
<path fill="#daa520" stroke="#964b00" d="M18,-250.5C18,-250.5 117.72,-250.5 117.72,-250.5 123.72,-250.5 129.72,-256.5 129.72,-262.5 129.72,-262.5 129.72,-304.5 129.72,-304.5 129.72,-310.5 123.72,-316.5 117.72,-316.5 117.72,-316.5 18,-316.5 18,-316.5 12,-316.5 6,-310.5 6,-304.5 6,-304.5 6,-262.5 6,-262.5 6,-256.5 12,-250.5 18,-250.5"/>
<text xml:space="preserve" text-anchor="middle" x="67.86" y="-301.3" font-family="Times,serif" font-size="14.00">type = VARIABLE</text>
<polyline fill="none" stroke="#964b00" points="6,-294.5 129.72,-294.5"/>
<text xml:space="preserve" text-anchor="middle" x="67.77" y="-279.3" font-family="Times,serif" font-size="14.00">val = 0(a)</text>
<polyline fill="none" stroke="#964b00" points="6,-272.5 129.72,-272.5"/>
<text xml:space="preserve" text-anchor="middle" x="36.5" y="-257.3" font-family="Times,serif" font-size="14.00">0</text>
<polyline fill="none" stroke="#964b00" points="67,-250.5 67,-272.5"/>
<text xml:space="preserve" text-anchor="middle" x="98" y="-257.3" font-family="Times,serif" font-size="14.00">0</text>
</g>
<!-- node_0x604000000590&#45;&gt;node_0x604000000610 -->
<g id="edge3" class="edge">
<title>node_0x604000000590&#45;&gt;node_0x604000000610</title>
<path fill="none" stroke="#964b00" d="M167.41,-367.8C150.64,-353.76 131.78,-337.98 115.03,-323.97"/>
<polygon fill="#964b00" stroke="#964b00" points="165.16,-370.48 175.08,-374.21 169.65,-365.11 165.16,-370.48"/>
<polygon fill="#964b00" stroke="#964b00" points="117.56,-321.52 107.64,-317.79 113.06,-326.89 117.56,-321.52"/>
</g>
<!-- node_0x604000000790 -->
<g id="node5" class="node">
<title>node_0x604000000790</title>
<path fill="#00ffff" stroke="#964b00" d="M163.31,-250.5C163.31,-250.5 266.41,-250.5 266.41,-250.5 272.41,-250.5 278.41,-256.5 278.41,-262.5 278.41,-262.5 278.41,-304.5 278.41,-304.5 278.41,-310.5 272.41,-316.5 266.41,-316.5 266.41,-316.5 163.31,-316.5 163.31,-316.5 157.31,-316.5 151.31,-310.5 151.31,-304.5 151.31,-304.5 151.31,-262.5 151.31,-262.5 151.31,-256.5 157.31,-250.5 163.31,-250.5"/>
<text xml:space="preserve" text-anchor="middle" x="214.86" y="-301.3" font-family="Times,serif" font-size="14.00">type = OPERATOR</text>
<polyline fill="none" stroke="#964b00" points="151.31,-294.5 278.41,-294.5"/>
<text xml:space="preserve" text-anchor="middle" x="214.45" y="-279.3" font-family="Times,serif" font-size="14.00">val = 11(OP_SP)</text>
<polyline fill="none" stroke="#964b00" points="151.31,-272.5 278.41,-272.5"/>
<text xml:space="preserve" text-anchor="middle" x="182.59" y="-257.3" font-family="Times,serif" font-size="14.00">L</text>
<polyline fill="none" stroke="#964b00" points="213.86,-250.5 213.86,-272.5"/>
<text xml:space="preserve" text-anchor="middle" x="246.03" y="-257.3" font-family="Times,serif" font-size="14.00">R</text>
</g>
<!-- node_0x604000000590&#45;&gt;node_0x604000000790 -->
<g id="edge4" class="edge">
<title>node_0x604000000590&#45;&gt;node_0x604000000790</title>
<path fill="none" stroke="#964b00" d="M214.86,-363.7C214.86,-352.05 214.86,-339.47 214.86,-327.84"/>
<polygon fill="#964b00" stroke="#964b00" points="211.36,-363.67 214.86,-373.67 218.36,-363.67 211.36,-363.67"/>
<polygon fill="#964b00" stroke="#964b00" points="218.36,-328.11 214.86,-318.11 211.36,-328.11 218.36,-328.11"/>
</g>
<!-- node_0x604000000710 -->
<g id="node6" class="node">
<title>node_0x604000000710</title>
<path fill="#00ffff" stroke="#964b00" d="M162.31,-125.5C162.31,-125.5 265.41,-125.5 265.41,-125.5 271.41,-125.5 277.41,-131.5 277.41,-137.5 277.41,-137.5 277.41,-179.5 277.41,-179.5 277.41,-185.5 271.41,-191.5 265.41,-191.5 265.41,-191.5 162.31,-191.5 162.31,-191.5 156.31,-191.5 150.31,-185.5 150.31,-179.5 150.31,-179.5 150.31,-137.5 150.31,-137.5 150.31,-131.5 156.31,-125.5 162.31,-125.5"/>
<text xml:space="preserve" text-anchor="middle" x="213.86" y="-176.3" font-family="Times,serif" font-size="14.00">type = OPERATOR</text>
<polyline fill="none" stroke="#964b00" points="150.31,-169.5 277.41,-169.5"/>
<text xml:space="preserve" text-anchor="middle" x="213.76" y="-154.3" font-family="Times,serif" font-size="14.00">val = 7(OP_ASS)</text>
<polyline fill="none" stroke="#964b00" points="150.31,-147.5 277.41,-147.5"/>
<text xml:space="preserve" text-anchor="middle" x="181.59" y="-132.3" font-family="Times,serif" font-size="14.00">L</text>
<polyline fill="none" stroke="#964b00" points="212.86,-125.5 212.86,-147.5"/>
<text xml:space="preserve" text-anchor="middle" x="245.03" y="-132.3" font-family="Times,serif" font-size="14.00">R</text>
</g>
<!-- node_0x604000000790&#45;&gt;node_0x604000000710 -->
<g id="edge5" class="edge">
<title>node_0x604000000790&#45;&gt;node_0x604000000710</title>
<path fill="none" stroke="#964b00" d="M214.5,-238.7C214.41,-227.05 214.31,-214.47 214.21,-202.84"/>
<polygon fill="#964b00" stroke="#964b00" points="211,-238.7 214.59,-248.67 218,-238.64 211,-238.7"/>
<polygon fill="#964b00" stroke="#964b00" points="217.71,-203.09 214.13,-193.11 210.72,-203.14 217.71,-203.09"/>
</g>
<!-- node_0x6040000006d0 -->
<g id="node7" class="node">
<title>node_0x6040000006d0</title>
<path fill="#daa520" stroke="#964b00" d="M12,-0.5C12,-0.5 111.72,-0.5 111.72,-0.5 117.72,-0.5 123.72,-6.5 123.72,-12.5 123.72,-12.5 123.72,-54.5 123.72,-54.5 123.72,-60.5 117.72,-66.5 111.72,-66.5 111.72,-66.5 12,-66.5 12,-66.5 6,-66.5 0,-60.5 0,-54.5 0,-54.5 0,-12.5 0,-12.5 0,-6.5 6,-0.5 12,-0.5"/>
<text xml:space="preserve" text-anchor="middle" x="61.86" y="-51.3" font-family="Times,serif" font-size="14.00">type = VARIABLE</text>
<polyline fill="none" stroke="#964b00" points="0,-44.5 123.72,-44.5"/>
<text xml:space="preserve" text-anchor="middle" x="61.77" y="-29.3" font-family="Times,serif" font-size="14.00">val = 0(a)</text>
<polyline fill="none" stroke="#964b00" points="0,-22.5 123.72,-22.5"/>
<text xml:space="preserve" text-anchor="middle" x="30.5" y="-7.3" font-family="Times,serif" font-size="14.00">0</text>
<polyline fill="none" stroke="#964b00" points="61,-0.5 61,-22.5"/>
<text xml:space="preserve" text-anchor="middle" x="92" y="-7.3" font-family="Times,serif" font-size="14.00">0</text>
</g>
<!-- node_0x604000000710&#45;&gt;node_0x6040000006d0 -->
<g id="edge6" class="edge">
<title>node_0x604000000710&#45;&gt;node_0x6040000006d0</title>
<path fill="none" stroke="#964b00" d="M165.07,-118.02C147.67,-103.94 128.08,-88.08 110.67,-74"/>
<polygon fill="#964b00" stroke="#964b00" points="162.77,-120.66 172.75,-124.23 167.18,-115.22 162.77,-120.66"/>
<polygon fill="#964b00" stroke="#964b00" points="112.95,-71.34 102.97,-67.77 108.54,-76.78 112.95,-71.34"/>
</g>
<!-- node_0x604000000750 -->
<g id="node8" class="node">
<title>node_0x604000000750</title>
<path fill="#98fb98" stroke="#964b00" d="M158.04,-0.5C158.04,-0.5 269.69,-0.5 269.69,-0.5 275.69,-0.5 281.69,-6.5 281.69,-12.5 281.69,-12.5 281.69,-54.5 281.69,-54.5 281.69,-60.5 275.69,-66.5 269.69,-66.5 269.69,-66.5 158.04,-66.5 158.04,-66.5 152.04,-66.5 146.04,-60.5 146.04,-54.5 146.04,-54.5 146.04,-12.5 146.04,-12.5 146.04,-6.5 152.04,-0.5 158.04,-0.5"/>
<text xml:space="preserve" text-anchor="middle" x="213.86" y="-51.3" font-family="Times,serif" font-size="14.00">type = CONST_VAR</text>
<polyline fill="none" stroke="#964b00" points="146.04,-44.5 281.69,-44.5"/>
<text xml:space="preserve" text-anchor="middle" x="213.54" y="-29.3" font-family="Times,serif" font-size="14.00">val = 7</text>
<polyline fill="none" stroke="#964b00" points="146.04,-22.5 281.69,-22.5"/>
<text xml:space="preserve" text-anchor="middle" x="179.54" y="-7.3" font-family="Times,serif" font-size="14.00">0</text>
<polyline fill="none" stroke="#964b00" points="213.04,-0.5 213.04,-22.5"/>
<text xml:space="preserve" text-anchor="middle" x="247.04" y="-7.3" font-family="Times,serif" font-size="14.00">0</text>
</g>
<!-- node_0x604000000710&#45;&gt;node_0x604000000750 -->
<g id="edge7" class="edge">
<title>node_0x604000000710&#45;&gt;node_0x604000000750</title>
<path fill="none" stroke="#964b00" d="M213.86,-113.7C213.86,-102.05 213.86,-89.47 213.86,-77.84"/>
<polygon fill="#964b00" stroke="#964b00" points="210.36,-113.67 213.86,-123.67 217.36,-113.67 210.36,-113.67"/>
<polygon fill="#964b00" stroke="#964b00" points="217.36,-78.11 213.86,-68.11 210.36,-78.11 217.36,-78.11"/>
</g>
<!-- node_0x604000000950 -->
<g id="node10" class="node">
<title>node_0x604000000950</title>
<path fill="#00ffff" stroke="#964b00" d="M314.31,-250.5C314.31,-250.5 417.41,-250.5 417.41,-250.5 423.41,-250.5 429.41,-256.5 429.41,-262.5 429.41,-262.5 429.41,-304.5 429.41,-304.5 429.41,-310.5 423.41,-316.5 417.41,-316.5 417.41,-316.5 314.31,-316.5 314.31,-316.5 308.31,-316.5 302.31,-310.5 302.31,-304.5 302.31,-304.5 302.31,-262.5 302.31,-262.5 302.31,-256.5 308.31,-250.5 314.31,-250.5"/>
<text xml:space="preserve" text-anchor="middle" x="365.86" y="-301.3" font-family="Times,serif" font-size="14.00">type = OPERATOR</text>
<polyline fill="none" stroke="#964b00" points="302.31,-294.5 429.41,-294.5"/>
<text xml:space="preserve" text-anchor="middle" x="365.45" y="-279.3" font-family="Times,serif" font-size="14.00">val = 11(OP_SP)</text>
<polyline fill="none" stroke="#964b00" points="302.31,-272.5 429.41,-272.5"/>
<text xml:space="preserve" text-anchor="middle" x="333.59" y="-257.3" font-family="Times,serif" font-size="14.00">L</text>
<polyline fill="none" stroke="#964b00" points="364.86,-250.5 364.86,-272.5"/>
<text xml:space="preserve" text-anchor="middle" x="397.03" y="-257.3" font-family="Times,serif" font-size="14.00">R</text>
</g>
<!-- node_0x604000000810&#45;&gt;node_0x604000000950 -->
<g id="edge9" class="edge">
<title>node_0x604000000810&#45;&gt;node_0x604000000950</title>
<path fill="none" stroke="#964b00" d="M365.86,-363.7C365.86,-352.05 365.86,-339.47 365.86,-327.84"/>
<polygon fill="#964b00" stroke="#964b00" points="362.36,-363.67 365.86,-373.67 369.36,-363.67 362.36,-363.67"/>
<polygon fill="#964b00" stroke="#964b00" points="369.36,-328.11 365.86,-318.11 362.36,-328.11 369.36,-328.11"/>
</g>
<!-- node_0x6040000008d0 -->
<g id="node11" class="node">
<title>node_0x6040000008d0</title>
<path fill="#00ffff" stroke="#964b00" d="M314.31,-125.5C314.31,-125.5 417.41,-125.5 417.41,-125.5 423.41,-125.5 429.41,-131.5 429.41,-137.5 429.41,-137.5 429.41,-179.5 429.41,-179.5 429.41,-185.5 423.41,-191.5 417.41,-191.5 417.41,-191.5 314.31,-191.5 314.31,-191.5 308.31,-191.5 302.31,-185.5 302.31,-179.5 302.31,-179.5 302.31,-137.5 302.31,-137.5 302.31,-131.5 308.31,-125.5 314.31,-125.5"/>
<text xml:space="preserve" text-anchor="middle" x="365.86" y="-176.3" font-family="Times,serif" font-size="14.00">type = OPERATOR</text>
<polyline fill="none" stroke="#964b00" points="302.31,-169.5 429.41,-169.5"/>
<text xml:space="preserve" text-anchor="middle" x="365.76" y="-154.3" font-family="Times,serif" font-size="14.00">val = 7(OP_ASS)</text>
<polyline fill="none" stroke="#964b00" points="302.31,-147.5 429.41,-147.5"/>
<text xml:space="preserve" text-anchor="middle" x="333.59" y="-132.3" font-family="Times,serif" font-size="14.00">L</text>
<polyline fill="none" stroke="#964b00" points="364.86,-125.5 364.86,-147.5"/>
<text xml:space="preserve" text-anchor="middle" x="397.03" y="-132.3" font-family="Times,serif" font-size="14.00">R</text>
</g>
<!-- node_0x604000000950&#45;&gt;node_0x6040000008d0 -->
<g id="edge10" class="edge">
<title>node_0x604000000950&#45;&gt;node_0x6040000008d0</title>
<path fill="none" stroke="#964b00" d="M365.86,-238.7C365.86,-227.05 365.86,-214.47 365.86,-202.84"/>
<polygon fill="#964b00" stroke="#964b00" points="362.36,-238.67 365.86,-248.67 369.36,-238.67 362.36,-238.67"/>
<polygon fill="#964b00" stroke="#964b00" points="369.36,-203.11 365.86,-193.11 362.36,-203.11 369.36,-203.11"/>
</g>
<!-- node_0x604000000890 -->
<g id="node12" class="node">
<title>node_0x604000000890</title>
<path fill="#daa520" stroke="#964b00" d="M316,-0.5C316,-0.5 415.72,-0.5 415.72,-0.5 421.72,-0.5 427.72,-6.5 427.72,-12.5 427.72,-12.5 427.72,-54.5 427.72,-54.5 427.72,-60.5 421.72,-66.5 415.72,-66.5 415.72,-66.5 316,-66.5 316,-66.5 310,-66.5 304,-60.5 304,-54.5 304,-54.5 304,-12.5 304,-12.5 304,-6.5 310,-0.5 316,-0.5"/>
<text xml:space="preserve" text-anchor="middle" x="365.86" y="-51.3" font-family="Times,serif" font-size="14.00">type = VARIABLE</text>
<polyline fill="none" stroke="#964b00" points="304,-44.5 427.72,-44.5"/>
<text xml:space="preserve" text-anchor="middle" x="365.77" y="-29.3" font-family="Times,serif" font-size="14.00">val = 0(a)</text>
<polyline fill="none" stroke="#964b00" points="304,-22.5 427.72,-22.5"/>
<text xml:space="preserve" text-anchor="middle" x="334.5" y="-7.3" font-family="Times,serif" font-size="14.00">0</text>
<polyline fill="none" stroke="#964b00" points="365,-0.5 365,-22.5"/>
<text xml:space="preserve" text-anchor="middle" x="396" y="-7.3" font-family="Times,serif" font-size="14.00">0</text>
</g>
<!-- node_0x6040000008d0&#45;&gt;node_0x604000000890 -->
<g id="edge11" class="edge">
<title>node_0x6040000008d0&#45;&gt;node_0x604000000890</title>
<path fill="none" stroke="#964b00" d="M365.86,-113.7C365.86,-102.05 365.86,-89.47 365.86,-77.84"/>
<polygon fill="#964b00" stroke="#964b00" points="362.36,-113.67 365.86,-123.67 369.36,-113.67 362.36,-113.67"/>
<polygon fill="#964b00" stroke="#964b00" points="369.36,-78.11 365.86,-68.11 362.36,-78.11 369.36,-78.11"/>
</g>
<!-- node_0x604000000910 -->
<g id="node13" class="node">
<title>node_0x604000000910</title>
<path fill="#98fb98" stroke="#964b00" d="M462.04,-0.5C462.04,-0.5 573.69,-0.5 573.69,-0.5 579.69,-0.5 585.69,-6.5 585.69,-12.5 585.69,-12.5 585.69,-54.5 585.69,-54.5 585.69,-60.5 579.69,-66.5 573.69,-66.5 573.69,-66.5 462.04,-66.5 462.04,-66.5 456.04,-66.5 450.04,-60.5 450.04,-54.5 450.04,-54.5 450.04,-12.5 450.04,-12.5 450.04,-6.5 456.04,-0.5 462.04,-0.5"/>
<text xml:space="preserve" text-anchor="middle" x="517.86" y="-51.3" font-family="Times,serif" font-size="14.00">type = CONST_VAR</text>
<polyline fill="none" stroke="#964b00" points="450.04,-44.5 585.69,-44.5"/>
<text xml:space="preserve" text-anchor="middle" x="517.54" y="-29.3" font-family="Times,serif" font-size="14.00">val = 6</text>
<polyline fill="none" stroke="#964b00" points="450.04,-22.5 585.69,-22.5"/>
<text xml:space="preserve" text-anchor="middle" x="483.54" y="-7.3" font-family="Times,serif" font-size="14.00">0</text>
<polyline fill="none" stroke="#964b00" points="517.04,-0.5 517.04,-22.5"/>
<text xml:space="preserve" text-anchor="middle" x="551.04" y="-7.3" font-family="Times,serif" font-size="14.00">0</text>
</g>
<!-- node_0x6040000008d0&#45;&gt;node_0x604000000910 -->
<g id="edge12" class="edge">
<title>node_0x6040000008d0&#45;&gt;node_0x604000000910</title>
<path fill="none" stroke="#964b00" d="M414.65,-118.02C432.05,-103.94 451.64,-88.08 469.05,-74"/>
<polygon fill="#964b00" stroke="#964b00" points="412.55,-115.22 406.97,-124.23 416.95,-120.66 412.55,-115.22"/>
<polygon fill="#964b00" stroke="#964b00" points="471.18,-76.78 476.75,-67.77 466.78,-71.34 471.18,-76.78"/>
</g>
<!-- node_0x604000000a10 -->
<g id="node15" class="node">
<title>node_0x604000000a10</title>
<path fill="#00ffff" stroke="#964b00" d="M538.31,-375.5C538.31,-375.5 641.41,-375.5 641.41,-375.5 647.41,-375.5 653.41,-381.5 653.41,-387.5 653.41,-387.5 653.41,-429.5 653.41,-429.5 653.41,-435.5 647.41,-441.5 641.41,-441.5 641.41,-441.5 538.31,-441.5 538.31,-441.5 532.31,-441.5 526.31,-435.5 526.31,-429.5 526.31,-429.5 526.31,-387.5 526.31,-387.5 526.31,-381.5 532.31,-375.5 538.31,-375.5"/>
<text xml:space="preserve" text-anchor="middle" x="589.86" y="-426.3" font-family="Times,serif" font-size="14.00">type = OPERATOR</text>
<polyline fill="none" stroke="#964b00" points="526.31,-419.5 653.41,-419.5"/>
<text xml:space="preserve" text-anchor="middle" x="589.76" y="-404.3" font-family="Times,serif" font-size="14.00">val = 7(OP_ASS)</text>
<polyline fill="none" stroke="#964b00" points="526.31,-397.5 653.41,-397.5"/>
<text xml:space="preserve" text-anchor="middle" x="557.59" y="-382.3" font-family="Times,serif" font-size="14.00">L</text>
<polyline fill="none" stroke="#964b00" points="588.86,-375.5 588.86,-397.5"/>
<text xml:space="preserve" text-anchor="middle" x="621.03" y="-382.3" font-family="Times,serif" font-size="14.00">R</text>
</g>
<!-- node_0x604000000a90&#45;&gt;node_0x604000000a10 -->
<g id="edge14" class="edge">
<title>node_0x604000000a90&#45;&gt;node_0x604000000a10</title>
<path fill="none" stroke="#964b00" d="M589.86,-488.7C589.86,-477.05 589.86,-464.47 589.86,-452.84"/>
<polygon fill="#964b00" stroke="#964b00" points="586.36,-488.67 589.86,-498.67 593.36,-488.67 586.36,-488.67"/>
<polygon fill="#964b00" stroke="#964b00" points="593.36,-453.11 589.86,-443.11 586.36,-453.11 593.36,-453.11"/>
</g>
<!-- node_0x604000000b90 -->
<g id="node18" class="node">
<title>node_0x604000000b90</title>
<path fill="#00ffff" stroke="#964b00" d="M726.31,-375.5C726.31,-375.5 829.41,-375.5 829.41,-375.5 835.41,-375.5 841.41,-381.5 841.41,-387.5 841.41,-387.5 841.41,-429.5 841.41,-429.5 841.41,-435.5 835.41,-441.5 829.41,-441.5 829.41,-441.5 726.31,-441.5 726.31,-441.5 720.31,-441.5 714.31,-435.5 714.31,-429.5 714.31,-429.5 714.31,-387.5 714.31,-387.5 714.31,-381.5 720.31,-375.5 726.31,-375.5"/>
<text xml:space="preserve" text-anchor="middle" x="777.86" y="-426.3" font-family="Times,serif" font-size="14.00">type = OPERATOR</text>
<polyline fill="none" stroke="#964b00" points="714.31,-419.5 841.41,-419.5"/>
<text xml:space="preserve" text-anchor="middle" x="777.45" y="-404.3" font-family="Times,serif" font-size="14.00">val = 11(OP_SP)</text>
<polyline fill="none" stroke="#964b00" points="714.31,-397.5 841.41,-397.5"/>
<text xml:space="preserve" text-anchor="middle" x="745.59" y="-382.3" font-family="Times,serif" font-size="14.00">L</text>
<polyline fill="none" stroke="#964b00" points="776.86,-375.5 776.86,-397.5"/>
<text xml:space="preserve" text-anchor="middle" x="809.03" y="-382.3" font-family="Times,serif" font-size="14.00">R</text>
</g>
<!-- node_0x604000000a90&#45;&gt;node_0x604000000b90 -->
<g id="edge17" class="edge">
<title>node_0x604000000a90&#45;&gt;node_0x604000000b90</title>
<path fill="none" stroke="#964b00" d="M648.85,-493.91C671.24,-479.26 696.72,-462.59 719.09,-447.95"/>
<polygon fill="#964b00" stroke="#964b00" points="646.97,-490.95 640.52,-499.35 650.81,-496.81 646.97,-490.95"/>
<polygon fill="#964b00" stroke="#964b00" points="720.75,-451.05 727.2,-442.64 716.92,-445.19 720.75,-451.05"/>
</g>
<!-- node_0x6040000009d0 -->
<g id="node16" class="node">
<title>node_0x6040000009d0</title>
<path fill="#daa520" stroke="#964b00" d="M463,-250.5C463,-250.5 562.72,-250.5 562.72,-250.5 568.72,-250.5 574.72,-256.5 574.72,-262.5 574.72,-262.5 574.72,-304.5 574.72,-304.5 574.72,-310.5 568.72,-316.5 562.72,-316.5 562.72,-316.5 463,-316.5 463,-316.5 457,-316.5 451,-310.5 451,-304.5 451,-304.5 451,-262.5 451,-262.5 451,-256.5 457,-250.5 463,-250.5"/>
<text xml:space="preserve" text-anchor="middle" x="512.86" y="-301.3" font-family="Times,serif" font-size="14.00">type = VARIABLE</text>
<polyline fill="none" stroke="#964b00" points="451,-294.5 574.72,-294.5"/>
<text xml:space="preserve" text-anchor="middle" x="512.77" y="-279.3" font-family="Times,serif" font-size="14.00">val = 0(a)</text>
<polyline fill="none" stroke="#964b00" points="451,-272.5 574.72,-272.5"/>
<text xml:space="preserve" text-anchor="middle" x="481.5" y="-257.3" font-family="Times,serif" font-size="14.00">0</text>
<polyline fill="none" stroke="#964b00" points="512,-250.5 512,-272.5"/>
<text xml:space="preserve" text-anchor="middle" x="543" y="-257.3" font-family="Times,serif" font-size="14.00">0</text>
</g>
<!-- node_0x604000000a10&#45;&gt;node_0x6040000009d0 -->
<g id="edge15" class="edge">
<title>node_0x604000000a10&#45;&gt;node_0x6040000009d0</title>
<path fill="none" stroke="#964b00" d="M563.58,-365.52C555.6,-352.76 546.83,-338.76 538.86,-326.04"/>
<polygon fill="#964b00" stroke="#964b00" points="560.55,-367.28 568.83,-373.9 566.49,-363.57 560.55,-367.28"/>
<polygon fill="#964b00" stroke="#964b00" points="542.03,-324.5 533.76,-317.88 536.1,-328.22 542.03,-324.5"/>
</g>
<!-- node_0x604000000a50 -->
<g id="node17" class="node">
<title>node_0x604000000a50</title>
<path fill="#98fb98" stroke="#964b00" d="M609.04,-250.5C609.04,-250.5 720.69,-250.5 720.69,-250.5 726.69,-250.5 732.69,-256.5 732.69,-262.5 732.69,-262.5 732.69,-304.5 732.69,-304.5 732.69,-310.5 726.69,-316.5 720.69,-316.5 720.69,-316.5 609.04,-316.5 609.04,-316.5 603.04,-316.5 597.04,-310.5 597.04,-304.5 597.04,-304.5 597.04,-262.5 597.04,-262.5 597.04,-256.5 603.04,-250.5 609.04,-250.5"/>
<text xml:space="preserve" text-anchor="middle" x="664.86" y="-301.3" font-family="Times,serif" font-size="14.00">type = CONST_VAR</text>
<polyline fill="none" stroke="#964b00" points="597.04,-294.5 732.69,-294.5"/>
<text xml:space="preserve" text-anchor="middle" x="664.54" y="-279.3" font-family="Times,serif" font-size="14.00">val = 10</text>
<polyline fill="none" stroke="#964b00" points="597.04,-272.5 732.69,-272.5"/>
<text xml:space="preserve" text-anchor="middle" x="630.54" y="-257.3" font-family="Times,serif" font-size="14.00">0</text>
<polyline fill="none" stroke="#964b00" points="664.04,-250.5 664.04,-272.5"/>
<text xml:space="preserve" text-anchor="middle" x="698.04" y="-257.3" font-family="Times,serif" font-size="14.00">0</text>
</g>
<!-- node_0x604000000a10&#45;&gt;node_0x604000000a50 -->
<g id="edge16" class="edge">
<title>node_0x604000000a10&#45;&gt;node_0x604000000a50</title>
<path fill="none" stroke="#964b00" d="M615.46,-365.52C623.16,-352.89 631.61,-339.04 639.3,-326.41"/>
<polygon fill="#964b00" stroke="#964b00" points="612.57,-363.53 610.35,-373.89 618.55,-367.18 612.57,-363.53"/>
<polygon fill="#964b00" stroke="#964b00" points="642.28,-328.25 644.5,-317.89 636.3,-324.61 642.28,-328.25"/>
</g>
<!-- node_0x604000000b10 -->
<g id="node19" class="node">
<title>node_0x604000000b10</title>
<path fill="#00ffff" stroke="#964b00" d="M766.31,-250.5C766.31,-250.5 869.41,-250.5 869.41,-250.5 875.41,-250.5 881.41,-256.5 881.41,-262.5 881.41,-262.5 881.41,-304.5 881.41,-304.5 881.41,-310.5 875.41,-316.5 869.41,-316.5 869.41,-316.5 766.31,-316.5 766.31,-316.5 760.31,-316.5 754.31,-310.5 754.31,-304.5 754.31,-304.5 754.31,-262.5 754.31,-262.5 754.31,-256.5 760.31,-250.5 766.31,-250.5"/>
<text xml:space="preserve" text-anchor="middle" x="817.86" y="-301.3" font-family="Times,serif" font-size="14.00">type = OPERATOR</text>
<polyline fill="none" stroke="#964b00" points="754.31,-294.5 881.41,-294.5"/>
<text xml:space="preserve" text-anchor="middle" x="817.76" y="-279.3" font-family="Times,serif" font-size="14.00">val = 7(OP_ASS)</text>
<polyline fill="none" stroke="#964b00" points="754.31,-272.5 881.41,-272.5"/>
<text xml:space="preserve" text-anchor="middle" x="785.59" y="-257.3" font-family="Times,serif" font-size="14.00">L</text>
<polyline fill="none" stroke="#964b00" points="816.86,-250.5 816.86,-272.5"/>
<text xml:space="preserve" text-anchor="middle" x="849.03" y="-257.3" font-family="Times,serif" font-size="14.00">R</text>
</g>
<!-- node_0x604000000b90&#45;&gt;node_0x604000000b10 -->
<g id="edge18" class="edge">
<title>node_0x604000000b90&#45;&gt;node_0x604000000b10</title>
<path fill="none" stroke="#964b00" d="M791.81,-364.61C795.74,-352.53 800.01,-339.4 803.93,-327.33"/>
<polygon fill="#964b00" stroke="#964b00" points="788.6,-363.15 788.84,-373.74 795.26,-365.32 788.6,-363.15"/>
<polygon fill="#964b00" stroke="#964b00" points="807.19,-328.63 806.95,-318.04 800.53,-326.47 807.19,-328.63"/>
</g>
<!-- node_0x604000000ad0 -->
<g id="node20" class="node">
<title>node_0x604000000ad0</title>
<path fill="#daa520" stroke="#964b00" d="M692,-125.5C692,-125.5 791.72,-125.5 791.72,-125.5 797.72,-125.5 803.72,-131.5 803.72,-137.5 803.72,-137.5 803.72,-179.5 803.72,-179.5 803.72,-185.5 797.72,-191.5 791.72,-191.5 791.72,-191.5 692,-191.5 692,-191.5 686,-191.5 680,-185.5 680,-179.5 680,-179.5 680,-137.5 680,-137.5 680,-131.5 686,-125.5 692,-125.5"/>
<text xml:space="preserve" text-anchor="middle" x="741.86" y="-176.3" font-family="Times,serif" font-size="14.00">type = VARIABLE</text>
<polyline fill="none" stroke="#964b00" points="680,-169.5 803.72,-169.5"/>
<text xml:space="preserve" text-anchor="middle" x="741.77" y="-154.3" font-family="Times,serif" font-size="14.00">val = 0(a)</text>
<polyline fill="none" stroke="#964b00" points="680,-147.5 803.72,-147.5"/>
<text xml:space="preserve" text-anchor="middle" x="710.5" y="-132.3" font-family="Times,serif" font-size="14.00">0</text>
<polyline fill="none" stroke="#964b00" points="741,-125.5 741,-147.5"/>
<text xml:space="preserve" text-anchor="middle" x="772" y="-132.3" font-family="Times,serif" font-size="14.00">0</text>
</g>
<!-- node_0x604000000b10&#45;&gt;node_0x604000000ad0 -->
<g id="edge19" class="edge">
<title>node_0x604000000b10&#45;&gt;node_0x604000000ad0</title>
<path fill="none" stroke="#964b00" d="M791.92,-240.52C784.04,-227.76 775.39,-213.76 767.53,-201.04"/>
<polygon fill="#964b00" stroke="#964b00" points="788.86,-242.23 797.1,-248.9 794.82,-238.55 788.86,-242.23"/>
<polygon fill="#964b00" stroke="#964b00" points="770.72,-199.56 762.49,-192.89 764.77,-203.24 770.72,-199.56"/>
</g>
<!-- node_0x604000000b50 -->
<g id="node21" class="node">
<title>node_0x604000000b50</title>
<path fill="#98fb98" stroke="#964b00" d="M838.04,-125.5C838.04,-125.5 949.69,-125.5 949.69,-125.5 955.69,-125.5 961.69,-131.5 961.69,-137.5 961.69,-137.5 961.69,-179.5 961.69,-179.5 961.69,-185.5 955.69,-191.5 949.69,-191.5 949.69,-191.5 838.04,-191.5 838.04,-191.5 832.04,-191.5 826.04,-185.5 826.04,-179.5 826.04,-179.5 826.04,-137.5 826.04,-137.5 826.04,-131.5 832.04,-125.5 838.04,-125.5"/>
<text xml:space="preserve" text-anchor="middle" x="893.86" y="-176.3" font-family="Times,serif" font-size="14.00">type = CONST_VAR</text>
<polyline fill="none" stroke="#964b00" points="826.04,-169.5 961.69,-169.5"/>
<text xml:space="preserve" text-anchor="middle" x="893.54" y="-154.3" font-family="Times,serif" font-size="14.00">val = 9</text>
<polyline fill="none" stroke="#964b00" points="826.04,-147.5 961.69,-147.5"/>
<text xml:space="preserve" text-anchor="middle" x="859.54" y="-132.3" font-family="Times,serif" font-size="14.00">0</text>
<polyline fill="none" stroke="#964b00" points="893.04,-125.5 893.04,-147.5"/>
<text xml:space="preserve" text-anchor="middle" x="927.04" y="-132.3" font-family="Times,serif" font-size="14.00">0</text>
</g>
<!-- node_0x604000000b10&#45;&gt;node_0x604000000b50 -->
<g id="edge20" class="edge">
<title>node_0x604000000b10&#45;&gt;node_0x604000000b50</title>
<path fill="none" stroke="#964b00" d="M843.8,-240.52C851.68,-227.76 860.33,-213.76 868.19,-201.04"/>
<polygon fill="#964b00" stroke="#964b00" points="840.9,-238.55 838.62,-248.9 846.86,-242.23 840.9,-238.55"/>
<polygon fill="#964b00" stroke="#964b00" points="870.95,-203.24 873.23,-192.89 865,-199.56 870.95,-203.24"/>
</g>
</g>
</svg>
