<?xml version="1.0" encoding="UTF-8" standalone="no"?>
<!DOCTYPE svg PUBLIC "-//W3C//DTD SVG 1.1//EN"
 "http://www.w3.org/Graphics/SVG/1.1/DTD/svg11.dtd">
<!-- Generated by graphviz version 14.0.2 (20251019.1705)
 -->
<!-- Title: G Pages: 1 -->
<svg width="138pt" height="75pt"
 viewBox="0.00 0.00 138.00 75.00" xmlns="http://www.w3.org/2000/svg" xmlns:xlink="http://www.w3.org/1999/xlink">
<g id="graph0" class="graph" transform="scale(1 1) rotate(0) translate(4 71)">
<title>G</title>
<polygon fill="#fffafa" stroke="none" points="-4,4 -4,-71 133.66,-71 133.66,4 -4,4"/>
<!-- node_0x604000000810 -->
<g id="node1" class="node">
<title>node_0x604000000810</title>
<path fill="#00ffff" stroke="#964b00" d="M12,-0.5C12,-0.5 117.66,-0.5 117.66,-0.5 123.66,-0.5 129.66,-6.5 129.66,-12.5 129.66,-12.5 129.66,-54.5 129.66,-54.5 129.66,-60.5 123.66,-66.5 117.66,-66.5 117.66,-66.5 12,-66.5 12,-66.5 6,-66.5 0,-60.5 0,-54.5 0,-54.5 0,-12.5 0,-12.5 0,-6.5 6,-0.5 12,-0.5"/>
<text xml:space="preserve" text-anchor="middle" x="64.55" y="-51.3" font-family="Times,serif" font-size="14.00">type = OPERATOR</text>
<polyline fill="none" stroke="#964b00" points="0,-44.5 129.66,-44.5"/>
<text xml:space="preserve" text-anchor="middle" x="64.83" y="-29.3" font-family="Times,serif" font-size="14.00">val = 13(OP_ELSE)</text>
<polyline fill="none" stroke="#964b00" points="0,-22.5 129.66,-22.5"/>
<text xml:space="preserve" text-anchor="middle" x="31.78" y="-7.3" font-family="Times,serif" font-size="14.00">L</text>
<polyline fill="none" stroke="#964b00" points="63.55,-0.5 63.55,-22.5"/>
<text xml:space="preserve" text-anchor="middle" x="96.22" y="-7.3" font-family="Times,serif" font-size="14.00">R</text>
</g>
</g>
</svg>
