<?xml version="1.0" encoding="UTF-8" standalone="no"?>
<!DOCTYPE svg PUBLIC "-//W3C//DTD SVG 1.1//EN"
 "http://www.w3.org/Graphics/SVG/1.1/DTD/svg11.dtd">
<!-- Generated by graphviz version 14.0.2 (20251019.1705)
 -->
<!-- Title: G Pages: 1 -->
<svg width="1187pt" height="1075pt"
 viewBox="0.00 0.00 1187.00 1075.00" xmlns="http://www.w3.org/2000/svg" xmlns:xlink="http://www.w3.org/1999/xlink">
<g id="graph0" class="graph" transform="scale(1 1) rotate(0) translate(4 1071)">
<title>G</title>
<polygon fill="#fffafa" stroke="none" points="-4,4 -4,-1071 1182.72,-1071 1182.72,4 -4,4"/>
<!-- node_0x606000002cc0 -->
<g id="node1" class="node">
<title>node_0x606000002cc0</title>
<path fill="#00ffff" stroke="#964b00" d="M465.31,-1000.5C465.31,-1000.5 568.41,-1000.5 568.41,-1000.5 574.41,-1000.5 580.41,-1006.5 580.41,-1012.5 580.41,-1012.5 580.41,-1054.5 580.41,-1054.5 580.41,-1060.5 574.41,-1066.5 568.41,-1066.5 568.41,-1066.5 465.31,-1066.5 465.31,-1066.5 459.31,-1066.5 453.31,-1060.5 453.31,-1054.5 453.31,-1054.5 453.31,-1012.5 453.31,-1012.5 453.31,-1006.5 459.31,-1000.5 465.31,-1000.5"/>
<text xml:space="preserve" text-anchor="middle" x="516.86" y="-1051.3" font-family="Times,serif" font-size="14.00">type = OPERATOR</text>
<polyline fill="none" stroke="#964b00" points="453.31,-1044.5 580.41,-1044.5"/>
<text xml:space="preserve" text-anchor="middle" x="516.65" y="-1029.3" font-family="Times,serif" font-size="14.00">val = 18(OP_CFB)</text>
<polyline fill="none" stroke="#964b00" points="453.31,-1022.5 580.41,-1022.5"/>
<text xml:space="preserve" text-anchor="middle" x="484.59" y="-1007.3" font-family="Times,serif" font-size="14.00">L</text>
<polyline fill="none" stroke="#964b00" points="515.86,-1000.5 515.86,-1022.5"/>
<text xml:space="preserve" text-anchor="middle" x="548.03" y="-1007.3" font-family="Times,serif" font-size="14.00">R</text>
</g>
<!-- node_0x606000002c60 -->
<g id="node2" class="node">
<title>node_0x606000002c60</title>
<path fill="#00ffff" stroke="#964b00" d="M465.31,-875.5C465.31,-875.5 568.41,-875.5 568.41,-875.5 574.41,-875.5 580.41,-881.5 580.41,-887.5 580.41,-887.5 580.41,-929.5 580.41,-929.5 580.41,-935.5 574.41,-941.5 568.41,-941.5 568.41,-941.5 465.31,-941.5 465.31,-941.5 459.31,-941.5 453.31,-935.5 453.31,-929.5 453.31,-929.5 453.31,-887.5 453.31,-887.5 453.31,-881.5 459.31,-875.5 465.31,-875.5"/>
<text xml:space="preserve" text-anchor="middle" x="516.86" y="-926.3" font-family="Times,serif" font-size="14.00">type = OPERATOR</text>
<polyline fill="none" stroke="#964b00" points="453.31,-919.5 580.41,-919.5"/>
<text xml:space="preserve" text-anchor="middle" x="516.65" y="-904.3" font-family="Times,serif" font-size="14.00">val = 18(OP_CFB)</text>
<polyline fill="none" stroke="#964b00" points="453.31,-897.5 580.41,-897.5"/>
<text xml:space="preserve" text-anchor="middle" x="484.59" y="-882.3" font-family="Times,serif" font-size="14.00">L</text>
<polyline fill="none" stroke="#964b00" points="515.86,-875.5 515.86,-897.5"/>
<text xml:space="preserve" text-anchor="middle" x="548.03" y="-882.3" font-family="Times,serif" font-size="14.00">R</text>
</g>
<!-- node_0x606000002cc0&#45;&gt;node_0x606000002c60 -->
<g id="edge1" class="edge">
<title>node_0x606000002cc0&#45;&gt;node_0x606000002c60</title>
<path fill="none" stroke="#964b00" d="M516.86,-988.7C516.86,-977.05 516.86,-964.47 516.86,-952.84"/>
<polygon fill="#964b00" stroke="#964b00" points="513.36,-988.67 516.86,-998.67 520.36,-988.67 513.36,-988.67"/>
<polygon fill="#964b00" stroke="#964b00" points="520.36,-953.11 516.86,-943.11 513.36,-953.11 520.36,-953.11"/>
</g>
<!-- node_0x606000001340 -->
<g id="node3" class="node">
<title>node_0x606000001340</title>
<path fill="#00ffff" stroke="#964b00" d="M390.31,-750.5C390.31,-750.5 493.41,-750.5 493.41,-750.5 499.41,-750.5 505.41,-756.5 505.41,-762.5 505.41,-762.5 505.41,-804.5 505.41,-804.5 505.41,-810.5 499.41,-816.5 493.41,-816.5 493.41,-816.5 390.31,-816.5 390.31,-816.5 384.31,-816.5 378.31,-810.5 378.31,-804.5 378.31,-804.5 378.31,-762.5 378.31,-762.5 378.31,-756.5 384.31,-750.5 390.31,-750.5"/>
<text xml:space="preserve" text-anchor="middle" x="441.86" y="-801.3" font-family="Times,serif" font-size="14.00">type = OPERATOR</text>
<polyline fill="none" stroke="#964b00" points="378.31,-794.5 505.41,-794.5"/>
<text xml:space="preserve" text-anchor="middle" x="441.65" y="-779.3" font-family="Times,serif" font-size="14.00">val = 12(OP_IF)</text>
<polyline fill="none" stroke="#964b00" points="378.31,-772.5 505.41,-772.5"/>
<text xml:space="preserve" text-anchor="middle" x="409.59" y="-757.3" font-family="Times,serif" font-size="14.00">L</text>
<polyline fill="none" stroke="#964b00" points="440.86,-750.5 440.86,-772.5"/>
<text xml:space="preserve" text-anchor="middle" x="473.03" y="-757.3" font-family="Times,serif" font-size="14.00">R</text>
</g>
<!-- node_0x606000002c60&#45;&gt;node_0x606000001340 -->
<g id="edge2" class="edge">
<title>node_0x606000002c60&#45;&gt;node_0x606000001340</title>
<path fill="none" stroke="#964b00" d="M491.26,-865.52C483.56,-852.89 475.11,-839.04 467.42,-826.41"/>
<polygon fill="#964b00" stroke="#964b00" points="488.17,-867.18 496.37,-873.89 494.15,-863.53 488.17,-867.18"/>
<polygon fill="#964b00" stroke="#964b00" points="470.42,-824.61 462.22,-817.89 464.44,-828.25 470.42,-824.61"/>
</g>
<!-- node_0x606000001a00 -->
<g id="node17" class="node">
<title>node_0x606000001a00</title>
<path fill="#00ffff" stroke="#964b00" d="M613.03,-750.5C613.03,-750.5 718.69,-750.5 718.69,-750.5 724.69,-750.5 730.69,-756.5 730.69,-762.5 730.69,-762.5 730.69,-804.5 730.69,-804.5 730.69,-810.5 724.69,-816.5 718.69,-816.5 718.69,-816.5 613.03,-816.5 613.03,-816.5 607.03,-816.5 601.03,-810.5 601.03,-804.5 601.03,-804.5 601.03,-762.5 601.03,-762.5 601.03,-756.5 607.03,-750.5 613.03,-750.5"/>
<text xml:space="preserve" text-anchor="middle" x="665.58" y="-801.3" font-family="Times,serif" font-size="14.00">type = OPERATOR</text>
<polyline fill="none" stroke="#964b00" points="601.03,-794.5 730.69,-794.5"/>
<text xml:space="preserve" text-anchor="middle" x="665.86" y="-779.3" font-family="Times,serif" font-size="14.00">val = 13(OP_ELSE)</text>
<polyline fill="none" stroke="#964b00" points="601.03,-772.5 730.69,-772.5"/>
<text xml:space="preserve" text-anchor="middle" x="632.81" y="-757.3" font-family="Times,serif" font-size="14.00">L</text>
<polyline fill="none" stroke="#964b00" points="664.58,-750.5 664.58,-772.5"/>
<text xml:space="preserve" text-anchor="middle" x="697.25" y="-757.3" font-family="Times,serif" font-size="14.00">R</text>
</g>
<!-- node_0x606000002c60&#45;&gt;node_0x606000001a00 -->
<g id="edge16" class="edge">
<title>node_0x606000002c60&#45;&gt;node_0x606000001a00</title>
<path fill="none" stroke="#964b00" d="M564.68,-868.02C581.74,-853.94 600.95,-838.08 618.01,-824"/>
<polygon fill="#964b00" stroke="#964b00" points="562.66,-865.15 557.18,-874.22 567.12,-870.55 562.66,-865.15"/>
<polygon fill="#964b00" stroke="#964b00" points="620.06,-826.84 625.55,-817.78 615.61,-821.44 620.06,-826.84"/>
</g>
<!-- node_0x606000001460 -->
<g id="node4" class="node">
<title>node_0x606000001460</title>
<path fill="#00ffff" stroke="#964b00" d="M162.31,-625.5C162.31,-625.5 265.41,-625.5 265.41,-625.5 271.41,-625.5 277.41,-631.5 277.41,-637.5 277.41,-637.5 277.41,-679.5 277.41,-679.5 277.41,-685.5 271.41,-691.5 265.41,-691.5 265.41,-691.5 162.31,-691.5 162.31,-691.5 156.31,-691.5 150.31,-685.5 150.31,-679.5 150.31,-679.5 150.31,-637.5 150.31,-637.5 150.31,-631.5 156.31,-625.5 162.31,-625.5"/>
<text xml:space="preserve" text-anchor="middle" x="213.86" y="-676.3" font-family="Times,serif" font-size="14.00">type = OPERATOR</text>
<polyline fill="none" stroke="#964b00" points="150.31,-669.5 277.41,-669.5"/>
<text xml:space="preserve" text-anchor="middle" x="213.47" y="-654.3" font-family="Times,serif" font-size="14.00">val = 10(OP_LE)</text>
<polyline fill="none" stroke="#964b00" points="150.31,-647.5 277.41,-647.5"/>
<text xml:space="preserve" text-anchor="middle" x="181.59" y="-632.3" font-family="Times,serif" font-size="14.00">L</text>
<polyline fill="none" stroke="#964b00" points="212.86,-625.5 212.86,-647.5"/>
<text xml:space="preserve" text-anchor="middle" x="245.03" y="-632.3" font-family="Times,serif" font-size="14.00">R</text>
</g>
<!-- node_0x606000001340&#45;&gt;node_0x606000001460 -->
<g id="edge3" class="edge">
<title>node_0x606000001340&#45;&gt;node_0x606000001460</title>
<path fill="none" stroke="#964b00" d="M371.71,-744.65C343.86,-729.63 311.91,-712.39 284.06,-697.37"/>
<polygon fill="#964b00" stroke="#964b00" points="369.86,-747.64 380.33,-749.3 373.19,-741.48 369.86,-747.64"/>
<polygon fill="#964b00" stroke="#964b00" points="285.8,-694.33 275.34,-692.66 282.48,-700.49 285.8,-694.33"/>
</g>
<!-- node_0x606000001700 -->
<g id="node7" class="node">
<title>node_0x606000001700</title>
<path fill="#00ffff" stroke="#964b00" d="M390.31,-625.5C390.31,-625.5 493.41,-625.5 493.41,-625.5 499.41,-625.5 505.41,-631.5 505.41,-637.5 505.41,-637.5 505.41,-679.5 505.41,-679.5 505.41,-685.5 499.41,-691.5 493.41,-691.5 493.41,-691.5 390.31,-691.5 390.31,-691.5 384.31,-691.5 378.31,-685.5 378.31,-679.5 378.31,-679.5 378.31,-637.5 378.31,-637.5 378.31,-631.5 384.31,-625.5 390.31,-625.5"/>
<text xml:space="preserve" text-anchor="middle" x="441.86" y="-676.3" font-family="Times,serif" font-size="14.00">type = OPERATOR</text>
<polyline fill="none" stroke="#964b00" points="378.31,-669.5 505.41,-669.5"/>
<text xml:space="preserve" text-anchor="middle" x="441.45" y="-654.3" font-family="Times,serif" font-size="14.00">val = 11(OP_SP)</text>
<polyline fill="none" stroke="#964b00" points="378.31,-647.5 505.41,-647.5"/>
<text xml:space="preserve" text-anchor="middle" x="409.59" y="-632.3" font-family="Times,serif" font-size="14.00">L</text>
<polyline fill="none" stroke="#964b00" points="440.86,-625.5 440.86,-647.5"/>
<text xml:space="preserve" text-anchor="middle" x="473.03" y="-632.3" font-family="Times,serif" font-size="14.00">R</text>
</g>
<!-- node_0x606000001340&#45;&gt;node_0x606000001700 -->
<g id="edge6" class="edge">
<title>node_0x606000001340&#45;&gt;node_0x606000001700</title>
<path fill="none" stroke="#964b00" d="M441.86,-738.7C441.86,-727.05 441.86,-714.47 441.86,-702.84"/>
<polygon fill="#964b00" stroke="#964b00" points="438.36,-738.67 441.86,-748.67 445.36,-738.67 438.36,-738.67"/>
<polygon fill="#964b00" stroke="#964b00" points="445.36,-703.11 441.86,-693.11 438.36,-703.11 445.36,-703.11"/>
</g>
<!-- node_0x606000001400 -->
<g id="node5" class="node">
<title>node_0x606000001400</title>
<path fill="#daa520" stroke="#964b00" d="M12,-500.5C12,-500.5 111.72,-500.5 111.72,-500.5 117.72,-500.5 123.72,-506.5 123.72,-512.5 123.72,-512.5 123.72,-554.5 123.72,-554.5 123.72,-560.5 117.72,-566.5 111.72,-566.5 111.72,-566.5 12,-566.5 12,-566.5 6,-566.5 0,-560.5 0,-554.5 0,-554.5 0,-512.5 0,-512.5 0,-506.5 6,-500.5 12,-500.5"/>
<text xml:space="preserve" text-anchor="middle" x="61.86" y="-551.3" font-family="Times,serif" font-size="14.00">type = VARIABLE</text>
<polyline fill="none" stroke="#964b00" points="0,-544.5 123.72,-544.5"/>
<text xml:space="preserve" text-anchor="middle" x="61.66" y="-529.3" font-family="Times,serif" font-size="14.00">val = 1(b)</text>
<polyline fill="none" stroke="#964b00" points="0,-522.5 123.72,-522.5"/>
<text xml:space="preserve" text-anchor="middle" x="30.5" y="-507.3" font-family="Times,serif" font-size="14.00">0</text>
<polyline fill="none" stroke="#964b00" points="61,-500.5 61,-522.5"/>
<text xml:space="preserve" text-anchor="middle" x="92" y="-507.3" font-family="Times,serif" font-size="14.00">0</text>
</g>
<!-- node_0x606000001460&#45;&gt;node_0x606000001400 -->
<g id="edge4" class="edge">
<title>node_0x606000001460&#45;&gt;node_0x606000001400</title>
<path fill="none" stroke="#964b00" d="M165.07,-618.02C147.67,-603.94 128.08,-588.08 110.67,-574"/>
<polygon fill="#964b00" stroke="#964b00" points="162.77,-620.66 172.75,-624.23 167.18,-615.22 162.77,-620.66"/>
<polygon fill="#964b00" stroke="#964b00" points="112.95,-571.34 102.97,-567.77 108.54,-576.78 112.95,-571.34"/>
</g>
<!-- node_0x6060000014c0 -->
<g id="node6" class="node">
<title>node_0x6060000014c0</title>
<path fill="#98fb98" stroke="#964b00" d="M158.04,-500.5C158.04,-500.5 269.69,-500.5 269.69,-500.5 275.69,-500.5 281.69,-506.5 281.69,-512.5 281.69,-512.5 281.69,-554.5 281.69,-554.5 281.69,-560.5 275.69,-566.5 269.69,-566.5 269.69,-566.5 158.04,-566.5 158.04,-566.5 152.04,-566.5 146.04,-560.5 146.04,-554.5 146.04,-554.5 146.04,-512.5 146.04,-512.5 146.04,-506.5 152.04,-500.5 158.04,-500.5"/>
<text xml:space="preserve" text-anchor="middle" x="213.86" y="-551.3" font-family="Times,serif" font-size="14.00">type = CONST_VAR</text>
<polyline fill="none" stroke="#964b00" points="146.04,-544.5 281.69,-544.5"/>
<text xml:space="preserve" text-anchor="middle" x="213.54" y="-529.3" font-family="Times,serif" font-size="14.00">val = 0</text>
<polyline fill="none" stroke="#964b00" points="146.04,-522.5 281.69,-522.5"/>
<text xml:space="preserve" text-anchor="middle" x="179.54" y="-507.3" font-family="Times,serif" font-size="14.00">0</text>
<polyline fill="none" stroke="#964b00" points="213.04,-500.5 213.04,-522.5"/>
<text xml:space="preserve" text-anchor="middle" x="247.04" y="-507.3" font-family="Times,serif" font-size="14.00">0</text>
</g>
<!-- node_0x606000001460&#45;&gt;node_0x6060000014c0 -->
<g id="edge5" class="edge">
<title>node_0x606000001460&#45;&gt;node_0x6060000014c0</title>
<path fill="none" stroke="#964b00" d="M213.86,-613.7C213.86,-602.05 213.86,-589.47 213.86,-577.84"/>
<polygon fill="#964b00" stroke="#964b00" points="210.36,-613.67 213.86,-623.67 217.36,-613.67 210.36,-613.67"/>
<polygon fill="#964b00" stroke="#964b00" points="217.36,-578.11 213.86,-568.11 210.36,-578.11 217.36,-578.11"/>
</g>
<!-- node_0x606000001640 -->
<g id="node8" class="node">
<title>node_0x606000001640</title>
<path fill="#00ffff" stroke="#964b00" d="M315.31,-500.5C315.31,-500.5 418.41,-500.5 418.41,-500.5 424.41,-500.5 430.41,-506.5 430.41,-512.5 430.41,-512.5 430.41,-554.5 430.41,-554.5 430.41,-560.5 424.41,-566.5 418.41,-566.5 418.41,-566.5 315.31,-566.5 315.31,-566.5 309.31,-566.5 303.31,-560.5 303.31,-554.5 303.31,-554.5 303.31,-512.5 303.31,-512.5 303.31,-506.5 309.31,-500.5 315.31,-500.5"/>
<text xml:space="preserve" text-anchor="middle" x="366.86" y="-551.3" font-family="Times,serif" font-size="14.00">type = OPERATOR</text>
<polyline fill="none" stroke="#964b00" points="303.31,-544.5 430.41,-544.5"/>
<text xml:space="preserve" text-anchor="middle" x="366.41" y="-529.3" font-family="Times,serif" font-size="14.00">val = 6(OP_INIT)</text>
<polyline fill="none" stroke="#964b00" points="303.31,-522.5 430.41,-522.5"/>
<text xml:space="preserve" text-anchor="middle" x="334.59" y="-507.3" font-family="Times,serif" font-size="14.00">L</text>
<polyline fill="none" stroke="#964b00" points="365.86,-500.5 365.86,-522.5"/>
<text xml:space="preserve" text-anchor="middle" x="398.03" y="-507.3" font-family="Times,serif" font-size="14.00">R</text>
</g>
<!-- node_0x606000001700&#45;&gt;node_0x606000001640 -->
<g id="edge7" class="edge">
<title>node_0x606000001700&#45;&gt;node_0x606000001640</title>
<path fill="none" stroke="#964b00" d="M416.26,-615.52C408.56,-602.89 400.11,-589.04 392.42,-576.41"/>
<polygon fill="#964b00" stroke="#964b00" points="413.17,-617.18 421.37,-623.89 419.15,-613.53 413.17,-617.18"/>
<polygon fill="#964b00" stroke="#964b00" points="395.42,-574.61 387.22,-567.89 389.44,-578.25 395.42,-574.61"/>
</g>
<!-- node_0x606000001940 -->
<g id="node11" class="node">
<title>node_0x606000001940</title>
<path fill="#00ffff" stroke="#964b00" d="M466.31,-500.5C466.31,-500.5 569.41,-500.5 569.41,-500.5 575.41,-500.5 581.41,-506.5 581.41,-512.5 581.41,-512.5 581.41,-554.5 581.41,-554.5 581.41,-560.5 575.41,-566.5 569.41,-566.5 569.41,-566.5 466.31,-566.5 466.31,-566.5 460.31,-566.5 454.31,-560.5 454.31,-554.5 454.31,-554.5 454.31,-512.5 454.31,-512.5 454.31,-506.5 460.31,-500.5 466.31,-500.5"/>
<text xml:space="preserve" text-anchor="middle" x="517.86" y="-551.3" font-family="Times,serif" font-size="14.00">type = OPERATOR</text>
<polyline fill="none" stroke="#964b00" points="454.31,-544.5 581.41,-544.5"/>
<text xml:space="preserve" text-anchor="middle" x="517.45" y="-529.3" font-family="Times,serif" font-size="14.00">val = 11(OP_SP)</text>
<polyline fill="none" stroke="#964b00" points="454.31,-522.5 581.41,-522.5"/>
<text xml:space="preserve" text-anchor="middle" x="485.59" y="-507.3" font-family="Times,serif" font-size="14.00">L</text>
<polyline fill="none" stroke="#964b00" points="516.86,-500.5 516.86,-522.5"/>
<text xml:space="preserve" text-anchor="middle" x="549.03" y="-507.3" font-family="Times,serif" font-size="14.00">R</text>
</g>
<!-- node_0x606000001700&#45;&gt;node_0x606000001940 -->
<g id="edge10" class="edge">
<title>node_0x606000001700&#45;&gt;node_0x606000001940</title>
<path fill="none" stroke="#964b00" d="M467.8,-615.52C475.68,-602.76 484.33,-588.76 492.19,-576.04"/>
<polygon fill="#964b00" stroke="#964b00" points="464.9,-613.55 462.62,-623.9 470.86,-617.23 464.9,-613.55"/>
<polygon fill="#964b00" stroke="#964b00" points="494.95,-578.24 497.23,-567.89 489,-574.56 494.95,-578.24"/>
</g>
<!-- node_0x6060000015e0 -->
<g id="node9" class="node">
<title>node_0x6060000015e0</title>
<path fill="#daa520" stroke="#964b00" d="M164,-375.5C164,-375.5 263.72,-375.5 263.72,-375.5 269.72,-375.5 275.72,-381.5 275.72,-387.5 275.72,-387.5 275.72,-429.5 275.72,-429.5 275.72,-435.5 269.72,-441.5 263.72,-441.5 263.72,-441.5 164,-441.5 164,-441.5 158,-441.5 152,-435.5 152,-429.5 152,-429.5 152,-387.5 152,-387.5 152,-381.5 158,-375.5 164,-375.5"/>
<text xml:space="preserve" text-anchor="middle" x="213.86" y="-426.3" font-family="Times,serif" font-size="14.00">type = VARIABLE</text>
<polyline fill="none" stroke="#964b00" points="152,-419.5 275.72,-419.5"/>
<text xml:space="preserve" text-anchor="middle" x="213.66" y="-404.3" font-family="Times,serif" font-size="14.00">val = 5(b)</text>
<polyline fill="none" stroke="#964b00" points="152,-397.5 275.72,-397.5"/>
<text xml:space="preserve" text-anchor="middle" x="182.5" y="-382.3" font-family="Times,serif" font-size="14.00">0</text>
<polyline fill="none" stroke="#964b00" points="213,-375.5 213,-397.5"/>
<text xml:space="preserve" text-anchor="middle" x="244" y="-382.3" font-family="Times,serif" font-size="14.00">0</text>
</g>
<!-- node_0x606000001640&#45;&gt;node_0x6060000015e0 -->
<g id="edge8" class="edge">
<title>node_0x606000001640&#45;&gt;node_0x6060000015e0</title>
<path fill="none" stroke="#964b00" d="M317.75,-493.02C300.24,-478.94 280.51,-463.08 262.99,-449"/>
<polygon fill="#964b00" stroke="#964b00" points="315.5,-495.7 325.48,-499.23 319.88,-490.24 315.5,-495.7"/>
<polygon fill="#964b00" stroke="#964b00" points="265.22,-446.3 255.24,-442.76 260.84,-451.76 265.22,-446.3"/>
</g>
<!-- node_0x6060000016a0 -->
<g id="node10" class="node">
<title>node_0x6060000016a0</title>
<path fill="#98fb98" stroke="#964b00" d="M310.04,-375.5C310.04,-375.5 421.69,-375.5 421.69,-375.5 427.69,-375.5 433.69,-381.5 433.69,-387.5 433.69,-387.5 433.69,-429.5 433.69,-429.5 433.69,-435.5 427.69,-441.5 421.69,-441.5 421.69,-441.5 310.04,-441.5 310.04,-441.5 304.04,-441.5 298.04,-435.5 298.04,-429.5 298.04,-429.5 298.04,-387.5 298.04,-387.5 298.04,-381.5 304.04,-375.5 310.04,-375.5"/>
<text xml:space="preserve" text-anchor="middle" x="365.86" y="-426.3" font-family="Times,serif" font-size="14.00">type = CONST_VAR</text>
<polyline fill="none" stroke="#964b00" points="298.04,-419.5 433.69,-419.5"/>
<text xml:space="preserve" text-anchor="middle" x="365.54" y="-404.3" font-family="Times,serif" font-size="14.00">val = 0</text>
<polyline fill="none" stroke="#964b00" points="298.04,-397.5 433.69,-397.5"/>
<text xml:space="preserve" text-anchor="middle" x="331.54" y="-382.3" font-family="Times,serif" font-size="14.00">0</text>
<polyline fill="none" stroke="#964b00" points="365.04,-375.5 365.04,-397.5"/>
<text xml:space="preserve" text-anchor="middle" x="399.04" y="-382.3" font-family="Times,serif" font-size="14.00">0</text>
</g>
<!-- node_0x606000001640&#45;&gt;node_0x6060000016a0 -->
<g id="edge9" class="edge">
<title>node_0x606000001640&#45;&gt;node_0x6060000016a0</title>
<path fill="none" stroke="#964b00" d="M366.5,-488.7C366.41,-477.05 366.31,-464.47 366.21,-452.84"/>
<polygon fill="#964b00" stroke="#964b00" points="363,-488.7 366.59,-498.67 370,-488.64 363,-488.7"/>
<polygon fill="#964b00" stroke="#964b00" points="369.71,-453.09 366.13,-443.11 362.72,-453.14 369.71,-453.09"/>
</g>
<!-- node_0x6060000017c0 -->
<g id="node12" class="node">
<title>node_0x6060000017c0</title>
<path fill="#00ffff" stroke="#964b00" d="M467.31,-375.5C467.31,-375.5 570.41,-375.5 570.41,-375.5 576.41,-375.5 582.41,-381.5 582.41,-387.5 582.41,-387.5 582.41,-429.5 582.41,-429.5 582.41,-435.5 576.41,-441.5 570.41,-441.5 570.41,-441.5 467.31,-441.5 467.31,-441.5 461.31,-441.5 455.31,-435.5 455.31,-429.5 455.31,-429.5 455.31,-387.5 455.31,-387.5 455.31,-381.5 461.31,-375.5 467.31,-375.5"/>
<text xml:space="preserve" text-anchor="middle" x="518.86" y="-426.3" font-family="Times,serif" font-size="14.00">type = OPERATOR</text>
<polyline fill="none" stroke="#964b00" points="455.31,-419.5 582.41,-419.5"/>
<text xml:space="preserve" text-anchor="middle" x="518.76" y="-404.3" font-family="Times,serif" font-size="14.00">val = 7(OP_ASS)</text>
<polyline fill="none" stroke="#964b00" points="455.31,-397.5 582.41,-397.5"/>
<text xml:space="preserve" text-anchor="middle" x="486.59" y="-382.3" font-family="Times,serif" font-size="14.00">L</text>
<polyline fill="none" stroke="#964b00" points="517.86,-375.5 517.86,-397.5"/>
<text xml:space="preserve" text-anchor="middle" x="550.03" y="-382.3" font-family="Times,serif" font-size="14.00">R</text>
</g>
<!-- node_0x606000001940&#45;&gt;node_0x6060000017c0 -->
<g id="edge11" class="edge">
<title>node_0x606000001940&#45;&gt;node_0x6060000017c0</title>
<path fill="none" stroke="#964b00" d="M518.22,-488.7C518.31,-477.05 518.41,-464.47 518.51,-452.84"/>
<polygon fill="#964b00" stroke="#964b00" points="514.72,-488.64 518.14,-498.67 521.72,-488.7 514.72,-488.64"/>
<polygon fill="#964b00" stroke="#964b00" points="522.01,-453.14 518.59,-443.11 515.01,-453.09 522.01,-453.14"/>
</g>
<!-- node_0x606000001760 -->
<g id="node13" class="node">
<title>node_0x606000001760</title>
<path fill="#daa520" stroke="#964b00" d="M395,-250.5C395,-250.5 494.72,-250.5 494.72,-250.5 500.72,-250.5 506.72,-256.5 506.72,-262.5 506.72,-262.5 506.72,-304.5 506.72,-304.5 506.72,-310.5 500.72,-316.5 494.72,-316.5 494.72,-316.5 395,-316.5 395,-316.5 389,-316.5 383,-310.5 383,-304.5 383,-304.5 383,-262.5 383,-262.5 383,-256.5 389,-250.5 395,-250.5"/>
<text xml:space="preserve" text-anchor="middle" x="444.86" y="-301.3" font-family="Times,serif" font-size="14.00">type = VARIABLE</text>
<polyline fill="none" stroke="#964b00" points="383,-294.5 506.72,-294.5"/>
<text xml:space="preserve" text-anchor="middle" x="444.66" y="-279.3" font-family="Times,serif" font-size="14.00">val = 5(b)</text>
<polyline fill="none" stroke="#964b00" points="383,-272.5 506.72,-272.5"/>
<text xml:space="preserve" text-anchor="middle" x="413.5" y="-257.3" font-family="Times,serif" font-size="14.00">0</text>
<polyline fill="none" stroke="#964b00" points="444,-250.5 444,-272.5"/>
<text xml:space="preserve" text-anchor="middle" x="475" y="-257.3" font-family="Times,serif" font-size="14.00">0</text>
</g>
<!-- node_0x6060000017c0&#45;&gt;node_0x606000001760 -->
<g id="edge12" class="edge">
<title>node_0x6060000017c0&#45;&gt;node_0x606000001760</title>
<path fill="none" stroke="#964b00" d="M493.6,-365.52C486.01,-352.89 477.67,-339.04 470.08,-326.41"/>
<polygon fill="#964b00" stroke="#964b00" points="490.48,-367.12 498.64,-373.89 496.48,-363.51 490.48,-367.12"/>
<polygon fill="#964b00" stroke="#964b00" points="473.11,-324.66 464.95,-317.9 467.11,-328.27 473.11,-324.66"/>
</g>
<!-- node_0x606000001880 -->
<g id="node14" class="node">
<title>node_0x606000001880</title>
<path fill="#00ffff" stroke="#964b00" d="M540.31,-250.5C540.31,-250.5 643.41,-250.5 643.41,-250.5 649.41,-250.5 655.41,-256.5 655.41,-262.5 655.41,-262.5 655.41,-304.5 655.41,-304.5 655.41,-310.5 649.41,-316.5 643.41,-316.5 643.41,-316.5 540.31,-316.5 540.31,-316.5 534.31,-316.5 528.31,-310.5 528.31,-304.5 528.31,-304.5 528.31,-262.5 528.31,-262.5 528.31,-256.5 534.31,-250.5 540.31,-250.5"/>
<text xml:space="preserve" text-anchor="middle" x="591.86" y="-301.3" font-family="Times,serif" font-size="14.00">type = OPERATOR</text>
<polyline fill="none" stroke="#964b00" points="528.31,-294.5 655.41,-294.5"/>
<text xml:space="preserve" text-anchor="middle" x="591.59" y="-279.3" font-family="Times,serif" font-size="14.00">val = 1(OP_ADD)</text>
<polyline fill="none" stroke="#964b00" points="528.31,-272.5 655.41,-272.5"/>
<text xml:space="preserve" text-anchor="middle" x="559.59" y="-257.3" font-family="Times,serif" font-size="14.00">L</text>
<polyline fill="none" stroke="#964b00" points="590.86,-250.5 590.86,-272.5"/>
<text xml:space="preserve" text-anchor="middle" x="623.03" y="-257.3" font-family="Times,serif" font-size="14.00">R</text>
</g>
<!-- node_0x6060000017c0&#45;&gt;node_0x606000001880 -->
<g id="edge13" class="edge">
<title>node_0x6060000017c0&#45;&gt;node_0x606000001880</title>
<path fill="none" stroke="#964b00" d="M543.78,-365.52C551.27,-352.89 559.49,-339.04 566.98,-326.41"/>
<polygon fill="#964b00" stroke="#964b00" points="540.91,-363.5 538.81,-373.88 546.93,-367.07 540.91,-363.5"/>
<polygon fill="#964b00" stroke="#964b00" points="569.94,-328.29 572.04,-317.9 563.92,-324.72 569.94,-328.29"/>
</g>
<!-- node_0x606000001820 -->
<g id="node15" class="node">
<title>node_0x606000001820</title>
<path fill="#daa520" stroke="#964b00" d="M469,-125.5C469,-125.5 568.72,-125.5 568.72,-125.5 574.72,-125.5 580.72,-131.5 580.72,-137.5 580.72,-137.5 580.72,-179.5 580.72,-179.5 580.72,-185.5 574.72,-191.5 568.72,-191.5 568.72,-191.5 469,-191.5 469,-191.5 463,-191.5 457,-185.5 457,-179.5 457,-179.5 457,-137.5 457,-137.5 457,-131.5 463,-125.5 469,-125.5"/>
<text xml:space="preserve" text-anchor="middle" x="518.86" y="-176.3" font-family="Times,serif" font-size="14.00">type = VARIABLE</text>
<polyline fill="none" stroke="#964b00" points="457,-169.5 580.72,-169.5"/>
<text xml:space="preserve" text-anchor="middle" x="518.77" y="-154.3" font-family="Times,serif" font-size="14.00">val = 0(a)</text>
<polyline fill="none" stroke="#964b00" points="457,-147.5 580.72,-147.5"/>
<text xml:space="preserve" text-anchor="middle" x="487.5" y="-132.3" font-family="Times,serif" font-size="14.00">0</text>
<polyline fill="none" stroke="#964b00" points="518,-125.5 518,-147.5"/>
<text xml:space="preserve" text-anchor="middle" x="549" y="-132.3" font-family="Times,serif" font-size="14.00">0</text>
</g>
<!-- node_0x606000001880&#45;&gt;node_0x606000001820 -->
<g id="edge14" class="edge">
<title>node_0x606000001880&#45;&gt;node_0x606000001820</title>
<path fill="none" stroke="#964b00" d="M566.94,-240.52C559.45,-227.89 551.23,-214.04 543.74,-201.41"/>
<polygon fill="#964b00" stroke="#964b00" points="563.79,-242.07 571.91,-248.88 569.81,-238.5 563.79,-242.07"/>
<polygon fill="#964b00" stroke="#964b00" points="546.8,-199.72 538.68,-192.9 540.78,-203.29 546.8,-199.72"/>
</g>
<!-- node_0x6060000018e0 -->
<g id="node16" class="node">
<title>node_0x6060000018e0</title>
<path fill="#daa520" stroke="#964b00" d="M615,-125.5C615,-125.5 714.72,-125.5 714.72,-125.5 720.72,-125.5 726.72,-131.5 726.72,-137.5 726.72,-137.5 726.72,-179.5 726.72,-179.5 726.72,-185.5 720.72,-191.5 714.72,-191.5 714.72,-191.5 615,-191.5 615,-191.5 609,-191.5 603,-185.5 603,-179.5 603,-179.5 603,-137.5 603,-137.5 603,-131.5 609,-125.5 615,-125.5"/>
<text xml:space="preserve" text-anchor="middle" x="664.86" y="-176.3" font-family="Times,serif" font-size="14.00">type = VARIABLE</text>
<polyline fill="none" stroke="#964b00" points="603,-169.5 726.72,-169.5"/>
<text xml:space="preserve" text-anchor="middle" x="664.77" y="-154.3" font-family="Times,serif" font-size="14.00">val = 2(c)</text>
<polyline fill="none" stroke="#964b00" points="603,-147.5 726.72,-147.5"/>
<text xml:space="preserve" text-anchor="middle" x="633.5" y="-132.3" font-family="Times,serif" font-size="14.00">0</text>
<polyline fill="none" stroke="#964b00" points="664,-125.5 664,-147.5"/>
<text xml:space="preserve" text-anchor="middle" x="695" y="-132.3" font-family="Times,serif" font-size="14.00">0</text>
</g>
<!-- node_0x606000001880&#45;&gt;node_0x6060000018e0 -->
<g id="edge15" class="edge">
<title>node_0x606000001880&#45;&gt;node_0x6060000018e0</title>
<path fill="none" stroke="#964b00" d="M616.78,-240.52C624.27,-227.89 632.49,-214.04 639.98,-201.41"/>
<polygon fill="#964b00" stroke="#964b00" points="613.91,-238.5 611.81,-248.88 619.93,-242.07 613.91,-238.5"/>
<polygon fill="#964b00" stroke="#964b00" points="642.94,-203.29 645.04,-192.9 636.92,-199.72 642.94,-203.29"/>
</g>
<!-- node_0x606000001be0 -->
<g id="node18" class="node">
<title>node_0x606000001be0</title>
<path fill="#00ffff" stroke="#964b00" d="M690.31,-625.5C690.31,-625.5 793.41,-625.5 793.41,-625.5 799.41,-625.5 805.41,-631.5 805.41,-637.5 805.41,-637.5 805.41,-679.5 805.41,-679.5 805.41,-685.5 799.41,-691.5 793.41,-691.5 793.41,-691.5 690.31,-691.5 690.31,-691.5 684.31,-691.5 678.31,-685.5 678.31,-679.5 678.31,-679.5 678.31,-637.5 678.31,-637.5 678.31,-631.5 684.31,-625.5 690.31,-625.5"/>
<text xml:space="preserve" text-anchor="middle" x="741.86" y="-676.3" font-family="Times,serif" font-size="14.00">type = OPERATOR</text>
<polyline fill="none" stroke="#964b00" points="678.31,-669.5 805.41,-669.5"/>
<text xml:space="preserve" text-anchor="middle" x="741.45" y="-654.3" font-family="Times,serif" font-size="14.00">val = 11(OP_SP)</text>
<polyline fill="none" stroke="#964b00" points="678.31,-647.5 805.41,-647.5"/>
<text xml:space="preserve" text-anchor="middle" x="709.59" y="-632.3" font-family="Times,serif" font-size="14.00">L</text>
<polyline fill="none" stroke="#964b00" points="740.86,-625.5 740.86,-647.5"/>
<text xml:space="preserve" text-anchor="middle" x="773.03" y="-632.3" font-family="Times,serif" font-size="14.00">R</text>
</g>
<!-- node_0x606000001a00&#45;&gt;node_0x606000001be0 -->
<g id="edge17" class="edge">
<title>node_0x606000001a00&#45;&gt;node_0x606000001be0</title>
<path fill="none" stroke="#964b00" d="M691.8,-740.52C699.68,-727.76 708.33,-713.76 716.19,-701.04"/>
<polygon fill="#964b00" stroke="#964b00" points="688.9,-738.55 686.62,-748.9 694.86,-742.23 688.9,-738.55"/>
<polygon fill="#964b00" stroke="#964b00" points="718.95,-703.24 721.23,-692.89 713,-699.56 718.95,-703.24"/>
</g>
<!-- node_0x606000001b20 -->
<g id="node19" class="node">
<title>node_0x606000001b20</title>
<path fill="#00ffff" stroke="#964b00" d="M690.31,-500.5C690.31,-500.5 793.41,-500.5 793.41,-500.5 799.41,-500.5 805.41,-506.5 805.41,-512.5 805.41,-512.5 805.41,-554.5 805.41,-554.5 805.41,-560.5 799.41,-566.5 793.41,-566.5 793.41,-566.5 690.31,-566.5 690.31,-566.5 684.31,-566.5 678.31,-560.5 678.31,-554.5 678.31,-554.5 678.31,-512.5 678.31,-512.5 678.31,-506.5 684.31,-500.5 690.31,-500.5"/>
<text xml:space="preserve" text-anchor="middle" x="741.86" y="-551.3" font-family="Times,serif" font-size="14.00">type = OPERATOR</text>
<polyline fill="none" stroke="#964b00" points="678.31,-544.5 805.41,-544.5"/>
<text xml:space="preserve" text-anchor="middle" x="741.41" y="-529.3" font-family="Times,serif" font-size="14.00">val = 6(OP_INIT)</text>
<polyline fill="none" stroke="#964b00" points="678.31,-522.5 805.41,-522.5"/>
<text xml:space="preserve" text-anchor="middle" x="709.59" y="-507.3" font-family="Times,serif" font-size="14.00">L</text>
<polyline fill="none" stroke="#964b00" points="740.86,-500.5 740.86,-522.5"/>
<text xml:space="preserve" text-anchor="middle" x="773.03" y="-507.3" font-family="Times,serif" font-size="14.00">R</text>
</g>
<!-- node_0x606000001be0&#45;&gt;node_0x606000001b20 -->
<g id="edge18" class="edge">
<title>node_0x606000001be0&#45;&gt;node_0x606000001b20</title>
<path fill="none" stroke="#964b00" d="M741.86,-613.7C741.86,-602.05 741.86,-589.47 741.86,-577.84"/>
<polygon fill="#964b00" stroke="#964b00" points="738.36,-613.67 741.86,-623.67 745.36,-613.67 738.36,-613.67"/>
<polygon fill="#964b00" stroke="#964b00" points="745.36,-578.11 741.86,-568.11 738.36,-578.11 745.36,-578.11"/>
</g>
<!-- node_0x606000001ee0 -->
<g id="node22" class="node">
<title>node_0x606000001ee0</title>
<path fill="#00ffff" stroke="#964b00" d="M878.31,-500.5C878.31,-500.5 981.41,-500.5 981.41,-500.5 987.41,-500.5 993.41,-506.5 993.41,-512.5 993.41,-512.5 993.41,-554.5 993.41,-554.5 993.41,-560.5 987.41,-566.5 981.41,-566.5 981.41,-566.5 878.31,-566.5 878.31,-566.5 872.31,-566.5 866.31,-560.5 866.31,-554.5 866.31,-554.5 866.31,-512.5 866.31,-512.5 866.31,-506.5 872.31,-500.5 878.31,-500.5"/>
<text xml:space="preserve" text-anchor="middle" x="929.86" y="-551.3" font-family="Times,serif" font-size="14.00">type = OPERATOR</text>
<polyline fill="none" stroke="#964b00" points="866.31,-544.5 993.41,-544.5"/>
<text xml:space="preserve" text-anchor="middle" x="929.45" y="-529.3" font-family="Times,serif" font-size="14.00">val = 11(OP_SP)</text>
<polyline fill="none" stroke="#964b00" points="866.31,-522.5 993.41,-522.5"/>
<text xml:space="preserve" text-anchor="middle" x="897.59" y="-507.3" font-family="Times,serif" font-size="14.00">L</text>
<polyline fill="none" stroke="#964b00" points="928.86,-500.5 928.86,-522.5"/>
<text xml:space="preserve" text-anchor="middle" x="961.03" y="-507.3" font-family="Times,serif" font-size="14.00">R</text>
</g>
<!-- node_0x606000001be0&#45;&gt;node_0x606000001ee0 -->
<g id="edge21" class="edge">
<title>node_0x606000001be0&#45;&gt;node_0x606000001ee0</title>
<path fill="none" stroke="#964b00" d="M800.85,-618.91C823.24,-604.26 848.72,-587.59 871.09,-572.95"/>
<polygon fill="#964b00" stroke="#964b00" points="798.97,-615.95 792.52,-624.35 802.81,-621.81 798.97,-615.95"/>
<polygon fill="#964b00" stroke="#964b00" points="872.75,-576.05 879.2,-567.64 868.92,-570.19 872.75,-576.05"/>
</g>
<!-- node_0x606000001ac0 -->
<g id="node20" class="node">
<title>node_0x606000001ac0</title>
<path fill="#daa520" stroke="#964b00" d="M616,-375.5C616,-375.5 715.72,-375.5 715.72,-375.5 721.72,-375.5 727.72,-381.5 727.72,-387.5 727.72,-387.5 727.72,-429.5 727.72,-429.5 727.72,-435.5 721.72,-441.5 715.72,-441.5 715.72,-441.5 616,-441.5 616,-441.5 610,-441.5 604,-435.5 604,-429.5 604,-429.5 604,-387.5 604,-387.5 604,-381.5 610,-375.5 616,-375.5"/>
<text xml:space="preserve" text-anchor="middle" x="665.86" y="-426.3" font-family="Times,serif" font-size="14.00">type = VARIABLE</text>
<polyline fill="none" stroke="#964b00" points="604,-419.5 727.72,-419.5"/>
<text xml:space="preserve" text-anchor="middle" x="665.66" y="-404.3" font-family="Times,serif" font-size="14.00">val = 6(x)</text>
<polyline fill="none" stroke="#964b00" points="604,-397.5 727.72,-397.5"/>
<text xml:space="preserve" text-anchor="middle" x="634.5" y="-382.3" font-family="Times,serif" font-size="14.00">0</text>
<polyline fill="none" stroke="#964b00" points="665,-375.5 665,-397.5"/>
<text xml:space="preserve" text-anchor="middle" x="696" y="-382.3" font-family="Times,serif" font-size="14.00">0</text>
</g>
<!-- node_0x606000001b20&#45;&gt;node_0x606000001ac0 -->
<g id="edge19" class="edge">
<title>node_0x606000001b20&#45;&gt;node_0x606000001ac0</title>
<path fill="none" stroke="#964b00" d="M715.92,-490.52C708.04,-477.76 699.39,-463.76 691.53,-451.04"/>
<polygon fill="#964b00" stroke="#964b00" points="712.86,-492.23 721.1,-498.9 718.82,-488.55 712.86,-492.23"/>
<polygon fill="#964b00" stroke="#964b00" points="694.72,-449.56 686.49,-442.89 688.77,-453.24 694.72,-449.56"/>
</g>
<!-- node_0x606000001b80 -->
<g id="node21" class="node">
<title>node_0x606000001b80</title>
<path fill="#98fb98" stroke="#964b00" d="M762.04,-375.5C762.04,-375.5 873.69,-375.5 873.69,-375.5 879.69,-375.5 885.69,-381.5 885.69,-387.5 885.69,-387.5 885.69,-429.5 885.69,-429.5 885.69,-435.5 879.69,-441.5 873.69,-441.5 873.69,-441.5 762.04,-441.5 762.04,-441.5 756.04,-441.5 750.04,-435.5 750.04,-429.5 750.04,-429.5 750.04,-387.5 750.04,-387.5 750.04,-381.5 756.04,-375.5 762.04,-375.5"/>
<text xml:space="preserve" text-anchor="middle" x="817.86" y="-426.3" font-family="Times,serif" font-size="14.00">type = CONST_VAR</text>
<polyline fill="none" stroke="#964b00" points="750.04,-419.5 885.69,-419.5"/>
<text xml:space="preserve" text-anchor="middle" x="817.54" y="-404.3" font-family="Times,serif" font-size="14.00">val = 8</text>
<polyline fill="none" stroke="#964b00" points="750.04,-397.5 885.69,-397.5"/>
<text xml:space="preserve" text-anchor="middle" x="783.54" y="-382.3" font-family="Times,serif" font-size="14.00">0</text>
<polyline fill="none" stroke="#964b00" points="817.04,-375.5 817.04,-397.5"/>
<text xml:space="preserve" text-anchor="middle" x="851.04" y="-382.3" font-family="Times,serif" font-size="14.00">0</text>
</g>
<!-- node_0x606000001b20&#45;&gt;node_0x606000001b80 -->
<g id="edge20" class="edge">
<title>node_0x606000001b20&#45;&gt;node_0x606000001b80</title>
<path fill="none" stroke="#964b00" d="M767.8,-490.52C775.68,-477.76 784.33,-463.76 792.19,-451.04"/>
<polygon fill="#964b00" stroke="#964b00" points="764.9,-488.55 762.62,-498.9 770.86,-492.23 764.9,-488.55"/>
<polygon fill="#964b00" stroke="#964b00" points="794.95,-453.24 797.23,-442.89 789,-449.56 794.95,-453.24"/>
</g>
<!-- node_0x606000001ca0 -->
<g id="node23" class="node">
<title>node_0x606000001ca0</title>
<path fill="#00ffff" stroke="#964b00" d="M919.31,-375.5C919.31,-375.5 1022.41,-375.5 1022.41,-375.5 1028.41,-375.5 1034.41,-381.5 1034.41,-387.5 1034.41,-387.5 1034.41,-429.5 1034.41,-429.5 1034.41,-435.5 1028.41,-441.5 1022.41,-441.5 1022.41,-441.5 919.31,-441.5 919.31,-441.5 913.31,-441.5 907.31,-435.5 907.31,-429.5 907.31,-429.5 907.31,-387.5 907.31,-387.5 907.31,-381.5 913.31,-375.5 919.31,-375.5"/>
<text xml:space="preserve" text-anchor="middle" x="970.86" y="-426.3" font-family="Times,serif" font-size="14.00">type = OPERATOR</text>
<polyline fill="none" stroke="#964b00" points="907.31,-419.5 1034.41,-419.5"/>
<text xml:space="preserve" text-anchor="middle" x="970.76" y="-404.3" font-family="Times,serif" font-size="14.00">val = 7(OP_ASS)</text>
<polyline fill="none" stroke="#964b00" points="907.31,-397.5 1034.41,-397.5"/>
<text xml:space="preserve" text-anchor="middle" x="938.59" y="-382.3" font-family="Times,serif" font-size="14.00">L</text>
<polyline fill="none" stroke="#964b00" points="969.86,-375.5 969.86,-397.5"/>
<text xml:space="preserve" text-anchor="middle" x="1002.03" y="-382.3" font-family="Times,serif" font-size="14.00">R</text>
</g>
<!-- node_0x606000001ee0&#45;&gt;node_0x606000001ca0 -->
<g id="edge22" class="edge">
<title>node_0x606000001ee0&#45;&gt;node_0x606000001ca0</title>
<path fill="none" stroke="#964b00" d="M944.16,-489.61C948.18,-477.53 952.56,-464.4 956.58,-452.33"/>
<polygon fill="#964b00" stroke="#964b00" points="940.95,-488.15 941.11,-498.75 947.59,-490.37 940.95,-488.15"/>
<polygon fill="#964b00" stroke="#964b00" points="959.84,-453.63 959.68,-443.04 953.2,-451.42 959.84,-453.63"/>
</g>
<!-- node_0x606000001c40 -->
<g id="node24" class="node">
<title>node_0x606000001c40</title>
<path fill="#daa520" stroke="#964b00" d="M847,-250.5C847,-250.5 946.72,-250.5 946.72,-250.5 952.72,-250.5 958.72,-256.5 958.72,-262.5 958.72,-262.5 958.72,-304.5 958.72,-304.5 958.72,-310.5 952.72,-316.5 946.72,-316.5 946.72,-316.5 847,-316.5 847,-316.5 841,-316.5 835,-310.5 835,-304.5 835,-304.5 835,-262.5 835,-262.5 835,-256.5 841,-250.5 847,-250.5"/>
<text xml:space="preserve" text-anchor="middle" x="896.86" y="-301.3" font-family="Times,serif" font-size="14.00">type = VARIABLE</text>
<polyline fill="none" stroke="#964b00" points="835,-294.5 958.72,-294.5"/>
<text xml:space="preserve" text-anchor="middle" x="896.66" y="-279.3" font-family="Times,serif" font-size="14.00">val = 6(x)</text>
<polyline fill="none" stroke="#964b00" points="835,-272.5 958.72,-272.5"/>
<text xml:space="preserve" text-anchor="middle" x="865.5" y="-257.3" font-family="Times,serif" font-size="14.00">0</text>
<polyline fill="none" stroke="#964b00" points="896,-250.5 896,-272.5"/>
<text xml:space="preserve" text-anchor="middle" x="927" y="-257.3" font-family="Times,serif" font-size="14.00">0</text>
</g>
<!-- node_0x606000001ca0&#45;&gt;node_0x606000001c40 -->
<g id="edge23" class="edge">
<title>node_0x606000001ca0&#45;&gt;node_0x606000001c40</title>
<path fill="none" stroke="#964b00" d="M945.6,-365.52C938.01,-352.89 929.67,-339.04 922.08,-326.41"/>
<polygon fill="#964b00" stroke="#964b00" points="942.48,-367.12 950.64,-373.89 948.48,-363.51 942.48,-367.12"/>
<polygon fill="#964b00" stroke="#964b00" points="925.11,-324.66 916.95,-317.9 919.11,-328.27 925.11,-324.66"/>
</g>
<!-- node_0x606000001e20 -->
<g id="node25" class="node">
<title>node_0x606000001e20</title>
<path fill="#00ffff" stroke="#964b00" d="M992.31,-250.5C992.31,-250.5 1095.41,-250.5 1095.41,-250.5 1101.41,-250.5 1107.41,-256.5 1107.41,-262.5 1107.41,-262.5 1107.41,-304.5 1107.41,-304.5 1107.41,-310.5 1101.41,-316.5 1095.41,-316.5 1095.41,-316.5 992.31,-316.5 992.31,-316.5 986.31,-316.5 980.31,-310.5 980.31,-304.5 980.31,-304.5 980.31,-262.5 980.31,-262.5 980.31,-256.5 986.31,-250.5 992.31,-250.5"/>
<text xml:space="preserve" text-anchor="middle" x="1043.86" y="-301.3" font-family="Times,serif" font-size="14.00">type = OPERATOR</text>
<polyline fill="none" stroke="#964b00" points="980.31,-294.5 1107.41,-294.5"/>
<text xml:space="preserve" text-anchor="middle" x="1043.59" y="-279.3" font-family="Times,serif" font-size="14.00">val = 1(OP_ADD)</text>
<polyline fill="none" stroke="#964b00" points="980.31,-272.5 1107.41,-272.5"/>
<text xml:space="preserve" text-anchor="middle" x="1011.59" y="-257.3" font-family="Times,serif" font-size="14.00">L</text>
<polyline fill="none" stroke="#964b00" points="1042.86,-250.5 1042.86,-272.5"/>
<text xml:space="preserve" text-anchor="middle" x="1075.03" y="-257.3" font-family="Times,serif" font-size="14.00">R</text>
</g>
<!-- node_0x606000001ca0&#45;&gt;node_0x606000001e20 -->
<g id="edge24" class="edge">
<title>node_0x606000001ca0&#45;&gt;node_0x606000001e20</title>
<path fill="none" stroke="#964b00" d="M995.78,-365.52C1003.27,-352.89 1011.49,-339.04 1018.98,-326.41"/>
<polygon fill="#964b00" stroke="#964b00" points="992.91,-363.5 990.81,-373.88 998.93,-367.07 992.91,-363.5"/>
<polygon fill="#964b00" stroke="#964b00" points="1021.94,-328.29 1024.04,-317.9 1015.92,-324.72 1021.94,-328.29"/>
</g>
<!-- node_0x606000001d60 -->
<g id="node26" class="node">
<title>node_0x606000001d60</title>
<path fill="#00ffff" stroke="#964b00" d="M918.31,-125.5C918.31,-125.5 1021.41,-125.5 1021.41,-125.5 1027.41,-125.5 1033.41,-131.5 1033.41,-137.5 1033.41,-137.5 1033.41,-179.5 1033.41,-179.5 1033.41,-185.5 1027.41,-191.5 1021.41,-191.5 1021.41,-191.5 918.31,-191.5 918.31,-191.5 912.31,-191.5 906.31,-185.5 906.31,-179.5 906.31,-179.5 906.31,-137.5 906.31,-137.5 906.31,-131.5 912.31,-125.5 918.31,-125.5"/>
<text xml:space="preserve" text-anchor="middle" x="969.86" y="-176.3" font-family="Times,serif" font-size="14.00">type = OPERATOR</text>
<polyline fill="none" stroke="#964b00" points="906.31,-169.5 1033.41,-169.5"/>
<text xml:space="preserve" text-anchor="middle" x="969.59" y="-154.3" font-family="Times,serif" font-size="14.00">val = 1(OP_ADD)</text>
<polyline fill="none" stroke="#964b00" points="906.31,-147.5 1033.41,-147.5"/>
<text xml:space="preserve" text-anchor="middle" x="937.59" y="-132.3" font-family="Times,serif" font-size="14.00">L</text>
<polyline fill="none" stroke="#964b00" points="968.86,-125.5 968.86,-147.5"/>
<text xml:space="preserve" text-anchor="middle" x="1001.03" y="-132.3" font-family="Times,serif" font-size="14.00">R</text>
</g>
<!-- node_0x606000001e20&#45;&gt;node_0x606000001d60 -->
<g id="edge25" class="edge">
<title>node_0x606000001e20&#45;&gt;node_0x606000001d60</title>
<path fill="none" stroke="#964b00" d="M1018.6,-240.52C1011.01,-227.89 1002.67,-214.04 995.08,-201.41"/>
<polygon fill="#964b00" stroke="#964b00" points="1015.48,-242.12 1023.64,-248.89 1021.48,-238.51 1015.48,-242.12"/>
<polygon fill="#964b00" stroke="#964b00" points="998.11,-199.66 989.95,-192.9 992.11,-203.27 998.11,-199.66"/>
</g>
<!-- node_0x606000001e80 -->
<g id="node29" class="node">
<title>node_0x606000001e80</title>
<path fill="#daa520" stroke="#964b00" d="M1067,-125.5C1067,-125.5 1166.72,-125.5 1166.72,-125.5 1172.72,-125.5 1178.72,-131.5 1178.72,-137.5 1178.72,-137.5 1178.72,-179.5 1178.72,-179.5 1178.72,-185.5 1172.72,-191.5 1166.72,-191.5 1166.72,-191.5 1067,-191.5 1067,-191.5 1061,-191.5 1055,-185.5 1055,-179.5 1055,-179.5 1055,-137.5 1055,-137.5 1055,-131.5 1061,-125.5 1067,-125.5"/>
<text xml:space="preserve" text-anchor="middle" x="1116.86" y="-176.3" font-family="Times,serif" font-size="14.00">type = VARIABLE</text>
<polyline fill="none" stroke="#964b00" points="1055,-169.5 1178.72,-169.5"/>
<text xml:space="preserve" text-anchor="middle" x="1116.66" y="-154.3" font-family="Times,serif" font-size="14.00">val = 1(b)</text>
<polyline fill="none" stroke="#964b00" points="1055,-147.5 1178.72,-147.5"/>
<text xml:space="preserve" text-anchor="middle" x="1085.5" y="-132.3" font-family="Times,serif" font-size="14.00">0</text>
<polyline fill="none" stroke="#964b00" points="1116,-125.5 1116,-147.5"/>
<text xml:space="preserve" text-anchor="middle" x="1147" y="-132.3" font-family="Times,serif" font-size="14.00">0</text>
</g>
<!-- node_0x606000001e20&#45;&gt;node_0x606000001e80 -->
<g id="edge28" class="edge">
<title>node_0x606000001e20&#45;&gt;node_0x606000001e80</title>
<path fill="none" stroke="#964b00" d="M1068.78,-240.52C1076.27,-227.89 1084.49,-214.04 1091.98,-201.41"/>
<polygon fill="#964b00" stroke="#964b00" points="1065.91,-238.5 1063.81,-248.88 1071.93,-242.07 1065.91,-238.5"/>
<polygon fill="#964b00" stroke="#964b00" points="1094.94,-203.29 1097.04,-192.9 1088.92,-199.72 1094.94,-203.29"/>
</g>
<!-- node_0x606000001d00 -->
<g id="node27" class="node">
<title>node_0x606000001d00</title>
<path fill="#daa520" stroke="#964b00" d="M847,-0.5C847,-0.5 946.72,-0.5 946.72,-0.5 952.72,-0.5 958.72,-6.5 958.72,-12.5 958.72,-12.5 958.72,-54.5 958.72,-54.5 958.72,-60.5 952.72,-66.5 946.72,-66.5 946.72,-66.5 847,-66.5 847,-66.5 841,-66.5 835,-60.5 835,-54.5 835,-54.5 835,-12.5 835,-12.5 835,-6.5 841,-0.5 847,-0.5"/>
<text xml:space="preserve" text-anchor="middle" x="896.86" y="-51.3" font-family="Times,serif" font-size="14.00">type = VARIABLE</text>
<polyline fill="none" stroke="#964b00" points="835,-44.5 958.72,-44.5"/>
<text xml:space="preserve" text-anchor="middle" x="896.77" y="-29.3" font-family="Times,serif" font-size="14.00">val = 0(a)</text>
<polyline fill="none" stroke="#964b00" points="835,-22.5 958.72,-22.5"/>
<text xml:space="preserve" text-anchor="middle" x="865.5" y="-7.3" font-family="Times,serif" font-size="14.00">0</text>
<polyline fill="none" stroke="#964b00" points="896,-0.5 896,-22.5"/>
<text xml:space="preserve" text-anchor="middle" x="927" y="-7.3" font-family="Times,serif" font-size="14.00">0</text>
</g>
<!-- node_0x606000001d60&#45;&gt;node_0x606000001d00 -->
<g id="edge26" class="edge">
<title>node_0x606000001d60&#45;&gt;node_0x606000001d00</title>
<path fill="none" stroke="#964b00" d="M944.94,-115.52C937.45,-102.89 929.23,-89.04 921.74,-76.41"/>
<polygon fill="#964b00" stroke="#964b00" points="941.79,-117.07 949.91,-123.88 947.81,-113.5 941.79,-117.07"/>
<polygon fill="#964b00" stroke="#964b00" points="924.8,-74.72 916.68,-67.9 918.78,-78.29 924.8,-74.72"/>
</g>
<!-- node_0x606000001dc0 -->
<g id="node28" class="node">
<title>node_0x606000001dc0</title>
<path fill="#daa520" stroke="#964b00" d="M993,-0.5C993,-0.5 1092.72,-0.5 1092.72,-0.5 1098.72,-0.5 1104.72,-6.5 1104.72,-12.5 1104.72,-12.5 1104.72,-54.5 1104.72,-54.5 1104.72,-60.5 1098.72,-66.5 1092.72,-66.5 1092.72,-66.5 993,-66.5 993,-66.5 987,-66.5 981,-60.5 981,-54.5 981,-54.5 981,-12.5 981,-12.5 981,-6.5 987,-0.5 993,-0.5"/>
<text xml:space="preserve" text-anchor="middle" x="1042.86" y="-51.3" font-family="Times,serif" font-size="14.00">type = VARIABLE</text>
<polyline fill="none" stroke="#964b00" points="981,-44.5 1104.72,-44.5"/>
<text xml:space="preserve" text-anchor="middle" x="1042.77" y="-29.3" font-family="Times,serif" font-size="14.00">val = 2(c)</text>
<polyline fill="none" stroke="#964b00" points="981,-22.5 1104.72,-22.5"/>
<text xml:space="preserve" text-anchor="middle" x="1011.5" y="-7.3" font-family="Times,serif" font-size="14.00">0</text>
<polyline fill="none" stroke="#964b00" points="1042,-0.5 1042,-22.5"/>
<text xml:space="preserve" text-anchor="middle" x="1073" y="-7.3" font-family="Times,serif" font-size="14.00">0</text>
</g>
<!-- node_0x606000001d60&#45;&gt;node_0x606000001dc0 -->
<g id="edge27" class="edge">
<title>node_0x606000001d60&#45;&gt;node_0x606000001dc0</title>
<path fill="none" stroke="#964b00" d="M994.78,-115.52C1002.27,-102.89 1010.49,-89.04 1017.98,-76.41"/>
<polygon fill="#964b00" stroke="#964b00" points="991.91,-113.5 989.81,-123.88 997.93,-117.07 991.91,-113.5"/>
<polygon fill="#964b00" stroke="#964b00" points="1020.94,-78.29 1023.04,-67.9 1014.92,-74.72 1020.94,-78.29"/>
</g>
</g>
</svg>
