<?xml version="1.0" encoding="UTF-8" standalone="no"?>
<!DOCTYPE svg PUBLIC "-//W3C//DTD SVG 1.1//EN"
 "http://www.w3.org/Graphics/SVG/1.1/DTD/svg11.dtd">
<!-- Generated by graphviz version 14.0.2 (20251019.1705)
 -->
<!-- Title: G Pages: 1 -->
<svg width="152pt" height="75pt"
 viewBox="0.00 0.00 152.00 75.00" xmlns="http://www.w3.org/2000/svg" xmlns:xlink="http://www.w3.org/1999/xlink">
<g id="graph0" class="graph" transform="scale(1 1) rotate(0) translate(4 71)">
<title>G</title>
<polygon fill="#fffafa" stroke="none" points="-4,4 -4,-71 148.4,-71 148.4,4 -4,4"/>
<!-- node_0x606000000320 -->
<g id="node1" class="node">
<title>node_0x606000000320</title>
<path fill="#a7a7f2" stroke="#964b00" d="M12,-0.5C12,-0.5 132.4,-0.5 132.4,-0.5 138.4,-0.5 144.4,-6.5 144.4,-12.5 144.4,-12.5 144.4,-54.5 144.4,-54.5 144.4,-60.5 138.4,-66.5 132.4,-66.5 132.4,-66.5 12,-66.5 12,-66.5 6,-66.5 0,-60.5 0,-54.5 0,-54.5 0,-12.5 0,-12.5 0,-6.5 6,-0.5 12,-0.5"/>
<text xml:space="preserve" text-anchor="middle" x="71.89" y="-51.3" font-family="Times,serif" font-size="14.00">type = FUNCTION</text>
<polyline fill="none" stroke="#964b00" points="0,-44.5 144.4,-44.5"/>
<text xml:space="preserve" text-anchor="middle" x="72.2" y="-29.3" font-family="Times,serif" font-size="14.00">val = Che_cazzo_main</text>
<polyline fill="none" stroke="#964b00" points="0,-22.5 144.4,-22.5"/>
<text xml:space="preserve" text-anchor="middle" x="36" y="-7.3" font-family="Times,serif" font-size="14.00">0</text>
<polyline fill="none" stroke="#964b00" points="72,-0.5 72,-22.5"/>
<text xml:space="preserve" text-anchor="middle" x="108" y="-7.3" font-family="Times,serif" font-size="14.00">0</text>
</g>
</g>
</svg>
