<?xml version="1.0" encoding="UTF-8" standalone="no"?>
<!DOCTYPE svg PUBLIC "-//W3C//DTD SVG 1.1//EN"
 "http://www.w3.org/Graphics/SVG/1.1/DTD/svg11.dtd">
<!-- Generated by graphviz version 14.0.2 (20251019.1705)
 -->
<!-- Title: G Pages: 1 -->
<svg width="356pt" height="575pt"
 viewBox="0.00 0.00 356.00 575.00" xmlns="http://www.w3.org/2000/svg" xmlns:xlink="http://www.w3.org/1999/xlink">
<g id="graph0" class="graph" transform="scale(1 1) rotate(0) translate(4 571)">
<title>G</title>
<polygon fill="#fffafa" stroke="none" points="-4,4 -4,-571 351.92,-571 351.92,4 -4,4"/>
<!-- node_0x6060000009e0 -->
<g id="node1" class="node">
<title>node_0x6060000009e0</title>
<path fill="#a7a7f2" stroke="#964b00" d="M73.34,-500.5C73.34,-500.5 198.38,-500.5 198.38,-500.5 204.38,-500.5 210.38,-506.5 210.38,-512.5 210.38,-512.5 210.38,-554.5 210.38,-554.5 210.38,-560.5 204.38,-566.5 198.38,-566.5 198.38,-566.5 73.34,-566.5 73.34,-566.5 67.34,-566.5 61.34,-560.5 61.34,-554.5 61.34,-554.5 61.34,-512.5 61.34,-512.5 61.34,-506.5 67.34,-500.5 73.34,-500.5"/>
<text xml:space="preserve" text-anchor="middle" x="135.73" y="-551.3" font-family="Times,serif" font-size="14.00">type = FUNCTION</text>
<polyline fill="none" stroke="#964b00" points="61.34,-544.5 210.38,-544.5"/>
<text xml:space="preserve" text-anchor="middle" x="135.86" y="-529.3" font-family="Times,serif" font-size="14.00">val = Che_cazzo_check</text>
<polyline fill="none" stroke="#964b00" points="61.34,-522.5 210.38,-522.5"/>
<text xml:space="preserve" text-anchor="middle" x="98.34" y="-507.3" font-family="Times,serif" font-size="14.00">0</text>
<polyline fill="none" stroke="#964b00" points="135.34,-500.5 135.34,-522.5"/>
<text xml:space="preserve" text-anchor="middle" x="172.84" y="-507.3" font-family="Times,serif" font-size="14.00">0</text>
</g>
<!-- node_0x606000000b00 -->
<g id="node2" class="node">
<title>node_0x606000000b00</title>
<path fill="#00ffff" stroke="#964b00" d="M83.8,-375.5C83.8,-375.5 187.92,-375.5 187.92,-375.5 193.92,-375.5 199.92,-381.5 199.92,-387.5 199.92,-387.5 199.92,-429.5 199.92,-429.5 199.92,-435.5 193.92,-441.5 187.92,-441.5 187.92,-441.5 83.8,-441.5 83.8,-441.5 77.8,-441.5 71.8,-435.5 71.8,-429.5 71.8,-429.5 71.8,-387.5 71.8,-387.5 71.8,-381.5 77.8,-375.5 83.8,-375.5"/>
<text xml:space="preserve" text-anchor="middle" x="135.85" y="-426.3" font-family="Times,serif" font-size="14.00">type = OPERATOR</text>
<polyline fill="none" stroke="#964b00" points="71.8,-419.5 199.92,-419.5"/>
<text xml:space="preserve" text-anchor="middle" x="135.86" y="-404.3" font-family="Times,serif" font-size="14.00">val = 19(OP_COM)</text>
<polyline fill="none" stroke="#964b00" points="71.8,-397.5 199.92,-397.5"/>
<text xml:space="preserve" text-anchor="middle" x="103.58" y="-382.3" font-family="Times,serif" font-size="14.00">L</text>
<polyline fill="none" stroke="#964b00" points="135.35,-375.5 135.35,-397.5"/>
<text xml:space="preserve" text-anchor="middle" x="167.52" y="-382.3" font-family="Times,serif" font-size="14.00">R</text>
</g>
<!-- node_0x6060000009e0&#45;&gt;node_0x606000000b00 -->
<g id="edge1" class="edge">
<title>node_0x6060000009e0&#45;&gt;node_0x606000000b00</title>
<path fill="none" stroke="#964b00" d="M135.86,-488.7C135.86,-477.05 135.86,-464.47 135.86,-452.84"/>
<polygon fill="#964b00" stroke="#964b00" points="132.36,-488.67 135.86,-498.67 139.36,-488.67 132.36,-488.67"/>
<polygon fill="#964b00" stroke="#964b00" points="139.36,-453.11 135.86,-443.11 132.36,-453.11 139.36,-453.11"/>
</g>
<!-- node_0x606000000aa0 -->
<g id="node3" class="node">
<title>node_0x606000000aa0</title>
<path fill="#daa520" stroke="#964b00" d="M12,-250.5C12,-250.5 111.72,-250.5 111.72,-250.5 117.72,-250.5 123.72,-256.5 123.72,-262.5 123.72,-262.5 123.72,-304.5 123.72,-304.5 123.72,-310.5 117.72,-316.5 111.72,-316.5 111.72,-316.5 12,-316.5 12,-316.5 6,-316.5 0,-310.5 0,-304.5 0,-304.5 0,-262.5 0,-262.5 0,-256.5 6,-250.5 12,-250.5"/>
<text xml:space="preserve" text-anchor="middle" x="61.86" y="-301.3" font-family="Times,serif" font-size="14.00">type = VARIABLE</text>
<polyline fill="none" stroke="#964b00" points="0,-294.5 123.72,-294.5"/>
<text xml:space="preserve" text-anchor="middle" x="61.77" y="-279.3" font-family="Times,serif" font-size="14.00">val = 0(a)</text>
<polyline fill="none" stroke="#964b00" points="0,-272.5 123.72,-272.5"/>
<text xml:space="preserve" text-anchor="middle" x="30.5" y="-257.3" font-family="Times,serif" font-size="14.00">0</text>
<polyline fill="none" stroke="#964b00" points="61,-250.5 61,-272.5"/>
<text xml:space="preserve" text-anchor="middle" x="92" y="-257.3" font-family="Times,serif" font-size="14.00">0</text>
</g>
<!-- node_0x606000000b00&#45;&gt;node_0x606000000aa0 -->
<g id="edge2" class="edge">
<title>node_0x606000000b00&#45;&gt;node_0x606000000aa0</title>
<path fill="none" stroke="#964b00" d="M110.6,-365.52C103.01,-352.89 94.67,-339.04 87.08,-326.41"/>
<polygon fill="#964b00" stroke="#964b00" points="107.48,-367.12 115.64,-373.89 113.48,-363.51 107.48,-367.12"/>
<polygon fill="#964b00" stroke="#964b00" points="90.11,-324.66 81.95,-317.9 84.11,-328.27 90.11,-324.66"/>
</g>
<!-- node_0x606000000bc0 -->
<g id="node4" class="node">
<title>node_0x606000000bc0</title>
<path fill="#00ffff" stroke="#964b00" d="M157.8,-250.5C157.8,-250.5 261.92,-250.5 261.92,-250.5 267.92,-250.5 273.92,-256.5 273.92,-262.5 273.92,-262.5 273.92,-304.5 273.92,-304.5 273.92,-310.5 267.92,-316.5 261.92,-316.5 261.92,-316.5 157.8,-316.5 157.8,-316.5 151.8,-316.5 145.8,-310.5 145.8,-304.5 145.8,-304.5 145.8,-262.5 145.8,-262.5 145.8,-256.5 151.8,-250.5 157.8,-250.5"/>
<text xml:space="preserve" text-anchor="middle" x="209.85" y="-301.3" font-family="Times,serif" font-size="14.00">type = OPERATOR</text>
<polyline fill="none" stroke="#964b00" points="145.8,-294.5 273.92,-294.5"/>
<text xml:space="preserve" text-anchor="middle" x="209.86" y="-279.3" font-family="Times,serif" font-size="14.00">val = 19(OP_COM)</text>
<polyline fill="none" stroke="#964b00" points="145.8,-272.5 273.92,-272.5"/>
<text xml:space="preserve" text-anchor="middle" x="177.58" y="-257.3" font-family="Times,serif" font-size="14.00">L</text>
<polyline fill="none" stroke="#964b00" points="209.35,-250.5 209.35,-272.5"/>
<text xml:space="preserve" text-anchor="middle" x="241.52" y="-257.3" font-family="Times,serif" font-size="14.00">R</text>
</g>
<!-- node_0x606000000b00&#45;&gt;node_0x606000000bc0 -->
<g id="edge3" class="edge">
<title>node_0x606000000b00&#45;&gt;node_0x606000000bc0</title>
<path fill="none" stroke="#964b00" d="M161.12,-365.52C168.72,-352.89 177.05,-339.04 184.64,-326.41"/>
<polygon fill="#964b00" stroke="#964b00" points="158.24,-363.51 156.08,-373.89 164.24,-367.12 158.24,-363.51"/>
<polygon fill="#964b00" stroke="#964b00" points="187.61,-328.27 189.77,-317.9 181.61,-324.66 187.61,-328.27"/>
</g>
<!-- node_0x606000000b60 -->
<g id="node5" class="node">
<title>node_0x606000000b60</title>
<path fill="#daa520" stroke="#964b00" d="M86,-125.5C86,-125.5 185.72,-125.5 185.72,-125.5 191.72,-125.5 197.72,-131.5 197.72,-137.5 197.72,-137.5 197.72,-179.5 197.72,-179.5 197.72,-185.5 191.72,-191.5 185.72,-191.5 185.72,-191.5 86,-191.5 86,-191.5 80,-191.5 74,-185.5 74,-179.5 74,-179.5 74,-137.5 74,-137.5 74,-131.5 80,-125.5 86,-125.5"/>
<text xml:space="preserve" text-anchor="middle" x="135.86" y="-176.3" font-family="Times,serif" font-size="14.00">type = VARIABLE</text>
<polyline fill="none" stroke="#964b00" points="74,-169.5 197.72,-169.5"/>
<text xml:space="preserve" text-anchor="middle" x="135.66" y="-154.3" font-family="Times,serif" font-size="14.00">val = 1(b)</text>
<polyline fill="none" stroke="#964b00" points="74,-147.5 197.72,-147.5"/>
<text xml:space="preserve" text-anchor="middle" x="104.5" y="-132.3" font-family="Times,serif" font-size="14.00">0</text>
<polyline fill="none" stroke="#964b00" points="135,-125.5 135,-147.5"/>
<text xml:space="preserve" text-anchor="middle" x="166" y="-132.3" font-family="Times,serif" font-size="14.00">0</text>
</g>
<!-- node_0x606000000bc0&#45;&gt;node_0x606000000b60 -->
<g id="edge4" class="edge">
<title>node_0x606000000bc0&#45;&gt;node_0x606000000b60</title>
<path fill="none" stroke="#964b00" d="M184.6,-240.52C177.01,-227.89 168.67,-214.04 161.08,-201.41"/>
<polygon fill="#964b00" stroke="#964b00" points="181.48,-242.12 189.64,-248.89 187.48,-238.51 181.48,-242.12"/>
<polygon fill="#964b00" stroke="#964b00" points="164.11,-199.66 155.95,-192.9 158.11,-203.27 164.11,-199.66"/>
</g>
<!-- node_0x606000002ba0 -->
<g id="node6" class="node">
<title>node_0x606000002ba0</title>
<path fill="#00ffff" stroke="#964b00" d="M231.8,-125.5C231.8,-125.5 335.92,-125.5 335.92,-125.5 341.92,-125.5 347.92,-131.5 347.92,-137.5 347.92,-137.5 347.92,-179.5 347.92,-179.5 347.92,-185.5 341.92,-191.5 335.92,-191.5 335.92,-191.5 231.8,-191.5 231.8,-191.5 225.8,-191.5 219.8,-185.5 219.8,-179.5 219.8,-179.5 219.8,-137.5 219.8,-137.5 219.8,-131.5 225.8,-125.5 231.8,-125.5"/>
<text xml:space="preserve" text-anchor="middle" x="283.85" y="-176.3" font-family="Times,serif" font-size="14.00">type = OPERATOR</text>
<polyline fill="none" stroke="#964b00" points="219.8,-169.5 347.92,-169.5"/>
<text xml:space="preserve" text-anchor="middle" x="283.86" y="-154.3" font-family="Times,serif" font-size="14.00">val = 19(OP_COM)</text>
<polyline fill="none" stroke="#964b00" points="219.8,-147.5 347.92,-147.5"/>
<text xml:space="preserve" text-anchor="middle" x="251.58" y="-132.3" font-family="Times,serif" font-size="14.00">L</text>
<polyline fill="none" stroke="#964b00" points="283.35,-125.5 283.35,-147.5"/>
<text xml:space="preserve" text-anchor="middle" x="315.52" y="-132.3" font-family="Times,serif" font-size="14.00">R</text>
</g>
<!-- node_0x606000000bc0&#45;&gt;node_0x606000002ba0 -->
<g id="edge5" class="edge">
<title>node_0x606000000bc0&#45;&gt;node_0x606000002ba0</title>
<path fill="none" stroke="#964b00" d="M235.12,-240.52C242.72,-227.89 251.05,-214.04 258.64,-201.41"/>
<polygon fill="#964b00" stroke="#964b00" points="232.24,-238.51 230.08,-248.89 238.24,-242.12 232.24,-238.51"/>
<polygon fill="#964b00" stroke="#964b00" points="261.61,-203.27 263.77,-192.9 255.61,-199.66 261.61,-203.27"/>
</g>
<!-- node_0x606000000c20 -->
<g id="node7" class="node">
<title>node_0x606000000c20</title>
<path fill="#daa520" stroke="#964b00" d="M234,-0.5C234,-0.5 333.72,-0.5 333.72,-0.5 339.72,-0.5 345.72,-6.5 345.72,-12.5 345.72,-12.5 345.72,-54.5 345.72,-54.5 345.72,-60.5 339.72,-66.5 333.72,-66.5 333.72,-66.5 234,-66.5 234,-66.5 228,-66.5 222,-60.5 222,-54.5 222,-54.5 222,-12.5 222,-12.5 222,-6.5 228,-0.5 234,-0.5"/>
<text xml:space="preserve" text-anchor="middle" x="283.86" y="-51.3" font-family="Times,serif" font-size="14.00">type = VARIABLE</text>
<polyline fill="none" stroke="#964b00" points="222,-44.5 345.72,-44.5"/>
<text xml:space="preserve" text-anchor="middle" x="283.77" y="-29.3" font-family="Times,serif" font-size="14.00">val = 2(c)</text>
<polyline fill="none" stroke="#964b00" points="222,-22.5 345.72,-22.5"/>
<text xml:space="preserve" text-anchor="middle" x="252.5" y="-7.3" font-family="Times,serif" font-size="14.00">0</text>
<polyline fill="none" stroke="#964b00" points="283,-0.5 283,-22.5"/>
<text xml:space="preserve" text-anchor="middle" x="314" y="-7.3" font-family="Times,serif" font-size="14.00">0</text>
</g>
<!-- node_0x606000002ba0&#45;&gt;node_0x606000000c20 -->
<g id="edge6" class="edge">
<title>node_0x606000002ba0&#45;&gt;node_0x606000000c20</title>
<path fill="none" stroke="#964b00" d="M283.86,-113.7C283.86,-102.05 283.86,-89.47 283.86,-77.84"/>
<polygon fill="#964b00" stroke="#964b00" points="280.36,-113.67 283.86,-123.67 287.36,-113.67 280.36,-113.67"/>
<polygon fill="#964b00" stroke="#964b00" points="287.36,-78.11 283.86,-68.11 280.36,-78.11 287.36,-78.11"/>
</g>
</g>
</svg>
