<?xml version="1.0" encoding="UTF-8" standalone="no"?>
<!DOCTYPE svg PUBLIC "-//W3C//DTD SVG 1.1//EN"
 "http://www.w3.org/Graphics/SVG/1.1/DTD/svg11.dtd">
<!-- Generated by graphviz version 14.0.2 (20251019.1705)
 -->
<!-- Title: G Pages: 1 -->
<svg width="278pt" height="200pt"
 viewBox="0.00 0.00 278.00 200.00" xmlns="http://www.w3.org/2000/svg" xmlns:xlink="http://www.w3.org/1999/xlink">
<g id="graph0" class="graph" transform="scale(1 1) rotate(0) translate(4 196)">
<title>G</title>
<polygon fill="#fffafa" stroke="none" points="-4,4 -4,-196 273.72,-196 273.72,4 -4,4"/>
<!-- node_0x6060000011c0 -->
<g id="node1" class="node">
<title>node_0x6060000011c0</title>
<path fill="#00ffff" stroke="#964b00" d="M83.31,-125.5C83.31,-125.5 186.41,-125.5 186.41,-125.5 192.41,-125.5 198.41,-131.5 198.41,-137.5 198.41,-137.5 198.41,-179.5 198.41,-179.5 198.41,-185.5 192.41,-191.5 186.41,-191.5 186.41,-191.5 83.31,-191.5 83.31,-191.5 77.31,-191.5 71.31,-185.5 71.31,-179.5 71.31,-179.5 71.31,-137.5 71.31,-137.5 71.31,-131.5 77.31,-125.5 83.31,-125.5"/>
<text xml:space="preserve" text-anchor="middle" x="134.86" y="-176.3" font-family="Times,serif" font-size="14.00">type = OPERATOR</text>
<polyline fill="none" stroke="#964b00" points="71.31,-169.5 198.41,-169.5"/>
<text xml:space="preserve" text-anchor="middle" x="134.59" y="-154.3" font-family="Times,serif" font-size="14.00">val = 1(OP_ADD)</text>
<polyline fill="none" stroke="#964b00" points="71.31,-147.5 198.41,-147.5"/>
<text xml:space="preserve" text-anchor="middle" x="102.59" y="-132.3" font-family="Times,serif" font-size="14.00">L</text>
<polyline fill="none" stroke="#964b00" points="133.86,-125.5 133.86,-147.5"/>
<text xml:space="preserve" text-anchor="middle" x="166.03" y="-132.3" font-family="Times,serif" font-size="14.00">R</text>
</g>
<!-- node_0x606000001160 -->
<g id="node2" class="node">
<title>node_0x606000001160</title>
<path fill="#daa520" stroke="#964b00" d="M12,-0.5C12,-0.5 111.72,-0.5 111.72,-0.5 117.72,-0.5 123.72,-6.5 123.72,-12.5 123.72,-12.5 123.72,-54.5 123.72,-54.5 123.72,-60.5 117.72,-66.5 111.72,-66.5 111.72,-66.5 12,-66.5 12,-66.5 6,-66.5 0,-60.5 0,-54.5 0,-54.5 0,-12.5 0,-12.5 0,-6.5 6,-0.5 12,-0.5"/>
<text xml:space="preserve" text-anchor="middle" x="61.86" y="-51.3" font-family="Times,serif" font-size="14.00">type = VARIABLE</text>
<polyline fill="none" stroke="#964b00" points="0,-44.5 123.72,-44.5"/>
<text xml:space="preserve" text-anchor="middle" x="61.77" y="-29.3" font-family="Times,serif" font-size="14.00">val = 4(a)</text>
<polyline fill="none" stroke="#964b00" points="0,-22.5 123.72,-22.5"/>
<text xml:space="preserve" text-anchor="middle" x="30.5" y="-7.3" font-family="Times,serif" font-size="14.00">0</text>
<polyline fill="none" stroke="#964b00" points="61,-0.5 61,-22.5"/>
<text xml:space="preserve" text-anchor="middle" x="92" y="-7.3" font-family="Times,serif" font-size="14.00">0</text>
</g>
<!-- node_0x6060000011c0&#45;&gt;node_0x606000001160 -->
<g id="edge1" class="edge">
<title>node_0x6060000011c0&#45;&gt;node_0x606000001160</title>
<path fill="none" stroke="#964b00" d="M109.94,-115.52C102.45,-102.89 94.23,-89.04 86.74,-76.41"/>
<polygon fill="#964b00" stroke="#964b00" points="106.79,-117.07 114.91,-123.88 112.81,-113.5 106.79,-117.07"/>
<polygon fill="#964b00" stroke="#964b00" points="89.8,-74.72 81.68,-67.9 83.78,-78.29 89.8,-74.72"/>
</g>
<!-- node_0x606000001220 -->
<g id="node3" class="node">
<title>node_0x606000001220</title>
<path fill="#daa520" stroke="#964b00" d="M158,-0.5C158,-0.5 257.72,-0.5 257.72,-0.5 263.72,-0.5 269.72,-6.5 269.72,-12.5 269.72,-12.5 269.72,-54.5 269.72,-54.5 269.72,-60.5 263.72,-66.5 257.72,-66.5 257.72,-66.5 158,-66.5 158,-66.5 152,-66.5 146,-60.5 146,-54.5 146,-54.5 146,-12.5 146,-12.5 146,-6.5 152,-0.5 158,-0.5"/>
<text xml:space="preserve" text-anchor="middle" x="207.86" y="-51.3" font-family="Times,serif" font-size="14.00">type = VARIABLE</text>
<polyline fill="none" stroke="#964b00" points="146,-44.5 269.72,-44.5"/>
<text xml:space="preserve" text-anchor="middle" x="207.77" y="-29.3" font-family="Times,serif" font-size="14.00">val = 2(c)</text>
<polyline fill="none" stroke="#964b00" points="146,-22.5 269.72,-22.5"/>
<text xml:space="preserve" text-anchor="middle" x="176.5" y="-7.3" font-family="Times,serif" font-size="14.00">0</text>
<polyline fill="none" stroke="#964b00" points="207,-0.5 207,-22.5"/>
<text xml:space="preserve" text-anchor="middle" x="238" y="-7.3" font-family="Times,serif" font-size="14.00">0</text>
</g>
<!-- node_0x6060000011c0&#45;&gt;node_0x606000001220 -->
<g id="edge2" class="edge">
<title>node_0x6060000011c0&#45;&gt;node_0x606000001220</title>
<path fill="none" stroke="#964b00" d="M159.78,-115.52C167.27,-102.89 175.49,-89.04 182.98,-76.41"/>
<polygon fill="#964b00" stroke="#964b00" points="156.91,-113.5 154.81,-123.88 162.93,-117.07 156.91,-113.5"/>
<polygon fill="#964b00" stroke="#964b00" points="185.94,-78.29 188.04,-67.9 179.92,-74.72 185.94,-78.29"/>
</g>
</g>
</svg>
