<?xml version="1.0" encoding="UTF-8" standalone="no"?>
<!DOCTYPE svg PUBLIC "-//W3C//DTD SVG 1.1//EN"
 "http://www.w3.org/Graphics/SVG/1.1/DTD/svg11.dtd">
<!-- Generated by graphviz version 14.0.2 (20251019.1705)
 -->
<!-- Title: G Pages: 1 -->
<svg width="157pt" height="75pt"
 viewBox="0.00 0.00 157.00 75.00" xmlns="http://www.w3.org/2000/svg" xmlns:xlink="http://www.w3.org/1999/xlink">
<g id="graph0" class="graph" transform="scale(1 1) rotate(0) translate(4 71)">
<title>G</title>
<polygon fill="#fffafa" stroke="none" points="-4,4 -4,-71 153.05,-71 153.05,4 -4,4"/>
<!-- node_0x6060000009e0 -->
<g id="node1" class="node">
<title>node_0x6060000009e0</title>
<path fill="#a7a7f2" stroke="#964b00" d="M12,-0.5C12,-0.5 137.05,-0.5 137.05,-0.5 143.05,-0.5 149.05,-6.5 149.05,-12.5 149.05,-12.5 149.05,-54.5 149.05,-54.5 149.05,-60.5 143.05,-66.5 137.05,-66.5 137.05,-66.5 12,-66.5 12,-66.5 6,-66.5 0,-60.5 0,-54.5 0,-54.5 0,-12.5 0,-12.5 0,-6.5 6,-0.5 12,-0.5"/>
<text xml:space="preserve" text-anchor="middle" x="74.39" y="-51.3" font-family="Times,serif" font-size="14.00">type = FUNCTION</text>
<polyline fill="none" stroke="#964b00" points="0,-44.5 149.05,-44.5"/>
<text xml:space="preserve" text-anchor="middle" x="74.52" y="-29.3" font-family="Times,serif" font-size="14.00">val = Che_cazzo_check</text>
<polyline fill="none" stroke="#964b00" points="0,-22.5 149.05,-22.5"/>
<text xml:space="preserve" text-anchor="middle" x="37" y="-7.3" font-family="Times,serif" font-size="14.00">0</text>
<polyline fill="none" stroke="#964b00" points="74,-0.5 74,-22.5"/>
<text xml:space="preserve" text-anchor="middle" x="111.5" y="-7.3" font-family="Times,serif" font-size="14.00">0</text>
</g>
</g>
</svg>
