<?xml version="1.0" encoding="UTF-8" standalone="no"?>
<!DOCTYPE svg PUBLIC "-//W3C//DTD SVG 1.1//EN"
 "http://www.w3.org/Graphics/SVG/1.1/DTD/svg11.dtd">
<!-- Generated by graphviz version 14.0.2 (20251019.1705)
 -->
<!-- Title: G Pages: 1 -->
<svg width="132pt" height="75pt"
 viewBox="0.00 0.00 132.00 75.00" xmlns="http://www.w3.org/2000/svg" xmlns:xlink="http://www.w3.org/1999/xlink">
<g id="graph0" class="graph" transform="scale(1 1) rotate(0) translate(4 71)">
<title>G</title>
<polygon fill="#fffafa" stroke="none" points="-4,4 -4,-71 127.72,-71 127.72,4 -4,4"/>
<!-- node_0x6060000018e0 -->
<g id="node1" class="node">
<title>node_0x6060000018e0</title>
<path fill="#daa520" stroke="#964b00" d="M12,-0.5C12,-0.5 111.72,-0.5 111.72,-0.5 117.72,-0.5 123.72,-6.5 123.72,-12.5 123.72,-12.5 123.72,-54.5 123.72,-54.5 123.72,-60.5 117.72,-66.5 111.72,-66.5 111.72,-66.5 12,-66.5 12,-66.5 6,-66.5 0,-60.5 0,-54.5 0,-54.5 0,-12.5 0,-12.5 0,-6.5 6,-0.5 12,-0.5"/>
<text xml:space="preserve" text-anchor="middle" x="61.86" y="-51.3" font-family="Times,serif" font-size="14.00">type = VARIABLE</text>
<polyline fill="none" stroke="#964b00" points="0,-44.5 123.72,-44.5"/>
<text xml:space="preserve" text-anchor="middle" x="61.61" y="-29.3" font-family="Times,serif" font-size="14.00">val = c</text>
<polyline fill="none" stroke="#964b00" points="0,-22.5 123.72,-22.5"/>
<text xml:space="preserve" text-anchor="middle" x="30.5" y="-7.3" font-family="Times,serif" font-size="14.00">0</text>
<polyline fill="none" stroke="#964b00" points="61,-0.5 61,-22.5"/>
<text xml:space="preserve" text-anchor="middle" x="92" y="-7.3" font-family="Times,serif" font-size="14.00">0</text>
</g>
</g>
</svg>
