<?xml version="1.0" encoding="UTF-8" standalone="no"?>
<!DOCTYPE svg PUBLIC "-//W3C//DTD SVG 1.1//EN"
 "http://www.w3.org/Graphics/SVG/1.1/DTD/svg11.dtd">
<!-- Generated by graphviz version 14.0.2 (20251019.1705)
 -->
<!-- Title: G Pages: 1 -->
<svg width="583pt" height="825pt"
 viewBox="0.00 0.00 583.00 825.00" xmlns="http://www.w3.org/2000/svg" xmlns:xlink="http://www.w3.org/1999/xlink">
<g id="graph0" class="graph" transform="scale(1 1) rotate(0) translate(4 821)">
<title>G</title>
<polygon fill="#fffafa" stroke="none" points="-4,4 -4,-821 578.72,-821 578.72,4 -4,4"/>
<!-- node_0x606000002c00 -->
<g id="node1" class="node">
<title>node_0x606000002c00</title>
<path fill="#00ffff" stroke="#964b00" d="M164.31,-750.5C164.31,-750.5 267.41,-750.5 267.41,-750.5 273.41,-750.5 279.41,-756.5 279.41,-762.5 279.41,-762.5 279.41,-804.5 279.41,-804.5 279.41,-810.5 273.41,-816.5 267.41,-816.5 267.41,-816.5 164.31,-816.5 164.31,-816.5 158.31,-816.5 152.31,-810.5 152.31,-804.5 152.31,-804.5 152.31,-762.5 152.31,-762.5 152.31,-756.5 158.31,-750.5 164.31,-750.5"/>
<text xml:space="preserve" text-anchor="middle" x="215.86" y="-801.3" font-family="Times,serif" font-size="14.00">type = OPERATOR</text>
<polyline fill="none" stroke="#964b00" points="152.31,-794.5 279.41,-794.5"/>
<text xml:space="preserve" text-anchor="middle" x="215.65" y="-779.3" font-family="Times,serif" font-size="14.00">val = 18(OP_CFB)</text>
<polyline fill="none" stroke="#964b00" points="152.31,-772.5 279.41,-772.5"/>
<text xml:space="preserve" text-anchor="middle" x="183.59" y="-757.3" font-family="Times,serif" font-size="14.00">L</text>
<polyline fill="none" stroke="#964b00" points="214.86,-750.5 214.86,-772.5"/>
<text xml:space="preserve" text-anchor="middle" x="247.03" y="-757.3" font-family="Times,serif" font-size="14.00">R</text>
</g>
<!-- node_0x606000000d40 -->
<g id="node2" class="node">
<title>node_0x606000000d40</title>
<path fill="#00ffff" stroke="#964b00" d="M157.21,-625.5C157.21,-625.5 274.52,-625.5 274.52,-625.5 280.52,-625.5 286.52,-631.5 286.52,-637.5 286.52,-637.5 286.52,-679.5 286.52,-679.5 286.52,-685.5 280.52,-691.5 274.52,-691.5 274.52,-691.5 157.21,-691.5 157.21,-691.5 151.21,-691.5 145.21,-685.5 145.21,-679.5 145.21,-679.5 145.21,-637.5 145.21,-637.5 145.21,-631.5 151.21,-625.5 157.21,-625.5"/>
<text xml:space="preserve" text-anchor="middle" x="215.75" y="-676.3" font-family="Times,serif" font-size="14.00">type = OPERATOR</text>
<polyline fill="none" stroke="#964b00" points="145.21,-669.5 286.52,-669.5"/>
<text xml:space="preserve" text-anchor="middle" x="215.86" y="-654.3" font-family="Times,serif" font-size="14.00">val = 14(OP_WHILE)</text>
<polyline fill="none" stroke="#964b00" points="145.21,-647.5 286.52,-647.5"/>
<text xml:space="preserve" text-anchor="middle" x="179.98" y="-632.3" font-family="Times,serif" font-size="14.00">L</text>
<polyline fill="none" stroke="#964b00" points="214.76,-625.5 214.76,-647.5"/>
<text xml:space="preserve" text-anchor="middle" x="250.43" y="-632.3" font-family="Times,serif" font-size="14.00">R</text>
</g>
<!-- node_0x606000002c00&#45;&gt;node_0x606000000d40 -->
<g id="edge1" class="edge">
<title>node_0x606000002c00&#45;&gt;node_0x606000000d40</title>
<path fill="none" stroke="#964b00" d="M215.86,-738.7C215.86,-727.05 215.86,-714.47 215.86,-702.84"/>
<polygon fill="#964b00" stroke="#964b00" points="212.36,-738.67 215.86,-748.67 219.36,-738.67 212.36,-738.67"/>
<polygon fill="#964b00" stroke="#964b00" points="219.36,-703.11 215.86,-693.11 212.36,-703.11 219.36,-703.11"/>
</g>
<!-- node_0x606000000e00 -->
<g id="node3" class="node">
<title>node_0x606000000e00</title>
<path fill="#daa520" stroke="#964b00" d="M93,-500.5C93,-500.5 192.72,-500.5 192.72,-500.5 198.72,-500.5 204.72,-506.5 204.72,-512.5 204.72,-512.5 204.72,-554.5 204.72,-554.5 204.72,-560.5 198.72,-566.5 192.72,-566.5 192.72,-566.5 93,-566.5 93,-566.5 87,-566.5 81,-560.5 81,-554.5 81,-554.5 81,-512.5 81,-512.5 81,-506.5 87,-500.5 93,-500.5"/>
<text xml:space="preserve" text-anchor="middle" x="142.86" y="-551.3" font-family="Times,serif" font-size="14.00">type = VARIABLE</text>
<polyline fill="none" stroke="#964b00" points="81,-544.5 204.72,-544.5"/>
<text xml:space="preserve" text-anchor="middle" x="142.77" y="-529.3" font-family="Times,serif" font-size="14.00">val = 0(a)</text>
<polyline fill="none" stroke="#964b00" points="81,-522.5 204.72,-522.5"/>
<text xml:space="preserve" text-anchor="middle" x="111.5" y="-507.3" font-family="Times,serif" font-size="14.00">0</text>
<polyline fill="none" stroke="#964b00" points="142,-500.5 142,-522.5"/>
<text xml:space="preserve" text-anchor="middle" x="173" y="-507.3" font-family="Times,serif" font-size="14.00">0</text>
</g>
<!-- node_0x606000000d40&#45;&gt;node_0x606000000e00 -->
<g id="edge2" class="edge">
<title>node_0x606000000d40&#45;&gt;node_0x606000000e00</title>
<path fill="none" stroke="#964b00" d="M190.94,-615.52C183.45,-602.89 175.23,-589.04 167.74,-576.41"/>
<polygon fill="#964b00" stroke="#964b00" points="187.79,-617.07 195.91,-623.88 193.81,-613.5 187.79,-617.07"/>
<polygon fill="#964b00" stroke="#964b00" points="170.8,-574.72 162.68,-567.9 164.78,-578.29 170.8,-574.72"/>
</g>
<!-- node_0x606000001040 -->
<g id="node4" class="node">
<title>node_0x606000001040</title>
<path fill="#00ffff" stroke="#964b00" d="M238.31,-500.5C238.31,-500.5 341.41,-500.5 341.41,-500.5 347.41,-500.5 353.41,-506.5 353.41,-512.5 353.41,-512.5 353.41,-554.5 353.41,-554.5 353.41,-560.5 347.41,-566.5 341.41,-566.5 341.41,-566.5 238.31,-566.5 238.31,-566.5 232.31,-566.5 226.31,-560.5 226.31,-554.5 226.31,-554.5 226.31,-512.5 226.31,-512.5 226.31,-506.5 232.31,-500.5 238.31,-500.5"/>
<text xml:space="preserve" text-anchor="middle" x="289.86" y="-551.3" font-family="Times,serif" font-size="14.00">type = OPERATOR</text>
<polyline fill="none" stroke="#964b00" points="226.31,-544.5 353.41,-544.5"/>
<text xml:space="preserve" text-anchor="middle" x="289.45" y="-529.3" font-family="Times,serif" font-size="14.00">val = 11(OP_SP)</text>
<polyline fill="none" stroke="#964b00" points="226.31,-522.5 353.41,-522.5"/>
<text xml:space="preserve" text-anchor="middle" x="257.59" y="-507.3" font-family="Times,serif" font-size="14.00">L</text>
<polyline fill="none" stroke="#964b00" points="288.86,-500.5 288.86,-522.5"/>
<text xml:space="preserve" text-anchor="middle" x="321.03" y="-507.3" font-family="Times,serif" font-size="14.00">R</text>
</g>
<!-- node_0x606000000d40&#45;&gt;node_0x606000001040 -->
<g id="edge3" class="edge">
<title>node_0x606000000d40&#45;&gt;node_0x606000001040</title>
<path fill="none" stroke="#964b00" d="M241.12,-615.52C248.72,-602.89 257.05,-589.04 264.64,-576.41"/>
<polygon fill="#964b00" stroke="#964b00" points="238.24,-613.51 236.08,-623.89 244.24,-617.12 238.24,-613.51"/>
<polygon fill="#964b00" stroke="#964b00" points="267.61,-578.27 269.77,-567.9 261.61,-574.66 267.61,-578.27"/>
</g>
<!-- node_0x606000000f80 -->
<g id="node5" class="node">
<title>node_0x606000000f80</title>
<path fill="#00ffff" stroke="#964b00" d="M162.31,-375.5C162.31,-375.5 265.41,-375.5 265.41,-375.5 271.41,-375.5 277.41,-381.5 277.41,-387.5 277.41,-387.5 277.41,-429.5 277.41,-429.5 277.41,-435.5 271.41,-441.5 265.41,-441.5 265.41,-441.5 162.31,-441.5 162.31,-441.5 156.31,-441.5 150.31,-435.5 150.31,-429.5 150.31,-429.5 150.31,-387.5 150.31,-387.5 150.31,-381.5 156.31,-375.5 162.31,-375.5"/>
<text xml:space="preserve" text-anchor="middle" x="213.86" y="-426.3" font-family="Times,serif" font-size="14.00">type = OPERATOR</text>
<polyline fill="none" stroke="#964b00" points="150.31,-419.5 277.41,-419.5"/>
<text xml:space="preserve" text-anchor="middle" x="213.41" y="-404.3" font-family="Times,serif" font-size="14.00">val = 6(OP_INIT)</text>
<polyline fill="none" stroke="#964b00" points="150.31,-397.5 277.41,-397.5"/>
<text xml:space="preserve" text-anchor="middle" x="181.59" y="-382.3" font-family="Times,serif" font-size="14.00">L</text>
<polyline fill="none" stroke="#964b00" points="212.86,-375.5 212.86,-397.5"/>
<text xml:space="preserve" text-anchor="middle" x="245.03" y="-382.3" font-family="Times,serif" font-size="14.00">R</text>
</g>
<!-- node_0x606000001040&#45;&gt;node_0x606000000f80 -->
<g id="edge4" class="edge">
<title>node_0x606000001040&#45;&gt;node_0x606000000f80</title>
<path fill="none" stroke="#964b00" d="M263.92,-490.52C256.04,-477.76 247.39,-463.76 239.53,-451.04"/>
<polygon fill="#964b00" stroke="#964b00" points="260.86,-492.23 269.1,-498.9 266.82,-488.55 260.86,-492.23"/>
<polygon fill="#964b00" stroke="#964b00" points="242.72,-449.56 234.49,-442.89 236.77,-453.24 242.72,-449.56"/>
</g>
<!-- node_0x606000001280 -->
<g id="node8" class="node">
<title>node_0x606000001280</title>
<path fill="#00ffff" stroke="#964b00" d="M313.31,-375.5C313.31,-375.5 416.41,-375.5 416.41,-375.5 422.41,-375.5 428.41,-381.5 428.41,-387.5 428.41,-387.5 428.41,-429.5 428.41,-429.5 428.41,-435.5 422.41,-441.5 416.41,-441.5 416.41,-441.5 313.31,-441.5 313.31,-441.5 307.31,-441.5 301.31,-435.5 301.31,-429.5 301.31,-429.5 301.31,-387.5 301.31,-387.5 301.31,-381.5 307.31,-375.5 313.31,-375.5"/>
<text xml:space="preserve" text-anchor="middle" x="364.86" y="-426.3" font-family="Times,serif" font-size="14.00">type = OPERATOR</text>
<polyline fill="none" stroke="#964b00" points="301.31,-419.5 428.41,-419.5"/>
<text xml:space="preserve" text-anchor="middle" x="364.45" y="-404.3" font-family="Times,serif" font-size="14.00">val = 11(OP_SP)</text>
<polyline fill="none" stroke="#964b00" points="301.31,-397.5 428.41,-397.5"/>
<text xml:space="preserve" text-anchor="middle" x="332.59" y="-382.3" font-family="Times,serif" font-size="14.00">L</text>
<polyline fill="none" stroke="#964b00" points="363.86,-375.5 363.86,-397.5"/>
<text xml:space="preserve" text-anchor="middle" x="396.03" y="-382.3" font-family="Times,serif" font-size="14.00">R</text>
</g>
<!-- node_0x606000001040&#45;&gt;node_0x606000001280 -->
<g id="edge7" class="edge">
<title>node_0x606000001040&#45;&gt;node_0x606000001280</title>
<path fill="none" stroke="#964b00" d="M315.46,-490.52C323.16,-477.89 331.61,-464.04 339.3,-451.41"/>
<polygon fill="#964b00" stroke="#964b00" points="312.57,-488.53 310.35,-498.89 318.55,-492.18 312.57,-488.53"/>
<polygon fill="#964b00" stroke="#964b00" points="342.28,-453.25 344.5,-442.89 336.3,-449.61 342.28,-453.25"/>
</g>
<!-- node_0x606000000f20 -->
<g id="node6" class="node">
<title>node_0x606000000f20</title>
<path fill="#daa520" stroke="#964b00" d="M12,-250.5C12,-250.5 111.72,-250.5 111.72,-250.5 117.72,-250.5 123.72,-256.5 123.72,-262.5 123.72,-262.5 123.72,-304.5 123.72,-304.5 123.72,-310.5 117.72,-316.5 111.72,-316.5 111.72,-316.5 12,-316.5 12,-316.5 6,-316.5 0,-310.5 0,-304.5 0,-304.5 0,-262.5 0,-262.5 0,-256.5 6,-250.5 12,-250.5"/>
<text xml:space="preserve" text-anchor="middle" x="61.86" y="-301.3" font-family="Times,serif" font-size="14.00">type = VARIABLE</text>
<polyline fill="none" stroke="#964b00" points="0,-294.5 123.72,-294.5"/>
<text xml:space="preserve" text-anchor="middle" x="61.77" y="-279.3" font-family="Times,serif" font-size="14.00">val = 4(a)</text>
<polyline fill="none" stroke="#964b00" points="0,-272.5 123.72,-272.5"/>
<text xml:space="preserve" text-anchor="middle" x="30.5" y="-257.3" font-family="Times,serif" font-size="14.00">0</text>
<polyline fill="none" stroke="#964b00" points="61,-250.5 61,-272.5"/>
<text xml:space="preserve" text-anchor="middle" x="92" y="-257.3" font-family="Times,serif" font-size="14.00">0</text>
</g>
<!-- node_0x606000000f80&#45;&gt;node_0x606000000f20 -->
<g id="edge5" class="edge">
<title>node_0x606000000f80&#45;&gt;node_0x606000000f20</title>
<path fill="none" stroke="#964b00" d="M165.07,-368.02C147.67,-353.94 128.08,-338.08 110.67,-324"/>
<polygon fill="#964b00" stroke="#964b00" points="162.77,-370.66 172.75,-374.23 167.18,-365.22 162.77,-370.66"/>
<polygon fill="#964b00" stroke="#964b00" points="112.95,-321.34 102.97,-317.77 108.54,-326.78 112.95,-321.34"/>
</g>
<!-- node_0x606000000fe0 -->
<g id="node7" class="node">
<title>node_0x606000000fe0</title>
<path fill="#98fb98" stroke="#964b00" d="M158.04,-250.5C158.04,-250.5 269.69,-250.5 269.69,-250.5 275.69,-250.5 281.69,-256.5 281.69,-262.5 281.69,-262.5 281.69,-304.5 281.69,-304.5 281.69,-310.5 275.69,-316.5 269.69,-316.5 269.69,-316.5 158.04,-316.5 158.04,-316.5 152.04,-316.5 146.04,-310.5 146.04,-304.5 146.04,-304.5 146.04,-262.5 146.04,-262.5 146.04,-256.5 152.04,-250.5 158.04,-250.5"/>
<text xml:space="preserve" text-anchor="middle" x="213.86" y="-301.3" font-family="Times,serif" font-size="14.00">type = CONST_VAR</text>
<polyline fill="none" stroke="#964b00" points="146.04,-294.5 281.69,-294.5"/>
<text xml:space="preserve" text-anchor="middle" x="213.54" y="-279.3" font-family="Times,serif" font-size="14.00">val = 4</text>
<polyline fill="none" stroke="#964b00" points="146.04,-272.5 281.69,-272.5"/>
<text xml:space="preserve" text-anchor="middle" x="179.54" y="-257.3" font-family="Times,serif" font-size="14.00">0</text>
<polyline fill="none" stroke="#964b00" points="213.04,-250.5 213.04,-272.5"/>
<text xml:space="preserve" text-anchor="middle" x="247.04" y="-257.3" font-family="Times,serif" font-size="14.00">0</text>
</g>
<!-- node_0x606000000f80&#45;&gt;node_0x606000000fe0 -->
<g id="edge6" class="edge">
<title>node_0x606000000f80&#45;&gt;node_0x606000000fe0</title>
<path fill="none" stroke="#964b00" d="M213.86,-363.7C213.86,-352.05 213.86,-339.47 213.86,-327.84"/>
<polygon fill="#964b00" stroke="#964b00" points="210.36,-363.67 213.86,-373.67 217.36,-363.67 210.36,-363.67"/>
<polygon fill="#964b00" stroke="#964b00" points="217.36,-328.11 213.86,-318.11 210.36,-328.11 217.36,-328.11"/>
</g>
<!-- node_0x606000001100 -->
<g id="node9" class="node">
<title>node_0x606000001100</title>
<path fill="#00ffff" stroke="#964b00" d="M315.31,-250.5C315.31,-250.5 418.41,-250.5 418.41,-250.5 424.41,-250.5 430.41,-256.5 430.41,-262.5 430.41,-262.5 430.41,-304.5 430.41,-304.5 430.41,-310.5 424.41,-316.5 418.41,-316.5 418.41,-316.5 315.31,-316.5 315.31,-316.5 309.31,-316.5 303.31,-310.5 303.31,-304.5 303.31,-304.5 303.31,-262.5 303.31,-262.5 303.31,-256.5 309.31,-250.5 315.31,-250.5"/>
<text xml:space="preserve" text-anchor="middle" x="366.86" y="-301.3" font-family="Times,serif" font-size="14.00">type = OPERATOR</text>
<polyline fill="none" stroke="#964b00" points="303.31,-294.5 430.41,-294.5"/>
<text xml:space="preserve" text-anchor="middle" x="366.76" y="-279.3" font-family="Times,serif" font-size="14.00">val = 7(OP_ASS)</text>
<polyline fill="none" stroke="#964b00" points="303.31,-272.5 430.41,-272.5"/>
<text xml:space="preserve" text-anchor="middle" x="334.59" y="-257.3" font-family="Times,serif" font-size="14.00">L</text>
<polyline fill="none" stroke="#964b00" points="365.86,-250.5 365.86,-272.5"/>
<text xml:space="preserve" text-anchor="middle" x="398.03" y="-257.3" font-family="Times,serif" font-size="14.00">R</text>
</g>
<!-- node_0x606000001280&#45;&gt;node_0x606000001100 -->
<g id="edge8" class="edge">
<title>node_0x606000001280&#45;&gt;node_0x606000001100</title>
<path fill="none" stroke="#964b00" d="M365.57,-363.7C365.76,-352.05 365.97,-339.47 366.16,-327.84"/>
<polygon fill="#964b00" stroke="#964b00" points="362.07,-363.61 365.41,-373.67 369.07,-363.73 362.07,-363.61"/>
<polygon fill="#964b00" stroke="#964b00" points="369.65,-328.17 366.31,-318.11 362.65,-328.06 369.65,-328.17"/>
</g>
<!-- node_0x6060000010a0 -->
<g id="node10" class="node">
<title>node_0x6060000010a0</title>
<path fill="#daa520" stroke="#964b00" d="M243,-125.5C243,-125.5 342.72,-125.5 342.72,-125.5 348.72,-125.5 354.72,-131.5 354.72,-137.5 354.72,-137.5 354.72,-179.5 354.72,-179.5 354.72,-185.5 348.72,-191.5 342.72,-191.5 342.72,-191.5 243,-191.5 243,-191.5 237,-191.5 231,-185.5 231,-179.5 231,-179.5 231,-137.5 231,-137.5 231,-131.5 237,-125.5 243,-125.5"/>
<text xml:space="preserve" text-anchor="middle" x="292.86" y="-176.3" font-family="Times,serif" font-size="14.00">type = VARIABLE</text>
<polyline fill="none" stroke="#964b00" points="231,-169.5 354.72,-169.5"/>
<text xml:space="preserve" text-anchor="middle" x="292.77" y="-154.3" font-family="Times,serif" font-size="14.00">val = 4(a)</text>
<polyline fill="none" stroke="#964b00" points="231,-147.5 354.72,-147.5"/>
<text xml:space="preserve" text-anchor="middle" x="261.5" y="-132.3" font-family="Times,serif" font-size="14.00">0</text>
<polyline fill="none" stroke="#964b00" points="292,-125.5 292,-147.5"/>
<text xml:space="preserve" text-anchor="middle" x="323" y="-132.3" font-family="Times,serif" font-size="14.00">0</text>
</g>
<!-- node_0x606000001100&#45;&gt;node_0x6060000010a0 -->
<g id="edge9" class="edge">
<title>node_0x606000001100&#45;&gt;node_0x6060000010a0</title>
<path fill="none" stroke="#964b00" d="M341.6,-240.52C334.01,-227.89 325.67,-214.04 318.08,-201.41"/>
<polygon fill="#964b00" stroke="#964b00" points="338.48,-242.12 346.64,-248.89 344.48,-238.51 338.48,-242.12"/>
<polygon fill="#964b00" stroke="#964b00" points="321.11,-199.66 312.95,-192.9 315.11,-203.27 321.11,-199.66"/>
</g>
<!-- node_0x6060000011c0 -->
<g id="node11" class="node">
<title>node_0x6060000011c0</title>
<path fill="#00ffff" stroke="#964b00" d="M388.31,-125.5C388.31,-125.5 491.41,-125.5 491.41,-125.5 497.41,-125.5 503.41,-131.5 503.41,-137.5 503.41,-137.5 503.41,-179.5 503.41,-179.5 503.41,-185.5 497.41,-191.5 491.41,-191.5 491.41,-191.5 388.31,-191.5 388.31,-191.5 382.31,-191.5 376.31,-185.5 376.31,-179.5 376.31,-179.5 376.31,-137.5 376.31,-137.5 376.31,-131.5 382.31,-125.5 388.31,-125.5"/>
<text xml:space="preserve" text-anchor="middle" x="439.86" y="-176.3" font-family="Times,serif" font-size="14.00">type = OPERATOR</text>
<polyline fill="none" stroke="#964b00" points="376.31,-169.5 503.41,-169.5"/>
<text xml:space="preserve" text-anchor="middle" x="439.59" y="-154.3" font-family="Times,serif" font-size="14.00">val = 1(OP_ADD)</text>
<polyline fill="none" stroke="#964b00" points="376.31,-147.5 503.41,-147.5"/>
<text xml:space="preserve" text-anchor="middle" x="407.59" y="-132.3" font-family="Times,serif" font-size="14.00">L</text>
<polyline fill="none" stroke="#964b00" points="438.86,-125.5 438.86,-147.5"/>
<text xml:space="preserve" text-anchor="middle" x="471.03" y="-132.3" font-family="Times,serif" font-size="14.00">R</text>
</g>
<!-- node_0x606000001100&#45;&gt;node_0x6060000011c0 -->
<g id="edge10" class="edge">
<title>node_0x606000001100&#45;&gt;node_0x6060000011c0</title>
<path fill="none" stroke="#964b00" d="M391.78,-240.52C399.27,-227.89 407.49,-214.04 414.98,-201.41"/>
<polygon fill="#964b00" stroke="#964b00" points="388.91,-238.5 386.81,-248.88 394.93,-242.07 388.91,-238.5"/>
<polygon fill="#964b00" stroke="#964b00" points="417.94,-203.29 420.04,-192.9 411.92,-199.72 417.94,-203.29"/>
</g>
<!-- node_0x606000001160 -->
<g id="node12" class="node">
<title>node_0x606000001160</title>
<path fill="#daa520" stroke="#964b00" d="M317,-0.5C317,-0.5 416.72,-0.5 416.72,-0.5 422.72,-0.5 428.72,-6.5 428.72,-12.5 428.72,-12.5 428.72,-54.5 428.72,-54.5 428.72,-60.5 422.72,-66.5 416.72,-66.5 416.72,-66.5 317,-66.5 317,-66.5 311,-66.5 305,-60.5 305,-54.5 305,-54.5 305,-12.5 305,-12.5 305,-6.5 311,-0.5 317,-0.5"/>
<text xml:space="preserve" text-anchor="middle" x="366.86" y="-51.3" font-family="Times,serif" font-size="14.00">type = VARIABLE</text>
<polyline fill="none" stroke="#964b00" points="305,-44.5 428.72,-44.5"/>
<text xml:space="preserve" text-anchor="middle" x="366.77" y="-29.3" font-family="Times,serif" font-size="14.00">val = 4(a)</text>
<polyline fill="none" stroke="#964b00" points="305,-22.5 428.72,-22.5"/>
<text xml:space="preserve" text-anchor="middle" x="335.5" y="-7.3" font-family="Times,serif" font-size="14.00">0</text>
<polyline fill="none" stroke="#964b00" points="366,-0.5 366,-22.5"/>
<text xml:space="preserve" text-anchor="middle" x="397" y="-7.3" font-family="Times,serif" font-size="14.00">0</text>
</g>
<!-- node_0x6060000011c0&#45;&gt;node_0x606000001160 -->
<g id="edge11" class="edge">
<title>node_0x6060000011c0&#45;&gt;node_0x606000001160</title>
<path fill="none" stroke="#964b00" d="M414.94,-115.52C407.45,-102.89 399.23,-89.04 391.74,-76.41"/>
<polygon fill="#964b00" stroke="#964b00" points="411.79,-117.07 419.91,-123.88 417.81,-113.5 411.79,-117.07"/>
<polygon fill="#964b00" stroke="#964b00" points="394.8,-74.72 386.68,-67.9 388.78,-78.29 394.8,-74.72"/>
</g>
<!-- node_0x606000001220 -->
<g id="node13" class="node">
<title>node_0x606000001220</title>
<path fill="#daa520" stroke="#964b00" d="M463,-0.5C463,-0.5 562.72,-0.5 562.72,-0.5 568.72,-0.5 574.72,-6.5 574.72,-12.5 574.72,-12.5 574.72,-54.5 574.72,-54.5 574.72,-60.5 568.72,-66.5 562.72,-66.5 562.72,-66.5 463,-66.5 463,-66.5 457,-66.5 451,-60.5 451,-54.5 451,-54.5 451,-12.5 451,-12.5 451,-6.5 457,-0.5 463,-0.5"/>
<text xml:space="preserve" text-anchor="middle" x="512.86" y="-51.3" font-family="Times,serif" font-size="14.00">type = VARIABLE</text>
<polyline fill="none" stroke="#964b00" points="451,-44.5 574.72,-44.5"/>
<text xml:space="preserve" text-anchor="middle" x="512.77" y="-29.3" font-family="Times,serif" font-size="14.00">val = 2(c)</text>
<polyline fill="none" stroke="#964b00" points="451,-22.5 574.72,-22.5"/>
<text xml:space="preserve" text-anchor="middle" x="481.5" y="-7.3" font-family="Times,serif" font-size="14.00">0</text>
<polyline fill="none" stroke="#964b00" points="512,-0.5 512,-22.5"/>
<text xml:space="preserve" text-anchor="middle" x="543" y="-7.3" font-family="Times,serif" font-size="14.00">0</text>
</g>
<!-- node_0x6060000011c0&#45;&gt;node_0x606000001220 -->
<g id="edge12" class="edge">
<title>node_0x6060000011c0&#45;&gt;node_0x606000001220</title>
<path fill="none" stroke="#964b00" d="M464.78,-115.52C472.27,-102.89 480.49,-89.04 487.98,-76.41"/>
<polygon fill="#964b00" stroke="#964b00" points="461.91,-113.5 459.81,-123.88 467.93,-117.07 461.91,-113.5"/>
<polygon fill="#964b00" stroke="#964b00" points="490.94,-78.29 493.04,-67.9 484.92,-74.72 490.94,-78.29"/>
</g>
</g>
</svg>
