<?xml version="1.0" encoding="UTF-8" standalone="no"?>
<!DOCTYPE svg PUBLIC "-//W3C//DTD SVG 1.1//EN"
 "http://www.w3.org/Graphics/SVG/1.1/DTD/svg11.dtd">
<!-- Generated by graphviz version 14.0.2 (20251019.1705)
 -->
<!-- Title: G Pages: 1 -->
<svg width="577pt" height="700pt"
 viewBox="0.00 0.00 577.00 700.00" xmlns="http://www.w3.org/2000/svg" xmlns:xlink="http://www.w3.org/1999/xlink">
<g id="graph0" class="graph" transform="scale(1 1) rotate(0) translate(4 696)">
<title>G</title>
<polygon fill="#fffafa" stroke="none" points="-4,4 -4,-696 572.72,-696 572.72,4 -4,4"/>
<!-- node_0x606000002de0 -->
<g id="node1" class="node">
<title>node_0x606000002de0</title>
<path fill="#00ffff" stroke="#964b00" d="M233.31,-625.5C233.31,-625.5 336.41,-625.5 336.41,-625.5 342.41,-625.5 348.41,-631.5 348.41,-637.5 348.41,-637.5 348.41,-679.5 348.41,-679.5 348.41,-685.5 342.41,-691.5 336.41,-691.5 336.41,-691.5 233.31,-691.5 233.31,-691.5 227.31,-691.5 221.31,-685.5 221.31,-679.5 221.31,-679.5 221.31,-637.5 221.31,-637.5 221.31,-631.5 227.31,-625.5 233.31,-625.5"/>
<text xml:space="preserve" text-anchor="middle" x="284.86" y="-676.3" font-family="Times,serif" font-size="14.00">type = OPERATOR</text>
<polyline fill="none" stroke="#964b00" points="221.31,-669.5 348.41,-669.5"/>
<text xml:space="preserve" text-anchor="middle" x="284.65" y="-654.3" font-family="Times,serif" font-size="14.00">val = 18(OP_CFB)</text>
<polyline fill="none" stroke="#964b00" points="221.31,-647.5 348.41,-647.5"/>
<text xml:space="preserve" text-anchor="middle" x="252.59" y="-632.3" font-family="Times,serif" font-size="14.00">L</text>
<polyline fill="none" stroke="#964b00" points="283.86,-625.5 283.86,-647.5"/>
<text xml:space="preserve" text-anchor="middle" x="316.03" y="-632.3" font-family="Times,serif" font-size="14.00">R</text>
</g>
<!-- node_0x606000002120 -->
<g id="node2" class="node">
<title>node_0x606000002120</title>
<path fill="#a7a7f2" stroke="#964b00" d="M222.34,-500.5C222.34,-500.5 347.38,-500.5 347.38,-500.5 353.38,-500.5 359.38,-506.5 359.38,-512.5 359.38,-512.5 359.38,-554.5 359.38,-554.5 359.38,-560.5 353.38,-566.5 347.38,-566.5 347.38,-566.5 222.34,-566.5 222.34,-566.5 216.34,-566.5 210.34,-560.5 210.34,-554.5 210.34,-554.5 210.34,-512.5 210.34,-512.5 210.34,-506.5 216.34,-500.5 222.34,-500.5"/>
<text xml:space="preserve" text-anchor="middle" x="284.73" y="-551.3" font-family="Times,serif" font-size="14.00">type = FUNCTION</text>
<polyline fill="none" stroke="#964b00" points="210.34,-544.5 359.38,-544.5"/>
<text xml:space="preserve" text-anchor="middle" x="284.86" y="-529.3" font-family="Times,serif" font-size="14.00">val = Che_cazzo_check</text>
<polyline fill="none" stroke="#964b00" points="210.34,-522.5 359.38,-522.5"/>
<text xml:space="preserve" text-anchor="middle" x="247.34" y="-507.3" font-family="Times,serif" font-size="14.00">0</text>
<polyline fill="none" stroke="#964b00" points="284.34,-500.5 284.34,-522.5"/>
<text xml:space="preserve" text-anchor="middle" x="321.84" y="-507.3" font-family="Times,serif" font-size="14.00">0</text>
</g>
<!-- node_0x606000002de0&#45;&gt;node_0x606000002120 -->
<g id="edge1" class="edge">
<title>node_0x606000002de0&#45;&gt;node_0x606000002120</title>
<path fill="none" stroke="#964b00" d="M284.86,-613.7C284.86,-602.05 284.86,-589.47 284.86,-577.84"/>
<polygon fill="#964b00" stroke="#964b00" points="281.36,-613.67 284.86,-623.67 288.36,-613.67 281.36,-613.67"/>
<polygon fill="#964b00" stroke="#964b00" points="288.36,-578.11 284.86,-568.11 281.36,-578.11 288.36,-578.11"/>
</g>
<!-- node_0x606000002240 -->
<g id="node3" class="node">
<title>node_0x606000002240</title>
<path fill="#00ffff" stroke="#964b00" d="M157.8,-375.5C157.8,-375.5 261.92,-375.5 261.92,-375.5 267.92,-375.5 273.92,-381.5 273.92,-387.5 273.92,-387.5 273.92,-429.5 273.92,-429.5 273.92,-435.5 267.92,-441.5 261.92,-441.5 261.92,-441.5 157.8,-441.5 157.8,-441.5 151.8,-441.5 145.8,-435.5 145.8,-429.5 145.8,-429.5 145.8,-387.5 145.8,-387.5 145.8,-381.5 151.8,-375.5 157.8,-375.5"/>
<text xml:space="preserve" text-anchor="middle" x="209.85" y="-426.3" font-family="Times,serif" font-size="14.00">type = OPERATOR</text>
<polyline fill="none" stroke="#964b00" points="145.8,-419.5 273.92,-419.5"/>
<text xml:space="preserve" text-anchor="middle" x="209.86" y="-404.3" font-family="Times,serif" font-size="14.00">val = 19(OP_COM)</text>
<polyline fill="none" stroke="#964b00" points="145.8,-397.5 273.92,-397.5"/>
<text xml:space="preserve" text-anchor="middle" x="177.58" y="-382.3" font-family="Times,serif" font-size="14.00">L</text>
<polyline fill="none" stroke="#964b00" points="209.35,-375.5 209.35,-397.5"/>
<text xml:space="preserve" text-anchor="middle" x="241.52" y="-382.3" font-family="Times,serif" font-size="14.00">R</text>
</g>
<!-- node_0x606000002120&#45;&gt;node_0x606000002240 -->
<g id="edge2" class="edge">
<title>node_0x606000002120&#45;&gt;node_0x606000002240</title>
<path fill="none" stroke="#964b00" d="M259.26,-490.52C251.56,-477.89 243.11,-464.04 235.42,-451.41"/>
<polygon fill="#964b00" stroke="#964b00" points="256.17,-492.18 264.37,-498.89 262.15,-488.53 256.17,-492.18"/>
<polygon fill="#964b00" stroke="#964b00" points="238.42,-449.61 230.22,-442.89 232.44,-453.25 238.42,-449.61"/>
</g>
<!-- node_0x606000002480 -->
<g id="node9" class="node">
<title>node_0x606000002480</title>
<path fill="#00ffff" stroke="#964b00" d="M308.31,-375.5C308.31,-375.5 411.41,-375.5 411.41,-375.5 417.41,-375.5 423.41,-381.5 423.41,-387.5 423.41,-387.5 423.41,-429.5 423.41,-429.5 423.41,-435.5 417.41,-441.5 411.41,-441.5 411.41,-441.5 308.31,-441.5 308.31,-441.5 302.31,-441.5 296.31,-435.5 296.31,-429.5 296.31,-429.5 296.31,-387.5 296.31,-387.5 296.31,-381.5 302.31,-375.5 308.31,-375.5"/>
<text xml:space="preserve" text-anchor="middle" x="359.86" y="-426.3" font-family="Times,serif" font-size="14.00">type = OPERATOR</text>
<polyline fill="none" stroke="#964b00" points="296.31,-419.5 423.41,-419.5"/>
<text xml:space="preserve" text-anchor="middle" x="359.64" y="-404.3" font-family="Times,serif" font-size="14.00">val = 20(OP_RET)</text>
<polyline fill="none" stroke="#964b00" points="296.31,-397.5 423.41,-397.5"/>
<text xml:space="preserve" text-anchor="middle" x="327.59" y="-382.3" font-family="Times,serif" font-size="14.00">L</text>
<polyline fill="none" stroke="#964b00" points="358.86,-375.5 358.86,-397.5"/>
<text xml:space="preserve" text-anchor="middle" x="391.03" y="-382.3" font-family="Times,serif" font-size="14.00">R</text>
</g>
<!-- node_0x606000002120&#45;&gt;node_0x606000002480 -->
<g id="edge8" class="edge">
<title>node_0x606000002120&#45;&gt;node_0x606000002480</title>
<path fill="none" stroke="#964b00" d="M310.46,-490.52C318.16,-477.89 326.61,-464.04 334.3,-451.41"/>
<polygon fill="#964b00" stroke="#964b00" points="307.57,-488.53 305.35,-498.89 313.55,-492.18 307.57,-488.53"/>
<polygon fill="#964b00" stroke="#964b00" points="337.28,-453.25 339.5,-442.89 331.3,-449.61 337.28,-453.25"/>
</g>
<!-- node_0x6060000021e0 -->
<g id="node4" class="node">
<title>node_0x6060000021e0</title>
<path fill="#daa520" stroke="#964b00" d="M12,-250.5C12,-250.5 111.72,-250.5 111.72,-250.5 117.72,-250.5 123.72,-256.5 123.72,-262.5 123.72,-262.5 123.72,-304.5 123.72,-304.5 123.72,-310.5 117.72,-316.5 111.72,-316.5 111.72,-316.5 12,-316.5 12,-316.5 6,-316.5 0,-310.5 0,-304.5 0,-304.5 0,-262.5 0,-262.5 0,-256.5 6,-250.5 12,-250.5"/>
<text xml:space="preserve" text-anchor="middle" x="61.86" y="-301.3" font-family="Times,serif" font-size="14.00">type = VARIABLE</text>
<polyline fill="none" stroke="#964b00" points="0,-294.5 123.72,-294.5"/>
<text xml:space="preserve" text-anchor="middle" x="61.61" y="-279.3" font-family="Times,serif" font-size="14.00">val = 0(m)</text>
<polyline fill="none" stroke="#964b00" points="0,-272.5 123.72,-272.5"/>
<text xml:space="preserve" text-anchor="middle" x="30.5" y="-257.3" font-family="Times,serif" font-size="14.00">0</text>
<polyline fill="none" stroke="#964b00" points="61,-250.5 61,-272.5"/>
<text xml:space="preserve" text-anchor="middle" x="92" y="-257.3" font-family="Times,serif" font-size="14.00">0</text>
</g>
<!-- node_0x606000002240&#45;&gt;node_0x6060000021e0 -->
<g id="edge3" class="edge">
<title>node_0x606000002240&#45;&gt;node_0x6060000021e0</title>
<path fill="none" stroke="#964b00" d="M162.36,-368.02C145.41,-353.94 126.33,-338.08 109.39,-324"/>
<polygon fill="#964b00" stroke="#964b00" points="159.88,-370.52 169.81,-374.22 164.36,-365.13 159.88,-370.52"/>
<polygon fill="#964b00" stroke="#964b00" points="111.83,-321.48 101.91,-317.78 107.36,-326.87 111.83,-321.48"/>
</g>
<!-- node_0x606000002300 -->
<g id="node5" class="node">
<title>node_0x606000002300</title>
<path fill="#00ffff" stroke="#964b00" d="M157.8,-250.5C157.8,-250.5 261.92,-250.5 261.92,-250.5 267.92,-250.5 273.92,-256.5 273.92,-262.5 273.92,-262.5 273.92,-304.5 273.92,-304.5 273.92,-310.5 267.92,-316.5 261.92,-316.5 261.92,-316.5 157.8,-316.5 157.8,-316.5 151.8,-316.5 145.8,-310.5 145.8,-304.5 145.8,-304.5 145.8,-262.5 145.8,-262.5 145.8,-256.5 151.8,-250.5 157.8,-250.5"/>
<text xml:space="preserve" text-anchor="middle" x="209.85" y="-301.3" font-family="Times,serif" font-size="14.00">type = OPERATOR</text>
<polyline fill="none" stroke="#964b00" points="145.8,-294.5 273.92,-294.5"/>
<text xml:space="preserve" text-anchor="middle" x="209.86" y="-279.3" font-family="Times,serif" font-size="14.00">val = 19(OP_COM)</text>
<polyline fill="none" stroke="#964b00" points="145.8,-272.5 273.92,-272.5"/>
<text xml:space="preserve" text-anchor="middle" x="177.58" y="-257.3" font-family="Times,serif" font-size="14.00">L</text>
<polyline fill="none" stroke="#964b00" points="209.35,-250.5 209.35,-272.5"/>
<text xml:space="preserve" text-anchor="middle" x="241.52" y="-257.3" font-family="Times,serif" font-size="14.00">R</text>
</g>
<!-- node_0x606000002240&#45;&gt;node_0x606000002300 -->
<g id="edge4" class="edge">
<title>node_0x606000002240&#45;&gt;node_0x606000002300</title>
<path fill="none" stroke="#964b00" d="M209.86,-363.7C209.86,-352.05 209.86,-339.47 209.86,-327.84"/>
<polygon fill="#964b00" stroke="#964b00" points="206.36,-363.67 209.86,-373.67 213.36,-363.67 206.36,-363.67"/>
<polygon fill="#964b00" stroke="#964b00" points="213.36,-328.11 209.86,-318.11 206.36,-328.11 213.36,-328.11"/>
</g>
<!-- node_0x6060000022a0 -->
<g id="node6" class="node">
<title>node_0x6060000022a0</title>
<path fill="#daa520" stroke="#964b00" d="M12,-125.5C12,-125.5 111.72,-125.5 111.72,-125.5 117.72,-125.5 123.72,-131.5 123.72,-137.5 123.72,-137.5 123.72,-179.5 123.72,-179.5 123.72,-185.5 117.72,-191.5 111.72,-191.5 111.72,-191.5 12,-191.5 12,-191.5 6,-191.5 0,-185.5 0,-179.5 0,-179.5 0,-137.5 0,-137.5 0,-131.5 6,-125.5 12,-125.5"/>
<text xml:space="preserve" text-anchor="middle" x="61.86" y="-176.3" font-family="Times,serif" font-size="14.00">type = VARIABLE</text>
<polyline fill="none" stroke="#964b00" points="0,-169.5 123.72,-169.5"/>
<text xml:space="preserve" text-anchor="middle" x="61.66" y="-154.3" font-family="Times,serif" font-size="14.00">val = 1(p)</text>
<polyline fill="none" stroke="#964b00" points="0,-147.5 123.72,-147.5"/>
<text xml:space="preserve" text-anchor="middle" x="30.5" y="-132.3" font-family="Times,serif" font-size="14.00">0</text>
<polyline fill="none" stroke="#964b00" points="61,-125.5 61,-147.5"/>
<text xml:space="preserve" text-anchor="middle" x="92" y="-132.3" font-family="Times,serif" font-size="14.00">0</text>
</g>
<!-- node_0x606000002300&#45;&gt;node_0x6060000022a0 -->
<g id="edge5" class="edge">
<title>node_0x606000002300&#45;&gt;node_0x6060000022a0</title>
<path fill="none" stroke="#964b00" d="M162.36,-243.02C145.41,-228.94 126.33,-213.08 109.39,-199"/>
<polygon fill="#964b00" stroke="#964b00" points="159.88,-245.52 169.81,-249.22 164.36,-240.13 159.88,-245.52"/>
<polygon fill="#964b00" stroke="#964b00" points="111.83,-196.48 101.91,-192.78 107.36,-201.87 111.83,-196.48"/>
</g>
<!-- node_0x606000002d80 -->
<g id="node7" class="node">
<title>node_0x606000002d80</title>
<path fill="#00ffff" stroke="#964b00" d="M157.8,-125.5C157.8,-125.5 261.92,-125.5 261.92,-125.5 267.92,-125.5 273.92,-131.5 273.92,-137.5 273.92,-137.5 273.92,-179.5 273.92,-179.5 273.92,-185.5 267.92,-191.5 261.92,-191.5 261.92,-191.5 157.8,-191.5 157.8,-191.5 151.8,-191.5 145.8,-185.5 145.8,-179.5 145.8,-179.5 145.8,-137.5 145.8,-137.5 145.8,-131.5 151.8,-125.5 157.8,-125.5"/>
<text xml:space="preserve" text-anchor="middle" x="209.85" y="-176.3" font-family="Times,serif" font-size="14.00">type = OPERATOR</text>
<polyline fill="none" stroke="#964b00" points="145.8,-169.5 273.92,-169.5"/>
<text xml:space="preserve" text-anchor="middle" x="209.86" y="-154.3" font-family="Times,serif" font-size="14.00">val = 19(OP_COM)</text>
<polyline fill="none" stroke="#964b00" points="145.8,-147.5 273.92,-147.5"/>
<text xml:space="preserve" text-anchor="middle" x="177.58" y="-132.3" font-family="Times,serif" font-size="14.00">L</text>
<polyline fill="none" stroke="#964b00" points="209.35,-125.5 209.35,-147.5"/>
<text xml:space="preserve" text-anchor="middle" x="241.52" y="-132.3" font-family="Times,serif" font-size="14.00">R</text>
</g>
<!-- node_0x606000002300&#45;&gt;node_0x606000002d80 -->
<g id="edge6" class="edge">
<title>node_0x606000002300&#45;&gt;node_0x606000002d80</title>
<path fill="none" stroke="#964b00" d="M209.86,-238.7C209.86,-227.05 209.86,-214.47 209.86,-202.84"/>
<polygon fill="#964b00" stroke="#964b00" points="206.36,-238.67 209.86,-248.67 213.36,-238.67 206.36,-238.67"/>
<polygon fill="#964b00" stroke="#964b00" points="213.36,-203.11 209.86,-193.11 206.36,-203.11 213.36,-203.11"/>
</g>
<!-- node_0x606000002360 -->
<g id="node8" class="node">
<title>node_0x606000002360</title>
<path fill="#daa520" stroke="#964b00" d="M160,-0.5C160,-0.5 259.72,-0.5 259.72,-0.5 265.72,-0.5 271.72,-6.5 271.72,-12.5 271.72,-12.5 271.72,-54.5 271.72,-54.5 271.72,-60.5 265.72,-66.5 259.72,-66.5 259.72,-66.5 160,-66.5 160,-66.5 154,-66.5 148,-60.5 148,-54.5 148,-54.5 148,-12.5 148,-12.5 148,-6.5 154,-0.5 160,-0.5"/>
<text xml:space="preserve" text-anchor="middle" x="209.86" y="-51.3" font-family="Times,serif" font-size="14.00">type = VARIABLE</text>
<polyline fill="none" stroke="#964b00" points="148,-44.5 271.72,-44.5"/>
<text xml:space="preserve" text-anchor="middle" x="209.66" y="-29.3" font-family="Times,serif" font-size="14.00">val = 2(k)</text>
<polyline fill="none" stroke="#964b00" points="148,-22.5 271.72,-22.5"/>
<text xml:space="preserve" text-anchor="middle" x="178.5" y="-7.3" font-family="Times,serif" font-size="14.00">0</text>
<polyline fill="none" stroke="#964b00" points="209,-0.5 209,-22.5"/>
<text xml:space="preserve" text-anchor="middle" x="240" y="-7.3" font-family="Times,serif" font-size="14.00">0</text>
</g>
<!-- node_0x606000002d80&#45;&gt;node_0x606000002360 -->
<g id="edge7" class="edge">
<title>node_0x606000002d80&#45;&gt;node_0x606000002360</title>
<path fill="none" stroke="#964b00" d="M209.86,-113.7C209.86,-102.05 209.86,-89.47 209.86,-77.84"/>
<polygon fill="#964b00" stroke="#964b00" points="206.36,-113.67 209.86,-123.67 213.36,-113.67 206.36,-113.67"/>
<polygon fill="#964b00" stroke="#964b00" points="213.36,-78.11 209.86,-68.11 206.36,-78.11 213.36,-78.11"/>
</g>
<!-- node_0x606000002600 -->
<g id="node10" class="node">
<title>node_0x606000002600</title>
<path fill="#00ffff" stroke="#964b00" d="M308.31,-250.5C308.31,-250.5 411.41,-250.5 411.41,-250.5 417.41,-250.5 423.41,-256.5 423.41,-262.5 423.41,-262.5 423.41,-304.5 423.41,-304.5 423.41,-310.5 417.41,-316.5 411.41,-316.5 411.41,-316.5 308.31,-316.5 308.31,-316.5 302.31,-316.5 296.31,-310.5 296.31,-304.5 296.31,-304.5 296.31,-262.5 296.31,-262.5 296.31,-256.5 302.31,-250.5 308.31,-250.5"/>
<text xml:space="preserve" text-anchor="middle" x="359.86" y="-301.3" font-family="Times,serif" font-size="14.00">type = OPERATOR</text>
<polyline fill="none" stroke="#964b00" points="296.31,-294.5 423.41,-294.5"/>
<text xml:space="preserve" text-anchor="middle" x="359.59" y="-279.3" font-family="Times,serif" font-size="14.00">val = 1(OP_ADD)</text>
<polyline fill="none" stroke="#964b00" points="296.31,-272.5 423.41,-272.5"/>
<text xml:space="preserve" text-anchor="middle" x="327.59" y="-257.3" font-family="Times,serif" font-size="14.00">L</text>
<polyline fill="none" stroke="#964b00" points="358.86,-250.5 358.86,-272.5"/>
<text xml:space="preserve" text-anchor="middle" x="391.03" y="-257.3" font-family="Times,serif" font-size="14.00">R</text>
</g>
<!-- node_0x606000002480&#45;&gt;node_0x606000002600 -->
<g id="edge9" class="edge">
<title>node_0x606000002480&#45;&gt;node_0x606000002600</title>
<path fill="none" stroke="#964b00" d="M359.86,-363.7C359.86,-352.05 359.86,-339.47 359.86,-327.84"/>
<polygon fill="#964b00" stroke="#964b00" points="356.36,-363.67 359.86,-373.67 363.36,-363.67 356.36,-363.67"/>
<polygon fill="#964b00" stroke="#964b00" points="363.36,-328.11 359.86,-318.11 356.36,-328.11 363.36,-328.11"/>
</g>
<!-- node_0x606000002540 -->
<g id="node11" class="node">
<title>node_0x606000002540</title>
<path fill="#00ffff" stroke="#964b00" d="M308.31,-125.5C308.31,-125.5 411.41,-125.5 411.41,-125.5 417.41,-125.5 423.41,-131.5 423.41,-137.5 423.41,-137.5 423.41,-179.5 423.41,-179.5 423.41,-185.5 417.41,-191.5 411.41,-191.5 411.41,-191.5 308.31,-191.5 308.31,-191.5 302.31,-191.5 296.31,-185.5 296.31,-179.5 296.31,-179.5 296.31,-137.5 296.31,-137.5 296.31,-131.5 302.31,-125.5 308.31,-125.5"/>
<text xml:space="preserve" text-anchor="middle" x="359.86" y="-176.3" font-family="Times,serif" font-size="14.00">type = OPERATOR</text>
<polyline fill="none" stroke="#964b00" points="296.31,-169.5 423.41,-169.5"/>
<text xml:space="preserve" text-anchor="middle" x="359.59" y="-154.3" font-family="Times,serif" font-size="14.00">val = 1(OP_ADD)</text>
<polyline fill="none" stroke="#964b00" points="296.31,-147.5 423.41,-147.5"/>
<text xml:space="preserve" text-anchor="middle" x="327.59" y="-132.3" font-family="Times,serif" font-size="14.00">L</text>
<polyline fill="none" stroke="#964b00" points="358.86,-125.5 358.86,-147.5"/>
<text xml:space="preserve" text-anchor="middle" x="391.03" y="-132.3" font-family="Times,serif" font-size="14.00">R</text>
</g>
<!-- node_0x606000002600&#45;&gt;node_0x606000002540 -->
<g id="edge10" class="edge">
<title>node_0x606000002600&#45;&gt;node_0x606000002540</title>
<path fill="none" stroke="#964b00" d="M359.86,-238.7C359.86,-227.05 359.86,-214.47 359.86,-202.84"/>
<polygon fill="#964b00" stroke="#964b00" points="356.36,-238.67 359.86,-248.67 363.36,-238.67 356.36,-238.67"/>
<polygon fill="#964b00" stroke="#964b00" points="363.36,-203.11 359.86,-193.11 356.36,-203.11 363.36,-203.11"/>
</g>
<!-- node_0x606000002660 -->
<g id="node14" class="node">
<title>node_0x606000002660</title>
<path fill="#daa520" stroke="#964b00" d="M457,-125.5C457,-125.5 556.72,-125.5 556.72,-125.5 562.72,-125.5 568.72,-131.5 568.72,-137.5 568.72,-137.5 568.72,-179.5 568.72,-179.5 568.72,-185.5 562.72,-191.5 556.72,-191.5 556.72,-191.5 457,-191.5 457,-191.5 451,-191.5 445,-185.5 445,-179.5 445,-179.5 445,-137.5 445,-137.5 445,-131.5 451,-125.5 457,-125.5"/>
<text xml:space="preserve" text-anchor="middle" x="506.86" y="-176.3" font-family="Times,serif" font-size="14.00">type = VARIABLE</text>
<polyline fill="none" stroke="#964b00" points="445,-169.5 568.72,-169.5"/>
<text xml:space="preserve" text-anchor="middle" x="506.66" y="-154.3" font-family="Times,serif" font-size="14.00">val = 2(k)</text>
<polyline fill="none" stroke="#964b00" points="445,-147.5 568.72,-147.5"/>
<text xml:space="preserve" text-anchor="middle" x="475.5" y="-132.3" font-family="Times,serif" font-size="14.00">0</text>
<polyline fill="none" stroke="#964b00" points="506,-125.5 506,-147.5"/>
<text xml:space="preserve" text-anchor="middle" x="537" y="-132.3" font-family="Times,serif" font-size="14.00">0</text>
</g>
<!-- node_0x606000002600&#45;&gt;node_0x606000002660 -->
<g id="edge13" class="edge">
<title>node_0x606000002600&#45;&gt;node_0x606000002660</title>
<path fill="none" stroke="#964b00" d="M407.31,-242.8C424.08,-228.76 442.94,-212.98 459.69,-198.97"/>
<polygon fill="#964b00" stroke="#964b00" points="405.07,-240.11 399.64,-249.21 409.56,-245.48 405.07,-240.11"/>
<polygon fill="#964b00" stroke="#964b00" points="461.66,-201.89 467.08,-192.79 457.16,-196.52 461.66,-201.89"/>
</g>
<!-- node_0x6060000024e0 -->
<g id="node12" class="node">
<title>node_0x6060000024e0</title>
<path fill="#daa520" stroke="#964b00" d="M308,-0.5C308,-0.5 407.72,-0.5 407.72,-0.5 413.72,-0.5 419.72,-6.5 419.72,-12.5 419.72,-12.5 419.72,-54.5 419.72,-54.5 419.72,-60.5 413.72,-66.5 407.72,-66.5 407.72,-66.5 308,-66.5 308,-66.5 302,-66.5 296,-60.5 296,-54.5 296,-54.5 296,-12.5 296,-12.5 296,-6.5 302,-0.5 308,-0.5"/>
<text xml:space="preserve" text-anchor="middle" x="357.86" y="-51.3" font-family="Times,serif" font-size="14.00">type = VARIABLE</text>
<polyline fill="none" stroke="#964b00" points="296,-44.5 419.72,-44.5"/>
<text xml:space="preserve" text-anchor="middle" x="357.61" y="-29.3" font-family="Times,serif" font-size="14.00">val = 0(m)</text>
<polyline fill="none" stroke="#964b00" points="296,-22.5 419.72,-22.5"/>
<text xml:space="preserve" text-anchor="middle" x="326.5" y="-7.3" font-family="Times,serif" font-size="14.00">0</text>
<polyline fill="none" stroke="#964b00" points="357,-0.5 357,-22.5"/>
<text xml:space="preserve" text-anchor="middle" x="388" y="-7.3" font-family="Times,serif" font-size="14.00">0</text>
</g>
<!-- node_0x606000002540&#45;&gt;node_0x6060000024e0 -->
<g id="edge11" class="edge">
<title>node_0x606000002540&#45;&gt;node_0x6060000024e0</title>
<path fill="none" stroke="#964b00" d="M359.15,-113.7C358.96,-102.05 358.75,-89.47 358.57,-77.84"/>
<polygon fill="#964b00" stroke="#964b00" points="355.65,-113.73 359.31,-123.67 362.65,-113.61 355.65,-113.73"/>
<polygon fill="#964b00" stroke="#964b00" points="362.07,-78.06 358.41,-68.11 355.07,-78.17 362.07,-78.06"/>
</g>
<!-- node_0x6060000025a0 -->
<g id="node13" class="node">
<title>node_0x6060000025a0</title>
<path fill="#daa520" stroke="#964b00" d="M454,-0.5C454,-0.5 553.72,-0.5 553.72,-0.5 559.72,-0.5 565.72,-6.5 565.72,-12.5 565.72,-12.5 565.72,-54.5 565.72,-54.5 565.72,-60.5 559.72,-66.5 553.72,-66.5 553.72,-66.5 454,-66.5 454,-66.5 448,-66.5 442,-60.5 442,-54.5 442,-54.5 442,-12.5 442,-12.5 442,-6.5 448,-0.5 454,-0.5"/>
<text xml:space="preserve" text-anchor="middle" x="503.86" y="-51.3" font-family="Times,serif" font-size="14.00">type = VARIABLE</text>
<polyline fill="none" stroke="#964b00" points="442,-44.5 565.72,-44.5"/>
<text xml:space="preserve" text-anchor="middle" x="503.66" y="-29.3" font-family="Times,serif" font-size="14.00">val = 1(p)</text>
<polyline fill="none" stroke="#964b00" points="442,-22.5 565.72,-22.5"/>
<text xml:space="preserve" text-anchor="middle" x="472.5" y="-7.3" font-family="Times,serif" font-size="14.00">0</text>
<polyline fill="none" stroke="#964b00" points="503,-0.5 503,-22.5"/>
<text xml:space="preserve" text-anchor="middle" x="534" y="-7.3" font-family="Times,serif" font-size="14.00">0</text>
</g>
<!-- node_0x606000002540&#45;&gt;node_0x6060000025a0 -->
<g id="edge12" class="edge">
<title>node_0x606000002540&#45;&gt;node_0x6060000025a0</title>
<path fill="none" stroke="#964b00" d="M406.38,-117.77C422.88,-103.67 441.43,-87.83 457.89,-73.77"/>
<polygon fill="#964b00" stroke="#964b00" points="404.18,-115.04 398.85,-124.2 408.72,-120.37 404.18,-115.04"/>
<polygon fill="#964b00" stroke="#964b00" points="459.8,-76.74 465.13,-67.58 455.25,-71.42 459.8,-76.74"/>
</g>
</g>
</svg>
