<?xml version="1.0" encoding="UTF-8" standalone="no"?>
<!DOCTYPE svg PUBLIC "-//W3C//DTD SVG 1.1//EN"
 "http://www.w3.org/Graphics/SVG/1.1/DTD/svg11.dtd">
<!-- Generated by graphviz version 14.0.2 (20251019.1705)
 -->
<!-- Title: G Pages: 1 -->
<svg width="583pt" height="825pt"
 viewBox="0.00 0.00 583.00 825.00" xmlns="http://www.w3.org/2000/svg" xmlns:xlink="http://www.w3.org/1999/xlink">
<g id="graph0" class="graph" transform="scale(1 1) rotate(0) translate(4 821)">
<title>G</title>
<polygon fill="#fffafa" stroke="none" points="-4,4 -4,-821 578.72,-821 578.72,4 -4,4"/>
<!-- node_0x606000001a00 -->
<g id="node1" class="node">
<title>node_0x606000001a00</title>
<path fill="#00ffff" stroke="#964b00" d="M235.03,-750.5C235.03,-750.5 340.69,-750.5 340.69,-750.5 346.69,-750.5 352.69,-756.5 352.69,-762.5 352.69,-762.5 352.69,-804.5 352.69,-804.5 352.69,-810.5 346.69,-816.5 340.69,-816.5 340.69,-816.5 235.03,-816.5 235.03,-816.5 229.03,-816.5 223.03,-810.5 223.03,-804.5 223.03,-804.5 223.03,-762.5 223.03,-762.5 223.03,-756.5 229.03,-750.5 235.03,-750.5"/>
<text xml:space="preserve" text-anchor="middle" x="287.58" y="-801.3" font-family="Times,serif" font-size="14.00">type = OPERATOR</text>
<polyline fill="none" stroke="#964b00" points="223.03,-794.5 352.69,-794.5"/>
<text xml:space="preserve" text-anchor="middle" x="287.86" y="-779.3" font-family="Times,serif" font-size="14.00">val = 13(OP_ELSE)</text>
<polyline fill="none" stroke="#964b00" points="223.03,-772.5 352.69,-772.5"/>
<text xml:space="preserve" text-anchor="middle" x="254.81" y="-757.3" font-family="Times,serif" font-size="14.00">L</text>
<polyline fill="none" stroke="#964b00" points="286.58,-750.5 286.58,-772.5"/>
<text xml:space="preserve" text-anchor="middle" x="319.25" y="-757.3" font-family="Times,serif" font-size="14.00">R</text>
</g>
<!-- node_0x606000001be0 -->
<g id="node2" class="node">
<title>node_0x606000001be0</title>
<path fill="#00ffff" stroke="#964b00" d="M236.31,-625.5C236.31,-625.5 339.41,-625.5 339.41,-625.5 345.41,-625.5 351.41,-631.5 351.41,-637.5 351.41,-637.5 351.41,-679.5 351.41,-679.5 351.41,-685.5 345.41,-691.5 339.41,-691.5 339.41,-691.5 236.31,-691.5 236.31,-691.5 230.31,-691.5 224.31,-685.5 224.31,-679.5 224.31,-679.5 224.31,-637.5 224.31,-637.5 224.31,-631.5 230.31,-625.5 236.31,-625.5"/>
<text xml:space="preserve" text-anchor="middle" x="287.86" y="-676.3" font-family="Times,serif" font-size="14.00">type = OPERATOR</text>
<polyline fill="none" stroke="#964b00" points="224.31,-669.5 351.41,-669.5"/>
<text xml:space="preserve" text-anchor="middle" x="287.45" y="-654.3" font-family="Times,serif" font-size="14.00">val = 11(OP_SP)</text>
<polyline fill="none" stroke="#964b00" points="224.31,-647.5 351.41,-647.5"/>
<text xml:space="preserve" text-anchor="middle" x="255.59" y="-632.3" font-family="Times,serif" font-size="14.00">L</text>
<polyline fill="none" stroke="#964b00" points="286.86,-625.5 286.86,-647.5"/>
<text xml:space="preserve" text-anchor="middle" x="319.03" y="-632.3" font-family="Times,serif" font-size="14.00">R</text>
</g>
<!-- node_0x606000001a00&#45;&gt;node_0x606000001be0 -->
<g id="edge1" class="edge">
<title>node_0x606000001a00&#45;&gt;node_0x606000001be0</title>
<path fill="none" stroke="#964b00" d="M287.86,-738.7C287.86,-727.05 287.86,-714.47 287.86,-702.84"/>
<polygon fill="#964b00" stroke="#964b00" points="284.36,-738.67 287.86,-748.67 291.36,-738.67 284.36,-738.67"/>
<polygon fill="#964b00" stroke="#964b00" points="291.36,-703.11 287.86,-693.11 284.36,-703.11 291.36,-703.11"/>
</g>
<!-- node_0x606000001b20 -->
<g id="node3" class="node">
<title>node_0x606000001b20</title>
<path fill="#00ffff" stroke="#964b00" d="M162.31,-500.5C162.31,-500.5 265.41,-500.5 265.41,-500.5 271.41,-500.5 277.41,-506.5 277.41,-512.5 277.41,-512.5 277.41,-554.5 277.41,-554.5 277.41,-560.5 271.41,-566.5 265.41,-566.5 265.41,-566.5 162.31,-566.5 162.31,-566.5 156.31,-566.5 150.31,-560.5 150.31,-554.5 150.31,-554.5 150.31,-512.5 150.31,-512.5 150.31,-506.5 156.31,-500.5 162.31,-500.5"/>
<text xml:space="preserve" text-anchor="middle" x="213.86" y="-551.3" font-family="Times,serif" font-size="14.00">type = OPERATOR</text>
<polyline fill="none" stroke="#964b00" points="150.31,-544.5 277.41,-544.5"/>
<text xml:space="preserve" text-anchor="middle" x="213.41" y="-529.3" font-family="Times,serif" font-size="14.00">val = 6(OP_INIT)</text>
<polyline fill="none" stroke="#964b00" points="150.31,-522.5 277.41,-522.5"/>
<text xml:space="preserve" text-anchor="middle" x="181.59" y="-507.3" font-family="Times,serif" font-size="14.00">L</text>
<polyline fill="none" stroke="#964b00" points="212.86,-500.5 212.86,-522.5"/>
<text xml:space="preserve" text-anchor="middle" x="245.03" y="-507.3" font-family="Times,serif" font-size="14.00">R</text>
</g>
<!-- node_0x606000001be0&#45;&gt;node_0x606000001b20 -->
<g id="edge2" class="edge">
<title>node_0x606000001be0&#45;&gt;node_0x606000001b20</title>
<path fill="none" stroke="#964b00" d="M262.6,-615.52C255.01,-602.89 246.67,-589.04 239.08,-576.41"/>
<polygon fill="#964b00" stroke="#964b00" points="259.48,-617.12 267.64,-623.89 265.48,-613.51 259.48,-617.12"/>
<polygon fill="#964b00" stroke="#964b00" points="242.11,-574.66 233.95,-567.9 236.11,-578.27 242.11,-574.66"/>
</g>
<!-- node_0x606000001ee0 -->
<g id="node6" class="node">
<title>node_0x606000001ee0</title>
<path fill="#00ffff" stroke="#964b00" d="M313.31,-500.5C313.31,-500.5 416.41,-500.5 416.41,-500.5 422.41,-500.5 428.41,-506.5 428.41,-512.5 428.41,-512.5 428.41,-554.5 428.41,-554.5 428.41,-560.5 422.41,-566.5 416.41,-566.5 416.41,-566.5 313.31,-566.5 313.31,-566.5 307.31,-566.5 301.31,-560.5 301.31,-554.5 301.31,-554.5 301.31,-512.5 301.31,-512.5 301.31,-506.5 307.31,-500.5 313.31,-500.5"/>
<text xml:space="preserve" text-anchor="middle" x="364.86" y="-551.3" font-family="Times,serif" font-size="14.00">type = OPERATOR</text>
<polyline fill="none" stroke="#964b00" points="301.31,-544.5 428.41,-544.5"/>
<text xml:space="preserve" text-anchor="middle" x="364.45" y="-529.3" font-family="Times,serif" font-size="14.00">val = 11(OP_SP)</text>
<polyline fill="none" stroke="#964b00" points="301.31,-522.5 428.41,-522.5"/>
<text xml:space="preserve" text-anchor="middle" x="332.59" y="-507.3" font-family="Times,serif" font-size="14.00">L</text>
<polyline fill="none" stroke="#964b00" points="363.86,-500.5 363.86,-522.5"/>
<text xml:space="preserve" text-anchor="middle" x="396.03" y="-507.3" font-family="Times,serif" font-size="14.00">R</text>
</g>
<!-- node_0x606000001be0&#45;&gt;node_0x606000001ee0 -->
<g id="edge5" class="edge">
<title>node_0x606000001be0&#45;&gt;node_0x606000001ee0</title>
<path fill="none" stroke="#964b00" d="M314.14,-615.52C322.13,-602.76 330.89,-588.76 338.86,-576.04"/>
<polygon fill="#964b00" stroke="#964b00" points="311.23,-613.57 308.89,-623.9 317.17,-617.28 311.23,-613.57"/>
<polygon fill="#964b00" stroke="#964b00" points="341.62,-578.22 343.96,-567.88 335.69,-574.5 341.62,-578.22"/>
</g>
<!-- node_0x606000001ac0 -->
<g id="node4" class="node">
<title>node_0x606000001ac0</title>
<path fill="#daa520" stroke="#964b00" d="M12,-375.5C12,-375.5 111.72,-375.5 111.72,-375.5 117.72,-375.5 123.72,-381.5 123.72,-387.5 123.72,-387.5 123.72,-429.5 123.72,-429.5 123.72,-435.5 117.72,-441.5 111.72,-441.5 111.72,-441.5 12,-441.5 12,-441.5 6,-441.5 0,-435.5 0,-429.5 0,-429.5 0,-387.5 0,-387.5 0,-381.5 6,-375.5 12,-375.5"/>
<text xml:space="preserve" text-anchor="middle" x="61.86" y="-426.3" font-family="Times,serif" font-size="14.00">type = VARIABLE</text>
<polyline fill="none" stroke="#964b00" points="0,-419.5 123.72,-419.5"/>
<text xml:space="preserve" text-anchor="middle" x="61.66" y="-404.3" font-family="Times,serif" font-size="14.00">val = 6(x)</text>
<polyline fill="none" stroke="#964b00" points="0,-397.5 123.72,-397.5"/>
<text xml:space="preserve" text-anchor="middle" x="30.5" y="-382.3" font-family="Times,serif" font-size="14.00">0</text>
<polyline fill="none" stroke="#964b00" points="61,-375.5 61,-397.5"/>
<text xml:space="preserve" text-anchor="middle" x="92" y="-382.3" font-family="Times,serif" font-size="14.00">0</text>
</g>
<!-- node_0x606000001b20&#45;&gt;node_0x606000001ac0 -->
<g id="edge3" class="edge">
<title>node_0x606000001b20&#45;&gt;node_0x606000001ac0</title>
<path fill="none" stroke="#964b00" d="M165.07,-493.02C147.67,-478.94 128.08,-463.08 110.67,-449"/>
<polygon fill="#964b00" stroke="#964b00" points="162.77,-495.66 172.75,-499.23 167.18,-490.22 162.77,-495.66"/>
<polygon fill="#964b00" stroke="#964b00" points="112.95,-446.34 102.97,-442.77 108.54,-451.78 112.95,-446.34"/>
</g>
<!-- node_0x606000001b80 -->
<g id="node5" class="node">
<title>node_0x606000001b80</title>
<path fill="#98fb98" stroke="#964b00" d="M158.04,-375.5C158.04,-375.5 269.69,-375.5 269.69,-375.5 275.69,-375.5 281.69,-381.5 281.69,-387.5 281.69,-387.5 281.69,-429.5 281.69,-429.5 281.69,-435.5 275.69,-441.5 269.69,-441.5 269.69,-441.5 158.04,-441.5 158.04,-441.5 152.04,-441.5 146.04,-435.5 146.04,-429.5 146.04,-429.5 146.04,-387.5 146.04,-387.5 146.04,-381.5 152.04,-375.5 158.04,-375.5"/>
<text xml:space="preserve" text-anchor="middle" x="213.86" y="-426.3" font-family="Times,serif" font-size="14.00">type = CONST_VAR</text>
<polyline fill="none" stroke="#964b00" points="146.04,-419.5 281.69,-419.5"/>
<text xml:space="preserve" text-anchor="middle" x="213.54" y="-404.3" font-family="Times,serif" font-size="14.00">val = 8</text>
<polyline fill="none" stroke="#964b00" points="146.04,-397.5 281.69,-397.5"/>
<text xml:space="preserve" text-anchor="middle" x="179.54" y="-382.3" font-family="Times,serif" font-size="14.00">0</text>
<polyline fill="none" stroke="#964b00" points="213.04,-375.5 213.04,-397.5"/>
<text xml:space="preserve" text-anchor="middle" x="247.04" y="-382.3" font-family="Times,serif" font-size="14.00">0</text>
</g>
<!-- node_0x606000001b20&#45;&gt;node_0x606000001b80 -->
<g id="edge4" class="edge">
<title>node_0x606000001b20&#45;&gt;node_0x606000001b80</title>
<path fill="none" stroke="#964b00" d="M213.86,-488.7C213.86,-477.05 213.86,-464.47 213.86,-452.84"/>
<polygon fill="#964b00" stroke="#964b00" points="210.36,-488.67 213.86,-498.67 217.36,-488.67 210.36,-488.67"/>
<polygon fill="#964b00" stroke="#964b00" points="217.36,-453.11 213.86,-443.11 210.36,-453.11 217.36,-453.11"/>
</g>
<!-- node_0x606000001ca0 -->
<g id="node7" class="node">
<title>node_0x606000001ca0</title>
<path fill="#00ffff" stroke="#964b00" d="M315.31,-375.5C315.31,-375.5 418.41,-375.5 418.41,-375.5 424.41,-375.5 430.41,-381.5 430.41,-387.5 430.41,-387.5 430.41,-429.5 430.41,-429.5 430.41,-435.5 424.41,-441.5 418.41,-441.5 418.41,-441.5 315.31,-441.5 315.31,-441.5 309.31,-441.5 303.31,-435.5 303.31,-429.5 303.31,-429.5 303.31,-387.5 303.31,-387.5 303.31,-381.5 309.31,-375.5 315.31,-375.5"/>
<text xml:space="preserve" text-anchor="middle" x="366.86" y="-426.3" font-family="Times,serif" font-size="14.00">type = OPERATOR</text>
<polyline fill="none" stroke="#964b00" points="303.31,-419.5 430.41,-419.5"/>
<text xml:space="preserve" text-anchor="middle" x="366.76" y="-404.3" font-family="Times,serif" font-size="14.00">val = 7(OP_ASS)</text>
<polyline fill="none" stroke="#964b00" points="303.31,-397.5 430.41,-397.5"/>
<text xml:space="preserve" text-anchor="middle" x="334.59" y="-382.3" font-family="Times,serif" font-size="14.00">L</text>
<polyline fill="none" stroke="#964b00" points="365.86,-375.5 365.86,-397.5"/>
<text xml:space="preserve" text-anchor="middle" x="398.03" y="-382.3" font-family="Times,serif" font-size="14.00">R</text>
</g>
<!-- node_0x606000001ee0&#45;&gt;node_0x606000001ca0 -->
<g id="edge6" class="edge">
<title>node_0x606000001ee0&#45;&gt;node_0x606000001ca0</title>
<path fill="none" stroke="#964b00" d="M365.57,-488.7C365.76,-477.05 365.97,-464.47 366.16,-452.84"/>
<polygon fill="#964b00" stroke="#964b00" points="362.07,-488.61 365.41,-498.67 369.07,-488.73 362.07,-488.61"/>
<polygon fill="#964b00" stroke="#964b00" points="369.65,-453.17 366.31,-443.11 362.65,-453.06 369.65,-453.17"/>
</g>
<!-- node_0x606000001c40 -->
<g id="node8" class="node">
<title>node_0x606000001c40</title>
<path fill="#daa520" stroke="#964b00" d="M243,-250.5C243,-250.5 342.72,-250.5 342.72,-250.5 348.72,-250.5 354.72,-256.5 354.72,-262.5 354.72,-262.5 354.72,-304.5 354.72,-304.5 354.72,-310.5 348.72,-316.5 342.72,-316.5 342.72,-316.5 243,-316.5 243,-316.5 237,-316.5 231,-310.5 231,-304.5 231,-304.5 231,-262.5 231,-262.5 231,-256.5 237,-250.5 243,-250.5"/>
<text xml:space="preserve" text-anchor="middle" x="292.86" y="-301.3" font-family="Times,serif" font-size="14.00">type = VARIABLE</text>
<polyline fill="none" stroke="#964b00" points="231,-294.5 354.72,-294.5"/>
<text xml:space="preserve" text-anchor="middle" x="292.66" y="-279.3" font-family="Times,serif" font-size="14.00">val = 6(x)</text>
<polyline fill="none" stroke="#964b00" points="231,-272.5 354.72,-272.5"/>
<text xml:space="preserve" text-anchor="middle" x="261.5" y="-257.3" font-family="Times,serif" font-size="14.00">0</text>
<polyline fill="none" stroke="#964b00" points="292,-250.5 292,-272.5"/>
<text xml:space="preserve" text-anchor="middle" x="323" y="-257.3" font-family="Times,serif" font-size="14.00">0</text>
</g>
<!-- node_0x606000001ca0&#45;&gt;node_0x606000001c40 -->
<g id="edge7" class="edge">
<title>node_0x606000001ca0&#45;&gt;node_0x606000001c40</title>
<path fill="none" stroke="#964b00" d="M341.6,-365.52C334.01,-352.89 325.67,-339.04 318.08,-326.41"/>
<polygon fill="#964b00" stroke="#964b00" points="338.48,-367.12 346.64,-373.89 344.48,-363.51 338.48,-367.12"/>
<polygon fill="#964b00" stroke="#964b00" points="321.11,-324.66 312.95,-317.9 315.11,-328.27 321.11,-324.66"/>
</g>
<!-- node_0x606000001e20 -->
<g id="node9" class="node">
<title>node_0x606000001e20</title>
<path fill="#00ffff" stroke="#964b00" d="M388.31,-250.5C388.31,-250.5 491.41,-250.5 491.41,-250.5 497.41,-250.5 503.41,-256.5 503.41,-262.5 503.41,-262.5 503.41,-304.5 503.41,-304.5 503.41,-310.5 497.41,-316.5 491.41,-316.5 491.41,-316.5 388.31,-316.5 388.31,-316.5 382.31,-316.5 376.31,-310.5 376.31,-304.5 376.31,-304.5 376.31,-262.5 376.31,-262.5 376.31,-256.5 382.31,-250.5 388.31,-250.5"/>
<text xml:space="preserve" text-anchor="middle" x="439.86" y="-301.3" font-family="Times,serif" font-size="14.00">type = OPERATOR</text>
<polyline fill="none" stroke="#964b00" points="376.31,-294.5 503.41,-294.5"/>
<text xml:space="preserve" text-anchor="middle" x="439.59" y="-279.3" font-family="Times,serif" font-size="14.00">val = 1(OP_ADD)</text>
<polyline fill="none" stroke="#964b00" points="376.31,-272.5 503.41,-272.5"/>
<text xml:space="preserve" text-anchor="middle" x="407.59" y="-257.3" font-family="Times,serif" font-size="14.00">L</text>
<polyline fill="none" stroke="#964b00" points="438.86,-250.5 438.86,-272.5"/>
<text xml:space="preserve" text-anchor="middle" x="471.03" y="-257.3" font-family="Times,serif" font-size="14.00">R</text>
</g>
<!-- node_0x606000001ca0&#45;&gt;node_0x606000001e20 -->
<g id="edge8" class="edge">
<title>node_0x606000001ca0&#45;&gt;node_0x606000001e20</title>
<path fill="none" stroke="#964b00" d="M391.78,-365.52C399.27,-352.89 407.49,-339.04 414.98,-326.41"/>
<polygon fill="#964b00" stroke="#964b00" points="388.91,-363.5 386.81,-373.88 394.93,-367.07 388.91,-363.5"/>
<polygon fill="#964b00" stroke="#964b00" points="417.94,-328.29 420.04,-317.9 411.92,-324.72 417.94,-328.29"/>
</g>
<!-- node_0x606000001d60 -->
<g id="node10" class="node">
<title>node_0x606000001d60</title>
<path fill="#00ffff" stroke="#964b00" d="M314.31,-125.5C314.31,-125.5 417.41,-125.5 417.41,-125.5 423.41,-125.5 429.41,-131.5 429.41,-137.5 429.41,-137.5 429.41,-179.5 429.41,-179.5 429.41,-185.5 423.41,-191.5 417.41,-191.5 417.41,-191.5 314.31,-191.5 314.31,-191.5 308.31,-191.5 302.31,-185.5 302.31,-179.5 302.31,-179.5 302.31,-137.5 302.31,-137.5 302.31,-131.5 308.31,-125.5 314.31,-125.5"/>
<text xml:space="preserve" text-anchor="middle" x="365.86" y="-176.3" font-family="Times,serif" font-size="14.00">type = OPERATOR</text>
<polyline fill="none" stroke="#964b00" points="302.31,-169.5 429.41,-169.5"/>
<text xml:space="preserve" text-anchor="middle" x="365.59" y="-154.3" font-family="Times,serif" font-size="14.00">val = 1(OP_ADD)</text>
<polyline fill="none" stroke="#964b00" points="302.31,-147.5 429.41,-147.5"/>
<text xml:space="preserve" text-anchor="middle" x="333.59" y="-132.3" font-family="Times,serif" font-size="14.00">L</text>
<polyline fill="none" stroke="#964b00" points="364.86,-125.5 364.86,-147.5"/>
<text xml:space="preserve" text-anchor="middle" x="397.03" y="-132.3" font-family="Times,serif" font-size="14.00">R</text>
</g>
<!-- node_0x606000001e20&#45;&gt;node_0x606000001d60 -->
<g id="edge9" class="edge">
<title>node_0x606000001e20&#45;&gt;node_0x606000001d60</title>
<path fill="none" stroke="#964b00" d="M414.6,-240.52C407.01,-227.89 398.67,-214.04 391.08,-201.41"/>
<polygon fill="#964b00" stroke="#964b00" points="411.48,-242.12 419.64,-248.89 417.48,-238.51 411.48,-242.12"/>
<polygon fill="#964b00" stroke="#964b00" points="394.11,-199.66 385.95,-192.9 388.11,-203.27 394.11,-199.66"/>
</g>
<!-- node_0x606000001e80 -->
<g id="node13" class="node">
<title>node_0x606000001e80</title>
<path fill="#daa520" stroke="#964b00" d="M463,-125.5C463,-125.5 562.72,-125.5 562.72,-125.5 568.72,-125.5 574.72,-131.5 574.72,-137.5 574.72,-137.5 574.72,-179.5 574.72,-179.5 574.72,-185.5 568.72,-191.5 562.72,-191.5 562.72,-191.5 463,-191.5 463,-191.5 457,-191.5 451,-185.5 451,-179.5 451,-179.5 451,-137.5 451,-137.5 451,-131.5 457,-125.5 463,-125.5"/>
<text xml:space="preserve" text-anchor="middle" x="512.86" y="-176.3" font-family="Times,serif" font-size="14.00">type = VARIABLE</text>
<polyline fill="none" stroke="#964b00" points="451,-169.5 574.72,-169.5"/>
<text xml:space="preserve" text-anchor="middle" x="512.66" y="-154.3" font-family="Times,serif" font-size="14.00">val = 1(b)</text>
<polyline fill="none" stroke="#964b00" points="451,-147.5 574.72,-147.5"/>
<text xml:space="preserve" text-anchor="middle" x="481.5" y="-132.3" font-family="Times,serif" font-size="14.00">0</text>
<polyline fill="none" stroke="#964b00" points="512,-125.5 512,-147.5"/>
<text xml:space="preserve" text-anchor="middle" x="543" y="-132.3" font-family="Times,serif" font-size="14.00">0</text>
</g>
<!-- node_0x606000001e20&#45;&gt;node_0x606000001e80 -->
<g id="edge12" class="edge">
<title>node_0x606000001e20&#45;&gt;node_0x606000001e80</title>
<path fill="none" stroke="#964b00" d="M464.78,-240.52C472.27,-227.89 480.49,-214.04 487.98,-201.41"/>
<polygon fill="#964b00" stroke="#964b00" points="461.91,-238.5 459.81,-248.88 467.93,-242.07 461.91,-238.5"/>
<polygon fill="#964b00" stroke="#964b00" points="490.94,-203.29 493.04,-192.9 484.92,-199.72 490.94,-203.29"/>
</g>
<!-- node_0x606000001d00 -->
<g id="node11" class="node">
<title>node_0x606000001d00</title>
<path fill="#daa520" stroke="#964b00" d="M243,-0.5C243,-0.5 342.72,-0.5 342.72,-0.5 348.72,-0.5 354.72,-6.5 354.72,-12.5 354.72,-12.5 354.72,-54.5 354.72,-54.5 354.72,-60.5 348.72,-66.5 342.72,-66.5 342.72,-66.5 243,-66.5 243,-66.5 237,-66.5 231,-60.5 231,-54.5 231,-54.5 231,-12.5 231,-12.5 231,-6.5 237,-0.5 243,-0.5"/>
<text xml:space="preserve" text-anchor="middle" x="292.86" y="-51.3" font-family="Times,serif" font-size="14.00">type = VARIABLE</text>
<polyline fill="none" stroke="#964b00" points="231,-44.5 354.72,-44.5"/>
<text xml:space="preserve" text-anchor="middle" x="292.77" y="-29.3" font-family="Times,serif" font-size="14.00">val = 0(a)</text>
<polyline fill="none" stroke="#964b00" points="231,-22.5 354.72,-22.5"/>
<text xml:space="preserve" text-anchor="middle" x="261.5" y="-7.3" font-family="Times,serif" font-size="14.00">0</text>
<polyline fill="none" stroke="#964b00" points="292,-0.5 292,-22.5"/>
<text xml:space="preserve" text-anchor="middle" x="323" y="-7.3" font-family="Times,serif" font-size="14.00">0</text>
</g>
<!-- node_0x606000001d60&#45;&gt;node_0x606000001d00 -->
<g id="edge10" class="edge">
<title>node_0x606000001d60&#45;&gt;node_0x606000001d00</title>
<path fill="none" stroke="#964b00" d="M340.94,-115.52C333.45,-102.89 325.23,-89.04 317.74,-76.41"/>
<polygon fill="#964b00" stroke="#964b00" points="337.79,-117.07 345.91,-123.88 343.81,-113.5 337.79,-117.07"/>
<polygon fill="#964b00" stroke="#964b00" points="320.8,-74.72 312.68,-67.9 314.78,-78.29 320.8,-74.72"/>
</g>
<!-- node_0x606000001dc0 -->
<g id="node12" class="node">
<title>node_0x606000001dc0</title>
<path fill="#daa520" stroke="#964b00" d="M389,-0.5C389,-0.5 488.72,-0.5 488.72,-0.5 494.72,-0.5 500.72,-6.5 500.72,-12.5 500.72,-12.5 500.72,-54.5 500.72,-54.5 500.72,-60.5 494.72,-66.5 488.72,-66.5 488.72,-66.5 389,-66.5 389,-66.5 383,-66.5 377,-60.5 377,-54.5 377,-54.5 377,-12.5 377,-12.5 377,-6.5 383,-0.5 389,-0.5"/>
<text xml:space="preserve" text-anchor="middle" x="438.86" y="-51.3" font-family="Times,serif" font-size="14.00">type = VARIABLE</text>
<polyline fill="none" stroke="#964b00" points="377,-44.5 500.72,-44.5"/>
<text xml:space="preserve" text-anchor="middle" x="438.77" y="-29.3" font-family="Times,serif" font-size="14.00">val = 2(c)</text>
<polyline fill="none" stroke="#964b00" points="377,-22.5 500.72,-22.5"/>
<text xml:space="preserve" text-anchor="middle" x="407.5" y="-7.3" font-family="Times,serif" font-size="14.00">0</text>
<polyline fill="none" stroke="#964b00" points="438,-0.5 438,-22.5"/>
<text xml:space="preserve" text-anchor="middle" x="469" y="-7.3" font-family="Times,serif" font-size="14.00">0</text>
</g>
<!-- node_0x606000001d60&#45;&gt;node_0x606000001dc0 -->
<g id="edge11" class="edge">
<title>node_0x606000001d60&#45;&gt;node_0x606000001dc0</title>
<path fill="none" stroke="#964b00" d="M390.78,-115.52C398.27,-102.89 406.49,-89.04 413.98,-76.41"/>
<polygon fill="#964b00" stroke="#964b00" points="387.91,-113.5 385.81,-123.88 393.93,-117.07 387.91,-113.5"/>
<polygon fill="#964b00" stroke="#964b00" points="416.94,-78.29 419.04,-67.9 410.92,-74.72 416.94,-78.29"/>
</g>
</g>
</svg>
