<?xml version="1.0" encoding="UTF-8" standalone="no"?>
<!DOCTYPE svg PUBLIC "-//W3C//DTD SVG 1.1//EN"
 "http://www.w3.org/Graphics/SVG/1.1/DTD/svg11.dtd">
<!-- Generated by graphviz version 14.0.2 (20251019.1705)
 -->
<!-- Title: G Pages: 1 -->
<svg width="352pt" height="325pt"
 viewBox="0.00 0.00 352.00 325.00" xmlns="http://www.w3.org/2000/svg" xmlns:xlink="http://www.w3.org/1999/xlink">
<g id="graph0" class="graph" transform="scale(1 1) rotate(0) translate(4 321)">
<title>G</title>
<polygon fill="#fffafa" stroke="none" points="-4,4 -4,-321 347.72,-321 347.72,4 -4,4"/>
<!-- node_0x606000002600 -->
<g id="node1" class="node">
<title>node_0x606000002600</title>
<path fill="#00ffff" stroke="#964b00" d="M156.31,-250.5C156.31,-250.5 259.41,-250.5 259.41,-250.5 265.41,-250.5 271.41,-256.5 271.41,-262.5 271.41,-262.5 271.41,-304.5 271.41,-304.5 271.41,-310.5 265.41,-316.5 259.41,-316.5 259.41,-316.5 156.31,-316.5 156.31,-316.5 150.31,-316.5 144.31,-310.5 144.31,-304.5 144.31,-304.5 144.31,-262.5 144.31,-262.5 144.31,-256.5 150.31,-250.5 156.31,-250.5"/>
<text xml:space="preserve" text-anchor="middle" x="207.86" y="-301.3" font-family="Times,serif" font-size="14.00">type = OPERATOR</text>
<polyline fill="none" stroke="#964b00" points="144.31,-294.5 271.41,-294.5"/>
<text xml:space="preserve" text-anchor="middle" x="207.59" y="-279.3" font-family="Times,serif" font-size="14.00">val = 1(OP_ADD)</text>
<polyline fill="none" stroke="#964b00" points="144.31,-272.5 271.41,-272.5"/>
<text xml:space="preserve" text-anchor="middle" x="175.59" y="-257.3" font-family="Times,serif" font-size="14.00">L</text>
<polyline fill="none" stroke="#964b00" points="206.86,-250.5 206.86,-272.5"/>
<text xml:space="preserve" text-anchor="middle" x="239.03" y="-257.3" font-family="Times,serif" font-size="14.00">R</text>
</g>
<!-- node_0x606000002540 -->
<g id="node2" class="node">
<title>node_0x606000002540</title>
<path fill="#00ffff" stroke="#964b00" d="M83.31,-125.5C83.31,-125.5 186.41,-125.5 186.41,-125.5 192.41,-125.5 198.41,-131.5 198.41,-137.5 198.41,-137.5 198.41,-179.5 198.41,-179.5 198.41,-185.5 192.41,-191.5 186.41,-191.5 186.41,-191.5 83.31,-191.5 83.31,-191.5 77.31,-191.5 71.31,-185.5 71.31,-179.5 71.31,-179.5 71.31,-137.5 71.31,-137.5 71.31,-131.5 77.31,-125.5 83.31,-125.5"/>
<text xml:space="preserve" text-anchor="middle" x="134.86" y="-176.3" font-family="Times,serif" font-size="14.00">type = OPERATOR</text>
<polyline fill="none" stroke="#964b00" points="71.31,-169.5 198.41,-169.5"/>
<text xml:space="preserve" text-anchor="middle" x="134.59" y="-154.3" font-family="Times,serif" font-size="14.00">val = 1(OP_ADD)</text>
<polyline fill="none" stroke="#964b00" points="71.31,-147.5 198.41,-147.5"/>
<text xml:space="preserve" text-anchor="middle" x="102.59" y="-132.3" font-family="Times,serif" font-size="14.00">L</text>
<polyline fill="none" stroke="#964b00" points="133.86,-125.5 133.86,-147.5"/>
<text xml:space="preserve" text-anchor="middle" x="166.03" y="-132.3" font-family="Times,serif" font-size="14.00">R</text>
</g>
<!-- node_0x606000002600&#45;&gt;node_0x606000002540 -->
<g id="edge1" class="edge">
<title>node_0x606000002600&#45;&gt;node_0x606000002540</title>
<path fill="none" stroke="#964b00" d="M182.94,-240.52C175.45,-227.89 167.23,-214.04 159.74,-201.41"/>
<polygon fill="#964b00" stroke="#964b00" points="179.79,-242.07 187.91,-248.88 185.81,-238.5 179.79,-242.07"/>
<polygon fill="#964b00" stroke="#964b00" points="162.8,-199.72 154.68,-192.9 156.78,-203.29 162.8,-199.72"/>
</g>
<!-- node_0x606000002660 -->
<g id="node5" class="node">
<title>node_0x606000002660</title>
<path fill="#daa520" stroke="#964b00" d="M232,-125.5C232,-125.5 331.72,-125.5 331.72,-125.5 337.72,-125.5 343.72,-131.5 343.72,-137.5 343.72,-137.5 343.72,-179.5 343.72,-179.5 343.72,-185.5 337.72,-191.5 331.72,-191.5 331.72,-191.5 232,-191.5 232,-191.5 226,-191.5 220,-185.5 220,-179.5 220,-179.5 220,-137.5 220,-137.5 220,-131.5 226,-125.5 232,-125.5"/>
<text xml:space="preserve" text-anchor="middle" x="281.86" y="-176.3" font-family="Times,serif" font-size="14.00">type = VARIABLE</text>
<polyline fill="none" stroke="#964b00" points="220,-169.5 343.72,-169.5"/>
<text xml:space="preserve" text-anchor="middle" x="281.66" y="-154.3" font-family="Times,serif" font-size="14.00">val = 2(k)</text>
<polyline fill="none" stroke="#964b00" points="220,-147.5 343.72,-147.5"/>
<text xml:space="preserve" text-anchor="middle" x="250.5" y="-132.3" font-family="Times,serif" font-size="14.00">0</text>
<polyline fill="none" stroke="#964b00" points="281,-125.5 281,-147.5"/>
<text xml:space="preserve" text-anchor="middle" x="312" y="-132.3" font-family="Times,serif" font-size="14.00">0</text>
</g>
<!-- node_0x606000002600&#45;&gt;node_0x606000002660 -->
<g id="edge4" class="edge">
<title>node_0x606000002600&#45;&gt;node_0x606000002660</title>
<path fill="none" stroke="#964b00" d="M233.12,-240.52C240.72,-227.89 249.05,-214.04 256.64,-201.41"/>
<polygon fill="#964b00" stroke="#964b00" points="230.24,-238.51 228.08,-248.89 236.24,-242.12 230.24,-238.51"/>
<polygon fill="#964b00" stroke="#964b00" points="259.61,-203.27 261.77,-192.9 253.61,-199.66 259.61,-203.27"/>
</g>
<!-- node_0x6060000024e0 -->
<g id="node3" class="node">
<title>node_0x6060000024e0</title>
<path fill="#daa520" stroke="#964b00" d="M12,-0.5C12,-0.5 111.72,-0.5 111.72,-0.5 117.72,-0.5 123.72,-6.5 123.72,-12.5 123.72,-12.5 123.72,-54.5 123.72,-54.5 123.72,-60.5 117.72,-66.5 111.72,-66.5 111.72,-66.5 12,-66.5 12,-66.5 6,-66.5 0,-60.5 0,-54.5 0,-54.5 0,-12.5 0,-12.5 0,-6.5 6,-0.5 12,-0.5"/>
<text xml:space="preserve" text-anchor="middle" x="61.86" y="-51.3" font-family="Times,serif" font-size="14.00">type = VARIABLE</text>
<polyline fill="none" stroke="#964b00" points="0,-44.5 123.72,-44.5"/>
<text xml:space="preserve" text-anchor="middle" x="61.61" y="-29.3" font-family="Times,serif" font-size="14.00">val = 0(m)</text>
<polyline fill="none" stroke="#964b00" points="0,-22.5 123.72,-22.5"/>
<text xml:space="preserve" text-anchor="middle" x="30.5" y="-7.3" font-family="Times,serif" font-size="14.00">0</text>
<polyline fill="none" stroke="#964b00" points="61,-0.5 61,-22.5"/>
<text xml:space="preserve" text-anchor="middle" x="92" y="-7.3" font-family="Times,serif" font-size="14.00">0</text>
</g>
<!-- node_0x606000002540&#45;&gt;node_0x6060000024e0 -->
<g id="edge2" class="edge">
<title>node_0x606000002540&#45;&gt;node_0x6060000024e0</title>
<path fill="none" stroke="#964b00" d="M109.94,-115.52C102.45,-102.89 94.23,-89.04 86.74,-76.41"/>
<polygon fill="#964b00" stroke="#964b00" points="106.79,-117.07 114.91,-123.88 112.81,-113.5 106.79,-117.07"/>
<polygon fill="#964b00" stroke="#964b00" points="89.8,-74.72 81.68,-67.9 83.78,-78.29 89.8,-74.72"/>
</g>
<!-- node_0x6060000025a0 -->
<g id="node4" class="node">
<title>node_0x6060000025a0</title>
<path fill="#daa520" stroke="#964b00" d="M158,-0.5C158,-0.5 257.72,-0.5 257.72,-0.5 263.72,-0.5 269.72,-6.5 269.72,-12.5 269.72,-12.5 269.72,-54.5 269.72,-54.5 269.72,-60.5 263.72,-66.5 257.72,-66.5 257.72,-66.5 158,-66.5 158,-66.5 152,-66.5 146,-60.5 146,-54.5 146,-54.5 146,-12.5 146,-12.5 146,-6.5 152,-0.5 158,-0.5"/>
<text xml:space="preserve" text-anchor="middle" x="207.86" y="-51.3" font-family="Times,serif" font-size="14.00">type = VARIABLE</text>
<polyline fill="none" stroke="#964b00" points="146,-44.5 269.72,-44.5"/>
<text xml:space="preserve" text-anchor="middle" x="207.66" y="-29.3" font-family="Times,serif" font-size="14.00">val = 1(p)</text>
<polyline fill="none" stroke="#964b00" points="146,-22.5 269.72,-22.5"/>
<text xml:space="preserve" text-anchor="middle" x="176.5" y="-7.3" font-family="Times,serif" font-size="14.00">0</text>
<polyline fill="none" stroke="#964b00" points="207,-0.5 207,-22.5"/>
<text xml:space="preserve" text-anchor="middle" x="238" y="-7.3" font-family="Times,serif" font-size="14.00">0</text>
</g>
<!-- node_0x606000002540&#45;&gt;node_0x6060000025a0 -->
<g id="edge3" class="edge">
<title>node_0x606000002540&#45;&gt;node_0x6060000025a0</title>
<path fill="none" stroke="#964b00" d="M159.78,-115.52C167.27,-102.89 175.49,-89.04 182.98,-76.41"/>
<polygon fill="#964b00" stroke="#964b00" points="156.91,-113.5 154.81,-123.88 162.93,-117.07 156.91,-113.5"/>
<polygon fill="#964b00" stroke="#964b00" points="185.94,-78.29 188.04,-67.9 179.92,-74.72 185.94,-78.29"/>
</g>
</g>
</svg>
