<?xml version="1.0" encoding="UTF-8" standalone="no"?>
<!DOCTYPE svg PUBLIC "-//W3C//DTD SVG 1.1//EN"
 "http://www.w3.org/Graphics/SVG/1.1/DTD/svg11.dtd">
<!-- Generated by graphviz version 14.0.2 (20251019.1705)
 -->
<!-- Title: G Pages: 1 -->
<svg width="948pt" height="1075pt"
 viewBox="0.00 0.00 948.00 1075.00" xmlns="http://www.w3.org/2000/svg" xmlns:xlink="http://www.w3.org/1999/xlink">
<g id="graph0" class="graph" transform="scale(1 1) rotate(0) translate(4 1071)">
<title>G</title>
<polygon fill="#fffafa" stroke="none" points="-4,4 -4,-1071 943.69,-1071 943.69,4 -4,4"/>
<!-- node_0x606000009260 -->
<g id="node1" class="node">
<title>node_0x606000009260</title>
<path fill="#00ffff" stroke="#964b00" d="M546.31,-1000.5C546.31,-1000.5 649.41,-1000.5 649.41,-1000.5 655.41,-1000.5 661.41,-1006.5 661.41,-1012.5 661.41,-1012.5 661.41,-1054.5 661.41,-1054.5 661.41,-1060.5 655.41,-1066.5 649.41,-1066.5 649.41,-1066.5 546.31,-1066.5 546.31,-1066.5 540.31,-1066.5 534.31,-1060.5 534.31,-1054.5 534.31,-1054.5 534.31,-1012.5 534.31,-1012.5 534.31,-1006.5 540.31,-1000.5 546.31,-1000.5"/>
<text xml:space="preserve" text-anchor="middle" x="597.86" y="-1051.3" font-family="Times,serif" font-size="14.00">type = OPERATOR</text>
<polyline fill="none" stroke="#964b00" points="534.31,-1044.5 661.41,-1044.5"/>
<text xml:space="preserve" text-anchor="middle" x="597.65" y="-1029.3" font-family="Times,serif" font-size="14.00">val = 18(OP_CFB)</text>
<polyline fill="none" stroke="#964b00" points="534.31,-1022.5 661.41,-1022.5"/>
<text xml:space="preserve" text-anchor="middle" x="565.59" y="-1007.3" font-family="Times,serif" font-size="14.00">L</text>
<polyline fill="none" stroke="#964b00" points="596.86,-1000.5 596.86,-1022.5"/>
<text xml:space="preserve" text-anchor="middle" x="629.03" y="-1007.3" font-family="Times,serif" font-size="14.00">R</text>
</g>
<!-- node_0x606000009200 -->
<g id="node2" class="node">
<title>node_0x606000009200</title>
<path fill="#00ffff" stroke="#964b00" d="M546.31,-875.5C546.31,-875.5 649.41,-875.5 649.41,-875.5 655.41,-875.5 661.41,-881.5 661.41,-887.5 661.41,-887.5 661.41,-929.5 661.41,-929.5 661.41,-935.5 655.41,-941.5 649.41,-941.5 649.41,-941.5 546.31,-941.5 546.31,-941.5 540.31,-941.5 534.31,-935.5 534.31,-929.5 534.31,-929.5 534.31,-887.5 534.31,-887.5 534.31,-881.5 540.31,-875.5 546.31,-875.5"/>
<text xml:space="preserve" text-anchor="middle" x="597.86" y="-926.3" font-family="Times,serif" font-size="14.00">type = OPERATOR</text>
<polyline fill="none" stroke="#964b00" points="534.31,-919.5 661.41,-919.5"/>
<text xml:space="preserve" text-anchor="middle" x="597.65" y="-904.3" font-family="Times,serif" font-size="14.00">val = 18(OP_CFB)</text>
<polyline fill="none" stroke="#964b00" points="534.31,-897.5 661.41,-897.5"/>
<text xml:space="preserve" text-anchor="middle" x="565.59" y="-882.3" font-family="Times,serif" font-size="14.00">L</text>
<polyline fill="none" stroke="#964b00" points="596.86,-875.5 596.86,-897.5"/>
<text xml:space="preserve" text-anchor="middle" x="629.03" y="-882.3" font-family="Times,serif" font-size="14.00">R</text>
</g>
<!-- node_0x606000009260&#45;&gt;node_0x606000009200 -->
<g id="edge1" class="edge">
<title>node_0x606000009260&#45;&gt;node_0x606000009200</title>
<path fill="none" stroke="#964b00" d="M597.86,-988.7C597.86,-977.05 597.86,-964.47 597.86,-952.84"/>
<polygon fill="#964b00" stroke="#964b00" points="594.36,-988.67 597.86,-998.67 601.36,-988.67 594.36,-988.67"/>
<polygon fill="#964b00" stroke="#964b00" points="601.36,-953.11 597.86,-943.11 594.36,-953.11 601.36,-953.11"/>
</g>
<!-- node_0x606000004a60 -->
<g id="node3" class="node">
<title>node_0x606000004a60</title>
<path fill="#00ffff" stroke="#964b00" d="M471.31,-750.5C471.31,-750.5 574.41,-750.5 574.41,-750.5 580.41,-750.5 586.41,-756.5 586.41,-762.5 586.41,-762.5 586.41,-804.5 586.41,-804.5 586.41,-810.5 580.41,-816.5 574.41,-816.5 574.41,-816.5 471.31,-816.5 471.31,-816.5 465.31,-816.5 459.31,-810.5 459.31,-804.5 459.31,-804.5 459.31,-762.5 459.31,-762.5 459.31,-756.5 465.31,-750.5 471.31,-750.5"/>
<text xml:space="preserve" text-anchor="middle" x="522.86" y="-801.3" font-family="Times,serif" font-size="14.00">type = OPERATOR</text>
<polyline fill="none" stroke="#964b00" points="459.31,-794.5 586.41,-794.5"/>
<text xml:space="preserve" text-anchor="middle" x="522.65" y="-779.3" font-family="Times,serif" font-size="14.00">val = 12(OP_IF)</text>
<polyline fill="none" stroke="#964b00" points="459.31,-772.5 586.41,-772.5"/>
<text xml:space="preserve" text-anchor="middle" x="490.59" y="-757.3" font-family="Times,serif" font-size="14.00">L</text>
<polyline fill="none" stroke="#964b00" points="521.86,-750.5 521.86,-772.5"/>
<text xml:space="preserve" text-anchor="middle" x="554.03" y="-757.3" font-family="Times,serif" font-size="14.00">R</text>
</g>
<!-- node_0x606000009200&#45;&gt;node_0x606000004a60 -->
<g id="edge2" class="edge">
<title>node_0x606000009200&#45;&gt;node_0x606000004a60</title>
<path fill="none" stroke="#964b00" d="M572.26,-865.52C564.56,-852.89 556.11,-839.04 548.42,-826.41"/>
<polygon fill="#964b00" stroke="#964b00" points="569.17,-867.18 577.37,-873.89 575.15,-863.53 569.17,-867.18"/>
<polygon fill="#964b00" stroke="#964b00" points="551.42,-824.61 543.22,-817.89 545.44,-828.25 551.42,-824.61"/>
</g>
<!-- node_0x606000005480 -->
<g id="node22" class="node">
<title>node_0x606000005480</title>
<path fill="#00ffff" stroke="#964b00" d="M626.03,-750.5C626.03,-750.5 731.69,-750.5 731.69,-750.5 737.69,-750.5 743.69,-756.5 743.69,-762.5 743.69,-762.5 743.69,-804.5 743.69,-804.5 743.69,-810.5 737.69,-816.5 731.69,-816.5 731.69,-816.5 626.03,-816.5 626.03,-816.5 620.03,-816.5 614.03,-810.5 614.03,-804.5 614.03,-804.5 614.03,-762.5 614.03,-762.5 614.03,-756.5 620.03,-750.5 626.03,-750.5"/>
<text xml:space="preserve" text-anchor="middle" x="678.58" y="-801.3" font-family="Times,serif" font-size="14.00">type = OPERATOR</text>
<polyline fill="none" stroke="#964b00" points="614.03,-794.5 743.69,-794.5"/>
<text xml:space="preserve" text-anchor="middle" x="678.86" y="-779.3" font-family="Times,serif" font-size="14.00">val = 13(OP_ELSE)</text>
<polyline fill="none" stroke="#964b00" points="614.03,-772.5 743.69,-772.5"/>
<text xml:space="preserve" text-anchor="middle" x="645.81" y="-757.3" font-family="Times,serif" font-size="14.00">L</text>
<polyline fill="none" stroke="#964b00" points="677.58,-750.5 677.58,-772.5"/>
<text xml:space="preserve" text-anchor="middle" x="710.25" y="-757.3" font-family="Times,serif" font-size="14.00">R</text>
</g>
<!-- node_0x606000009200&#45;&gt;node_0x606000005480 -->
<g id="edge21" class="edge">
<title>node_0x606000009200&#45;&gt;node_0x606000005480</title>
<path fill="none" stroke="#964b00" d="M625.21,-865.97C633.67,-853.13 642.98,-838.98 651.44,-826.13"/>
<polygon fill="#964b00" stroke="#964b00" points="622.55,-863.64 619.97,-873.92 628.4,-867.49 622.55,-863.64"/>
<polygon fill="#964b00" stroke="#964b00" points="654.31,-828.14 656.89,-817.87 648.47,-824.29 654.31,-828.14"/>
</g>
<!-- node_0x606000004b80 -->
<g id="node4" class="node">
<title>node_0x606000004b80</title>
<path fill="#00ffff" stroke="#964b00" d="M318.31,-625.5C318.31,-625.5 421.41,-625.5 421.41,-625.5 427.41,-625.5 433.41,-631.5 433.41,-637.5 433.41,-637.5 433.41,-679.5 433.41,-679.5 433.41,-685.5 427.41,-691.5 421.41,-691.5 421.41,-691.5 318.31,-691.5 318.31,-691.5 312.31,-691.5 306.31,-685.5 306.31,-679.5 306.31,-679.5 306.31,-637.5 306.31,-637.5 306.31,-631.5 312.31,-625.5 318.31,-625.5"/>
<text xml:space="preserve" text-anchor="middle" x="369.86" y="-676.3" font-family="Times,serif" font-size="14.00">type = OPERATOR</text>
<polyline fill="none" stroke="#964b00" points="306.31,-669.5 433.41,-669.5"/>
<text xml:space="preserve" text-anchor="middle" x="369.75" y="-654.3" font-family="Times,serif" font-size="14.00">val = 8(OP_EQ)</text>
<polyline fill="none" stroke="#964b00" points="306.31,-647.5 433.41,-647.5"/>
<text xml:space="preserve" text-anchor="middle" x="337.59" y="-632.3" font-family="Times,serif" font-size="14.00">L</text>
<polyline fill="none" stroke="#964b00" points="368.86,-625.5 368.86,-647.5"/>
<text xml:space="preserve" text-anchor="middle" x="401.03" y="-632.3" font-family="Times,serif" font-size="14.00">R</text>
</g>
<!-- node_0x606000004a60&#45;&gt;node_0x606000004b80 -->
<g id="edge3" class="edge">
<title>node_0x606000004a60&#45;&gt;node_0x606000004b80</title>
<path fill="none" stroke="#964b00" d="M473.75,-743.02C456.24,-728.94 436.51,-713.08 418.99,-699"/>
<polygon fill="#964b00" stroke="#964b00" points="471.5,-745.7 481.48,-749.23 475.88,-740.24 471.5,-745.7"/>
<polygon fill="#964b00" stroke="#964b00" points="421.22,-696.3 411.24,-692.76 416.84,-701.76 421.22,-696.3"/>
</g>
<!-- node_0x6060000091a0 -->
<g id="node7" class="node">
<title>node_0x6060000091a0</title>
<path fill="#00ffff" stroke="#964b00" d="M471.31,-625.5C471.31,-625.5 574.41,-625.5 574.41,-625.5 580.41,-625.5 586.41,-631.5 586.41,-637.5 586.41,-637.5 586.41,-679.5 586.41,-679.5 586.41,-685.5 580.41,-691.5 574.41,-691.5 574.41,-691.5 471.31,-691.5 471.31,-691.5 465.31,-691.5 459.31,-685.5 459.31,-679.5 459.31,-679.5 459.31,-637.5 459.31,-637.5 459.31,-631.5 465.31,-625.5 471.31,-625.5"/>
<text xml:space="preserve" text-anchor="middle" x="522.86" y="-676.3" font-family="Times,serif" font-size="14.00">type = OPERATOR</text>
<polyline fill="none" stroke="#964b00" points="459.31,-669.5 586.41,-669.5"/>
<text xml:space="preserve" text-anchor="middle" x="522.65" y="-654.3" font-family="Times,serif" font-size="14.00">val = 18(OP_CFB)</text>
<polyline fill="none" stroke="#964b00" points="459.31,-647.5 586.41,-647.5"/>
<text xml:space="preserve" text-anchor="middle" x="490.59" y="-632.3" font-family="Times,serif" font-size="14.00">L</text>
<polyline fill="none" stroke="#964b00" points="521.86,-625.5 521.86,-647.5"/>
<text xml:space="preserve" text-anchor="middle" x="554.03" y="-632.3" font-family="Times,serif" font-size="14.00">R</text>
</g>
<!-- node_0x606000004a60&#45;&gt;node_0x6060000091a0 -->
<g id="edge6" class="edge">
<title>node_0x606000004a60&#45;&gt;node_0x6060000091a0</title>
<path fill="none" stroke="#964b00" d="M522.86,-738.7C522.86,-727.05 522.86,-714.47 522.86,-702.84"/>
<polygon fill="#964b00" stroke="#964b00" points="519.36,-738.67 522.86,-748.67 526.36,-738.67 519.36,-738.67"/>
<polygon fill="#964b00" stroke="#964b00" points="526.36,-703.11 522.86,-693.11 519.36,-703.11 526.36,-703.11"/>
</g>
<!-- node_0x606000004b20 -->
<g id="node5" class="node">
<title>node_0x606000004b20</title>
<path fill="#daa520" stroke="#964b00" d="M168,-500.5C168,-500.5 267.72,-500.5 267.72,-500.5 273.72,-500.5 279.72,-506.5 279.72,-512.5 279.72,-512.5 279.72,-554.5 279.72,-554.5 279.72,-560.5 273.72,-566.5 267.72,-566.5 267.72,-566.5 168,-566.5 168,-566.5 162,-566.5 156,-560.5 156,-554.5 156,-554.5 156,-512.5 156,-512.5 156,-506.5 162,-500.5 168,-500.5"/>
<text xml:space="preserve" text-anchor="middle" x="217.86" y="-551.3" font-family="Times,serif" font-size="14.00">type = VARIABLE</text>
<polyline fill="none" stroke="#964b00" points="156,-544.5 279.72,-544.5"/>
<text xml:space="preserve" text-anchor="middle" x="217.5" y="-529.3" font-family="Times,serif" font-size="14.00">val = b</text>
<polyline fill="none" stroke="#964b00" points="156,-522.5 279.72,-522.5"/>
<text xml:space="preserve" text-anchor="middle" x="186.5" y="-507.3" font-family="Times,serif" font-size="14.00">0</text>
<polyline fill="none" stroke="#964b00" points="217,-500.5 217,-522.5"/>
<text xml:space="preserve" text-anchor="middle" x="248" y="-507.3" font-family="Times,serif" font-size="14.00">0</text>
</g>
<!-- node_0x606000004b80&#45;&gt;node_0x606000004b20 -->
<g id="edge4" class="edge">
<title>node_0x606000004b80&#45;&gt;node_0x606000004b20</title>
<path fill="none" stroke="#964b00" d="M321.07,-618.02C303.67,-603.94 284.08,-588.08 266.67,-574"/>
<polygon fill="#964b00" stroke="#964b00" points="318.77,-620.66 328.75,-624.23 323.18,-615.22 318.77,-620.66"/>
<polygon fill="#964b00" stroke="#964b00" points="268.95,-571.34 258.97,-567.77 264.54,-576.78 268.95,-571.34"/>
</g>
<!-- node_0x606000004be0 -->
<g id="node6" class="node">
<title>node_0x606000004be0</title>
<path fill="#98fb98" stroke="#964b00" d="M314.04,-500.5C314.04,-500.5 425.69,-500.5 425.69,-500.5 431.69,-500.5 437.69,-506.5 437.69,-512.5 437.69,-512.5 437.69,-554.5 437.69,-554.5 437.69,-560.5 431.69,-566.5 425.69,-566.5 425.69,-566.5 314.04,-566.5 314.04,-566.5 308.04,-566.5 302.04,-560.5 302.04,-554.5 302.04,-554.5 302.04,-512.5 302.04,-512.5 302.04,-506.5 308.04,-500.5 314.04,-500.5"/>
<text xml:space="preserve" text-anchor="middle" x="369.86" y="-551.3" font-family="Times,serif" font-size="14.00">type = CONST_VAR</text>
<polyline fill="none" stroke="#964b00" points="302.04,-544.5 437.69,-544.5"/>
<text xml:space="preserve" text-anchor="middle" x="369.54" y="-529.3" font-family="Times,serif" font-size="14.00">val = 0</text>
<polyline fill="none" stroke="#964b00" points="302.04,-522.5 437.69,-522.5"/>
<text xml:space="preserve" text-anchor="middle" x="335.54" y="-507.3" font-family="Times,serif" font-size="14.00">0</text>
<polyline fill="none" stroke="#964b00" points="369.04,-500.5 369.04,-522.5"/>
<text xml:space="preserve" text-anchor="middle" x="403.04" y="-507.3" font-family="Times,serif" font-size="14.00">0</text>
</g>
<!-- node_0x606000004b80&#45;&gt;node_0x606000004be0 -->
<g id="edge5" class="edge">
<title>node_0x606000004b80&#45;&gt;node_0x606000004be0</title>
<path fill="none" stroke="#964b00" d="M369.86,-613.7C369.86,-602.05 369.86,-589.47 369.86,-577.84"/>
<polygon fill="#964b00" stroke="#964b00" points="366.36,-613.67 369.86,-623.67 373.36,-613.67 366.36,-613.67"/>
<polygon fill="#964b00" stroke="#964b00" points="373.36,-578.11 369.86,-568.11 366.36,-578.11 373.36,-578.11"/>
</g>
<!-- node_0x606000009140 -->
<g id="node8" class="node">
<title>node_0x606000009140</title>
<path fill="#00ffff" stroke="#964b00" d="M471.31,-500.5C471.31,-500.5 574.41,-500.5 574.41,-500.5 580.41,-500.5 586.41,-506.5 586.41,-512.5 586.41,-512.5 586.41,-554.5 586.41,-554.5 586.41,-560.5 580.41,-566.5 574.41,-566.5 574.41,-566.5 471.31,-566.5 471.31,-566.5 465.31,-566.5 459.31,-560.5 459.31,-554.5 459.31,-554.5 459.31,-512.5 459.31,-512.5 459.31,-506.5 465.31,-500.5 471.31,-500.5"/>
<text xml:space="preserve" text-anchor="middle" x="522.86" y="-551.3" font-family="Times,serif" font-size="14.00">type = OPERATOR</text>
<polyline fill="none" stroke="#964b00" points="459.31,-544.5 586.41,-544.5"/>
<text xml:space="preserve" text-anchor="middle" x="522.65" y="-529.3" font-family="Times,serif" font-size="14.00">val = 18(OP_CFB)</text>
<polyline fill="none" stroke="#964b00" points="459.31,-522.5 586.41,-522.5"/>
<text xml:space="preserve" text-anchor="middle" x="490.59" y="-507.3" font-family="Times,serif" font-size="14.00">L</text>
<polyline fill="none" stroke="#964b00" points="521.86,-500.5 521.86,-522.5"/>
<text xml:space="preserve" text-anchor="middle" x="554.03" y="-507.3" font-family="Times,serif" font-size="14.00">R</text>
</g>
<!-- node_0x6060000091a0&#45;&gt;node_0x606000009140 -->
<g id="edge7" class="edge">
<title>node_0x6060000091a0&#45;&gt;node_0x606000009140</title>
<path fill="none" stroke="#964b00" d="M522.86,-613.7C522.86,-602.05 522.86,-589.47 522.86,-577.84"/>
<polygon fill="#964b00" stroke="#964b00" points="519.36,-613.67 522.86,-623.67 526.36,-613.67 519.36,-613.67"/>
<polygon fill="#964b00" stroke="#964b00" points="526.36,-578.11 522.86,-568.11 519.36,-578.11 526.36,-578.11"/>
</g>
<!-- node_0x606000004d00 -->
<g id="node9" class="node">
<title>node_0x606000004d00</title>
<path fill="#00ffff" stroke="#964b00" d="M315.31,-375.5C315.31,-375.5 418.41,-375.5 418.41,-375.5 424.41,-375.5 430.41,-381.5 430.41,-387.5 430.41,-387.5 430.41,-429.5 430.41,-429.5 430.41,-435.5 424.41,-441.5 418.41,-441.5 418.41,-441.5 315.31,-441.5 315.31,-441.5 309.31,-441.5 303.31,-435.5 303.31,-429.5 303.31,-429.5 303.31,-387.5 303.31,-387.5 303.31,-381.5 309.31,-375.5 315.31,-375.5"/>
<text xml:space="preserve" text-anchor="middle" x="366.86" y="-426.3" font-family="Times,serif" font-size="14.00">type = OPERATOR</text>
<polyline fill="none" stroke="#964b00" points="303.31,-419.5 430.41,-419.5"/>
<text xml:space="preserve" text-anchor="middle" x="366.65" y="-404.3" font-family="Times,serif" font-size="14.00">val = 12(OP_IF)</text>
<polyline fill="none" stroke="#964b00" points="303.31,-397.5 430.41,-397.5"/>
<text xml:space="preserve" text-anchor="middle" x="334.59" y="-382.3" font-family="Times,serif" font-size="14.00">L</text>
<polyline fill="none" stroke="#964b00" points="365.86,-375.5 365.86,-397.5"/>
<text xml:space="preserve" text-anchor="middle" x="398.03" y="-382.3" font-family="Times,serif" font-size="14.00">R</text>
</g>
<!-- node_0x606000009140&#45;&gt;node_0x606000004d00 -->
<g id="edge8" class="edge">
<title>node_0x606000009140&#45;&gt;node_0x606000004d00</title>
<path fill="none" stroke="#964b00" d="M473.07,-493.24C454.99,-478.99 434.57,-462.89 416.5,-448.64"/>
<polygon fill="#964b00" stroke="#964b00" points="470.66,-495.8 480.68,-499.25 475,-490.31 470.66,-495.8"/>
<polygon fill="#964b00" stroke="#964b00" points="419.05,-446.19 409.03,-442.75 414.72,-451.69 419.05,-446.19"/>
</g>
<!-- node_0x606000005180 -->
<g id="node17" class="node">
<title>node_0x606000005180</title>
<path fill="#00ffff" stroke="#964b00" d="M470.03,-375.5C470.03,-375.5 575.69,-375.5 575.69,-375.5 581.69,-375.5 587.69,-381.5 587.69,-387.5 587.69,-387.5 587.69,-429.5 587.69,-429.5 587.69,-435.5 581.69,-441.5 575.69,-441.5 575.69,-441.5 470.03,-441.5 470.03,-441.5 464.03,-441.5 458.03,-435.5 458.03,-429.5 458.03,-429.5 458.03,-387.5 458.03,-387.5 458.03,-381.5 464.03,-375.5 470.03,-375.5"/>
<text xml:space="preserve" text-anchor="middle" x="522.58" y="-426.3" font-family="Times,serif" font-size="14.00">type = OPERATOR</text>
<polyline fill="none" stroke="#964b00" points="458.03,-419.5 587.69,-419.5"/>
<text xml:space="preserve" text-anchor="middle" x="522.86" y="-404.3" font-family="Times,serif" font-size="14.00">val = 13(OP_ELSE)</text>
<polyline fill="none" stroke="#964b00" points="458.03,-397.5 587.69,-397.5"/>
<text xml:space="preserve" text-anchor="middle" x="489.81" y="-382.3" font-family="Times,serif" font-size="14.00">L</text>
<polyline fill="none" stroke="#964b00" points="521.58,-375.5 521.58,-397.5"/>
<text xml:space="preserve" text-anchor="middle" x="554.25" y="-382.3" font-family="Times,serif" font-size="14.00">R</text>
</g>
<!-- node_0x606000009140&#45;&gt;node_0x606000005180 -->
<g id="edge16" class="edge">
<title>node_0x606000009140&#45;&gt;node_0x606000005180</title>
<path fill="none" stroke="#964b00" d="M522.86,-488.7C522.86,-477.05 522.86,-464.47 522.86,-452.84"/>
<polygon fill="#964b00" stroke="#964b00" points="519.36,-488.67 522.86,-498.67 526.36,-488.67 519.36,-488.67"/>
<polygon fill="#964b00" stroke="#964b00" points="526.36,-453.11 522.86,-443.11 519.36,-453.11 526.36,-453.11"/>
</g>
<!-- node_0x606000004e20 -->
<g id="node10" class="node">
<title>node_0x606000004e20</title>
<path fill="#00ffff" stroke="#964b00" d="M162.31,-250.5C162.31,-250.5 265.41,-250.5 265.41,-250.5 271.41,-250.5 277.41,-256.5 277.41,-262.5 277.41,-262.5 277.41,-304.5 277.41,-304.5 277.41,-310.5 271.41,-316.5 265.41,-316.5 265.41,-316.5 162.31,-316.5 162.31,-316.5 156.31,-316.5 150.31,-310.5 150.31,-304.5 150.31,-304.5 150.31,-262.5 150.31,-262.5 150.31,-256.5 156.31,-250.5 162.31,-250.5"/>
<text xml:space="preserve" text-anchor="middle" x="213.86" y="-301.3" font-family="Times,serif" font-size="14.00">type = OPERATOR</text>
<polyline fill="none" stroke="#964b00" points="150.31,-294.5 277.41,-294.5"/>
<text xml:space="preserve" text-anchor="middle" x="213.75" y="-279.3" font-family="Times,serif" font-size="14.00">val = 8(OP_EQ)</text>
<polyline fill="none" stroke="#964b00" points="150.31,-272.5 277.41,-272.5"/>
<text xml:space="preserve" text-anchor="middle" x="181.59" y="-257.3" font-family="Times,serif" font-size="14.00">L</text>
<polyline fill="none" stroke="#964b00" points="212.86,-250.5 212.86,-272.5"/>
<text xml:space="preserve" text-anchor="middle" x="245.03" y="-257.3" font-family="Times,serif" font-size="14.00">R</text>
</g>
<!-- node_0x606000004d00&#45;&gt;node_0x606000004e20 -->
<g id="edge9" class="edge">
<title>node_0x606000004d00&#45;&gt;node_0x606000004e20</title>
<path fill="none" stroke="#964b00" d="M317.75,-368.02C300.24,-353.94 280.51,-338.08 262.99,-324"/>
<polygon fill="#964b00" stroke="#964b00" points="315.5,-370.7 325.48,-374.23 319.88,-365.24 315.5,-370.7"/>
<polygon fill="#964b00" stroke="#964b00" points="265.22,-321.3 255.24,-317.76 260.84,-326.76 265.22,-321.3"/>
</g>
<!-- node_0x6060000050c0 -->
<g id="node13" class="node">
<title>node_0x6060000050c0</title>
<path fill="#00ffff" stroke="#964b00" d="M315.31,-250.5C315.31,-250.5 418.41,-250.5 418.41,-250.5 424.41,-250.5 430.41,-256.5 430.41,-262.5 430.41,-262.5 430.41,-304.5 430.41,-304.5 430.41,-310.5 424.41,-316.5 418.41,-316.5 418.41,-316.5 315.31,-316.5 315.31,-316.5 309.31,-316.5 303.31,-310.5 303.31,-304.5 303.31,-304.5 303.31,-262.5 303.31,-262.5 303.31,-256.5 309.31,-250.5 315.31,-250.5"/>
<text xml:space="preserve" text-anchor="middle" x="366.86" y="-301.3" font-family="Times,serif" font-size="14.00">type = OPERATOR</text>
<polyline fill="none" stroke="#964b00" points="303.31,-294.5 430.41,-294.5"/>
<text xml:space="preserve" text-anchor="middle" x="366.45" y="-279.3" font-family="Times,serif" font-size="14.00">val = 11(OP_SP)</text>
<polyline fill="none" stroke="#964b00" points="303.31,-272.5 430.41,-272.5"/>
<text xml:space="preserve" text-anchor="middle" x="334.59" y="-257.3" font-family="Times,serif" font-size="14.00">L</text>
<polyline fill="none" stroke="#964b00" points="365.86,-250.5 365.86,-272.5"/>
<text xml:space="preserve" text-anchor="middle" x="398.03" y="-257.3" font-family="Times,serif" font-size="14.00">R</text>
</g>
<!-- node_0x606000004d00&#45;&gt;node_0x6060000050c0 -->
<g id="edge12" class="edge">
<title>node_0x606000004d00&#45;&gt;node_0x6060000050c0</title>
<path fill="none" stroke="#964b00" d="M366.86,-363.7C366.86,-352.05 366.86,-339.47 366.86,-327.84"/>
<polygon fill="#964b00" stroke="#964b00" points="363.36,-363.67 366.86,-373.67 370.36,-363.67 363.36,-363.67"/>
<polygon fill="#964b00" stroke="#964b00" points="370.36,-328.11 366.86,-318.11 363.36,-328.11 370.36,-328.11"/>
</g>
<!-- node_0x606000004dc0 -->
<g id="node11" class="node">
<title>node_0x606000004dc0</title>
<path fill="#daa520" stroke="#964b00" d="M12,-125.5C12,-125.5 111.72,-125.5 111.72,-125.5 117.72,-125.5 123.72,-131.5 123.72,-137.5 123.72,-137.5 123.72,-179.5 123.72,-179.5 123.72,-185.5 117.72,-191.5 111.72,-191.5 111.72,-191.5 12,-191.5 12,-191.5 6,-191.5 0,-185.5 0,-179.5 0,-179.5 0,-137.5 0,-137.5 0,-131.5 6,-125.5 12,-125.5"/>
<text xml:space="preserve" text-anchor="middle" x="61.86" y="-176.3" font-family="Times,serif" font-size="14.00">type = VARIABLE</text>
<polyline fill="none" stroke="#964b00" points="0,-169.5 123.72,-169.5"/>
<text xml:space="preserve" text-anchor="middle" x="61.61" y="-154.3" font-family="Times,serif" font-size="14.00">val = c</text>
<polyline fill="none" stroke="#964b00" points="0,-147.5 123.72,-147.5"/>
<text xml:space="preserve" text-anchor="middle" x="30.5" y="-132.3" font-family="Times,serif" font-size="14.00">0</text>
<polyline fill="none" stroke="#964b00" points="61,-125.5 61,-147.5"/>
<text xml:space="preserve" text-anchor="middle" x="92" y="-132.3" font-family="Times,serif" font-size="14.00">0</text>
</g>
<!-- node_0x606000004e20&#45;&gt;node_0x606000004dc0 -->
<g id="edge10" class="edge">
<title>node_0x606000004e20&#45;&gt;node_0x606000004dc0</title>
<path fill="none" stroke="#964b00" d="M165.07,-243.02C147.67,-228.94 128.08,-213.08 110.67,-199"/>
<polygon fill="#964b00" stroke="#964b00" points="162.77,-245.66 172.75,-249.23 167.18,-240.22 162.77,-245.66"/>
<polygon fill="#964b00" stroke="#964b00" points="112.95,-196.34 102.97,-192.77 108.54,-201.78 112.95,-196.34"/>
</g>
<!-- node_0x606000004e80 -->
<g id="node12" class="node">
<title>node_0x606000004e80</title>
<path fill="#98fb98" stroke="#964b00" d="M158.04,-125.5C158.04,-125.5 269.69,-125.5 269.69,-125.5 275.69,-125.5 281.69,-131.5 281.69,-137.5 281.69,-137.5 281.69,-179.5 281.69,-179.5 281.69,-185.5 275.69,-191.5 269.69,-191.5 269.69,-191.5 158.04,-191.5 158.04,-191.5 152.04,-191.5 146.04,-185.5 146.04,-179.5 146.04,-179.5 146.04,-137.5 146.04,-137.5 146.04,-131.5 152.04,-125.5 158.04,-125.5"/>
<text xml:space="preserve" text-anchor="middle" x="213.86" y="-176.3" font-family="Times,serif" font-size="14.00">type = CONST_VAR</text>
<polyline fill="none" stroke="#964b00" points="146.04,-169.5 281.69,-169.5"/>
<text xml:space="preserve" text-anchor="middle" x="213.54" y="-154.3" font-family="Times,serif" font-size="14.00">val = 0</text>
<polyline fill="none" stroke="#964b00" points="146.04,-147.5 281.69,-147.5"/>
<text xml:space="preserve" text-anchor="middle" x="179.54" y="-132.3" font-family="Times,serif" font-size="14.00">0</text>
<polyline fill="none" stroke="#964b00" points="213.04,-125.5 213.04,-147.5"/>
<text xml:space="preserve" text-anchor="middle" x="247.04" y="-132.3" font-family="Times,serif" font-size="14.00">0</text>
</g>
<!-- node_0x606000004e20&#45;&gt;node_0x606000004e80 -->
<g id="edge11" class="edge">
<title>node_0x606000004e20&#45;&gt;node_0x606000004e80</title>
<path fill="none" stroke="#964b00" d="M213.86,-238.7C213.86,-227.05 213.86,-214.47 213.86,-202.84"/>
<polygon fill="#964b00" stroke="#964b00" points="210.36,-238.67 213.86,-248.67 217.36,-238.67 210.36,-238.67"/>
<polygon fill="#964b00" stroke="#964b00" points="217.36,-203.11 213.86,-193.11 210.36,-203.11 217.36,-203.11"/>
</g>
<!-- node_0x606000005000 -->
<g id="node14" class="node">
<title>node_0x606000005000</title>
<path fill="#00ffff" stroke="#964b00" d="M315.31,-125.5C315.31,-125.5 418.41,-125.5 418.41,-125.5 424.41,-125.5 430.41,-131.5 430.41,-137.5 430.41,-137.5 430.41,-179.5 430.41,-179.5 430.41,-185.5 424.41,-191.5 418.41,-191.5 418.41,-191.5 315.31,-191.5 315.31,-191.5 309.31,-191.5 303.31,-185.5 303.31,-179.5 303.31,-179.5 303.31,-137.5 303.31,-137.5 303.31,-131.5 309.31,-125.5 315.31,-125.5"/>
<text xml:space="preserve" text-anchor="middle" x="366.86" y="-176.3" font-family="Times,serif" font-size="14.00">type = OPERATOR</text>
<polyline fill="none" stroke="#964b00" points="303.31,-169.5 430.41,-169.5"/>
<text xml:space="preserve" text-anchor="middle" x="366.76" y="-154.3" font-family="Times,serif" font-size="14.00">val = 7(OP_ASS)</text>
<polyline fill="none" stroke="#964b00" points="303.31,-147.5 430.41,-147.5"/>
<text xml:space="preserve" text-anchor="middle" x="334.59" y="-132.3" font-family="Times,serif" font-size="14.00">L</text>
<polyline fill="none" stroke="#964b00" points="365.86,-125.5 365.86,-147.5"/>
<text xml:space="preserve" text-anchor="middle" x="398.03" y="-132.3" font-family="Times,serif" font-size="14.00">R</text>
</g>
<!-- node_0x6060000050c0&#45;&gt;node_0x606000005000 -->
<g id="edge13" class="edge">
<title>node_0x6060000050c0&#45;&gt;node_0x606000005000</title>
<path fill="none" stroke="#964b00" d="M366.86,-238.7C366.86,-227.05 366.86,-214.47 366.86,-202.84"/>
<polygon fill="#964b00" stroke="#964b00" points="363.36,-238.67 366.86,-248.67 370.36,-238.67 363.36,-238.67"/>
<polygon fill="#964b00" stroke="#964b00" points="370.36,-203.11 366.86,-193.11 363.36,-203.11 370.36,-203.11"/>
</g>
<!-- node_0x606000004fa0 -->
<g id="node15" class="node">
<title>node_0x606000004fa0</title>
<path fill="#daa520" stroke="#964b00" d="M116.64,-0.5C116.64,-0.5 265.08,-0.5 265.08,-0.5 271.08,-0.5 277.08,-6.5 277.08,-12.5 277.08,-12.5 277.08,-54.5 277.08,-54.5 277.08,-60.5 271.08,-66.5 265.08,-66.5 265.08,-66.5 116.64,-66.5 116.64,-66.5 110.64,-66.5 104.64,-60.5 104.64,-54.5 104.64,-54.5 104.64,-12.5 104.64,-12.5 104.64,-6.5 110.64,-0.5 116.64,-0.5"/>
<text xml:space="preserve" text-anchor="middle" x="190.5" y="-51.3" font-family="Times,serif" font-size="14.00">type = VARIABLE</text>
<polyline fill="none" stroke="#964b00" points="104.64,-44.5 277.08,-44.5"/>
<text xml:space="preserve" text-anchor="middle" x="190.86" y="-29.3" font-family="Times,serif" font-size="14.00">val = quantaty_of_solutions</text>
<polyline fill="none" stroke="#964b00" points="104.64,-22.5 277.08,-22.5"/>
<text xml:space="preserve" text-anchor="middle" x="147.64" y="-7.3" font-family="Times,serif" font-size="14.00">0</text>
<polyline fill="none" stroke="#964b00" points="190.64,-0.5 190.64,-22.5"/>
<text xml:space="preserve" text-anchor="middle" x="233.64" y="-7.3" font-family="Times,serif" font-size="14.00">0</text>
</g>
<!-- node_0x606000005000&#45;&gt;node_0x606000004fa0 -->
<g id="edge14" class="edge">
<title>node_0x606000005000&#45;&gt;node_0x606000004fa0</title>
<path fill="none" stroke="#964b00" d="M311.32,-118.69C290.61,-104.21 267.11,-87.79 246.4,-73.31"/>
<polygon fill="#964b00" stroke="#964b00" points="309.18,-121.46 319.38,-124.32 313.19,-115.72 309.18,-121.46"/>
<polygon fill="#964b00" stroke="#964b00" points="248.54,-70.54 238.34,-67.68 244.53,-76.28 248.54,-70.54"/>
</g>
<!-- node_0x606000005060 -->
<g id="node16" class="node">
<title>node_0x606000005060</title>
<path fill="#98fb98" stroke="#964b00" d="M311.04,-0.5C311.04,-0.5 422.69,-0.5 422.69,-0.5 428.69,-0.5 434.69,-6.5 434.69,-12.5 434.69,-12.5 434.69,-54.5 434.69,-54.5 434.69,-60.5 428.69,-66.5 422.69,-66.5 422.69,-66.5 311.04,-66.5 311.04,-66.5 305.04,-66.5 299.04,-60.5 299.04,-54.5 299.04,-54.5 299.04,-12.5 299.04,-12.5 299.04,-6.5 305.04,-0.5 311.04,-0.5"/>
<text xml:space="preserve" text-anchor="middle" x="366.86" y="-51.3" font-family="Times,serif" font-size="14.00">type = CONST_VAR</text>
<polyline fill="none" stroke="#964b00" points="299.04,-44.5 434.69,-44.5"/>
<text xml:space="preserve" text-anchor="middle" x="366.54" y="-29.3" font-family="Times,serif" font-size="14.00">val = 8</text>
<polyline fill="none" stroke="#964b00" points="299.04,-22.5 434.69,-22.5"/>
<text xml:space="preserve" text-anchor="middle" x="332.54" y="-7.3" font-family="Times,serif" font-size="14.00">0</text>
<polyline fill="none" stroke="#964b00" points="366.04,-0.5 366.04,-22.5"/>
<text xml:space="preserve" text-anchor="middle" x="400.04" y="-7.3" font-family="Times,serif" font-size="14.00">0</text>
</g>
<!-- node_0x606000005000&#45;&gt;node_0x606000005060 -->
<g id="edge15" class="edge">
<title>node_0x606000005000&#45;&gt;node_0x606000005060</title>
<path fill="none" stroke="#964b00" d="M366.86,-113.7C366.86,-102.05 366.86,-89.47 366.86,-77.84"/>
<polygon fill="#964b00" stroke="#964b00" points="363.36,-113.67 366.86,-123.67 370.36,-113.67 363.36,-113.67"/>
<polygon fill="#964b00" stroke="#964b00" points="370.36,-78.11 366.86,-68.11 363.36,-78.11 370.36,-78.11"/>
</g>
<!-- node_0x606000005360 -->
<g id="node18" class="node">
<title>node_0x606000005360</title>
<path fill="#00ffff" stroke="#964b00" d="M484.31,-250.5C484.31,-250.5 587.41,-250.5 587.41,-250.5 593.41,-250.5 599.41,-256.5 599.41,-262.5 599.41,-262.5 599.41,-304.5 599.41,-304.5 599.41,-310.5 593.41,-316.5 587.41,-316.5 587.41,-316.5 484.31,-316.5 484.31,-316.5 478.31,-316.5 472.31,-310.5 472.31,-304.5 472.31,-304.5 472.31,-262.5 472.31,-262.5 472.31,-256.5 478.31,-250.5 484.31,-250.5"/>
<text xml:space="preserve" text-anchor="middle" x="535.86" y="-301.3" font-family="Times,serif" font-size="14.00">type = OPERATOR</text>
<polyline fill="none" stroke="#964b00" points="472.31,-294.5 599.41,-294.5"/>
<text xml:space="preserve" text-anchor="middle" x="535.45" y="-279.3" font-family="Times,serif" font-size="14.00">val = 11(OP_SP)</text>
<polyline fill="none" stroke="#964b00" points="472.31,-272.5 599.41,-272.5"/>
<text xml:space="preserve" text-anchor="middle" x="503.59" y="-257.3" font-family="Times,serif" font-size="14.00">L</text>
<polyline fill="none" stroke="#964b00" points="534.86,-250.5 534.86,-272.5"/>
<text xml:space="preserve" text-anchor="middle" x="567.03" y="-257.3" font-family="Times,serif" font-size="14.00">R</text>
</g>
<!-- node_0x606000005180&#45;&gt;node_0x606000005360 -->
<g id="edge17" class="edge">
<title>node_0x606000005180&#45;&gt;node_0x606000005360</title>
<path fill="none" stroke="#964b00" d="M527.44,-364.15C528.68,-352.41 530.03,-339.7 531.27,-327.96"/>
<polygon fill="#964b00" stroke="#964b00" points="524.01,-363.37 526.44,-373.68 530.97,-364.1 524.01,-363.37"/>
<polygon fill="#964b00" stroke="#964b00" points="534.74,-328.42 532.31,-318.11 527.78,-327.68 534.74,-328.42"/>
</g>
<!-- node_0x6060000052a0 -->
<g id="node19" class="node">
<title>node_0x6060000052a0</title>
<path fill="#00ffff" stroke="#964b00" d="M491.31,-125.5C491.31,-125.5 594.41,-125.5 594.41,-125.5 600.41,-125.5 606.41,-131.5 606.41,-137.5 606.41,-137.5 606.41,-179.5 606.41,-179.5 606.41,-185.5 600.41,-191.5 594.41,-191.5 594.41,-191.5 491.31,-191.5 491.31,-191.5 485.31,-191.5 479.31,-185.5 479.31,-179.5 479.31,-179.5 479.31,-137.5 479.31,-137.5 479.31,-131.5 485.31,-125.5 491.31,-125.5"/>
<text xml:space="preserve" text-anchor="middle" x="542.86" y="-176.3" font-family="Times,serif" font-size="14.00">type = OPERATOR</text>
<polyline fill="none" stroke="#964b00" points="479.31,-169.5 606.41,-169.5"/>
<text xml:space="preserve" text-anchor="middle" x="542.76" y="-154.3" font-family="Times,serif" font-size="14.00">val = 7(OP_ASS)</text>
<polyline fill="none" stroke="#964b00" points="479.31,-147.5 606.41,-147.5"/>
<text xml:space="preserve" text-anchor="middle" x="510.59" y="-132.3" font-family="Times,serif" font-size="14.00">L</text>
<polyline fill="none" stroke="#964b00" points="541.86,-125.5 541.86,-147.5"/>
<text xml:space="preserve" text-anchor="middle" x="574.03" y="-132.3" font-family="Times,serif" font-size="14.00">R</text>
</g>
<!-- node_0x606000005360&#45;&gt;node_0x6060000052a0 -->
<g id="edge18" class="edge">
<title>node_0x606000005360&#45;&gt;node_0x6060000052a0</title>
<path fill="none" stroke="#964b00" d="M538.35,-238.7C539.02,-227.05 539.73,-214.47 540.39,-202.84"/>
<polygon fill="#964b00" stroke="#964b00" points="534.86,-238.49 537.79,-248.67 541.85,-238.89 534.86,-238.49"/>
<polygon fill="#964b00" stroke="#964b00" points="543.87,-203.29 540.95,-193.11 536.88,-202.9 543.87,-203.29"/>
</g>
<!-- node_0x606000005240 -->
<g id="node20" class="node">
<title>node_0x606000005240</title>
<path fill="#daa520" stroke="#964b00" d="M468.64,-0.5C468.64,-0.5 617.08,-0.5 617.08,-0.5 623.08,-0.5 629.08,-6.5 629.08,-12.5 629.08,-12.5 629.08,-54.5 629.08,-54.5 629.08,-60.5 623.08,-66.5 617.08,-66.5 617.08,-66.5 468.64,-66.5 468.64,-66.5 462.64,-66.5 456.64,-60.5 456.64,-54.5 456.64,-54.5 456.64,-12.5 456.64,-12.5 456.64,-6.5 462.64,-0.5 468.64,-0.5"/>
<text xml:space="preserve" text-anchor="middle" x="542.5" y="-51.3" font-family="Times,serif" font-size="14.00">type = VARIABLE</text>
<polyline fill="none" stroke="#964b00" points="456.64,-44.5 629.08,-44.5"/>
<text xml:space="preserve" text-anchor="middle" x="542.86" y="-29.3" font-family="Times,serif" font-size="14.00">val = quantaty_of_solutions</text>
<polyline fill="none" stroke="#964b00" points="456.64,-22.5 629.08,-22.5"/>
<text xml:space="preserve" text-anchor="middle" x="499.64" y="-7.3" font-family="Times,serif" font-size="14.00">0</text>
<polyline fill="none" stroke="#964b00" points="542.64,-0.5 542.64,-22.5"/>
<text xml:space="preserve" text-anchor="middle" x="585.64" y="-7.3" font-family="Times,serif" font-size="14.00">0</text>
</g>
<!-- node_0x6060000052a0&#45;&gt;node_0x606000005240 -->
<g id="edge19" class="edge">
<title>node_0x6060000052a0&#45;&gt;node_0x606000005240</title>
<path fill="none" stroke="#964b00" d="M542.86,-113.7C542.86,-102.05 542.86,-89.47 542.86,-77.84"/>
<polygon fill="#964b00" stroke="#964b00" points="539.36,-113.67 542.86,-123.67 546.36,-113.67 539.36,-113.67"/>
<polygon fill="#964b00" stroke="#964b00" points="546.36,-78.11 542.86,-68.11 539.36,-78.11 546.36,-78.11"/>
</g>
<!-- node_0x606000005300 -->
<g id="node21" class="node">
<title>node_0x606000005300</title>
<path fill="#98fb98" stroke="#964b00" d="M663.04,-0.5C663.04,-0.5 774.69,-0.5 774.69,-0.5 780.69,-0.5 786.69,-6.5 786.69,-12.5 786.69,-12.5 786.69,-54.5 786.69,-54.5 786.69,-60.5 780.69,-66.5 774.69,-66.5 774.69,-66.5 663.04,-66.5 663.04,-66.5 657.04,-66.5 651.04,-60.5 651.04,-54.5 651.04,-54.5 651.04,-12.5 651.04,-12.5 651.04,-6.5 657.04,-0.5 663.04,-0.5"/>
<text xml:space="preserve" text-anchor="middle" x="718.86" y="-51.3" font-family="Times,serif" font-size="14.00">type = CONST_VAR</text>
<polyline fill="none" stroke="#964b00" points="651.04,-44.5 786.69,-44.5"/>
<text xml:space="preserve" text-anchor="middle" x="718.54" y="-29.3" font-family="Times,serif" font-size="14.00">val = 0</text>
<polyline fill="none" stroke="#964b00" points="651.04,-22.5 786.69,-22.5"/>
<text xml:space="preserve" text-anchor="middle" x="684.54" y="-7.3" font-family="Times,serif" font-size="14.00">0</text>
<polyline fill="none" stroke="#964b00" points="718.04,-0.5 718.04,-22.5"/>
<text xml:space="preserve" text-anchor="middle" x="752.04" y="-7.3" font-family="Times,serif" font-size="14.00">0</text>
</g>
<!-- node_0x6060000052a0&#45;&gt;node_0x606000005300 -->
<g id="edge20" class="edge">
<title>node_0x6060000052a0&#45;&gt;node_0x606000005300</title>
<path fill="none" stroke="#964b00" d="M598.4,-118.69C619.11,-104.21 642.61,-87.79 663.32,-73.31"/>
<polygon fill="#964b00" stroke="#964b00" points="596.53,-115.72 590.34,-124.32 600.54,-121.46 596.53,-115.72"/>
<polygon fill="#964b00" stroke="#964b00" points="665.19,-76.28 671.38,-67.68 661.18,-70.54 665.19,-76.28"/>
</g>
<!-- node_0x606000005660 -->
<g id="node23" class="node">
<title>node_0x606000005660</title>
<path fill="#00ffff" stroke="#964b00" d="M638.31,-625.5C638.31,-625.5 741.41,-625.5 741.41,-625.5 747.41,-625.5 753.41,-631.5 753.41,-637.5 753.41,-637.5 753.41,-679.5 753.41,-679.5 753.41,-685.5 747.41,-691.5 741.41,-691.5 741.41,-691.5 638.31,-691.5 638.31,-691.5 632.31,-691.5 626.31,-685.5 626.31,-679.5 626.31,-679.5 626.31,-637.5 626.31,-637.5 626.31,-631.5 632.31,-625.5 638.31,-625.5"/>
<text xml:space="preserve" text-anchor="middle" x="689.86" y="-676.3" font-family="Times,serif" font-size="14.00">type = OPERATOR</text>
<polyline fill="none" stroke="#964b00" points="626.31,-669.5 753.41,-669.5"/>
<text xml:space="preserve" text-anchor="middle" x="689.45" y="-654.3" font-family="Times,serif" font-size="14.00">val = 11(OP_SP)</text>
<polyline fill="none" stroke="#964b00" points="626.31,-647.5 753.41,-647.5"/>
<text xml:space="preserve" text-anchor="middle" x="657.59" y="-632.3" font-family="Times,serif" font-size="14.00">L</text>
<polyline fill="none" stroke="#964b00" points="688.86,-625.5 688.86,-647.5"/>
<text xml:space="preserve" text-anchor="middle" x="721.03" y="-632.3" font-family="Times,serif" font-size="14.00">R</text>
</g>
<!-- node_0x606000005480&#45;&gt;node_0x606000005660 -->
<g id="edge22" class="edge">
<title>node_0x606000005480&#45;&gt;node_0x606000005660</title>
<path fill="none" stroke="#964b00" d="M682.74,-739.15C683.79,-727.41 684.92,-714.7 685.97,-702.96"/>
<polygon fill="#964b00" stroke="#964b00" points="679.29,-738.4 681.89,-748.68 686.26,-739.03 679.29,-738.4"/>
<polygon fill="#964b00" stroke="#964b00" points="689.45,-703.38 686.85,-693.11 682.48,-702.76 689.45,-703.38"/>
</g>
<!-- node_0x6060000055a0 -->
<g id="node24" class="node">
<title>node_0x6060000055a0</title>
<path fill="#00ffff" stroke="#964b00" d="M644.31,-500.5C644.31,-500.5 747.41,-500.5 747.41,-500.5 753.41,-500.5 759.41,-506.5 759.41,-512.5 759.41,-512.5 759.41,-554.5 759.41,-554.5 759.41,-560.5 753.41,-566.5 747.41,-566.5 747.41,-566.5 644.31,-566.5 644.31,-566.5 638.31,-566.5 632.31,-560.5 632.31,-554.5 632.31,-554.5 632.31,-512.5 632.31,-512.5 632.31,-506.5 638.31,-500.5 644.31,-500.5"/>
<text xml:space="preserve" text-anchor="middle" x="695.86" y="-551.3" font-family="Times,serif" font-size="14.00">type = OPERATOR</text>
<polyline fill="none" stroke="#964b00" points="632.31,-544.5 759.41,-544.5"/>
<text xml:space="preserve" text-anchor="middle" x="695.76" y="-529.3" font-family="Times,serif" font-size="14.00">val = 7(OP_ASS)</text>
<polyline fill="none" stroke="#964b00" points="632.31,-522.5 759.41,-522.5"/>
<text xml:space="preserve" text-anchor="middle" x="663.59" y="-507.3" font-family="Times,serif" font-size="14.00">L</text>
<polyline fill="none" stroke="#964b00" points="694.86,-500.5 694.86,-522.5"/>
<text xml:space="preserve" text-anchor="middle" x="727.03" y="-507.3" font-family="Times,serif" font-size="14.00">R</text>
</g>
<!-- node_0x606000005660&#45;&gt;node_0x6060000055a0 -->
<g id="edge23" class="edge">
<title>node_0x606000005660&#45;&gt;node_0x6060000055a0</title>
<path fill="none" stroke="#964b00" d="M692,-613.7C692.57,-602.05 693.18,-589.47 693.75,-577.84"/>
<polygon fill="#964b00" stroke="#964b00" points="688.5,-613.51 691.51,-623.67 695.49,-613.85 688.5,-613.51"/>
<polygon fill="#964b00" stroke="#964b00" points="697.23,-578.27 694.22,-568.11 690.24,-577.93 697.23,-578.27"/>
</g>
<!-- node_0x606000005540 -->
<g id="node25" class="node">
<title>node_0x606000005540</title>
<path fill="#daa520" stroke="#964b00" d="M621.64,-375.5C621.64,-375.5 770.08,-375.5 770.08,-375.5 776.08,-375.5 782.08,-381.5 782.08,-387.5 782.08,-387.5 782.08,-429.5 782.08,-429.5 782.08,-435.5 776.08,-441.5 770.08,-441.5 770.08,-441.5 621.64,-441.5 621.64,-441.5 615.64,-441.5 609.64,-435.5 609.64,-429.5 609.64,-429.5 609.64,-387.5 609.64,-387.5 609.64,-381.5 615.64,-375.5 621.64,-375.5"/>
<text xml:space="preserve" text-anchor="middle" x="695.5" y="-426.3" font-family="Times,serif" font-size="14.00">type = VARIABLE</text>
<polyline fill="none" stroke="#964b00" points="609.64,-419.5 782.08,-419.5"/>
<text xml:space="preserve" text-anchor="middle" x="695.86" y="-404.3" font-family="Times,serif" font-size="14.00">val = quantaty_of_solutions</text>
<polyline fill="none" stroke="#964b00" points="609.64,-397.5 782.08,-397.5"/>
<text xml:space="preserve" text-anchor="middle" x="652.64" y="-382.3" font-family="Times,serif" font-size="14.00">0</text>
<polyline fill="none" stroke="#964b00" points="695.64,-375.5 695.64,-397.5"/>
<text xml:space="preserve" text-anchor="middle" x="738.64" y="-382.3" font-family="Times,serif" font-size="14.00">0</text>
</g>
<!-- node_0x6060000055a0&#45;&gt;node_0x606000005540 -->
<g id="edge24" class="edge">
<title>node_0x6060000055a0&#45;&gt;node_0x606000005540</title>
<path fill="none" stroke="#964b00" d="M695.86,-488.7C695.86,-477.05 695.86,-464.47 695.86,-452.84"/>
<polygon fill="#964b00" stroke="#964b00" points="692.36,-488.67 695.86,-498.67 699.36,-488.67 692.36,-488.67"/>
<polygon fill="#964b00" stroke="#964b00" points="699.36,-453.11 695.86,-443.11 692.36,-453.11 699.36,-453.11"/>
</g>
<!-- node_0x606000005600 -->
<g id="node26" class="node">
<title>node_0x606000005600</title>
<path fill="#98fb98" stroke="#964b00" d="M816.04,-375.5C816.04,-375.5 927.69,-375.5 927.69,-375.5 933.69,-375.5 939.69,-381.5 939.69,-387.5 939.69,-387.5 939.69,-429.5 939.69,-429.5 939.69,-435.5 933.69,-441.5 927.69,-441.5 927.69,-441.5 816.04,-441.5 816.04,-441.5 810.04,-441.5 804.04,-435.5 804.04,-429.5 804.04,-429.5 804.04,-387.5 804.04,-387.5 804.04,-381.5 810.04,-375.5 816.04,-375.5"/>
<text xml:space="preserve" text-anchor="middle" x="871.86" y="-426.3" font-family="Times,serif" font-size="14.00">type = CONST_VAR</text>
<polyline fill="none" stroke="#964b00" points="804.04,-419.5 939.69,-419.5"/>
<text xml:space="preserve" text-anchor="middle" x="871.54" y="-404.3" font-family="Times,serif" font-size="14.00">val = 1</text>
<polyline fill="none" stroke="#964b00" points="804.04,-397.5 939.69,-397.5"/>
<text xml:space="preserve" text-anchor="middle" x="837.54" y="-382.3" font-family="Times,serif" font-size="14.00">0</text>
<polyline fill="none" stroke="#964b00" points="871.04,-375.5 871.04,-397.5"/>
<text xml:space="preserve" text-anchor="middle" x="905.04" y="-382.3" font-family="Times,serif" font-size="14.00">0</text>
</g>
<!-- node_0x6060000055a0&#45;&gt;node_0x606000005600 -->
<g id="edge25" class="edge">
<title>node_0x6060000055a0&#45;&gt;node_0x606000005600</title>
<path fill="none" stroke="#964b00" d="M751.4,-493.69C772.11,-479.21 795.61,-462.79 816.32,-448.31"/>
<polygon fill="#964b00" stroke="#964b00" points="749.53,-490.72 743.34,-499.32 753.54,-496.46 749.53,-490.72"/>
<polygon fill="#964b00" stroke="#964b00" points="818.19,-451.28 824.38,-442.68 814.18,-445.54 818.19,-451.28"/>
</g>
</g>
</svg>
