<?xml version="1.0" encoding="UTF-8" standalone="no"?>
<!DOCTYPE svg PUBLIC "-//W3C//DTD SVG 1.1//EN"
 "http://www.w3.org/Graphics/SVG/1.1/DTD/svg11.dtd">
<!-- Generated by graphviz version 14.0.2 (20251019.1705)
 -->
<!-- Title: G Pages: 1 -->
<svg width="1018pt" height="1325pt"
 viewBox="0.00 0.00 1018.00 1325.00" xmlns="http://www.w3.org/2000/svg" xmlns:xlink="http://www.w3.org/1999/xlink">
<g id="graph0" class="graph" transform="scale(1 1) rotate(0) translate(4 1321)">
<title>G</title>
<polygon fill="#fffafa" stroke="none" points="-4,4 -4,-1321 1013.69,-1321 1013.69,4 -4,4"/>
<!-- node_0x606000001ee0 -->
<g id="node1" class="node">
<title>node_0x606000001ee0</title>
<path fill="#00ffff" stroke="#964b00" d="M242.31,-1250.5C242.31,-1250.5 345.41,-1250.5 345.41,-1250.5 351.41,-1250.5 357.41,-1256.5 357.41,-1262.5 357.41,-1262.5 357.41,-1304.5 357.41,-1304.5 357.41,-1310.5 351.41,-1316.5 345.41,-1316.5 345.41,-1316.5 242.31,-1316.5 242.31,-1316.5 236.31,-1316.5 230.31,-1310.5 230.31,-1304.5 230.31,-1304.5 230.31,-1262.5 230.31,-1262.5 230.31,-1256.5 236.31,-1250.5 242.31,-1250.5"/>
<text xml:space="preserve" text-anchor="middle" x="293.86" y="-1301.3" font-family="Times,serif" font-size="14.00">type = OPERATOR</text>
<polyline fill="none" stroke="#964b00" points="230.31,-1294.5 357.41,-1294.5"/>
<text xml:space="preserve" text-anchor="middle" x="293.65" y="-1279.3" font-family="Times,serif" font-size="14.00">val = 18(OP_CFB)</text>
<polyline fill="none" stroke="#964b00" points="230.31,-1272.5 357.41,-1272.5"/>
<text xml:space="preserve" text-anchor="middle" x="261.59" y="-1257.3" font-family="Times,serif" font-size="14.00">L</text>
<polyline fill="none" stroke="#964b00" points="292.86,-1250.5 292.86,-1272.5"/>
<text xml:space="preserve" text-anchor="middle" x="325.03" y="-1257.3" font-family="Times,serif" font-size="14.00">R</text>
</g>
<!-- node_0x606000000320 -->
<g id="node2" class="node">
<title>node_0x606000000320</title>
<path fill="#a7a7f2" stroke="#964b00" d="M211.12,-1125.5C211.12,-1125.5 376.6,-1125.5 376.6,-1125.5 382.6,-1125.5 388.6,-1131.5 388.6,-1137.5 388.6,-1137.5 388.6,-1179.5 388.6,-1179.5 388.6,-1185.5 382.6,-1191.5 376.6,-1191.5 376.6,-1191.5 211.12,-1191.5 211.12,-1191.5 205.12,-1191.5 199.12,-1185.5 199.12,-1179.5 199.12,-1179.5 199.12,-1137.5 199.12,-1137.5 199.12,-1131.5 205.12,-1125.5 211.12,-1125.5"/>
<text xml:space="preserve" text-anchor="middle" x="293.5" y="-1176.3" font-family="Times,serif" font-size="14.00">type = FUNCTION</text>
<polyline fill="none" stroke="#964b00" points="199.12,-1169.5 388.6,-1169.5"/>
<text xml:space="preserve" text-anchor="middle" x="293.86" y="-1154.3" font-family="Times,serif" font-size="14.00">val = Che_grande_cazzo_main</text>
<polyline fill="none" stroke="#964b00" points="199.12,-1147.5 388.6,-1147.5"/>
<text xml:space="preserve" text-anchor="middle" x="246.12" y="-1132.3" font-family="Times,serif" font-size="14.00">0</text>
<polyline fill="none" stroke="#964b00" points="293.12,-1125.5 293.12,-1147.5"/>
<text xml:space="preserve" text-anchor="middle" x="340.62" y="-1132.3" font-family="Times,serif" font-size="14.00">0</text>
</g>
<!-- node_0x606000001ee0&#45;&gt;node_0x606000000320 -->
<g id="edge1" class="edge">
<title>node_0x606000001ee0&#45;&gt;node_0x606000000320</title>
<path fill="none" stroke="#964b00" d="M293.86,-1238.7C293.86,-1227.05 293.86,-1214.47 293.86,-1202.84"/>
<polygon fill="#964b00" stroke="#964b00" points="290.36,-1238.67 293.86,-1248.67 297.36,-1238.67 290.36,-1238.67"/>
<polygon fill="#964b00" stroke="#964b00" points="297.36,-1203.11 293.86,-1193.11 290.36,-1203.11 297.36,-1203.11"/>
</g>
<!-- node_0x6060000005c0 -->
<g id="node3" class="node">
<title>node_0x6060000005c0</title>
<path fill="#00ffff" stroke="#964b00" d="M242.31,-1000.5C242.31,-1000.5 345.41,-1000.5 345.41,-1000.5 351.41,-1000.5 357.41,-1006.5 357.41,-1012.5 357.41,-1012.5 357.41,-1054.5 357.41,-1054.5 357.41,-1060.5 351.41,-1066.5 345.41,-1066.5 345.41,-1066.5 242.31,-1066.5 242.31,-1066.5 236.31,-1066.5 230.31,-1060.5 230.31,-1054.5 230.31,-1054.5 230.31,-1012.5 230.31,-1012.5 230.31,-1006.5 236.31,-1000.5 242.31,-1000.5"/>
<text xml:space="preserve" text-anchor="middle" x="293.86" y="-1051.3" font-family="Times,serif" font-size="14.00">type = OPERATOR</text>
<polyline fill="none" stroke="#964b00" points="230.31,-1044.5 357.41,-1044.5"/>
<text xml:space="preserve" text-anchor="middle" x="293.45" y="-1029.3" font-family="Times,serif" font-size="14.00">val = 11(OP_SP)</text>
<polyline fill="none" stroke="#964b00" points="230.31,-1022.5 357.41,-1022.5"/>
<text xml:space="preserve" text-anchor="middle" x="261.59" y="-1007.3" font-family="Times,serif" font-size="14.00">L</text>
<polyline fill="none" stroke="#964b00" points="292.86,-1000.5 292.86,-1022.5"/>
<text xml:space="preserve" text-anchor="middle" x="325.03" y="-1007.3" font-family="Times,serif" font-size="14.00">R</text>
</g>
<!-- node_0x606000000320&#45;&gt;node_0x6060000005c0 -->
<g id="edge2" class="edge">
<title>node_0x606000000320&#45;&gt;node_0x6060000005c0</title>
<path fill="none" stroke="#964b00" d="M293.86,-1113.7C293.86,-1102.05 293.86,-1089.47 293.86,-1077.84"/>
<polygon fill="#964b00" stroke="#964b00" points="290.36,-1113.67 293.86,-1123.67 297.36,-1113.67 290.36,-1113.67"/>
<polygon fill="#964b00" stroke="#964b00" points="297.36,-1078.11 293.86,-1068.11 290.36,-1078.11 297.36,-1078.11"/>
</g>
<!-- node_0x606000000500 -->
<g id="node4" class="node">
<title>node_0x606000000500</title>
<path fill="#00ffff" stroke="#964b00" d="M162.31,-875.5C162.31,-875.5 265.41,-875.5 265.41,-875.5 271.41,-875.5 277.41,-881.5 277.41,-887.5 277.41,-887.5 277.41,-929.5 277.41,-929.5 277.41,-935.5 271.41,-941.5 265.41,-941.5 265.41,-941.5 162.31,-941.5 162.31,-941.5 156.31,-941.5 150.31,-935.5 150.31,-929.5 150.31,-929.5 150.31,-887.5 150.31,-887.5 150.31,-881.5 156.31,-875.5 162.31,-875.5"/>
<text xml:space="preserve" text-anchor="middle" x="213.86" y="-926.3" font-family="Times,serif" font-size="14.00">type = OPERATOR</text>
<polyline fill="none" stroke="#964b00" points="150.31,-919.5 277.41,-919.5"/>
<text xml:space="preserve" text-anchor="middle" x="213.41" y="-904.3" font-family="Times,serif" font-size="14.00">val = 6(OP_INIT)</text>
<polyline fill="none" stroke="#964b00" points="150.31,-897.5 277.41,-897.5"/>
<text xml:space="preserve" text-anchor="middle" x="181.59" y="-882.3" font-family="Times,serif" font-size="14.00">L</text>
<polyline fill="none" stroke="#964b00" points="212.86,-875.5 212.86,-897.5"/>
<text xml:space="preserve" text-anchor="middle" x="245.03" y="-882.3" font-family="Times,serif" font-size="14.00">R</text>
</g>
<!-- node_0x6060000005c0&#45;&gt;node_0x606000000500 -->
<g id="edge3" class="edge">
<title>node_0x6060000005c0&#45;&gt;node_0x606000000500</title>
<path fill="none" stroke="#964b00" d="M266.85,-990.97C258.5,-978.13 249.3,-963.98 240.94,-951.13"/>
<polygon fill="#964b00" stroke="#964b00" points="263.63,-992.44 272.02,-998.91 269.5,-988.62 263.63,-992.44"/>
<polygon fill="#964b00" stroke="#964b00" points="243.95,-949.34 235.56,-942.87 238.08,-953.16 243.95,-949.34"/>
</g>
<!-- node_0x606000001e80 -->
<g id="node7" class="node">
<title>node_0x606000001e80</title>
<path fill="#00ffff" stroke="#964b00" d="M322.31,-875.5C322.31,-875.5 425.41,-875.5 425.41,-875.5 431.41,-875.5 437.41,-881.5 437.41,-887.5 437.41,-887.5 437.41,-929.5 437.41,-929.5 437.41,-935.5 431.41,-941.5 425.41,-941.5 425.41,-941.5 322.31,-941.5 322.31,-941.5 316.31,-941.5 310.31,-935.5 310.31,-929.5 310.31,-929.5 310.31,-887.5 310.31,-887.5 310.31,-881.5 316.31,-875.5 322.31,-875.5"/>
<text xml:space="preserve" text-anchor="middle" x="373.86" y="-926.3" font-family="Times,serif" font-size="14.00">type = OPERATOR</text>
<polyline fill="none" stroke="#964b00" points="310.31,-919.5 437.41,-919.5"/>
<text xml:space="preserve" text-anchor="middle" x="373.65" y="-904.3" font-family="Times,serif" font-size="14.00">val = 18(OP_CFB)</text>
<polyline fill="none" stroke="#964b00" points="310.31,-897.5 437.41,-897.5"/>
<text xml:space="preserve" text-anchor="middle" x="341.59" y="-882.3" font-family="Times,serif" font-size="14.00">L</text>
<polyline fill="none" stroke="#964b00" points="372.86,-875.5 372.86,-897.5"/>
<text xml:space="preserve" text-anchor="middle" x="405.03" y="-882.3" font-family="Times,serif" font-size="14.00">R</text>
</g>
<!-- node_0x6060000005c0&#45;&gt;node_0x606000001e80 -->
<g id="edge6" class="edge">
<title>node_0x6060000005c0&#45;&gt;node_0x606000001e80</title>
<path fill="none" stroke="#964b00" d="M320.87,-990.97C329.22,-978.13 338.43,-963.98 346.78,-951.13"/>
<polygon fill="#964b00" stroke="#964b00" points="318.22,-988.62 315.7,-998.91 324.09,-992.44 318.22,-988.62"/>
<polygon fill="#964b00" stroke="#964b00" points="349.64,-953.16 352.16,-942.87 343.77,-949.34 349.64,-953.16"/>
</g>
<!-- node_0x6060000004a0 -->
<g id="node5" class="node">
<title>node_0x6060000004a0</title>
<path fill="#daa520" stroke="#964b00" d="M12,-750.5C12,-750.5 111.72,-750.5 111.72,-750.5 117.72,-750.5 123.72,-756.5 123.72,-762.5 123.72,-762.5 123.72,-804.5 123.72,-804.5 123.72,-810.5 117.72,-816.5 111.72,-816.5 111.72,-816.5 12,-816.5 12,-816.5 6,-816.5 0,-810.5 0,-804.5 0,-804.5 0,-762.5 0,-762.5 0,-756.5 6,-750.5 12,-750.5"/>
<text xml:space="preserve" text-anchor="middle" x="61.86" y="-801.3" font-family="Times,serif" font-size="14.00">type = VARIABLE</text>
<polyline fill="none" stroke="#964b00" points="0,-794.5 123.72,-794.5"/>
<text xml:space="preserve" text-anchor="middle" x="61.5" y="-779.3" font-family="Times,serif" font-size="14.00">val = n</text>
<polyline fill="none" stroke="#964b00" points="0,-772.5 123.72,-772.5"/>
<text xml:space="preserve" text-anchor="middle" x="30.5" y="-757.3" font-family="Times,serif" font-size="14.00">0</text>
<polyline fill="none" stroke="#964b00" points="61,-750.5 61,-772.5"/>
<text xml:space="preserve" text-anchor="middle" x="92" y="-757.3" font-family="Times,serif" font-size="14.00">0</text>
</g>
<!-- node_0x606000000500&#45;&gt;node_0x6060000004a0 -->
<g id="edge4" class="edge">
<title>node_0x606000000500&#45;&gt;node_0x6060000004a0</title>
<path fill="none" stroke="#964b00" d="M165.07,-868.02C147.67,-853.94 128.08,-838.08 110.67,-824"/>
<polygon fill="#964b00" stroke="#964b00" points="162.77,-870.66 172.75,-874.23 167.18,-865.22 162.77,-870.66"/>
<polygon fill="#964b00" stroke="#964b00" points="112.95,-821.34 102.97,-817.77 108.54,-826.78 112.95,-821.34"/>
</g>
<!-- node_0x606000000560 -->
<g id="node6" class="node">
<title>node_0x606000000560</title>
<path fill="#98fb98" stroke="#964b00" d="M158.04,-750.5C158.04,-750.5 269.69,-750.5 269.69,-750.5 275.69,-750.5 281.69,-756.5 281.69,-762.5 281.69,-762.5 281.69,-804.5 281.69,-804.5 281.69,-810.5 275.69,-816.5 269.69,-816.5 269.69,-816.5 158.04,-816.5 158.04,-816.5 152.04,-816.5 146.04,-810.5 146.04,-804.5 146.04,-804.5 146.04,-762.5 146.04,-762.5 146.04,-756.5 152.04,-750.5 158.04,-750.5"/>
<text xml:space="preserve" text-anchor="middle" x="213.86" y="-801.3" font-family="Times,serif" font-size="14.00">type = CONST_VAR</text>
<polyline fill="none" stroke="#964b00" points="146.04,-794.5 281.69,-794.5"/>
<text xml:space="preserve" text-anchor="middle" x="213.54" y="-779.3" font-family="Times,serif" font-size="14.00">val = 3</text>
<polyline fill="none" stroke="#964b00" points="146.04,-772.5 281.69,-772.5"/>
<text xml:space="preserve" text-anchor="middle" x="179.54" y="-757.3" font-family="Times,serif" font-size="14.00">0</text>
<polyline fill="none" stroke="#964b00" points="213.04,-750.5 213.04,-772.5"/>
<text xml:space="preserve" text-anchor="middle" x="247.04" y="-757.3" font-family="Times,serif" font-size="14.00">0</text>
</g>
<!-- node_0x606000000500&#45;&gt;node_0x606000000560 -->
<g id="edge5" class="edge">
<title>node_0x606000000500&#45;&gt;node_0x606000000560</title>
<path fill="none" stroke="#964b00" d="M213.86,-863.7C213.86,-852.05 213.86,-839.47 213.86,-827.84"/>
<polygon fill="#964b00" stroke="#964b00" points="210.36,-863.67 213.86,-873.67 217.36,-863.67 210.36,-863.67"/>
<polygon fill="#964b00" stroke="#964b00" points="217.36,-828.11 213.86,-818.11 210.36,-828.11 217.36,-828.11"/>
</g>
<!-- node_0x606000000620 -->
<g id="node8" class="node">
<title>node_0x606000000620</title>
<path fill="#00ffff" stroke="#964b00" d="M315.21,-750.5C315.21,-750.5 432.52,-750.5 432.52,-750.5 438.52,-750.5 444.52,-756.5 444.52,-762.5 444.52,-762.5 444.52,-804.5 444.52,-804.5 444.52,-810.5 438.52,-816.5 432.52,-816.5 432.52,-816.5 315.21,-816.5 315.21,-816.5 309.21,-816.5 303.21,-810.5 303.21,-804.5 303.21,-804.5 303.21,-762.5 303.21,-762.5 303.21,-756.5 309.21,-750.5 315.21,-750.5"/>
<text xml:space="preserve" text-anchor="middle" x="373.75" y="-801.3" font-family="Times,serif" font-size="14.00">type = OPERATOR</text>
<polyline fill="none" stroke="#964b00" points="303.21,-794.5 444.52,-794.5"/>
<text xml:space="preserve" text-anchor="middle" x="373.86" y="-779.3" font-family="Times,serif" font-size="14.00">val = 14(OP_WHILE)</text>
<polyline fill="none" stroke="#964b00" points="303.21,-772.5 444.52,-772.5"/>
<text xml:space="preserve" text-anchor="middle" x="337.98" y="-757.3" font-family="Times,serif" font-size="14.00">L</text>
<polyline fill="none" stroke="#964b00" points="372.76,-750.5 372.76,-772.5"/>
<text xml:space="preserve" text-anchor="middle" x="408.43" y="-757.3" font-family="Times,serif" font-size="14.00">R</text>
</g>
<!-- node_0x606000001e80&#45;&gt;node_0x606000000620 -->
<g id="edge7" class="edge">
<title>node_0x606000001e80&#45;&gt;node_0x606000000620</title>
<path fill="none" stroke="#964b00" d="M373.86,-863.7C373.86,-852.05 373.86,-839.47 373.86,-827.84"/>
<polygon fill="#964b00" stroke="#964b00" points="370.36,-863.67 373.86,-873.67 377.36,-863.67 370.36,-863.67"/>
<polygon fill="#964b00" stroke="#964b00" points="377.36,-828.11 373.86,-818.11 370.36,-828.11 377.36,-828.11"/>
</g>
<!-- node_0x606000000f20 -->
<g id="node27" class="node">
<title>node_0x606000000f20</title>
<path fill="#00ffff" stroke="#964b00" d="M478.81,-750.5C478.81,-750.5 582.91,-750.5 582.91,-750.5 588.91,-750.5 594.91,-756.5 594.91,-762.5 594.91,-762.5 594.91,-804.5 594.91,-804.5 594.91,-810.5 588.91,-816.5 582.91,-816.5 582.91,-816.5 478.81,-816.5 478.81,-816.5 472.81,-816.5 466.81,-810.5 466.81,-804.5 466.81,-804.5 466.81,-762.5 466.81,-762.5 466.81,-756.5 472.81,-750.5 478.81,-750.5"/>
<text xml:space="preserve" text-anchor="middle" x="530.36" y="-801.3" font-family="Times,serif" font-size="14.00">type = OPERATOR</text>
<polyline fill="none" stroke="#964b00" points="466.81,-794.5 594.91,-794.5"/>
<text xml:space="preserve" text-anchor="middle" x="530.86" y="-779.3" font-family="Times,serif" font-size="14.00">val = 23(OP_EXIT)</text>
<polyline fill="none" stroke="#964b00" points="466.81,-772.5 594.91,-772.5"/>
<text xml:space="preserve" text-anchor="middle" x="498.59" y="-757.3" font-family="Times,serif" font-size="14.00">L</text>
<polyline fill="none" stroke="#964b00" points="530.36,-750.5 530.36,-772.5"/>
<text xml:space="preserve" text-anchor="middle" x="562.53" y="-757.3" font-family="Times,serif" font-size="14.00">R</text>
</g>
<!-- node_0x606000001e80&#45;&gt;node_0x606000000f20 -->
<g id="edge26" class="edge">
<title>node_0x606000001e80&#45;&gt;node_0x606000000f20</title>
<path fill="none" stroke="#964b00" d="M423.97,-868.24C442.16,-853.99 462.71,-837.89 480.9,-823.64"/>
<polygon fill="#964b00" stroke="#964b00" points="422.02,-865.33 416.3,-874.25 426.33,-870.84 422.02,-865.33"/>
<polygon fill="#964b00" stroke="#964b00" points="482.71,-826.67 488.42,-817.75 478.39,-821.16 482.71,-826.67"/>
</g>
<!-- node_0x606000000740 -->
<g id="node9" class="node">
<title>node_0x606000000740</title>
<path fill="#00ffff" stroke="#964b00" d="M245.31,-625.5C245.31,-625.5 348.41,-625.5 348.41,-625.5 354.41,-625.5 360.41,-631.5 360.41,-637.5 360.41,-637.5 360.41,-679.5 360.41,-679.5 360.41,-685.5 354.41,-691.5 348.41,-691.5 348.41,-691.5 245.31,-691.5 245.31,-691.5 239.31,-691.5 233.31,-685.5 233.31,-679.5 233.31,-679.5 233.31,-637.5 233.31,-637.5 233.31,-631.5 239.31,-625.5 245.31,-625.5"/>
<text xml:space="preserve" text-anchor="middle" x="296.86" y="-676.3" font-family="Times,serif" font-size="14.00">type = OPERATOR</text>
<polyline fill="none" stroke="#964b00" points="233.31,-669.5 360.41,-669.5"/>
<text xml:space="preserve" text-anchor="middle" x="296.47" y="-654.3" font-family="Times,serif" font-size="14.00">val = 10(OP_LE)</text>
<polyline fill="none" stroke="#964b00" points="233.31,-647.5 360.41,-647.5"/>
<text xml:space="preserve" text-anchor="middle" x="264.59" y="-632.3" font-family="Times,serif" font-size="14.00">L</text>
<polyline fill="none" stroke="#964b00" points="295.86,-625.5 295.86,-647.5"/>
<text xml:space="preserve" text-anchor="middle" x="328.03" y="-632.3" font-family="Times,serif" font-size="14.00">R</text>
</g>
<!-- node_0x606000000620&#45;&gt;node_0x606000000740 -->
<g id="edge8" class="edge">
<title>node_0x606000000620&#45;&gt;node_0x606000000740</title>
<path fill="none" stroke="#964b00" d="M347.58,-740.52C339.6,-727.76 330.83,-713.76 322.86,-701.04"/>
<polygon fill="#964b00" stroke="#964b00" points="344.55,-742.28 352.83,-748.9 350.49,-738.57 344.55,-742.28"/>
<polygon fill="#964b00" stroke="#964b00" points="326.03,-699.5 317.76,-692.88 320.1,-703.22 326.03,-699.5"/>
</g>
<!-- node_0x606000000b00 -->
<g id="node12" class="node">
<title>node_0x606000000b00</title>
<path fill="#00ffff" stroke="#964b00" d="M398.31,-625.5C398.31,-625.5 501.41,-625.5 501.41,-625.5 507.41,-625.5 513.41,-631.5 513.41,-637.5 513.41,-637.5 513.41,-679.5 513.41,-679.5 513.41,-685.5 507.41,-691.5 501.41,-691.5 501.41,-691.5 398.31,-691.5 398.31,-691.5 392.31,-691.5 386.31,-685.5 386.31,-679.5 386.31,-679.5 386.31,-637.5 386.31,-637.5 386.31,-631.5 392.31,-625.5 398.31,-625.5"/>
<text xml:space="preserve" text-anchor="middle" x="449.86" y="-676.3" font-family="Times,serif" font-size="14.00">type = OPERATOR</text>
<polyline fill="none" stroke="#964b00" points="386.31,-669.5 513.41,-669.5"/>
<text xml:space="preserve" text-anchor="middle" x="449.45" y="-654.3" font-family="Times,serif" font-size="14.00">val = 11(OP_SP)</text>
<polyline fill="none" stroke="#964b00" points="386.31,-647.5 513.41,-647.5"/>
<text xml:space="preserve" text-anchor="middle" x="417.59" y="-632.3" font-family="Times,serif" font-size="14.00">L</text>
<polyline fill="none" stroke="#964b00" points="448.86,-625.5 448.86,-647.5"/>
<text xml:space="preserve" text-anchor="middle" x="481.03" y="-632.3" font-family="Times,serif" font-size="14.00">R</text>
</g>
<!-- node_0x606000000620&#45;&gt;node_0x606000000b00 -->
<g id="edge11" class="edge">
<title>node_0x606000000620&#45;&gt;node_0x606000000b00</title>
<path fill="none" stroke="#964b00" d="M399.8,-740.52C407.68,-727.76 416.33,-713.76 424.19,-701.04"/>
<polygon fill="#964b00" stroke="#964b00" points="396.9,-738.55 394.62,-748.9 402.86,-742.23 396.9,-738.55"/>
<polygon fill="#964b00" stroke="#964b00" points="426.95,-703.24 429.23,-692.89 421,-699.56 426.95,-703.24"/>
</g>
<!-- node_0x6060000006e0 -->
<g id="node10" class="node">
<title>node_0x6060000006e0</title>
<path fill="#daa520" stroke="#964b00" d="M95,-500.5C95,-500.5 194.72,-500.5 194.72,-500.5 200.72,-500.5 206.72,-506.5 206.72,-512.5 206.72,-512.5 206.72,-554.5 206.72,-554.5 206.72,-560.5 200.72,-566.5 194.72,-566.5 194.72,-566.5 95,-566.5 95,-566.5 89,-566.5 83,-560.5 83,-554.5 83,-554.5 83,-512.5 83,-512.5 83,-506.5 89,-500.5 95,-500.5"/>
<text xml:space="preserve" text-anchor="middle" x="144.86" y="-551.3" font-family="Times,serif" font-size="14.00">type = VARIABLE</text>
<polyline fill="none" stroke="#964b00" points="83,-544.5 206.72,-544.5"/>
<text xml:space="preserve" text-anchor="middle" x="144.5" y="-529.3" font-family="Times,serif" font-size="14.00">val = n</text>
<polyline fill="none" stroke="#964b00" points="83,-522.5 206.72,-522.5"/>
<text xml:space="preserve" text-anchor="middle" x="113.5" y="-507.3" font-family="Times,serif" font-size="14.00">0</text>
<polyline fill="none" stroke="#964b00" points="144,-500.5 144,-522.5"/>
<text xml:space="preserve" text-anchor="middle" x="175" y="-507.3" font-family="Times,serif" font-size="14.00">0</text>
</g>
<!-- node_0x606000000740&#45;&gt;node_0x6060000006e0 -->
<g id="edge9" class="edge">
<title>node_0x606000000740&#45;&gt;node_0x6060000006e0</title>
<path fill="none" stroke="#964b00" d="M248.07,-618.02C230.67,-603.94 211.08,-588.08 193.67,-574"/>
<polygon fill="#964b00" stroke="#964b00" points="245.77,-620.66 255.75,-624.23 250.18,-615.22 245.77,-620.66"/>
<polygon fill="#964b00" stroke="#964b00" points="195.95,-571.34 185.97,-567.77 191.54,-576.78 195.95,-571.34"/>
</g>
<!-- node_0x6060000007a0 -->
<g id="node11" class="node">
<title>node_0x6060000007a0</title>
<path fill="#98fb98" stroke="#964b00" d="M241.04,-500.5C241.04,-500.5 352.69,-500.5 352.69,-500.5 358.69,-500.5 364.69,-506.5 364.69,-512.5 364.69,-512.5 364.69,-554.5 364.69,-554.5 364.69,-560.5 358.69,-566.5 352.69,-566.5 352.69,-566.5 241.04,-566.5 241.04,-566.5 235.04,-566.5 229.04,-560.5 229.04,-554.5 229.04,-554.5 229.04,-512.5 229.04,-512.5 229.04,-506.5 235.04,-500.5 241.04,-500.5"/>
<text xml:space="preserve" text-anchor="middle" x="296.86" y="-551.3" font-family="Times,serif" font-size="14.00">type = CONST_VAR</text>
<polyline fill="none" stroke="#964b00" points="229.04,-544.5 364.69,-544.5"/>
<text xml:space="preserve" text-anchor="middle" x="296.54" y="-529.3" font-family="Times,serif" font-size="14.00">val = 10</text>
<polyline fill="none" stroke="#964b00" points="229.04,-522.5 364.69,-522.5"/>
<text xml:space="preserve" text-anchor="middle" x="262.54" y="-507.3" font-family="Times,serif" font-size="14.00">0</text>
<polyline fill="none" stroke="#964b00" points="296.04,-500.5 296.04,-522.5"/>
<text xml:space="preserve" text-anchor="middle" x="330.04" y="-507.3" font-family="Times,serif" font-size="14.00">0</text>
</g>
<!-- node_0x606000000740&#45;&gt;node_0x6060000007a0 -->
<g id="edge10" class="edge">
<title>node_0x606000000740&#45;&gt;node_0x6060000007a0</title>
<path fill="none" stroke="#964b00" d="M296.86,-613.7C296.86,-602.05 296.86,-589.47 296.86,-577.84"/>
<polygon fill="#964b00" stroke="#964b00" points="293.36,-613.67 296.86,-623.67 300.36,-613.67 293.36,-613.67"/>
<polygon fill="#964b00" stroke="#964b00" points="300.36,-578.11 296.86,-568.11 293.36,-578.11 300.36,-578.11"/>
</g>
<!-- node_0x606000000920 -->
<g id="node13" class="node">
<title>node_0x606000000920</title>
<path fill="#00ffff" stroke="#964b00" d="M398.31,-500.5C398.31,-500.5 501.41,-500.5 501.41,-500.5 507.41,-500.5 513.41,-506.5 513.41,-512.5 513.41,-512.5 513.41,-554.5 513.41,-554.5 513.41,-560.5 507.41,-566.5 501.41,-566.5 501.41,-566.5 398.31,-566.5 398.31,-566.5 392.31,-566.5 386.31,-560.5 386.31,-554.5 386.31,-554.5 386.31,-512.5 386.31,-512.5 386.31,-506.5 392.31,-500.5 398.31,-500.5"/>
<text xml:space="preserve" text-anchor="middle" x="449.86" y="-551.3" font-family="Times,serif" font-size="14.00">type = OPERATOR</text>
<polyline fill="none" stroke="#964b00" points="386.31,-544.5 513.41,-544.5"/>
<text xml:space="preserve" text-anchor="middle" x="449.41" y="-529.3" font-family="Times,serif" font-size="14.00">val = 6(OP_INIT)</text>
<polyline fill="none" stroke="#964b00" points="386.31,-522.5 513.41,-522.5"/>
<text xml:space="preserve" text-anchor="middle" x="417.59" y="-507.3" font-family="Times,serif" font-size="14.00">L</text>
<polyline fill="none" stroke="#964b00" points="448.86,-500.5 448.86,-522.5"/>
<text xml:space="preserve" text-anchor="middle" x="481.03" y="-507.3" font-family="Times,serif" font-size="14.00">R</text>
</g>
<!-- node_0x606000000b00&#45;&gt;node_0x606000000920 -->
<g id="edge12" class="edge">
<title>node_0x606000000b00&#45;&gt;node_0x606000000920</title>
<path fill="none" stroke="#964b00" d="M449.86,-613.7C449.86,-602.05 449.86,-589.47 449.86,-577.84"/>
<polygon fill="#964b00" stroke="#964b00" points="446.36,-613.67 449.86,-623.67 453.36,-613.67 446.36,-613.67"/>
<polygon fill="#964b00" stroke="#964b00" points="453.36,-578.11 449.86,-568.11 446.36,-578.11 453.36,-578.11"/>
</g>
<!-- node_0x606000000c20 -->
<g id="node18" class="node">
<title>node_0x606000000c20</title>
<path fill="#00ffff" stroke="#964b00" d="M580.31,-500.5C580.31,-500.5 683.41,-500.5 683.41,-500.5 689.41,-500.5 695.41,-506.5 695.41,-512.5 695.41,-512.5 695.41,-554.5 695.41,-554.5 695.41,-560.5 689.41,-566.5 683.41,-566.5 683.41,-566.5 580.31,-566.5 580.31,-566.5 574.31,-566.5 568.31,-560.5 568.31,-554.5 568.31,-554.5 568.31,-512.5 568.31,-512.5 568.31,-506.5 574.31,-500.5 580.31,-500.5"/>
<text xml:space="preserve" text-anchor="middle" x="631.86" y="-551.3" font-family="Times,serif" font-size="14.00">type = OPERATOR</text>
<polyline fill="none" stroke="#964b00" points="568.31,-544.5 695.41,-544.5"/>
<text xml:space="preserve" text-anchor="middle" x="631.45" y="-529.3" font-family="Times,serif" font-size="14.00">val = 11(OP_SP)</text>
<polyline fill="none" stroke="#964b00" points="568.31,-522.5 695.41,-522.5"/>
<text xml:space="preserve" text-anchor="middle" x="599.59" y="-507.3" font-family="Times,serif" font-size="14.00">L</text>
<polyline fill="none" stroke="#964b00" points="630.86,-500.5 630.86,-522.5"/>
<text xml:space="preserve" text-anchor="middle" x="663.03" y="-507.3" font-family="Times,serif" font-size="14.00">R</text>
</g>
<!-- node_0x606000000b00&#45;&gt;node_0x606000000c20 -->
<g id="edge17" class="edge">
<title>node_0x606000000b00&#45;&gt;node_0x606000000c20</title>
<path fill="none" stroke="#964b00" d="M506.96,-618.91C528.54,-604.32 553.09,-587.74 574.68,-573.15"/>
<polygon fill="#964b00" stroke="#964b00" points="505.26,-615.84 498.93,-624.34 509.18,-621.64 505.26,-615.84"/>
<polygon fill="#964b00" stroke="#964b00" points="576.47,-576.16 582.79,-567.66 572.55,-570.36 576.47,-576.16"/>
</g>
<!-- node_0x6060000008c0 -->
<g id="node14" class="node">
<title>node_0x6060000008c0</title>
<path fill="#daa520" stroke="#964b00" d="M231,-375.5C231,-375.5 330.72,-375.5 330.72,-375.5 336.72,-375.5 342.72,-381.5 342.72,-387.5 342.72,-387.5 342.72,-429.5 342.72,-429.5 342.72,-435.5 336.72,-441.5 330.72,-441.5 330.72,-441.5 231,-441.5 231,-441.5 225,-441.5 219,-435.5 219,-429.5 219,-429.5 219,-387.5 219,-387.5 219,-381.5 225,-375.5 231,-375.5"/>
<text xml:space="preserve" text-anchor="middle" x="280.86" y="-426.3" font-family="Times,serif" font-size="14.00">type = VARIABLE</text>
<polyline fill="none" stroke="#964b00" points="219,-419.5 342.72,-419.5"/>
<text xml:space="preserve" text-anchor="middle" x="280.5" y="-404.3" font-family="Times,serif" font-size="14.00">val = k</text>
<polyline fill="none" stroke="#964b00" points="219,-397.5 342.72,-397.5"/>
<text xml:space="preserve" text-anchor="middle" x="249.5" y="-382.3" font-family="Times,serif" font-size="14.00">0</text>
<polyline fill="none" stroke="#964b00" points="280,-375.5 280,-397.5"/>
<text xml:space="preserve" text-anchor="middle" x="311" y="-382.3" font-family="Times,serif" font-size="14.00">0</text>
</g>
<!-- node_0x606000000920&#45;&gt;node_0x6060000008c0 -->
<g id="edge13" class="edge">
<title>node_0x606000000920&#45;&gt;node_0x6060000008c0</title>
<path fill="none" stroke="#964b00" d="M396.23,-493.47C376.49,-479.1 354.15,-462.84 334.42,-448.48"/>
<polygon fill="#964b00" stroke="#964b00" points="394.09,-496.24 404.23,-499.29 398.21,-490.58 394.09,-496.24"/>
<polygon fill="#964b00" stroke="#964b00" points="336.63,-445.76 326.48,-442.7 332.51,-451.42 336.63,-445.76"/>
</g>
<!-- node_0x606000000980 -->
<g id="node15" class="node">
<title>node_0x606000000980</title>
<path fill="#a7a7f2" stroke="#964b00" d="M377.2,-375.5C377.2,-375.5 522.53,-375.5 522.53,-375.5 528.53,-375.5 534.53,-381.5 534.53,-387.5 534.53,-387.5 534.53,-429.5 534.53,-429.5 534.53,-435.5 528.53,-441.5 522.53,-441.5 522.53,-441.5 377.2,-441.5 377.2,-441.5 371.2,-441.5 365.2,-435.5 365.2,-429.5 365.2,-429.5 365.2,-387.5 365.2,-387.5 365.2,-381.5 371.2,-375.5 377.2,-375.5"/>
<text xml:space="preserve" text-anchor="middle" x="449.86" y="-426.3" font-family="Times,serif" font-size="14.00">type = FUNCTION_CALL</text>
<polyline fill="none" stroke="#964b00" points="365.2,-419.5 534.53,-419.5"/>
<text xml:space="preserve" text-anchor="middle" x="449.39" y="-404.3" font-family="Times,serif" font-size="14.00">val = Che_cazzo_fact</text>
<polyline fill="none" stroke="#964b00" points="365.2,-397.5 534.53,-397.5"/>
<text xml:space="preserve" text-anchor="middle" x="407.2" y="-382.3" font-family="Times,serif" font-size="14.00">0</text>
<polyline fill="none" stroke="#964b00" points="449.2,-375.5 449.2,-397.5"/>
<text xml:space="preserve" text-anchor="middle" x="491.7" y="-382.3" font-family="Times,serif" font-size="14.00">0</text>
</g>
<!-- node_0x606000000920&#45;&gt;node_0x606000000980 -->
<g id="edge14" class="edge">
<title>node_0x606000000920&#45;&gt;node_0x606000000980</title>
<path fill="none" stroke="#964b00" d="M449.86,-488.7C449.86,-477.05 449.86,-464.47 449.86,-452.84"/>
<polygon fill="#964b00" stroke="#964b00" points="446.36,-488.67 449.86,-498.67 453.36,-488.67 446.36,-488.67"/>
<polygon fill="#964b00" stroke="#964b00" points="453.36,-453.11 449.86,-443.11 446.36,-453.11 453.36,-453.11"/>
</g>
<!-- node_0x606000001e20 -->
<g id="node16" class="node">
<title>node_0x606000001e20</title>
<path fill="#00ffff" stroke="#964b00" d="M397.8,-250.5C397.8,-250.5 501.92,-250.5 501.92,-250.5 507.92,-250.5 513.92,-256.5 513.92,-262.5 513.92,-262.5 513.92,-304.5 513.92,-304.5 513.92,-310.5 507.92,-316.5 501.92,-316.5 501.92,-316.5 397.8,-316.5 397.8,-316.5 391.8,-316.5 385.8,-310.5 385.8,-304.5 385.8,-304.5 385.8,-262.5 385.8,-262.5 385.8,-256.5 391.8,-250.5 397.8,-250.5"/>
<text xml:space="preserve" text-anchor="middle" x="449.85" y="-301.3" font-family="Times,serif" font-size="14.00">type = OPERATOR</text>
<polyline fill="none" stroke="#964b00" points="385.8,-294.5 513.92,-294.5"/>
<text xml:space="preserve" text-anchor="middle" x="449.86" y="-279.3" font-family="Times,serif" font-size="14.00">val = 19(OP_COM)</text>
<polyline fill="none" stroke="#964b00" points="385.8,-272.5 513.92,-272.5"/>
<text xml:space="preserve" text-anchor="middle" x="417.58" y="-257.3" font-family="Times,serif" font-size="14.00">L</text>
<polyline fill="none" stroke="#964b00" points="449.35,-250.5 449.35,-272.5"/>
<text xml:space="preserve" text-anchor="middle" x="481.52" y="-257.3" font-family="Times,serif" font-size="14.00">R</text>
</g>
<!-- node_0x606000000980&#45;&gt;node_0x606000001e20 -->
<g id="edge15" class="edge">
<title>node_0x606000000980&#45;&gt;node_0x606000001e20</title>
<path fill="none" stroke="#964b00" d="M449.86,-363.7C449.86,-352.05 449.86,-339.47 449.86,-327.84"/>
<polygon fill="#964b00" stroke="#964b00" points="446.36,-363.67 449.86,-373.67 453.36,-363.67 446.36,-363.67"/>
<polygon fill="#964b00" stroke="#964b00" points="453.36,-328.11 449.86,-318.11 446.36,-328.11 453.36,-328.11"/>
</g>
<!-- node_0x606000000a40 -->
<g id="node17" class="node">
<title>node_0x606000000a40</title>
<path fill="#daa520" stroke="#964b00" d="M400,-125.5C400,-125.5 499.72,-125.5 499.72,-125.5 505.72,-125.5 511.72,-131.5 511.72,-137.5 511.72,-137.5 511.72,-179.5 511.72,-179.5 511.72,-185.5 505.72,-191.5 499.72,-191.5 499.72,-191.5 400,-191.5 400,-191.5 394,-191.5 388,-185.5 388,-179.5 388,-179.5 388,-137.5 388,-137.5 388,-131.5 394,-125.5 400,-125.5"/>
<text xml:space="preserve" text-anchor="middle" x="449.86" y="-176.3" font-family="Times,serif" font-size="14.00">type = VARIABLE</text>
<polyline fill="none" stroke="#964b00" points="388,-169.5 511.72,-169.5"/>
<text xml:space="preserve" text-anchor="middle" x="449.5" y="-154.3" font-family="Times,serif" font-size="14.00">val = n</text>
<polyline fill="none" stroke="#964b00" points="388,-147.5 511.72,-147.5"/>
<text xml:space="preserve" text-anchor="middle" x="418.5" y="-132.3" font-family="Times,serif" font-size="14.00">0</text>
<polyline fill="none" stroke="#964b00" points="449,-125.5 449,-147.5"/>
<text xml:space="preserve" text-anchor="middle" x="480" y="-132.3" font-family="Times,serif" font-size="14.00">0</text>
</g>
<!-- node_0x606000001e20&#45;&gt;node_0x606000000a40 -->
<g id="edge16" class="edge">
<title>node_0x606000001e20&#45;&gt;node_0x606000000a40</title>
<path fill="none" stroke="#964b00" d="M449.86,-238.7C449.86,-227.05 449.86,-214.47 449.86,-202.84"/>
<polygon fill="#964b00" stroke="#964b00" points="446.36,-238.67 449.86,-248.67 453.36,-238.67 446.36,-238.67"/>
<polygon fill="#964b00" stroke="#964b00" points="453.36,-203.11 449.86,-193.11 446.36,-203.11 453.36,-203.11"/>
</g>
<!-- node_0x606000000b60 -->
<g id="node19" class="node">
<title>node_0x606000000b60</title>
<path fill="#00ffff" stroke="#964b00" d="M568.14,-375.5C568.14,-375.5 695.58,-375.5 695.58,-375.5 701.58,-375.5 707.58,-381.5 707.58,-387.5 707.58,-387.5 707.58,-429.5 707.58,-429.5 707.58,-435.5 701.58,-441.5 695.58,-441.5 695.58,-441.5 568.14,-441.5 568.14,-441.5 562.14,-441.5 556.14,-435.5 556.14,-429.5 556.14,-429.5 556.14,-387.5 556.14,-387.5 556.14,-381.5 562.14,-375.5 568.14,-375.5"/>
<text xml:space="preserve" text-anchor="middle" x="631.69" y="-426.3" font-family="Times,serif" font-size="14.00">type = OPERATOR</text>
<polyline fill="none" stroke="#964b00" points="556.14,-419.5 707.58,-419.5"/>
<text xml:space="preserve" text-anchor="middle" x="631.86" y="-404.3" font-family="Times,serif" font-size="14.00">val = 22(OP_OUTPUT)</text>
<polyline fill="none" stroke="#964b00" points="556.14,-397.5 707.58,-397.5"/>
<text xml:space="preserve" text-anchor="middle" x="593.42" y="-382.3" font-family="Times,serif" font-size="14.00">L</text>
<polyline fill="none" stroke="#964b00" points="630.69,-375.5 630.69,-397.5"/>
<text xml:space="preserve" text-anchor="middle" x="668.86" y="-382.3" font-family="Times,serif" font-size="14.00">R</text>
</g>
<!-- node_0x606000000c20&#45;&gt;node_0x606000000b60 -->
<g id="edge18" class="edge">
<title>node_0x606000000c20&#45;&gt;node_0x606000000b60</title>
<path fill="none" stroke="#964b00" d="M631.86,-488.7C631.86,-477.05 631.86,-464.47 631.86,-452.84"/>
<polygon fill="#964b00" stroke="#964b00" points="628.36,-488.67 631.86,-498.67 635.36,-488.67 628.36,-488.67"/>
<polygon fill="#964b00" stroke="#964b00" points="635.36,-453.11 631.86,-443.11 628.36,-453.11 635.36,-453.11"/>
</g>
<!-- node_0x606000000e60 -->
<g id="node21" class="node">
<title>node_0x606000000e60</title>
<path fill="#00ffff" stroke="#964b00" d="M741.31,-375.5C741.31,-375.5 844.41,-375.5 844.41,-375.5 850.41,-375.5 856.41,-381.5 856.41,-387.5 856.41,-387.5 856.41,-429.5 856.41,-429.5 856.41,-435.5 850.41,-441.5 844.41,-441.5 844.41,-441.5 741.31,-441.5 741.31,-441.5 735.31,-441.5 729.31,-435.5 729.31,-429.5 729.31,-429.5 729.31,-387.5 729.31,-387.5 729.31,-381.5 735.31,-375.5 741.31,-375.5"/>
<text xml:space="preserve" text-anchor="middle" x="792.86" y="-426.3" font-family="Times,serif" font-size="14.00">type = OPERATOR</text>
<polyline fill="none" stroke="#964b00" points="729.31,-419.5 856.41,-419.5"/>
<text xml:space="preserve" text-anchor="middle" x="792.45" y="-404.3" font-family="Times,serif" font-size="14.00">val = 11(OP_SP)</text>
<polyline fill="none" stroke="#964b00" points="729.31,-397.5 856.41,-397.5"/>
<text xml:space="preserve" text-anchor="middle" x="760.59" y="-382.3" font-family="Times,serif" font-size="14.00">L</text>
<polyline fill="none" stroke="#964b00" points="791.86,-375.5 791.86,-397.5"/>
<text xml:space="preserve" text-anchor="middle" x="824.03" y="-382.3" font-family="Times,serif" font-size="14.00">R</text>
</g>
<!-- node_0x606000000c20&#45;&gt;node_0x606000000e60 -->
<g id="edge20" class="edge">
<title>node_0x606000000c20&#45;&gt;node_0x606000000e60</title>
<path fill="none" stroke="#964b00" d="M683.24,-493.24C701.9,-478.99 722.98,-462.89 741.62,-448.64"/>
<polygon fill="#964b00" stroke="#964b00" points="681.19,-490.41 675.36,-499.26 685.44,-495.97 681.19,-490.41"/>
<polygon fill="#964b00" stroke="#964b00" points="743.54,-451.59 749.36,-442.73 739.29,-446.02 743.54,-451.59"/>
</g>
<!-- node_0x606000000bc0 -->
<g id="node20" class="node">
<title>node_0x606000000bc0</title>
<path fill="#daa520" stroke="#964b00" d="M582,-250.5C582,-250.5 681.72,-250.5 681.72,-250.5 687.72,-250.5 693.72,-256.5 693.72,-262.5 693.72,-262.5 693.72,-304.5 693.72,-304.5 693.72,-310.5 687.72,-316.5 681.72,-316.5 681.72,-316.5 582,-316.5 582,-316.5 576,-316.5 570,-310.5 570,-304.5 570,-304.5 570,-262.5 570,-262.5 570,-256.5 576,-250.5 582,-250.5"/>
<text xml:space="preserve" text-anchor="middle" x="631.86" y="-301.3" font-family="Times,serif" font-size="14.00">type = VARIABLE</text>
<polyline fill="none" stroke="#964b00" points="570,-294.5 693.72,-294.5"/>
<text xml:space="preserve" text-anchor="middle" x="631.5" y="-279.3" font-family="Times,serif" font-size="14.00">val = k</text>
<polyline fill="none" stroke="#964b00" points="570,-272.5 693.72,-272.5"/>
<text xml:space="preserve" text-anchor="middle" x="600.5" y="-257.3" font-family="Times,serif" font-size="14.00">0</text>
<polyline fill="none" stroke="#964b00" points="631,-250.5 631,-272.5"/>
<text xml:space="preserve" text-anchor="middle" x="662" y="-257.3" font-family="Times,serif" font-size="14.00">0</text>
</g>
<!-- node_0x606000000b60&#45;&gt;node_0x606000000bc0 -->
<g id="edge19" class="edge">
<title>node_0x606000000b60&#45;&gt;node_0x606000000bc0</title>
<path fill="none" stroke="#964b00" d="M631.86,-363.7C631.86,-352.05 631.86,-339.47 631.86,-327.84"/>
<polygon fill="#964b00" stroke="#964b00" points="628.36,-363.67 631.86,-373.67 635.36,-363.67 628.36,-363.67"/>
<polygon fill="#964b00" stroke="#964b00" points="635.36,-328.11 631.86,-318.11 628.36,-328.11 635.36,-328.11"/>
</g>
<!-- node_0x606000000ce0 -->
<g id="node22" class="node">
<title>node_0x606000000ce0</title>
<path fill="#00ffff" stroke="#964b00" d="M741.31,-250.5C741.31,-250.5 844.41,-250.5 844.41,-250.5 850.41,-250.5 856.41,-256.5 856.41,-262.5 856.41,-262.5 856.41,-304.5 856.41,-304.5 856.41,-310.5 850.41,-316.5 844.41,-316.5 844.41,-316.5 741.31,-316.5 741.31,-316.5 735.31,-316.5 729.31,-310.5 729.31,-304.5 729.31,-304.5 729.31,-262.5 729.31,-262.5 729.31,-256.5 735.31,-250.5 741.31,-250.5"/>
<text xml:space="preserve" text-anchor="middle" x="792.86" y="-301.3" font-family="Times,serif" font-size="14.00">type = OPERATOR</text>
<polyline fill="none" stroke="#964b00" points="729.31,-294.5 856.41,-294.5"/>
<text xml:space="preserve" text-anchor="middle" x="792.76" y="-279.3" font-family="Times,serif" font-size="14.00">val = 7(OP_ASS)</text>
<polyline fill="none" stroke="#964b00" points="729.31,-272.5 856.41,-272.5"/>
<text xml:space="preserve" text-anchor="middle" x="760.59" y="-257.3" font-family="Times,serif" font-size="14.00">L</text>
<polyline fill="none" stroke="#964b00" points="791.86,-250.5 791.86,-272.5"/>
<text xml:space="preserve" text-anchor="middle" x="824.03" y="-257.3" font-family="Times,serif" font-size="14.00">R</text>
</g>
<!-- node_0x606000000e60&#45;&gt;node_0x606000000ce0 -->
<g id="edge21" class="edge">
<title>node_0x606000000e60&#45;&gt;node_0x606000000ce0</title>
<path fill="none" stroke="#964b00" d="M792.86,-363.7C792.86,-352.05 792.86,-339.47 792.86,-327.84"/>
<polygon fill="#964b00" stroke="#964b00" points="789.36,-363.67 792.86,-373.67 796.36,-363.67 789.36,-363.67"/>
<polygon fill="#964b00" stroke="#964b00" points="796.36,-328.11 792.86,-318.11 789.36,-328.11 796.36,-328.11"/>
</g>
<!-- node_0x606000000c80 -->
<g id="node23" class="node">
<title>node_0x606000000c80</title>
<path fill="#daa520" stroke="#964b00" d="M669,-125.5C669,-125.5 768.72,-125.5 768.72,-125.5 774.72,-125.5 780.72,-131.5 780.72,-137.5 780.72,-137.5 780.72,-179.5 780.72,-179.5 780.72,-185.5 774.72,-191.5 768.72,-191.5 768.72,-191.5 669,-191.5 669,-191.5 663,-191.5 657,-185.5 657,-179.5 657,-179.5 657,-137.5 657,-137.5 657,-131.5 663,-125.5 669,-125.5"/>
<text xml:space="preserve" text-anchor="middle" x="718.86" y="-176.3" font-family="Times,serif" font-size="14.00">type = VARIABLE</text>
<polyline fill="none" stroke="#964b00" points="657,-169.5 780.72,-169.5"/>
<text xml:space="preserve" text-anchor="middle" x="718.5" y="-154.3" font-family="Times,serif" font-size="14.00">val = n</text>
<polyline fill="none" stroke="#964b00" points="657,-147.5 780.72,-147.5"/>
<text xml:space="preserve" text-anchor="middle" x="687.5" y="-132.3" font-family="Times,serif" font-size="14.00">0</text>
<polyline fill="none" stroke="#964b00" points="718,-125.5 718,-147.5"/>
<text xml:space="preserve" text-anchor="middle" x="749" y="-132.3" font-family="Times,serif" font-size="14.00">0</text>
</g>
<!-- node_0x606000000ce0&#45;&gt;node_0x606000000c80 -->
<g id="edge22" class="edge">
<title>node_0x606000000ce0&#45;&gt;node_0x606000000c80</title>
<path fill="none" stroke="#964b00" d="M767.6,-240.52C760.01,-227.89 751.67,-214.04 744.08,-201.41"/>
<polygon fill="#964b00" stroke="#964b00" points="764.48,-242.12 772.64,-248.89 770.48,-238.51 764.48,-242.12"/>
<polygon fill="#964b00" stroke="#964b00" points="747.11,-199.66 738.95,-192.9 741.11,-203.27 747.11,-199.66"/>
</g>
<!-- node_0x606000000da0 -->
<g id="node24" class="node">
<title>node_0x606000000da0</title>
<path fill="#00ffff" stroke="#964b00" d="M814.31,-125.5C814.31,-125.5 917.41,-125.5 917.41,-125.5 923.41,-125.5 929.41,-131.5 929.41,-137.5 929.41,-137.5 929.41,-179.5 929.41,-179.5 929.41,-185.5 923.41,-191.5 917.41,-191.5 917.41,-191.5 814.31,-191.5 814.31,-191.5 808.31,-191.5 802.31,-185.5 802.31,-179.5 802.31,-179.5 802.31,-137.5 802.31,-137.5 802.31,-131.5 808.31,-125.5 814.31,-125.5"/>
<text xml:space="preserve" text-anchor="middle" x="865.86" y="-176.3" font-family="Times,serif" font-size="14.00">type = OPERATOR</text>
<polyline fill="none" stroke="#964b00" points="802.31,-169.5 929.41,-169.5"/>
<text xml:space="preserve" text-anchor="middle" x="865.59" y="-154.3" font-family="Times,serif" font-size="14.00">val = 1(OP_ADD)</text>
<polyline fill="none" stroke="#964b00" points="802.31,-147.5 929.41,-147.5"/>
<text xml:space="preserve" text-anchor="middle" x="833.59" y="-132.3" font-family="Times,serif" font-size="14.00">L</text>
<polyline fill="none" stroke="#964b00" points="864.86,-125.5 864.86,-147.5"/>
<text xml:space="preserve" text-anchor="middle" x="897.03" y="-132.3" font-family="Times,serif" font-size="14.00">R</text>
</g>
<!-- node_0x606000000ce0&#45;&gt;node_0x606000000da0 -->
<g id="edge23" class="edge">
<title>node_0x606000000ce0&#45;&gt;node_0x606000000da0</title>
<path fill="none" stroke="#964b00" d="M817.78,-240.52C825.27,-227.89 833.49,-214.04 840.98,-201.41"/>
<polygon fill="#964b00" stroke="#964b00" points="814.91,-238.5 812.81,-248.88 820.93,-242.07 814.91,-238.5"/>
<polygon fill="#964b00" stroke="#964b00" points="843.94,-203.29 846.04,-192.9 837.92,-199.72 843.94,-203.29"/>
</g>
<!-- node_0x606000000d40 -->
<g id="node25" class="node">
<title>node_0x606000000d40</title>
<path fill="#daa520" stroke="#964b00" d="M740,-0.5C740,-0.5 839.72,-0.5 839.72,-0.5 845.72,-0.5 851.72,-6.5 851.72,-12.5 851.72,-12.5 851.72,-54.5 851.72,-54.5 851.72,-60.5 845.72,-66.5 839.72,-66.5 839.72,-66.5 740,-66.5 740,-66.5 734,-66.5 728,-60.5 728,-54.5 728,-54.5 728,-12.5 728,-12.5 728,-6.5 734,-0.5 740,-0.5"/>
<text xml:space="preserve" text-anchor="middle" x="789.86" y="-51.3" font-family="Times,serif" font-size="14.00">type = VARIABLE</text>
<polyline fill="none" stroke="#964b00" points="728,-44.5 851.72,-44.5"/>
<text xml:space="preserve" text-anchor="middle" x="789.5" y="-29.3" font-family="Times,serif" font-size="14.00">val = n</text>
<polyline fill="none" stroke="#964b00" points="728,-22.5 851.72,-22.5"/>
<text xml:space="preserve" text-anchor="middle" x="758.5" y="-7.3" font-family="Times,serif" font-size="14.00">0</text>
<polyline fill="none" stroke="#964b00" points="789,-0.5 789,-22.5"/>
<text xml:space="preserve" text-anchor="middle" x="820" y="-7.3" font-family="Times,serif" font-size="14.00">0</text>
</g>
<!-- node_0x606000000da0&#45;&gt;node_0x606000000d40 -->
<g id="edge24" class="edge">
<title>node_0x606000000da0&#45;&gt;node_0x606000000d40</title>
<path fill="none" stroke="#964b00" d="M839.92,-115.52C832.04,-102.76 823.39,-88.76 815.53,-76.04"/>
<polygon fill="#964b00" stroke="#964b00" points="836.86,-117.23 845.1,-123.9 842.82,-113.55 836.86,-117.23"/>
<polygon fill="#964b00" stroke="#964b00" points="818.72,-74.56 810.49,-67.89 812.77,-78.24 818.72,-74.56"/>
</g>
<!-- node_0x606000000e00 -->
<g id="node26" class="node">
<title>node_0x606000000e00</title>
<path fill="#98fb98" stroke="#964b00" d="M886.04,-0.5C886.04,-0.5 997.69,-0.5 997.69,-0.5 1003.69,-0.5 1009.69,-6.5 1009.69,-12.5 1009.69,-12.5 1009.69,-54.5 1009.69,-54.5 1009.69,-60.5 1003.69,-66.5 997.69,-66.5 997.69,-66.5 886.04,-66.5 886.04,-66.5 880.04,-66.5 874.04,-60.5 874.04,-54.5 874.04,-54.5 874.04,-12.5 874.04,-12.5 874.04,-6.5 880.04,-0.5 886.04,-0.5"/>
<text xml:space="preserve" text-anchor="middle" x="941.86" y="-51.3" font-family="Times,serif" font-size="14.00">type = CONST_VAR</text>
<polyline fill="none" stroke="#964b00" points="874.04,-44.5 1009.69,-44.5"/>
<text xml:space="preserve" text-anchor="middle" x="941.54" y="-29.3" font-family="Times,serif" font-size="14.00">val = 1</text>
<polyline fill="none" stroke="#964b00" points="874.04,-22.5 1009.69,-22.5"/>
<text xml:space="preserve" text-anchor="middle" x="907.54" y="-7.3" font-family="Times,serif" font-size="14.00">0</text>
<polyline fill="none" stroke="#964b00" points="941.04,-0.5 941.04,-22.5"/>
<text xml:space="preserve" text-anchor="middle" x="975.04" y="-7.3" font-family="Times,serif" font-size="14.00">0</text>
</g>
<!-- node_0x606000000da0&#45;&gt;node_0x606000000e00 -->
<g id="edge25" class="edge">
<title>node_0x606000000da0&#45;&gt;node_0x606000000e00</title>
<path fill="none" stroke="#964b00" d="M891.8,-115.52C899.68,-102.76 908.33,-88.76 916.19,-76.04"/>
<polygon fill="#964b00" stroke="#964b00" points="888.9,-113.55 886.62,-123.9 894.86,-117.23 888.9,-113.55"/>
<polygon fill="#964b00" stroke="#964b00" points="918.95,-78.24 921.23,-67.89 913,-74.56 918.95,-78.24"/>
</g>
</g>
</svg>
