<?xml version="1.0" encoding="UTF-8" standalone="no"?>
<!DOCTYPE svg PUBLIC "-//W3C//DTD SVG 1.1//EN"
 "http://www.w3.org/Graphics/SVG/1.1/DTD/svg11.dtd">
<!-- Generated by graphviz version 14.0.2 (20251019.1705)
 -->
<!-- Title: G Pages: 1 -->
<svg width="290pt" height="450pt"
 viewBox="0.00 0.00 290.00 450.00" xmlns="http://www.w3.org/2000/svg" xmlns:xlink="http://www.w3.org/1999/xlink">
<g id="graph0" class="graph" transform="scale(1 1) rotate(0) translate(4 446)">
<title>G</title>
<polygon fill="#fffafa" stroke="none" points="-4,4 -4,-446 285.69,-446 285.69,4 -4,4"/>
<!-- node_0x606000001640 -->
<g id="node1" class="node">
<title>node_0x606000001640</title>
<path fill="#a7a7f2" stroke="#964b00" d="M65.2,-375.5C65.2,-375.5 210.53,-375.5 210.53,-375.5 216.53,-375.5 222.53,-381.5 222.53,-387.5 222.53,-387.5 222.53,-429.5 222.53,-429.5 222.53,-435.5 216.53,-441.5 210.53,-441.5 210.53,-441.5 65.2,-441.5 65.2,-441.5 59.2,-441.5 53.2,-435.5 53.2,-429.5 53.2,-429.5 53.2,-387.5 53.2,-387.5 53.2,-381.5 59.2,-375.5 65.2,-375.5"/>
<text xml:space="preserve" text-anchor="middle" x="137.86" y="-426.3" font-family="Times,serif" font-size="14.00">type = FUNCTION_CALL</text>
<polyline fill="none" stroke="#964b00" points="53.2,-419.5 222.53,-419.5"/>
<text xml:space="preserve" text-anchor="middle" x="137.39" y="-404.3" font-family="Times,serif" font-size="14.00">val = Che_cazzo_fact</text>
<polyline fill="none" stroke="#964b00" points="53.2,-397.5 222.53,-397.5"/>
<text xml:space="preserve" text-anchor="middle" x="95.2" y="-382.3" font-family="Times,serif" font-size="14.00">0</text>
<polyline fill="none" stroke="#964b00" points="137.2,-375.5 137.2,-397.5"/>
<text xml:space="preserve" text-anchor="middle" x="179.7" y="-382.3" font-family="Times,serif" font-size="14.00">0</text>
</g>
<!-- node_0x606000002000 -->
<g id="node2" class="node">
<title>node_0x606000002000</title>
<path fill="#00ffff" stroke="#964b00" d="M85.8,-250.5C85.8,-250.5 189.92,-250.5 189.92,-250.5 195.92,-250.5 201.92,-256.5 201.92,-262.5 201.92,-262.5 201.92,-304.5 201.92,-304.5 201.92,-310.5 195.92,-316.5 189.92,-316.5 189.92,-316.5 85.8,-316.5 85.8,-316.5 79.8,-316.5 73.8,-310.5 73.8,-304.5 73.8,-304.5 73.8,-262.5 73.8,-262.5 73.8,-256.5 79.8,-250.5 85.8,-250.5"/>
<text xml:space="preserve" text-anchor="middle" x="137.85" y="-301.3" font-family="Times,serif" font-size="14.00">type = OPERATOR</text>
<polyline fill="none" stroke="#964b00" points="73.8,-294.5 201.92,-294.5"/>
<text xml:space="preserve" text-anchor="middle" x="137.86" y="-279.3" font-family="Times,serif" font-size="14.00">val = 19(OP_COM)</text>
<polyline fill="none" stroke="#964b00" points="73.8,-272.5 201.92,-272.5"/>
<text xml:space="preserve" text-anchor="middle" x="105.58" y="-257.3" font-family="Times,serif" font-size="14.00">L</text>
<polyline fill="none" stroke="#964b00" points="137.35,-250.5 137.35,-272.5"/>
<text xml:space="preserve" text-anchor="middle" x="169.52" y="-257.3" font-family="Times,serif" font-size="14.00">R</text>
</g>
<!-- node_0x606000001640&#45;&gt;node_0x606000002000 -->
<g id="edge1" class="edge">
<title>node_0x606000001640&#45;&gt;node_0x606000002000</title>
<path fill="none" stroke="#964b00" d="M137.86,-363.7C137.86,-352.05 137.86,-339.47 137.86,-327.84"/>
<polygon fill="#964b00" stroke="#964b00" points="134.36,-363.67 137.86,-373.67 141.36,-363.67 134.36,-363.67"/>
<polygon fill="#964b00" stroke="#964b00" points="141.36,-328.11 137.86,-318.11 134.36,-328.11 141.36,-328.11"/>
</g>
<!-- node_0x606000001760 -->
<g id="node3" class="node">
<title>node_0x606000001760</title>
<path fill="#00ffff" stroke="#964b00" d="M86.31,-125.5C86.31,-125.5 189.41,-125.5 189.41,-125.5 195.41,-125.5 201.41,-131.5 201.41,-137.5 201.41,-137.5 201.41,-179.5 201.41,-179.5 201.41,-185.5 195.41,-191.5 189.41,-191.5 189.41,-191.5 86.31,-191.5 86.31,-191.5 80.31,-191.5 74.31,-185.5 74.31,-179.5 74.31,-179.5 74.31,-137.5 74.31,-137.5 74.31,-131.5 80.31,-125.5 86.31,-125.5"/>
<text xml:space="preserve" text-anchor="middle" x="137.86" y="-176.3" font-family="Times,serif" font-size="14.00">type = OPERATOR</text>
<polyline fill="none" stroke="#964b00" points="74.31,-169.5 201.41,-169.5"/>
<text xml:space="preserve" text-anchor="middle" x="137.54" y="-154.3" font-family="Times,serif" font-size="14.00">val = 2(OP_SUB)</text>
<polyline fill="none" stroke="#964b00" points="74.31,-147.5 201.41,-147.5"/>
<text xml:space="preserve" text-anchor="middle" x="105.59" y="-132.3" font-family="Times,serif" font-size="14.00">L</text>
<polyline fill="none" stroke="#964b00" points="136.86,-125.5 136.86,-147.5"/>
<text xml:space="preserve" text-anchor="middle" x="169.03" y="-132.3" font-family="Times,serif" font-size="14.00">R</text>
</g>
<!-- node_0x606000002000&#45;&gt;node_0x606000001760 -->
<g id="edge2" class="edge">
<title>node_0x606000002000&#45;&gt;node_0x606000001760</title>
<path fill="none" stroke="#964b00" d="M137.86,-238.7C137.86,-227.05 137.86,-214.47 137.86,-202.84"/>
<polygon fill="#964b00" stroke="#964b00" points="134.36,-238.67 137.86,-248.67 141.36,-238.67 134.36,-238.67"/>
<polygon fill="#964b00" stroke="#964b00" points="141.36,-203.11 137.86,-193.11 134.36,-203.11 141.36,-203.11"/>
</g>
<!-- node_0x606000001700 -->
<g id="node4" class="node">
<title>node_0x606000001700</title>
<path fill="#daa520" stroke="#964b00" d="M12,-0.5C12,-0.5 111.72,-0.5 111.72,-0.5 117.72,-0.5 123.72,-6.5 123.72,-12.5 123.72,-12.5 123.72,-54.5 123.72,-54.5 123.72,-60.5 117.72,-66.5 111.72,-66.5 111.72,-66.5 12,-66.5 12,-66.5 6,-66.5 0,-60.5 0,-54.5 0,-54.5 0,-12.5 0,-12.5 0,-6.5 6,-0.5 12,-0.5"/>
<text xml:space="preserve" text-anchor="middle" x="61.86" y="-51.3" font-family="Times,serif" font-size="14.00">type = VARIABLE</text>
<polyline fill="none" stroke="#964b00" points="0,-44.5 123.72,-44.5"/>
<text xml:space="preserve" text-anchor="middle" x="61.5" y="-29.3" font-family="Times,serif" font-size="14.00">val = n</text>
<polyline fill="none" stroke="#964b00" points="0,-22.5 123.72,-22.5"/>
<text xml:space="preserve" text-anchor="middle" x="30.5" y="-7.3" font-family="Times,serif" font-size="14.00">0</text>
<polyline fill="none" stroke="#964b00" points="61,-0.5 61,-22.5"/>
<text xml:space="preserve" text-anchor="middle" x="92" y="-7.3" font-family="Times,serif" font-size="14.00">0</text>
</g>
<!-- node_0x606000001760&#45;&gt;node_0x606000001700 -->
<g id="edge3" class="edge">
<title>node_0x606000001760&#45;&gt;node_0x606000001700</title>
<path fill="none" stroke="#964b00" d="M111.92,-115.52C104.04,-102.76 95.39,-88.76 87.53,-76.04"/>
<polygon fill="#964b00" stroke="#964b00" points="108.86,-117.23 117.1,-123.9 114.82,-113.55 108.86,-117.23"/>
<polygon fill="#964b00" stroke="#964b00" points="90.72,-74.56 82.49,-67.89 84.77,-78.24 90.72,-74.56"/>
</g>
<!-- node_0x6060000017c0 -->
<g id="node5" class="node">
<title>node_0x6060000017c0</title>
<path fill="#98fb98" stroke="#964b00" d="M158.04,-0.5C158.04,-0.5 269.69,-0.5 269.69,-0.5 275.69,-0.5 281.69,-6.5 281.69,-12.5 281.69,-12.5 281.69,-54.5 281.69,-54.5 281.69,-60.5 275.69,-66.5 269.69,-66.5 269.69,-66.5 158.04,-66.5 158.04,-66.5 152.04,-66.5 146.04,-60.5 146.04,-54.5 146.04,-54.5 146.04,-12.5 146.04,-12.5 146.04,-6.5 152.04,-0.5 158.04,-0.5"/>
<text xml:space="preserve" text-anchor="middle" x="213.86" y="-51.3" font-family="Times,serif" font-size="14.00">type = CONST_VAR</text>
<polyline fill="none" stroke="#964b00" points="146.04,-44.5 281.69,-44.5"/>
<text xml:space="preserve" text-anchor="middle" x="213.54" y="-29.3" font-family="Times,serif" font-size="14.00">val = 1</text>
<polyline fill="none" stroke="#964b00" points="146.04,-22.5 281.69,-22.5"/>
<text xml:space="preserve" text-anchor="middle" x="179.54" y="-7.3" font-family="Times,serif" font-size="14.00">0</text>
<polyline fill="none" stroke="#964b00" points="213.04,-0.5 213.04,-22.5"/>
<text xml:space="preserve" text-anchor="middle" x="247.04" y="-7.3" font-family="Times,serif" font-size="14.00">0</text>
</g>
<!-- node_0x606000001760&#45;&gt;node_0x6060000017c0 -->
<g id="edge4" class="edge">
<title>node_0x606000001760&#45;&gt;node_0x6060000017c0</title>
<path fill="none" stroke="#964b00" d="M163.8,-115.52C171.68,-102.76 180.33,-88.76 188.19,-76.04"/>
<polygon fill="#964b00" stroke="#964b00" points="160.9,-113.55 158.62,-123.9 166.86,-117.23 160.9,-113.55"/>
<polygon fill="#964b00" stroke="#964b00" points="190.95,-78.24 193.23,-67.89 185,-74.56 190.95,-78.24"/>
</g>
</g>
</svg>
