<?xml version="1.0" encoding="UTF-8" standalone="no"?>
<!DOCTYPE svg PUBLIC "-//W3C//DTD SVG 1.1//EN"
 "http://www.w3.org/Graphics/SVG/1.1/DTD/svg11.dtd">
<!-- Generated by graphviz version 14.0.2 (20251019.1705)
 -->
<!-- Title: G Pages: 1 -->
<svg width="795pt" height="700pt"
 viewBox="0.00 0.00 795.00 700.00" xmlns="http://www.w3.org/2000/svg" xmlns:xlink="http://www.w3.org/1999/xlink">
<g id="graph0" class="graph" transform="scale(1 1) rotate(0) translate(4 696)">
<title>G</title>
<polygon fill="#fffafa" stroke="none" points="-4,4 -4,-696 790.69,-696 790.69,4 -4,4"/>
<!-- node_0x6060000091a0 -->
<g id="node1" class="node">
<title>node_0x6060000091a0</title>
<path fill="#00ffff" stroke="#964b00" d="M390.31,-625.5C390.31,-625.5 493.41,-625.5 493.41,-625.5 499.41,-625.5 505.41,-631.5 505.41,-637.5 505.41,-637.5 505.41,-679.5 505.41,-679.5 505.41,-685.5 499.41,-691.5 493.41,-691.5 493.41,-691.5 390.31,-691.5 390.31,-691.5 384.31,-691.5 378.31,-685.5 378.31,-679.5 378.31,-679.5 378.31,-637.5 378.31,-637.5 378.31,-631.5 384.31,-625.5 390.31,-625.5"/>
<text xml:space="preserve" text-anchor="middle" x="441.86" y="-676.3" font-family="Times,serif" font-size="14.00">type = OPERATOR</text>
<polyline fill="none" stroke="#964b00" points="378.31,-669.5 505.41,-669.5"/>
<text xml:space="preserve" text-anchor="middle" x="441.65" y="-654.3" font-family="Times,serif" font-size="14.00">val = 18(OP_CFB)</text>
<polyline fill="none" stroke="#964b00" points="378.31,-647.5 505.41,-647.5"/>
<text xml:space="preserve" text-anchor="middle" x="409.59" y="-632.3" font-family="Times,serif" font-size="14.00">L</text>
<polyline fill="none" stroke="#964b00" points="440.86,-625.5 440.86,-647.5"/>
<text xml:space="preserve" text-anchor="middle" x="473.03" y="-632.3" font-family="Times,serif" font-size="14.00">R</text>
</g>
<!-- node_0x606000009140 -->
<g id="node2" class="node">
<title>node_0x606000009140</title>
<path fill="#00ffff" stroke="#964b00" d="M390.31,-500.5C390.31,-500.5 493.41,-500.5 493.41,-500.5 499.41,-500.5 505.41,-506.5 505.41,-512.5 505.41,-512.5 505.41,-554.5 505.41,-554.5 505.41,-560.5 499.41,-566.5 493.41,-566.5 493.41,-566.5 390.31,-566.5 390.31,-566.5 384.31,-566.5 378.31,-560.5 378.31,-554.5 378.31,-554.5 378.31,-512.5 378.31,-512.5 378.31,-506.5 384.31,-500.5 390.31,-500.5"/>
<text xml:space="preserve" text-anchor="middle" x="441.86" y="-551.3" font-family="Times,serif" font-size="14.00">type = OPERATOR</text>
<polyline fill="none" stroke="#964b00" points="378.31,-544.5 505.41,-544.5"/>
<text xml:space="preserve" text-anchor="middle" x="441.65" y="-529.3" font-family="Times,serif" font-size="14.00">val = 18(OP_CFB)</text>
<polyline fill="none" stroke="#964b00" points="378.31,-522.5 505.41,-522.5"/>
<text xml:space="preserve" text-anchor="middle" x="409.59" y="-507.3" font-family="Times,serif" font-size="14.00">L</text>
<polyline fill="none" stroke="#964b00" points="440.86,-500.5 440.86,-522.5"/>
<text xml:space="preserve" text-anchor="middle" x="473.03" y="-507.3" font-family="Times,serif" font-size="14.00">R</text>
</g>
<!-- node_0x6060000091a0&#45;&gt;node_0x606000009140 -->
<g id="edge1" class="edge">
<title>node_0x6060000091a0&#45;&gt;node_0x606000009140</title>
<path fill="none" stroke="#964b00" d="M441.86,-613.7C441.86,-602.05 441.86,-589.47 441.86,-577.84"/>
<polygon fill="#964b00" stroke="#964b00" points="438.36,-613.67 441.86,-623.67 445.36,-613.67 438.36,-613.67"/>
<polygon fill="#964b00" stroke="#964b00" points="445.36,-578.11 441.86,-568.11 438.36,-578.11 445.36,-578.11"/>
</g>
<!-- node_0x606000004d00 -->
<g id="node3" class="node">
<title>node_0x606000004d00</title>
<path fill="#00ffff" stroke="#964b00" d="M315.31,-375.5C315.31,-375.5 418.41,-375.5 418.41,-375.5 424.41,-375.5 430.41,-381.5 430.41,-387.5 430.41,-387.5 430.41,-429.5 430.41,-429.5 430.41,-435.5 424.41,-441.5 418.41,-441.5 418.41,-441.5 315.31,-441.5 315.31,-441.5 309.31,-441.5 303.31,-435.5 303.31,-429.5 303.31,-429.5 303.31,-387.5 303.31,-387.5 303.31,-381.5 309.31,-375.5 315.31,-375.5"/>
<text xml:space="preserve" text-anchor="middle" x="366.86" y="-426.3" font-family="Times,serif" font-size="14.00">type = OPERATOR</text>
<polyline fill="none" stroke="#964b00" points="303.31,-419.5 430.41,-419.5"/>
<text xml:space="preserve" text-anchor="middle" x="366.65" y="-404.3" font-family="Times,serif" font-size="14.00">val = 12(OP_IF)</text>
<polyline fill="none" stroke="#964b00" points="303.31,-397.5 430.41,-397.5"/>
<text xml:space="preserve" text-anchor="middle" x="334.59" y="-382.3" font-family="Times,serif" font-size="14.00">L</text>
<polyline fill="none" stroke="#964b00" points="365.86,-375.5 365.86,-397.5"/>
<text xml:space="preserve" text-anchor="middle" x="398.03" y="-382.3" font-family="Times,serif" font-size="14.00">R</text>
</g>
<!-- node_0x606000009140&#45;&gt;node_0x606000004d00 -->
<g id="edge2" class="edge">
<title>node_0x606000009140&#45;&gt;node_0x606000004d00</title>
<path fill="none" stroke="#964b00" d="M416.26,-490.52C408.56,-477.89 400.11,-464.04 392.42,-451.41"/>
<polygon fill="#964b00" stroke="#964b00" points="413.17,-492.18 421.37,-498.89 419.15,-488.53 413.17,-492.18"/>
<polygon fill="#964b00" stroke="#964b00" points="395.42,-449.61 387.22,-442.89 389.44,-453.25 395.42,-449.61"/>
</g>
<!-- node_0x606000005180 -->
<g id="node11" class="node">
<title>node_0x606000005180</title>
<path fill="#00ffff" stroke="#964b00" d="M470.03,-375.5C470.03,-375.5 575.69,-375.5 575.69,-375.5 581.69,-375.5 587.69,-381.5 587.69,-387.5 587.69,-387.5 587.69,-429.5 587.69,-429.5 587.69,-435.5 581.69,-441.5 575.69,-441.5 575.69,-441.5 470.03,-441.5 470.03,-441.5 464.03,-441.5 458.03,-435.5 458.03,-429.5 458.03,-429.5 458.03,-387.5 458.03,-387.5 458.03,-381.5 464.03,-375.5 470.03,-375.5"/>
<text xml:space="preserve" text-anchor="middle" x="522.58" y="-426.3" font-family="Times,serif" font-size="14.00">type = OPERATOR</text>
<polyline fill="none" stroke="#964b00" points="458.03,-419.5 587.69,-419.5"/>
<text xml:space="preserve" text-anchor="middle" x="522.86" y="-404.3" font-family="Times,serif" font-size="14.00">val = 13(OP_ELSE)</text>
<polyline fill="none" stroke="#964b00" points="458.03,-397.5 587.69,-397.5"/>
<text xml:space="preserve" text-anchor="middle" x="489.81" y="-382.3" font-family="Times,serif" font-size="14.00">L</text>
<polyline fill="none" stroke="#964b00" points="521.58,-375.5 521.58,-397.5"/>
<text xml:space="preserve" text-anchor="middle" x="554.25" y="-382.3" font-family="Times,serif" font-size="14.00">R</text>
</g>
<!-- node_0x606000009140&#45;&gt;node_0x606000005180 -->
<g id="edge10" class="edge">
<title>node_0x606000009140&#45;&gt;node_0x606000005180</title>
<path fill="none" stroke="#964b00" d="M469.21,-490.97C477.67,-478.13 486.98,-463.98 495.44,-451.13"/>
<polygon fill="#964b00" stroke="#964b00" points="466.55,-488.64 463.97,-498.92 472.4,-492.49 466.55,-488.64"/>
<polygon fill="#964b00" stroke="#964b00" points="498.31,-453.14 500.89,-442.87 492.47,-449.29 498.31,-453.14"/>
</g>
<!-- node_0x606000004e20 -->
<g id="node4" class="node">
<title>node_0x606000004e20</title>
<path fill="#00ffff" stroke="#964b00" d="M162.31,-250.5C162.31,-250.5 265.41,-250.5 265.41,-250.5 271.41,-250.5 277.41,-256.5 277.41,-262.5 277.41,-262.5 277.41,-304.5 277.41,-304.5 277.41,-310.5 271.41,-316.5 265.41,-316.5 265.41,-316.5 162.31,-316.5 162.31,-316.5 156.31,-316.5 150.31,-310.5 150.31,-304.5 150.31,-304.5 150.31,-262.5 150.31,-262.5 150.31,-256.5 156.31,-250.5 162.31,-250.5"/>
<text xml:space="preserve" text-anchor="middle" x="213.86" y="-301.3" font-family="Times,serif" font-size="14.00">type = OPERATOR</text>
<polyline fill="none" stroke="#964b00" points="150.31,-294.5 277.41,-294.5"/>
<text xml:space="preserve" text-anchor="middle" x="213.75" y="-279.3" font-family="Times,serif" font-size="14.00">val = 8(OP_EQ)</text>
<polyline fill="none" stroke="#964b00" points="150.31,-272.5 277.41,-272.5"/>
<text xml:space="preserve" text-anchor="middle" x="181.59" y="-257.3" font-family="Times,serif" font-size="14.00">L</text>
<polyline fill="none" stroke="#964b00" points="212.86,-250.5 212.86,-272.5"/>
<text xml:space="preserve" text-anchor="middle" x="245.03" y="-257.3" font-family="Times,serif" font-size="14.00">R</text>
</g>
<!-- node_0x606000004d00&#45;&gt;node_0x606000004e20 -->
<g id="edge3" class="edge">
<title>node_0x606000004d00&#45;&gt;node_0x606000004e20</title>
<path fill="none" stroke="#964b00" d="M317.75,-368.02C300.24,-353.94 280.51,-338.08 262.99,-324"/>
<polygon fill="#964b00" stroke="#964b00" points="315.5,-370.7 325.48,-374.23 319.88,-365.24 315.5,-370.7"/>
<polygon fill="#964b00" stroke="#964b00" points="265.22,-321.3 255.24,-317.76 260.84,-326.76 265.22,-321.3"/>
</g>
<!-- node_0x6060000050c0 -->
<g id="node7" class="node">
<title>node_0x6060000050c0</title>
<path fill="#00ffff" stroke="#964b00" d="M315.31,-250.5C315.31,-250.5 418.41,-250.5 418.41,-250.5 424.41,-250.5 430.41,-256.5 430.41,-262.5 430.41,-262.5 430.41,-304.5 430.41,-304.5 430.41,-310.5 424.41,-316.5 418.41,-316.5 418.41,-316.5 315.31,-316.5 315.31,-316.5 309.31,-316.5 303.31,-310.5 303.31,-304.5 303.31,-304.5 303.31,-262.5 303.31,-262.5 303.31,-256.5 309.31,-250.5 315.31,-250.5"/>
<text xml:space="preserve" text-anchor="middle" x="366.86" y="-301.3" font-family="Times,serif" font-size="14.00">type = OPERATOR</text>
<polyline fill="none" stroke="#964b00" points="303.31,-294.5 430.41,-294.5"/>
<text xml:space="preserve" text-anchor="middle" x="366.45" y="-279.3" font-family="Times,serif" font-size="14.00">val = 11(OP_SP)</text>
<polyline fill="none" stroke="#964b00" points="303.31,-272.5 430.41,-272.5"/>
<text xml:space="preserve" text-anchor="middle" x="334.59" y="-257.3" font-family="Times,serif" font-size="14.00">L</text>
<polyline fill="none" stroke="#964b00" points="365.86,-250.5 365.86,-272.5"/>
<text xml:space="preserve" text-anchor="middle" x="398.03" y="-257.3" font-family="Times,serif" font-size="14.00">R</text>
</g>
<!-- node_0x606000004d00&#45;&gt;node_0x6060000050c0 -->
<g id="edge6" class="edge">
<title>node_0x606000004d00&#45;&gt;node_0x6060000050c0</title>
<path fill="none" stroke="#964b00" d="M366.86,-363.7C366.86,-352.05 366.86,-339.47 366.86,-327.84"/>
<polygon fill="#964b00" stroke="#964b00" points="363.36,-363.67 366.86,-373.67 370.36,-363.67 363.36,-363.67"/>
<polygon fill="#964b00" stroke="#964b00" points="370.36,-328.11 366.86,-318.11 363.36,-328.11 370.36,-328.11"/>
</g>
<!-- node_0x606000004dc0 -->
<g id="node5" class="node">
<title>node_0x606000004dc0</title>
<path fill="#daa520" stroke="#964b00" d="M12,-125.5C12,-125.5 111.72,-125.5 111.72,-125.5 117.72,-125.5 123.72,-131.5 123.72,-137.5 123.72,-137.5 123.72,-179.5 123.72,-179.5 123.72,-185.5 117.72,-191.5 111.72,-191.5 111.72,-191.5 12,-191.5 12,-191.5 6,-191.5 0,-185.5 0,-179.5 0,-179.5 0,-137.5 0,-137.5 0,-131.5 6,-125.5 12,-125.5"/>
<text xml:space="preserve" text-anchor="middle" x="61.86" y="-176.3" font-family="Times,serif" font-size="14.00">type = VARIABLE</text>
<polyline fill="none" stroke="#964b00" points="0,-169.5 123.72,-169.5"/>
<text xml:space="preserve" text-anchor="middle" x="61.61" y="-154.3" font-family="Times,serif" font-size="14.00">val = c</text>
<polyline fill="none" stroke="#964b00" points="0,-147.5 123.72,-147.5"/>
<text xml:space="preserve" text-anchor="middle" x="30.5" y="-132.3" font-family="Times,serif" font-size="14.00">0</text>
<polyline fill="none" stroke="#964b00" points="61,-125.5 61,-147.5"/>
<text xml:space="preserve" text-anchor="middle" x="92" y="-132.3" font-family="Times,serif" font-size="14.00">0</text>
</g>
<!-- node_0x606000004e20&#45;&gt;node_0x606000004dc0 -->
<g id="edge4" class="edge">
<title>node_0x606000004e20&#45;&gt;node_0x606000004dc0</title>
<path fill="none" stroke="#964b00" d="M165.07,-243.02C147.67,-228.94 128.08,-213.08 110.67,-199"/>
<polygon fill="#964b00" stroke="#964b00" points="162.77,-245.66 172.75,-249.23 167.18,-240.22 162.77,-245.66"/>
<polygon fill="#964b00" stroke="#964b00" points="112.95,-196.34 102.97,-192.77 108.54,-201.78 112.95,-196.34"/>
</g>
<!-- node_0x606000004e80 -->
<g id="node6" class="node">
<title>node_0x606000004e80</title>
<path fill="#98fb98" stroke="#964b00" d="M158.04,-125.5C158.04,-125.5 269.69,-125.5 269.69,-125.5 275.69,-125.5 281.69,-131.5 281.69,-137.5 281.69,-137.5 281.69,-179.5 281.69,-179.5 281.69,-185.5 275.69,-191.5 269.69,-191.5 269.69,-191.5 158.04,-191.5 158.04,-191.5 152.04,-191.5 146.04,-185.5 146.04,-179.5 146.04,-179.5 146.04,-137.5 146.04,-137.5 146.04,-131.5 152.04,-125.5 158.04,-125.5"/>
<text xml:space="preserve" text-anchor="middle" x="213.86" y="-176.3" font-family="Times,serif" font-size="14.00">type = CONST_VAR</text>
<polyline fill="none" stroke="#964b00" points="146.04,-169.5 281.69,-169.5"/>
<text xml:space="preserve" text-anchor="middle" x="213.54" y="-154.3" font-family="Times,serif" font-size="14.00">val = 0</text>
<polyline fill="none" stroke="#964b00" points="146.04,-147.5 281.69,-147.5"/>
<text xml:space="preserve" text-anchor="middle" x="179.54" y="-132.3" font-family="Times,serif" font-size="14.00">0</text>
<polyline fill="none" stroke="#964b00" points="213.04,-125.5 213.04,-147.5"/>
<text xml:space="preserve" text-anchor="middle" x="247.04" y="-132.3" font-family="Times,serif" font-size="14.00">0</text>
</g>
<!-- node_0x606000004e20&#45;&gt;node_0x606000004e80 -->
<g id="edge5" class="edge">
<title>node_0x606000004e20&#45;&gt;node_0x606000004e80</title>
<path fill="none" stroke="#964b00" d="M213.86,-238.7C213.86,-227.05 213.86,-214.47 213.86,-202.84"/>
<polygon fill="#964b00" stroke="#964b00" points="210.36,-238.67 213.86,-248.67 217.36,-238.67 210.36,-238.67"/>
<polygon fill="#964b00" stroke="#964b00" points="217.36,-203.11 213.86,-193.11 210.36,-203.11 217.36,-203.11"/>
</g>
<!-- node_0x606000005000 -->
<g id="node8" class="node">
<title>node_0x606000005000</title>
<path fill="#00ffff" stroke="#964b00" d="M315.31,-125.5C315.31,-125.5 418.41,-125.5 418.41,-125.5 424.41,-125.5 430.41,-131.5 430.41,-137.5 430.41,-137.5 430.41,-179.5 430.41,-179.5 430.41,-185.5 424.41,-191.5 418.41,-191.5 418.41,-191.5 315.31,-191.5 315.31,-191.5 309.31,-191.5 303.31,-185.5 303.31,-179.5 303.31,-179.5 303.31,-137.5 303.31,-137.5 303.31,-131.5 309.31,-125.5 315.31,-125.5"/>
<text xml:space="preserve" text-anchor="middle" x="366.86" y="-176.3" font-family="Times,serif" font-size="14.00">type = OPERATOR</text>
<polyline fill="none" stroke="#964b00" points="303.31,-169.5 430.41,-169.5"/>
<text xml:space="preserve" text-anchor="middle" x="366.76" y="-154.3" font-family="Times,serif" font-size="14.00">val = 7(OP_ASS)</text>
<polyline fill="none" stroke="#964b00" points="303.31,-147.5 430.41,-147.5"/>
<text xml:space="preserve" text-anchor="middle" x="334.59" y="-132.3" font-family="Times,serif" font-size="14.00">L</text>
<polyline fill="none" stroke="#964b00" points="365.86,-125.5 365.86,-147.5"/>
<text xml:space="preserve" text-anchor="middle" x="398.03" y="-132.3" font-family="Times,serif" font-size="14.00">R</text>
</g>
<!-- node_0x6060000050c0&#45;&gt;node_0x606000005000 -->
<g id="edge7" class="edge">
<title>node_0x6060000050c0&#45;&gt;node_0x606000005000</title>
<path fill="none" stroke="#964b00" d="M366.86,-238.7C366.86,-227.05 366.86,-214.47 366.86,-202.84"/>
<polygon fill="#964b00" stroke="#964b00" points="363.36,-238.67 366.86,-248.67 370.36,-238.67 363.36,-238.67"/>
<polygon fill="#964b00" stroke="#964b00" points="370.36,-203.11 366.86,-193.11 363.36,-203.11 370.36,-203.11"/>
</g>
<!-- node_0x606000004fa0 -->
<g id="node9" class="node">
<title>node_0x606000004fa0</title>
<path fill="#daa520" stroke="#964b00" d="M116.64,-0.5C116.64,-0.5 265.08,-0.5 265.08,-0.5 271.08,-0.5 277.08,-6.5 277.08,-12.5 277.08,-12.5 277.08,-54.5 277.08,-54.5 277.08,-60.5 271.08,-66.5 265.08,-66.5 265.08,-66.5 116.64,-66.5 116.64,-66.5 110.64,-66.5 104.64,-60.5 104.64,-54.5 104.64,-54.5 104.64,-12.5 104.64,-12.5 104.64,-6.5 110.64,-0.5 116.64,-0.5"/>
<text xml:space="preserve" text-anchor="middle" x="190.5" y="-51.3" font-family="Times,serif" font-size="14.00">type = VARIABLE</text>
<polyline fill="none" stroke="#964b00" points="104.64,-44.5 277.08,-44.5"/>
<text xml:space="preserve" text-anchor="middle" x="190.86" y="-29.3" font-family="Times,serif" font-size="14.00">val = quantaty_of_solutions</text>
<polyline fill="none" stroke="#964b00" points="104.64,-22.5 277.08,-22.5"/>
<text xml:space="preserve" text-anchor="middle" x="147.64" y="-7.3" font-family="Times,serif" font-size="14.00">0</text>
<polyline fill="none" stroke="#964b00" points="190.64,-0.5 190.64,-22.5"/>
<text xml:space="preserve" text-anchor="middle" x="233.64" y="-7.3" font-family="Times,serif" font-size="14.00">0</text>
</g>
<!-- node_0x606000005000&#45;&gt;node_0x606000004fa0 -->
<g id="edge8" class="edge">
<title>node_0x606000005000&#45;&gt;node_0x606000004fa0</title>
<path fill="none" stroke="#964b00" d="M311.32,-118.69C290.61,-104.21 267.11,-87.79 246.4,-73.31"/>
<polygon fill="#964b00" stroke="#964b00" points="309.18,-121.46 319.38,-124.32 313.19,-115.72 309.18,-121.46"/>
<polygon fill="#964b00" stroke="#964b00" points="248.54,-70.54 238.34,-67.68 244.53,-76.28 248.54,-70.54"/>
</g>
<!-- node_0x606000005060 -->
<g id="node10" class="node">
<title>node_0x606000005060</title>
<path fill="#98fb98" stroke="#964b00" d="M311.04,-0.5C311.04,-0.5 422.69,-0.5 422.69,-0.5 428.69,-0.5 434.69,-6.5 434.69,-12.5 434.69,-12.5 434.69,-54.5 434.69,-54.5 434.69,-60.5 428.69,-66.5 422.69,-66.5 422.69,-66.5 311.04,-66.5 311.04,-66.5 305.04,-66.5 299.04,-60.5 299.04,-54.5 299.04,-54.5 299.04,-12.5 299.04,-12.5 299.04,-6.5 305.04,-0.5 311.04,-0.5"/>
<text xml:space="preserve" text-anchor="middle" x="366.86" y="-51.3" font-family="Times,serif" font-size="14.00">type = CONST_VAR</text>
<polyline fill="none" stroke="#964b00" points="299.04,-44.5 434.69,-44.5"/>
<text xml:space="preserve" text-anchor="middle" x="366.54" y="-29.3" font-family="Times,serif" font-size="14.00">val = 8</text>
<polyline fill="none" stroke="#964b00" points="299.04,-22.5 434.69,-22.5"/>
<text xml:space="preserve" text-anchor="middle" x="332.54" y="-7.3" font-family="Times,serif" font-size="14.00">0</text>
<polyline fill="none" stroke="#964b00" points="366.04,-0.5 366.04,-22.5"/>
<text xml:space="preserve" text-anchor="middle" x="400.04" y="-7.3" font-family="Times,serif" font-size="14.00">0</text>
</g>
<!-- node_0x606000005000&#45;&gt;node_0x606000005060 -->
<g id="edge9" class="edge">
<title>node_0x606000005000&#45;&gt;node_0x606000005060</title>
<path fill="none" stroke="#964b00" d="M366.86,-113.7C366.86,-102.05 366.86,-89.47 366.86,-77.84"/>
<polygon fill="#964b00" stroke="#964b00" points="363.36,-113.67 366.86,-123.67 370.36,-113.67 363.36,-113.67"/>
<polygon fill="#964b00" stroke="#964b00" points="370.36,-78.11 366.86,-68.11 363.36,-78.11 370.36,-78.11"/>
</g>
<!-- node_0x606000005360 -->
<g id="node12" class="node">
<title>node_0x606000005360</title>
<path fill="#00ffff" stroke="#964b00" d="M484.31,-250.5C484.31,-250.5 587.41,-250.5 587.41,-250.5 593.41,-250.5 599.41,-256.5 599.41,-262.5 599.41,-262.5 599.41,-304.5 599.41,-304.5 599.41,-310.5 593.41,-316.5 587.41,-316.5 587.41,-316.5 484.31,-316.5 484.31,-316.5 478.31,-316.5 472.31,-310.5 472.31,-304.5 472.31,-304.5 472.31,-262.5 472.31,-262.5 472.31,-256.5 478.31,-250.5 484.31,-250.5"/>
<text xml:space="preserve" text-anchor="middle" x="535.86" y="-301.3" font-family="Times,serif" font-size="14.00">type = OPERATOR</text>
<polyline fill="none" stroke="#964b00" points="472.31,-294.5 599.41,-294.5"/>
<text xml:space="preserve" text-anchor="middle" x="535.45" y="-279.3" font-family="Times,serif" font-size="14.00">val = 11(OP_SP)</text>
<polyline fill="none" stroke="#964b00" points="472.31,-272.5 599.41,-272.5"/>
<text xml:space="preserve" text-anchor="middle" x="503.59" y="-257.3" font-family="Times,serif" font-size="14.00">L</text>
<polyline fill="none" stroke="#964b00" points="534.86,-250.5 534.86,-272.5"/>
<text xml:space="preserve" text-anchor="middle" x="567.03" y="-257.3" font-family="Times,serif" font-size="14.00">R</text>
</g>
<!-- node_0x606000005180&#45;&gt;node_0x606000005360 -->
<g id="edge11" class="edge">
<title>node_0x606000005180&#45;&gt;node_0x606000005360</title>
<path fill="none" stroke="#964b00" d="M527.44,-364.15C528.68,-352.41 530.03,-339.7 531.27,-327.96"/>
<polygon fill="#964b00" stroke="#964b00" points="524.01,-363.37 526.44,-373.68 530.97,-364.1 524.01,-363.37"/>
<polygon fill="#964b00" stroke="#964b00" points="534.74,-328.42 532.31,-318.11 527.78,-327.68 534.74,-328.42"/>
</g>
<!-- node_0x6060000052a0 -->
<g id="node13" class="node">
<title>node_0x6060000052a0</title>
<path fill="#00ffff" stroke="#964b00" d="M491.31,-125.5C491.31,-125.5 594.41,-125.5 594.41,-125.5 600.41,-125.5 606.41,-131.5 606.41,-137.5 606.41,-137.5 606.41,-179.5 606.41,-179.5 606.41,-185.5 600.41,-191.5 594.41,-191.5 594.41,-191.5 491.31,-191.5 491.31,-191.5 485.31,-191.5 479.31,-185.5 479.31,-179.5 479.31,-179.5 479.31,-137.5 479.31,-137.5 479.31,-131.5 485.31,-125.5 491.31,-125.5"/>
<text xml:space="preserve" text-anchor="middle" x="542.86" y="-176.3" font-family="Times,serif" font-size="14.00">type = OPERATOR</text>
<polyline fill="none" stroke="#964b00" points="479.31,-169.5 606.41,-169.5"/>
<text xml:space="preserve" text-anchor="middle" x="542.76" y="-154.3" font-family="Times,serif" font-size="14.00">val = 7(OP_ASS)</text>
<polyline fill="none" stroke="#964b00" points="479.31,-147.5 606.41,-147.5"/>
<text xml:space="preserve" text-anchor="middle" x="510.59" y="-132.3" font-family="Times,serif" font-size="14.00">L</text>
<polyline fill="none" stroke="#964b00" points="541.86,-125.5 541.86,-147.5"/>
<text xml:space="preserve" text-anchor="middle" x="574.03" y="-132.3" font-family="Times,serif" font-size="14.00">R</text>
</g>
<!-- node_0x606000005360&#45;&gt;node_0x6060000052a0 -->
<g id="edge12" class="edge">
<title>node_0x606000005360&#45;&gt;node_0x6060000052a0</title>
<path fill="none" stroke="#964b00" d="M538.35,-238.7C539.02,-227.05 539.73,-214.47 540.39,-202.84"/>
<polygon fill="#964b00" stroke="#964b00" points="534.86,-238.49 537.79,-248.67 541.85,-238.89 534.86,-238.49"/>
<polygon fill="#964b00" stroke="#964b00" points="543.87,-203.29 540.95,-193.11 536.88,-202.9 543.87,-203.29"/>
</g>
<!-- node_0x606000005240 -->
<g id="node14" class="node">
<title>node_0x606000005240</title>
<path fill="#daa520" stroke="#964b00" d="M468.64,-0.5C468.64,-0.5 617.08,-0.5 617.08,-0.5 623.08,-0.5 629.08,-6.5 629.08,-12.5 629.08,-12.5 629.08,-54.5 629.08,-54.5 629.08,-60.5 623.08,-66.5 617.08,-66.5 617.08,-66.5 468.64,-66.5 468.64,-66.5 462.64,-66.5 456.64,-60.5 456.64,-54.5 456.64,-54.5 456.64,-12.5 456.64,-12.5 456.64,-6.5 462.64,-0.5 468.64,-0.5"/>
<text xml:space="preserve" text-anchor="middle" x="542.5" y="-51.3" font-family="Times,serif" font-size="14.00">type = VARIABLE</text>
<polyline fill="none" stroke="#964b00" points="456.64,-44.5 629.08,-44.5"/>
<text xml:space="preserve" text-anchor="middle" x="542.86" y="-29.3" font-family="Times,serif" font-size="14.00">val = quantaty_of_solutions</text>
<polyline fill="none" stroke="#964b00" points="456.64,-22.5 629.08,-22.5"/>
<text xml:space="preserve" text-anchor="middle" x="499.64" y="-7.3" font-family="Times,serif" font-size="14.00">0</text>
<polyline fill="none" stroke="#964b00" points="542.64,-0.5 542.64,-22.5"/>
<text xml:space="preserve" text-anchor="middle" x="585.64" y="-7.3" font-family="Times,serif" font-size="14.00">0</text>
</g>
<!-- node_0x6060000052a0&#45;&gt;node_0x606000005240 -->
<g id="edge13" class="edge">
<title>node_0x6060000052a0&#45;&gt;node_0x606000005240</title>
<path fill="none" stroke="#964b00" d="M542.86,-113.7C542.86,-102.05 542.86,-89.47 542.86,-77.84"/>
<polygon fill="#964b00" stroke="#964b00" points="539.36,-113.67 542.86,-123.67 546.36,-113.67 539.36,-113.67"/>
<polygon fill="#964b00" stroke="#964b00" points="546.36,-78.11 542.86,-68.11 539.36,-78.11 546.36,-78.11"/>
</g>
<!-- node_0x606000005300 -->
<g id="node15" class="node">
<title>node_0x606000005300</title>
<path fill="#98fb98" stroke="#964b00" d="M663.04,-0.5C663.04,-0.5 774.69,-0.5 774.69,-0.5 780.69,-0.5 786.69,-6.5 786.69,-12.5 786.69,-12.5 786.69,-54.5 786.69,-54.5 786.69,-60.5 780.69,-66.5 774.69,-66.5 774.69,-66.5 663.04,-66.5 663.04,-66.5 657.04,-66.5 651.04,-60.5 651.04,-54.5 651.04,-54.5 651.04,-12.5 651.04,-12.5 651.04,-6.5 657.04,-0.5 663.04,-0.5"/>
<text xml:space="preserve" text-anchor="middle" x="718.86" y="-51.3" font-family="Times,serif" font-size="14.00">type = CONST_VAR</text>
<polyline fill="none" stroke="#964b00" points="651.04,-44.5 786.69,-44.5"/>
<text xml:space="preserve" text-anchor="middle" x="718.54" y="-29.3" font-family="Times,serif" font-size="14.00">val = 0</text>
<polyline fill="none" stroke="#964b00" points="651.04,-22.5 786.69,-22.5"/>
<text xml:space="preserve" text-anchor="middle" x="684.54" y="-7.3" font-family="Times,serif" font-size="14.00">0</text>
<polyline fill="none" stroke="#964b00" points="718.04,-0.5 718.04,-22.5"/>
<text xml:space="preserve" text-anchor="middle" x="752.04" y="-7.3" font-family="Times,serif" font-size="14.00">0</text>
</g>
<!-- node_0x6060000052a0&#45;&gt;node_0x606000005300 -->
<g id="edge14" class="edge">
<title>node_0x6060000052a0&#45;&gt;node_0x606000005300</title>
<path fill="none" stroke="#964b00" d="M598.4,-118.69C619.11,-104.21 642.61,-87.79 663.32,-73.31"/>
<polygon fill="#964b00" stroke="#964b00" points="596.53,-115.72 590.34,-124.32 600.54,-121.46 596.53,-115.72"/>
<polygon fill="#964b00" stroke="#964b00" points="665.19,-76.28 671.38,-67.68 661.18,-70.54 665.19,-76.28"/>
</g>
</g>
</svg>
