<?xml version="1.0" encoding="UTF-8" standalone="no"?>
<!DOCTYPE svg PUBLIC "-//W3C//DTD SVG 1.1//EN"
 "http://www.w3.org/Graphics/SVG/1.1/DTD/svg11.dtd">
<!-- Generated by graphviz version 14.0.2 (20251019.1705)
 -->
<!-- Title: G Pages: 1 -->
<svg width="361pt" height="325pt"
 viewBox="0.00 0.00 361.00 325.00" xmlns="http://www.w3.org/2000/svg" xmlns:xlink="http://www.w3.org/1999/xlink">
<g id="graph0" class="graph" transform="scale(1 1) rotate(0) translate(4 321)">
<title>G</title>
<polygon fill="#fffafa" stroke="none" points="-4,4 -4,-321 356.69,-321 356.69,4 -4,4"/>
<!-- node_0x6060000083c0 -->
<g id="node1" class="node">
<title>node_0x6060000083c0</title>
<path fill="#00ffff" stroke="#964b00" d="M165.28,-250.5C165.28,-250.5 268.37,-250.5 268.37,-250.5 274.37,-250.5 280.37,-256.5 280.37,-262.5 280.37,-262.5 280.37,-304.5 280.37,-304.5 280.37,-310.5 274.37,-316.5 268.37,-316.5 268.37,-316.5 165.28,-316.5 165.28,-316.5 159.28,-316.5 153.28,-310.5 153.28,-304.5 153.28,-304.5 153.28,-262.5 153.28,-262.5 153.28,-256.5 159.28,-250.5 165.28,-250.5"/>
<text xml:space="preserve" text-anchor="middle" x="216.82" y="-301.3" font-family="Times,serif" font-size="14.00">type = OPERATOR</text>
<polyline fill="none" stroke="#964b00" points="153.28,-294.5 280.37,-294.5"/>
<text xml:space="preserve" text-anchor="middle" x="216.55" y="-279.3" font-family="Times,serif" font-size="14.00">val = 1(OP_ADD)</text>
<polyline fill="none" stroke="#964b00" points="153.28,-272.5 280.37,-272.5"/>
<text xml:space="preserve" text-anchor="middle" x="184.55" y="-257.3" font-family="Times,serif" font-size="14.00">L</text>
<polyline fill="none" stroke="#964b00" points="215.83,-250.5 215.83,-272.5"/>
<text xml:space="preserve" text-anchor="middle" x="248" y="-257.3" font-family="Times,serif" font-size="14.00">R</text>
</g>
<!-- node_0x606000008300 -->
<g id="node2" class="node">
<title>node_0x606000008300</title>
<path fill="#00ffff" stroke="#964b00" d="M92.28,-125.5C92.28,-125.5 195.37,-125.5 195.37,-125.5 201.37,-125.5 207.37,-131.5 207.37,-137.5 207.37,-137.5 207.37,-179.5 207.37,-179.5 207.37,-185.5 201.37,-191.5 195.37,-191.5 195.37,-191.5 92.28,-191.5 92.28,-191.5 86.28,-191.5 80.28,-185.5 80.28,-179.5 80.28,-179.5 80.28,-137.5 80.28,-137.5 80.28,-131.5 86.28,-125.5 92.28,-125.5"/>
<text xml:space="preserve" text-anchor="middle" x="143.82" y="-176.3" font-family="Times,serif" font-size="14.00">type = OPERATOR</text>
<polyline fill="none" stroke="#964b00" points="80.28,-169.5 207.37,-169.5"/>
<text xml:space="preserve" text-anchor="middle" x="143.44" y="-154.3" font-family="Times,serif" font-size="14.00">val = 3(OP_MUL)</text>
<polyline fill="none" stroke="#964b00" points="80.28,-147.5 207.37,-147.5"/>
<text xml:space="preserve" text-anchor="middle" x="111.55" y="-132.3" font-family="Times,serif" font-size="14.00">L</text>
<polyline fill="none" stroke="#964b00" points="142.83,-125.5 142.83,-147.5"/>
<text xml:space="preserve" text-anchor="middle" x="175" y="-132.3" font-family="Times,serif" font-size="14.00">R</text>
</g>
<!-- node_0x6060000083c0&#45;&gt;node_0x606000008300 -->
<g id="edge1" class="edge">
<title>node_0x6060000083c0&#45;&gt;node_0x606000008300</title>
<path fill="none" stroke="#964b00" d="M191.91,-240.52C184.41,-227.89 176.19,-214.04 168.7,-201.41"/>
<polygon fill="#964b00" stroke="#964b00" points="188.76,-242.07 196.87,-248.88 194.78,-238.5 188.76,-242.07"/>
<polygon fill="#964b00" stroke="#964b00" points="171.76,-199.72 163.65,-192.9 165.74,-203.29 171.76,-199.72"/>
</g>
<!-- node_0x606000008420 -->
<g id="node5" class="node">
<title>node_0x606000008420</title>
<path fill="#daa520" stroke="#964b00" d="M240.96,-125.5C240.96,-125.5 340.69,-125.5 340.69,-125.5 346.69,-125.5 352.69,-131.5 352.69,-137.5 352.69,-137.5 352.69,-179.5 352.69,-179.5 352.69,-185.5 346.69,-191.5 340.69,-191.5 340.69,-191.5 240.96,-191.5 240.96,-191.5 234.96,-191.5 228.96,-185.5 228.96,-179.5 228.96,-179.5 228.96,-137.5 228.96,-137.5 228.96,-131.5 234.96,-125.5 240.96,-125.5"/>
<text xml:space="preserve" text-anchor="middle" x="290.82" y="-176.3" font-family="Times,serif" font-size="14.00">type = VARIABLE</text>
<polyline fill="none" stroke="#964b00" points="228.96,-169.5 352.69,-169.5"/>
<text xml:space="preserve" text-anchor="middle" x="290.46" y="-154.3" font-family="Times,serif" font-size="14.00">val = diskr</text>
<polyline fill="none" stroke="#964b00" points="228.96,-147.5 352.69,-147.5"/>
<text xml:space="preserve" text-anchor="middle" x="259.46" y="-132.3" font-family="Times,serif" font-size="14.00">0</text>
<polyline fill="none" stroke="#964b00" points="289.96,-125.5 289.96,-147.5"/>
<text xml:space="preserve" text-anchor="middle" x="320.96" y="-132.3" font-family="Times,serif" font-size="14.00">0</text>
</g>
<!-- node_0x6060000083c0&#45;&gt;node_0x606000008420 -->
<g id="edge4" class="edge">
<title>node_0x6060000083c0&#45;&gt;node_0x606000008420</title>
<path fill="none" stroke="#964b00" d="M242.08,-240.52C249.68,-227.89 258.01,-214.04 265.61,-201.41"/>
<polygon fill="#964b00" stroke="#964b00" points="239.2,-238.51 237.05,-248.89 245.2,-242.12 239.2,-238.51"/>
<polygon fill="#964b00" stroke="#964b00" points="268.58,-203.27 270.73,-192.9 262.58,-199.66 268.58,-203.27"/>
</g>
<!-- node_0x606000008240 -->
<g id="node3" class="node">
<title>node_0x606000008240</title>
<path fill="#98fb98" stroke="#964b00" d="M12,-0.5C12,-0.5 123.65,-0.5 123.65,-0.5 129.65,-0.5 135.65,-6.5 135.65,-12.5 135.65,-12.5 135.65,-54.5 135.65,-54.5 135.65,-60.5 129.65,-66.5 123.65,-66.5 123.65,-66.5 12,-66.5 12,-66.5 6,-66.5 0,-60.5 0,-54.5 0,-54.5 0,-12.5 0,-12.5 0,-6.5 6,-0.5 12,-0.5"/>
<text xml:space="preserve" text-anchor="middle" x="67.82" y="-51.3" font-family="Times,serif" font-size="14.00">type = CONST_VAR</text>
<polyline fill="none" stroke="#964b00" points="0,-44.5 135.65,-44.5"/>
<text xml:space="preserve" text-anchor="middle" x="67.33" y="-29.3" font-family="Times,serif" font-size="14.00">val = &#45;1</text>
<polyline fill="none" stroke="#964b00" points="0,-22.5 135.65,-22.5"/>
<text xml:space="preserve" text-anchor="middle" x="33.5" y="-7.3" font-family="Times,serif" font-size="14.00">0</text>
<polyline fill="none" stroke="#964b00" points="67,-0.5 67,-22.5"/>
<text xml:space="preserve" text-anchor="middle" x="101" y="-7.3" font-family="Times,serif" font-size="14.00">0</text>
</g>
<!-- node_0x606000008300&#45;&gt;node_0x606000008240 -->
<g id="edge2" class="edge">
<title>node_0x606000008300&#45;&gt;node_0x606000008240</title>
<path fill="none" stroke="#964b00" d="M117.88,-115.52C110,-102.76 101.35,-88.76 93.49,-76.04"/>
<polygon fill="#964b00" stroke="#964b00" points="114.83,-117.23 123.06,-123.9 120.78,-113.55 114.83,-117.23"/>
<polygon fill="#964b00" stroke="#964b00" points="96.69,-74.56 88.46,-67.89 90.73,-78.24 96.69,-74.56"/>
</g>
<!-- node_0x606000008360 -->
<g id="node4" class="node">
<title>node_0x606000008360</title>
<path fill="#daa520" stroke="#964b00" d="M169.96,-0.5C169.96,-0.5 269.69,-0.5 269.69,-0.5 275.69,-0.5 281.69,-6.5 281.69,-12.5 281.69,-12.5 281.69,-54.5 281.69,-54.5 281.69,-60.5 275.69,-66.5 269.69,-66.5 269.69,-66.5 169.96,-66.5 169.96,-66.5 163.96,-66.5 157.96,-60.5 157.96,-54.5 157.96,-54.5 157.96,-12.5 157.96,-12.5 157.96,-6.5 163.96,-0.5 169.96,-0.5"/>
<text xml:space="preserve" text-anchor="middle" x="219.82" y="-51.3" font-family="Times,serif" font-size="14.00">type = VARIABLE</text>
<polyline fill="none" stroke="#964b00" points="157.96,-44.5 281.69,-44.5"/>
<text xml:space="preserve" text-anchor="middle" x="219.46" y="-29.3" font-family="Times,serif" font-size="14.00">val = b</text>
<polyline fill="none" stroke="#964b00" points="157.96,-22.5 281.69,-22.5"/>
<text xml:space="preserve" text-anchor="middle" x="188.46" y="-7.3" font-family="Times,serif" font-size="14.00">0</text>
<polyline fill="none" stroke="#964b00" points="218.96,-0.5 218.96,-22.5"/>
<text xml:space="preserve" text-anchor="middle" x="249.96" y="-7.3" font-family="Times,serif" font-size="14.00">0</text>
</g>
<!-- node_0x606000008300&#45;&gt;node_0x606000008360 -->
<g id="edge3" class="edge">
<title>node_0x606000008300&#45;&gt;node_0x606000008360</title>
<path fill="none" stroke="#964b00" d="M169.77,-115.52C177.64,-102.76 186.3,-88.76 194.16,-76.04"/>
<polygon fill="#964b00" stroke="#964b00" points="166.87,-113.55 164.59,-123.9 172.82,-117.23 166.87,-113.55"/>
<polygon fill="#964b00" stroke="#964b00" points="196.92,-78.24 199.19,-67.89 190.96,-74.56 196.92,-78.24"/>
</g>
</g>
</svg>
