<?xml version="1.0" encoding="UTF-8" standalone="no"?>
<!DOCTYPE svg PUBLIC "-//W3C//DTD SVG 1.1//EN"
 "http://www.w3.org/Graphics/SVG/1.1/DTD/svg11.dtd">
<!-- Generated by graphviz version 14.0.2 (20251019.1705)
 -->
<!-- Title: G Pages: 1 -->
<svg width="177pt" height="325pt"
 viewBox="0.00 0.00 177.00 325.00" xmlns="http://www.w3.org/2000/svg" xmlns:xlink="http://www.w3.org/1999/xlink">
<g id="graph0" class="graph" transform="scale(1 1) rotate(0) translate(4 321)">
<title>G</title>
<polygon fill="#fffafa" stroke="none" points="-4,4 -4,-321 173.33,-321 173.33,4 -4,4"/>
<!-- node_0x606000000980 -->
<g id="node1" class="node">
<title>node_0x606000000980</title>
<path fill="#a7a7f2" stroke="#964b00" d="M12,-250.5C12,-250.5 157.33,-250.5 157.33,-250.5 163.33,-250.5 169.33,-256.5 169.33,-262.5 169.33,-262.5 169.33,-304.5 169.33,-304.5 169.33,-310.5 163.33,-316.5 157.33,-316.5 157.33,-316.5 12,-316.5 12,-316.5 6,-316.5 0,-310.5 0,-304.5 0,-304.5 0,-262.5 0,-262.5 0,-256.5 6,-250.5 12,-250.5"/>
<text xml:space="preserve" text-anchor="middle" x="84.67" y="-301.3" font-family="Times,serif" font-size="14.00">type = FUNCTION_CALL</text>
<polyline fill="none" stroke="#964b00" points="0,-294.5 169.33,-294.5"/>
<text xml:space="preserve" text-anchor="middle" x="84.19" y="-279.3" font-family="Times,serif" font-size="14.00">val = Che_cazzo_fact</text>
<polyline fill="none" stroke="#964b00" points="0,-272.5 169.33,-272.5"/>
<text xml:space="preserve" text-anchor="middle" x="42" y="-257.3" font-family="Times,serif" font-size="14.00">0</text>
<polyline fill="none" stroke="#964b00" points="84,-250.5 84,-272.5"/>
<text xml:space="preserve" text-anchor="middle" x="126.5" y="-257.3" font-family="Times,serif" font-size="14.00">0</text>
</g>
<!-- node_0x606000001e20 -->
<g id="node2" class="node">
<title>node_0x606000001e20</title>
<path fill="#00ffff" stroke="#964b00" d="M32.61,-125.5C32.61,-125.5 136.72,-125.5 136.72,-125.5 142.72,-125.5 148.72,-131.5 148.72,-137.5 148.72,-137.5 148.72,-179.5 148.72,-179.5 148.72,-185.5 142.72,-191.5 136.72,-191.5 136.72,-191.5 32.61,-191.5 32.61,-191.5 26.61,-191.5 20.61,-185.5 20.61,-179.5 20.61,-179.5 20.61,-137.5 20.61,-137.5 20.61,-131.5 26.61,-125.5 32.61,-125.5"/>
<text xml:space="preserve" text-anchor="middle" x="84.66" y="-176.3" font-family="Times,serif" font-size="14.00">type = OPERATOR</text>
<polyline fill="none" stroke="#964b00" points="20.61,-169.5 148.72,-169.5"/>
<text xml:space="preserve" text-anchor="middle" x="84.67" y="-154.3" font-family="Times,serif" font-size="14.00">val = 19(OP_COM)</text>
<polyline fill="none" stroke="#964b00" points="20.61,-147.5 148.72,-147.5"/>
<text xml:space="preserve" text-anchor="middle" x="52.38" y="-132.3" font-family="Times,serif" font-size="14.00">L</text>
<polyline fill="none" stroke="#964b00" points="84.16,-125.5 84.16,-147.5"/>
<text xml:space="preserve" text-anchor="middle" x="116.33" y="-132.3" font-family="Times,serif" font-size="14.00">R</text>
</g>
<!-- node_0x606000000980&#45;&gt;node_0x606000001e20 -->
<g id="edge1" class="edge">
<title>node_0x606000000980&#45;&gt;node_0x606000001e20</title>
<path fill="none" stroke="#964b00" d="M84.67,-238.7C84.67,-227.05 84.67,-214.47 84.67,-202.84"/>
<polygon fill="#964b00" stroke="#964b00" points="81.17,-238.67 84.67,-248.67 88.17,-238.67 81.17,-238.67"/>
<polygon fill="#964b00" stroke="#964b00" points="88.17,-203.11 84.67,-193.11 81.17,-203.11 88.17,-203.11"/>
</g>
<!-- node_0x606000000a40 -->
<g id="node3" class="node">
<title>node_0x606000000a40</title>
<path fill="#daa520" stroke="#964b00" d="M34.8,-0.5C34.8,-0.5 134.53,-0.5 134.53,-0.5 140.53,-0.5 146.53,-6.5 146.53,-12.5 146.53,-12.5 146.53,-54.5 146.53,-54.5 146.53,-60.5 140.53,-66.5 134.53,-66.5 134.53,-66.5 34.8,-66.5 34.8,-66.5 28.8,-66.5 22.8,-60.5 22.8,-54.5 22.8,-54.5 22.8,-12.5 22.8,-12.5 22.8,-6.5 28.8,-0.5 34.8,-0.5"/>
<text xml:space="preserve" text-anchor="middle" x="84.67" y="-51.3" font-family="Times,serif" font-size="14.00">type = VARIABLE</text>
<polyline fill="none" stroke="#964b00" points="22.8,-44.5 146.53,-44.5"/>
<text xml:space="preserve" text-anchor="middle" x="84.3" y="-29.3" font-family="Times,serif" font-size="14.00">val = n</text>
<polyline fill="none" stroke="#964b00" points="22.8,-22.5 146.53,-22.5"/>
<text xml:space="preserve" text-anchor="middle" x="53.3" y="-7.3" font-family="Times,serif" font-size="14.00">0</text>
<polyline fill="none" stroke="#964b00" points="83.8,-0.5 83.8,-22.5"/>
<text xml:space="preserve" text-anchor="middle" x="114.8" y="-7.3" font-family="Times,serif" font-size="14.00">0</text>
</g>
<!-- node_0x606000001e20&#45;&gt;node_0x606000000a40 -->
<g id="edge2" class="edge">
<title>node_0x606000001e20&#45;&gt;node_0x606000000a40</title>
<path fill="none" stroke="#964b00" d="M84.67,-113.7C84.67,-102.05 84.67,-89.47 84.67,-77.84"/>
<polygon fill="#964b00" stroke="#964b00" points="81.17,-113.67 84.67,-123.67 88.17,-113.67 81.17,-113.67"/>
<polygon fill="#964b00" stroke="#964b00" points="88.17,-78.11 84.67,-68.11 81.17,-78.11 88.17,-78.11"/>
</g>
</g>
</svg>
