<?xml version="1.0" encoding="UTF-8" standalone="no"?>
<!DOCTYPE svg PUBLIC "-//W3C//DTD SVG 1.1//EN"
 "http://www.w3.org/Graphics/SVG/1.1/DTD/svg11.dtd">
<!-- Generated by graphviz version 14.0.2 (20251019.1705)
 -->
<!-- Title: G Pages: 1 -->
<svg width="145pt" height="325pt"
 viewBox="0.00 0.00 145.00 325.00" xmlns="http://www.w3.org/2000/svg" xmlns:xlink="http://www.w3.org/1999/xlink">
<g id="graph0" class="graph" transform="scale(1 1) rotate(0) translate(4 321)">
<title>G</title>
<polygon fill="#fffafa" stroke="none" points="-4,4 -4,-321 141.39,-321 141.39,4 -4,4"/>
<!-- node_0x606000000fe0 -->
<g id="node1" class="node">
<title>node_0x606000000fe0</title>
<path fill="#a7a7f2" stroke="#964b00" d="M12,-250.5C12,-250.5 125.39,-250.5 125.39,-250.5 131.39,-250.5 137.39,-256.5 137.39,-262.5 137.39,-262.5 137.39,-304.5 137.39,-304.5 137.39,-310.5 131.39,-316.5 125.39,-316.5 125.39,-316.5 12,-316.5 12,-316.5 6,-316.5 0,-310.5 0,-304.5 0,-304.5 0,-262.5 0,-262.5 0,-256.5 6,-250.5 12,-250.5"/>
<text xml:space="preserve" text-anchor="middle" x="68.39" y="-301.3" font-family="Times,serif" font-size="14.00">type = FUNCTION</text>
<polyline fill="none" stroke="#964b00" points="0,-294.5 137.39,-294.5"/>
<text xml:space="preserve" text-anchor="middle" x="68.69" y="-279.3" font-family="Times,serif" font-size="14.00">val = Che_cazzo_fact</text>
<polyline fill="none" stroke="#964b00" points="0,-272.5 137.39,-272.5"/>
<text xml:space="preserve" text-anchor="middle" x="34" y="-257.3" font-family="Times,serif" font-size="14.00">0</text>
<polyline fill="none" stroke="#964b00" points="68,-250.5 68,-272.5"/>
<text xml:space="preserve" text-anchor="middle" x="102.5" y="-257.3" font-family="Times,serif" font-size="14.00">0</text>
</g>
<!-- node_0x606000001f40 -->
<g id="node2" class="node">
<title>node_0x606000001f40</title>
<path fill="#00ffff" stroke="#964b00" d="M16.63,-125.5C16.63,-125.5 120.75,-125.5 120.75,-125.5 126.75,-125.5 132.75,-131.5 132.75,-137.5 132.75,-137.5 132.75,-179.5 132.75,-179.5 132.75,-185.5 126.75,-191.5 120.75,-191.5 120.75,-191.5 16.63,-191.5 16.63,-191.5 10.63,-191.5 4.63,-185.5 4.63,-179.5 4.63,-179.5 4.63,-137.5 4.63,-137.5 4.63,-131.5 10.63,-125.5 16.63,-125.5"/>
<text xml:space="preserve" text-anchor="middle" x="68.68" y="-176.3" font-family="Times,serif" font-size="14.00">type = OPERATOR</text>
<polyline fill="none" stroke="#964b00" points="4.63,-169.5 132.75,-169.5"/>
<text xml:space="preserve" text-anchor="middle" x="68.69" y="-154.3" font-family="Times,serif" font-size="14.00">val = 19(OP_COM)</text>
<polyline fill="none" stroke="#964b00" points="4.63,-147.5 132.75,-147.5"/>
<text xml:space="preserve" text-anchor="middle" x="36.41" y="-132.3" font-family="Times,serif" font-size="14.00">L</text>
<polyline fill="none" stroke="#964b00" points="68.19,-125.5 68.19,-147.5"/>
<text xml:space="preserve" text-anchor="middle" x="100.36" y="-132.3" font-family="Times,serif" font-size="14.00">R</text>
</g>
<!-- node_0x606000000fe0&#45;&gt;node_0x606000001f40 -->
<g id="edge1" class="edge">
<title>node_0x606000000fe0&#45;&gt;node_0x606000001f40</title>
<path fill="none" stroke="#964b00" d="M68.69,-238.7C68.69,-227.05 68.69,-214.47 68.69,-202.84"/>
<polygon fill="#964b00" stroke="#964b00" points="65.19,-238.67 68.69,-248.67 72.19,-238.67 65.19,-238.67"/>
<polygon fill="#964b00" stroke="#964b00" points="72.19,-203.11 68.69,-193.11 65.19,-203.11 72.19,-203.11"/>
</g>
<!-- node_0x6060000010a0 -->
<g id="node3" class="node">
<title>node_0x6060000010a0</title>
<path fill="#daa520" stroke="#964b00" d="M18.83,-0.5C18.83,-0.5 118.55,-0.5 118.55,-0.5 124.55,-0.5 130.55,-6.5 130.55,-12.5 130.55,-12.5 130.55,-54.5 130.55,-54.5 130.55,-60.5 124.55,-66.5 118.55,-66.5 118.55,-66.5 18.83,-66.5 18.83,-66.5 12.83,-66.5 6.83,-60.5 6.83,-54.5 6.83,-54.5 6.83,-12.5 6.83,-12.5 6.83,-6.5 12.83,-0.5 18.83,-0.5"/>
<text xml:space="preserve" text-anchor="middle" x="68.69" y="-51.3" font-family="Times,serif" font-size="14.00">type = VARIABLE</text>
<polyline fill="none" stroke="#964b00" points="6.83,-44.5 130.55,-44.5"/>
<text xml:space="preserve" text-anchor="middle" x="68.33" y="-29.3" font-family="Times,serif" font-size="14.00">val = n</text>
<polyline fill="none" stroke="#964b00" points="6.83,-22.5 130.55,-22.5"/>
<text xml:space="preserve" text-anchor="middle" x="37.33" y="-7.3" font-family="Times,serif" font-size="14.00">0</text>
<polyline fill="none" stroke="#964b00" points="67.83,-0.5 67.83,-22.5"/>
<text xml:space="preserve" text-anchor="middle" x="98.83" y="-7.3" font-family="Times,serif" font-size="14.00">0</text>
</g>
<!-- node_0x606000001f40&#45;&gt;node_0x6060000010a0 -->
<g id="edge2" class="edge">
<title>node_0x606000001f40&#45;&gt;node_0x6060000010a0</title>
<path fill="none" stroke="#964b00" d="M68.69,-113.7C68.69,-102.05 68.69,-89.47 68.69,-77.84"/>
<polygon fill="#964b00" stroke="#964b00" points="65.19,-113.67 68.69,-123.67 72.19,-113.67 65.19,-113.67"/>
<polygon fill="#964b00" stroke="#964b00" points="72.19,-78.11 68.69,-68.11 65.19,-78.11 72.19,-78.11"/>
</g>
</g>
</svg>
