<?xml version="1.0" encoding="UTF-8" standalone="no"?>
<!DOCTYPE svg PUBLIC "-//W3C//DTD SVG 1.1//EN"
 "http://www.w3.org/Graphics/SVG/1.1/DTD/svg11.dtd">
<!-- Generated by graphviz version 14.0.2 (20251019.1705)
 -->
<!-- Title: G Pages: 1 -->
<svg width="665pt" height="450pt"
 viewBox="0.00 0.00 665.00 450.00" xmlns="http://www.w3.org/2000/svg" xmlns:xlink="http://www.w3.org/1999/xlink">
<g id="graph0" class="graph" transform="scale(1 1) rotate(0) translate(4 446)">
<title>G</title>
<polygon fill="#fffafa" stroke="none" points="-4,4 -4,-446 660.69,-446 660.69,4 -4,4"/>
<!-- node_0x6060000084e0 -->
<g id="node1" class="node">
<title>node_0x6060000084e0</title>
<path fill="#00ffff" stroke="#964b00" d="M315.28,-375.5C315.28,-375.5 418.37,-375.5 418.37,-375.5 424.37,-375.5 430.37,-381.5 430.37,-387.5 430.37,-387.5 430.37,-429.5 430.37,-429.5 430.37,-435.5 424.37,-441.5 418.37,-441.5 418.37,-441.5 315.28,-441.5 315.28,-441.5 309.28,-441.5 303.28,-435.5 303.28,-429.5 303.28,-429.5 303.28,-387.5 303.28,-387.5 303.28,-381.5 309.28,-375.5 315.28,-375.5"/>
<text xml:space="preserve" text-anchor="middle" x="366.82" y="-426.3" font-family="Times,serif" font-size="14.00">type = OPERATOR</text>
<polyline fill="none" stroke="#964b00" points="303.28,-419.5 430.37,-419.5"/>
<text xml:space="preserve" text-anchor="middle" x="366.33" y="-404.3" font-family="Times,serif" font-size="14.00">val = 4(OP_DIV)</text>
<polyline fill="none" stroke="#964b00" points="303.28,-397.5 430.37,-397.5"/>
<text xml:space="preserve" text-anchor="middle" x="334.55" y="-382.3" font-family="Times,serif" font-size="14.00">L</text>
<polyline fill="none" stroke="#964b00" points="365.83,-375.5 365.83,-397.5"/>
<text xml:space="preserve" text-anchor="middle" x="398" y="-382.3" font-family="Times,serif" font-size="14.00">R</text>
</g>
<!-- node_0x6060000083c0 -->
<g id="node2" class="node">
<title>node_0x6060000083c0</title>
<path fill="#00ffff" stroke="#964b00" d="M239.28,-250.5C239.28,-250.5 342.37,-250.5 342.37,-250.5 348.37,-250.5 354.37,-256.5 354.37,-262.5 354.37,-262.5 354.37,-304.5 354.37,-304.5 354.37,-310.5 348.37,-316.5 342.37,-316.5 342.37,-316.5 239.28,-316.5 239.28,-316.5 233.28,-316.5 227.28,-310.5 227.28,-304.5 227.28,-304.5 227.28,-262.5 227.28,-262.5 227.28,-256.5 233.28,-250.5 239.28,-250.5"/>
<text xml:space="preserve" text-anchor="middle" x="290.82" y="-301.3" font-family="Times,serif" font-size="14.00">type = OPERATOR</text>
<polyline fill="none" stroke="#964b00" points="227.28,-294.5 354.37,-294.5"/>
<text xml:space="preserve" text-anchor="middle" x="290.55" y="-279.3" font-family="Times,serif" font-size="14.00">val = 1(OP_ADD)</text>
<polyline fill="none" stroke="#964b00" points="227.28,-272.5 354.37,-272.5"/>
<text xml:space="preserve" text-anchor="middle" x="258.55" y="-257.3" font-family="Times,serif" font-size="14.00">L</text>
<polyline fill="none" stroke="#964b00" points="289.83,-250.5 289.83,-272.5"/>
<text xml:space="preserve" text-anchor="middle" x="322" y="-257.3" font-family="Times,serif" font-size="14.00">R</text>
</g>
<!-- node_0x6060000084e0&#45;&gt;node_0x6060000083c0 -->
<g id="edge1" class="edge">
<title>node_0x6060000084e0&#45;&gt;node_0x6060000083c0</title>
<path fill="none" stroke="#964b00" d="M340.88,-365.52C333,-352.76 324.35,-338.76 316.49,-326.04"/>
<polygon fill="#964b00" stroke="#964b00" points="337.83,-367.23 346.06,-373.9 343.78,-363.55 337.83,-367.23"/>
<polygon fill="#964b00" stroke="#964b00" points="319.69,-324.56 311.46,-317.89 313.73,-328.24 319.69,-324.56"/>
</g>
<!-- node_0x606000008600 -->
<g id="node7" class="node">
<title>node_0x606000008600</title>
<path fill="#00ffff" stroke="#964b00" d="M391.28,-250.5C391.28,-250.5 494.37,-250.5 494.37,-250.5 500.37,-250.5 506.37,-256.5 506.37,-262.5 506.37,-262.5 506.37,-304.5 506.37,-304.5 506.37,-310.5 500.37,-316.5 494.37,-316.5 494.37,-316.5 391.28,-316.5 391.28,-316.5 385.28,-316.5 379.28,-310.5 379.28,-304.5 379.28,-304.5 379.28,-262.5 379.28,-262.5 379.28,-256.5 385.28,-250.5 391.28,-250.5"/>
<text xml:space="preserve" text-anchor="middle" x="442.82" y="-301.3" font-family="Times,serif" font-size="14.00">type = OPERATOR</text>
<polyline fill="none" stroke="#964b00" points="379.28,-294.5 506.37,-294.5"/>
<text xml:space="preserve" text-anchor="middle" x="442.44" y="-279.3" font-family="Times,serif" font-size="14.00">val = 3(OP_MUL)</text>
<polyline fill="none" stroke="#964b00" points="379.28,-272.5 506.37,-272.5"/>
<text xml:space="preserve" text-anchor="middle" x="410.55" y="-257.3" font-family="Times,serif" font-size="14.00">L</text>
<polyline fill="none" stroke="#964b00" points="441.83,-250.5 441.83,-272.5"/>
<text xml:space="preserve" text-anchor="middle" x="474" y="-257.3" font-family="Times,serif" font-size="14.00">R</text>
</g>
<!-- node_0x6060000084e0&#45;&gt;node_0x606000008600 -->
<g id="edge6" class="edge">
<title>node_0x6060000084e0&#45;&gt;node_0x606000008600</title>
<path fill="none" stroke="#964b00" d="M392.77,-365.52C400.64,-352.76 409.3,-338.76 417.16,-326.04"/>
<polygon fill="#964b00" stroke="#964b00" points="389.87,-363.55 387.59,-373.9 395.82,-367.23 389.87,-363.55"/>
<polygon fill="#964b00" stroke="#964b00" points="419.92,-328.24 422.19,-317.89 413.96,-324.56 419.92,-328.24"/>
</g>
<!-- node_0x606000008300 -->
<g id="node3" class="node">
<title>node_0x606000008300</title>
<path fill="#00ffff" stroke="#964b00" d="M92.28,-125.5C92.28,-125.5 195.37,-125.5 195.37,-125.5 201.37,-125.5 207.37,-131.5 207.37,-137.5 207.37,-137.5 207.37,-179.5 207.37,-179.5 207.37,-185.5 201.37,-191.5 195.37,-191.5 195.37,-191.5 92.28,-191.5 92.28,-191.5 86.28,-191.5 80.28,-185.5 80.28,-179.5 80.28,-179.5 80.28,-137.5 80.28,-137.5 80.28,-131.5 86.28,-125.5 92.28,-125.5"/>
<text xml:space="preserve" text-anchor="middle" x="143.82" y="-176.3" font-family="Times,serif" font-size="14.00">type = OPERATOR</text>
<polyline fill="none" stroke="#964b00" points="80.28,-169.5 207.37,-169.5"/>
<text xml:space="preserve" text-anchor="middle" x="143.44" y="-154.3" font-family="Times,serif" font-size="14.00">val = 3(OP_MUL)</text>
<polyline fill="none" stroke="#964b00" points="80.28,-147.5 207.37,-147.5"/>
<text xml:space="preserve" text-anchor="middle" x="111.55" y="-132.3" font-family="Times,serif" font-size="14.00">L</text>
<polyline fill="none" stroke="#964b00" points="142.83,-125.5 142.83,-147.5"/>
<text xml:space="preserve" text-anchor="middle" x="175" y="-132.3" font-family="Times,serif" font-size="14.00">R</text>
</g>
<!-- node_0x6060000083c0&#45;&gt;node_0x606000008300 -->
<g id="edge2" class="edge">
<title>node_0x6060000083c0&#45;&gt;node_0x606000008300</title>
<path fill="none" stroke="#964b00" d="M243.38,-242.8C226.6,-228.76 207.74,-212.98 190.99,-198.97"/>
<polygon fill="#964b00" stroke="#964b00" points="241.13,-245.48 251.04,-249.21 245.62,-240.11 241.13,-245.48"/>
<polygon fill="#964b00" stroke="#964b00" points="193.52,-196.52 183.61,-192.79 189.03,-201.89 193.52,-196.52"/>
</g>
<!-- node_0x606000008420 -->
<g id="node6" class="node">
<title>node_0x606000008420</title>
<path fill="#daa520" stroke="#964b00" d="M240.96,-125.5C240.96,-125.5 340.69,-125.5 340.69,-125.5 346.69,-125.5 352.69,-131.5 352.69,-137.5 352.69,-137.5 352.69,-179.5 352.69,-179.5 352.69,-185.5 346.69,-191.5 340.69,-191.5 340.69,-191.5 240.96,-191.5 240.96,-191.5 234.96,-191.5 228.96,-185.5 228.96,-179.5 228.96,-179.5 228.96,-137.5 228.96,-137.5 228.96,-131.5 234.96,-125.5 240.96,-125.5"/>
<text xml:space="preserve" text-anchor="middle" x="290.82" y="-176.3" font-family="Times,serif" font-size="14.00">type = VARIABLE</text>
<polyline fill="none" stroke="#964b00" points="228.96,-169.5 352.69,-169.5"/>
<text xml:space="preserve" text-anchor="middle" x="290.46" y="-154.3" font-family="Times,serif" font-size="14.00">val = diskr</text>
<polyline fill="none" stroke="#964b00" points="228.96,-147.5 352.69,-147.5"/>
<text xml:space="preserve" text-anchor="middle" x="259.46" y="-132.3" font-family="Times,serif" font-size="14.00">0</text>
<polyline fill="none" stroke="#964b00" points="289.96,-125.5 289.96,-147.5"/>
<text xml:space="preserve" text-anchor="middle" x="320.96" y="-132.3" font-family="Times,serif" font-size="14.00">0</text>
</g>
<!-- node_0x6060000083c0&#45;&gt;node_0x606000008420 -->
<g id="edge5" class="edge">
<title>node_0x6060000083c0&#45;&gt;node_0x606000008420</title>
<path fill="none" stroke="#964b00" d="M290.82,-238.7C290.82,-227.05 290.82,-214.47 290.82,-202.84"/>
<polygon fill="#964b00" stroke="#964b00" points="287.32,-238.67 290.82,-248.67 294.32,-238.67 287.32,-238.67"/>
<polygon fill="#964b00" stroke="#964b00" points="294.32,-203.11 290.82,-193.11 287.32,-203.11 294.32,-203.11"/>
</g>
<!-- node_0x606000008240 -->
<g id="node4" class="node">
<title>node_0x606000008240</title>
<path fill="#98fb98" stroke="#964b00" d="M12,-0.5C12,-0.5 123.65,-0.5 123.65,-0.5 129.65,-0.5 135.65,-6.5 135.65,-12.5 135.65,-12.5 135.65,-54.5 135.65,-54.5 135.65,-60.5 129.65,-66.5 123.65,-66.5 123.65,-66.5 12,-66.5 12,-66.5 6,-66.5 0,-60.5 0,-54.5 0,-54.5 0,-12.5 0,-12.5 0,-6.5 6,-0.5 12,-0.5"/>
<text xml:space="preserve" text-anchor="middle" x="67.82" y="-51.3" font-family="Times,serif" font-size="14.00">type = CONST_VAR</text>
<polyline fill="none" stroke="#964b00" points="0,-44.5 135.65,-44.5"/>
<text xml:space="preserve" text-anchor="middle" x="67.33" y="-29.3" font-family="Times,serif" font-size="14.00">val = &#45;1</text>
<polyline fill="none" stroke="#964b00" points="0,-22.5 135.65,-22.5"/>
<text xml:space="preserve" text-anchor="middle" x="33.5" y="-7.3" font-family="Times,serif" font-size="14.00">0</text>
<polyline fill="none" stroke="#964b00" points="67,-0.5 67,-22.5"/>
<text xml:space="preserve" text-anchor="middle" x="101" y="-7.3" font-family="Times,serif" font-size="14.00">0</text>
</g>
<!-- node_0x606000008300&#45;&gt;node_0x606000008240 -->
<g id="edge3" class="edge">
<title>node_0x606000008300&#45;&gt;node_0x606000008240</title>
<path fill="none" stroke="#964b00" d="M117.88,-115.52C110,-102.76 101.35,-88.76 93.49,-76.04"/>
<polygon fill="#964b00" stroke="#964b00" points="114.83,-117.23 123.06,-123.9 120.78,-113.55 114.83,-117.23"/>
<polygon fill="#964b00" stroke="#964b00" points="96.69,-74.56 88.46,-67.89 90.73,-78.24 96.69,-74.56"/>
</g>
<!-- node_0x606000008360 -->
<g id="node5" class="node">
<title>node_0x606000008360</title>
<path fill="#daa520" stroke="#964b00" d="M169.96,-0.5C169.96,-0.5 269.69,-0.5 269.69,-0.5 275.69,-0.5 281.69,-6.5 281.69,-12.5 281.69,-12.5 281.69,-54.5 281.69,-54.5 281.69,-60.5 275.69,-66.5 269.69,-66.5 269.69,-66.5 169.96,-66.5 169.96,-66.5 163.96,-66.5 157.96,-60.5 157.96,-54.5 157.96,-54.5 157.96,-12.5 157.96,-12.5 157.96,-6.5 163.96,-0.5 169.96,-0.5"/>
<text xml:space="preserve" text-anchor="middle" x="219.82" y="-51.3" font-family="Times,serif" font-size="14.00">type = VARIABLE</text>
<polyline fill="none" stroke="#964b00" points="157.96,-44.5 281.69,-44.5"/>
<text xml:space="preserve" text-anchor="middle" x="219.46" y="-29.3" font-family="Times,serif" font-size="14.00">val = b</text>
<polyline fill="none" stroke="#964b00" points="157.96,-22.5 281.69,-22.5"/>
<text xml:space="preserve" text-anchor="middle" x="188.46" y="-7.3" font-family="Times,serif" font-size="14.00">0</text>
<polyline fill="none" stroke="#964b00" points="218.96,-0.5 218.96,-22.5"/>
<text xml:space="preserve" text-anchor="middle" x="249.96" y="-7.3" font-family="Times,serif" font-size="14.00">0</text>
</g>
<!-- node_0x606000008300&#45;&gt;node_0x606000008360 -->
<g id="edge4" class="edge">
<title>node_0x606000008300&#45;&gt;node_0x606000008360</title>
<path fill="none" stroke="#964b00" d="M169.77,-115.52C177.64,-102.76 186.3,-88.76 194.16,-76.04"/>
<polygon fill="#964b00" stroke="#964b00" points="166.87,-113.55 164.59,-123.9 172.82,-117.23 166.87,-113.55"/>
<polygon fill="#964b00" stroke="#964b00" points="196.92,-78.24 199.19,-67.89 190.96,-74.56 196.92,-78.24"/>
</g>
<!-- node_0x6060000085a0 -->
<g id="node8" class="node">
<title>node_0x6060000085a0</title>
<path fill="#98fb98" stroke="#964b00" d="M387,-125.5C387,-125.5 498.65,-125.5 498.65,-125.5 504.65,-125.5 510.65,-131.5 510.65,-137.5 510.65,-137.5 510.65,-179.5 510.65,-179.5 510.65,-185.5 504.65,-191.5 498.65,-191.5 498.65,-191.5 387,-191.5 387,-191.5 381,-191.5 375,-185.5 375,-179.5 375,-179.5 375,-137.5 375,-137.5 375,-131.5 381,-125.5 387,-125.5"/>
<text xml:space="preserve" text-anchor="middle" x="442.82" y="-176.3" font-family="Times,serif" font-size="14.00">type = CONST_VAR</text>
<polyline fill="none" stroke="#964b00" points="375,-169.5 510.65,-169.5"/>
<text xml:space="preserve" text-anchor="middle" x="442.5" y="-154.3" font-family="Times,serif" font-size="14.00">val = 2</text>
<polyline fill="none" stroke="#964b00" points="375,-147.5 510.65,-147.5"/>
<text xml:space="preserve" text-anchor="middle" x="408.5" y="-132.3" font-family="Times,serif" font-size="14.00">0</text>
<polyline fill="none" stroke="#964b00" points="442,-125.5 442,-147.5"/>
<text xml:space="preserve" text-anchor="middle" x="476" y="-132.3" font-family="Times,serif" font-size="14.00">0</text>
</g>
<!-- node_0x606000008600&#45;&gt;node_0x6060000085a0 -->
<g id="edge7" class="edge">
<title>node_0x606000008600&#45;&gt;node_0x6060000085a0</title>
<path fill="none" stroke="#964b00" d="M442.82,-238.7C442.82,-227.05 442.82,-214.47 442.82,-202.84"/>
<polygon fill="#964b00" stroke="#964b00" points="439.32,-238.67 442.82,-248.67 446.32,-238.67 439.32,-238.67"/>
<polygon fill="#964b00" stroke="#964b00" points="446.32,-203.11 442.82,-193.11 439.32,-203.11 446.32,-203.11"/>
</g>
<!-- node_0x606000008660 -->
<g id="node9" class="node">
<title>node_0x606000008660</title>
<path fill="#daa520" stroke="#964b00" d="M544.96,-125.5C544.96,-125.5 644.69,-125.5 644.69,-125.5 650.69,-125.5 656.69,-131.5 656.69,-137.5 656.69,-137.5 656.69,-179.5 656.69,-179.5 656.69,-185.5 650.69,-191.5 644.69,-191.5 644.69,-191.5 544.96,-191.5 544.96,-191.5 538.96,-191.5 532.96,-185.5 532.96,-179.5 532.96,-179.5 532.96,-137.5 532.96,-137.5 532.96,-131.5 538.96,-125.5 544.96,-125.5"/>
<text xml:space="preserve" text-anchor="middle" x="594.82" y="-176.3" font-family="Times,serif" font-size="14.00">type = VARIABLE</text>
<polyline fill="none" stroke="#964b00" points="532.96,-169.5 656.69,-169.5"/>
<text xml:space="preserve" text-anchor="middle" x="594.57" y="-154.3" font-family="Times,serif" font-size="14.00">val = a</text>
<polyline fill="none" stroke="#964b00" points="532.96,-147.5 656.69,-147.5"/>
<text xml:space="preserve" text-anchor="middle" x="563.46" y="-132.3" font-family="Times,serif" font-size="14.00">0</text>
<polyline fill="none" stroke="#964b00" points="593.96,-125.5 593.96,-147.5"/>
<text xml:space="preserve" text-anchor="middle" x="624.96" y="-132.3" font-family="Times,serif" font-size="14.00">0</text>
</g>
<!-- node_0x606000008600&#45;&gt;node_0x606000008660 -->
<g id="edge8" class="edge">
<title>node_0x606000008600&#45;&gt;node_0x606000008660</title>
<path fill="none" stroke="#964b00" d="M491.61,-243.02C509.01,-228.94 528.61,-213.08 546.01,-199"/>
<polygon fill="#964b00" stroke="#964b00" points="489.51,-240.22 483.94,-249.23 493.91,-245.66 489.51,-240.22"/>
<polygon fill="#964b00" stroke="#964b00" points="548.14,-201.78 553.72,-192.77 543.74,-196.34 548.14,-201.78"/>
</g>
</g>
</svg>
