<?xml version="1.0" encoding="UTF-8" standalone="no"?>
<!DOCTYPE svg PUBLIC "-//W3C//DTD SVG 1.1//EN"
 "http://www.w3.org/Graphics/SVG/1.1/DTD/svg11.dtd">
<!-- Generated by graphviz version 14.0.2 (20251019.1705)
 -->
<!-- Title: G Pages: 1 -->
<svg width="785pt" height="1075pt"
 viewBox="0.00 0.00 785.00 1075.00" xmlns="http://www.w3.org/2000/svg" xmlns:xlink="http://www.w3.org/1999/xlink">
<g id="graph0" class="graph" transform="scale(1 1) rotate(0) translate(4 1071)">
<title>G</title>
<polygon fill="#fffafa" stroke="none" points="-4,4 -4,-1071 780.72,-1071 780.72,4 -4,4"/>
<!-- node_0x606000002060 -->
<g id="node1" class="node">
<title>node_0x606000002060</title>
<path fill="#00ffff" stroke="#964b00" d="M247.31,-1000.5C247.31,-1000.5 350.41,-1000.5 350.41,-1000.5 356.41,-1000.5 362.41,-1006.5 362.41,-1012.5 362.41,-1012.5 362.41,-1054.5 362.41,-1054.5 362.41,-1060.5 356.41,-1066.5 350.41,-1066.5 350.41,-1066.5 247.31,-1066.5 247.31,-1066.5 241.31,-1066.5 235.31,-1060.5 235.31,-1054.5 235.31,-1054.5 235.31,-1012.5 235.31,-1012.5 235.31,-1006.5 241.31,-1000.5 247.31,-1000.5"/>
<text xml:space="preserve" text-anchor="middle" x="298.86" y="-1051.3" font-family="Times,serif" font-size="14.00">type = OPERATOR</text>
<polyline fill="none" stroke="#964b00" points="235.31,-1044.5 362.41,-1044.5"/>
<text xml:space="preserve" text-anchor="middle" x="298.65" y="-1029.3" font-family="Times,serif" font-size="14.00">val = 18(OP_CFB)</text>
<polyline fill="none" stroke="#964b00" points="235.31,-1022.5 362.41,-1022.5"/>
<text xml:space="preserve" text-anchor="middle" x="266.59" y="-1007.3" font-family="Times,serif" font-size="14.00">L</text>
<polyline fill="none" stroke="#964b00" points="297.86,-1000.5 297.86,-1022.5"/>
<text xml:space="preserve" text-anchor="middle" x="330.03" y="-1007.3" font-family="Times,serif" font-size="14.00">R</text>
</g>
<!-- node_0x606000000fe0 -->
<g id="node2" class="node">
<title>node_0x606000000fe0</title>
<path fill="#a7a7f2" stroke="#964b00" d="M242.17,-875.5C242.17,-875.5 355.55,-875.5 355.55,-875.5 361.55,-875.5 367.55,-881.5 367.55,-887.5 367.55,-887.5 367.55,-929.5 367.55,-929.5 367.55,-935.5 361.55,-941.5 355.55,-941.5 355.55,-941.5 242.17,-941.5 242.17,-941.5 236.17,-941.5 230.17,-935.5 230.17,-929.5 230.17,-929.5 230.17,-887.5 230.17,-887.5 230.17,-881.5 236.17,-875.5 242.17,-875.5"/>
<text xml:space="preserve" text-anchor="middle" x="298.56" y="-926.3" font-family="Times,serif" font-size="14.00">type = FUNCTION</text>
<polyline fill="none" stroke="#964b00" points="230.17,-919.5 367.55,-919.5"/>
<text xml:space="preserve" text-anchor="middle" x="298.86" y="-904.3" font-family="Times,serif" font-size="14.00">val = Che_cazzo_fact</text>
<polyline fill="none" stroke="#964b00" points="230.17,-897.5 367.55,-897.5"/>
<text xml:space="preserve" text-anchor="middle" x="264.17" y="-882.3" font-family="Times,serif" font-size="14.00">0</text>
<polyline fill="none" stroke="#964b00" points="298.17,-875.5 298.17,-897.5"/>
<text xml:space="preserve" text-anchor="middle" x="332.67" y="-882.3" font-family="Times,serif" font-size="14.00">0</text>
</g>
<!-- node_0x606000002060&#45;&gt;node_0x606000000fe0 -->
<g id="edge1" class="edge">
<title>node_0x606000002060&#45;&gt;node_0x606000000fe0</title>
<path fill="none" stroke="#964b00" d="M298.86,-988.7C298.86,-977.05 298.86,-964.47 298.86,-952.84"/>
<polygon fill="#964b00" stroke="#964b00" points="295.36,-988.67 298.86,-998.67 302.36,-988.67 295.36,-988.67"/>
<polygon fill="#964b00" stroke="#964b00" points="302.36,-953.11 298.86,-943.11 295.36,-953.11 302.36,-953.11"/>
</g>
<!-- node_0x606000001f40 -->
<g id="node3" class="node">
<title>node_0x606000001f40</title>
<path fill="#00ffff" stroke="#964b00" d="M171.8,-750.5C171.8,-750.5 275.92,-750.5 275.92,-750.5 281.92,-750.5 287.92,-756.5 287.92,-762.5 287.92,-762.5 287.92,-804.5 287.92,-804.5 287.92,-810.5 281.92,-816.5 275.92,-816.5 275.92,-816.5 171.8,-816.5 171.8,-816.5 165.8,-816.5 159.8,-810.5 159.8,-804.5 159.8,-804.5 159.8,-762.5 159.8,-762.5 159.8,-756.5 165.8,-750.5 171.8,-750.5"/>
<text xml:space="preserve" text-anchor="middle" x="223.85" y="-801.3" font-family="Times,serif" font-size="14.00">type = OPERATOR</text>
<polyline fill="none" stroke="#964b00" points="159.8,-794.5 287.92,-794.5"/>
<text xml:space="preserve" text-anchor="middle" x="223.86" y="-779.3" font-family="Times,serif" font-size="14.00">val = 19(OP_COM)</text>
<polyline fill="none" stroke="#964b00" points="159.8,-772.5 287.92,-772.5"/>
<text xml:space="preserve" text-anchor="middle" x="191.58" y="-757.3" font-family="Times,serif" font-size="14.00">L</text>
<polyline fill="none" stroke="#964b00" points="223.35,-750.5 223.35,-772.5"/>
<text xml:space="preserve" text-anchor="middle" x="255.52" y="-757.3" font-family="Times,serif" font-size="14.00">R</text>
</g>
<!-- node_0x606000000fe0&#45;&gt;node_0x606000001f40 -->
<g id="edge2" class="edge">
<title>node_0x606000000fe0&#45;&gt;node_0x606000001f40</title>
<path fill="none" stroke="#964b00" d="M273.26,-865.52C265.56,-852.89 257.11,-839.04 249.42,-826.41"/>
<polygon fill="#964b00" stroke="#964b00" points="270.17,-867.18 278.37,-873.89 276.15,-863.53 270.17,-867.18"/>
<polygon fill="#964b00" stroke="#964b00" points="252.42,-824.61 244.22,-817.89 246.44,-828.25 252.42,-824.61"/>
</g>
<!-- node_0x606000001fa0 -->
<g id="node5" class="node">
<title>node_0x606000001fa0</title>
<path fill="#00ffff" stroke="#964b00" d="M322.31,-750.5C322.31,-750.5 425.41,-750.5 425.41,-750.5 431.41,-750.5 437.41,-756.5 437.41,-762.5 437.41,-762.5 437.41,-804.5 437.41,-804.5 437.41,-810.5 431.41,-816.5 425.41,-816.5 425.41,-816.5 322.31,-816.5 322.31,-816.5 316.31,-816.5 310.31,-810.5 310.31,-804.5 310.31,-804.5 310.31,-762.5 310.31,-762.5 310.31,-756.5 316.31,-750.5 322.31,-750.5"/>
<text xml:space="preserve" text-anchor="middle" x="373.86" y="-801.3" font-family="Times,serif" font-size="14.00">type = OPERATOR</text>
<polyline fill="none" stroke="#964b00" points="310.31,-794.5 437.41,-794.5"/>
<text xml:space="preserve" text-anchor="middle" x="373.65" y="-779.3" font-family="Times,serif" font-size="14.00">val = 18(OP_CFB)</text>
<polyline fill="none" stroke="#964b00" points="310.31,-772.5 437.41,-772.5"/>
<text xml:space="preserve" text-anchor="middle" x="341.59" y="-757.3" font-family="Times,serif" font-size="14.00">L</text>
<polyline fill="none" stroke="#964b00" points="372.86,-750.5 372.86,-772.5"/>
<text xml:space="preserve" text-anchor="middle" x="405.03" y="-757.3" font-family="Times,serif" font-size="14.00">R</text>
</g>
<!-- node_0x606000000fe0&#45;&gt;node_0x606000001fa0 -->
<g id="edge4" class="edge">
<title>node_0x606000000fe0&#45;&gt;node_0x606000001fa0</title>
<path fill="none" stroke="#964b00" d="M324.46,-865.52C332.16,-852.89 340.61,-839.04 348.3,-826.41"/>
<polygon fill="#964b00" stroke="#964b00" points="321.57,-863.53 319.35,-873.89 327.55,-867.18 321.57,-863.53"/>
<polygon fill="#964b00" stroke="#964b00" points="351.28,-828.25 353.5,-817.89 345.3,-824.61 351.28,-828.25"/>
</g>
<!-- node_0x6060000010a0 -->
<g id="node4" class="node">
<title>node_0x6060000010a0</title>
<path fill="#daa520" stroke="#964b00" d="M174,-625.5C174,-625.5 273.72,-625.5 273.72,-625.5 279.72,-625.5 285.72,-631.5 285.72,-637.5 285.72,-637.5 285.72,-679.5 285.72,-679.5 285.72,-685.5 279.72,-691.5 273.72,-691.5 273.72,-691.5 174,-691.5 174,-691.5 168,-691.5 162,-685.5 162,-679.5 162,-679.5 162,-637.5 162,-637.5 162,-631.5 168,-625.5 174,-625.5"/>
<text xml:space="preserve" text-anchor="middle" x="223.86" y="-676.3" font-family="Times,serif" font-size="14.00">type = VARIABLE</text>
<polyline fill="none" stroke="#964b00" points="162,-669.5 285.72,-669.5"/>
<text xml:space="preserve" text-anchor="middle" x="223.5" y="-654.3" font-family="Times,serif" font-size="14.00">val = n</text>
<polyline fill="none" stroke="#964b00" points="162,-647.5 285.72,-647.5"/>
<text xml:space="preserve" text-anchor="middle" x="192.5" y="-632.3" font-family="Times,serif" font-size="14.00">0</text>
<polyline fill="none" stroke="#964b00" points="223,-625.5 223,-647.5"/>
<text xml:space="preserve" text-anchor="middle" x="254" y="-632.3" font-family="Times,serif" font-size="14.00">0</text>
</g>
<!-- node_0x606000001f40&#45;&gt;node_0x6060000010a0 -->
<g id="edge3" class="edge">
<title>node_0x606000001f40&#45;&gt;node_0x6060000010a0</title>
<path fill="none" stroke="#964b00" d="M223.86,-738.7C223.86,-727.05 223.86,-714.47 223.86,-702.84"/>
<polygon fill="#964b00" stroke="#964b00" points="220.36,-738.67 223.86,-748.67 227.36,-738.67 220.36,-738.67"/>
<polygon fill="#964b00" stroke="#964b00" points="227.36,-703.11 223.86,-693.11 220.36,-703.11 227.36,-703.11"/>
</g>
<!-- node_0x6060000011c0 -->
<g id="node6" class="node">
<title>node_0x6060000011c0</title>
<path fill="#00ffff" stroke="#964b00" d="M320.31,-625.5C320.31,-625.5 423.41,-625.5 423.41,-625.5 429.41,-625.5 435.41,-631.5 435.41,-637.5 435.41,-637.5 435.41,-679.5 435.41,-679.5 435.41,-685.5 429.41,-691.5 423.41,-691.5 423.41,-691.5 320.31,-691.5 320.31,-691.5 314.31,-691.5 308.31,-685.5 308.31,-679.5 308.31,-679.5 308.31,-637.5 308.31,-637.5 308.31,-631.5 314.31,-625.5 320.31,-625.5"/>
<text xml:space="preserve" text-anchor="middle" x="371.86" y="-676.3" font-family="Times,serif" font-size="14.00">type = OPERATOR</text>
<polyline fill="none" stroke="#964b00" points="308.31,-669.5 435.41,-669.5"/>
<text xml:space="preserve" text-anchor="middle" x="371.65" y="-654.3" font-family="Times,serif" font-size="14.00">val = 12(OP_IF)</text>
<polyline fill="none" stroke="#964b00" points="308.31,-647.5 435.41,-647.5"/>
<text xml:space="preserve" text-anchor="middle" x="339.59" y="-632.3" font-family="Times,serif" font-size="14.00">L</text>
<polyline fill="none" stroke="#964b00" points="370.86,-625.5 370.86,-647.5"/>
<text xml:space="preserve" text-anchor="middle" x="403.03" y="-632.3" font-family="Times,serif" font-size="14.00">R</text>
</g>
<!-- node_0x606000001fa0&#45;&gt;node_0x6060000011c0 -->
<g id="edge5" class="edge">
<title>node_0x606000001fa0&#45;&gt;node_0x6060000011c0</title>
<path fill="none" stroke="#964b00" d="M373.15,-738.7C372.96,-727.05 372.75,-714.47 372.57,-702.84"/>
<polygon fill="#964b00" stroke="#964b00" points="369.65,-738.73 373.31,-748.67 376.65,-738.61 369.65,-738.73"/>
<polygon fill="#964b00" stroke="#964b00" points="376.07,-703.06 372.41,-693.11 369.07,-703.17 376.07,-703.06"/>
</g>
<!-- node_0x6060000015e0 -->
<g id="node12" class="node">
<title>node_0x6060000015e0</title>
<path fill="#00ffff" stroke="#964b00" d="M482.31,-625.5C482.31,-625.5 585.41,-625.5 585.41,-625.5 591.41,-625.5 597.41,-631.5 597.41,-637.5 597.41,-637.5 597.41,-679.5 597.41,-679.5 597.41,-685.5 591.41,-691.5 585.41,-691.5 585.41,-691.5 482.31,-691.5 482.31,-691.5 476.31,-691.5 470.31,-685.5 470.31,-679.5 470.31,-679.5 470.31,-637.5 470.31,-637.5 470.31,-631.5 476.31,-625.5 482.31,-625.5"/>
<text xml:space="preserve" text-anchor="middle" x="533.86" y="-676.3" font-family="Times,serif" font-size="14.00">type = OPERATOR</text>
<polyline fill="none" stroke="#964b00" points="470.31,-669.5 597.41,-669.5"/>
<text xml:space="preserve" text-anchor="middle" x="533.64" y="-654.3" font-family="Times,serif" font-size="14.00">val = 20(OP_RET)</text>
<polyline fill="none" stroke="#964b00" points="470.31,-647.5 597.41,-647.5"/>
<text xml:space="preserve" text-anchor="middle" x="501.59" y="-632.3" font-family="Times,serif" font-size="14.00">L</text>
<polyline fill="none" stroke="#964b00" points="532.86,-625.5 532.86,-647.5"/>
<text xml:space="preserve" text-anchor="middle" x="565.03" y="-632.3" font-family="Times,serif" font-size="14.00">R</text>
</g>
<!-- node_0x606000001fa0&#45;&gt;node_0x6060000015e0 -->
<g id="edge11" class="edge">
<title>node_0x606000001fa0&#45;&gt;node_0x6060000015e0</title>
<path fill="none" stroke="#964b00" d="M424.93,-743.24C443.47,-728.99 464.41,-712.89 482.94,-698.64"/>
<polygon fill="#964b00" stroke="#964b00" points="422.89,-740.39 417.1,-749.26 427.16,-745.94 422.89,-740.39"/>
<polygon fill="#964b00" stroke="#964b00" points="484.83,-701.61 490.63,-692.74 480.56,-696.06 484.83,-701.61"/>
</g>
<!-- node_0x6060000012e0 -->
<g id="node7" class="node">
<title>node_0x6060000012e0</title>
<path fill="#00ffff" stroke="#964b00" d="M162.31,-500.5C162.31,-500.5 265.41,-500.5 265.41,-500.5 271.41,-500.5 277.41,-506.5 277.41,-512.5 277.41,-512.5 277.41,-554.5 277.41,-554.5 277.41,-560.5 271.41,-566.5 265.41,-566.5 265.41,-566.5 162.31,-566.5 162.31,-566.5 156.31,-566.5 150.31,-560.5 150.31,-554.5 150.31,-554.5 150.31,-512.5 150.31,-512.5 150.31,-506.5 156.31,-500.5 162.31,-500.5"/>
<text xml:space="preserve" text-anchor="middle" x="213.86" y="-551.3" font-family="Times,serif" font-size="14.00">type = OPERATOR</text>
<polyline fill="none" stroke="#964b00" points="150.31,-544.5 277.41,-544.5"/>
<text xml:space="preserve" text-anchor="middle" x="213.75" y="-529.3" font-family="Times,serif" font-size="14.00">val = 8(OP_EQ)</text>
<polyline fill="none" stroke="#964b00" points="150.31,-522.5 277.41,-522.5"/>
<text xml:space="preserve" text-anchor="middle" x="181.59" y="-507.3" font-family="Times,serif" font-size="14.00">L</text>
<polyline fill="none" stroke="#964b00" points="212.86,-500.5 212.86,-522.5"/>
<text xml:space="preserve" text-anchor="middle" x="245.03" y="-507.3" font-family="Times,serif" font-size="14.00">R</text>
</g>
<!-- node_0x6060000011c0&#45;&gt;node_0x6060000012e0 -->
<g id="edge6" class="edge">
<title>node_0x6060000011c0&#45;&gt;node_0x6060000012e0</title>
<path fill="none" stroke="#964b00" d="M321.43,-618.24C303.12,-603.99 282.44,-587.89 264.14,-573.64"/>
<polygon fill="#964b00" stroke="#964b00" points="319.11,-620.87 329.15,-624.25 323.41,-615.35 319.11,-620.87"/>
<polygon fill="#964b00" stroke="#964b00" points="266.6,-571.13 256.56,-567.74 262.3,-576.65 266.6,-571.13"/>
</g>
<!-- node_0x606000001460 -->
<g id="node10" class="node">
<title>node_0x606000001460</title>
<path fill="#00ffff" stroke="#964b00" d="M320.31,-500.5C320.31,-500.5 423.41,-500.5 423.41,-500.5 429.41,-500.5 435.41,-506.5 435.41,-512.5 435.41,-512.5 435.41,-554.5 435.41,-554.5 435.41,-560.5 429.41,-566.5 423.41,-566.5 423.41,-566.5 320.31,-566.5 320.31,-566.5 314.31,-566.5 308.31,-560.5 308.31,-554.5 308.31,-554.5 308.31,-512.5 308.31,-512.5 308.31,-506.5 314.31,-500.5 320.31,-500.5"/>
<text xml:space="preserve" text-anchor="middle" x="371.86" y="-551.3" font-family="Times,serif" font-size="14.00">type = OPERATOR</text>
<polyline fill="none" stroke="#964b00" points="308.31,-544.5 435.41,-544.5"/>
<text xml:space="preserve" text-anchor="middle" x="371.64" y="-529.3" font-family="Times,serif" font-size="14.00">val = 20(OP_RET)</text>
<polyline fill="none" stroke="#964b00" points="308.31,-522.5 435.41,-522.5"/>
<text xml:space="preserve" text-anchor="middle" x="339.59" y="-507.3" font-family="Times,serif" font-size="14.00">L</text>
<polyline fill="none" stroke="#964b00" points="370.86,-500.5 370.86,-522.5"/>
<text xml:space="preserve" text-anchor="middle" x="403.03" y="-507.3" font-family="Times,serif" font-size="14.00">R</text>
</g>
<!-- node_0x6060000011c0&#45;&gt;node_0x606000001460 -->
<g id="edge9" class="edge">
<title>node_0x6060000011c0&#45;&gt;node_0x606000001460</title>
<path fill="none" stroke="#964b00" d="M371.86,-613.7C371.86,-602.05 371.86,-589.47 371.86,-577.84"/>
<polygon fill="#964b00" stroke="#964b00" points="368.36,-613.67 371.86,-623.67 375.36,-613.67 368.36,-613.67"/>
<polygon fill="#964b00" stroke="#964b00" points="375.36,-578.11 371.86,-568.11 368.36,-578.11 375.36,-578.11"/>
</g>
<!-- node_0x606000001280 -->
<g id="node8" class="node">
<title>node_0x606000001280</title>
<path fill="#daa520" stroke="#964b00" d="M12,-375.5C12,-375.5 111.72,-375.5 111.72,-375.5 117.72,-375.5 123.72,-381.5 123.72,-387.5 123.72,-387.5 123.72,-429.5 123.72,-429.5 123.72,-435.5 117.72,-441.5 111.72,-441.5 111.72,-441.5 12,-441.5 12,-441.5 6,-441.5 0,-435.5 0,-429.5 0,-429.5 0,-387.5 0,-387.5 0,-381.5 6,-375.5 12,-375.5"/>
<text xml:space="preserve" text-anchor="middle" x="61.86" y="-426.3" font-family="Times,serif" font-size="14.00">type = VARIABLE</text>
<polyline fill="none" stroke="#964b00" points="0,-419.5 123.72,-419.5"/>
<text xml:space="preserve" text-anchor="middle" x="61.5" y="-404.3" font-family="Times,serif" font-size="14.00">val = n</text>
<polyline fill="none" stroke="#964b00" points="0,-397.5 123.72,-397.5"/>
<text xml:space="preserve" text-anchor="middle" x="30.5" y="-382.3" font-family="Times,serif" font-size="14.00">0</text>
<polyline fill="none" stroke="#964b00" points="61,-375.5 61,-397.5"/>
<text xml:space="preserve" text-anchor="middle" x="92" y="-382.3" font-family="Times,serif" font-size="14.00">0</text>
</g>
<!-- node_0x6060000012e0&#45;&gt;node_0x606000001280 -->
<g id="edge7" class="edge">
<title>node_0x6060000012e0&#45;&gt;node_0x606000001280</title>
<path fill="none" stroke="#964b00" d="M165.07,-493.02C147.67,-478.94 128.08,-463.08 110.67,-449"/>
<polygon fill="#964b00" stroke="#964b00" points="162.77,-495.66 172.75,-499.23 167.18,-490.22 162.77,-495.66"/>
<polygon fill="#964b00" stroke="#964b00" points="112.95,-446.34 102.97,-442.77 108.54,-451.78 112.95,-446.34"/>
</g>
<!-- node_0x606000001340 -->
<g id="node9" class="node">
<title>node_0x606000001340</title>
<path fill="#98fb98" stroke="#964b00" d="M158.04,-375.5C158.04,-375.5 269.69,-375.5 269.69,-375.5 275.69,-375.5 281.69,-381.5 281.69,-387.5 281.69,-387.5 281.69,-429.5 281.69,-429.5 281.69,-435.5 275.69,-441.5 269.69,-441.5 269.69,-441.5 158.04,-441.5 158.04,-441.5 152.04,-441.5 146.04,-435.5 146.04,-429.5 146.04,-429.5 146.04,-387.5 146.04,-387.5 146.04,-381.5 152.04,-375.5 158.04,-375.5"/>
<text xml:space="preserve" text-anchor="middle" x="213.86" y="-426.3" font-family="Times,serif" font-size="14.00">type = CONST_VAR</text>
<polyline fill="none" stroke="#964b00" points="146.04,-419.5 281.69,-419.5"/>
<text xml:space="preserve" text-anchor="middle" x="213.54" y="-404.3" font-family="Times,serif" font-size="14.00">val = 1</text>
<polyline fill="none" stroke="#964b00" points="146.04,-397.5 281.69,-397.5"/>
<text xml:space="preserve" text-anchor="middle" x="179.54" y="-382.3" font-family="Times,serif" font-size="14.00">0</text>
<polyline fill="none" stroke="#964b00" points="213.04,-375.5 213.04,-397.5"/>
<text xml:space="preserve" text-anchor="middle" x="247.04" y="-382.3" font-family="Times,serif" font-size="14.00">0</text>
</g>
<!-- node_0x6060000012e0&#45;&gt;node_0x606000001340 -->
<g id="edge8" class="edge">
<title>node_0x6060000012e0&#45;&gt;node_0x606000001340</title>
<path fill="none" stroke="#964b00" d="M213.86,-488.7C213.86,-477.05 213.86,-464.47 213.86,-452.84"/>
<polygon fill="#964b00" stroke="#964b00" points="210.36,-488.67 213.86,-498.67 217.36,-488.67 210.36,-488.67"/>
<polygon fill="#964b00" stroke="#964b00" points="217.36,-453.11 213.86,-443.11 210.36,-453.11 217.36,-453.11"/>
</g>
<!-- node_0x6060000014c0 -->
<g id="node11" class="node">
<title>node_0x6060000014c0</title>
<path fill="#98fb98" stroke="#964b00" d="M316.04,-375.5C316.04,-375.5 427.69,-375.5 427.69,-375.5 433.69,-375.5 439.69,-381.5 439.69,-387.5 439.69,-387.5 439.69,-429.5 439.69,-429.5 439.69,-435.5 433.69,-441.5 427.69,-441.5 427.69,-441.5 316.04,-441.5 316.04,-441.5 310.04,-441.5 304.04,-435.5 304.04,-429.5 304.04,-429.5 304.04,-387.5 304.04,-387.5 304.04,-381.5 310.04,-375.5 316.04,-375.5"/>
<text xml:space="preserve" text-anchor="middle" x="371.86" y="-426.3" font-family="Times,serif" font-size="14.00">type = CONST_VAR</text>
<polyline fill="none" stroke="#964b00" points="304.04,-419.5 439.69,-419.5"/>
<text xml:space="preserve" text-anchor="middle" x="371.54" y="-404.3" font-family="Times,serif" font-size="14.00">val = 1</text>
<polyline fill="none" stroke="#964b00" points="304.04,-397.5 439.69,-397.5"/>
<text xml:space="preserve" text-anchor="middle" x="337.54" y="-382.3" font-family="Times,serif" font-size="14.00">0</text>
<polyline fill="none" stroke="#964b00" points="371.04,-375.5 371.04,-397.5"/>
<text xml:space="preserve" text-anchor="middle" x="405.04" y="-382.3" font-family="Times,serif" font-size="14.00">0</text>
</g>
<!-- node_0x606000001460&#45;&gt;node_0x6060000014c0 -->
<g id="edge10" class="edge">
<title>node_0x606000001460&#45;&gt;node_0x6060000014c0</title>
<path fill="none" stroke="#964b00" d="M371.86,-488.7C371.86,-477.05 371.86,-464.47 371.86,-452.84"/>
<polygon fill="#964b00" stroke="#964b00" points="368.36,-488.67 371.86,-498.67 375.36,-488.67 368.36,-488.67"/>
<polygon fill="#964b00" stroke="#964b00" points="375.36,-453.11 371.86,-443.11 368.36,-453.11 375.36,-453.11"/>
</g>
<!-- node_0x606000001880 -->
<g id="node13" class="node">
<title>node_0x606000001880</title>
<path fill="#00ffff" stroke="#964b00" d="M494.31,-500.5C494.31,-500.5 597.41,-500.5 597.41,-500.5 603.41,-500.5 609.41,-506.5 609.41,-512.5 609.41,-512.5 609.41,-554.5 609.41,-554.5 609.41,-560.5 603.41,-566.5 597.41,-566.5 597.41,-566.5 494.31,-566.5 494.31,-566.5 488.31,-566.5 482.31,-560.5 482.31,-554.5 482.31,-554.5 482.31,-512.5 482.31,-512.5 482.31,-506.5 488.31,-500.5 494.31,-500.5"/>
<text xml:space="preserve" text-anchor="middle" x="545.86" y="-551.3" font-family="Times,serif" font-size="14.00">type = OPERATOR</text>
<polyline fill="none" stroke="#964b00" points="482.31,-544.5 609.41,-544.5"/>
<text xml:space="preserve" text-anchor="middle" x="545.48" y="-529.3" font-family="Times,serif" font-size="14.00">val = 3(OP_MUL)</text>
<polyline fill="none" stroke="#964b00" points="482.31,-522.5 609.41,-522.5"/>
<text xml:space="preserve" text-anchor="middle" x="513.59" y="-507.3" font-family="Times,serif" font-size="14.00">L</text>
<polyline fill="none" stroke="#964b00" points="544.86,-500.5 544.86,-522.5"/>
<text xml:space="preserve" text-anchor="middle" x="577.03" y="-507.3" font-family="Times,serif" font-size="14.00">R</text>
</g>
<!-- node_0x6060000015e0&#45;&gt;node_0x606000001880 -->
<g id="edge12" class="edge">
<title>node_0x6060000015e0&#45;&gt;node_0x606000001880</title>
<path fill="none" stroke="#964b00" d="M538.09,-614.15C539.23,-602.41 540.47,-589.7 541.62,-577.96"/>
<polygon fill="#964b00" stroke="#964b00" points="534.65,-613.38 537.16,-623.68 541.61,-614.06 534.65,-613.38"/>
<polygon fill="#964b00" stroke="#964b00" points="545.09,-578.4 542.58,-568.11 538.13,-577.72 545.09,-578.4"/>
</g>
<!-- node_0x606000001640 -->
<g id="node14" class="node">
<title>node_0x606000001640</title>
<path fill="#a7a7f2" stroke="#964b00" d="M473.2,-375.5C473.2,-375.5 618.53,-375.5 618.53,-375.5 624.53,-375.5 630.53,-381.5 630.53,-387.5 630.53,-387.5 630.53,-429.5 630.53,-429.5 630.53,-435.5 624.53,-441.5 618.53,-441.5 618.53,-441.5 473.2,-441.5 473.2,-441.5 467.2,-441.5 461.2,-435.5 461.2,-429.5 461.2,-429.5 461.2,-387.5 461.2,-387.5 461.2,-381.5 467.2,-375.5 473.2,-375.5"/>
<text xml:space="preserve" text-anchor="middle" x="545.86" y="-426.3" font-family="Times,serif" font-size="14.00">type = FUNCTION_CALL</text>
<polyline fill="none" stroke="#964b00" points="461.2,-419.5 630.53,-419.5"/>
<text xml:space="preserve" text-anchor="middle" x="545.39" y="-404.3" font-family="Times,serif" font-size="14.00">val = Che_cazzo_fact</text>
<polyline fill="none" stroke="#964b00" points="461.2,-397.5 630.53,-397.5"/>
<text xml:space="preserve" text-anchor="middle" x="503.2" y="-382.3" font-family="Times,serif" font-size="14.00">0</text>
<polyline fill="none" stroke="#964b00" points="545.2,-375.5 545.2,-397.5"/>
<text xml:space="preserve" text-anchor="middle" x="587.7" y="-382.3" font-family="Times,serif" font-size="14.00">0</text>
</g>
<!-- node_0x606000001880&#45;&gt;node_0x606000001640 -->
<g id="edge13" class="edge">
<title>node_0x606000001880&#45;&gt;node_0x606000001640</title>
<path fill="none" stroke="#964b00" d="M545.86,-488.7C545.86,-477.05 545.86,-464.47 545.86,-452.84"/>
<polygon fill="#964b00" stroke="#964b00" points="542.36,-488.67 545.86,-498.67 549.36,-488.67 542.36,-488.67"/>
<polygon fill="#964b00" stroke="#964b00" points="549.36,-453.11 545.86,-443.11 542.36,-453.11 549.36,-453.11"/>
</g>
<!-- node_0x6060000018e0 -->
<g id="node19" class="node">
<title>node_0x6060000018e0</title>
<path fill="#daa520" stroke="#964b00" d="M665,-375.5C665,-375.5 764.72,-375.5 764.72,-375.5 770.72,-375.5 776.72,-381.5 776.72,-387.5 776.72,-387.5 776.72,-429.5 776.72,-429.5 776.72,-435.5 770.72,-441.5 764.72,-441.5 764.72,-441.5 665,-441.5 665,-441.5 659,-441.5 653,-435.5 653,-429.5 653,-429.5 653,-387.5 653,-387.5 653,-381.5 659,-375.5 665,-375.5"/>
<text xml:space="preserve" text-anchor="middle" x="714.86" y="-426.3" font-family="Times,serif" font-size="14.00">type = VARIABLE</text>
<polyline fill="none" stroke="#964b00" points="653,-419.5 776.72,-419.5"/>
<text xml:space="preserve" text-anchor="middle" x="714.5" y="-404.3" font-family="Times,serif" font-size="14.00">val = n</text>
<polyline fill="none" stroke="#964b00" points="653,-397.5 776.72,-397.5"/>
<text xml:space="preserve" text-anchor="middle" x="683.5" y="-382.3" font-family="Times,serif" font-size="14.00">0</text>
<polyline fill="none" stroke="#964b00" points="714,-375.5 714,-397.5"/>
<text xml:space="preserve" text-anchor="middle" x="745" y="-382.3" font-family="Times,serif" font-size="14.00">0</text>
</g>
<!-- node_0x606000001880&#45;&gt;node_0x6060000018e0 -->
<g id="edge18" class="edge">
<title>node_0x606000001880&#45;&gt;node_0x6060000018e0</title>
<path fill="none" stroke="#964b00" d="M599.49,-493.47C619.23,-479.1 641.57,-462.84 661.3,-448.48"/>
<polygon fill="#964b00" stroke="#964b00" points="597.51,-490.58 591.49,-499.29 601.63,-496.24 597.51,-490.58"/>
<polygon fill="#964b00" stroke="#964b00" points="663.21,-451.42 669.24,-442.7 659.09,-445.76 663.21,-451.42"/>
</g>
<!-- node_0x606000002000 -->
<g id="node15" class="node">
<title>node_0x606000002000</title>
<path fill="#00ffff" stroke="#964b00" d="M493.8,-250.5C493.8,-250.5 597.92,-250.5 597.92,-250.5 603.92,-250.5 609.92,-256.5 609.92,-262.5 609.92,-262.5 609.92,-304.5 609.92,-304.5 609.92,-310.5 603.92,-316.5 597.92,-316.5 597.92,-316.5 493.8,-316.5 493.8,-316.5 487.8,-316.5 481.8,-310.5 481.8,-304.5 481.8,-304.5 481.8,-262.5 481.8,-262.5 481.8,-256.5 487.8,-250.5 493.8,-250.5"/>
<text xml:space="preserve" text-anchor="middle" x="545.85" y="-301.3" font-family="Times,serif" font-size="14.00">type = OPERATOR</text>
<polyline fill="none" stroke="#964b00" points="481.8,-294.5 609.92,-294.5"/>
<text xml:space="preserve" text-anchor="middle" x="545.86" y="-279.3" font-family="Times,serif" font-size="14.00">val = 19(OP_COM)</text>
<polyline fill="none" stroke="#964b00" points="481.8,-272.5 609.92,-272.5"/>
<text xml:space="preserve" text-anchor="middle" x="513.58" y="-257.3" font-family="Times,serif" font-size="14.00">L</text>
<polyline fill="none" stroke="#964b00" points="545.35,-250.5 545.35,-272.5"/>
<text xml:space="preserve" text-anchor="middle" x="577.52" y="-257.3" font-family="Times,serif" font-size="14.00">R</text>
</g>
<!-- node_0x606000001640&#45;&gt;node_0x606000002000 -->
<g id="edge14" class="edge">
<title>node_0x606000001640&#45;&gt;node_0x606000002000</title>
<path fill="none" stroke="#964b00" d="M545.86,-363.7C545.86,-352.05 545.86,-339.47 545.86,-327.84"/>
<polygon fill="#964b00" stroke="#964b00" points="542.36,-363.67 545.86,-373.67 549.36,-363.67 542.36,-363.67"/>
<polygon fill="#964b00" stroke="#964b00" points="549.36,-328.11 545.86,-318.11 542.36,-328.11 549.36,-328.11"/>
</g>
<!-- node_0x606000001760 -->
<g id="node16" class="node">
<title>node_0x606000001760</title>
<path fill="#00ffff" stroke="#964b00" d="M494.31,-125.5C494.31,-125.5 597.41,-125.5 597.41,-125.5 603.41,-125.5 609.41,-131.5 609.41,-137.5 609.41,-137.5 609.41,-179.5 609.41,-179.5 609.41,-185.5 603.41,-191.5 597.41,-191.5 597.41,-191.5 494.31,-191.5 494.31,-191.5 488.31,-191.5 482.31,-185.5 482.31,-179.5 482.31,-179.5 482.31,-137.5 482.31,-137.5 482.31,-131.5 488.31,-125.5 494.31,-125.5"/>
<text xml:space="preserve" text-anchor="middle" x="545.86" y="-176.3" font-family="Times,serif" font-size="14.00">type = OPERATOR</text>
<polyline fill="none" stroke="#964b00" points="482.31,-169.5 609.41,-169.5"/>
<text xml:space="preserve" text-anchor="middle" x="545.54" y="-154.3" font-family="Times,serif" font-size="14.00">val = 2(OP_SUB)</text>
<polyline fill="none" stroke="#964b00" points="482.31,-147.5 609.41,-147.5"/>
<text xml:space="preserve" text-anchor="middle" x="513.59" y="-132.3" font-family="Times,serif" font-size="14.00">L</text>
<polyline fill="none" stroke="#964b00" points="544.86,-125.5 544.86,-147.5"/>
<text xml:space="preserve" text-anchor="middle" x="577.03" y="-132.3" font-family="Times,serif" font-size="14.00">R</text>
</g>
<!-- node_0x606000002000&#45;&gt;node_0x606000001760 -->
<g id="edge15" class="edge">
<title>node_0x606000002000&#45;&gt;node_0x606000001760</title>
<path fill="none" stroke="#964b00" d="M545.86,-238.7C545.86,-227.05 545.86,-214.47 545.86,-202.84"/>
<polygon fill="#964b00" stroke="#964b00" points="542.36,-238.67 545.86,-248.67 549.36,-238.67 542.36,-238.67"/>
<polygon fill="#964b00" stroke="#964b00" points="549.36,-203.11 545.86,-193.11 542.36,-203.11 549.36,-203.11"/>
</g>
<!-- node_0x606000001700 -->
<g id="node17" class="node">
<title>node_0x606000001700</title>
<path fill="#daa520" stroke="#964b00" d="M420,-0.5C420,-0.5 519.72,-0.5 519.72,-0.5 525.72,-0.5 531.72,-6.5 531.72,-12.5 531.72,-12.5 531.72,-54.5 531.72,-54.5 531.72,-60.5 525.72,-66.5 519.72,-66.5 519.72,-66.5 420,-66.5 420,-66.5 414,-66.5 408,-60.5 408,-54.5 408,-54.5 408,-12.5 408,-12.5 408,-6.5 414,-0.5 420,-0.5"/>
<text xml:space="preserve" text-anchor="middle" x="469.86" y="-51.3" font-family="Times,serif" font-size="14.00">type = VARIABLE</text>
<polyline fill="none" stroke="#964b00" points="408,-44.5 531.72,-44.5"/>
<text xml:space="preserve" text-anchor="middle" x="469.5" y="-29.3" font-family="Times,serif" font-size="14.00">val = n</text>
<polyline fill="none" stroke="#964b00" points="408,-22.5 531.72,-22.5"/>
<text xml:space="preserve" text-anchor="middle" x="438.5" y="-7.3" font-family="Times,serif" font-size="14.00">0</text>
<polyline fill="none" stroke="#964b00" points="469,-0.5 469,-22.5"/>
<text xml:space="preserve" text-anchor="middle" x="500" y="-7.3" font-family="Times,serif" font-size="14.00">0</text>
</g>
<!-- node_0x606000001760&#45;&gt;node_0x606000001700 -->
<g id="edge16" class="edge">
<title>node_0x606000001760&#45;&gt;node_0x606000001700</title>
<path fill="none" stroke="#964b00" d="M519.92,-115.52C512.04,-102.76 503.39,-88.76 495.53,-76.04"/>
<polygon fill="#964b00" stroke="#964b00" points="516.86,-117.23 525.1,-123.9 522.82,-113.55 516.86,-117.23"/>
<polygon fill="#964b00" stroke="#964b00" points="498.72,-74.56 490.49,-67.89 492.77,-78.24 498.72,-74.56"/>
</g>
<!-- node_0x6060000017c0 -->
<g id="node18" class="node">
<title>node_0x6060000017c0</title>
<path fill="#98fb98" stroke="#964b00" d="M566.04,-0.5C566.04,-0.5 677.69,-0.5 677.69,-0.5 683.69,-0.5 689.69,-6.5 689.69,-12.5 689.69,-12.5 689.69,-54.5 689.69,-54.5 689.69,-60.5 683.69,-66.5 677.69,-66.5 677.69,-66.5 566.04,-66.5 566.04,-66.5 560.04,-66.5 554.04,-60.5 554.04,-54.5 554.04,-54.5 554.04,-12.5 554.04,-12.5 554.04,-6.5 560.04,-0.5 566.04,-0.5"/>
<text xml:space="preserve" text-anchor="middle" x="621.86" y="-51.3" font-family="Times,serif" font-size="14.00">type = CONST_VAR</text>
<polyline fill="none" stroke="#964b00" points="554.04,-44.5 689.69,-44.5"/>
<text xml:space="preserve" text-anchor="middle" x="621.54" y="-29.3" font-family="Times,serif" font-size="14.00">val = 1</text>
<polyline fill="none" stroke="#964b00" points="554.04,-22.5 689.69,-22.5"/>
<text xml:space="preserve" text-anchor="middle" x="587.54" y="-7.3" font-family="Times,serif" font-size="14.00">0</text>
<polyline fill="none" stroke="#964b00" points="621.04,-0.5 621.04,-22.5"/>
<text xml:space="preserve" text-anchor="middle" x="655.04" y="-7.3" font-family="Times,serif" font-size="14.00">0</text>
</g>
<!-- node_0x606000001760&#45;&gt;node_0x6060000017c0 -->
<g id="edge17" class="edge">
<title>node_0x606000001760&#45;&gt;node_0x6060000017c0</title>
<path fill="none" stroke="#964b00" d="M571.8,-115.52C579.68,-102.76 588.33,-88.76 596.19,-76.04"/>
<polygon fill="#964b00" stroke="#964b00" points="568.9,-113.55 566.62,-123.9 574.86,-117.23 568.9,-113.55"/>
<polygon fill="#964b00" stroke="#964b00" points="598.95,-78.24 601.23,-67.89 593,-74.56 598.95,-78.24"/>
</g>
</g>
</svg>
