<?xml version="1.0" encoding="UTF-8" standalone="no"?>
<!DOCTYPE svg PUBLIC "-//W3C//DTD SVG 1.1//EN"
 "http://www.w3.org/Graphics/SVG/1.1/DTD/svg11.dtd">
<!-- Generated by graphviz version 14.0.2 (20251019.1705)
 -->
<!-- Title: G Pages: 1 -->
<svg width="935pt" height="950pt"
 viewBox="0.00 0.00 935.00 950.00" xmlns="http://www.w3.org/2000/svg" xmlns:xlink="http://www.w3.org/1999/xlink">
<g id="graph0" class="graph" transform="scale(1 1) rotate(0) translate(4 946)">
<title>G</title>
<polygon fill="#fffafa" stroke="none" points="-4,4 -4,-946 930.69,-946 930.69,4 -4,4"/>
<!-- node_0x606000001e80 -->
<g id="node1" class="node">
<title>node_0x606000001e80</title>
<path fill="#00ffff" stroke="#964b00" d="M238.31,-875.5C238.31,-875.5 341.41,-875.5 341.41,-875.5 347.41,-875.5 353.41,-881.5 353.41,-887.5 353.41,-887.5 353.41,-929.5 353.41,-929.5 353.41,-935.5 347.41,-941.5 341.41,-941.5 341.41,-941.5 238.31,-941.5 238.31,-941.5 232.31,-941.5 226.31,-935.5 226.31,-929.5 226.31,-929.5 226.31,-887.5 226.31,-887.5 226.31,-881.5 232.31,-875.5 238.31,-875.5"/>
<text xml:space="preserve" text-anchor="middle" x="289.86" y="-926.3" font-family="Times,serif" font-size="14.00">type = OPERATOR</text>
<polyline fill="none" stroke="#964b00" points="226.31,-919.5 353.41,-919.5"/>
<text xml:space="preserve" text-anchor="middle" x="289.65" y="-904.3" font-family="Times,serif" font-size="14.00">val = 18(OP_CFB)</text>
<polyline fill="none" stroke="#964b00" points="226.31,-897.5 353.41,-897.5"/>
<text xml:space="preserve" text-anchor="middle" x="257.59" y="-882.3" font-family="Times,serif" font-size="14.00">L</text>
<polyline fill="none" stroke="#964b00" points="288.86,-875.5 288.86,-897.5"/>
<text xml:space="preserve" text-anchor="middle" x="321.03" y="-882.3" font-family="Times,serif" font-size="14.00">R</text>
</g>
<!-- node_0x606000000620 -->
<g id="node2" class="node">
<title>node_0x606000000620</title>
<path fill="#00ffff" stroke="#964b00" d="M231.21,-750.5C231.21,-750.5 348.52,-750.5 348.52,-750.5 354.52,-750.5 360.52,-756.5 360.52,-762.5 360.52,-762.5 360.52,-804.5 360.52,-804.5 360.52,-810.5 354.52,-816.5 348.52,-816.5 348.52,-816.5 231.21,-816.5 231.21,-816.5 225.21,-816.5 219.21,-810.5 219.21,-804.5 219.21,-804.5 219.21,-762.5 219.21,-762.5 219.21,-756.5 225.21,-750.5 231.21,-750.5"/>
<text xml:space="preserve" text-anchor="middle" x="289.75" y="-801.3" font-family="Times,serif" font-size="14.00">type = OPERATOR</text>
<polyline fill="none" stroke="#964b00" points="219.21,-794.5 360.52,-794.5"/>
<text xml:space="preserve" text-anchor="middle" x="289.86" y="-779.3" font-family="Times,serif" font-size="14.00">val = 14(OP_WHILE)</text>
<polyline fill="none" stroke="#964b00" points="219.21,-772.5 360.52,-772.5"/>
<text xml:space="preserve" text-anchor="middle" x="253.98" y="-757.3" font-family="Times,serif" font-size="14.00">L</text>
<polyline fill="none" stroke="#964b00" points="288.76,-750.5 288.76,-772.5"/>
<text xml:space="preserve" text-anchor="middle" x="324.43" y="-757.3" font-family="Times,serif" font-size="14.00">R</text>
</g>
<!-- node_0x606000001e80&#45;&gt;node_0x606000000620 -->
<g id="edge1" class="edge">
<title>node_0x606000001e80&#45;&gt;node_0x606000000620</title>
<path fill="none" stroke="#964b00" d="M289.86,-863.7C289.86,-852.05 289.86,-839.47 289.86,-827.84"/>
<polygon fill="#964b00" stroke="#964b00" points="286.36,-863.67 289.86,-873.67 293.36,-863.67 286.36,-863.67"/>
<polygon fill="#964b00" stroke="#964b00" points="293.36,-828.11 289.86,-818.11 286.36,-828.11 293.36,-828.11"/>
</g>
<!-- node_0x606000000740 -->
<g id="node3" class="node">
<title>node_0x606000000740</title>
<path fill="#00ffff" stroke="#964b00" d="M162.31,-625.5C162.31,-625.5 265.41,-625.5 265.41,-625.5 271.41,-625.5 277.41,-631.5 277.41,-637.5 277.41,-637.5 277.41,-679.5 277.41,-679.5 277.41,-685.5 271.41,-691.5 265.41,-691.5 265.41,-691.5 162.31,-691.5 162.31,-691.5 156.31,-691.5 150.31,-685.5 150.31,-679.5 150.31,-679.5 150.31,-637.5 150.31,-637.5 150.31,-631.5 156.31,-625.5 162.31,-625.5"/>
<text xml:space="preserve" text-anchor="middle" x="213.86" y="-676.3" font-family="Times,serif" font-size="14.00">type = OPERATOR</text>
<polyline fill="none" stroke="#964b00" points="150.31,-669.5 277.41,-669.5"/>
<text xml:space="preserve" text-anchor="middle" x="213.47" y="-654.3" font-family="Times,serif" font-size="14.00">val = 10(OP_LE)</text>
<polyline fill="none" stroke="#964b00" points="150.31,-647.5 277.41,-647.5"/>
<text xml:space="preserve" text-anchor="middle" x="181.59" y="-632.3" font-family="Times,serif" font-size="14.00">L</text>
<polyline fill="none" stroke="#964b00" points="212.86,-625.5 212.86,-647.5"/>
<text xml:space="preserve" text-anchor="middle" x="245.03" y="-632.3" font-family="Times,serif" font-size="14.00">R</text>
</g>
<!-- node_0x606000000620&#45;&gt;node_0x606000000740 -->
<g id="edge2" class="edge">
<title>node_0x606000000620&#45;&gt;node_0x606000000740</title>
<path fill="none" stroke="#964b00" d="M263.92,-740.52C256.04,-727.76 247.39,-713.76 239.53,-701.04"/>
<polygon fill="#964b00" stroke="#964b00" points="260.86,-742.23 269.1,-748.9 266.82,-738.55 260.86,-742.23"/>
<polygon fill="#964b00" stroke="#964b00" points="242.72,-699.56 234.49,-692.89 236.77,-703.24 242.72,-699.56"/>
</g>
<!-- node_0x606000000b00 -->
<g id="node6" class="node">
<title>node_0x606000000b00</title>
<path fill="#00ffff" stroke="#964b00" d="M315.31,-625.5C315.31,-625.5 418.41,-625.5 418.41,-625.5 424.41,-625.5 430.41,-631.5 430.41,-637.5 430.41,-637.5 430.41,-679.5 430.41,-679.5 430.41,-685.5 424.41,-691.5 418.41,-691.5 418.41,-691.5 315.31,-691.5 315.31,-691.5 309.31,-691.5 303.31,-685.5 303.31,-679.5 303.31,-679.5 303.31,-637.5 303.31,-637.5 303.31,-631.5 309.31,-625.5 315.31,-625.5"/>
<text xml:space="preserve" text-anchor="middle" x="366.86" y="-676.3" font-family="Times,serif" font-size="14.00">type = OPERATOR</text>
<polyline fill="none" stroke="#964b00" points="303.31,-669.5 430.41,-669.5"/>
<text xml:space="preserve" text-anchor="middle" x="366.45" y="-654.3" font-family="Times,serif" font-size="14.00">val = 11(OP_SP)</text>
<polyline fill="none" stroke="#964b00" points="303.31,-647.5 430.41,-647.5"/>
<text xml:space="preserve" text-anchor="middle" x="334.59" y="-632.3" font-family="Times,serif" font-size="14.00">L</text>
<polyline fill="none" stroke="#964b00" points="365.86,-625.5 365.86,-647.5"/>
<text xml:space="preserve" text-anchor="middle" x="398.03" y="-632.3" font-family="Times,serif" font-size="14.00">R</text>
</g>
<!-- node_0x606000000620&#45;&gt;node_0x606000000b00 -->
<g id="edge5" class="edge">
<title>node_0x606000000620&#45;&gt;node_0x606000000b00</title>
<path fill="none" stroke="#964b00" d="M316.14,-740.52C324.13,-727.76 332.89,-713.76 340.86,-701.04"/>
<polygon fill="#964b00" stroke="#964b00" points="313.23,-738.57 310.89,-748.9 319.17,-742.28 313.23,-738.57"/>
<polygon fill="#964b00" stroke="#964b00" points="343.62,-703.22 345.96,-692.88 337.69,-699.5 343.62,-703.22"/>
</g>
<!-- node_0x6060000006e0 -->
<g id="node4" class="node">
<title>node_0x6060000006e0</title>
<path fill="#daa520" stroke="#964b00" d="M12,-500.5C12,-500.5 111.72,-500.5 111.72,-500.5 117.72,-500.5 123.72,-506.5 123.72,-512.5 123.72,-512.5 123.72,-554.5 123.72,-554.5 123.72,-560.5 117.72,-566.5 111.72,-566.5 111.72,-566.5 12,-566.5 12,-566.5 6,-566.5 0,-560.5 0,-554.5 0,-554.5 0,-512.5 0,-512.5 0,-506.5 6,-500.5 12,-500.5"/>
<text xml:space="preserve" text-anchor="middle" x="61.86" y="-551.3" font-family="Times,serif" font-size="14.00">type = VARIABLE</text>
<polyline fill="none" stroke="#964b00" points="0,-544.5 123.72,-544.5"/>
<text xml:space="preserve" text-anchor="middle" x="61.5" y="-529.3" font-family="Times,serif" font-size="14.00">val = n</text>
<polyline fill="none" stroke="#964b00" points="0,-522.5 123.72,-522.5"/>
<text xml:space="preserve" text-anchor="middle" x="30.5" y="-507.3" font-family="Times,serif" font-size="14.00">0</text>
<polyline fill="none" stroke="#964b00" points="61,-500.5 61,-522.5"/>
<text xml:space="preserve" text-anchor="middle" x="92" y="-507.3" font-family="Times,serif" font-size="14.00">0</text>
</g>
<!-- node_0x606000000740&#45;&gt;node_0x6060000006e0 -->
<g id="edge3" class="edge">
<title>node_0x606000000740&#45;&gt;node_0x6060000006e0</title>
<path fill="none" stroke="#964b00" d="M165.07,-618.02C147.67,-603.94 128.08,-588.08 110.67,-574"/>
<polygon fill="#964b00" stroke="#964b00" points="162.77,-620.66 172.75,-624.23 167.18,-615.22 162.77,-620.66"/>
<polygon fill="#964b00" stroke="#964b00" points="112.95,-571.34 102.97,-567.77 108.54,-576.78 112.95,-571.34"/>
</g>
<!-- node_0x6060000007a0 -->
<g id="node5" class="node">
<title>node_0x6060000007a0</title>
<path fill="#98fb98" stroke="#964b00" d="M158.04,-500.5C158.04,-500.5 269.69,-500.5 269.69,-500.5 275.69,-500.5 281.69,-506.5 281.69,-512.5 281.69,-512.5 281.69,-554.5 281.69,-554.5 281.69,-560.5 275.69,-566.5 269.69,-566.5 269.69,-566.5 158.04,-566.5 158.04,-566.5 152.04,-566.5 146.04,-560.5 146.04,-554.5 146.04,-554.5 146.04,-512.5 146.04,-512.5 146.04,-506.5 152.04,-500.5 158.04,-500.5"/>
<text xml:space="preserve" text-anchor="middle" x="213.86" y="-551.3" font-family="Times,serif" font-size="14.00">type = CONST_VAR</text>
<polyline fill="none" stroke="#964b00" points="146.04,-544.5 281.69,-544.5"/>
<text xml:space="preserve" text-anchor="middle" x="213.54" y="-529.3" font-family="Times,serif" font-size="14.00">val = 10</text>
<polyline fill="none" stroke="#964b00" points="146.04,-522.5 281.69,-522.5"/>
<text xml:space="preserve" text-anchor="middle" x="179.54" y="-507.3" font-family="Times,serif" font-size="14.00">0</text>
<polyline fill="none" stroke="#964b00" points="213.04,-500.5 213.04,-522.5"/>
<text xml:space="preserve" text-anchor="middle" x="247.04" y="-507.3" font-family="Times,serif" font-size="14.00">0</text>
</g>
<!-- node_0x606000000740&#45;&gt;node_0x6060000007a0 -->
<g id="edge4" class="edge">
<title>node_0x606000000740&#45;&gt;node_0x6060000007a0</title>
<path fill="none" stroke="#964b00" d="M213.86,-613.7C213.86,-602.05 213.86,-589.47 213.86,-577.84"/>
<polygon fill="#964b00" stroke="#964b00" points="210.36,-613.67 213.86,-623.67 217.36,-613.67 210.36,-613.67"/>
<polygon fill="#964b00" stroke="#964b00" points="217.36,-578.11 213.86,-568.11 210.36,-578.11 217.36,-578.11"/>
</g>
<!-- node_0x606000000920 -->
<g id="node7" class="node">
<title>node_0x606000000920</title>
<path fill="#00ffff" stroke="#964b00" d="M315.31,-500.5C315.31,-500.5 418.41,-500.5 418.41,-500.5 424.41,-500.5 430.41,-506.5 430.41,-512.5 430.41,-512.5 430.41,-554.5 430.41,-554.5 430.41,-560.5 424.41,-566.5 418.41,-566.5 418.41,-566.5 315.31,-566.5 315.31,-566.5 309.31,-566.5 303.31,-560.5 303.31,-554.5 303.31,-554.5 303.31,-512.5 303.31,-512.5 303.31,-506.5 309.31,-500.5 315.31,-500.5"/>
<text xml:space="preserve" text-anchor="middle" x="366.86" y="-551.3" font-family="Times,serif" font-size="14.00">type = OPERATOR</text>
<polyline fill="none" stroke="#964b00" points="303.31,-544.5 430.41,-544.5"/>
<text xml:space="preserve" text-anchor="middle" x="366.41" y="-529.3" font-family="Times,serif" font-size="14.00">val = 6(OP_INIT)</text>
<polyline fill="none" stroke="#964b00" points="303.31,-522.5 430.41,-522.5"/>
<text xml:space="preserve" text-anchor="middle" x="334.59" y="-507.3" font-family="Times,serif" font-size="14.00">L</text>
<polyline fill="none" stroke="#964b00" points="365.86,-500.5 365.86,-522.5"/>
<text xml:space="preserve" text-anchor="middle" x="398.03" y="-507.3" font-family="Times,serif" font-size="14.00">R</text>
</g>
<!-- node_0x606000000b00&#45;&gt;node_0x606000000920 -->
<g id="edge6" class="edge">
<title>node_0x606000000b00&#45;&gt;node_0x606000000920</title>
<path fill="none" stroke="#964b00" d="M366.86,-613.7C366.86,-602.05 366.86,-589.47 366.86,-577.84"/>
<polygon fill="#964b00" stroke="#964b00" points="363.36,-613.67 366.86,-623.67 370.36,-613.67 363.36,-613.67"/>
<polygon fill="#964b00" stroke="#964b00" points="370.36,-578.11 366.86,-568.11 363.36,-578.11 370.36,-578.11"/>
</g>
<!-- node_0x606000000c20 -->
<g id="node12" class="node">
<title>node_0x606000000c20</title>
<path fill="#00ffff" stroke="#964b00" d="M497.31,-500.5C497.31,-500.5 600.41,-500.5 600.41,-500.5 606.41,-500.5 612.41,-506.5 612.41,-512.5 612.41,-512.5 612.41,-554.5 612.41,-554.5 612.41,-560.5 606.41,-566.5 600.41,-566.5 600.41,-566.5 497.31,-566.5 497.31,-566.5 491.31,-566.5 485.31,-560.5 485.31,-554.5 485.31,-554.5 485.31,-512.5 485.31,-512.5 485.31,-506.5 491.31,-500.5 497.31,-500.5"/>
<text xml:space="preserve" text-anchor="middle" x="548.86" y="-551.3" font-family="Times,serif" font-size="14.00">type = OPERATOR</text>
<polyline fill="none" stroke="#964b00" points="485.31,-544.5 612.41,-544.5"/>
<text xml:space="preserve" text-anchor="middle" x="548.45" y="-529.3" font-family="Times,serif" font-size="14.00">val = 11(OP_SP)</text>
<polyline fill="none" stroke="#964b00" points="485.31,-522.5 612.41,-522.5"/>
<text xml:space="preserve" text-anchor="middle" x="516.59" y="-507.3" font-family="Times,serif" font-size="14.00">L</text>
<polyline fill="none" stroke="#964b00" points="547.86,-500.5 547.86,-522.5"/>
<text xml:space="preserve" text-anchor="middle" x="580.03" y="-507.3" font-family="Times,serif" font-size="14.00">R</text>
</g>
<!-- node_0x606000000b00&#45;&gt;node_0x606000000c20 -->
<g id="edge11" class="edge">
<title>node_0x606000000b00&#45;&gt;node_0x606000000c20</title>
<path fill="none" stroke="#964b00" d="M423.96,-618.91C445.54,-604.32 470.09,-587.74 491.68,-573.15"/>
<polygon fill="#964b00" stroke="#964b00" points="422.26,-615.84 415.93,-624.34 426.18,-621.64 422.26,-615.84"/>
<polygon fill="#964b00" stroke="#964b00" points="493.47,-576.16 499.79,-567.66 489.55,-570.36 493.47,-576.16"/>
</g>
<!-- node_0x6060000008c0 -->
<g id="node8" class="node">
<title>node_0x6060000008c0</title>
<path fill="#daa520" stroke="#964b00" d="M148,-375.5C148,-375.5 247.72,-375.5 247.72,-375.5 253.72,-375.5 259.72,-381.5 259.72,-387.5 259.72,-387.5 259.72,-429.5 259.72,-429.5 259.72,-435.5 253.72,-441.5 247.72,-441.5 247.72,-441.5 148,-441.5 148,-441.5 142,-441.5 136,-435.5 136,-429.5 136,-429.5 136,-387.5 136,-387.5 136,-381.5 142,-375.5 148,-375.5"/>
<text xml:space="preserve" text-anchor="middle" x="197.86" y="-426.3" font-family="Times,serif" font-size="14.00">type = VARIABLE</text>
<polyline fill="none" stroke="#964b00" points="136,-419.5 259.72,-419.5"/>
<text xml:space="preserve" text-anchor="middle" x="197.5" y="-404.3" font-family="Times,serif" font-size="14.00">val = k</text>
<polyline fill="none" stroke="#964b00" points="136,-397.5 259.72,-397.5"/>
<text xml:space="preserve" text-anchor="middle" x="166.5" y="-382.3" font-family="Times,serif" font-size="14.00">0</text>
<polyline fill="none" stroke="#964b00" points="197,-375.5 197,-397.5"/>
<text xml:space="preserve" text-anchor="middle" x="228" y="-382.3" font-family="Times,serif" font-size="14.00">0</text>
</g>
<!-- node_0x606000000920&#45;&gt;node_0x6060000008c0 -->
<g id="edge7" class="edge">
<title>node_0x606000000920&#45;&gt;node_0x6060000008c0</title>
<path fill="none" stroke="#964b00" d="M313.23,-493.47C293.49,-479.1 271.15,-462.84 251.42,-448.48"/>
<polygon fill="#964b00" stroke="#964b00" points="311.09,-496.24 321.23,-499.29 315.21,-490.58 311.09,-496.24"/>
<polygon fill="#964b00" stroke="#964b00" points="253.63,-445.76 243.48,-442.7 249.51,-451.42 253.63,-445.76"/>
</g>
<!-- node_0x606000000980 -->
<g id="node9" class="node">
<title>node_0x606000000980</title>
<path fill="#a7a7f2" stroke="#964b00" d="M294.2,-375.5C294.2,-375.5 439.53,-375.5 439.53,-375.5 445.53,-375.5 451.53,-381.5 451.53,-387.5 451.53,-387.5 451.53,-429.5 451.53,-429.5 451.53,-435.5 445.53,-441.5 439.53,-441.5 439.53,-441.5 294.2,-441.5 294.2,-441.5 288.2,-441.5 282.2,-435.5 282.2,-429.5 282.2,-429.5 282.2,-387.5 282.2,-387.5 282.2,-381.5 288.2,-375.5 294.2,-375.5"/>
<text xml:space="preserve" text-anchor="middle" x="366.86" y="-426.3" font-family="Times,serif" font-size="14.00">type = FUNCTION_CALL</text>
<polyline fill="none" stroke="#964b00" points="282.2,-419.5 451.53,-419.5"/>
<text xml:space="preserve" text-anchor="middle" x="366.39" y="-404.3" font-family="Times,serif" font-size="14.00">val = Che_cazzo_fact</text>
<polyline fill="none" stroke="#964b00" points="282.2,-397.5 451.53,-397.5"/>
<text xml:space="preserve" text-anchor="middle" x="324.2" y="-382.3" font-family="Times,serif" font-size="14.00">0</text>
<polyline fill="none" stroke="#964b00" points="366.2,-375.5 366.2,-397.5"/>
<text xml:space="preserve" text-anchor="middle" x="408.7" y="-382.3" font-family="Times,serif" font-size="14.00">0</text>
</g>
<!-- node_0x606000000920&#45;&gt;node_0x606000000980 -->
<g id="edge8" class="edge">
<title>node_0x606000000920&#45;&gt;node_0x606000000980</title>
<path fill="none" stroke="#964b00" d="M366.86,-488.7C366.86,-477.05 366.86,-464.47 366.86,-452.84"/>
<polygon fill="#964b00" stroke="#964b00" points="363.36,-488.67 366.86,-498.67 370.36,-488.67 363.36,-488.67"/>
<polygon fill="#964b00" stroke="#964b00" points="370.36,-453.11 366.86,-443.11 363.36,-453.11 370.36,-453.11"/>
</g>
<!-- node_0x606000001e20 -->
<g id="node10" class="node">
<title>node_0x606000001e20</title>
<path fill="#00ffff" stroke="#964b00" d="M314.8,-250.5C314.8,-250.5 418.92,-250.5 418.92,-250.5 424.92,-250.5 430.92,-256.5 430.92,-262.5 430.92,-262.5 430.92,-304.5 430.92,-304.5 430.92,-310.5 424.92,-316.5 418.92,-316.5 418.92,-316.5 314.8,-316.5 314.8,-316.5 308.8,-316.5 302.8,-310.5 302.8,-304.5 302.8,-304.5 302.8,-262.5 302.8,-262.5 302.8,-256.5 308.8,-250.5 314.8,-250.5"/>
<text xml:space="preserve" text-anchor="middle" x="366.85" y="-301.3" font-family="Times,serif" font-size="14.00">type = OPERATOR</text>
<polyline fill="none" stroke="#964b00" points="302.8,-294.5 430.92,-294.5"/>
<text xml:space="preserve" text-anchor="middle" x="366.86" y="-279.3" font-family="Times,serif" font-size="14.00">val = 19(OP_COM)</text>
<polyline fill="none" stroke="#964b00" points="302.8,-272.5 430.92,-272.5"/>
<text xml:space="preserve" text-anchor="middle" x="334.58" y="-257.3" font-family="Times,serif" font-size="14.00">L</text>
<polyline fill="none" stroke="#964b00" points="366.35,-250.5 366.35,-272.5"/>
<text xml:space="preserve" text-anchor="middle" x="398.52" y="-257.3" font-family="Times,serif" font-size="14.00">R</text>
</g>
<!-- node_0x606000000980&#45;&gt;node_0x606000001e20 -->
<g id="edge9" class="edge">
<title>node_0x606000000980&#45;&gt;node_0x606000001e20</title>
<path fill="none" stroke="#964b00" d="M366.86,-363.7C366.86,-352.05 366.86,-339.47 366.86,-327.84"/>
<polygon fill="#964b00" stroke="#964b00" points="363.36,-363.67 366.86,-373.67 370.36,-363.67 363.36,-363.67"/>
<polygon fill="#964b00" stroke="#964b00" points="370.36,-328.11 366.86,-318.11 363.36,-328.11 370.36,-328.11"/>
</g>
<!-- node_0x606000000a40 -->
<g id="node11" class="node">
<title>node_0x606000000a40</title>
<path fill="#daa520" stroke="#964b00" d="M317,-125.5C317,-125.5 416.72,-125.5 416.72,-125.5 422.72,-125.5 428.72,-131.5 428.72,-137.5 428.72,-137.5 428.72,-179.5 428.72,-179.5 428.72,-185.5 422.72,-191.5 416.72,-191.5 416.72,-191.5 317,-191.5 317,-191.5 311,-191.5 305,-185.5 305,-179.5 305,-179.5 305,-137.5 305,-137.5 305,-131.5 311,-125.5 317,-125.5"/>
<text xml:space="preserve" text-anchor="middle" x="366.86" y="-176.3" font-family="Times,serif" font-size="14.00">type = VARIABLE</text>
<polyline fill="none" stroke="#964b00" points="305,-169.5 428.72,-169.5"/>
<text xml:space="preserve" text-anchor="middle" x="366.5" y="-154.3" font-family="Times,serif" font-size="14.00">val = n</text>
<polyline fill="none" stroke="#964b00" points="305,-147.5 428.72,-147.5"/>
<text xml:space="preserve" text-anchor="middle" x="335.5" y="-132.3" font-family="Times,serif" font-size="14.00">0</text>
<polyline fill="none" stroke="#964b00" points="366,-125.5 366,-147.5"/>
<text xml:space="preserve" text-anchor="middle" x="397" y="-132.3" font-family="Times,serif" font-size="14.00">0</text>
</g>
<!-- node_0x606000001e20&#45;&gt;node_0x606000000a40 -->
<g id="edge10" class="edge">
<title>node_0x606000001e20&#45;&gt;node_0x606000000a40</title>
<path fill="none" stroke="#964b00" d="M366.86,-238.7C366.86,-227.05 366.86,-214.47 366.86,-202.84"/>
<polygon fill="#964b00" stroke="#964b00" points="363.36,-238.67 366.86,-248.67 370.36,-238.67 363.36,-238.67"/>
<polygon fill="#964b00" stroke="#964b00" points="370.36,-203.11 366.86,-193.11 363.36,-203.11 370.36,-203.11"/>
</g>
<!-- node_0x606000000b60 -->
<g id="node13" class="node">
<title>node_0x606000000b60</title>
<path fill="#00ffff" stroke="#964b00" d="M485.14,-375.5C485.14,-375.5 612.58,-375.5 612.58,-375.5 618.58,-375.5 624.58,-381.5 624.58,-387.5 624.58,-387.5 624.58,-429.5 624.58,-429.5 624.58,-435.5 618.58,-441.5 612.58,-441.5 612.58,-441.5 485.14,-441.5 485.14,-441.5 479.14,-441.5 473.14,-435.5 473.14,-429.5 473.14,-429.5 473.14,-387.5 473.14,-387.5 473.14,-381.5 479.14,-375.5 485.14,-375.5"/>
<text xml:space="preserve" text-anchor="middle" x="548.69" y="-426.3" font-family="Times,serif" font-size="14.00">type = OPERATOR</text>
<polyline fill="none" stroke="#964b00" points="473.14,-419.5 624.58,-419.5"/>
<text xml:space="preserve" text-anchor="middle" x="548.86" y="-404.3" font-family="Times,serif" font-size="14.00">val = 22(OP_OUTPUT)</text>
<polyline fill="none" stroke="#964b00" points="473.14,-397.5 624.58,-397.5"/>
<text xml:space="preserve" text-anchor="middle" x="510.42" y="-382.3" font-family="Times,serif" font-size="14.00">L</text>
<polyline fill="none" stroke="#964b00" points="547.69,-375.5 547.69,-397.5"/>
<text xml:space="preserve" text-anchor="middle" x="585.86" y="-382.3" font-family="Times,serif" font-size="14.00">R</text>
</g>
<!-- node_0x606000000c20&#45;&gt;node_0x606000000b60 -->
<g id="edge12" class="edge">
<title>node_0x606000000c20&#45;&gt;node_0x606000000b60</title>
<path fill="none" stroke="#964b00" d="M548.86,-488.7C548.86,-477.05 548.86,-464.47 548.86,-452.84"/>
<polygon fill="#964b00" stroke="#964b00" points="545.36,-488.67 548.86,-498.67 552.36,-488.67 545.36,-488.67"/>
<polygon fill="#964b00" stroke="#964b00" points="552.36,-453.11 548.86,-443.11 545.36,-453.11 552.36,-453.11"/>
</g>
<!-- node_0x606000000e60 -->
<g id="node15" class="node">
<title>node_0x606000000e60</title>
<path fill="#00ffff" stroke="#964b00" d="M658.31,-375.5C658.31,-375.5 761.41,-375.5 761.41,-375.5 767.41,-375.5 773.41,-381.5 773.41,-387.5 773.41,-387.5 773.41,-429.5 773.41,-429.5 773.41,-435.5 767.41,-441.5 761.41,-441.5 761.41,-441.5 658.31,-441.5 658.31,-441.5 652.31,-441.5 646.31,-435.5 646.31,-429.5 646.31,-429.5 646.31,-387.5 646.31,-387.5 646.31,-381.5 652.31,-375.5 658.31,-375.5"/>
<text xml:space="preserve" text-anchor="middle" x="709.86" y="-426.3" font-family="Times,serif" font-size="14.00">type = OPERATOR</text>
<polyline fill="none" stroke="#964b00" points="646.31,-419.5 773.41,-419.5"/>
<text xml:space="preserve" text-anchor="middle" x="709.45" y="-404.3" font-family="Times,serif" font-size="14.00">val = 11(OP_SP)</text>
<polyline fill="none" stroke="#964b00" points="646.31,-397.5 773.41,-397.5"/>
<text xml:space="preserve" text-anchor="middle" x="677.59" y="-382.3" font-family="Times,serif" font-size="14.00">L</text>
<polyline fill="none" stroke="#964b00" points="708.86,-375.5 708.86,-397.5"/>
<text xml:space="preserve" text-anchor="middle" x="741.03" y="-382.3" font-family="Times,serif" font-size="14.00">R</text>
</g>
<!-- node_0x606000000c20&#45;&gt;node_0x606000000e60 -->
<g id="edge14" class="edge">
<title>node_0x606000000c20&#45;&gt;node_0x606000000e60</title>
<path fill="none" stroke="#964b00" d="M600.24,-493.24C618.9,-478.99 639.98,-462.89 658.62,-448.64"/>
<polygon fill="#964b00" stroke="#964b00" points="598.19,-490.41 592.36,-499.26 602.44,-495.97 598.19,-490.41"/>
<polygon fill="#964b00" stroke="#964b00" points="660.54,-451.59 666.36,-442.73 656.29,-446.02 660.54,-451.59"/>
</g>
<!-- node_0x606000000bc0 -->
<g id="node14" class="node">
<title>node_0x606000000bc0</title>
<path fill="#daa520" stroke="#964b00" d="M499,-250.5C499,-250.5 598.72,-250.5 598.72,-250.5 604.72,-250.5 610.72,-256.5 610.72,-262.5 610.72,-262.5 610.72,-304.5 610.72,-304.5 610.72,-310.5 604.72,-316.5 598.72,-316.5 598.72,-316.5 499,-316.5 499,-316.5 493,-316.5 487,-310.5 487,-304.5 487,-304.5 487,-262.5 487,-262.5 487,-256.5 493,-250.5 499,-250.5"/>
<text xml:space="preserve" text-anchor="middle" x="548.86" y="-301.3" font-family="Times,serif" font-size="14.00">type = VARIABLE</text>
<polyline fill="none" stroke="#964b00" points="487,-294.5 610.72,-294.5"/>
<text xml:space="preserve" text-anchor="middle" x="548.5" y="-279.3" font-family="Times,serif" font-size="14.00">val = k</text>
<polyline fill="none" stroke="#964b00" points="487,-272.5 610.72,-272.5"/>
<text xml:space="preserve" text-anchor="middle" x="517.5" y="-257.3" font-family="Times,serif" font-size="14.00">0</text>
<polyline fill="none" stroke="#964b00" points="548,-250.5 548,-272.5"/>
<text xml:space="preserve" text-anchor="middle" x="579" y="-257.3" font-family="Times,serif" font-size="14.00">0</text>
</g>
<!-- node_0x606000000b60&#45;&gt;node_0x606000000bc0 -->
<g id="edge13" class="edge">
<title>node_0x606000000b60&#45;&gt;node_0x606000000bc0</title>
<path fill="none" stroke="#964b00" d="M548.86,-363.7C548.86,-352.05 548.86,-339.47 548.86,-327.84"/>
<polygon fill="#964b00" stroke="#964b00" points="545.36,-363.67 548.86,-373.67 552.36,-363.67 545.36,-363.67"/>
<polygon fill="#964b00" stroke="#964b00" points="552.36,-328.11 548.86,-318.11 545.36,-328.11 552.36,-328.11"/>
</g>
<!-- node_0x606000000ce0 -->
<g id="node16" class="node">
<title>node_0x606000000ce0</title>
<path fill="#00ffff" stroke="#964b00" d="M658.31,-250.5C658.31,-250.5 761.41,-250.5 761.41,-250.5 767.41,-250.5 773.41,-256.5 773.41,-262.5 773.41,-262.5 773.41,-304.5 773.41,-304.5 773.41,-310.5 767.41,-316.5 761.41,-316.5 761.41,-316.5 658.31,-316.5 658.31,-316.5 652.31,-316.5 646.31,-310.5 646.31,-304.5 646.31,-304.5 646.31,-262.5 646.31,-262.5 646.31,-256.5 652.31,-250.5 658.31,-250.5"/>
<text xml:space="preserve" text-anchor="middle" x="709.86" y="-301.3" font-family="Times,serif" font-size="14.00">type = OPERATOR</text>
<polyline fill="none" stroke="#964b00" points="646.31,-294.5 773.41,-294.5"/>
<text xml:space="preserve" text-anchor="middle" x="709.76" y="-279.3" font-family="Times,serif" font-size="14.00">val = 7(OP_ASS)</text>
<polyline fill="none" stroke="#964b00" points="646.31,-272.5 773.41,-272.5"/>
<text xml:space="preserve" text-anchor="middle" x="677.59" y="-257.3" font-family="Times,serif" font-size="14.00">L</text>
<polyline fill="none" stroke="#964b00" points="708.86,-250.5 708.86,-272.5"/>
<text xml:space="preserve" text-anchor="middle" x="741.03" y="-257.3" font-family="Times,serif" font-size="14.00">R</text>
</g>
<!-- node_0x606000000e60&#45;&gt;node_0x606000000ce0 -->
<g id="edge15" class="edge">
<title>node_0x606000000e60&#45;&gt;node_0x606000000ce0</title>
<path fill="none" stroke="#964b00" d="M709.86,-363.7C709.86,-352.05 709.86,-339.47 709.86,-327.84"/>
<polygon fill="#964b00" stroke="#964b00" points="706.36,-363.67 709.86,-373.67 713.36,-363.67 706.36,-363.67"/>
<polygon fill="#964b00" stroke="#964b00" points="713.36,-328.11 709.86,-318.11 706.36,-328.11 713.36,-328.11"/>
</g>
<!-- node_0x606000000c80 -->
<g id="node17" class="node">
<title>node_0x606000000c80</title>
<path fill="#daa520" stroke="#964b00" d="M586,-125.5C586,-125.5 685.72,-125.5 685.72,-125.5 691.72,-125.5 697.72,-131.5 697.72,-137.5 697.72,-137.5 697.72,-179.5 697.72,-179.5 697.72,-185.5 691.72,-191.5 685.72,-191.5 685.72,-191.5 586,-191.5 586,-191.5 580,-191.5 574,-185.5 574,-179.5 574,-179.5 574,-137.5 574,-137.5 574,-131.5 580,-125.5 586,-125.5"/>
<text xml:space="preserve" text-anchor="middle" x="635.86" y="-176.3" font-family="Times,serif" font-size="14.00">type = VARIABLE</text>
<polyline fill="none" stroke="#964b00" points="574,-169.5 697.72,-169.5"/>
<text xml:space="preserve" text-anchor="middle" x="635.5" y="-154.3" font-family="Times,serif" font-size="14.00">val = n</text>
<polyline fill="none" stroke="#964b00" points="574,-147.5 697.72,-147.5"/>
<text xml:space="preserve" text-anchor="middle" x="604.5" y="-132.3" font-family="Times,serif" font-size="14.00">0</text>
<polyline fill="none" stroke="#964b00" points="635,-125.5 635,-147.5"/>
<text xml:space="preserve" text-anchor="middle" x="666" y="-132.3" font-family="Times,serif" font-size="14.00">0</text>
</g>
<!-- node_0x606000000ce0&#45;&gt;node_0x606000000c80 -->
<g id="edge16" class="edge">
<title>node_0x606000000ce0&#45;&gt;node_0x606000000c80</title>
<path fill="none" stroke="#964b00" d="M684.6,-240.52C677.01,-227.89 668.67,-214.04 661.08,-201.41"/>
<polygon fill="#964b00" stroke="#964b00" points="681.48,-242.12 689.64,-248.89 687.48,-238.51 681.48,-242.12"/>
<polygon fill="#964b00" stroke="#964b00" points="664.11,-199.66 655.95,-192.9 658.11,-203.27 664.11,-199.66"/>
</g>
<!-- node_0x606000000da0 -->
<g id="node18" class="node">
<title>node_0x606000000da0</title>
<path fill="#00ffff" stroke="#964b00" d="M731.31,-125.5C731.31,-125.5 834.41,-125.5 834.41,-125.5 840.41,-125.5 846.41,-131.5 846.41,-137.5 846.41,-137.5 846.41,-179.5 846.41,-179.5 846.41,-185.5 840.41,-191.5 834.41,-191.5 834.41,-191.5 731.31,-191.5 731.31,-191.5 725.31,-191.5 719.31,-185.5 719.31,-179.5 719.31,-179.5 719.31,-137.5 719.31,-137.5 719.31,-131.5 725.31,-125.5 731.31,-125.5"/>
<text xml:space="preserve" text-anchor="middle" x="782.86" y="-176.3" font-family="Times,serif" font-size="14.00">type = OPERATOR</text>
<polyline fill="none" stroke="#964b00" points="719.31,-169.5 846.41,-169.5"/>
<text xml:space="preserve" text-anchor="middle" x="782.59" y="-154.3" font-family="Times,serif" font-size="14.00">val = 1(OP_ADD)</text>
<polyline fill="none" stroke="#964b00" points="719.31,-147.5 846.41,-147.5"/>
<text xml:space="preserve" text-anchor="middle" x="750.59" y="-132.3" font-family="Times,serif" font-size="14.00">L</text>
<polyline fill="none" stroke="#964b00" points="781.86,-125.5 781.86,-147.5"/>
<text xml:space="preserve" text-anchor="middle" x="814.03" y="-132.3" font-family="Times,serif" font-size="14.00">R</text>
</g>
<!-- node_0x606000000ce0&#45;&gt;node_0x606000000da0 -->
<g id="edge17" class="edge">
<title>node_0x606000000ce0&#45;&gt;node_0x606000000da0</title>
<path fill="none" stroke="#964b00" d="M734.78,-240.52C742.27,-227.89 750.49,-214.04 757.98,-201.41"/>
<polygon fill="#964b00" stroke="#964b00" points="731.91,-238.5 729.81,-248.88 737.93,-242.07 731.91,-238.5"/>
<polygon fill="#964b00" stroke="#964b00" points="760.94,-203.29 763.04,-192.9 754.92,-199.72 760.94,-203.29"/>
</g>
<!-- node_0x606000000d40 -->
<g id="node19" class="node">
<title>node_0x606000000d40</title>
<path fill="#daa520" stroke="#964b00" d="M657,-0.5C657,-0.5 756.72,-0.5 756.72,-0.5 762.72,-0.5 768.72,-6.5 768.72,-12.5 768.72,-12.5 768.72,-54.5 768.72,-54.5 768.72,-60.5 762.72,-66.5 756.72,-66.5 756.72,-66.5 657,-66.5 657,-66.5 651,-66.5 645,-60.5 645,-54.5 645,-54.5 645,-12.5 645,-12.5 645,-6.5 651,-0.5 657,-0.5"/>
<text xml:space="preserve" text-anchor="middle" x="706.86" y="-51.3" font-family="Times,serif" font-size="14.00">type = VARIABLE</text>
<polyline fill="none" stroke="#964b00" points="645,-44.5 768.72,-44.5"/>
<text xml:space="preserve" text-anchor="middle" x="706.5" y="-29.3" font-family="Times,serif" font-size="14.00">val = n</text>
<polyline fill="none" stroke="#964b00" points="645,-22.5 768.72,-22.5"/>
<text xml:space="preserve" text-anchor="middle" x="675.5" y="-7.3" font-family="Times,serif" font-size="14.00">0</text>
<polyline fill="none" stroke="#964b00" points="706,-0.5 706,-22.5"/>
<text xml:space="preserve" text-anchor="middle" x="737" y="-7.3" font-family="Times,serif" font-size="14.00">0</text>
</g>
<!-- node_0x606000000da0&#45;&gt;node_0x606000000d40 -->
<g id="edge18" class="edge">
<title>node_0x606000000da0&#45;&gt;node_0x606000000d40</title>
<path fill="none" stroke="#964b00" d="M756.92,-115.52C749.04,-102.76 740.39,-88.76 732.53,-76.04"/>
<polygon fill="#964b00" stroke="#964b00" points="753.86,-117.23 762.1,-123.9 759.82,-113.55 753.86,-117.23"/>
<polygon fill="#964b00" stroke="#964b00" points="735.72,-74.56 727.49,-67.89 729.77,-78.24 735.72,-74.56"/>
</g>
<!-- node_0x606000000e00 -->
<g id="node20" class="node">
<title>node_0x606000000e00</title>
<path fill="#98fb98" stroke="#964b00" d="M803.04,-0.5C803.04,-0.5 914.69,-0.5 914.69,-0.5 920.69,-0.5 926.69,-6.5 926.69,-12.5 926.69,-12.5 926.69,-54.5 926.69,-54.5 926.69,-60.5 920.69,-66.5 914.69,-66.5 914.69,-66.5 803.04,-66.5 803.04,-66.5 797.04,-66.5 791.04,-60.5 791.04,-54.5 791.04,-54.5 791.04,-12.5 791.04,-12.5 791.04,-6.5 797.04,-0.5 803.04,-0.5"/>
<text xml:space="preserve" text-anchor="middle" x="858.86" y="-51.3" font-family="Times,serif" font-size="14.00">type = CONST_VAR</text>
<polyline fill="none" stroke="#964b00" points="791.04,-44.5 926.69,-44.5"/>
<text xml:space="preserve" text-anchor="middle" x="858.54" y="-29.3" font-family="Times,serif" font-size="14.00">val = 1</text>
<polyline fill="none" stroke="#964b00" points="791.04,-22.5 926.69,-22.5"/>
<text xml:space="preserve" text-anchor="middle" x="824.54" y="-7.3" font-family="Times,serif" font-size="14.00">0</text>
<polyline fill="none" stroke="#964b00" points="858.04,-0.5 858.04,-22.5"/>
<text xml:space="preserve" text-anchor="middle" x="892.04" y="-7.3" font-family="Times,serif" font-size="14.00">0</text>
</g>
<!-- node_0x606000000da0&#45;&gt;node_0x606000000e00 -->
<g id="edge19" class="edge">
<title>node_0x606000000da0&#45;&gt;node_0x606000000e00</title>
<path fill="none" stroke="#964b00" d="M808.8,-115.52C816.68,-102.76 825.33,-88.76 833.19,-76.04"/>
<polygon fill="#964b00" stroke="#964b00" points="805.9,-113.55 803.62,-123.9 811.86,-117.23 805.9,-113.55"/>
<polygon fill="#964b00" stroke="#964b00" points="835.95,-78.24 838.23,-67.89 830,-74.56 835.95,-78.24"/>
</g>
</g>
</svg>
