<?xml version="1.0" encoding="UTF-8" standalone="no"?>
<!DOCTYPE svg PUBLIC "-//W3C//DTD SVG 1.1//EN"
 "http://www.w3.org/Graphics/SVG/1.1/DTD/svg11.dtd">
<!-- Generated by graphviz version 14.0.2 (20251019.1705)
 -->
<!-- Title: G Pages: 1 -->
<svg width="866pt" height="1200pt"
 viewBox="0.00 0.00 866.00 1200.00" xmlns="http://www.w3.org/2000/svg" xmlns:xlink="http://www.w3.org/1999/xlink">
<g id="graph0" class="graph" transform="scale(1 1) rotate(0) translate(4 1196)">
<title>G</title>
<polygon fill="#fffafa" stroke="none" points="-4,4 -4,-1196 862.26,-1196 862.26,4 -4,4"/>
<!-- node_0x606000008f00 -->
<g id="node1" class="node">
<title>node_0x606000008f00</title>
<path fill="#00ffff" stroke="#964b00" d="M286.67,-1125.5C286.67,-1125.5 389.77,-1125.5 389.77,-1125.5 395.77,-1125.5 401.77,-1131.5 401.77,-1137.5 401.77,-1137.5 401.77,-1179.5 401.77,-1179.5 401.77,-1185.5 395.77,-1191.5 389.77,-1191.5 389.77,-1191.5 286.67,-1191.5 286.67,-1191.5 280.67,-1191.5 274.67,-1185.5 274.67,-1179.5 274.67,-1179.5 274.67,-1137.5 274.67,-1137.5 274.67,-1131.5 280.67,-1125.5 286.67,-1125.5"/>
<text xml:space="preserve" text-anchor="middle" x="338.22" y="-1176.3" font-family="Times,serif" font-size="14.00">type = OPERATOR</text>
<polyline fill="none" stroke="#964b00" points="274.67,-1169.5 401.77,-1169.5"/>
<text xml:space="preserve" text-anchor="middle" x="338.01" y="-1154.3" font-family="Times,serif" font-size="14.00">val = 18(OP_CFB)</text>
<polyline fill="none" stroke="#964b00" points="274.67,-1147.5 401.77,-1147.5"/>
<text xml:space="preserve" text-anchor="middle" x="305.94" y="-1132.3" font-family="Times,serif" font-size="14.00">L</text>
<polyline fill="none" stroke="#964b00" points="337.22,-1125.5 337.22,-1147.5"/>
<text xml:space="preserve" text-anchor="middle" x="369.39" y="-1132.3" font-family="Times,serif" font-size="14.00">R</text>
</g>
<!-- node_0x6060000029c0 -->
<g id="node2" class="node">
<title>node_0x6060000029c0</title>
<path fill="#00ffff" stroke="#964b00" d="M286.67,-1000.5C286.67,-1000.5 389.77,-1000.5 389.77,-1000.5 395.77,-1000.5 401.77,-1006.5 401.77,-1012.5 401.77,-1012.5 401.77,-1054.5 401.77,-1054.5 401.77,-1060.5 395.77,-1066.5 389.77,-1066.5 389.77,-1066.5 286.67,-1066.5 286.67,-1066.5 280.67,-1066.5 274.67,-1060.5 274.67,-1054.5 274.67,-1054.5 274.67,-1012.5 274.67,-1012.5 274.67,-1006.5 280.67,-1000.5 286.67,-1000.5"/>
<text xml:space="preserve" text-anchor="middle" x="338.22" y="-1051.3" font-family="Times,serif" font-size="14.00">type = OPERATOR</text>
<polyline fill="none" stroke="#964b00" points="274.67,-1044.5 401.77,-1044.5"/>
<text xml:space="preserve" text-anchor="middle" x="338" y="-1029.3" font-family="Times,serif" font-size="14.00">val = 12(OP_IF)</text>
<polyline fill="none" stroke="#964b00" points="274.67,-1022.5 401.77,-1022.5"/>
<text xml:space="preserve" text-anchor="middle" x="305.94" y="-1007.3" font-family="Times,serif" font-size="14.00">L</text>
<polyline fill="none" stroke="#964b00" points="337.22,-1000.5 337.22,-1022.5"/>
<text xml:space="preserve" text-anchor="middle" x="369.39" y="-1007.3" font-family="Times,serif" font-size="14.00">R</text>
</g>
<!-- node_0x606000008f00&#45;&gt;node_0x6060000029c0 -->
<g id="edge1" class="edge">
<title>node_0x606000008f00&#45;&gt;node_0x6060000029c0</title>
<path fill="none" stroke="#964b00" d="M338.22,-1113.7C338.22,-1102.05 338.22,-1089.47 338.22,-1077.84"/>
<polygon fill="#964b00" stroke="#964b00" points="334.72,-1113.67 338.22,-1123.67 341.72,-1113.67 334.72,-1113.67"/>
<polygon fill="#964b00" stroke="#964b00" points="341.72,-1078.11 338.22,-1068.11 334.72,-1078.11 341.72,-1078.11"/>
</g>
<!-- node_0x606000002ae0 -->
<g id="node3" class="node">
<title>node_0x606000002ae0</title>
<path fill="#00ffff" stroke="#964b00" d="M210.67,-875.5C210.67,-875.5 313.77,-875.5 313.77,-875.5 319.77,-875.5 325.77,-881.5 325.77,-887.5 325.77,-887.5 325.77,-929.5 325.77,-929.5 325.77,-935.5 319.77,-941.5 313.77,-941.5 313.77,-941.5 210.67,-941.5 210.67,-941.5 204.67,-941.5 198.67,-935.5 198.67,-929.5 198.67,-929.5 198.67,-887.5 198.67,-887.5 198.67,-881.5 204.67,-875.5 210.67,-875.5"/>
<text xml:space="preserve" text-anchor="middle" x="262.22" y="-926.3" font-family="Times,serif" font-size="14.00">type = OPERATOR</text>
<polyline fill="none" stroke="#964b00" points="198.67,-919.5 325.77,-919.5"/>
<text xml:space="preserve" text-anchor="middle" x="262.11" y="-904.3" font-family="Times,serif" font-size="14.00">val = 8(OP_EQ)</text>
<polyline fill="none" stroke="#964b00" points="198.67,-897.5 325.77,-897.5"/>
<text xml:space="preserve" text-anchor="middle" x="229.94" y="-882.3" font-family="Times,serif" font-size="14.00">L</text>
<polyline fill="none" stroke="#964b00" points="261.22,-875.5 261.22,-897.5"/>
<text xml:space="preserve" text-anchor="middle" x="293.39" y="-882.3" font-family="Times,serif" font-size="14.00">R</text>
</g>
<!-- node_0x6060000029c0&#45;&gt;node_0x606000002ae0 -->
<g id="edge2" class="edge">
<title>node_0x6060000029c0&#45;&gt;node_0x606000002ae0</title>
<path fill="none" stroke="#964b00" d="M312.28,-990.52C304.4,-977.76 295.75,-963.76 287.88,-951.04"/>
<polygon fill="#964b00" stroke="#964b00" points="309.22,-992.23 317.45,-998.9 315.17,-988.55 309.22,-992.23"/>
<polygon fill="#964b00" stroke="#964b00" points="291.08,-949.56 282.85,-942.89 285.13,-953.24 291.08,-949.56"/>
</g>
<!-- node_0x6060000030e0 -->
<g id="node6" class="node">
<title>node_0x6060000030e0</title>
<path fill="#00ffff" stroke="#964b00" d="M363.67,-875.5C363.67,-875.5 466.77,-875.5 466.77,-875.5 472.77,-875.5 478.77,-881.5 478.77,-887.5 478.77,-887.5 478.77,-929.5 478.77,-929.5 478.77,-935.5 472.77,-941.5 466.77,-941.5 466.77,-941.5 363.67,-941.5 363.67,-941.5 357.67,-941.5 351.67,-935.5 351.67,-929.5 351.67,-929.5 351.67,-887.5 351.67,-887.5 351.67,-881.5 357.67,-875.5 363.67,-875.5"/>
<text xml:space="preserve" text-anchor="middle" x="415.22" y="-926.3" font-family="Times,serif" font-size="14.00">type = OPERATOR</text>
<polyline fill="none" stroke="#964b00" points="351.67,-919.5 478.77,-919.5"/>
<text xml:space="preserve" text-anchor="middle" x="414.81" y="-904.3" font-family="Times,serif" font-size="14.00">val = 11(OP_SP)</text>
<polyline fill="none" stroke="#964b00" points="351.67,-897.5 478.77,-897.5"/>
<text xml:space="preserve" text-anchor="middle" x="382.94" y="-882.3" font-family="Times,serif" font-size="14.00">L</text>
<polyline fill="none" stroke="#964b00" points="414.22,-875.5 414.22,-897.5"/>
<text xml:space="preserve" text-anchor="middle" x="446.39" y="-882.3" font-family="Times,serif" font-size="14.00">R</text>
</g>
<!-- node_0x6060000029c0&#45;&gt;node_0x6060000030e0 -->
<g id="edge5" class="edge">
<title>node_0x6060000029c0&#45;&gt;node_0x6060000030e0</title>
<path fill="none" stroke="#964b00" d="M364.5,-990.52C372.48,-977.76 381.25,-963.76 389.21,-951.04"/>
<polygon fill="#964b00" stroke="#964b00" points="361.59,-988.57 359.25,-998.9 367.52,-992.28 361.59,-988.57"/>
<polygon fill="#964b00" stroke="#964b00" points="391.98,-953.22 394.32,-942.88 386.05,-949.5 391.98,-953.22"/>
</g>
<!-- node_0x606000002a80 -->
<g id="node4" class="node">
<title>node_0x606000002a80</title>
<path fill="#daa520" stroke="#964b00" d="M12,-750.5C12,-750.5 160.43,-750.5 160.43,-750.5 166.43,-750.5 172.43,-756.5 172.43,-762.5 172.43,-762.5 172.43,-804.5 172.43,-804.5 172.43,-810.5 166.43,-816.5 160.43,-816.5 160.43,-816.5 12,-816.5 12,-816.5 6,-816.5 0,-810.5 0,-804.5 0,-804.5 0,-762.5 0,-762.5 0,-756.5 6,-750.5 12,-750.5"/>
<text xml:space="preserve" text-anchor="middle" x="85.86" y="-801.3" font-family="Times,serif" font-size="14.00">type = VARIABLE</text>
<polyline fill="none" stroke="#964b00" points="0,-794.5 172.43,-794.5"/>
<text xml:space="preserve" text-anchor="middle" x="86.22" y="-779.3" font-family="Times,serif" font-size="14.00">val = quantaty_of_solutions</text>
<polyline fill="none" stroke="#964b00" points="0,-772.5 172.43,-772.5"/>
<text xml:space="preserve" text-anchor="middle" x="43" y="-757.3" font-family="Times,serif" font-size="14.00">0</text>
<polyline fill="none" stroke="#964b00" points="86,-750.5 86,-772.5"/>
<text xml:space="preserve" text-anchor="middle" x="129" y="-757.3" font-family="Times,serif" font-size="14.00">0</text>
</g>
<!-- node_0x606000002ae0&#45;&gt;node_0x606000002a80 -->
<g id="edge3" class="edge">
<title>node_0x606000002ae0&#45;&gt;node_0x606000002a80</title>
<path fill="none" stroke="#964b00" d="M206.68,-868.69C185.97,-854.21 162.47,-837.79 141.75,-823.31"/>
<polygon fill="#964b00" stroke="#964b00" points="204.53,-871.46 214.73,-874.32 208.54,-865.72 204.53,-871.46"/>
<polygon fill="#964b00" stroke="#964b00" points="143.9,-820.54 133.7,-817.68 139.89,-826.28 143.9,-820.54"/>
</g>
<!-- node_0x606000002b40 -->
<g id="node5" class="node">
<title>node_0x606000002b40</title>
<path fill="#98fb98" stroke="#964b00" d="M206.39,-750.5C206.39,-750.5 318.04,-750.5 318.04,-750.5 324.04,-750.5 330.04,-756.5 330.04,-762.5 330.04,-762.5 330.04,-804.5 330.04,-804.5 330.04,-810.5 324.04,-816.5 318.04,-816.5 318.04,-816.5 206.39,-816.5 206.39,-816.5 200.39,-816.5 194.39,-810.5 194.39,-804.5 194.39,-804.5 194.39,-762.5 194.39,-762.5 194.39,-756.5 200.39,-750.5 206.39,-750.5"/>
<text xml:space="preserve" text-anchor="middle" x="262.22" y="-801.3" font-family="Times,serif" font-size="14.00">type = CONST_VAR</text>
<polyline fill="none" stroke="#964b00" points="194.39,-794.5 330.04,-794.5"/>
<text xml:space="preserve" text-anchor="middle" x="261.89" y="-779.3" font-family="Times,serif" font-size="14.00">val = 1</text>
<polyline fill="none" stroke="#964b00" points="194.39,-772.5 330.04,-772.5"/>
<text xml:space="preserve" text-anchor="middle" x="227.89" y="-757.3" font-family="Times,serif" font-size="14.00">0</text>
<polyline fill="none" stroke="#964b00" points="261.39,-750.5 261.39,-772.5"/>
<text xml:space="preserve" text-anchor="middle" x="295.39" y="-757.3" font-family="Times,serif" font-size="14.00">0</text>
</g>
<!-- node_0x606000002ae0&#45;&gt;node_0x606000002b40 -->
<g id="edge4" class="edge">
<title>node_0x606000002ae0&#45;&gt;node_0x606000002b40</title>
<path fill="none" stroke="#964b00" d="M262.22,-863.7C262.22,-852.05 262.22,-839.47 262.22,-827.84"/>
<polygon fill="#964b00" stroke="#964b00" points="258.72,-863.67 262.22,-873.67 265.72,-863.67 258.72,-863.67"/>
<polygon fill="#964b00" stroke="#964b00" points="265.72,-828.11 262.22,-818.11 258.72,-828.11 265.72,-828.11"/>
</g>
<!-- node_0x606000002cc0 -->
<g id="node7" class="node">
<title>node_0x606000002cc0</title>
<path fill="#00ffff" stroke="#964b00" d="M363.67,-750.5C363.67,-750.5 466.77,-750.5 466.77,-750.5 472.77,-750.5 478.77,-756.5 478.77,-762.5 478.77,-762.5 478.77,-804.5 478.77,-804.5 478.77,-810.5 472.77,-816.5 466.77,-816.5 466.77,-816.5 363.67,-816.5 363.67,-816.5 357.67,-816.5 351.67,-810.5 351.67,-804.5 351.67,-804.5 351.67,-762.5 351.67,-762.5 351.67,-756.5 357.67,-750.5 363.67,-750.5"/>
<text xml:space="preserve" text-anchor="middle" x="415.22" y="-801.3" font-family="Times,serif" font-size="14.00">type = OPERATOR</text>
<polyline fill="none" stroke="#964b00" points="351.67,-794.5 478.77,-794.5"/>
<text xml:space="preserve" text-anchor="middle" x="414.77" y="-779.3" font-family="Times,serif" font-size="14.00">val = 6(OP_INIT)</text>
<polyline fill="none" stroke="#964b00" points="351.67,-772.5 478.77,-772.5"/>
<text xml:space="preserve" text-anchor="middle" x="382.94" y="-757.3" font-family="Times,serif" font-size="14.00">L</text>
<polyline fill="none" stroke="#964b00" points="414.22,-750.5 414.22,-772.5"/>
<text xml:space="preserve" text-anchor="middle" x="446.39" y="-757.3" font-family="Times,serif" font-size="14.00">R</text>
</g>
<!-- node_0x6060000030e0&#45;&gt;node_0x606000002cc0 -->
<g id="edge6" class="edge">
<title>node_0x6060000030e0&#45;&gt;node_0x606000002cc0</title>
<path fill="none" stroke="#964b00" d="M415.22,-863.7C415.22,-852.05 415.22,-839.47 415.22,-827.84"/>
<polygon fill="#964b00" stroke="#964b00" points="411.72,-863.67 415.22,-873.67 418.72,-863.67 411.72,-863.67"/>
<polygon fill="#964b00" stroke="#964b00" points="418.72,-828.11 415.22,-818.11 411.72,-828.11 418.72,-828.11"/>
</g>
<!-- node_0x606000003200 -->
<g id="node18" class="node">
<title>node_0x606000003200</title>
<path fill="#00ffff" stroke="#964b00" d="M580.67,-750.5C580.67,-750.5 683.77,-750.5 683.77,-750.5 689.77,-750.5 695.77,-756.5 695.77,-762.5 695.77,-762.5 695.77,-804.5 695.77,-804.5 695.77,-810.5 689.77,-816.5 683.77,-816.5 683.77,-816.5 580.67,-816.5 580.67,-816.5 574.67,-816.5 568.67,-810.5 568.67,-804.5 568.67,-804.5 568.67,-762.5 568.67,-762.5 568.67,-756.5 574.67,-750.5 580.67,-750.5"/>
<text xml:space="preserve" text-anchor="middle" x="632.22" y="-801.3" font-family="Times,serif" font-size="14.00">type = OPERATOR</text>
<polyline fill="none" stroke="#964b00" points="568.67,-794.5 695.77,-794.5"/>
<text xml:space="preserve" text-anchor="middle" x="631.81" y="-779.3" font-family="Times,serif" font-size="14.00">val = 11(OP_SP)</text>
<polyline fill="none" stroke="#964b00" points="568.67,-772.5 695.77,-772.5"/>
<text xml:space="preserve" text-anchor="middle" x="599.94" y="-757.3" font-family="Times,serif" font-size="14.00">L</text>
<polyline fill="none" stroke="#964b00" points="631.22,-750.5 631.22,-772.5"/>
<text xml:space="preserve" text-anchor="middle" x="663.39" y="-757.3" font-family="Times,serif" font-size="14.00">R</text>
</g>
<!-- node_0x6060000030e0&#45;&gt;node_0x606000003200 -->
<g id="edge17" class="edge">
<title>node_0x6060000030e0&#45;&gt;node_0x606000003200</title>
<path fill="none" stroke="#964b00" d="M482.37,-869.43C508.68,-854.52 538.8,-837.45 565.1,-822.55"/>
<polygon fill="#964b00" stroke="#964b00" points="480.81,-866.3 473.83,-874.28 484.26,-872.39 480.81,-866.3"/>
<polygon fill="#964b00" stroke="#964b00" points="566.68,-825.67 573.66,-817.69 563.23,-819.58 566.68,-825.67"/>
</g>
<!-- node_0x606000002c60 -->
<g id="node8" class="node">
<title>node_0x606000002c60</title>
<path fill="#daa520" stroke="#964b00" d="M162.36,-625.5C162.36,-625.5 262.08,-625.5 262.08,-625.5 268.08,-625.5 274.08,-631.5 274.08,-637.5 274.08,-637.5 274.08,-679.5 274.08,-679.5 274.08,-685.5 268.08,-691.5 262.08,-691.5 262.08,-691.5 162.36,-691.5 162.36,-691.5 156.36,-691.5 150.36,-685.5 150.36,-679.5 150.36,-679.5 150.36,-637.5 150.36,-637.5 150.36,-631.5 156.36,-625.5 162.36,-625.5"/>
<text xml:space="preserve" text-anchor="middle" x="212.22" y="-676.3" font-family="Times,serif" font-size="14.00">type = VARIABLE</text>
<polyline fill="none" stroke="#964b00" points="150.36,-669.5 274.08,-669.5"/>
<text xml:space="preserve" text-anchor="middle" x="211.86" y="-654.3" font-family="Times,serif" font-size="14.00">val = x1</text>
<polyline fill="none" stroke="#964b00" points="150.36,-647.5 274.08,-647.5"/>
<text xml:space="preserve" text-anchor="middle" x="180.86" y="-632.3" font-family="Times,serif" font-size="14.00">0</text>
<polyline fill="none" stroke="#964b00" points="211.36,-625.5 211.36,-647.5"/>
<text xml:space="preserve" text-anchor="middle" x="242.36" y="-632.3" font-family="Times,serif" font-size="14.00">0</text>
</g>
<!-- node_0x606000002cc0&#45;&gt;node_0x606000002c60 -->
<g id="edge7" class="edge">
<title>node_0x606000002cc0&#45;&gt;node_0x606000002c60</title>
<path fill="none" stroke="#964b00" d="M352.03,-744.21C327.6,-729.41 299.71,-712.51 275.29,-697.72"/>
<polygon fill="#964b00" stroke="#964b00" points="349.95,-747.05 360.32,-749.24 353.58,-741.06 349.95,-747.05"/>
<polygon fill="#964b00" stroke="#964b00" points="277.43,-694.92 267.06,-692.73 273.8,-700.91 277.43,-694.92"/>
</g>
<!-- node_0x606000002d20 -->
<g id="node9" class="node">
<title>node_0x606000002d20</title>
<path fill="#a7a7f2" stroke="#964b00" d="M307.96,-625.5C307.96,-625.5 522.48,-625.5 522.48,-625.5 528.48,-625.5 534.48,-631.5 534.48,-637.5 534.48,-637.5 534.48,-679.5 534.48,-679.5 534.48,-685.5 528.48,-691.5 522.48,-691.5 522.48,-691.5 307.96,-691.5 307.96,-691.5 301.96,-691.5 295.96,-685.5 295.96,-679.5 295.96,-679.5 295.96,-637.5 295.96,-637.5 295.96,-631.5 301.96,-625.5 307.96,-625.5"/>
<text xml:space="preserve" text-anchor="middle" x="415.12" y="-676.3" font-family="Times,serif" font-size="14.00">type = FUNCTION_CALL</text>
<polyline fill="none" stroke="#964b00" points="295.96,-669.5 534.48,-669.5"/>
<text xml:space="preserve" text-anchor="middle" x="415.22" y="-654.3" font-family="Times,serif" font-size="14.00">val = Che_cazzo_find_smaller_solution</text>
<polyline fill="none" stroke="#964b00" points="295.96,-647.5 534.48,-647.5"/>
<text xml:space="preserve" text-anchor="middle" x="355.46" y="-632.3" font-family="Times,serif" font-size="14.00">0</text>
<polyline fill="none" stroke="#964b00" points="414.96,-625.5 414.96,-647.5"/>
<text xml:space="preserve" text-anchor="middle" x="474.46" y="-632.3" font-family="Times,serif" font-size="14.00">0</text>
</g>
<!-- node_0x606000002cc0&#45;&gt;node_0x606000002d20 -->
<g id="edge8" class="edge">
<title>node_0x606000002cc0&#45;&gt;node_0x606000002d20</title>
<path fill="none" stroke="#964b00" d="M415.22,-738.7C415.22,-727.05 415.22,-714.47 415.22,-702.84"/>
<polygon fill="#964b00" stroke="#964b00" points="411.72,-738.67 415.22,-748.67 418.72,-738.67 411.72,-738.67"/>
<polygon fill="#964b00" stroke="#964b00" points="418.72,-703.11 415.22,-693.11 411.72,-703.11 418.72,-703.11"/>
</g>
<!-- node_0x606000002e40 -->
<g id="node10" class="node">
<title>node_0x606000002e40</title>
<path fill="#00ffff" stroke="#964b00" d="M363.16,-500.5C363.16,-500.5 467.27,-500.5 467.27,-500.5 473.27,-500.5 479.27,-506.5 479.27,-512.5 479.27,-512.5 479.27,-554.5 479.27,-554.5 479.27,-560.5 473.27,-566.5 467.27,-566.5 467.27,-566.5 363.16,-566.5 363.16,-566.5 357.16,-566.5 351.16,-560.5 351.16,-554.5 351.16,-554.5 351.16,-512.5 351.16,-512.5 351.16,-506.5 357.16,-500.5 363.16,-500.5"/>
<text xml:space="preserve" text-anchor="middle" x="415.21" y="-551.3" font-family="Times,serif" font-size="14.00">type = OPERATOR</text>
<polyline fill="none" stroke="#964b00" points="351.16,-544.5 479.27,-544.5"/>
<text xml:space="preserve" text-anchor="middle" x="415.22" y="-529.3" font-family="Times,serif" font-size="14.00">val = 19(OP_COM)</text>
<polyline fill="none" stroke="#964b00" points="351.16,-522.5 479.27,-522.5"/>
<text xml:space="preserve" text-anchor="middle" x="382.93" y="-507.3" font-family="Times,serif" font-size="14.00">L</text>
<polyline fill="none" stroke="#964b00" points="414.71,-500.5 414.71,-522.5"/>
<text xml:space="preserve" text-anchor="middle" x="446.88" y="-507.3" font-family="Times,serif" font-size="14.00">R</text>
</g>
<!-- node_0x606000002d20&#45;&gt;node_0x606000002e40 -->
<g id="edge9" class="edge">
<title>node_0x606000002d20&#45;&gt;node_0x606000002e40</title>
<path fill="none" stroke="#964b00" d="M415.22,-613.7C415.22,-602.05 415.22,-589.47 415.22,-577.84"/>
<polygon fill="#964b00" stroke="#964b00" points="411.72,-613.67 415.22,-623.67 418.72,-613.67 411.72,-613.67"/>
<polygon fill="#964b00" stroke="#964b00" points="418.72,-578.11 415.22,-568.11 411.72,-578.11 418.72,-578.11"/>
</g>
<!-- node_0x606000002de0 -->
<g id="node11" class="node">
<title>node_0x606000002de0</title>
<path fill="#daa520" stroke="#964b00" d="M291.36,-375.5C291.36,-375.5 391.08,-375.5 391.08,-375.5 397.08,-375.5 403.08,-381.5 403.08,-387.5 403.08,-387.5 403.08,-429.5 403.08,-429.5 403.08,-435.5 397.08,-441.5 391.08,-441.5 391.08,-441.5 291.36,-441.5 291.36,-441.5 285.36,-441.5 279.36,-435.5 279.36,-429.5 279.36,-429.5 279.36,-387.5 279.36,-387.5 279.36,-381.5 285.36,-375.5 291.36,-375.5"/>
<text xml:space="preserve" text-anchor="middle" x="341.22" y="-426.3" font-family="Times,serif" font-size="14.00">type = VARIABLE</text>
<polyline fill="none" stroke="#964b00" points="279.36,-419.5 403.08,-419.5"/>
<text xml:space="preserve" text-anchor="middle" x="340.95" y="-404.3" font-family="Times,serif" font-size="14.00">val = param_a</text>
<polyline fill="none" stroke="#964b00" points="279.36,-397.5 403.08,-397.5"/>
<text xml:space="preserve" text-anchor="middle" x="309.86" y="-382.3" font-family="Times,serif" font-size="14.00">0</text>
<polyline fill="none" stroke="#964b00" points="340.36,-375.5 340.36,-397.5"/>
<text xml:space="preserve" text-anchor="middle" x="371.36" y="-382.3" font-family="Times,serif" font-size="14.00">0</text>
</g>
<!-- node_0x606000002e40&#45;&gt;node_0x606000002de0 -->
<g id="edge10" class="edge">
<title>node_0x606000002e40&#45;&gt;node_0x606000002de0</title>
<path fill="none" stroke="#964b00" d="M389.96,-490.52C382.36,-477.89 374.03,-464.04 366.43,-451.41"/>
<polygon fill="#964b00" stroke="#964b00" points="386.84,-492.12 394.99,-498.89 392.84,-488.51 386.84,-492.12"/>
<polygon fill="#964b00" stroke="#964b00" points="369.46,-449.66 361.31,-442.9 363.47,-453.27 369.46,-449.66"/>
</g>
<!-- node_0x606000002f00 -->
<g id="node12" class="node">
<title>node_0x606000002f00</title>
<path fill="#00ffff" stroke="#964b00" d="M437.16,-375.5C437.16,-375.5 541.27,-375.5 541.27,-375.5 547.27,-375.5 553.27,-381.5 553.27,-387.5 553.27,-387.5 553.27,-429.5 553.27,-429.5 553.27,-435.5 547.27,-441.5 541.27,-441.5 541.27,-441.5 437.16,-441.5 437.16,-441.5 431.16,-441.5 425.16,-435.5 425.16,-429.5 425.16,-429.5 425.16,-387.5 425.16,-387.5 425.16,-381.5 431.16,-375.5 437.16,-375.5"/>
<text xml:space="preserve" text-anchor="middle" x="489.21" y="-426.3" font-family="Times,serif" font-size="14.00">type = OPERATOR</text>
<polyline fill="none" stroke="#964b00" points="425.16,-419.5 553.27,-419.5"/>
<text xml:space="preserve" text-anchor="middle" x="489.22" y="-404.3" font-family="Times,serif" font-size="14.00">val = 19(OP_COM)</text>
<polyline fill="none" stroke="#964b00" points="425.16,-397.5 553.27,-397.5"/>
<text xml:space="preserve" text-anchor="middle" x="456.93" y="-382.3" font-family="Times,serif" font-size="14.00">L</text>
<polyline fill="none" stroke="#964b00" points="488.71,-375.5 488.71,-397.5"/>
<text xml:space="preserve" text-anchor="middle" x="520.88" y="-382.3" font-family="Times,serif" font-size="14.00">R</text>
</g>
<!-- node_0x606000002e40&#45;&gt;node_0x606000002f00 -->
<g id="edge11" class="edge">
<title>node_0x606000002e40&#45;&gt;node_0x606000002f00</title>
<path fill="none" stroke="#964b00" d="M440.47,-490.52C448.07,-477.89 456.41,-464.04 464,-451.41"/>
<polygon fill="#964b00" stroke="#964b00" points="437.6,-488.51 435.44,-498.89 443.59,-492.12 437.6,-488.51"/>
<polygon fill="#964b00" stroke="#964b00" points="466.97,-453.27 469.12,-442.9 460.97,-449.66 466.97,-453.27"/>
</g>
<!-- node_0x606000002ea0 -->
<g id="node13" class="node">
<title>node_0x606000002ea0</title>
<path fill="#daa520" stroke="#964b00" d="M365.36,-250.5C365.36,-250.5 465.08,-250.5 465.08,-250.5 471.08,-250.5 477.08,-256.5 477.08,-262.5 477.08,-262.5 477.08,-304.5 477.08,-304.5 477.08,-310.5 471.08,-316.5 465.08,-316.5 465.08,-316.5 365.36,-316.5 365.36,-316.5 359.36,-316.5 353.36,-310.5 353.36,-304.5 353.36,-304.5 353.36,-262.5 353.36,-262.5 353.36,-256.5 359.36,-250.5 365.36,-250.5"/>
<text xml:space="preserve" text-anchor="middle" x="415.22" y="-301.3" font-family="Times,serif" font-size="14.00">type = VARIABLE</text>
<polyline fill="none" stroke="#964b00" points="353.36,-294.5 477.08,-294.5"/>
<text xml:space="preserve" text-anchor="middle" x="414.85" y="-279.3" font-family="Times,serif" font-size="14.00">val = param_b</text>
<polyline fill="none" stroke="#964b00" points="353.36,-272.5 477.08,-272.5"/>
<text xml:space="preserve" text-anchor="middle" x="383.86" y="-257.3" font-family="Times,serif" font-size="14.00">0</text>
<polyline fill="none" stroke="#964b00" points="414.36,-250.5 414.36,-272.5"/>
<text xml:space="preserve" text-anchor="middle" x="445.36" y="-257.3" font-family="Times,serif" font-size="14.00">0</text>
</g>
<!-- node_0x606000002f00&#45;&gt;node_0x606000002ea0 -->
<g id="edge12" class="edge">
<title>node_0x606000002f00&#45;&gt;node_0x606000002ea0</title>
<path fill="none" stroke="#964b00" d="M463.96,-365.52C456.36,-352.89 448.03,-339.04 440.43,-326.41"/>
<polygon fill="#964b00" stroke="#964b00" points="460.84,-367.12 468.99,-373.89 466.84,-363.51 460.84,-367.12"/>
<polygon fill="#964b00" stroke="#964b00" points="443.46,-324.66 435.31,-317.9 437.47,-328.27 443.46,-324.66"/>
</g>
<!-- node_0x606000002fc0 -->
<g id="node14" class="node">
<title>node_0x606000002fc0</title>
<path fill="#00ffff" stroke="#964b00" d="M511.16,-250.5C511.16,-250.5 615.27,-250.5 615.27,-250.5 621.27,-250.5 627.27,-256.5 627.27,-262.5 627.27,-262.5 627.27,-304.5 627.27,-304.5 627.27,-310.5 621.27,-316.5 615.27,-316.5 615.27,-316.5 511.16,-316.5 511.16,-316.5 505.16,-316.5 499.16,-310.5 499.16,-304.5 499.16,-304.5 499.16,-262.5 499.16,-262.5 499.16,-256.5 505.16,-250.5 511.16,-250.5"/>
<text xml:space="preserve" text-anchor="middle" x="563.21" y="-301.3" font-family="Times,serif" font-size="14.00">type = OPERATOR</text>
<polyline fill="none" stroke="#964b00" points="499.16,-294.5 627.27,-294.5"/>
<text xml:space="preserve" text-anchor="middle" x="563.22" y="-279.3" font-family="Times,serif" font-size="14.00">val = 19(OP_COM)</text>
<polyline fill="none" stroke="#964b00" points="499.16,-272.5 627.27,-272.5"/>
<text xml:space="preserve" text-anchor="middle" x="530.93" y="-257.3" font-family="Times,serif" font-size="14.00">L</text>
<polyline fill="none" stroke="#964b00" points="562.71,-250.5 562.71,-272.5"/>
<text xml:space="preserve" text-anchor="middle" x="594.88" y="-257.3" font-family="Times,serif" font-size="14.00">R</text>
</g>
<!-- node_0x606000002f00&#45;&gt;node_0x606000002fc0 -->
<g id="edge13" class="edge">
<title>node_0x606000002f00&#45;&gt;node_0x606000002fc0</title>
<path fill="none" stroke="#964b00" d="M514.47,-365.52C522.07,-352.89 530.41,-339.04 538,-326.41"/>
<polygon fill="#964b00" stroke="#964b00" points="511.6,-363.51 509.44,-373.89 517.59,-367.12 511.6,-363.51"/>
<polygon fill="#964b00" stroke="#964b00" points="540.97,-328.27 543.12,-317.9 534.97,-324.66 540.97,-328.27"/>
</g>
<!-- node_0x606000002f60 -->
<g id="node15" class="node">
<title>node_0x606000002f60</title>
<path fill="#daa520" stroke="#964b00" d="M439.36,-125.5C439.36,-125.5 539.08,-125.5 539.08,-125.5 545.08,-125.5 551.08,-131.5 551.08,-137.5 551.08,-137.5 551.08,-179.5 551.08,-179.5 551.08,-185.5 545.08,-191.5 539.08,-191.5 539.08,-191.5 439.36,-191.5 439.36,-191.5 433.36,-191.5 427.36,-185.5 427.36,-179.5 427.36,-179.5 427.36,-137.5 427.36,-137.5 427.36,-131.5 433.36,-125.5 439.36,-125.5"/>
<text xml:space="preserve" text-anchor="middle" x="489.22" y="-176.3" font-family="Times,serif" font-size="14.00">type = VARIABLE</text>
<polyline fill="none" stroke="#964b00" points="427.36,-169.5 551.08,-169.5"/>
<text xml:space="preserve" text-anchor="middle" x="488.95" y="-154.3" font-family="Times,serif" font-size="14.00">val = param_c</text>
<polyline fill="none" stroke="#964b00" points="427.36,-147.5 551.08,-147.5"/>
<text xml:space="preserve" text-anchor="middle" x="457.86" y="-132.3" font-family="Times,serif" font-size="14.00">0</text>
<polyline fill="none" stroke="#964b00" points="488.36,-125.5 488.36,-147.5"/>
<text xml:space="preserve" text-anchor="middle" x="519.36" y="-132.3" font-family="Times,serif" font-size="14.00">0</text>
</g>
<!-- node_0x606000002fc0&#45;&gt;node_0x606000002f60 -->
<g id="edge14" class="edge">
<title>node_0x606000002fc0&#45;&gt;node_0x606000002f60</title>
<path fill="none" stroke="#964b00" d="M537.96,-240.52C530.36,-227.89 522.03,-214.04 514.43,-201.41"/>
<polygon fill="#964b00" stroke="#964b00" points="534.84,-242.12 542.99,-248.89 540.84,-238.51 534.84,-242.12"/>
<polygon fill="#964b00" stroke="#964b00" points="517.46,-199.66 509.31,-192.9 511.47,-203.27 517.46,-199.66"/>
</g>
<!-- node_0x606000008ea0 -->
<g id="node16" class="node">
<title>node_0x606000008ea0</title>
<path fill="#00ffff" stroke="#964b00" d="M585.16,-125.5C585.16,-125.5 689.27,-125.5 689.27,-125.5 695.27,-125.5 701.27,-131.5 701.27,-137.5 701.27,-137.5 701.27,-179.5 701.27,-179.5 701.27,-185.5 695.27,-191.5 689.27,-191.5 689.27,-191.5 585.16,-191.5 585.16,-191.5 579.16,-191.5 573.16,-185.5 573.16,-179.5 573.16,-179.5 573.16,-137.5 573.16,-137.5 573.16,-131.5 579.16,-125.5 585.16,-125.5"/>
<text xml:space="preserve" text-anchor="middle" x="637.21" y="-176.3" font-family="Times,serif" font-size="14.00">type = OPERATOR</text>
<polyline fill="none" stroke="#964b00" points="573.16,-169.5 701.27,-169.5"/>
<text xml:space="preserve" text-anchor="middle" x="637.22" y="-154.3" font-family="Times,serif" font-size="14.00">val = 19(OP_COM)</text>
<polyline fill="none" stroke="#964b00" points="573.16,-147.5 701.27,-147.5"/>
<text xml:space="preserve" text-anchor="middle" x="604.93" y="-132.3" font-family="Times,serif" font-size="14.00">L</text>
<polyline fill="none" stroke="#964b00" points="636.71,-125.5 636.71,-147.5"/>
<text xml:space="preserve" text-anchor="middle" x="668.88" y="-132.3" font-family="Times,serif" font-size="14.00">R</text>
</g>
<!-- node_0x606000002fc0&#45;&gt;node_0x606000008ea0 -->
<g id="edge15" class="edge">
<title>node_0x606000002fc0&#45;&gt;node_0x606000008ea0</title>
<path fill="none" stroke="#964b00" d="M588.47,-240.52C596.07,-227.89 604.41,-214.04 612,-201.41"/>
<polygon fill="#964b00" stroke="#964b00" points="585.6,-238.51 583.44,-248.89 591.59,-242.12 585.6,-238.51"/>
<polygon fill="#964b00" stroke="#964b00" points="614.97,-203.27 617.12,-192.9 608.97,-199.66 614.97,-203.27"/>
</g>
<!-- node_0x606000003020 -->
<g id="node17" class="node">
<title>node_0x606000003020</title>
<path fill="#daa520" stroke="#964b00" d="M587.36,-0.5C587.36,-0.5 687.08,-0.5 687.08,-0.5 693.08,-0.5 699.08,-6.5 699.08,-12.5 699.08,-12.5 699.08,-54.5 699.08,-54.5 699.08,-60.5 693.08,-66.5 687.08,-66.5 687.08,-66.5 587.36,-66.5 587.36,-66.5 581.36,-66.5 575.36,-60.5 575.36,-54.5 575.36,-54.5 575.36,-12.5 575.36,-12.5 575.36,-6.5 581.36,-0.5 587.36,-0.5"/>
<text xml:space="preserve" text-anchor="middle" x="637.22" y="-51.3" font-family="Times,serif" font-size="14.00">type = VARIABLE</text>
<polyline fill="none" stroke="#964b00" points="575.36,-44.5 699.08,-44.5"/>
<text xml:space="preserve" text-anchor="middle" x="636.86" y="-29.3" font-family="Times,serif" font-size="14.00">val = d</text>
<polyline fill="none" stroke="#964b00" points="575.36,-22.5 699.08,-22.5"/>
<text xml:space="preserve" text-anchor="middle" x="605.86" y="-7.3" font-family="Times,serif" font-size="14.00">0</text>
<polyline fill="none" stroke="#964b00" points="636.36,-0.5 636.36,-22.5"/>
<text xml:space="preserve" text-anchor="middle" x="667.36" y="-7.3" font-family="Times,serif" font-size="14.00">0</text>
</g>
<!-- node_0x606000008ea0&#45;&gt;node_0x606000003020 -->
<g id="edge16" class="edge">
<title>node_0x606000008ea0&#45;&gt;node_0x606000003020</title>
<path fill="none" stroke="#964b00" d="M637.22,-113.7C637.22,-102.05 637.22,-89.47 637.22,-77.84"/>
<polygon fill="#964b00" stroke="#964b00" points="633.72,-113.67 637.22,-123.67 640.72,-113.67 633.72,-113.67"/>
<polygon fill="#964b00" stroke="#964b00" points="640.72,-78.11 637.22,-68.11 633.72,-78.11 640.72,-78.11"/>
</g>
<!-- node_0x606000003140 -->
<g id="node19" class="node">
<title>node_0x606000003140</title>
<path fill="#00ffff" stroke="#964b00" d="M568.5,-625.5C568.5,-625.5 695.94,-625.5 695.94,-625.5 701.94,-625.5 707.94,-631.5 707.94,-637.5 707.94,-637.5 707.94,-679.5 707.94,-679.5 707.94,-685.5 701.94,-691.5 695.94,-691.5 695.94,-691.5 568.5,-691.5 568.5,-691.5 562.5,-691.5 556.5,-685.5 556.5,-679.5 556.5,-679.5 556.5,-637.5 556.5,-637.5 556.5,-631.5 562.5,-625.5 568.5,-625.5"/>
<text xml:space="preserve" text-anchor="middle" x="632.05" y="-676.3" font-family="Times,serif" font-size="14.00">type = OPERATOR</text>
<polyline fill="none" stroke="#964b00" points="556.5,-669.5 707.94,-669.5"/>
<text xml:space="preserve" text-anchor="middle" x="632.22" y="-654.3" font-family="Times,serif" font-size="14.00">val = 22(OP_OUTPUT)</text>
<polyline fill="none" stroke="#964b00" points="556.5,-647.5 707.94,-647.5"/>
<text xml:space="preserve" text-anchor="middle" x="593.77" y="-632.3" font-family="Times,serif" font-size="14.00">L</text>
<polyline fill="none" stroke="#964b00" points="631.05,-625.5 631.05,-647.5"/>
<text xml:space="preserve" text-anchor="middle" x="669.22" y="-632.3" font-family="Times,serif" font-size="14.00">R</text>
</g>
<!-- node_0x606000003200&#45;&gt;node_0x606000003140 -->
<g id="edge18" class="edge">
<title>node_0x606000003200&#45;&gt;node_0x606000003140</title>
<path fill="none" stroke="#964b00" d="M632.22,-738.7C632.22,-727.05 632.22,-714.47 632.22,-702.84"/>
<polygon fill="#964b00" stroke="#964b00" points="628.72,-738.67 632.22,-748.67 635.72,-738.67 628.72,-738.67"/>
<polygon fill="#964b00" stroke="#964b00" points="635.72,-703.11 632.22,-693.11 628.72,-703.11 635.72,-703.11"/>
</g>
<!-- node_0x606000003260 -->
<g id="node21" class="node">
<title>node_0x606000003260</title>
<path fill="#00ffff" stroke="#964b00" d="M742.17,-625.5C742.17,-625.5 846.26,-625.5 846.26,-625.5 852.26,-625.5 858.26,-631.5 858.26,-637.5 858.26,-637.5 858.26,-679.5 858.26,-679.5 858.26,-685.5 852.26,-691.5 846.26,-691.5 846.26,-691.5 742.17,-691.5 742.17,-691.5 736.17,-691.5 730.17,-685.5 730.17,-679.5 730.17,-679.5 730.17,-637.5 730.17,-637.5 730.17,-631.5 736.17,-625.5 742.17,-625.5"/>
<text xml:space="preserve" text-anchor="middle" x="793.72" y="-676.3" font-family="Times,serif" font-size="14.00">type = OPERATOR</text>
<polyline fill="none" stroke="#964b00" points="730.17,-669.5 858.26,-669.5"/>
<text xml:space="preserve" text-anchor="middle" x="794.22" y="-654.3" font-family="Times,serif" font-size="14.00">val = 23(OP_EXIT)</text>
<polyline fill="none" stroke="#964b00" points="730.17,-647.5 858.26,-647.5"/>
<text xml:space="preserve" text-anchor="middle" x="761.94" y="-632.3" font-family="Times,serif" font-size="14.00">L</text>
<polyline fill="none" stroke="#964b00" points="793.72,-625.5 793.72,-647.5"/>
<text xml:space="preserve" text-anchor="middle" x="825.89" y="-632.3" font-family="Times,serif" font-size="14.00">R</text>
</g>
<!-- node_0x606000003200&#45;&gt;node_0x606000003260 -->
<g id="edge20" class="edge">
<title>node_0x606000003200&#45;&gt;node_0x606000003260</title>
<path fill="none" stroke="#964b00" d="M683.92,-743.24C702.7,-728.99 723.9,-712.89 742.66,-698.64"/>
<polygon fill="#964b00" stroke="#964b00" points="681.83,-740.43 675.99,-749.27 686.07,-746.01 681.83,-740.43"/>
<polygon fill="#964b00" stroke="#964b00" points="744.6,-701.56 750.45,-692.73 740.37,-695.99 744.6,-701.56"/>
</g>
<!-- node_0x6060000031a0 -->
<g id="node20" class="node">
<title>node_0x6060000031a0</title>
<path fill="#daa520" stroke="#964b00" d="M582.36,-500.5C582.36,-500.5 682.08,-500.5 682.08,-500.5 688.08,-500.5 694.08,-506.5 694.08,-512.5 694.08,-512.5 694.08,-554.5 694.08,-554.5 694.08,-560.5 688.08,-566.5 682.08,-566.5 682.08,-566.5 582.36,-566.5 582.36,-566.5 576.36,-566.5 570.36,-560.5 570.36,-554.5 570.36,-554.5 570.36,-512.5 570.36,-512.5 570.36,-506.5 576.36,-500.5 582.36,-500.5"/>
<text xml:space="preserve" text-anchor="middle" x="632.22" y="-551.3" font-family="Times,serif" font-size="14.00">type = VARIABLE</text>
<polyline fill="none" stroke="#964b00" points="570.36,-544.5 694.08,-544.5"/>
<text xml:space="preserve" text-anchor="middle" x="631.86" y="-529.3" font-family="Times,serif" font-size="14.00">val = x1</text>
<polyline fill="none" stroke="#964b00" points="570.36,-522.5 694.08,-522.5"/>
<text xml:space="preserve" text-anchor="middle" x="600.86" y="-507.3" font-family="Times,serif" font-size="14.00">0</text>
<polyline fill="none" stroke="#964b00" points="631.36,-500.5 631.36,-522.5"/>
<text xml:space="preserve" text-anchor="middle" x="662.36" y="-507.3" font-family="Times,serif" font-size="14.00">0</text>
</g>
<!-- node_0x606000003140&#45;&gt;node_0x6060000031a0 -->
<g id="edge19" class="edge">
<title>node_0x606000003140&#45;&gt;node_0x6060000031a0</title>
<path fill="none" stroke="#964b00" d="M632.22,-613.7C632.22,-602.05 632.22,-589.47 632.22,-577.84"/>
<polygon fill="#964b00" stroke="#964b00" points="628.72,-613.67 632.22,-623.67 635.72,-613.67 628.72,-613.67"/>
<polygon fill="#964b00" stroke="#964b00" points="635.72,-578.11 632.22,-568.11 628.72,-578.11 635.72,-578.11"/>
</g>
</g>
</svg>
