<?xml version="1.0" encoding="UTF-8" standalone="no"?>
<!DOCTYPE svg PUBLIC "-//W3C//DTD SVG 1.1//EN"
 "http://www.w3.org/Graphics/SVG/1.1/DTD/svg11.dtd">
<!-- Generated by graphviz version 14.0.2 (20251019.1705)
 -->
<!-- Title: G Pages: 1 -->
<svg width="573pt" height="450pt"
 viewBox="0.00 0.00 573.00 450.00" xmlns="http://www.w3.org/2000/svg" xmlns:xlink="http://www.w3.org/1999/xlink">
<g id="graph0" class="graph" transform="scale(1 1) rotate(0) translate(4 446)">
<title>G</title>
<polygon fill="#fffafa" stroke="none" points="-4,4 -4,-446 568.72,-446 568.72,4 -4,4"/>
<!-- node_0x606000002000 -->
<g id="node1" class="node">
<title>node_0x606000002000</title>
<path fill="#00ffff" stroke="#964b00" d="M229.31,-375.5C229.31,-375.5 332.41,-375.5 332.41,-375.5 338.41,-375.5 344.41,-381.5 344.41,-387.5 344.41,-387.5 344.41,-429.5 344.41,-429.5 344.41,-435.5 338.41,-441.5 332.41,-441.5 332.41,-441.5 229.31,-441.5 229.31,-441.5 223.31,-441.5 217.31,-435.5 217.31,-429.5 217.31,-429.5 217.31,-387.5 217.31,-387.5 217.31,-381.5 223.31,-375.5 229.31,-375.5"/>
<text xml:space="preserve" text-anchor="middle" x="280.86" y="-426.3" font-family="Times,serif" font-size="14.00">type = OPERATOR</text>
<polyline fill="none" stroke="#964b00" points="217.31,-419.5 344.41,-419.5"/>
<text xml:space="preserve" text-anchor="middle" x="280.54" y="-404.3" font-family="Times,serif" font-size="14.00">val = 2(OP_SUB)</text>
<polyline fill="none" stroke="#964b00" points="217.31,-397.5 344.41,-397.5"/>
<text xml:space="preserve" text-anchor="middle" x="248.59" y="-382.3" font-family="Times,serif" font-size="14.00">L</text>
<polyline fill="none" stroke="#964b00" points="279.86,-375.5 279.86,-397.5"/>
<text xml:space="preserve" text-anchor="middle" x="312.03" y="-382.3" font-family="Times,serif" font-size="14.00">R</text>
</g>
<!-- node_0x606000001f40 -->
<g id="node2" class="node">
<title>node_0x606000001f40</title>
<path fill="#00ffff" stroke="#964b00" d="M155.31,-250.5C155.31,-250.5 258.41,-250.5 258.41,-250.5 264.41,-250.5 270.41,-256.5 270.41,-262.5 270.41,-262.5 270.41,-304.5 270.41,-304.5 270.41,-310.5 264.41,-316.5 258.41,-316.5 258.41,-316.5 155.31,-316.5 155.31,-316.5 149.31,-316.5 143.31,-310.5 143.31,-304.5 143.31,-304.5 143.31,-262.5 143.31,-262.5 143.31,-256.5 149.31,-250.5 155.31,-250.5"/>
<text xml:space="preserve" text-anchor="middle" x="206.86" y="-301.3" font-family="Times,serif" font-size="14.00">type = OPERATOR</text>
<polyline fill="none" stroke="#964b00" points="143.31,-294.5 270.41,-294.5"/>
<text xml:space="preserve" text-anchor="middle" x="206.48" y="-279.3" font-family="Times,serif" font-size="14.00">val = 3(OP_MUL)</text>
<polyline fill="none" stroke="#964b00" points="143.31,-272.5 270.41,-272.5"/>
<text xml:space="preserve" text-anchor="middle" x="174.59" y="-257.3" font-family="Times,serif" font-size="14.00">L</text>
<polyline fill="none" stroke="#964b00" points="205.86,-250.5 205.86,-272.5"/>
<text xml:space="preserve" text-anchor="middle" x="238.03" y="-257.3" font-family="Times,serif" font-size="14.00">R</text>
</g>
<!-- node_0x606000002000&#45;&gt;node_0x606000001f40 -->
<g id="edge1" class="edge">
<title>node_0x606000002000&#45;&gt;node_0x606000001f40</title>
<path fill="none" stroke="#964b00" d="M255.6,-365.52C248.01,-352.89 239.67,-339.04 232.08,-326.41"/>
<polygon fill="#964b00" stroke="#964b00" points="252.48,-367.12 260.64,-373.89 258.48,-363.51 252.48,-367.12"/>
<polygon fill="#964b00" stroke="#964b00" points="235.11,-324.66 226.95,-317.9 229.11,-328.27 235.11,-324.66"/>
</g>
<!-- node_0x606000002180 -->
<g id="node5" class="node">
<title>node_0x606000002180</title>
<path fill="#00ffff" stroke="#964b00" d="M304.31,-250.5C304.31,-250.5 407.41,-250.5 407.41,-250.5 413.41,-250.5 419.41,-256.5 419.41,-262.5 419.41,-262.5 419.41,-304.5 419.41,-304.5 419.41,-310.5 413.41,-316.5 407.41,-316.5 407.41,-316.5 304.31,-316.5 304.31,-316.5 298.31,-316.5 292.31,-310.5 292.31,-304.5 292.31,-304.5 292.31,-262.5 292.31,-262.5 292.31,-256.5 298.31,-250.5 304.31,-250.5"/>
<text xml:space="preserve" text-anchor="middle" x="355.86" y="-301.3" font-family="Times,serif" font-size="14.00">type = OPERATOR</text>
<polyline fill="none" stroke="#964b00" points="292.31,-294.5 419.41,-294.5"/>
<text xml:space="preserve" text-anchor="middle" x="355.48" y="-279.3" font-family="Times,serif" font-size="14.00">val = 3(OP_MUL)</text>
<polyline fill="none" stroke="#964b00" points="292.31,-272.5 419.41,-272.5"/>
<text xml:space="preserve" text-anchor="middle" x="323.59" y="-257.3" font-family="Times,serif" font-size="14.00">L</text>
<polyline fill="none" stroke="#964b00" points="354.86,-250.5 354.86,-272.5"/>
<text xml:space="preserve" text-anchor="middle" x="387.03" y="-257.3" font-family="Times,serif" font-size="14.00">R</text>
</g>
<!-- node_0x606000002000&#45;&gt;node_0x606000002180 -->
<g id="edge4" class="edge">
<title>node_0x606000002000&#45;&gt;node_0x606000002180</title>
<path fill="none" stroke="#964b00" d="M306.46,-365.52C314.16,-352.89 322.61,-339.04 330.3,-326.41"/>
<polygon fill="#964b00" stroke="#964b00" points="303.57,-363.53 301.35,-373.89 309.55,-367.18 303.57,-363.53"/>
<polygon fill="#964b00" stroke="#964b00" points="333.28,-328.25 335.5,-317.89 327.3,-324.61 333.28,-328.25"/>
</g>
<!-- node_0x606000001ee0 -->
<g id="node3" class="node">
<title>node_0x606000001ee0</title>
<path fill="#daa520" stroke="#964b00" d="M12,-125.5C12,-125.5 111.72,-125.5 111.72,-125.5 117.72,-125.5 123.72,-131.5 123.72,-137.5 123.72,-137.5 123.72,-179.5 123.72,-179.5 123.72,-185.5 117.72,-191.5 111.72,-191.5 111.72,-191.5 12,-191.5 12,-191.5 6,-191.5 0,-185.5 0,-179.5 0,-179.5 0,-137.5 0,-137.5 0,-131.5 6,-125.5 12,-125.5"/>
<text xml:space="preserve" text-anchor="middle" x="61.86" y="-176.3" font-family="Times,serif" font-size="14.00">type = VARIABLE</text>
<polyline fill="none" stroke="#964b00" points="0,-169.5 123.72,-169.5"/>
<text xml:space="preserve" text-anchor="middle" x="61.49" y="-154.3" font-family="Times,serif" font-size="14.00">val = param_b</text>
<polyline fill="none" stroke="#964b00" points="0,-147.5 123.72,-147.5"/>
<text xml:space="preserve" text-anchor="middle" x="30.5" y="-132.3" font-family="Times,serif" font-size="14.00">0</text>
<polyline fill="none" stroke="#964b00" points="61,-125.5 61,-147.5"/>
<text xml:space="preserve" text-anchor="middle" x="92" y="-132.3" font-family="Times,serif" font-size="14.00">0</text>
</g>
<!-- node_0x606000001f40&#45;&gt;node_0x606000001ee0 -->
<g id="edge2" class="edge">
<title>node_0x606000001f40&#45;&gt;node_0x606000001ee0</title>
<path fill="none" stroke="#964b00" d="M160.06,-242.8C143.51,-228.76 124.91,-212.98 108.38,-198.97"/>
<polygon fill="#964b00" stroke="#964b00" points="157.72,-245.4 167.61,-249.2 162.25,-240.07 157.72,-245.4"/>
<polygon fill="#964b00" stroke="#964b00" points="111,-196.59 101.11,-192.79 106.47,-201.93 111,-196.59"/>
</g>
<!-- node_0x606000001fa0 -->
<g id="node4" class="node">
<title>node_0x606000001fa0</title>
<path fill="#daa520" stroke="#964b00" d="M158,-125.5C158,-125.5 257.72,-125.5 257.72,-125.5 263.72,-125.5 269.72,-131.5 269.72,-137.5 269.72,-137.5 269.72,-179.5 269.72,-179.5 269.72,-185.5 263.72,-191.5 257.72,-191.5 257.72,-191.5 158,-191.5 158,-191.5 152,-191.5 146,-185.5 146,-179.5 146,-179.5 146,-137.5 146,-137.5 146,-131.5 152,-125.5 158,-125.5"/>
<text xml:space="preserve" text-anchor="middle" x="207.86" y="-176.3" font-family="Times,serif" font-size="14.00">type = VARIABLE</text>
<polyline fill="none" stroke="#964b00" points="146,-169.5 269.72,-169.5"/>
<text xml:space="preserve" text-anchor="middle" x="207.49" y="-154.3" font-family="Times,serif" font-size="14.00">val = param_b</text>
<polyline fill="none" stroke="#964b00" points="146,-147.5 269.72,-147.5"/>
<text xml:space="preserve" text-anchor="middle" x="176.5" y="-132.3" font-family="Times,serif" font-size="14.00">0</text>
<polyline fill="none" stroke="#964b00" points="207,-125.5 207,-147.5"/>
<text xml:space="preserve" text-anchor="middle" x="238" y="-132.3" font-family="Times,serif" font-size="14.00">0</text>
</g>
<!-- node_0x606000001f40&#45;&gt;node_0x606000001fa0 -->
<g id="edge3" class="edge">
<title>node_0x606000001f40&#45;&gt;node_0x606000001fa0</title>
<path fill="none" stroke="#964b00" d="M207.22,-238.7C207.31,-227.05 207.41,-214.47 207.51,-202.84"/>
<polygon fill="#964b00" stroke="#964b00" points="203.72,-238.64 207.14,-248.67 210.72,-238.7 203.72,-238.64"/>
<polygon fill="#964b00" stroke="#964b00" points="211.01,-203.14 207.59,-193.11 204.01,-203.09 211.01,-203.14"/>
</g>
<!-- node_0x6060000020c0 -->
<g id="node6" class="node">
<title>node_0x6060000020c0</title>
<path fill="#00ffff" stroke="#964b00" d="M304.31,-125.5C304.31,-125.5 407.41,-125.5 407.41,-125.5 413.41,-125.5 419.41,-131.5 419.41,-137.5 419.41,-137.5 419.41,-179.5 419.41,-179.5 419.41,-185.5 413.41,-191.5 407.41,-191.5 407.41,-191.5 304.31,-191.5 304.31,-191.5 298.31,-191.5 292.31,-185.5 292.31,-179.5 292.31,-179.5 292.31,-137.5 292.31,-137.5 292.31,-131.5 298.31,-125.5 304.31,-125.5"/>
<text xml:space="preserve" text-anchor="middle" x="355.86" y="-176.3" font-family="Times,serif" font-size="14.00">type = OPERATOR</text>
<polyline fill="none" stroke="#964b00" points="292.31,-169.5 419.41,-169.5"/>
<text xml:space="preserve" text-anchor="middle" x="355.48" y="-154.3" font-family="Times,serif" font-size="14.00">val = 3(OP_MUL)</text>
<polyline fill="none" stroke="#964b00" points="292.31,-147.5 419.41,-147.5"/>
<text xml:space="preserve" text-anchor="middle" x="323.59" y="-132.3" font-family="Times,serif" font-size="14.00">L</text>
<polyline fill="none" stroke="#964b00" points="354.86,-125.5 354.86,-147.5"/>
<text xml:space="preserve" text-anchor="middle" x="387.03" y="-132.3" font-family="Times,serif" font-size="14.00">R</text>
</g>
<!-- node_0x606000002180&#45;&gt;node_0x6060000020c0 -->
<g id="edge5" class="edge">
<title>node_0x606000002180&#45;&gt;node_0x6060000020c0</title>
<path fill="none" stroke="#964b00" d="M355.86,-238.7C355.86,-227.05 355.86,-214.47 355.86,-202.84"/>
<polygon fill="#964b00" stroke="#964b00" points="352.36,-238.67 355.86,-248.67 359.36,-238.67 352.36,-238.67"/>
<polygon fill="#964b00" stroke="#964b00" points="359.36,-203.11 355.86,-193.11 352.36,-203.11 359.36,-203.11"/>
</g>
<!-- node_0x6060000021e0 -->
<g id="node9" class="node">
<title>node_0x6060000021e0</title>
<path fill="#daa520" stroke="#964b00" d="M453,-125.5C453,-125.5 552.72,-125.5 552.72,-125.5 558.72,-125.5 564.72,-131.5 564.72,-137.5 564.72,-137.5 564.72,-179.5 564.72,-179.5 564.72,-185.5 558.72,-191.5 552.72,-191.5 552.72,-191.5 453,-191.5 453,-191.5 447,-191.5 441,-185.5 441,-179.5 441,-179.5 441,-137.5 441,-137.5 441,-131.5 447,-125.5 453,-125.5"/>
<text xml:space="preserve" text-anchor="middle" x="502.86" y="-176.3" font-family="Times,serif" font-size="14.00">type = VARIABLE</text>
<polyline fill="none" stroke="#964b00" points="441,-169.5 564.72,-169.5"/>
<text xml:space="preserve" text-anchor="middle" x="502.6" y="-154.3" font-family="Times,serif" font-size="14.00">val = param_c</text>
<polyline fill="none" stroke="#964b00" points="441,-147.5 564.72,-147.5"/>
<text xml:space="preserve" text-anchor="middle" x="471.5" y="-132.3" font-family="Times,serif" font-size="14.00">0</text>
<polyline fill="none" stroke="#964b00" points="502,-125.5 502,-147.5"/>
<text xml:space="preserve" text-anchor="middle" x="533" y="-132.3" font-family="Times,serif" font-size="14.00">0</text>
</g>
<!-- node_0x606000002180&#45;&gt;node_0x6060000021e0 -->
<g id="edge8" class="edge">
<title>node_0x606000002180&#45;&gt;node_0x6060000021e0</title>
<path fill="none" stroke="#964b00" d="M403.31,-242.8C420.08,-228.76 438.94,-212.98 455.69,-198.97"/>
<polygon fill="#964b00" stroke="#964b00" points="401.07,-240.11 395.64,-249.21 405.56,-245.48 401.07,-240.11"/>
<polygon fill="#964b00" stroke="#964b00" points="457.66,-201.89 463.08,-192.79 453.16,-196.52 457.66,-201.89"/>
</g>
<!-- node_0x606000002060 -->
<g id="node7" class="node">
<title>node_0x606000002060</title>
<path fill="#98fb98" stroke="#964b00" d="M224.04,-0.5C224.04,-0.5 335.69,-0.5 335.69,-0.5 341.69,-0.5 347.69,-6.5 347.69,-12.5 347.69,-12.5 347.69,-54.5 347.69,-54.5 347.69,-60.5 341.69,-66.5 335.69,-66.5 335.69,-66.5 224.04,-66.5 224.04,-66.5 218.04,-66.5 212.04,-60.5 212.04,-54.5 212.04,-54.5 212.04,-12.5 212.04,-12.5 212.04,-6.5 218.04,-0.5 224.04,-0.5"/>
<text xml:space="preserve" text-anchor="middle" x="279.86" y="-51.3" font-family="Times,serif" font-size="14.00">type = CONST_VAR</text>
<polyline fill="none" stroke="#964b00" points="212.04,-44.5 347.69,-44.5"/>
<text xml:space="preserve" text-anchor="middle" x="279.54" y="-29.3" font-family="Times,serif" font-size="14.00">val = 4</text>
<polyline fill="none" stroke="#964b00" points="212.04,-22.5 347.69,-22.5"/>
<text xml:space="preserve" text-anchor="middle" x="245.54" y="-7.3" font-family="Times,serif" font-size="14.00">0</text>
<polyline fill="none" stroke="#964b00" points="279.04,-0.5 279.04,-22.5"/>
<text xml:space="preserve" text-anchor="middle" x="313.04" y="-7.3" font-family="Times,serif" font-size="14.00">0</text>
</g>
<!-- node_0x6060000020c0&#45;&gt;node_0x606000002060 -->
<g id="edge6" class="edge">
<title>node_0x6060000020c0&#45;&gt;node_0x606000002060</title>
<path fill="none" stroke="#964b00" d="M329.92,-115.52C322.04,-102.76 313.39,-88.76 305.53,-76.04"/>
<polygon fill="#964b00" stroke="#964b00" points="326.86,-117.23 335.1,-123.9 332.82,-113.55 326.86,-117.23"/>
<polygon fill="#964b00" stroke="#964b00" points="308.72,-74.56 300.49,-67.89 302.77,-78.24 308.72,-74.56"/>
</g>
<!-- node_0x606000002120 -->
<g id="node8" class="node">
<title>node_0x606000002120</title>
<path fill="#daa520" stroke="#964b00" d="M382,-0.5C382,-0.5 481.72,-0.5 481.72,-0.5 487.72,-0.5 493.72,-6.5 493.72,-12.5 493.72,-12.5 493.72,-54.5 493.72,-54.5 493.72,-60.5 487.72,-66.5 481.72,-66.5 481.72,-66.5 382,-66.5 382,-66.5 376,-66.5 370,-60.5 370,-54.5 370,-54.5 370,-12.5 370,-12.5 370,-6.5 376,-0.5 382,-0.5"/>
<text xml:space="preserve" text-anchor="middle" x="431.86" y="-51.3" font-family="Times,serif" font-size="14.00">type = VARIABLE</text>
<polyline fill="none" stroke="#964b00" points="370,-44.5 493.72,-44.5"/>
<text xml:space="preserve" text-anchor="middle" x="431.6" y="-29.3" font-family="Times,serif" font-size="14.00">val = param_a</text>
<polyline fill="none" stroke="#964b00" points="370,-22.5 493.72,-22.5"/>
<text xml:space="preserve" text-anchor="middle" x="400.5" y="-7.3" font-family="Times,serif" font-size="14.00">0</text>
<polyline fill="none" stroke="#964b00" points="431,-0.5 431,-22.5"/>
<text xml:space="preserve" text-anchor="middle" x="462" y="-7.3" font-family="Times,serif" font-size="14.00">0</text>
</g>
<!-- node_0x6060000020c0&#45;&gt;node_0x606000002120 -->
<g id="edge7" class="edge">
<title>node_0x6060000020c0&#45;&gt;node_0x606000002120</title>
<path fill="none" stroke="#964b00" d="M381.8,-115.52C389.68,-102.76 398.33,-88.76 406.19,-76.04"/>
<polygon fill="#964b00" stroke="#964b00" points="378.9,-113.55 376.62,-123.9 384.86,-117.23 378.9,-113.55"/>
<polygon fill="#964b00" stroke="#964b00" points="408.95,-78.24 411.23,-67.89 403,-74.56 408.95,-78.24"/>
</g>
</g>
</svg>
