<?xml version="1.0" encoding="UTF-8" standalone="no"?>
<!DOCTYPE svg PUBLIC "-//W3C//DTD SVG 1.1//EN"
 "http://www.w3.org/Graphics/SVG/1.1/DTD/svg11.dtd">
<!-- Generated by graphviz version 14.0.2 (20251019.1705)
 -->
<!-- Title: G Pages: 1 -->
<svg width="159pt" height="75pt"
 viewBox="0.00 0.00 159.00 75.00" xmlns="http://www.w3.org/2000/svg" xmlns:xlink="http://www.w3.org/1999/xlink">
<g id="graph0" class="graph" transform="scale(1 1) rotate(0) translate(4 71)">
<title>G</title>
<polygon fill="#fffafa" stroke="none" points="-4,4 -4,-71 155.44,-71 155.44,4 -4,4"/>
<!-- node_0x606000001460 -->
<g id="node1" class="node">
<title>node_0x606000001460</title>
<path fill="#00ffff" stroke="#964b00" d="M12,-0.5C12,-0.5 139.44,-0.5 139.44,-0.5 145.44,-0.5 151.44,-6.5 151.44,-12.5 151.44,-12.5 151.44,-54.5 151.44,-54.5 151.44,-60.5 145.44,-66.5 139.44,-66.5 139.44,-66.5 12,-66.5 12,-66.5 6,-66.5 0,-60.5 0,-54.5 0,-54.5 0,-12.5 0,-12.5 0,-6.5 6,-0.5 12,-0.5"/>
<text xml:space="preserve" text-anchor="middle" x="75.55" y="-51.3" font-family="Times,serif" font-size="14.00">type = OPERATOR</text>
<polyline fill="none" stroke="#964b00" points="0,-44.5 151.44,-44.5"/>
<text xml:space="preserve" text-anchor="middle" x="75.72" y="-29.3" font-family="Times,serif" font-size="14.00">val = 22(OP_OUTPUT)</text>
<polyline fill="none" stroke="#964b00" points="0,-22.5 151.44,-22.5"/>
<text xml:space="preserve" text-anchor="middle" x="37.28" y="-7.3" font-family="Times,serif" font-size="14.00">L</text>
<polyline fill="none" stroke="#964b00" points="74.55,-0.5 74.55,-22.5"/>
<text xml:space="preserve" text-anchor="middle" x="112.72" y="-7.3" font-family="Times,serif" font-size="14.00">R</text>
</g>
</g>
</svg>
