<?xml version="1.0" encoding="UTF-8" standalone="no"?>
<!DOCTYPE svg PUBLIC "-//W3C//DTD SVG 1.1//EN"
 "http://www.w3.org/Graphics/SVG/1.1/DTD/svg11.dtd">
<!-- Generated by graphviz version 14.0.2 (20251019.1705)
 -->
<!-- Title: G Pages: 1 -->
<svg width="135pt" height="75pt"
 viewBox="0.00 0.00 135.00 75.00" xmlns="http://www.w3.org/2000/svg" xmlns:xlink="http://www.w3.org/1999/xlink">
<g id="graph0" class="graph" transform="scale(1 1) rotate(0) translate(4 71)">
<title>G</title>
<polygon fill="#fffafa" stroke="none" points="-4,4 -4,-71 131.1,-71 131.1,4 -4,4"/>
<!-- node_0x606000004820 -->
<g id="node1" class="node">
<title>node_0x606000004820</title>
<path fill="#00ffff" stroke="#964b00" d="M12,-0.5C12,-0.5 115.1,-0.5 115.1,-0.5 121.1,-0.5 127.1,-6.5 127.1,-12.5 127.1,-12.5 127.1,-54.5 127.1,-54.5 127.1,-60.5 121.1,-66.5 115.1,-66.5 115.1,-66.5 12,-66.5 12,-66.5 6,-66.5 0,-60.5 0,-54.5 0,-54.5 0,-12.5 0,-12.5 0,-6.5 6,-0.5 12,-0.5"/>
<text xml:space="preserve" text-anchor="middle" x="63.55" y="-51.3" font-family="Times,serif" font-size="14.00">type = OPERATOR</text>
<polyline fill="none" stroke="#964b00" points="0,-44.5 127.1,-44.5"/>
<text xml:space="preserve" text-anchor="middle" x="63.33" y="-29.3" font-family="Times,serif" font-size="14.00">val = 15(OP_OB)</text>
<polyline fill="none" stroke="#964b00" points="0,-22.5 127.1,-22.5"/>
<text xml:space="preserve" text-anchor="middle" x="31.28" y="-7.3" font-family="Times,serif" font-size="14.00">L</text>
<polyline fill="none" stroke="#964b00" points="62.55,-0.5 62.55,-22.5"/>
<text xml:space="preserve" text-anchor="middle" x="94.72" y="-7.3" font-family="Times,serif" font-size="14.00">R</text>
</g>
</g>
</svg>
