<?xml version="1.0" encoding="UTF-8" standalone="no"?>
<!DOCTYPE svg PUBLIC "-//W3C//DTD SVG 1.1//EN"
 "http://www.w3.org/Graphics/SVG/1.1/DTD/svg11.dtd">
<!-- Generated by graphviz version 14.0.2 (20251019.1705)
 -->
<!-- Title: G Pages: 1 -->
<svg width="282pt" height="450pt"
 viewBox="0.00 0.00 282.00 450.00" xmlns="http://www.w3.org/2000/svg" xmlns:xlink="http://www.w3.org/1999/xlink">
<g id="graph0" class="graph" transform="scale(1 1) rotate(0) translate(4 446)">
<title>G</title>
<polygon fill="#fffafa" stroke="none" points="-4,4 -4,-446 277.92,-446 277.92,4 -4,4"/>
<!-- node_0x606000005ba0 -->
<g id="node1" class="node">
<title>node_0x606000005ba0</title>
<path fill="#a7a7f2" stroke="#964b00" d="M45.34,-375.5C45.34,-375.5 226.38,-375.5 226.38,-375.5 232.38,-375.5 238.38,-381.5 238.38,-387.5 238.38,-387.5 238.38,-429.5 238.38,-429.5 238.38,-435.5 232.38,-441.5 226.38,-441.5 226.38,-441.5 45.34,-441.5 45.34,-441.5 39.34,-441.5 33.34,-435.5 33.34,-429.5 33.34,-429.5 33.34,-387.5 33.34,-387.5 33.34,-381.5 39.34,-375.5 45.34,-375.5"/>
<text xml:space="preserve" text-anchor="middle" x="135.73" y="-426.3" font-family="Times,serif" font-size="14.00">type = FUNCTION</text>
<polyline fill="none" stroke="#964b00" points="33.34,-419.5 238.38,-419.5"/>
<text xml:space="preserve" text-anchor="middle" x="135.86" y="-404.3" font-family="Times,serif" font-size="14.00">val = Che_cazzo_solve_linear_eq</text>
<polyline fill="none" stroke="#964b00" points="33.34,-397.5 238.38,-397.5"/>
<text xml:space="preserve" text-anchor="middle" x="84.34" y="-382.3" font-family="Times,serif" font-size="14.00">0</text>
<polyline fill="none" stroke="#964b00" points="135.34,-375.5 135.34,-397.5"/>
<text xml:space="preserve" text-anchor="middle" x="186.84" y="-382.3" font-family="Times,serif" font-size="14.00">0</text>
</g>
<!-- node_0x606000005cc0 -->
<g id="node2" class="node">
<title>node_0x606000005cc0</title>
<path fill="#00ffff" stroke="#964b00" d="M83.8,-250.5C83.8,-250.5 187.92,-250.5 187.92,-250.5 193.92,-250.5 199.92,-256.5 199.92,-262.5 199.92,-262.5 199.92,-304.5 199.92,-304.5 199.92,-310.5 193.92,-316.5 187.92,-316.5 187.92,-316.5 83.8,-316.5 83.8,-316.5 77.8,-316.5 71.8,-310.5 71.8,-304.5 71.8,-304.5 71.8,-262.5 71.8,-262.5 71.8,-256.5 77.8,-250.5 83.8,-250.5"/>
<text xml:space="preserve" text-anchor="middle" x="135.85" y="-301.3" font-family="Times,serif" font-size="14.00">type = OPERATOR</text>
<polyline fill="none" stroke="#964b00" points="71.8,-294.5 199.92,-294.5"/>
<text xml:space="preserve" text-anchor="middle" x="135.86" y="-279.3" font-family="Times,serif" font-size="14.00">val = 19(OP_COM)</text>
<polyline fill="none" stroke="#964b00" points="71.8,-272.5 199.92,-272.5"/>
<text xml:space="preserve" text-anchor="middle" x="103.58" y="-257.3" font-family="Times,serif" font-size="14.00">L</text>
<polyline fill="none" stroke="#964b00" points="135.35,-250.5 135.35,-272.5"/>
<text xml:space="preserve" text-anchor="middle" x="167.52" y="-257.3" font-family="Times,serif" font-size="14.00">R</text>
</g>
<!-- node_0x606000005ba0&#45;&gt;node_0x606000005cc0 -->
<g id="edge1" class="edge">
<title>node_0x606000005ba0&#45;&gt;node_0x606000005cc0</title>
<path fill="none" stroke="#964b00" d="M135.86,-363.7C135.86,-352.05 135.86,-339.47 135.86,-327.84"/>
<polygon fill="#964b00" stroke="#964b00" points="132.36,-363.67 135.86,-373.67 139.36,-363.67 132.36,-363.67"/>
<polygon fill="#964b00" stroke="#964b00" points="139.36,-328.11 135.86,-318.11 132.36,-328.11 139.36,-328.11"/>
</g>
<!-- node_0x606000005c60 -->
<g id="node3" class="node">
<title>node_0x606000005c60</title>
<path fill="#daa520" stroke="#964b00" d="M12,-125.5C12,-125.5 111.72,-125.5 111.72,-125.5 117.72,-125.5 123.72,-131.5 123.72,-137.5 123.72,-137.5 123.72,-179.5 123.72,-179.5 123.72,-185.5 117.72,-191.5 111.72,-191.5 111.72,-191.5 12,-191.5 12,-191.5 6,-191.5 0,-185.5 0,-179.5 0,-179.5 0,-137.5 0,-137.5 0,-131.5 6,-125.5 12,-125.5"/>
<text xml:space="preserve" text-anchor="middle" x="61.86" y="-176.3" font-family="Times,serif" font-size="14.00">type = VARIABLE</text>
<polyline fill="none" stroke="#964b00" points="0,-169.5 123.72,-169.5"/>
<text xml:space="preserve" text-anchor="middle" x="61.5" y="-154.3" font-family="Times,serif" font-size="14.00">val = b</text>
<polyline fill="none" stroke="#964b00" points="0,-147.5 123.72,-147.5"/>
<text xml:space="preserve" text-anchor="middle" x="30.5" y="-132.3" font-family="Times,serif" font-size="14.00">0</text>
<polyline fill="none" stroke="#964b00" points="61,-125.5 61,-147.5"/>
<text xml:space="preserve" text-anchor="middle" x="92" y="-132.3" font-family="Times,serif" font-size="14.00">0</text>
</g>
<!-- node_0x606000005cc0&#45;&gt;node_0x606000005c60 -->
<g id="edge2" class="edge">
<title>node_0x606000005cc0&#45;&gt;node_0x606000005c60</title>
<path fill="none" stroke="#964b00" d="M110.6,-240.52C103.01,-227.89 94.67,-214.04 87.08,-201.41"/>
<polygon fill="#964b00" stroke="#964b00" points="107.48,-242.12 115.64,-248.89 113.48,-238.51 107.48,-242.12"/>
<polygon fill="#964b00" stroke="#964b00" points="90.11,-199.66 81.95,-192.9 84.11,-203.27 90.11,-199.66"/>
</g>
<!-- node_0x6060000093e0 -->
<g id="node4" class="node">
<title>node_0x6060000093e0</title>
<path fill="#00ffff" stroke="#964b00" d="M157.8,-125.5C157.8,-125.5 261.92,-125.5 261.92,-125.5 267.92,-125.5 273.92,-131.5 273.92,-137.5 273.92,-137.5 273.92,-179.5 273.92,-179.5 273.92,-185.5 267.92,-191.5 261.92,-191.5 261.92,-191.5 157.8,-191.5 157.8,-191.5 151.8,-191.5 145.8,-185.5 145.8,-179.5 145.8,-179.5 145.8,-137.5 145.8,-137.5 145.8,-131.5 151.8,-125.5 157.8,-125.5"/>
<text xml:space="preserve" text-anchor="middle" x="209.85" y="-176.3" font-family="Times,serif" font-size="14.00">type = OPERATOR</text>
<polyline fill="none" stroke="#964b00" points="145.8,-169.5 273.92,-169.5"/>
<text xml:space="preserve" text-anchor="middle" x="209.86" y="-154.3" font-family="Times,serif" font-size="14.00">val = 19(OP_COM)</text>
<polyline fill="none" stroke="#964b00" points="145.8,-147.5 273.92,-147.5"/>
<text xml:space="preserve" text-anchor="middle" x="177.58" y="-132.3" font-family="Times,serif" font-size="14.00">L</text>
<polyline fill="none" stroke="#964b00" points="209.35,-125.5 209.35,-147.5"/>
<text xml:space="preserve" text-anchor="middle" x="241.52" y="-132.3" font-family="Times,serif" font-size="14.00">R</text>
</g>
<!-- node_0x606000005cc0&#45;&gt;node_0x6060000093e0 -->
<g id="edge3" class="edge">
<title>node_0x606000005cc0&#45;&gt;node_0x6060000093e0</title>
<path fill="none" stroke="#964b00" d="M161.12,-240.52C168.72,-227.89 177.05,-214.04 184.64,-201.41"/>
<polygon fill="#964b00" stroke="#964b00" points="158.24,-238.51 156.08,-248.89 164.24,-242.12 158.24,-238.51"/>
<polygon fill="#964b00" stroke="#964b00" points="187.61,-203.27 189.77,-192.9 181.61,-199.66 187.61,-203.27"/>
</g>
<!-- node_0x606000005d20 -->
<g id="node5" class="node">
<title>node_0x606000005d20</title>
<path fill="#daa520" stroke="#964b00" d="M160,-0.5C160,-0.5 259.72,-0.5 259.72,-0.5 265.72,-0.5 271.72,-6.5 271.72,-12.5 271.72,-12.5 271.72,-54.5 271.72,-54.5 271.72,-60.5 265.72,-66.5 259.72,-66.5 259.72,-66.5 160,-66.5 160,-66.5 154,-66.5 148,-60.5 148,-54.5 148,-54.5 148,-12.5 148,-12.5 148,-6.5 154,-0.5 160,-0.5"/>
<text xml:space="preserve" text-anchor="middle" x="209.86" y="-51.3" font-family="Times,serif" font-size="14.00">type = VARIABLE</text>
<polyline fill="none" stroke="#964b00" points="148,-44.5 271.72,-44.5"/>
<text xml:space="preserve" text-anchor="middle" x="209.61" y="-29.3" font-family="Times,serif" font-size="14.00">val = c</text>
<polyline fill="none" stroke="#964b00" points="148,-22.5 271.72,-22.5"/>
<text xml:space="preserve" text-anchor="middle" x="178.5" y="-7.3" font-family="Times,serif" font-size="14.00">0</text>
<polyline fill="none" stroke="#964b00" points="209,-0.5 209,-22.5"/>
<text xml:space="preserve" text-anchor="middle" x="240" y="-7.3" font-family="Times,serif" font-size="14.00">0</text>
</g>
<!-- node_0x6060000093e0&#45;&gt;node_0x606000005d20 -->
<g id="edge4" class="edge">
<title>node_0x6060000093e0&#45;&gt;node_0x606000005d20</title>
<path fill="none" stroke="#964b00" d="M209.86,-113.7C209.86,-102.05 209.86,-89.47 209.86,-77.84"/>
<polygon fill="#964b00" stroke="#964b00" points="206.36,-113.67 209.86,-123.67 213.36,-113.67 206.36,-113.67"/>
<polygon fill="#964b00" stroke="#964b00" points="213.36,-78.11 209.86,-68.11 206.36,-78.11 213.36,-78.11"/>
</g>
</g>
</svg>
