<?xml version="1.0" encoding="UTF-8" standalone="no"?>
<!DOCTYPE svg PUBLIC "-//W3C//DTD SVG 1.1//EN"
 "http://www.w3.org/Graphics/SVG/1.1/DTD/svg11.dtd">
<!-- Generated by graphviz version 14.0.2 (20251019.1705)
 -->
<!-- Title: G Pages: 1 -->
<svg width="430pt" height="700pt"
 viewBox="0.00 0.00 430.00 700.00" xmlns="http://www.w3.org/2000/svg" xmlns:xlink="http://www.w3.org/1999/xlink">
<g id="graph0" class="graph" transform="scale(1 1) rotate(0) translate(4 696)">
<title>G</title>
<polygon fill="#fffafa" stroke="none" points="-4,4 -4,-696 425.92,-696 425.92,4 -4,4"/>
<!-- node_0x606000006da0 -->
<g id="node1" class="node">
<title>node_0x606000006da0</title>
<path fill="#a7a7f2" stroke="#964b00" d="M28.6,-625.5C28.6,-625.5 243.12,-625.5 243.12,-625.5 249.12,-625.5 255.12,-631.5 255.12,-637.5 255.12,-637.5 255.12,-679.5 255.12,-679.5 255.12,-685.5 249.12,-691.5 243.12,-691.5 243.12,-691.5 28.6,-691.5 28.6,-691.5 22.6,-691.5 16.6,-685.5 16.6,-679.5 16.6,-679.5 16.6,-637.5 16.6,-637.5 16.6,-631.5 22.6,-625.5 28.6,-625.5"/>
<text xml:space="preserve" text-anchor="middle" x="135.49" y="-676.3" font-family="Times,serif" font-size="14.00">type = FUNCTION</text>
<polyline fill="none" stroke="#964b00" points="16.6,-669.5 255.12,-669.5"/>
<text xml:space="preserve" text-anchor="middle" x="135.86" y="-654.3" font-family="Times,serif" font-size="14.00">val = Che_cazzo_find_smaller_solution</text>
<polyline fill="none" stroke="#964b00" points="16.6,-647.5 255.12,-647.5"/>
<text xml:space="preserve" text-anchor="middle" x="76.1" y="-632.3" font-family="Times,serif" font-size="14.00">0</text>
<polyline fill="none" stroke="#964b00" points="135.6,-625.5 135.6,-647.5"/>
<text xml:space="preserve" text-anchor="middle" x="195.1" y="-632.3" font-family="Times,serif" font-size="14.00">0</text>
</g>
<!-- node_0x606000006ec0 -->
<g id="node2" class="node">
<title>node_0x606000006ec0</title>
<path fill="#00ffff" stroke="#964b00" d="M83.8,-500.5C83.8,-500.5 187.92,-500.5 187.92,-500.5 193.92,-500.5 199.92,-506.5 199.92,-512.5 199.92,-512.5 199.92,-554.5 199.92,-554.5 199.92,-560.5 193.92,-566.5 187.92,-566.5 187.92,-566.5 83.8,-566.5 83.8,-566.5 77.8,-566.5 71.8,-560.5 71.8,-554.5 71.8,-554.5 71.8,-512.5 71.8,-512.5 71.8,-506.5 77.8,-500.5 83.8,-500.5"/>
<text xml:space="preserve" text-anchor="middle" x="135.85" y="-551.3" font-family="Times,serif" font-size="14.00">type = OPERATOR</text>
<polyline fill="none" stroke="#964b00" points="71.8,-544.5 199.92,-544.5"/>
<text xml:space="preserve" text-anchor="middle" x="135.86" y="-529.3" font-family="Times,serif" font-size="14.00">val = 19(OP_COM)</text>
<polyline fill="none" stroke="#964b00" points="71.8,-522.5 199.92,-522.5"/>
<text xml:space="preserve" text-anchor="middle" x="103.58" y="-507.3" font-family="Times,serif" font-size="14.00">L</text>
<polyline fill="none" stroke="#964b00" points="135.35,-500.5 135.35,-522.5"/>
<text xml:space="preserve" text-anchor="middle" x="167.52" y="-507.3" font-family="Times,serif" font-size="14.00">R</text>
</g>
<!-- node_0x606000006da0&#45;&gt;node_0x606000006ec0 -->
<g id="edge1" class="edge">
<title>node_0x606000006da0&#45;&gt;node_0x606000006ec0</title>
<path fill="none" stroke="#964b00" d="M135.86,-613.7C135.86,-602.05 135.86,-589.47 135.86,-577.84"/>
<polygon fill="#964b00" stroke="#964b00" points="132.36,-613.67 135.86,-623.67 139.36,-613.67 132.36,-613.67"/>
<polygon fill="#964b00" stroke="#964b00" points="139.36,-578.11 135.86,-568.11 132.36,-578.11 139.36,-578.11"/>
</g>
<!-- node_0x606000006e60 -->
<g id="node3" class="node">
<title>node_0x606000006e60</title>
<path fill="#daa520" stroke="#964b00" d="M12,-375.5C12,-375.5 111.72,-375.5 111.72,-375.5 117.72,-375.5 123.72,-381.5 123.72,-387.5 123.72,-387.5 123.72,-429.5 123.72,-429.5 123.72,-435.5 117.72,-441.5 111.72,-441.5 111.72,-441.5 12,-441.5 12,-441.5 6,-441.5 0,-435.5 0,-429.5 0,-429.5 0,-387.5 0,-387.5 0,-381.5 6,-375.5 12,-375.5"/>
<text xml:space="preserve" text-anchor="middle" x="61.86" y="-426.3" font-family="Times,serif" font-size="14.00">type = VARIABLE</text>
<polyline fill="none" stroke="#964b00" points="0,-419.5 123.72,-419.5"/>
<text xml:space="preserve" text-anchor="middle" x="61.61" y="-404.3" font-family="Times,serif" font-size="14.00">val = a</text>
<polyline fill="none" stroke="#964b00" points="0,-397.5 123.72,-397.5"/>
<text xml:space="preserve" text-anchor="middle" x="30.5" y="-382.3" font-family="Times,serif" font-size="14.00">0</text>
<polyline fill="none" stroke="#964b00" points="61,-375.5 61,-397.5"/>
<text xml:space="preserve" text-anchor="middle" x="92" y="-382.3" font-family="Times,serif" font-size="14.00">0</text>
</g>
<!-- node_0x606000006ec0&#45;&gt;node_0x606000006e60 -->
<g id="edge2" class="edge">
<title>node_0x606000006ec0&#45;&gt;node_0x606000006e60</title>
<path fill="none" stroke="#964b00" d="M110.6,-490.52C103.01,-477.89 94.67,-464.04 87.08,-451.41"/>
<polygon fill="#964b00" stroke="#964b00" points="107.48,-492.12 115.64,-498.89 113.48,-488.51 107.48,-492.12"/>
<polygon fill="#964b00" stroke="#964b00" points="90.11,-449.66 81.95,-442.9 84.11,-453.27 90.11,-449.66"/>
</g>
<!-- node_0x606000006f80 -->
<g id="node4" class="node">
<title>node_0x606000006f80</title>
<path fill="#00ffff" stroke="#964b00" d="M157.8,-375.5C157.8,-375.5 261.92,-375.5 261.92,-375.5 267.92,-375.5 273.92,-381.5 273.92,-387.5 273.92,-387.5 273.92,-429.5 273.92,-429.5 273.92,-435.5 267.92,-441.5 261.92,-441.5 261.92,-441.5 157.8,-441.5 157.8,-441.5 151.8,-441.5 145.8,-435.5 145.8,-429.5 145.8,-429.5 145.8,-387.5 145.8,-387.5 145.8,-381.5 151.8,-375.5 157.8,-375.5"/>
<text xml:space="preserve" text-anchor="middle" x="209.85" y="-426.3" font-family="Times,serif" font-size="14.00">type = OPERATOR</text>
<polyline fill="none" stroke="#964b00" points="145.8,-419.5 273.92,-419.5"/>
<text xml:space="preserve" text-anchor="middle" x="209.86" y="-404.3" font-family="Times,serif" font-size="14.00">val = 19(OP_COM)</text>
<polyline fill="none" stroke="#964b00" points="145.8,-397.5 273.92,-397.5"/>
<text xml:space="preserve" text-anchor="middle" x="177.58" y="-382.3" font-family="Times,serif" font-size="14.00">L</text>
<polyline fill="none" stroke="#964b00" points="209.35,-375.5 209.35,-397.5"/>
<text xml:space="preserve" text-anchor="middle" x="241.52" y="-382.3" font-family="Times,serif" font-size="14.00">R</text>
</g>
<!-- node_0x606000006ec0&#45;&gt;node_0x606000006f80 -->
<g id="edge3" class="edge">
<title>node_0x606000006ec0&#45;&gt;node_0x606000006f80</title>
<path fill="none" stroke="#964b00" d="M161.12,-490.52C168.72,-477.89 177.05,-464.04 184.64,-451.41"/>
<polygon fill="#964b00" stroke="#964b00" points="158.24,-488.51 156.08,-498.89 164.24,-492.12 158.24,-488.51"/>
<polygon fill="#964b00" stroke="#964b00" points="187.61,-453.27 189.77,-442.9 181.61,-449.66 187.61,-453.27"/>
</g>
<!-- node_0x606000006f20 -->
<g id="node5" class="node">
<title>node_0x606000006f20</title>
<path fill="#daa520" stroke="#964b00" d="M86,-250.5C86,-250.5 185.72,-250.5 185.72,-250.5 191.72,-250.5 197.72,-256.5 197.72,-262.5 197.72,-262.5 197.72,-304.5 197.72,-304.5 197.72,-310.5 191.72,-316.5 185.72,-316.5 185.72,-316.5 86,-316.5 86,-316.5 80,-316.5 74,-310.5 74,-304.5 74,-304.5 74,-262.5 74,-262.5 74,-256.5 80,-250.5 86,-250.5"/>
<text xml:space="preserve" text-anchor="middle" x="135.86" y="-301.3" font-family="Times,serif" font-size="14.00">type = VARIABLE</text>
<polyline fill="none" stroke="#964b00" points="74,-294.5 197.72,-294.5"/>
<text xml:space="preserve" text-anchor="middle" x="135.5" y="-279.3" font-family="Times,serif" font-size="14.00">val = b</text>
<polyline fill="none" stroke="#964b00" points="74,-272.5 197.72,-272.5"/>
<text xml:space="preserve" text-anchor="middle" x="104.5" y="-257.3" font-family="Times,serif" font-size="14.00">0</text>
<polyline fill="none" stroke="#964b00" points="135,-250.5 135,-272.5"/>
<text xml:space="preserve" text-anchor="middle" x="166" y="-257.3" font-family="Times,serif" font-size="14.00">0</text>
</g>
<!-- node_0x606000006f80&#45;&gt;node_0x606000006f20 -->
<g id="edge4" class="edge">
<title>node_0x606000006f80&#45;&gt;node_0x606000006f20</title>
<path fill="none" stroke="#964b00" d="M184.6,-365.52C177.01,-352.89 168.67,-339.04 161.08,-326.41"/>
<polygon fill="#964b00" stroke="#964b00" points="181.48,-367.12 189.64,-373.89 187.48,-363.51 181.48,-367.12"/>
<polygon fill="#964b00" stroke="#964b00" points="164.11,-324.66 155.95,-317.9 158.11,-328.27 164.11,-324.66"/>
</g>
<!-- node_0x606000007040 -->
<g id="node6" class="node">
<title>node_0x606000007040</title>
<path fill="#00ffff" stroke="#964b00" d="M231.8,-250.5C231.8,-250.5 335.92,-250.5 335.92,-250.5 341.92,-250.5 347.92,-256.5 347.92,-262.5 347.92,-262.5 347.92,-304.5 347.92,-304.5 347.92,-310.5 341.92,-316.5 335.92,-316.5 335.92,-316.5 231.8,-316.5 231.8,-316.5 225.8,-316.5 219.8,-310.5 219.8,-304.5 219.8,-304.5 219.8,-262.5 219.8,-262.5 219.8,-256.5 225.8,-250.5 231.8,-250.5"/>
<text xml:space="preserve" text-anchor="middle" x="283.85" y="-301.3" font-family="Times,serif" font-size="14.00">type = OPERATOR</text>
<polyline fill="none" stroke="#964b00" points="219.8,-294.5 347.92,-294.5"/>
<text xml:space="preserve" text-anchor="middle" x="283.86" y="-279.3" font-family="Times,serif" font-size="14.00">val = 19(OP_COM)</text>
<polyline fill="none" stroke="#964b00" points="219.8,-272.5 347.92,-272.5"/>
<text xml:space="preserve" text-anchor="middle" x="251.58" y="-257.3" font-family="Times,serif" font-size="14.00">L</text>
<polyline fill="none" stroke="#964b00" points="283.35,-250.5 283.35,-272.5"/>
<text xml:space="preserve" text-anchor="middle" x="315.52" y="-257.3" font-family="Times,serif" font-size="14.00">R</text>
</g>
<!-- node_0x606000006f80&#45;&gt;node_0x606000007040 -->
<g id="edge5" class="edge">
<title>node_0x606000006f80&#45;&gt;node_0x606000007040</title>
<path fill="none" stroke="#964b00" d="M235.12,-365.52C242.72,-352.89 251.05,-339.04 258.64,-326.41"/>
<polygon fill="#964b00" stroke="#964b00" points="232.24,-363.51 230.08,-373.89 238.24,-367.12 232.24,-363.51"/>
<polygon fill="#964b00" stroke="#964b00" points="261.61,-328.27 263.77,-317.9 255.61,-324.66 261.61,-328.27"/>
</g>
<!-- node_0x606000006fe0 -->
<g id="node7" class="node">
<title>node_0x606000006fe0</title>
<path fill="#daa520" stroke="#964b00" d="M160,-125.5C160,-125.5 259.72,-125.5 259.72,-125.5 265.72,-125.5 271.72,-131.5 271.72,-137.5 271.72,-137.5 271.72,-179.5 271.72,-179.5 271.72,-185.5 265.72,-191.5 259.72,-191.5 259.72,-191.5 160,-191.5 160,-191.5 154,-191.5 148,-185.5 148,-179.5 148,-179.5 148,-137.5 148,-137.5 148,-131.5 154,-125.5 160,-125.5"/>
<text xml:space="preserve" text-anchor="middle" x="209.86" y="-176.3" font-family="Times,serif" font-size="14.00">type = VARIABLE</text>
<polyline fill="none" stroke="#964b00" points="148,-169.5 271.72,-169.5"/>
<text xml:space="preserve" text-anchor="middle" x="209.61" y="-154.3" font-family="Times,serif" font-size="14.00">val = c</text>
<polyline fill="none" stroke="#964b00" points="148,-147.5 271.72,-147.5"/>
<text xml:space="preserve" text-anchor="middle" x="178.5" y="-132.3" font-family="Times,serif" font-size="14.00">0</text>
<polyline fill="none" stroke="#964b00" points="209,-125.5 209,-147.5"/>
<text xml:space="preserve" text-anchor="middle" x="240" y="-132.3" font-family="Times,serif" font-size="14.00">0</text>
</g>
<!-- node_0x606000007040&#45;&gt;node_0x606000006fe0 -->
<g id="edge6" class="edge">
<title>node_0x606000007040&#45;&gt;node_0x606000006fe0</title>
<path fill="none" stroke="#964b00" d="M258.6,-240.52C251.01,-227.89 242.67,-214.04 235.08,-201.41"/>
<polygon fill="#964b00" stroke="#964b00" points="255.48,-242.12 263.64,-248.89 261.48,-238.51 255.48,-242.12"/>
<polygon fill="#964b00" stroke="#964b00" points="238.11,-199.66 229.95,-192.9 232.11,-203.27 238.11,-199.66"/>
</g>
<!-- node_0x606000009620 -->
<g id="node8" class="node">
<title>node_0x606000009620</title>
<path fill="#00ffff" stroke="#964b00" d="M305.8,-125.5C305.8,-125.5 409.92,-125.5 409.92,-125.5 415.92,-125.5 421.92,-131.5 421.92,-137.5 421.92,-137.5 421.92,-179.5 421.92,-179.5 421.92,-185.5 415.92,-191.5 409.92,-191.5 409.92,-191.5 305.8,-191.5 305.8,-191.5 299.8,-191.5 293.8,-185.5 293.8,-179.5 293.8,-179.5 293.8,-137.5 293.8,-137.5 293.8,-131.5 299.8,-125.5 305.8,-125.5"/>
<text xml:space="preserve" text-anchor="middle" x="357.85" y="-176.3" font-family="Times,serif" font-size="14.00">type = OPERATOR</text>
<polyline fill="none" stroke="#964b00" points="293.8,-169.5 421.92,-169.5"/>
<text xml:space="preserve" text-anchor="middle" x="357.86" y="-154.3" font-family="Times,serif" font-size="14.00">val = 19(OP_COM)</text>
<polyline fill="none" stroke="#964b00" points="293.8,-147.5 421.92,-147.5"/>
<text xml:space="preserve" text-anchor="middle" x="325.58" y="-132.3" font-family="Times,serif" font-size="14.00">L</text>
<polyline fill="none" stroke="#964b00" points="357.35,-125.5 357.35,-147.5"/>
<text xml:space="preserve" text-anchor="middle" x="389.52" y="-132.3" font-family="Times,serif" font-size="14.00">R</text>
</g>
<!-- node_0x606000007040&#45;&gt;node_0x606000009620 -->
<g id="edge7" class="edge">
<title>node_0x606000007040&#45;&gt;node_0x606000009620</title>
<path fill="none" stroke="#964b00" d="M309.12,-240.52C316.72,-227.89 325.05,-214.04 332.64,-201.41"/>
<polygon fill="#964b00" stroke="#964b00" points="306.24,-238.51 304.08,-248.89 312.24,-242.12 306.24,-238.51"/>
<polygon fill="#964b00" stroke="#964b00" points="335.61,-203.27 337.77,-192.9 329.61,-199.66 335.61,-203.27"/>
</g>
<!-- node_0x6060000070a0 -->
<g id="node9" class="node">
<title>node_0x6060000070a0</title>
<path fill="#daa520" stroke="#964b00" d="M308,-0.5C308,-0.5 407.72,-0.5 407.72,-0.5 413.72,-0.5 419.72,-6.5 419.72,-12.5 419.72,-12.5 419.72,-54.5 419.72,-54.5 419.72,-60.5 413.72,-66.5 407.72,-66.5 407.72,-66.5 308,-66.5 308,-66.5 302,-66.5 296,-60.5 296,-54.5 296,-54.5 296,-12.5 296,-12.5 296,-6.5 302,-0.5 308,-0.5"/>
<text xml:space="preserve" text-anchor="middle" x="357.86" y="-51.3" font-family="Times,serif" font-size="14.00">type = VARIABLE</text>
<polyline fill="none" stroke="#964b00" points="296,-44.5 419.72,-44.5"/>
<text xml:space="preserve" text-anchor="middle" x="357.5" y="-29.3" font-family="Times,serif" font-size="14.00">val = d</text>
<polyline fill="none" stroke="#964b00" points="296,-22.5 419.72,-22.5"/>
<text xml:space="preserve" text-anchor="middle" x="326.5" y="-7.3" font-family="Times,serif" font-size="14.00">0</text>
<polyline fill="none" stroke="#964b00" points="357,-0.5 357,-22.5"/>
<text xml:space="preserve" text-anchor="middle" x="388" y="-7.3" font-family="Times,serif" font-size="14.00">0</text>
</g>
<!-- node_0x606000009620&#45;&gt;node_0x6060000070a0 -->
<g id="edge8" class="edge">
<title>node_0x606000009620&#45;&gt;node_0x6060000070a0</title>
<path fill="none" stroke="#964b00" d="M357.86,-113.7C357.86,-102.05 357.86,-89.47 357.86,-77.84"/>
<polygon fill="#964b00" stroke="#964b00" points="354.36,-113.67 357.86,-123.67 361.36,-113.67 354.36,-113.67"/>
<polygon fill="#964b00" stroke="#964b00" points="361.36,-78.11 357.86,-68.11 354.36,-78.11 361.36,-78.11"/>
</g>
</g>
</svg>
