<?xml version="1.0" encoding="UTF-8" standalone="no"?>
<!DOCTYPE svg PUBLIC "-//W3C//DTD SVG 1.1//EN"
 "http://www.w3.org/Graphics/SVG/1.1/DTD/svg11.dtd">
<!-- Generated by graphviz version 14.0.2 (20251019.1705)
 -->
<!-- Title: G Pages: 1 -->
<svg width="448pt" height="450pt"
 viewBox="0.00 0.00 448.00 450.00" xmlns="http://www.w3.org/2000/svg" xmlns:xlink="http://www.w3.org/1999/xlink">
<g id="graph0" class="graph" transform="scale(1 1) rotate(0) translate(4 446)">
<title>G</title>
<polygon fill="#fffafa" stroke="none" points="-4,4 -4,-446 443.69,-446 443.69,4 -4,4"/>
<!-- node_0x606000009500 -->
<g id="node1" class="node">
<title>node_0x606000009500</title>
<path fill="#00ffff" stroke="#964b00" d="M236.31,-375.5C236.31,-375.5 339.41,-375.5 339.41,-375.5 345.41,-375.5 351.41,-381.5 351.41,-387.5 351.41,-387.5 351.41,-429.5 351.41,-429.5 351.41,-435.5 345.41,-441.5 339.41,-441.5 339.41,-441.5 236.31,-441.5 236.31,-441.5 230.31,-441.5 224.31,-435.5 224.31,-429.5 224.31,-429.5 224.31,-387.5 224.31,-387.5 224.31,-381.5 230.31,-375.5 236.31,-375.5"/>
<text xml:space="preserve" text-anchor="middle" x="287.86" y="-426.3" font-family="Times,serif" font-size="14.00">type = OPERATOR</text>
<polyline fill="none" stroke="#964b00" points="224.31,-419.5 351.41,-419.5"/>
<text xml:space="preserve" text-anchor="middle" x="287.65" y="-404.3" font-family="Times,serif" font-size="14.00">val = 18(OP_CFB)</text>
<polyline fill="none" stroke="#964b00" points="224.31,-397.5 351.41,-397.5"/>
<text xml:space="preserve" text-anchor="middle" x="255.59" y="-382.3" font-family="Times,serif" font-size="14.00">L</text>
<polyline fill="none" stroke="#964b00" points="286.86,-375.5 286.86,-397.5"/>
<text xml:space="preserve" text-anchor="middle" x="319.03" y="-382.3" font-family="Times,serif" font-size="14.00">R</text>
</g>
<!-- node_0x6060000063e0 -->
<g id="node2" class="node">
<title>node_0x6060000063e0</title>
<path fill="#00ffff" stroke="#964b00" d="M236.31,-250.5C236.31,-250.5 339.41,-250.5 339.41,-250.5 345.41,-250.5 351.41,-256.5 351.41,-262.5 351.41,-262.5 351.41,-304.5 351.41,-304.5 351.41,-310.5 345.41,-316.5 339.41,-316.5 339.41,-316.5 236.31,-316.5 236.31,-316.5 230.31,-316.5 224.31,-310.5 224.31,-304.5 224.31,-304.5 224.31,-262.5 224.31,-262.5 224.31,-256.5 230.31,-250.5 236.31,-250.5"/>
<text xml:space="preserve" text-anchor="middle" x="287.86" y="-301.3" font-family="Times,serif" font-size="14.00">type = OPERATOR</text>
<polyline fill="none" stroke="#964b00" points="224.31,-294.5 351.41,-294.5"/>
<text xml:space="preserve" text-anchor="middle" x="287.65" y="-279.3" font-family="Times,serif" font-size="14.00">val = 12(OP_IF)</text>
<polyline fill="none" stroke="#964b00" points="224.31,-272.5 351.41,-272.5"/>
<text xml:space="preserve" text-anchor="middle" x="255.59" y="-257.3" font-family="Times,serif" font-size="14.00">L</text>
<polyline fill="none" stroke="#964b00" points="286.86,-250.5 286.86,-272.5"/>
<text xml:space="preserve" text-anchor="middle" x="319.03" y="-257.3" font-family="Times,serif" font-size="14.00">R</text>
</g>
<!-- node_0x606000009500&#45;&gt;node_0x6060000063e0 -->
<g id="edge1" class="edge">
<title>node_0x606000009500&#45;&gt;node_0x6060000063e0</title>
<path fill="none" stroke="#964b00" d="M287.86,-363.7C287.86,-352.05 287.86,-339.47 287.86,-327.84"/>
<polygon fill="#964b00" stroke="#964b00" points="284.36,-363.67 287.86,-373.67 291.36,-363.67 284.36,-363.67"/>
<polygon fill="#964b00" stroke="#964b00" points="291.36,-328.11 287.86,-318.11 284.36,-328.11 291.36,-328.11"/>
</g>
<!-- node_0x606000006500 -->
<g id="node3" class="node">
<title>node_0x606000006500</title>
<path fill="#00ffff" stroke="#964b00" d="M162.31,-125.5C162.31,-125.5 265.41,-125.5 265.41,-125.5 271.41,-125.5 277.41,-131.5 277.41,-137.5 277.41,-137.5 277.41,-179.5 277.41,-179.5 277.41,-185.5 271.41,-191.5 265.41,-191.5 265.41,-191.5 162.31,-191.5 162.31,-191.5 156.31,-191.5 150.31,-185.5 150.31,-179.5 150.31,-179.5 150.31,-137.5 150.31,-137.5 150.31,-131.5 156.31,-125.5 162.31,-125.5"/>
<text xml:space="preserve" text-anchor="middle" x="213.86" y="-176.3" font-family="Times,serif" font-size="14.00">type = OPERATOR</text>
<polyline fill="none" stroke="#964b00" points="150.31,-169.5 277.41,-169.5"/>
<text xml:space="preserve" text-anchor="middle" x="213.47" y="-154.3" font-family="Times,serif" font-size="14.00">val = 10(OP_LE)</text>
<polyline fill="none" stroke="#964b00" points="150.31,-147.5 277.41,-147.5"/>
<text xml:space="preserve" text-anchor="middle" x="181.59" y="-132.3" font-family="Times,serif" font-size="14.00">L</text>
<polyline fill="none" stroke="#964b00" points="212.86,-125.5 212.86,-147.5"/>
<text xml:space="preserve" text-anchor="middle" x="245.03" y="-132.3" font-family="Times,serif" font-size="14.00">R</text>
</g>
<!-- node_0x6060000063e0&#45;&gt;node_0x606000006500 -->
<g id="edge2" class="edge">
<title>node_0x6060000063e0&#45;&gt;node_0x606000006500</title>
<path fill="none" stroke="#964b00" d="M262.6,-240.52C255.01,-227.89 246.67,-214.04 239.08,-201.41"/>
<polygon fill="#964b00" stroke="#964b00" points="259.48,-242.12 267.64,-248.89 265.48,-238.51 259.48,-242.12"/>
<polygon fill="#964b00" stroke="#964b00" points="242.11,-199.66 233.95,-192.9 236.11,-203.27 242.11,-199.66"/>
</g>
<!-- node_0x606000006680 -->
<g id="node6" class="node">
<title>node_0x606000006680</title>
<path fill="#00ffff" stroke="#964b00" d="M315.31,-125.5C315.31,-125.5 418.41,-125.5 418.41,-125.5 424.41,-125.5 430.41,-131.5 430.41,-137.5 430.41,-137.5 430.41,-179.5 430.41,-179.5 430.41,-185.5 424.41,-191.5 418.41,-191.5 418.41,-191.5 315.31,-191.5 315.31,-191.5 309.31,-191.5 303.31,-185.5 303.31,-179.5 303.31,-179.5 303.31,-137.5 303.31,-137.5 303.31,-131.5 309.31,-125.5 315.31,-125.5"/>
<text xml:space="preserve" text-anchor="middle" x="366.86" y="-176.3" font-family="Times,serif" font-size="14.00">type = OPERATOR</text>
<polyline fill="none" stroke="#964b00" points="303.31,-169.5 430.41,-169.5"/>
<text xml:space="preserve" text-anchor="middle" x="366.64" y="-154.3" font-family="Times,serif" font-size="14.00">val = 20(OP_RET)</text>
<polyline fill="none" stroke="#964b00" points="303.31,-147.5 430.41,-147.5"/>
<text xml:space="preserve" text-anchor="middle" x="334.59" y="-132.3" font-family="Times,serif" font-size="14.00">L</text>
<polyline fill="none" stroke="#964b00" points="365.86,-125.5 365.86,-147.5"/>
<text xml:space="preserve" text-anchor="middle" x="398.03" y="-132.3" font-family="Times,serif" font-size="14.00">R</text>
</g>
<!-- node_0x6060000063e0&#45;&gt;node_0x606000006680 -->
<g id="edge5" class="edge">
<title>node_0x6060000063e0&#45;&gt;node_0x606000006680</title>
<path fill="none" stroke="#964b00" d="M314.82,-240.52C323.02,-227.76 332.01,-213.76 340.18,-201.04"/>
<polygon fill="#964b00" stroke="#964b00" points="311.89,-238.6 309.43,-248.91 317.78,-242.39 311.89,-238.6"/>
<polygon fill="#964b00" stroke="#964b00" points="342.97,-203.18 345.42,-192.87 337.08,-199.4 342.97,-203.18"/>
</g>
<!-- node_0x6060000064a0 -->
<g id="node4" class="node">
<title>node_0x6060000064a0</title>
<path fill="#daa520" stroke="#964b00" d="M12,-0.5C12,-0.5 111.72,-0.5 111.72,-0.5 117.72,-0.5 123.72,-6.5 123.72,-12.5 123.72,-12.5 123.72,-54.5 123.72,-54.5 123.72,-60.5 117.72,-66.5 111.72,-66.5 111.72,-66.5 12,-66.5 12,-66.5 6,-66.5 0,-60.5 0,-54.5 0,-54.5 0,-12.5 0,-12.5 0,-6.5 6,-0.5 12,-0.5"/>
<text xml:space="preserve" text-anchor="middle" x="61.86" y="-51.3" font-family="Times,serif" font-size="14.00">type = VARIABLE</text>
<polyline fill="none" stroke="#964b00" points="0,-44.5 123.72,-44.5"/>
<text xml:space="preserve" text-anchor="middle" x="61.5" y="-29.3" font-family="Times,serif" font-size="14.00">val = d</text>
<polyline fill="none" stroke="#964b00" points="0,-22.5 123.72,-22.5"/>
<text xml:space="preserve" text-anchor="middle" x="30.5" y="-7.3" font-family="Times,serif" font-size="14.00">0</text>
<polyline fill="none" stroke="#964b00" points="61,-0.5 61,-22.5"/>
<text xml:space="preserve" text-anchor="middle" x="92" y="-7.3" font-family="Times,serif" font-size="14.00">0</text>
</g>
<!-- node_0x606000006500&#45;&gt;node_0x6060000064a0 -->
<g id="edge3" class="edge">
<title>node_0x606000006500&#45;&gt;node_0x6060000064a0</title>
<path fill="none" stroke="#964b00" d="M165.07,-118.02C147.67,-103.94 128.08,-88.08 110.67,-74"/>
<polygon fill="#964b00" stroke="#964b00" points="162.77,-120.66 172.75,-124.23 167.18,-115.22 162.77,-120.66"/>
<polygon fill="#964b00" stroke="#964b00" points="112.95,-71.34 102.97,-67.77 108.54,-76.78 112.95,-71.34"/>
</g>
<!-- node_0x606000006560 -->
<g id="node5" class="node">
<title>node_0x606000006560</title>
<path fill="#98fb98" stroke="#964b00" d="M158.04,-0.5C158.04,-0.5 269.69,-0.5 269.69,-0.5 275.69,-0.5 281.69,-6.5 281.69,-12.5 281.69,-12.5 281.69,-54.5 281.69,-54.5 281.69,-60.5 275.69,-66.5 269.69,-66.5 269.69,-66.5 158.04,-66.5 158.04,-66.5 152.04,-66.5 146.04,-60.5 146.04,-54.5 146.04,-54.5 146.04,-12.5 146.04,-12.5 146.04,-6.5 152.04,-0.5 158.04,-0.5"/>
<text xml:space="preserve" text-anchor="middle" x="213.86" y="-51.3" font-family="Times,serif" font-size="14.00">type = CONST_VAR</text>
<polyline fill="none" stroke="#964b00" points="146.04,-44.5 281.69,-44.5"/>
<text xml:space="preserve" text-anchor="middle" x="213.54" y="-29.3" font-family="Times,serif" font-size="14.00">val = 0</text>
<polyline fill="none" stroke="#964b00" points="146.04,-22.5 281.69,-22.5"/>
<text xml:space="preserve" text-anchor="middle" x="179.54" y="-7.3" font-family="Times,serif" font-size="14.00">0</text>
<polyline fill="none" stroke="#964b00" points="213.04,-0.5 213.04,-22.5"/>
<text xml:space="preserve" text-anchor="middle" x="247.04" y="-7.3" font-family="Times,serif" font-size="14.00">0</text>
</g>
<!-- node_0x606000006500&#45;&gt;node_0x606000006560 -->
<g id="edge4" class="edge">
<title>node_0x606000006500&#45;&gt;node_0x606000006560</title>
<path fill="none" stroke="#964b00" d="M213.86,-113.7C213.86,-102.05 213.86,-89.47 213.86,-77.84"/>
<polygon fill="#964b00" stroke="#964b00" points="210.36,-113.67 213.86,-123.67 217.36,-113.67 210.36,-113.67"/>
<polygon fill="#964b00" stroke="#964b00" points="217.36,-78.11 213.86,-68.11 210.36,-78.11 217.36,-78.11"/>
</g>
<!-- node_0x6060000066e0 -->
<g id="node7" class="node">
<title>node_0x6060000066e0</title>
<path fill="#98fb98" stroke="#964b00" d="M316.04,-0.5C316.04,-0.5 427.69,-0.5 427.69,-0.5 433.69,-0.5 439.69,-6.5 439.69,-12.5 439.69,-12.5 439.69,-54.5 439.69,-54.5 439.69,-60.5 433.69,-66.5 427.69,-66.5 427.69,-66.5 316.04,-66.5 316.04,-66.5 310.04,-66.5 304.04,-60.5 304.04,-54.5 304.04,-54.5 304.04,-12.5 304.04,-12.5 304.04,-6.5 310.04,-0.5 316.04,-0.5"/>
<text xml:space="preserve" text-anchor="middle" x="371.86" y="-51.3" font-family="Times,serif" font-size="14.00">type = CONST_VAR</text>
<polyline fill="none" stroke="#964b00" points="304.04,-44.5 439.69,-44.5"/>
<text xml:space="preserve" text-anchor="middle" x="371.54" y="-29.3" font-family="Times,serif" font-size="14.00">val = 0</text>
<polyline fill="none" stroke="#964b00" points="304.04,-22.5 439.69,-22.5"/>
<text xml:space="preserve" text-anchor="middle" x="337.54" y="-7.3" font-family="Times,serif" font-size="14.00">0</text>
<polyline fill="none" stroke="#964b00" points="371.04,-0.5 371.04,-22.5"/>
<text xml:space="preserve" text-anchor="middle" x="405.04" y="-7.3" font-family="Times,serif" font-size="14.00">0</text>
</g>
<!-- node_0x606000006680&#45;&gt;node_0x6060000066e0 -->
<g id="edge6" class="edge">
<title>node_0x606000006680&#45;&gt;node_0x6060000066e0</title>
<path fill="none" stroke="#964b00" d="M368.64,-113.7C369.11,-102.05 369.63,-89.47 370.1,-77.84"/>
<polygon fill="#964b00" stroke="#964b00" points="365.14,-113.54 368.24,-123.67 372.14,-113.82 365.14,-113.54"/>
<polygon fill="#964b00" stroke="#964b00" points="373.58,-78.25 370.49,-68.11 366.59,-77.96 373.58,-78.25"/>
</g>
</g>
</svg>
