<?xml version="1.0" encoding="UTF-8" standalone="no"?>
<!DOCTYPE svg PUBLIC "-//W3C//DTD SVG 1.1//EN"
 "http://www.w3.org/Graphics/SVG/1.1/DTD/svg11.dtd">
<!-- Generated by graphviz version 14.0.2 (20251019.1705)
 -->
<!-- Title: G Pages: 1 -->
<svg width="338pt" height="450pt"
 viewBox="0.00 0.00 338.00 450.00" xmlns="http://www.w3.org/2000/svg" xmlns:xlink="http://www.w3.org/1999/xlink">
<g id="graph0" class="graph" transform="scale(1 1) rotate(0) translate(4 446)">
<title>G</title>
<polygon fill="#fffafa" stroke="none" points="-4,4 -4,-446 334.04,-446 334.04,4 -4,4"/>
<!-- node_0x606000005180 -->
<g id="node1" class="node">
<title>node_0x606000005180</title>
<path fill="#00ffff" stroke="#964b00" d="M121.39,-375.5C121.39,-375.5 227.05,-375.5 227.05,-375.5 233.05,-375.5 239.05,-381.5 239.05,-387.5 239.05,-387.5 239.05,-429.5 239.05,-429.5 239.05,-435.5 233.05,-441.5 227.05,-441.5 227.05,-441.5 121.39,-441.5 121.39,-441.5 115.39,-441.5 109.39,-435.5 109.39,-429.5 109.39,-429.5 109.39,-387.5 109.39,-387.5 109.39,-381.5 115.39,-375.5 121.39,-375.5"/>
<text xml:space="preserve" text-anchor="middle" x="173.94" y="-426.3" font-family="Times,serif" font-size="14.00">type = OPERATOR</text>
<polyline fill="none" stroke="#964b00" points="109.39,-419.5 239.05,-419.5"/>
<text xml:space="preserve" text-anchor="middle" x="174.22" y="-404.3" font-family="Times,serif" font-size="14.00">val = 13(OP_ELSE)</text>
<polyline fill="none" stroke="#964b00" points="109.39,-397.5 239.05,-397.5"/>
<text xml:space="preserve" text-anchor="middle" x="141.16" y="-382.3" font-family="Times,serif" font-size="14.00">L</text>
<polyline fill="none" stroke="#964b00" points="172.94,-375.5 172.94,-397.5"/>
<text xml:space="preserve" text-anchor="middle" x="205.61" y="-382.3" font-family="Times,serif" font-size="14.00">R</text>
</g>
<!-- node_0x606000005360 -->
<g id="node2" class="node">
<title>node_0x606000005360</title>
<path fill="#00ffff" stroke="#964b00" d="M122.67,-250.5C122.67,-250.5 225.77,-250.5 225.77,-250.5 231.77,-250.5 237.77,-256.5 237.77,-262.5 237.77,-262.5 237.77,-304.5 237.77,-304.5 237.77,-310.5 231.77,-316.5 225.77,-316.5 225.77,-316.5 122.67,-316.5 122.67,-316.5 116.67,-316.5 110.67,-310.5 110.67,-304.5 110.67,-304.5 110.67,-262.5 110.67,-262.5 110.67,-256.5 116.67,-250.5 122.67,-250.5"/>
<text xml:space="preserve" text-anchor="middle" x="174.22" y="-301.3" font-family="Times,serif" font-size="14.00">type = OPERATOR</text>
<polyline fill="none" stroke="#964b00" points="110.67,-294.5 237.77,-294.5"/>
<text xml:space="preserve" text-anchor="middle" x="173.81" y="-279.3" font-family="Times,serif" font-size="14.00">val = 11(OP_SP)</text>
<polyline fill="none" stroke="#964b00" points="110.67,-272.5 237.77,-272.5"/>
<text xml:space="preserve" text-anchor="middle" x="141.94" y="-257.3" font-family="Times,serif" font-size="14.00">L</text>
<polyline fill="none" stroke="#964b00" points="173.22,-250.5 173.22,-272.5"/>
<text xml:space="preserve" text-anchor="middle" x="205.39" y="-257.3" font-family="Times,serif" font-size="14.00">R</text>
</g>
<!-- node_0x606000005180&#45;&gt;node_0x606000005360 -->
<g id="edge1" class="edge">
<title>node_0x606000005180&#45;&gt;node_0x606000005360</title>
<path fill="none" stroke="#964b00" d="M174.22,-363.7C174.22,-352.05 174.22,-339.47 174.22,-327.84"/>
<polygon fill="#964b00" stroke="#964b00" points="170.72,-363.67 174.22,-373.67 177.72,-363.67 170.72,-363.67"/>
<polygon fill="#964b00" stroke="#964b00" points="177.72,-328.11 174.22,-318.11 170.72,-328.11 177.72,-328.11"/>
</g>
<!-- node_0x6060000052a0 -->
<g id="node3" class="node">
<title>node_0x6060000052a0</title>
<path fill="#00ffff" stroke="#964b00" d="M122.67,-125.5C122.67,-125.5 225.77,-125.5 225.77,-125.5 231.77,-125.5 237.77,-131.5 237.77,-137.5 237.77,-137.5 237.77,-179.5 237.77,-179.5 237.77,-185.5 231.77,-191.5 225.77,-191.5 225.77,-191.5 122.67,-191.5 122.67,-191.5 116.67,-191.5 110.67,-185.5 110.67,-179.5 110.67,-179.5 110.67,-137.5 110.67,-137.5 110.67,-131.5 116.67,-125.5 122.67,-125.5"/>
<text xml:space="preserve" text-anchor="middle" x="174.22" y="-176.3" font-family="Times,serif" font-size="14.00">type = OPERATOR</text>
<polyline fill="none" stroke="#964b00" points="110.67,-169.5 237.77,-169.5"/>
<text xml:space="preserve" text-anchor="middle" x="174.12" y="-154.3" font-family="Times,serif" font-size="14.00">val = 7(OP_ASS)</text>
<polyline fill="none" stroke="#964b00" points="110.67,-147.5 237.77,-147.5"/>
<text xml:space="preserve" text-anchor="middle" x="141.94" y="-132.3" font-family="Times,serif" font-size="14.00">L</text>
<polyline fill="none" stroke="#964b00" points="173.22,-125.5 173.22,-147.5"/>
<text xml:space="preserve" text-anchor="middle" x="205.39" y="-132.3" font-family="Times,serif" font-size="14.00">R</text>
</g>
<!-- node_0x606000005360&#45;&gt;node_0x6060000052a0 -->
<g id="edge2" class="edge">
<title>node_0x606000005360&#45;&gt;node_0x6060000052a0</title>
<path fill="none" stroke="#964b00" d="M174.22,-238.7C174.22,-227.05 174.22,-214.47 174.22,-202.84"/>
<polygon fill="#964b00" stroke="#964b00" points="170.72,-238.67 174.22,-248.67 177.72,-238.67 170.72,-238.67"/>
<polygon fill="#964b00" stroke="#964b00" points="177.72,-203.11 174.22,-193.11 170.72,-203.11 177.72,-203.11"/>
</g>
<!-- node_0x606000005240 -->
<g id="node4" class="node">
<title>node_0x606000005240</title>
<path fill="#daa520" stroke="#964b00" d="M12,-0.5C12,-0.5 160.43,-0.5 160.43,-0.5 166.43,-0.5 172.43,-6.5 172.43,-12.5 172.43,-12.5 172.43,-54.5 172.43,-54.5 172.43,-60.5 166.43,-66.5 160.43,-66.5 160.43,-66.5 12,-66.5 12,-66.5 6,-66.5 0,-60.5 0,-54.5 0,-54.5 0,-12.5 0,-12.5 0,-6.5 6,-0.5 12,-0.5"/>
<text xml:space="preserve" text-anchor="middle" x="85.86" y="-51.3" font-family="Times,serif" font-size="14.00">type = VARIABLE</text>
<polyline fill="none" stroke="#964b00" points="0,-44.5 172.43,-44.5"/>
<text xml:space="preserve" text-anchor="middle" x="86.22" y="-29.3" font-family="Times,serif" font-size="14.00">val = quantaty_of_solutions</text>
<polyline fill="none" stroke="#964b00" points="0,-22.5 172.43,-22.5"/>
<text xml:space="preserve" text-anchor="middle" x="43" y="-7.3" font-family="Times,serif" font-size="14.00">0</text>
<polyline fill="none" stroke="#964b00" points="86,-0.5 86,-22.5"/>
<text xml:space="preserve" text-anchor="middle" x="129" y="-7.3" font-family="Times,serif" font-size="14.00">0</text>
</g>
<!-- node_0x6060000052a0&#45;&gt;node_0x606000005240 -->
<g id="edge3" class="edge">
<title>node_0x6060000052a0&#45;&gt;node_0x606000005240</title>
<path fill="none" stroke="#964b00" d="M144.5,-115.97C135.23,-103 125,-88.7 115.73,-75.75"/>
<polygon fill="#964b00" stroke="#964b00" points="141.55,-117.86 150.22,-123.95 147.24,-113.78 141.55,-117.86"/>
<polygon fill="#964b00" stroke="#964b00" points="118.73,-73.93 110.06,-67.83 113.04,-78 118.73,-73.93"/>
</g>
<!-- node_0x606000005300 -->
<g id="node5" class="node">
<title>node_0x606000005300</title>
<path fill="#98fb98" stroke="#964b00" d="M206.39,-0.5C206.39,-0.5 318.04,-0.5 318.04,-0.5 324.04,-0.5 330.04,-6.5 330.04,-12.5 330.04,-12.5 330.04,-54.5 330.04,-54.5 330.04,-60.5 324.04,-66.5 318.04,-66.5 318.04,-66.5 206.39,-66.5 206.39,-66.5 200.39,-66.5 194.39,-60.5 194.39,-54.5 194.39,-54.5 194.39,-12.5 194.39,-12.5 194.39,-6.5 200.39,-0.5 206.39,-0.5"/>
<text xml:space="preserve" text-anchor="middle" x="262.22" y="-51.3" font-family="Times,serif" font-size="14.00">type = CONST_VAR</text>
<polyline fill="none" stroke="#964b00" points="194.39,-44.5 330.04,-44.5"/>
<text xml:space="preserve" text-anchor="middle" x="261.89" y="-29.3" font-family="Times,serif" font-size="14.00">val = 0</text>
<polyline fill="none" stroke="#964b00" points="194.39,-22.5 330.04,-22.5"/>
<text xml:space="preserve" text-anchor="middle" x="227.89" y="-7.3" font-family="Times,serif" font-size="14.00">0</text>
<polyline fill="none" stroke="#964b00" points="261.39,-0.5 261.39,-22.5"/>
<text xml:space="preserve" text-anchor="middle" x="295.39" y="-7.3" font-family="Times,serif" font-size="14.00">0</text>
</g>
<!-- node_0x6060000052a0&#45;&gt;node_0x606000005300 -->
<g id="edge4" class="edge">
<title>node_0x6060000052a0&#45;&gt;node_0x606000005300</title>
<path fill="none" stroke="#964b00" d="M203.93,-115.97C213.21,-103 223.44,-88.7 232.7,-75.75"/>
<polygon fill="#964b00" stroke="#964b00" points="201.19,-113.78 198.22,-123.95 206.88,-117.86 201.19,-113.78"/>
<polygon fill="#964b00" stroke="#964b00" points="235.4,-78 238.37,-67.83 229.7,-73.93 235.4,-78"/>
</g>
</g>
</svg>
