<?xml version="1.0" encoding="UTF-8" standalone="no"?>
<!DOCTYPE svg PUBLIC "-//W3C//DTD SVG 1.1//EN"
 "http://www.w3.org/Graphics/SVG/1.1/DTD/svg11.dtd">
<!-- Generated by graphviz version 14.0.2 (20251019.1705)
 -->
<!-- Title: G Pages: 1 -->
<svg width="575pt" height="700pt"
 viewBox="0.00 0.00 575.00 700.00" xmlns="http://www.w3.org/2000/svg" xmlns:xlink="http://www.w3.org/1999/xlink">
<g id="graph0" class="graph" transform="scale(1 1) rotate(0) translate(4 696)">
<title>G</title>
<polygon fill="#fffafa" stroke="none" points="-4,4 -4,-696 570.72,-696 570.72,4 -4,4"/>
<!-- node_0x606000009440 -->
<g id="node1" class="node">
<title>node_0x606000009440</title>
<path fill="#00ffff" stroke="#964b00" d="M233.31,-625.5C233.31,-625.5 336.41,-625.5 336.41,-625.5 342.41,-625.5 348.41,-631.5 348.41,-637.5 348.41,-637.5 348.41,-679.5 348.41,-679.5 348.41,-685.5 342.41,-691.5 336.41,-691.5 336.41,-691.5 233.31,-691.5 233.31,-691.5 227.31,-691.5 221.31,-685.5 221.31,-679.5 221.31,-679.5 221.31,-637.5 221.31,-637.5 221.31,-631.5 227.31,-625.5 233.31,-625.5"/>
<text xml:space="preserve" text-anchor="middle" x="284.86" y="-676.3" font-family="Times,serif" font-size="14.00">type = OPERATOR</text>
<polyline fill="none" stroke="#964b00" points="221.31,-669.5 348.41,-669.5"/>
<text xml:space="preserve" text-anchor="middle" x="284.65" y="-654.3" font-family="Times,serif" font-size="14.00">val = 18(OP_CFB)</text>
<polyline fill="none" stroke="#964b00" points="221.31,-647.5 348.41,-647.5"/>
<text xml:space="preserve" text-anchor="middle" x="252.59" y="-632.3" font-family="Times,serif" font-size="14.00">L</text>
<polyline fill="none" stroke="#964b00" points="283.86,-625.5 283.86,-647.5"/>
<text xml:space="preserve" text-anchor="middle" x="316.03" y="-632.3" font-family="Times,serif" font-size="14.00">R</text>
</g>
<!-- node_0x606000005ba0 -->
<g id="node2" class="node">
<title>node_0x606000005ba0</title>
<path fill="#a7a7f2" stroke="#964b00" d="M194.34,-500.5C194.34,-500.5 375.38,-500.5 375.38,-500.5 381.38,-500.5 387.38,-506.5 387.38,-512.5 387.38,-512.5 387.38,-554.5 387.38,-554.5 387.38,-560.5 381.38,-566.5 375.38,-566.5 375.38,-566.5 194.34,-566.5 194.34,-566.5 188.34,-566.5 182.34,-560.5 182.34,-554.5 182.34,-554.5 182.34,-512.5 182.34,-512.5 182.34,-506.5 188.34,-500.5 194.34,-500.5"/>
<text xml:space="preserve" text-anchor="middle" x="284.73" y="-551.3" font-family="Times,serif" font-size="14.00">type = FUNCTION</text>
<polyline fill="none" stroke="#964b00" points="182.34,-544.5 387.38,-544.5"/>
<text xml:space="preserve" text-anchor="middle" x="284.86" y="-529.3" font-family="Times,serif" font-size="14.00">val = Che_cazzo_solve_linear_eq</text>
<polyline fill="none" stroke="#964b00" points="182.34,-522.5 387.38,-522.5"/>
<text xml:space="preserve" text-anchor="middle" x="233.34" y="-507.3" font-family="Times,serif" font-size="14.00">0</text>
<polyline fill="none" stroke="#964b00" points="284.34,-500.5 284.34,-522.5"/>
<text xml:space="preserve" text-anchor="middle" x="335.84" y="-507.3" font-family="Times,serif" font-size="14.00">0</text>
</g>
<!-- node_0x606000009440&#45;&gt;node_0x606000005ba0 -->
<g id="edge1" class="edge">
<title>node_0x606000009440&#45;&gt;node_0x606000005ba0</title>
<path fill="none" stroke="#964b00" d="M284.86,-613.7C284.86,-602.05 284.86,-589.47 284.86,-577.84"/>
<polygon fill="#964b00" stroke="#964b00" points="281.36,-613.67 284.86,-623.67 288.36,-613.67 281.36,-613.67"/>
<polygon fill="#964b00" stroke="#964b00" points="288.36,-578.11 284.86,-568.11 281.36,-578.11 288.36,-578.11"/>
</g>
<!-- node_0x606000005cc0 -->
<g id="node3" class="node">
<title>node_0x606000005cc0</title>
<path fill="#00ffff" stroke="#964b00" d="M157.8,-375.5C157.8,-375.5 261.92,-375.5 261.92,-375.5 267.92,-375.5 273.92,-381.5 273.92,-387.5 273.92,-387.5 273.92,-429.5 273.92,-429.5 273.92,-435.5 267.92,-441.5 261.92,-441.5 261.92,-441.5 157.8,-441.5 157.8,-441.5 151.8,-441.5 145.8,-435.5 145.8,-429.5 145.8,-429.5 145.8,-387.5 145.8,-387.5 145.8,-381.5 151.8,-375.5 157.8,-375.5"/>
<text xml:space="preserve" text-anchor="middle" x="209.85" y="-426.3" font-family="Times,serif" font-size="14.00">type = OPERATOR</text>
<polyline fill="none" stroke="#964b00" points="145.8,-419.5 273.92,-419.5"/>
<text xml:space="preserve" text-anchor="middle" x="209.86" y="-404.3" font-family="Times,serif" font-size="14.00">val = 19(OP_COM)</text>
<polyline fill="none" stroke="#964b00" points="145.8,-397.5 273.92,-397.5"/>
<text xml:space="preserve" text-anchor="middle" x="177.58" y="-382.3" font-family="Times,serif" font-size="14.00">L</text>
<polyline fill="none" stroke="#964b00" points="209.35,-375.5 209.35,-397.5"/>
<text xml:space="preserve" text-anchor="middle" x="241.52" y="-382.3" font-family="Times,serif" font-size="14.00">R</text>
</g>
<!-- node_0x606000005ba0&#45;&gt;node_0x606000005cc0 -->
<g id="edge2" class="edge">
<title>node_0x606000005ba0&#45;&gt;node_0x606000005cc0</title>
<path fill="none" stroke="#964b00" d="M259.26,-490.52C251.56,-477.89 243.11,-464.04 235.42,-451.41"/>
<polygon fill="#964b00" stroke="#964b00" points="256.17,-492.18 264.37,-498.89 262.15,-488.53 256.17,-492.18"/>
<polygon fill="#964b00" stroke="#964b00" points="238.42,-449.61 230.22,-442.89 232.44,-453.25 238.42,-449.61"/>
</g>
<!-- node_0x606000005e40 -->
<g id="node7" class="node">
<title>node_0x606000005e40</title>
<path fill="#00ffff" stroke="#964b00" d="M308.31,-375.5C308.31,-375.5 411.41,-375.5 411.41,-375.5 417.41,-375.5 423.41,-381.5 423.41,-387.5 423.41,-387.5 423.41,-429.5 423.41,-429.5 423.41,-435.5 417.41,-441.5 411.41,-441.5 411.41,-441.5 308.31,-441.5 308.31,-441.5 302.31,-441.5 296.31,-435.5 296.31,-429.5 296.31,-429.5 296.31,-387.5 296.31,-387.5 296.31,-381.5 302.31,-375.5 308.31,-375.5"/>
<text xml:space="preserve" text-anchor="middle" x="359.86" y="-426.3" font-family="Times,serif" font-size="14.00">type = OPERATOR</text>
<polyline fill="none" stroke="#964b00" points="296.31,-419.5 423.41,-419.5"/>
<text xml:space="preserve" text-anchor="middle" x="359.64" y="-404.3" font-family="Times,serif" font-size="14.00">val = 20(OP_RET)</text>
<polyline fill="none" stroke="#964b00" points="296.31,-397.5 423.41,-397.5"/>
<text xml:space="preserve" text-anchor="middle" x="327.59" y="-382.3" font-family="Times,serif" font-size="14.00">L</text>
<polyline fill="none" stroke="#964b00" points="358.86,-375.5 358.86,-397.5"/>
<text xml:space="preserve" text-anchor="middle" x="391.03" y="-382.3" font-family="Times,serif" font-size="14.00">R</text>
</g>
<!-- node_0x606000005ba0&#45;&gt;node_0x606000005e40 -->
<g id="edge6" class="edge">
<title>node_0x606000005ba0&#45;&gt;node_0x606000005e40</title>
<path fill="none" stroke="#964b00" d="M310.46,-490.52C318.16,-477.89 326.61,-464.04 334.3,-451.41"/>
<polygon fill="#964b00" stroke="#964b00" points="307.57,-488.53 305.35,-498.89 313.55,-492.18 307.57,-488.53"/>
<polygon fill="#964b00" stroke="#964b00" points="337.28,-453.25 339.5,-442.89 331.3,-449.61 337.28,-453.25"/>
</g>
<!-- node_0x606000005c60 -->
<g id="node4" class="node">
<title>node_0x606000005c60</title>
<path fill="#daa520" stroke="#964b00" d="M12,-250.5C12,-250.5 111.72,-250.5 111.72,-250.5 117.72,-250.5 123.72,-256.5 123.72,-262.5 123.72,-262.5 123.72,-304.5 123.72,-304.5 123.72,-310.5 117.72,-316.5 111.72,-316.5 111.72,-316.5 12,-316.5 12,-316.5 6,-316.5 0,-310.5 0,-304.5 0,-304.5 0,-262.5 0,-262.5 0,-256.5 6,-250.5 12,-250.5"/>
<text xml:space="preserve" text-anchor="middle" x="61.86" y="-301.3" font-family="Times,serif" font-size="14.00">type = VARIABLE</text>
<polyline fill="none" stroke="#964b00" points="0,-294.5 123.72,-294.5"/>
<text xml:space="preserve" text-anchor="middle" x="61.5" y="-279.3" font-family="Times,serif" font-size="14.00">val = b</text>
<polyline fill="none" stroke="#964b00" points="0,-272.5 123.72,-272.5"/>
<text xml:space="preserve" text-anchor="middle" x="30.5" y="-257.3" font-family="Times,serif" font-size="14.00">0</text>
<polyline fill="none" stroke="#964b00" points="61,-250.5 61,-272.5"/>
<text xml:space="preserve" text-anchor="middle" x="92" y="-257.3" font-family="Times,serif" font-size="14.00">0</text>
</g>
<!-- node_0x606000005cc0&#45;&gt;node_0x606000005c60 -->
<g id="edge3" class="edge">
<title>node_0x606000005cc0&#45;&gt;node_0x606000005c60</title>
<path fill="none" stroke="#964b00" d="M162.36,-368.02C145.41,-353.94 126.33,-338.08 109.39,-324"/>
<polygon fill="#964b00" stroke="#964b00" points="159.88,-370.52 169.81,-374.22 164.36,-365.13 159.88,-370.52"/>
<polygon fill="#964b00" stroke="#964b00" points="111.83,-321.48 101.91,-317.78 107.36,-326.87 111.83,-321.48"/>
</g>
<!-- node_0x6060000093e0 -->
<g id="node5" class="node">
<title>node_0x6060000093e0</title>
<path fill="#00ffff" stroke="#964b00" d="M157.8,-250.5C157.8,-250.5 261.92,-250.5 261.92,-250.5 267.92,-250.5 273.92,-256.5 273.92,-262.5 273.92,-262.5 273.92,-304.5 273.92,-304.5 273.92,-310.5 267.92,-316.5 261.92,-316.5 261.92,-316.5 157.8,-316.5 157.8,-316.5 151.8,-316.5 145.8,-310.5 145.8,-304.5 145.8,-304.5 145.8,-262.5 145.8,-262.5 145.8,-256.5 151.8,-250.5 157.8,-250.5"/>
<text xml:space="preserve" text-anchor="middle" x="209.85" y="-301.3" font-family="Times,serif" font-size="14.00">type = OPERATOR</text>
<polyline fill="none" stroke="#964b00" points="145.8,-294.5 273.92,-294.5"/>
<text xml:space="preserve" text-anchor="middle" x="209.86" y="-279.3" font-family="Times,serif" font-size="14.00">val = 19(OP_COM)</text>
<polyline fill="none" stroke="#964b00" points="145.8,-272.5 273.92,-272.5"/>
<text xml:space="preserve" text-anchor="middle" x="177.58" y="-257.3" font-family="Times,serif" font-size="14.00">L</text>
<polyline fill="none" stroke="#964b00" points="209.35,-250.5 209.35,-272.5"/>
<text xml:space="preserve" text-anchor="middle" x="241.52" y="-257.3" font-family="Times,serif" font-size="14.00">R</text>
</g>
<!-- node_0x606000005cc0&#45;&gt;node_0x6060000093e0 -->
<g id="edge4" class="edge">
<title>node_0x606000005cc0&#45;&gt;node_0x6060000093e0</title>
<path fill="none" stroke="#964b00" d="M209.86,-363.7C209.86,-352.05 209.86,-339.47 209.86,-327.84"/>
<polygon fill="#964b00" stroke="#964b00" points="206.36,-363.67 209.86,-373.67 213.36,-363.67 206.36,-363.67"/>
<polygon fill="#964b00" stroke="#964b00" points="213.36,-328.11 209.86,-318.11 206.36,-328.11 213.36,-328.11"/>
</g>
<!-- node_0x606000005d20 -->
<g id="node6" class="node">
<title>node_0x606000005d20</title>
<path fill="#daa520" stroke="#964b00" d="M160,-125.5C160,-125.5 259.72,-125.5 259.72,-125.5 265.72,-125.5 271.72,-131.5 271.72,-137.5 271.72,-137.5 271.72,-179.5 271.72,-179.5 271.72,-185.5 265.72,-191.5 259.72,-191.5 259.72,-191.5 160,-191.5 160,-191.5 154,-191.5 148,-185.5 148,-179.5 148,-179.5 148,-137.5 148,-137.5 148,-131.5 154,-125.5 160,-125.5"/>
<text xml:space="preserve" text-anchor="middle" x="209.86" y="-176.3" font-family="Times,serif" font-size="14.00">type = VARIABLE</text>
<polyline fill="none" stroke="#964b00" points="148,-169.5 271.72,-169.5"/>
<text xml:space="preserve" text-anchor="middle" x="209.61" y="-154.3" font-family="Times,serif" font-size="14.00">val = c</text>
<polyline fill="none" stroke="#964b00" points="148,-147.5 271.72,-147.5"/>
<text xml:space="preserve" text-anchor="middle" x="178.5" y="-132.3" font-family="Times,serif" font-size="14.00">0</text>
<polyline fill="none" stroke="#964b00" points="209,-125.5 209,-147.5"/>
<text xml:space="preserve" text-anchor="middle" x="240" y="-132.3" font-family="Times,serif" font-size="14.00">0</text>
</g>
<!-- node_0x6060000093e0&#45;&gt;node_0x606000005d20 -->
<g id="edge5" class="edge">
<title>node_0x6060000093e0&#45;&gt;node_0x606000005d20</title>
<path fill="none" stroke="#964b00" d="M209.86,-238.7C209.86,-227.05 209.86,-214.47 209.86,-202.84"/>
<polygon fill="#964b00" stroke="#964b00" points="206.36,-238.67 209.86,-248.67 213.36,-238.67 206.36,-238.67"/>
<polygon fill="#964b00" stroke="#964b00" points="213.36,-203.11 209.86,-193.11 206.36,-203.11 213.36,-203.11"/>
</g>
<!-- node_0x606000006080 -->
<g id="node8" class="node">
<title>node_0x606000006080</title>
<path fill="#00ffff" stroke="#964b00" d="M308.31,-250.5C308.31,-250.5 411.41,-250.5 411.41,-250.5 417.41,-250.5 423.41,-256.5 423.41,-262.5 423.41,-262.5 423.41,-304.5 423.41,-304.5 423.41,-310.5 417.41,-316.5 411.41,-316.5 411.41,-316.5 308.31,-316.5 308.31,-316.5 302.31,-316.5 296.31,-310.5 296.31,-304.5 296.31,-304.5 296.31,-262.5 296.31,-262.5 296.31,-256.5 302.31,-250.5 308.31,-250.5"/>
<text xml:space="preserve" text-anchor="middle" x="359.86" y="-301.3" font-family="Times,serif" font-size="14.00">type = OPERATOR</text>
<polyline fill="none" stroke="#964b00" points="296.31,-294.5 423.41,-294.5"/>
<text xml:space="preserve" text-anchor="middle" x="359.36" y="-279.3" font-family="Times,serif" font-size="14.00">val = 4(OP_DIV)</text>
<polyline fill="none" stroke="#964b00" points="296.31,-272.5 423.41,-272.5"/>
<text xml:space="preserve" text-anchor="middle" x="327.59" y="-257.3" font-family="Times,serif" font-size="14.00">L</text>
<polyline fill="none" stroke="#964b00" points="358.86,-250.5 358.86,-272.5"/>
<text xml:space="preserve" text-anchor="middle" x="391.03" y="-257.3" font-family="Times,serif" font-size="14.00">R</text>
</g>
<!-- node_0x606000005e40&#45;&gt;node_0x606000006080 -->
<g id="edge7" class="edge">
<title>node_0x606000005e40&#45;&gt;node_0x606000006080</title>
<path fill="none" stroke="#964b00" d="M359.86,-363.7C359.86,-352.05 359.86,-339.47 359.86,-327.84"/>
<polygon fill="#964b00" stroke="#964b00" points="356.36,-363.67 359.86,-373.67 363.36,-363.67 356.36,-363.67"/>
<polygon fill="#964b00" stroke="#964b00" points="363.36,-328.11 359.86,-318.11 356.36,-328.11 363.36,-328.11"/>
</g>
<!-- node_0x606000005fc0 -->
<g id="node9" class="node">
<title>node_0x606000005fc0</title>
<path fill="#00ffff" stroke="#964b00" d="M306.31,-125.5C306.31,-125.5 409.41,-125.5 409.41,-125.5 415.41,-125.5 421.41,-131.5 421.41,-137.5 421.41,-137.5 421.41,-179.5 421.41,-179.5 421.41,-185.5 415.41,-191.5 409.41,-191.5 409.41,-191.5 306.31,-191.5 306.31,-191.5 300.31,-191.5 294.31,-185.5 294.31,-179.5 294.31,-179.5 294.31,-137.5 294.31,-137.5 294.31,-131.5 300.31,-125.5 306.31,-125.5"/>
<text xml:space="preserve" text-anchor="middle" x="357.86" y="-176.3" font-family="Times,serif" font-size="14.00">type = OPERATOR</text>
<polyline fill="none" stroke="#964b00" points="294.31,-169.5 421.41,-169.5"/>
<text xml:space="preserve" text-anchor="middle" x="357.48" y="-154.3" font-family="Times,serif" font-size="14.00">val = 3(OP_MUL)</text>
<polyline fill="none" stroke="#964b00" points="294.31,-147.5 421.41,-147.5"/>
<text xml:space="preserve" text-anchor="middle" x="325.59" y="-132.3" font-family="Times,serif" font-size="14.00">L</text>
<polyline fill="none" stroke="#964b00" points="356.86,-125.5 356.86,-147.5"/>
<text xml:space="preserve" text-anchor="middle" x="389.03" y="-132.3" font-family="Times,serif" font-size="14.00">R</text>
</g>
<!-- node_0x606000006080&#45;&gt;node_0x606000005fc0 -->
<g id="edge8" class="edge">
<title>node_0x606000006080&#45;&gt;node_0x606000005fc0</title>
<path fill="none" stroke="#964b00" d="M359.15,-238.7C358.96,-227.05 358.75,-214.47 358.57,-202.84"/>
<polygon fill="#964b00" stroke="#964b00" points="355.65,-238.73 359.31,-248.67 362.65,-238.61 355.65,-238.73"/>
<polygon fill="#964b00" stroke="#964b00" points="362.07,-203.06 358.41,-193.11 355.07,-203.17 362.07,-203.06"/>
</g>
<!-- node_0x6060000060e0 -->
<g id="node12" class="node">
<title>node_0x6060000060e0</title>
<path fill="#daa520" stroke="#964b00" d="M455,-125.5C455,-125.5 554.72,-125.5 554.72,-125.5 560.72,-125.5 566.72,-131.5 566.72,-137.5 566.72,-137.5 566.72,-179.5 566.72,-179.5 566.72,-185.5 560.72,-191.5 554.72,-191.5 554.72,-191.5 455,-191.5 455,-191.5 449,-191.5 443,-185.5 443,-179.5 443,-179.5 443,-137.5 443,-137.5 443,-131.5 449,-125.5 455,-125.5"/>
<text xml:space="preserve" text-anchor="middle" x="504.86" y="-176.3" font-family="Times,serif" font-size="14.00">type = VARIABLE</text>
<polyline fill="none" stroke="#964b00" points="443,-169.5 566.72,-169.5"/>
<text xml:space="preserve" text-anchor="middle" x="504.5" y="-154.3" font-family="Times,serif" font-size="14.00">val = b</text>
<polyline fill="none" stroke="#964b00" points="443,-147.5 566.72,-147.5"/>
<text xml:space="preserve" text-anchor="middle" x="473.5" y="-132.3" font-family="Times,serif" font-size="14.00">0</text>
<polyline fill="none" stroke="#964b00" points="504,-125.5 504,-147.5"/>
<text xml:space="preserve" text-anchor="middle" x="535" y="-132.3" font-family="Times,serif" font-size="14.00">0</text>
</g>
<!-- node_0x606000006080&#45;&gt;node_0x6060000060e0 -->
<g id="edge11" class="edge">
<title>node_0x606000006080&#45;&gt;node_0x6060000060e0</title>
<path fill="none" stroke="#964b00" d="M406.66,-242.8C423.21,-228.76 441.81,-212.98 458.34,-198.97"/>
<polygon fill="#964b00" stroke="#964b00" points="404.47,-240.07 399.11,-249.2 409,-245.4 404.47,-240.07"/>
<polygon fill="#964b00" stroke="#964b00" points="460.25,-201.93 465.61,-192.79 455.72,-196.59 460.25,-201.93"/>
</g>
<!-- node_0x606000005f00 -->
<g id="node10" class="node">
<title>node_0x606000005f00</title>
<path fill="#98fb98" stroke="#964b00" d="M226.04,-0.5C226.04,-0.5 337.69,-0.5 337.69,-0.5 343.69,-0.5 349.69,-6.5 349.69,-12.5 349.69,-12.5 349.69,-54.5 349.69,-54.5 349.69,-60.5 343.69,-66.5 337.69,-66.5 337.69,-66.5 226.04,-66.5 226.04,-66.5 220.04,-66.5 214.04,-60.5 214.04,-54.5 214.04,-54.5 214.04,-12.5 214.04,-12.5 214.04,-6.5 220.04,-0.5 226.04,-0.5"/>
<text xml:space="preserve" text-anchor="middle" x="281.86" y="-51.3" font-family="Times,serif" font-size="14.00">type = CONST_VAR</text>
<polyline fill="none" stroke="#964b00" points="214.04,-44.5 349.69,-44.5"/>
<text xml:space="preserve" text-anchor="middle" x="281.37" y="-29.3" font-family="Times,serif" font-size="14.00">val = &#45;1</text>
<polyline fill="none" stroke="#964b00" points="214.04,-22.5 349.69,-22.5"/>
<text xml:space="preserve" text-anchor="middle" x="247.54" y="-7.3" font-family="Times,serif" font-size="14.00">0</text>
<polyline fill="none" stroke="#964b00" points="281.04,-0.5 281.04,-22.5"/>
<text xml:space="preserve" text-anchor="middle" x="315.04" y="-7.3" font-family="Times,serif" font-size="14.00">0</text>
</g>
<!-- node_0x606000005fc0&#45;&gt;node_0x606000005f00 -->
<g id="edge9" class="edge">
<title>node_0x606000005fc0&#45;&gt;node_0x606000005f00</title>
<path fill="none" stroke="#964b00" d="M331.92,-115.52C324.04,-102.76 315.39,-88.76 307.53,-76.04"/>
<polygon fill="#964b00" stroke="#964b00" points="328.86,-117.23 337.1,-123.9 334.82,-113.55 328.86,-117.23"/>
<polygon fill="#964b00" stroke="#964b00" points="310.72,-74.56 302.49,-67.89 304.77,-78.24 310.72,-74.56"/>
</g>
<!-- node_0x606000006020 -->
<g id="node11" class="node">
<title>node_0x606000006020</title>
<path fill="#daa520" stroke="#964b00" d="M384,-0.5C384,-0.5 483.72,-0.5 483.72,-0.5 489.72,-0.5 495.72,-6.5 495.72,-12.5 495.72,-12.5 495.72,-54.5 495.72,-54.5 495.72,-60.5 489.72,-66.5 483.72,-66.5 483.72,-66.5 384,-66.5 384,-66.5 378,-66.5 372,-60.5 372,-54.5 372,-54.5 372,-12.5 372,-12.5 372,-6.5 378,-0.5 384,-0.5"/>
<text xml:space="preserve" text-anchor="middle" x="433.86" y="-51.3" font-family="Times,serif" font-size="14.00">type = VARIABLE</text>
<polyline fill="none" stroke="#964b00" points="372,-44.5 495.72,-44.5"/>
<text xml:space="preserve" text-anchor="middle" x="433.61" y="-29.3" font-family="Times,serif" font-size="14.00">val = c</text>
<polyline fill="none" stroke="#964b00" points="372,-22.5 495.72,-22.5"/>
<text xml:space="preserve" text-anchor="middle" x="402.5" y="-7.3" font-family="Times,serif" font-size="14.00">0</text>
<polyline fill="none" stroke="#964b00" points="433,-0.5 433,-22.5"/>
<text xml:space="preserve" text-anchor="middle" x="464" y="-7.3" font-family="Times,serif" font-size="14.00">0</text>
</g>
<!-- node_0x606000005fc0&#45;&gt;node_0x606000006020 -->
<g id="edge10" class="edge">
<title>node_0x606000005fc0&#45;&gt;node_0x606000006020</title>
<path fill="none" stroke="#964b00" d="M383.8,-115.52C391.68,-102.76 400.33,-88.76 408.19,-76.04"/>
<polygon fill="#964b00" stroke="#964b00" points="380.9,-113.55 378.62,-123.9 386.86,-117.23 380.9,-113.55"/>
<polygon fill="#964b00" stroke="#964b00" points="410.95,-78.24 413.23,-67.89 405,-74.56 410.95,-78.24"/>
</g>
</g>
</svg>
