<?xml version="1.0" encoding="UTF-8" standalone="no"?>
<!DOCTYPE svg PUBLIC "-//W3C//DTD SVG 1.1//EN"
 "http://www.w3.org/Graphics/SVG/1.1/DTD/svg11.dtd">
<!-- Generated by graphviz version 14.0.2 (20251019.1705)
 -->
<!-- Title: G Pages: 1 -->
<svg width="308pt" height="75pt"
 viewBox="0.00 0.00 308.00 75.00" xmlns="http://www.w3.org/2000/svg" xmlns:xlink="http://www.w3.org/1999/xlink">
<g id="graph0" class="graph" transform="scale(1 1) rotate(0) translate(4 71)">
<title>G</title>
<polygon fill="#fffafa" stroke="none" points="-4,4 -4,-71 303.94,-71 303.94,4 -4,4"/>
<!-- node_0x606000002360 -->
<g id="node1" class="node">
<title>node_0x606000002360</title>
<path fill="#a7a7f2" stroke="#964b00" d="M12,-0.5C12,-0.5 287.94,-0.5 287.94,-0.5 293.94,-0.5 299.94,-6.5 299.94,-12.5 299.94,-12.5 299.94,-54.5 299.94,-54.5 299.94,-60.5 293.94,-66.5 287.94,-66.5 287.94,-66.5 12,-66.5 12,-66.5 6,-66.5 0,-60.5 0,-54.5 0,-54.5 0,-12.5 0,-12.5 0,-6.5 6,-0.5 12,-0.5"/>
<text xml:space="preserve" text-anchor="middle" x="149.89" y="-51.3" font-family="Times,serif" font-size="14.00">type = FUNCTION</text>
<polyline fill="none" stroke="#964b00" points="0,-44.5 299.94,-44.5"/>
<text xml:space="preserve" text-anchor="middle" x="149.97" y="-29.3" font-family="Times,serif" font-size="14.00">val = Che_cazzo_get_quantaty_of_solutions_diskr</text>
<polyline fill="none" stroke="#964b00" points="0,-22.5 299.94,-22.5"/>
<text xml:space="preserve" text-anchor="middle" x="74.5" y="-7.3" font-family="Times,serif" font-size="14.00">0</text>
<polyline fill="none" stroke="#964b00" points="149,-0.5 149,-22.5"/>
<text xml:space="preserve" text-anchor="middle" x="224" y="-7.3" font-family="Times,serif" font-size="14.00">0</text>
</g>
</g>
</svg>
