<?xml version="1.0" encoding="UTF-8" standalone="no"?>
<!DOCTYPE svg PUBLIC "-//W3C//DTD SVG 1.1//EN"
 "http://www.w3.org/Graphics/SVG/1.1/DTD/svg11.dtd">
<!-- Generated by graphviz version 14.0.2 (20251019.1705)
 -->
<!-- Title: G Pages: 1 -->
<svg width="145pt" height="75pt"
 viewBox="0.00 0.00 145.00 75.00" xmlns="http://www.w3.org/2000/svg" xmlns:xlink="http://www.w3.org/1999/xlink">
<g id="graph0" class="graph" transform="scale(1 1) rotate(0) translate(4 71)">
<title>G</title>
<polygon fill="#fffafa" stroke="none" points="-4,4 -4,-71 141.44,-71 141.44,4 -4,4"/>
<!-- node_0x606000000560 -->
<g id="node1" class="node">
<title>node_0x606000000560</title>
<path fill="#00ffff" stroke="#964b00" d="M12,-0.5C12,-0.5 125.44,-0.5 125.44,-0.5 131.44,-0.5 137.44,-6.5 137.44,-12.5 137.44,-12.5 137.44,-54.5 137.44,-54.5 137.44,-60.5 131.44,-66.5 125.44,-66.5 125.44,-66.5 12,-66.5 12,-66.5 6,-66.5 0,-60.5 0,-54.5 0,-54.5 0,-12.5 0,-12.5 0,-6.5 6,-0.5 12,-0.5"/>
<text xml:space="preserve" text-anchor="middle" x="68.55" y="-51.3" font-family="Times,serif" font-size="14.00">type = OPERATOR</text>
<polyline fill="none" stroke="#964b00" points="0,-44.5 137.44,-44.5"/>
<text xml:space="preserve" text-anchor="middle" x="68.72" y="-29.3" font-family="Times,serif" font-size="14.00">val = 21(OP_INPUT)</text>
<polyline fill="none" stroke="#964b00" points="0,-22.5 137.44,-22.5"/>
<text xml:space="preserve" text-anchor="middle" x="33.78" y="-7.3" font-family="Times,serif" font-size="14.00">L</text>
<polyline fill="none" stroke="#964b00" points="67.55,-0.5 67.55,-22.5"/>
<text xml:space="preserve" text-anchor="middle" x="102.22" y="-7.3" font-family="Times,serif" font-size="14.00">R</text>
</g>
</g>
</svg>
