<?xml version="1.0" encoding="UTF-8" standalone="no"?>
<!DOCTYPE svg PUBLIC "-//W3C//DTD SVG 1.1//EN"
 "http://www.w3.org/Graphics/SVG/1.1/DTD/svg11.dtd">
<!-- Generated by graphviz version 14.0.2 (20251019.1705)
 -->
<!-- Title: G Pages: 1 -->
<svg width="290pt" height="200pt"
 viewBox="0.00 0.00 290.00 200.00" xmlns="http://www.w3.org/2000/svg" xmlns:xlink="http://www.w3.org/1999/xlink">
<g id="graph0" class="graph" transform="scale(1 1) rotate(0) translate(4 196)">
<title>G</title>
<polygon fill="#fffafa" stroke="none" points="-4,4 -4,-196 285.69,-196 285.69,4 -4,4"/>
<!-- node_0x606000008600 -->
<g id="node1" class="node">
<title>node_0x606000008600</title>
<path fill="#00ffff" stroke="#964b00" d="M92.28,-125.5C92.28,-125.5 195.37,-125.5 195.37,-125.5 201.37,-125.5 207.37,-131.5 207.37,-137.5 207.37,-137.5 207.37,-179.5 207.37,-179.5 207.37,-185.5 201.37,-191.5 195.37,-191.5 195.37,-191.5 92.28,-191.5 92.28,-191.5 86.28,-191.5 80.28,-185.5 80.28,-179.5 80.28,-179.5 80.28,-137.5 80.28,-137.5 80.28,-131.5 86.28,-125.5 92.28,-125.5"/>
<text xml:space="preserve" text-anchor="middle" x="143.82" y="-176.3" font-family="Times,serif" font-size="14.00">type = OPERATOR</text>
<polyline fill="none" stroke="#964b00" points="80.28,-169.5 207.37,-169.5"/>
<text xml:space="preserve" text-anchor="middle" x="143.44" y="-154.3" font-family="Times,serif" font-size="14.00">val = 3(OP_MUL)</text>
<polyline fill="none" stroke="#964b00" points="80.28,-147.5 207.37,-147.5"/>
<text xml:space="preserve" text-anchor="middle" x="111.55" y="-132.3" font-family="Times,serif" font-size="14.00">L</text>
<polyline fill="none" stroke="#964b00" points="142.83,-125.5 142.83,-147.5"/>
<text xml:space="preserve" text-anchor="middle" x="175" y="-132.3" font-family="Times,serif" font-size="14.00">R</text>
</g>
<!-- node_0x6060000085a0 -->
<g id="node2" class="node">
<title>node_0x6060000085a0</title>
<path fill="#98fb98" stroke="#964b00" d="M12,-0.5C12,-0.5 123.65,-0.5 123.65,-0.5 129.65,-0.5 135.65,-6.5 135.65,-12.5 135.65,-12.5 135.65,-54.5 135.65,-54.5 135.65,-60.5 129.65,-66.5 123.65,-66.5 123.65,-66.5 12,-66.5 12,-66.5 6,-66.5 0,-60.5 0,-54.5 0,-54.5 0,-12.5 0,-12.5 0,-6.5 6,-0.5 12,-0.5"/>
<text xml:space="preserve" text-anchor="middle" x="67.82" y="-51.3" font-family="Times,serif" font-size="14.00">type = CONST_VAR</text>
<polyline fill="none" stroke="#964b00" points="0,-44.5 135.65,-44.5"/>
<text xml:space="preserve" text-anchor="middle" x="67.5" y="-29.3" font-family="Times,serif" font-size="14.00">val = 2</text>
<polyline fill="none" stroke="#964b00" points="0,-22.5 135.65,-22.5"/>
<text xml:space="preserve" text-anchor="middle" x="33.5" y="-7.3" font-family="Times,serif" font-size="14.00">0</text>
<polyline fill="none" stroke="#964b00" points="67,-0.5 67,-22.5"/>
<text xml:space="preserve" text-anchor="middle" x="101" y="-7.3" font-family="Times,serif" font-size="14.00">0</text>
</g>
<!-- node_0x606000008600&#45;&gt;node_0x6060000085a0 -->
<g id="edge1" class="edge">
<title>node_0x606000008600&#45;&gt;node_0x6060000085a0</title>
<path fill="none" stroke="#964b00" d="M117.88,-115.52C110,-102.76 101.35,-88.76 93.49,-76.04"/>
<polygon fill="#964b00" stroke="#964b00" points="114.83,-117.23 123.06,-123.9 120.78,-113.55 114.83,-117.23"/>
<polygon fill="#964b00" stroke="#964b00" points="96.69,-74.56 88.46,-67.89 90.73,-78.24 96.69,-74.56"/>
</g>
<!-- node_0x606000008660 -->
<g id="node3" class="node">
<title>node_0x606000008660</title>
<path fill="#daa520" stroke="#964b00" d="M169.96,-0.5C169.96,-0.5 269.69,-0.5 269.69,-0.5 275.69,-0.5 281.69,-6.5 281.69,-12.5 281.69,-12.5 281.69,-54.5 281.69,-54.5 281.69,-60.5 275.69,-66.5 269.69,-66.5 269.69,-66.5 169.96,-66.5 169.96,-66.5 163.96,-66.5 157.96,-60.5 157.96,-54.5 157.96,-54.5 157.96,-12.5 157.96,-12.5 157.96,-6.5 163.96,-0.5 169.96,-0.5"/>
<text xml:space="preserve" text-anchor="middle" x="219.82" y="-51.3" font-family="Times,serif" font-size="14.00">type = VARIABLE</text>
<polyline fill="none" stroke="#964b00" points="157.96,-44.5 281.69,-44.5"/>
<text xml:space="preserve" text-anchor="middle" x="219.57" y="-29.3" font-family="Times,serif" font-size="14.00">val = a</text>
<polyline fill="none" stroke="#964b00" points="157.96,-22.5 281.69,-22.5"/>
<text xml:space="preserve" text-anchor="middle" x="188.46" y="-7.3" font-family="Times,serif" font-size="14.00">0</text>
<polyline fill="none" stroke="#964b00" points="218.96,-0.5 218.96,-22.5"/>
<text xml:space="preserve" text-anchor="middle" x="249.96" y="-7.3" font-family="Times,serif" font-size="14.00">0</text>
</g>
<!-- node_0x606000008600&#45;&gt;node_0x606000008660 -->
<g id="edge2" class="edge">
<title>node_0x606000008600&#45;&gt;node_0x606000008660</title>
<path fill="none" stroke="#964b00" d="M169.77,-115.52C177.64,-102.76 186.3,-88.76 194.16,-76.04"/>
<polygon fill="#964b00" stroke="#964b00" points="166.87,-113.55 164.59,-123.9 172.82,-117.23 166.87,-113.55"/>
<polygon fill="#964b00" stroke="#964b00" points="196.92,-78.24 199.19,-67.89 190.96,-74.56 196.92,-78.24"/>
</g>
</g>
</svg>
