<?xml version="1.0" encoding="UTF-8" standalone="no"?>
<!DOCTYPE svg PUBLIC "-//W3C//DTD SVG 1.1//EN"
 "http://www.w3.org/Graphics/SVG/1.1/DTD/svg11.dtd">
<!-- Generated by graphviz version 14.0.2 (20251019.1705)
 -->
<!-- Title: G Pages: 1 -->
<svg width="849pt" height="950pt"
 viewBox="0.00 0.00 849.00 950.00" xmlns="http://www.w3.org/2000/svg" xmlns:xlink="http://www.w3.org/1999/xlink">
<g id="graph0" class="graph" transform="scale(1 1) rotate(0) translate(4 946)">
<title>G</title>
<polygon fill="#fffafa" stroke="none" points="-4,4 -4,-946 845.26,-946 845.26,4 -4,4"/>
<!-- node_0x606000008d80 -->
<g id="node1" class="node">
<title>node_0x606000008d80</title>
<path fill="#00ffff" stroke="#964b00" d="M286.67,-875.5C286.67,-875.5 389.77,-875.5 389.77,-875.5 395.77,-875.5 401.77,-881.5 401.77,-887.5 401.77,-887.5 401.77,-929.5 401.77,-929.5 401.77,-935.5 395.77,-941.5 389.77,-941.5 389.77,-941.5 286.67,-941.5 286.67,-941.5 280.67,-941.5 274.67,-935.5 274.67,-929.5 274.67,-929.5 274.67,-887.5 274.67,-887.5 274.67,-881.5 280.67,-875.5 286.67,-875.5"/>
<text xml:space="preserve" text-anchor="middle" x="338.22" y="-926.3" font-family="Times,serif" font-size="14.00">type = OPERATOR</text>
<polyline fill="none" stroke="#964b00" points="274.67,-919.5 401.77,-919.5"/>
<text xml:space="preserve" text-anchor="middle" x="338.01" y="-904.3" font-family="Times,serif" font-size="14.00">val = 18(OP_CFB)</text>
<polyline fill="none" stroke="#964b00" points="274.67,-897.5 401.77,-897.5"/>
<text xml:space="preserve" text-anchor="middle" x="305.94" y="-882.3" font-family="Times,serif" font-size="14.00">L</text>
<polyline fill="none" stroke="#964b00" points="337.22,-875.5 337.22,-897.5"/>
<text xml:space="preserve" text-anchor="middle" x="369.39" y="-882.3" font-family="Times,serif" font-size="14.00">R</text>
</g>
<!-- node_0x606000001640 -->
<g id="node2" class="node">
<title>node_0x606000001640</title>
<path fill="#00ffff" stroke="#964b00" d="M286.67,-750.5C286.67,-750.5 389.77,-750.5 389.77,-750.5 395.77,-750.5 401.77,-756.5 401.77,-762.5 401.77,-762.5 401.77,-804.5 401.77,-804.5 401.77,-810.5 395.77,-816.5 389.77,-816.5 389.77,-816.5 286.67,-816.5 286.67,-816.5 280.67,-816.5 274.67,-810.5 274.67,-804.5 274.67,-804.5 274.67,-762.5 274.67,-762.5 274.67,-756.5 280.67,-750.5 286.67,-750.5"/>
<text xml:space="preserve" text-anchor="middle" x="338.22" y="-801.3" font-family="Times,serif" font-size="14.00">type = OPERATOR</text>
<polyline fill="none" stroke="#964b00" points="274.67,-794.5 401.77,-794.5"/>
<text xml:space="preserve" text-anchor="middle" x="338" y="-779.3" font-family="Times,serif" font-size="14.00">val = 12(OP_IF)</text>
<polyline fill="none" stroke="#964b00" points="274.67,-772.5 401.77,-772.5"/>
<text xml:space="preserve" text-anchor="middle" x="305.94" y="-757.3" font-family="Times,serif" font-size="14.00">L</text>
<polyline fill="none" stroke="#964b00" points="337.22,-750.5 337.22,-772.5"/>
<text xml:space="preserve" text-anchor="middle" x="369.39" y="-757.3" font-family="Times,serif" font-size="14.00">R</text>
</g>
<!-- node_0x606000008d80&#45;&gt;node_0x606000001640 -->
<g id="edge1" class="edge">
<title>node_0x606000008d80&#45;&gt;node_0x606000001640</title>
<path fill="none" stroke="#964b00" d="M338.22,-863.7C338.22,-852.05 338.22,-839.47 338.22,-827.84"/>
<polygon fill="#964b00" stroke="#964b00" points="334.72,-863.67 338.22,-873.67 341.72,-863.67 334.72,-863.67"/>
<polygon fill="#964b00" stroke="#964b00" points="341.72,-828.11 338.22,-818.11 334.72,-828.11 341.72,-828.11"/>
</g>
<!-- node_0x606000001760 -->
<g id="node3" class="node">
<title>node_0x606000001760</title>
<path fill="#00ffff" stroke="#964b00" d="M210.67,-625.5C210.67,-625.5 313.77,-625.5 313.77,-625.5 319.77,-625.5 325.77,-631.5 325.77,-637.5 325.77,-637.5 325.77,-679.5 325.77,-679.5 325.77,-685.5 319.77,-691.5 313.77,-691.5 313.77,-691.5 210.67,-691.5 210.67,-691.5 204.67,-691.5 198.67,-685.5 198.67,-679.5 198.67,-679.5 198.67,-637.5 198.67,-637.5 198.67,-631.5 204.67,-625.5 210.67,-625.5"/>
<text xml:space="preserve" text-anchor="middle" x="262.22" y="-676.3" font-family="Times,serif" font-size="14.00">type = OPERATOR</text>
<polyline fill="none" stroke="#964b00" points="198.67,-669.5 325.77,-669.5"/>
<text xml:space="preserve" text-anchor="middle" x="262.11" y="-654.3" font-family="Times,serif" font-size="14.00">val = 8(OP_EQ)</text>
<polyline fill="none" stroke="#964b00" points="198.67,-647.5 325.77,-647.5"/>
<text xml:space="preserve" text-anchor="middle" x="229.94" y="-632.3" font-family="Times,serif" font-size="14.00">L</text>
<polyline fill="none" stroke="#964b00" points="261.22,-625.5 261.22,-647.5"/>
<text xml:space="preserve" text-anchor="middle" x="293.39" y="-632.3" font-family="Times,serif" font-size="14.00">R</text>
</g>
<!-- node_0x606000001640&#45;&gt;node_0x606000001760 -->
<g id="edge2" class="edge">
<title>node_0x606000001640&#45;&gt;node_0x606000001760</title>
<path fill="none" stroke="#964b00" d="M312.28,-740.52C304.4,-727.76 295.75,-713.76 287.88,-701.04"/>
<polygon fill="#964b00" stroke="#964b00" points="309.22,-742.23 317.45,-748.9 315.17,-738.55 309.22,-742.23"/>
<polygon fill="#964b00" stroke="#964b00" points="291.08,-699.56 282.85,-692.89 285.13,-703.24 291.08,-699.56"/>
</g>
<!-- node_0x606000001be0 -->
<g id="node6" class="node">
<title>node_0x606000001be0</title>
<path fill="#00ffff" stroke="#964b00" d="M363.67,-625.5C363.67,-625.5 466.77,-625.5 466.77,-625.5 472.77,-625.5 478.77,-631.5 478.77,-637.5 478.77,-637.5 478.77,-679.5 478.77,-679.5 478.77,-685.5 472.77,-691.5 466.77,-691.5 466.77,-691.5 363.67,-691.5 363.67,-691.5 357.67,-691.5 351.67,-685.5 351.67,-679.5 351.67,-679.5 351.67,-637.5 351.67,-637.5 351.67,-631.5 357.67,-625.5 363.67,-625.5"/>
<text xml:space="preserve" text-anchor="middle" x="415.22" y="-676.3" font-family="Times,serif" font-size="14.00">type = OPERATOR</text>
<polyline fill="none" stroke="#964b00" points="351.67,-669.5 478.77,-669.5"/>
<text xml:space="preserve" text-anchor="middle" x="414.81" y="-654.3" font-family="Times,serif" font-size="14.00">val = 11(OP_SP)</text>
<polyline fill="none" stroke="#964b00" points="351.67,-647.5 478.77,-647.5"/>
<text xml:space="preserve" text-anchor="middle" x="382.94" y="-632.3" font-family="Times,serif" font-size="14.00">L</text>
<polyline fill="none" stroke="#964b00" points="414.22,-625.5 414.22,-647.5"/>
<text xml:space="preserve" text-anchor="middle" x="446.39" y="-632.3" font-family="Times,serif" font-size="14.00">R</text>
</g>
<!-- node_0x606000001640&#45;&gt;node_0x606000001be0 -->
<g id="edge5" class="edge">
<title>node_0x606000001640&#45;&gt;node_0x606000001be0</title>
<path fill="none" stroke="#964b00" d="M364.5,-740.52C372.48,-727.76 381.25,-713.76 389.21,-701.04"/>
<polygon fill="#964b00" stroke="#964b00" points="361.59,-738.57 359.25,-748.9 367.52,-742.28 361.59,-738.57"/>
<polygon fill="#964b00" stroke="#964b00" points="391.98,-703.22 394.32,-692.88 386.05,-699.5 391.98,-703.22"/>
</g>
<!-- node_0x606000001700 -->
<g id="node4" class="node">
<title>node_0x606000001700</title>
<path fill="#daa520" stroke="#964b00" d="M12,-500.5C12,-500.5 160.43,-500.5 160.43,-500.5 166.43,-500.5 172.43,-506.5 172.43,-512.5 172.43,-512.5 172.43,-554.5 172.43,-554.5 172.43,-560.5 166.43,-566.5 160.43,-566.5 160.43,-566.5 12,-566.5 12,-566.5 6,-566.5 0,-560.5 0,-554.5 0,-554.5 0,-512.5 0,-512.5 0,-506.5 6,-500.5 12,-500.5"/>
<text xml:space="preserve" text-anchor="middle" x="85.86" y="-551.3" font-family="Times,serif" font-size="14.00">type = VARIABLE</text>
<polyline fill="none" stroke="#964b00" points="0,-544.5 172.43,-544.5"/>
<text xml:space="preserve" text-anchor="middle" x="86.22" y="-529.3" font-family="Times,serif" font-size="14.00">val = quantaty_of_solutions</text>
<polyline fill="none" stroke="#964b00" points="0,-522.5 172.43,-522.5"/>
<text xml:space="preserve" text-anchor="middle" x="43" y="-507.3" font-family="Times,serif" font-size="14.00">0</text>
<polyline fill="none" stroke="#964b00" points="86,-500.5 86,-522.5"/>
<text xml:space="preserve" text-anchor="middle" x="129" y="-507.3" font-family="Times,serif" font-size="14.00">0</text>
</g>
<!-- node_0x606000001760&#45;&gt;node_0x606000001700 -->
<g id="edge3" class="edge">
<title>node_0x606000001760&#45;&gt;node_0x606000001700</title>
<path fill="none" stroke="#964b00" d="M206.68,-618.69C185.97,-604.21 162.47,-587.79 141.75,-573.31"/>
<polygon fill="#964b00" stroke="#964b00" points="204.53,-621.46 214.73,-624.32 208.54,-615.72 204.53,-621.46"/>
<polygon fill="#964b00" stroke="#964b00" points="143.9,-570.54 133.7,-567.68 139.89,-576.28 143.9,-570.54"/>
</g>
<!-- node_0x6060000017c0 -->
<g id="node5" class="node">
<title>node_0x6060000017c0</title>
<path fill="#98fb98" stroke="#964b00" d="M206.39,-500.5C206.39,-500.5 318.04,-500.5 318.04,-500.5 324.04,-500.5 330.04,-506.5 330.04,-512.5 330.04,-512.5 330.04,-554.5 330.04,-554.5 330.04,-560.5 324.04,-566.5 318.04,-566.5 318.04,-566.5 206.39,-566.5 206.39,-566.5 200.39,-566.5 194.39,-560.5 194.39,-554.5 194.39,-554.5 194.39,-512.5 194.39,-512.5 194.39,-506.5 200.39,-500.5 206.39,-500.5"/>
<text xml:space="preserve" text-anchor="middle" x="262.22" y="-551.3" font-family="Times,serif" font-size="14.00">type = CONST_VAR</text>
<polyline fill="none" stroke="#964b00" points="194.39,-544.5 330.04,-544.5"/>
<text xml:space="preserve" text-anchor="middle" x="261.89" y="-529.3" font-family="Times,serif" font-size="14.00">val = 1</text>
<polyline fill="none" stroke="#964b00" points="194.39,-522.5 330.04,-522.5"/>
<text xml:space="preserve" text-anchor="middle" x="227.89" y="-507.3" font-family="Times,serif" font-size="14.00">0</text>
<polyline fill="none" stroke="#964b00" points="261.39,-500.5 261.39,-522.5"/>
<text xml:space="preserve" text-anchor="middle" x="295.39" y="-507.3" font-family="Times,serif" font-size="14.00">0</text>
</g>
<!-- node_0x606000001760&#45;&gt;node_0x6060000017c0 -->
<g id="edge4" class="edge">
<title>node_0x606000001760&#45;&gt;node_0x6060000017c0</title>
<path fill="none" stroke="#964b00" d="M262.22,-613.7C262.22,-602.05 262.22,-589.47 262.22,-577.84"/>
<polygon fill="#964b00" stroke="#964b00" points="258.72,-613.67 262.22,-623.67 265.72,-613.67 258.72,-613.67"/>
<polygon fill="#964b00" stroke="#964b00" points="265.72,-578.11 262.22,-568.11 258.72,-578.11 265.72,-578.11"/>
</g>
<!-- node_0x606000001940 -->
<g id="node7" class="node">
<title>node_0x606000001940</title>
<path fill="#00ffff" stroke="#964b00" d="M363.67,-500.5C363.67,-500.5 466.77,-500.5 466.77,-500.5 472.77,-500.5 478.77,-506.5 478.77,-512.5 478.77,-512.5 478.77,-554.5 478.77,-554.5 478.77,-560.5 472.77,-566.5 466.77,-566.5 466.77,-566.5 363.67,-566.5 363.67,-566.5 357.67,-566.5 351.67,-560.5 351.67,-554.5 351.67,-554.5 351.67,-512.5 351.67,-512.5 351.67,-506.5 357.67,-500.5 363.67,-500.5"/>
<text xml:space="preserve" text-anchor="middle" x="415.22" y="-551.3" font-family="Times,serif" font-size="14.00">type = OPERATOR</text>
<polyline fill="none" stroke="#964b00" points="351.67,-544.5 478.77,-544.5"/>
<text xml:space="preserve" text-anchor="middle" x="414.77" y="-529.3" font-family="Times,serif" font-size="14.00">val = 6(OP_INIT)</text>
<polyline fill="none" stroke="#964b00" points="351.67,-522.5 478.77,-522.5"/>
<text xml:space="preserve" text-anchor="middle" x="382.94" y="-507.3" font-family="Times,serif" font-size="14.00">L</text>
<polyline fill="none" stroke="#964b00" points="414.22,-500.5 414.22,-522.5"/>
<text xml:space="preserve" text-anchor="middle" x="446.39" y="-507.3" font-family="Times,serif" font-size="14.00">R</text>
</g>
<!-- node_0x606000001be0&#45;&gt;node_0x606000001940 -->
<g id="edge6" class="edge">
<title>node_0x606000001be0&#45;&gt;node_0x606000001940</title>
<path fill="none" stroke="#964b00" d="M415.22,-613.7C415.22,-602.05 415.22,-589.47 415.22,-577.84"/>
<polygon fill="#964b00" stroke="#964b00" points="411.72,-613.67 415.22,-623.67 418.72,-613.67 411.72,-613.67"/>
<polygon fill="#964b00" stroke="#964b00" points="418.72,-578.11 415.22,-568.11 411.72,-578.11 418.72,-578.11"/>
</g>
<!-- node_0x606000001d00 -->
<g id="node14" class="node">
<title>node_0x606000001d00</title>
<path fill="#00ffff" stroke="#964b00" d="M563.67,-500.5C563.67,-500.5 666.77,-500.5 666.77,-500.5 672.77,-500.5 678.77,-506.5 678.77,-512.5 678.77,-512.5 678.77,-554.5 678.77,-554.5 678.77,-560.5 672.77,-566.5 666.77,-566.5 666.77,-566.5 563.67,-566.5 563.67,-566.5 557.67,-566.5 551.67,-560.5 551.67,-554.5 551.67,-554.5 551.67,-512.5 551.67,-512.5 551.67,-506.5 557.67,-500.5 563.67,-500.5"/>
<text xml:space="preserve" text-anchor="middle" x="615.22" y="-551.3" font-family="Times,serif" font-size="14.00">type = OPERATOR</text>
<polyline fill="none" stroke="#964b00" points="551.67,-544.5 678.77,-544.5"/>
<text xml:space="preserve" text-anchor="middle" x="614.81" y="-529.3" font-family="Times,serif" font-size="14.00">val = 11(OP_SP)</text>
<polyline fill="none" stroke="#964b00" points="551.67,-522.5 678.77,-522.5"/>
<text xml:space="preserve" text-anchor="middle" x="582.94" y="-507.3" font-family="Times,serif" font-size="14.00">L</text>
<polyline fill="none" stroke="#964b00" points="614.22,-500.5 614.22,-522.5"/>
<text xml:space="preserve" text-anchor="middle" x="646.39" y="-507.3" font-family="Times,serif" font-size="14.00">R</text>
</g>
<!-- node_0x606000001be0&#45;&gt;node_0x606000001d00 -->
<g id="edge13" class="edge">
<title>node_0x606000001be0&#45;&gt;node_0x606000001d00</title>
<path fill="none" stroke="#964b00" d="M477.83,-618.99C501.72,-604.3 528.93,-587.57 552.8,-572.89"/>
<polygon fill="#964b00" stroke="#964b00" points="476,-616.01 469.32,-624.23 479.67,-621.97 476,-616.01"/>
<polygon fill="#964b00" stroke="#964b00" points="554.48,-575.96 561.17,-567.74 550.82,-570 554.48,-575.96"/>
</g>
<!-- node_0x6060000018e0 -->
<g id="node8" class="node">
<title>node_0x6060000018e0</title>
<path fill="#daa520" stroke="#964b00" d="M179.36,-375.5C179.36,-375.5 279.08,-375.5 279.08,-375.5 285.08,-375.5 291.08,-381.5 291.08,-387.5 291.08,-387.5 291.08,-429.5 291.08,-429.5 291.08,-435.5 285.08,-441.5 279.08,-441.5 279.08,-441.5 179.36,-441.5 179.36,-441.5 173.36,-441.5 167.36,-435.5 167.36,-429.5 167.36,-429.5 167.36,-387.5 167.36,-387.5 167.36,-381.5 173.36,-375.5 179.36,-375.5"/>
<text xml:space="preserve" text-anchor="middle" x="229.22" y="-426.3" font-family="Times,serif" font-size="14.00">type = VARIABLE</text>
<polyline fill="none" stroke="#964b00" points="167.36,-419.5 291.08,-419.5"/>
<text xml:space="preserve" text-anchor="middle" x="228.86" y="-404.3" font-family="Times,serif" font-size="14.00">val = x</text>
<polyline fill="none" stroke="#964b00" points="167.36,-397.5 291.08,-397.5"/>
<text xml:space="preserve" text-anchor="middle" x="197.86" y="-382.3" font-family="Times,serif" font-size="14.00">0</text>
<polyline fill="none" stroke="#964b00" points="228.36,-375.5 228.36,-397.5"/>
<text xml:space="preserve" text-anchor="middle" x="259.36" y="-382.3" font-family="Times,serif" font-size="14.00">0</text>
</g>
<!-- node_0x606000001940&#45;&gt;node_0x6060000018e0 -->
<g id="edge7" class="edge">
<title>node_0x606000001940&#45;&gt;node_0x6060000018e0</title>
<path fill="none" stroke="#964b00" d="M356.86,-493.91C334.81,-479.32 309.72,-462.74 287.66,-448.15"/>
<polygon fill="#964b00" stroke="#964b00" points="354.81,-496.75 365.09,-499.35 358.67,-490.91 354.81,-496.75"/>
<polygon fill="#964b00" stroke="#964b00" points="289.62,-445.25 279.34,-442.65 285.76,-451.08 289.62,-445.25"/>
</g>
<!-- node_0x6060000019a0 -->
<g id="node9" class="node">
<title>node_0x6060000019a0</title>
<path fill="#a7a7f2" stroke="#964b00" d="M324.7,-375.5C324.7,-375.5 505.74,-375.5 505.74,-375.5 511.74,-375.5 517.74,-381.5 517.74,-387.5 517.74,-387.5 517.74,-429.5 517.74,-429.5 517.74,-435.5 511.74,-441.5 505.74,-441.5 505.74,-441.5 324.7,-441.5 324.7,-441.5 318.7,-441.5 312.7,-435.5 312.7,-429.5 312.7,-429.5 312.7,-387.5 312.7,-387.5 312.7,-381.5 318.7,-375.5 324.7,-375.5"/>
<text xml:space="preserve" text-anchor="middle" x="414.86" y="-426.3" font-family="Times,serif" font-size="14.00">type = FUNCTION_CALL</text>
<polyline fill="none" stroke="#964b00" points="312.7,-419.5 517.74,-419.5"/>
<text xml:space="preserve" text-anchor="middle" x="415.22" y="-404.3" font-family="Times,serif" font-size="14.00">val = Che_cazzo_solve_linear_eq</text>
<polyline fill="none" stroke="#964b00" points="312.7,-397.5 517.74,-397.5"/>
<text xml:space="preserve" text-anchor="middle" x="363.7" y="-382.3" font-family="Times,serif" font-size="14.00">0</text>
<polyline fill="none" stroke="#964b00" points="414.7,-375.5 414.7,-397.5"/>
<text xml:space="preserve" text-anchor="middle" x="466.2" y="-382.3" font-family="Times,serif" font-size="14.00">0</text>
</g>
<!-- node_0x606000001940&#45;&gt;node_0x6060000019a0 -->
<g id="edge8" class="edge">
<title>node_0x606000001940&#45;&gt;node_0x6060000019a0</title>
<path fill="none" stroke="#964b00" d="M415.22,-488.7C415.22,-477.05 415.22,-464.47 415.22,-452.84"/>
<polygon fill="#964b00" stroke="#964b00" points="411.72,-488.67 415.22,-498.67 418.72,-488.67 411.72,-488.67"/>
<polygon fill="#964b00" stroke="#964b00" points="418.72,-453.11 415.22,-443.11 411.72,-453.11 418.72,-453.11"/>
</g>
<!-- node_0x606000001ac0 -->
<g id="node10" class="node">
<title>node_0x606000001ac0</title>
<path fill="#00ffff" stroke="#964b00" d="M363.16,-250.5C363.16,-250.5 467.27,-250.5 467.27,-250.5 473.27,-250.5 479.27,-256.5 479.27,-262.5 479.27,-262.5 479.27,-304.5 479.27,-304.5 479.27,-310.5 473.27,-316.5 467.27,-316.5 467.27,-316.5 363.16,-316.5 363.16,-316.5 357.16,-316.5 351.16,-310.5 351.16,-304.5 351.16,-304.5 351.16,-262.5 351.16,-262.5 351.16,-256.5 357.16,-250.5 363.16,-250.5"/>
<text xml:space="preserve" text-anchor="middle" x="415.21" y="-301.3" font-family="Times,serif" font-size="14.00">type = OPERATOR</text>
<polyline fill="none" stroke="#964b00" points="351.16,-294.5 479.27,-294.5"/>
<text xml:space="preserve" text-anchor="middle" x="415.22" y="-279.3" font-family="Times,serif" font-size="14.00">val = 19(OP_COM)</text>
<polyline fill="none" stroke="#964b00" points="351.16,-272.5 479.27,-272.5"/>
<text xml:space="preserve" text-anchor="middle" x="382.93" y="-257.3" font-family="Times,serif" font-size="14.00">L</text>
<polyline fill="none" stroke="#964b00" points="414.71,-250.5 414.71,-272.5"/>
<text xml:space="preserve" text-anchor="middle" x="446.88" y="-257.3" font-family="Times,serif" font-size="14.00">R</text>
</g>
<!-- node_0x6060000019a0&#45;&gt;node_0x606000001ac0 -->
<g id="edge9" class="edge">
<title>node_0x6060000019a0&#45;&gt;node_0x606000001ac0</title>
<path fill="none" stroke="#964b00" d="M415.22,-363.7C415.22,-352.05 415.22,-339.47 415.22,-327.84"/>
<polygon fill="#964b00" stroke="#964b00" points="411.72,-363.67 415.22,-373.67 418.72,-363.67 411.72,-363.67"/>
<polygon fill="#964b00" stroke="#964b00" points="418.72,-328.11 415.22,-318.11 411.72,-328.11 418.72,-328.11"/>
</g>
<!-- node_0x606000001a60 -->
<g id="node11" class="node">
<title>node_0x606000001a60</title>
<path fill="#daa520" stroke="#964b00" d="M291.36,-125.5C291.36,-125.5 391.08,-125.5 391.08,-125.5 397.08,-125.5 403.08,-131.5 403.08,-137.5 403.08,-137.5 403.08,-179.5 403.08,-179.5 403.08,-185.5 397.08,-191.5 391.08,-191.5 391.08,-191.5 291.36,-191.5 291.36,-191.5 285.36,-191.5 279.36,-185.5 279.36,-179.5 279.36,-179.5 279.36,-137.5 279.36,-137.5 279.36,-131.5 285.36,-125.5 291.36,-125.5"/>
<text xml:space="preserve" text-anchor="middle" x="341.22" y="-176.3" font-family="Times,serif" font-size="14.00">type = VARIABLE</text>
<polyline fill="none" stroke="#964b00" points="279.36,-169.5 403.08,-169.5"/>
<text xml:space="preserve" text-anchor="middle" x="340.85" y="-154.3" font-family="Times,serif" font-size="14.00">val = param_b</text>
<polyline fill="none" stroke="#964b00" points="279.36,-147.5 403.08,-147.5"/>
<text xml:space="preserve" text-anchor="middle" x="309.86" y="-132.3" font-family="Times,serif" font-size="14.00">0</text>
<polyline fill="none" stroke="#964b00" points="340.36,-125.5 340.36,-147.5"/>
<text xml:space="preserve" text-anchor="middle" x="371.36" y="-132.3" font-family="Times,serif" font-size="14.00">0</text>
</g>
<!-- node_0x606000001ac0&#45;&gt;node_0x606000001a60 -->
<g id="edge10" class="edge">
<title>node_0x606000001ac0&#45;&gt;node_0x606000001a60</title>
<path fill="none" stroke="#964b00" d="M389.96,-240.52C382.36,-227.89 374.03,-214.04 366.43,-201.41"/>
<polygon fill="#964b00" stroke="#964b00" points="386.84,-242.12 394.99,-248.89 392.84,-238.51 386.84,-242.12"/>
<polygon fill="#964b00" stroke="#964b00" points="369.46,-199.66 361.31,-192.9 363.47,-203.27 369.46,-199.66"/>
</g>
<!-- node_0x606000008d20 -->
<g id="node12" class="node">
<title>node_0x606000008d20</title>
<path fill="#00ffff" stroke="#964b00" d="M437.16,-125.5C437.16,-125.5 541.27,-125.5 541.27,-125.5 547.27,-125.5 553.27,-131.5 553.27,-137.5 553.27,-137.5 553.27,-179.5 553.27,-179.5 553.27,-185.5 547.27,-191.5 541.27,-191.5 541.27,-191.5 437.16,-191.5 437.16,-191.5 431.16,-191.5 425.16,-185.5 425.16,-179.5 425.16,-179.5 425.16,-137.5 425.16,-137.5 425.16,-131.5 431.16,-125.5 437.16,-125.5"/>
<text xml:space="preserve" text-anchor="middle" x="489.21" y="-176.3" font-family="Times,serif" font-size="14.00">type = OPERATOR</text>
<polyline fill="none" stroke="#964b00" points="425.16,-169.5 553.27,-169.5"/>
<text xml:space="preserve" text-anchor="middle" x="489.22" y="-154.3" font-family="Times,serif" font-size="14.00">val = 19(OP_COM)</text>
<polyline fill="none" stroke="#964b00" points="425.16,-147.5 553.27,-147.5"/>
<text xml:space="preserve" text-anchor="middle" x="456.93" y="-132.3" font-family="Times,serif" font-size="14.00">L</text>
<polyline fill="none" stroke="#964b00" points="488.71,-125.5 488.71,-147.5"/>
<text xml:space="preserve" text-anchor="middle" x="520.88" y="-132.3" font-family="Times,serif" font-size="14.00">R</text>
</g>
<!-- node_0x606000001ac0&#45;&gt;node_0x606000008d20 -->
<g id="edge11" class="edge">
<title>node_0x606000001ac0&#45;&gt;node_0x606000008d20</title>
<path fill="none" stroke="#964b00" d="M440.47,-240.52C448.07,-227.89 456.41,-214.04 464,-201.41"/>
<polygon fill="#964b00" stroke="#964b00" points="437.6,-238.51 435.44,-248.89 443.59,-242.12 437.6,-238.51"/>
<polygon fill="#964b00" stroke="#964b00" points="466.97,-203.27 469.12,-192.9 460.97,-199.66 466.97,-203.27"/>
</g>
<!-- node_0x606000001b20 -->
<g id="node13" class="node">
<title>node_0x606000001b20</title>
<path fill="#daa520" stroke="#964b00" d="M439.36,-0.5C439.36,-0.5 539.08,-0.5 539.08,-0.5 545.08,-0.5 551.08,-6.5 551.08,-12.5 551.08,-12.5 551.08,-54.5 551.08,-54.5 551.08,-60.5 545.08,-66.5 539.08,-66.5 539.08,-66.5 439.36,-66.5 439.36,-66.5 433.36,-66.5 427.36,-60.5 427.36,-54.5 427.36,-54.5 427.36,-12.5 427.36,-12.5 427.36,-6.5 433.36,-0.5 439.36,-0.5"/>
<text xml:space="preserve" text-anchor="middle" x="489.22" y="-51.3" font-family="Times,serif" font-size="14.00">type = VARIABLE</text>
<polyline fill="none" stroke="#964b00" points="427.36,-44.5 551.08,-44.5"/>
<text xml:space="preserve" text-anchor="middle" x="488.95" y="-29.3" font-family="Times,serif" font-size="14.00">val = param_c</text>
<polyline fill="none" stroke="#964b00" points="427.36,-22.5 551.08,-22.5"/>
<text xml:space="preserve" text-anchor="middle" x="457.86" y="-7.3" font-family="Times,serif" font-size="14.00">0</text>
<polyline fill="none" stroke="#964b00" points="488.36,-0.5 488.36,-22.5"/>
<text xml:space="preserve" text-anchor="middle" x="519.36" y="-7.3" font-family="Times,serif" font-size="14.00">0</text>
</g>
<!-- node_0x606000008d20&#45;&gt;node_0x606000001b20 -->
<g id="edge12" class="edge">
<title>node_0x606000008d20&#45;&gt;node_0x606000001b20</title>
<path fill="none" stroke="#964b00" d="M489.22,-113.7C489.22,-102.05 489.22,-89.47 489.22,-77.84"/>
<polygon fill="#964b00" stroke="#964b00" points="485.72,-113.67 489.22,-123.67 492.72,-113.67 485.72,-113.67"/>
<polygon fill="#964b00" stroke="#964b00" points="492.72,-78.11 489.22,-68.11 485.72,-78.11 492.72,-78.11"/>
</g>
<!-- node_0x606000001c40 -->
<g id="node15" class="node">
<title>node_0x606000001c40</title>
<path fill="#00ffff" stroke="#964b00" d="M551.5,-375.5C551.5,-375.5 678.94,-375.5 678.94,-375.5 684.94,-375.5 690.94,-381.5 690.94,-387.5 690.94,-387.5 690.94,-429.5 690.94,-429.5 690.94,-435.5 684.94,-441.5 678.94,-441.5 678.94,-441.5 551.5,-441.5 551.5,-441.5 545.5,-441.5 539.5,-435.5 539.5,-429.5 539.5,-429.5 539.5,-387.5 539.5,-387.5 539.5,-381.5 545.5,-375.5 551.5,-375.5"/>
<text xml:space="preserve" text-anchor="middle" x="615.05" y="-426.3" font-family="Times,serif" font-size="14.00">type = OPERATOR</text>
<polyline fill="none" stroke="#964b00" points="539.5,-419.5 690.94,-419.5"/>
<text xml:space="preserve" text-anchor="middle" x="615.22" y="-404.3" font-family="Times,serif" font-size="14.00">val = 22(OP_OUTPUT)</text>
<polyline fill="none" stroke="#964b00" points="539.5,-397.5 690.94,-397.5"/>
<text xml:space="preserve" text-anchor="middle" x="576.77" y="-382.3" font-family="Times,serif" font-size="14.00">L</text>
<polyline fill="none" stroke="#964b00" points="614.05,-375.5 614.05,-397.5"/>
<text xml:space="preserve" text-anchor="middle" x="652.22" y="-382.3" font-family="Times,serif" font-size="14.00">R</text>
</g>
<!-- node_0x606000001d00&#45;&gt;node_0x606000001c40 -->
<g id="edge14" class="edge">
<title>node_0x606000001d00&#45;&gt;node_0x606000001c40</title>
<path fill="none" stroke="#964b00" d="M615.22,-488.7C615.22,-477.05 615.22,-464.47 615.22,-452.84"/>
<polygon fill="#964b00" stroke="#964b00" points="611.72,-488.67 615.22,-498.67 618.72,-488.67 611.72,-488.67"/>
<polygon fill="#964b00" stroke="#964b00" points="618.72,-453.11 615.22,-443.11 611.72,-453.11 618.72,-453.11"/>
</g>
<!-- node_0x606000001d60 -->
<g id="node17" class="node">
<title>node_0x606000001d60</title>
<path fill="#00ffff" stroke="#964b00" d="M725.17,-375.5C725.17,-375.5 829.26,-375.5 829.26,-375.5 835.26,-375.5 841.26,-381.5 841.26,-387.5 841.26,-387.5 841.26,-429.5 841.26,-429.5 841.26,-435.5 835.26,-441.5 829.26,-441.5 829.26,-441.5 725.17,-441.5 725.17,-441.5 719.17,-441.5 713.17,-435.5 713.17,-429.5 713.17,-429.5 713.17,-387.5 713.17,-387.5 713.17,-381.5 719.17,-375.5 725.17,-375.5"/>
<text xml:space="preserve" text-anchor="middle" x="776.72" y="-426.3" font-family="Times,serif" font-size="14.00">type = OPERATOR</text>
<polyline fill="none" stroke="#964b00" points="713.17,-419.5 841.26,-419.5"/>
<text xml:space="preserve" text-anchor="middle" x="777.22" y="-404.3" font-family="Times,serif" font-size="14.00">val = 23(OP_EXIT)</text>
<polyline fill="none" stroke="#964b00" points="713.17,-397.5 841.26,-397.5"/>
<text xml:space="preserve" text-anchor="middle" x="744.94" y="-382.3" font-family="Times,serif" font-size="14.00">L</text>
<polyline fill="none" stroke="#964b00" points="776.72,-375.5 776.72,-397.5"/>
<text xml:space="preserve" text-anchor="middle" x="808.89" y="-382.3" font-family="Times,serif" font-size="14.00">R</text>
</g>
<!-- node_0x606000001d00&#45;&gt;node_0x606000001d60 -->
<g id="edge16" class="edge">
<title>node_0x606000001d00&#45;&gt;node_0x606000001d60</title>
<path fill="none" stroke="#964b00" d="M666.92,-493.24C685.7,-478.99 706.9,-462.89 725.66,-448.64"/>
<polygon fill="#964b00" stroke="#964b00" points="664.83,-490.43 658.99,-499.27 669.07,-496.01 664.83,-490.43"/>
<polygon fill="#964b00" stroke="#964b00" points="727.6,-451.56 733.45,-442.73 723.37,-445.99 727.6,-451.56"/>
</g>
<!-- node_0x606000001ca0 -->
<g id="node16" class="node">
<title>node_0x606000001ca0</title>
<path fill="#daa520" stroke="#964b00" d="M565.36,-250.5C565.36,-250.5 665.08,-250.5 665.08,-250.5 671.08,-250.5 677.08,-256.5 677.08,-262.5 677.08,-262.5 677.08,-304.5 677.08,-304.5 677.08,-310.5 671.08,-316.5 665.08,-316.5 665.08,-316.5 565.36,-316.5 565.36,-316.5 559.36,-316.5 553.36,-310.5 553.36,-304.5 553.36,-304.5 553.36,-262.5 553.36,-262.5 553.36,-256.5 559.36,-250.5 565.36,-250.5"/>
<text xml:space="preserve" text-anchor="middle" x="615.22" y="-301.3" font-family="Times,serif" font-size="14.00">type = VARIABLE</text>
<polyline fill="none" stroke="#964b00" points="553.36,-294.5 677.08,-294.5"/>
<text xml:space="preserve" text-anchor="middle" x="614.86" y="-279.3" font-family="Times,serif" font-size="14.00">val = x</text>
<polyline fill="none" stroke="#964b00" points="553.36,-272.5 677.08,-272.5"/>
<text xml:space="preserve" text-anchor="middle" x="583.86" y="-257.3" font-family="Times,serif" font-size="14.00">0</text>
<polyline fill="none" stroke="#964b00" points="614.36,-250.5 614.36,-272.5"/>
<text xml:space="preserve" text-anchor="middle" x="645.36" y="-257.3" font-family="Times,serif" font-size="14.00">0</text>
</g>
<!-- node_0x606000001c40&#45;&gt;node_0x606000001ca0 -->
<g id="edge15" class="edge">
<title>node_0x606000001c40&#45;&gt;node_0x606000001ca0</title>
<path fill="none" stroke="#964b00" d="M615.22,-363.7C615.22,-352.05 615.22,-339.47 615.22,-327.84"/>
<polygon fill="#964b00" stroke="#964b00" points="611.72,-363.67 615.22,-373.67 618.72,-363.67 611.72,-363.67"/>
<polygon fill="#964b00" stroke="#964b00" points="618.72,-328.11 615.22,-318.11 611.72,-328.11 618.72,-328.11"/>
</g>
</g>
</svg>
