<?xml version="1.0" encoding="UTF-8" standalone="no"?>
<!DOCTYPE svg PUBLIC "-//W3C//DTD SVG 1.1//EN"
 "http://www.w3.org/Graphics/SVG/1.1/DTD/svg11.dtd">
<!-- Generated by graphviz version 14.0.2 (20251019.1705)
 -->
<!-- Title: G Pages: 1 -->
<svg width="308pt" height="325pt"
 viewBox="0.00 0.00 308.00 325.00" xmlns="http://www.w3.org/2000/svg" xmlns:xlink="http://www.w3.org/1999/xlink">
<g id="graph0" class="graph" transform="scale(1 1) rotate(0) translate(4 321)">
<title>G</title>
<polygon fill="#fffafa" stroke="none" points="-4,4 -4,-321 303.94,-321 303.94,4 -4,4"/>
<!-- node_0x606000002360 -->
<g id="node1" class="node">
<title>node_0x606000002360</title>
<path fill="#a7a7f2" stroke="#964b00" d="M12,-250.5C12,-250.5 287.94,-250.5 287.94,-250.5 293.94,-250.5 299.94,-256.5 299.94,-262.5 299.94,-262.5 299.94,-304.5 299.94,-304.5 299.94,-310.5 293.94,-316.5 287.94,-316.5 287.94,-316.5 12,-316.5 12,-316.5 6,-316.5 0,-310.5 0,-304.5 0,-304.5 0,-262.5 0,-262.5 0,-256.5 6,-250.5 12,-250.5"/>
<text xml:space="preserve" text-anchor="middle" x="149.67" y="-301.3" font-family="Times,serif" font-size="14.00">type = FUNCTION_CALL</text>
<polyline fill="none" stroke="#964b00" points="0,-294.5 299.94,-294.5"/>
<text xml:space="preserve" text-anchor="middle" x="149.97" y="-279.3" font-family="Times,serif" font-size="14.00">val = Che_cazzo_get_quantaty_of_solutions_diskr</text>
<polyline fill="none" stroke="#964b00" points="0,-272.5 299.94,-272.5"/>
<text xml:space="preserve" text-anchor="middle" x="74.5" y="-257.3" font-family="Times,serif" font-size="14.00">0</text>
<polyline fill="none" stroke="#964b00" points="149,-250.5 149,-272.5"/>
<text xml:space="preserve" text-anchor="middle" x="224" y="-257.3" font-family="Times,serif" font-size="14.00">0</text>
</g>
<!-- node_0x606000008de0 -->
<g id="node2" class="node">
<title>node_0x606000008de0</title>
<path fill="#00ffff" stroke="#964b00" d="M97.91,-125.5C97.91,-125.5 202.03,-125.5 202.03,-125.5 208.03,-125.5 214.03,-131.5 214.03,-137.5 214.03,-137.5 214.03,-179.5 214.03,-179.5 214.03,-185.5 208.03,-191.5 202.03,-191.5 202.03,-191.5 97.91,-191.5 97.91,-191.5 91.91,-191.5 85.91,-185.5 85.91,-179.5 85.91,-179.5 85.91,-137.5 85.91,-137.5 85.91,-131.5 91.91,-125.5 97.91,-125.5"/>
<text xml:space="preserve" text-anchor="middle" x="149.96" y="-176.3" font-family="Times,serif" font-size="14.00">type = OPERATOR</text>
<polyline fill="none" stroke="#964b00" points="85.91,-169.5 214.03,-169.5"/>
<text xml:space="preserve" text-anchor="middle" x="149.97" y="-154.3" font-family="Times,serif" font-size="14.00">val = 19(OP_COM)</text>
<polyline fill="none" stroke="#964b00" points="85.91,-147.5 214.03,-147.5"/>
<text xml:space="preserve" text-anchor="middle" x="117.69" y="-132.3" font-family="Times,serif" font-size="14.00">L</text>
<polyline fill="none" stroke="#964b00" points="149.47,-125.5 149.47,-147.5"/>
<text xml:space="preserve" text-anchor="middle" x="181.63" y="-132.3" font-family="Times,serif" font-size="14.00">R</text>
</g>
<!-- node_0x606000002360&#45;&gt;node_0x606000008de0 -->
<g id="edge1" class="edge">
<title>node_0x606000002360&#45;&gt;node_0x606000008de0</title>
<path fill="none" stroke="#964b00" d="M149.97,-238.7C149.97,-227.05 149.97,-214.47 149.97,-202.84"/>
<polygon fill="#964b00" stroke="#964b00" points="146.47,-238.67 149.97,-248.67 153.47,-238.67 146.47,-238.67"/>
<polygon fill="#964b00" stroke="#964b00" points="153.47,-203.11 149.97,-193.11 146.47,-203.11 153.47,-203.11"/>
</g>
<!-- node_0x606000002420 -->
<g id="node3" class="node">
<title>node_0x606000002420</title>
<path fill="#daa520" stroke="#964b00" d="M100.11,-0.5C100.11,-0.5 199.83,-0.5 199.83,-0.5 205.83,-0.5 211.83,-6.5 211.83,-12.5 211.83,-12.5 211.83,-54.5 211.83,-54.5 211.83,-60.5 205.83,-66.5 199.83,-66.5 199.83,-66.5 100.11,-66.5 100.11,-66.5 94.11,-66.5 88.11,-60.5 88.11,-54.5 88.11,-54.5 88.11,-12.5 88.11,-12.5 88.11,-6.5 94.11,-0.5 100.11,-0.5"/>
<text xml:space="preserve" text-anchor="middle" x="149.97" y="-51.3" font-family="Times,serif" font-size="14.00">type = VARIABLE</text>
<polyline fill="none" stroke="#964b00" points="88.11,-44.5 211.83,-44.5"/>
<text xml:space="preserve" text-anchor="middle" x="149.61" y="-29.3" font-family="Times,serif" font-size="14.00">val = d</text>
<polyline fill="none" stroke="#964b00" points="88.11,-22.5 211.83,-22.5"/>
<text xml:space="preserve" text-anchor="middle" x="118.61" y="-7.3" font-family="Times,serif" font-size="14.00">0</text>
<polyline fill="none" stroke="#964b00" points="149.11,-0.5 149.11,-22.5"/>
<text xml:space="preserve" text-anchor="middle" x="180.11" y="-7.3" font-family="Times,serif" font-size="14.00">0</text>
</g>
<!-- node_0x606000008de0&#45;&gt;node_0x606000002420 -->
<g id="edge2" class="edge">
<title>node_0x606000008de0&#45;&gt;node_0x606000002420</title>
<path fill="none" stroke="#964b00" d="M149.97,-113.7C149.97,-102.05 149.97,-89.47 149.97,-77.84"/>
<polygon fill="#964b00" stroke="#964b00" points="146.47,-113.67 149.97,-123.67 153.47,-113.67 146.47,-113.67"/>
<polygon fill="#964b00" stroke="#964b00" points="153.47,-78.11 149.97,-68.11 146.47,-78.11 153.47,-78.11"/>
</g>
</g>
</svg>
