<?xml version="1.0" encoding="UTF-8" standalone="no"?>
<!DOCTYPE svg PUBLIC "-//W3C//DTD SVG 1.1//EN"
 "http://www.w3.org/Graphics/SVG/1.1/DTD/svg11.dtd">
<!-- Generated by graphviz version 14.0.2 (20251019.1705)
 -->
<!-- Title: G Pages: 1 -->
<svg width="213pt" height="75pt"
 viewBox="0.00 0.00 213.00 75.00" xmlns="http://www.w3.org/2000/svg" xmlns:xlink="http://www.w3.org/1999/xlink">
<g id="graph0" class="graph" transform="scale(1 1) rotate(0) translate(4 71)">
<title>G</title>
<polygon fill="#fffafa" stroke="none" points="-4,4 -4,-71 209.04,-71 209.04,4 -4,4"/>
<!-- node_0x6060000019a0 -->
<g id="node1" class="node">
<title>node_0x6060000019a0</title>
<path fill="#a7a7f2" stroke="#964b00" d="M12,-0.5C12,-0.5 193.04,-0.5 193.04,-0.5 199.04,-0.5 205.04,-6.5 205.04,-12.5 205.04,-12.5 205.04,-54.5 205.04,-54.5 205.04,-60.5 199.04,-66.5 193.04,-66.5 193.04,-66.5 12,-66.5 12,-66.5 6,-66.5 0,-60.5 0,-54.5 0,-54.5 0,-12.5 0,-12.5 0,-6.5 6,-0.5 12,-0.5"/>
<text xml:space="preserve" text-anchor="middle" x="102.39" y="-51.3" font-family="Times,serif" font-size="14.00">type = FUNCTION</text>
<polyline fill="none" stroke="#964b00" points="0,-44.5 205.04,-44.5"/>
<text xml:space="preserve" text-anchor="middle" x="102.52" y="-29.3" font-family="Times,serif" font-size="14.00">val = Che_cazzo_solve_linear_eq</text>
<polyline fill="none" stroke="#964b00" points="0,-22.5 205.04,-22.5"/>
<text xml:space="preserve" text-anchor="middle" x="51" y="-7.3" font-family="Times,serif" font-size="14.00">0</text>
<polyline fill="none" stroke="#964b00" points="102,-0.5 102,-22.5"/>
<text xml:space="preserve" text-anchor="middle" x="153.5" y="-7.3" font-family="Times,serif" font-size="14.00">0</text>
</g>
</g>
</svg>
