<?xml version="1.0" encoding="UTF-8" standalone="no"?>
<!DOCTYPE svg PUBLIC "-//W3C//DTD SVG 1.1//EN"
 "http://www.w3.org/Graphics/SVG/1.1/DTD/svg11.dtd">
<!-- Generated by graphviz version 14.0.2 (20251019.1705)
 -->
<!-- Title: G Pages: 1 -->
<svg width="1037pt" height="950pt"
 viewBox="0.00 0.00 1037.00 950.00" xmlns="http://www.w3.org/2000/svg" xmlns:xlink="http://www.w3.org/1999/xlink">
<g id="graph0" class="graph" transform="scale(1 1) rotate(0) translate(4 946)">
<title>G</title>
<polygon fill="#fffafa" stroke="none" points="-4,4 -4,-946 1032.72,-946 1032.72,4 -4,4"/>
<!-- node_0x606000009680 -->
<g id="node1" class="node">
<title>node_0x606000009680</title>
<path fill="#00ffff" stroke="#964b00" d="M233.31,-875.5C233.31,-875.5 336.41,-875.5 336.41,-875.5 342.41,-875.5 348.41,-881.5 348.41,-887.5 348.41,-887.5 348.41,-929.5 348.41,-929.5 348.41,-935.5 342.41,-941.5 336.41,-941.5 336.41,-941.5 233.31,-941.5 233.31,-941.5 227.31,-941.5 221.31,-935.5 221.31,-929.5 221.31,-929.5 221.31,-887.5 221.31,-887.5 221.31,-881.5 227.31,-875.5 233.31,-875.5"/>
<text xml:space="preserve" text-anchor="middle" x="284.86" y="-926.3" font-family="Times,serif" font-size="14.00">type = OPERATOR</text>
<polyline fill="none" stroke="#964b00" points="221.31,-919.5 348.41,-919.5"/>
<text xml:space="preserve" text-anchor="middle" x="284.65" y="-904.3" font-family="Times,serif" font-size="14.00">val = 18(OP_CFB)</text>
<polyline fill="none" stroke="#964b00" points="221.31,-897.5 348.41,-897.5"/>
<text xml:space="preserve" text-anchor="middle" x="252.59" y="-882.3" font-family="Times,serif" font-size="14.00">L</text>
<polyline fill="none" stroke="#964b00" points="283.86,-875.5 283.86,-897.5"/>
<text xml:space="preserve" text-anchor="middle" x="316.03" y="-882.3" font-family="Times,serif" font-size="14.00">R</text>
</g>
<!-- node_0x606000006da0 -->
<g id="node2" class="node">
<title>node_0x606000006da0</title>
<path fill="#a7a7f2" stroke="#964b00" d="M177.6,-750.5C177.6,-750.5 392.12,-750.5 392.12,-750.5 398.12,-750.5 404.12,-756.5 404.12,-762.5 404.12,-762.5 404.12,-804.5 404.12,-804.5 404.12,-810.5 398.12,-816.5 392.12,-816.5 392.12,-816.5 177.6,-816.5 177.6,-816.5 171.6,-816.5 165.6,-810.5 165.6,-804.5 165.6,-804.5 165.6,-762.5 165.6,-762.5 165.6,-756.5 171.6,-750.5 177.6,-750.5"/>
<text xml:space="preserve" text-anchor="middle" x="284.49" y="-801.3" font-family="Times,serif" font-size="14.00">type = FUNCTION</text>
<polyline fill="none" stroke="#964b00" points="165.6,-794.5 404.12,-794.5"/>
<text xml:space="preserve" text-anchor="middle" x="284.86" y="-779.3" font-family="Times,serif" font-size="14.00">val = Che_cazzo_find_smaller_solution</text>
<polyline fill="none" stroke="#964b00" points="165.6,-772.5 404.12,-772.5"/>
<text xml:space="preserve" text-anchor="middle" x="225.1" y="-757.3" font-family="Times,serif" font-size="14.00">0</text>
<polyline fill="none" stroke="#964b00" points="284.6,-750.5 284.6,-772.5"/>
<text xml:space="preserve" text-anchor="middle" x="344.1" y="-757.3" font-family="Times,serif" font-size="14.00">0</text>
</g>
<!-- node_0x606000009680&#45;&gt;node_0x606000006da0 -->
<g id="edge1" class="edge">
<title>node_0x606000009680&#45;&gt;node_0x606000006da0</title>
<path fill="none" stroke="#964b00" d="M284.86,-863.7C284.86,-852.05 284.86,-839.47 284.86,-827.84"/>
<polygon fill="#964b00" stroke="#964b00" points="281.36,-863.67 284.86,-873.67 288.36,-863.67 281.36,-863.67"/>
<polygon fill="#964b00" stroke="#964b00" points="288.36,-828.11 284.86,-818.11 281.36,-828.11 288.36,-828.11"/>
</g>
<!-- node_0x606000006ec0 -->
<g id="node3" class="node">
<title>node_0x606000006ec0</title>
<path fill="#00ffff" stroke="#964b00" d="M157.8,-625.5C157.8,-625.5 261.92,-625.5 261.92,-625.5 267.92,-625.5 273.92,-631.5 273.92,-637.5 273.92,-637.5 273.92,-679.5 273.92,-679.5 273.92,-685.5 267.92,-691.5 261.92,-691.5 261.92,-691.5 157.8,-691.5 157.8,-691.5 151.8,-691.5 145.8,-685.5 145.8,-679.5 145.8,-679.5 145.8,-637.5 145.8,-637.5 145.8,-631.5 151.8,-625.5 157.8,-625.5"/>
<text xml:space="preserve" text-anchor="middle" x="209.85" y="-676.3" font-family="Times,serif" font-size="14.00">type = OPERATOR</text>
<polyline fill="none" stroke="#964b00" points="145.8,-669.5 273.92,-669.5"/>
<text xml:space="preserve" text-anchor="middle" x="209.86" y="-654.3" font-family="Times,serif" font-size="14.00">val = 19(OP_COM)</text>
<polyline fill="none" stroke="#964b00" points="145.8,-647.5 273.92,-647.5"/>
<text xml:space="preserve" text-anchor="middle" x="177.58" y="-632.3" font-family="Times,serif" font-size="14.00">L</text>
<polyline fill="none" stroke="#964b00" points="209.35,-625.5 209.35,-647.5"/>
<text xml:space="preserve" text-anchor="middle" x="241.52" y="-632.3" font-family="Times,serif" font-size="14.00">R</text>
</g>
<!-- node_0x606000006da0&#45;&gt;node_0x606000006ec0 -->
<g id="edge2" class="edge">
<title>node_0x606000006da0&#45;&gt;node_0x606000006ec0</title>
<path fill="none" stroke="#964b00" d="M259.26,-740.52C251.56,-727.89 243.11,-714.04 235.42,-701.41"/>
<polygon fill="#964b00" stroke="#964b00" points="256.17,-742.18 264.37,-748.89 262.15,-738.53 256.17,-742.18"/>
<polygon fill="#964b00" stroke="#964b00" points="238.42,-699.61 230.22,-692.89 232.44,-703.25 238.42,-699.61"/>
</g>
<!-- node_0x6060000073a0 -->
<g id="node11" class="node">
<title>node_0x6060000073a0</title>
<path fill="#00ffff" stroke="#964b00" d="M310.31,-625.5C310.31,-625.5 413.41,-625.5 413.41,-625.5 419.41,-625.5 425.41,-631.5 425.41,-637.5 425.41,-637.5 425.41,-679.5 425.41,-679.5 425.41,-685.5 419.41,-691.5 413.41,-691.5 413.41,-691.5 310.31,-691.5 310.31,-691.5 304.31,-691.5 298.31,-685.5 298.31,-679.5 298.31,-679.5 298.31,-637.5 298.31,-637.5 298.31,-631.5 304.31,-625.5 310.31,-625.5"/>
<text xml:space="preserve" text-anchor="middle" x="361.86" y="-676.3" font-family="Times,serif" font-size="14.00">type = OPERATOR</text>
<polyline fill="none" stroke="#964b00" points="298.31,-669.5 425.41,-669.5"/>
<text xml:space="preserve" text-anchor="middle" x="361.45" y="-654.3" font-family="Times,serif" font-size="14.00">val = 11(OP_SP)</text>
<polyline fill="none" stroke="#964b00" points="298.31,-647.5 425.41,-647.5"/>
<text xml:space="preserve" text-anchor="middle" x="329.59" y="-632.3" font-family="Times,serif" font-size="14.00">L</text>
<polyline fill="none" stroke="#964b00" points="360.86,-625.5 360.86,-647.5"/>
<text xml:space="preserve" text-anchor="middle" x="393.03" y="-632.3" font-family="Times,serif" font-size="14.00">R</text>
</g>
<!-- node_0x606000006da0&#45;&gt;node_0x6060000073a0 -->
<g id="edge10" class="edge">
<title>node_0x606000006da0&#45;&gt;node_0x6060000073a0</title>
<path fill="none" stroke="#964b00" d="M311.14,-740.52C319.13,-727.76 327.89,-713.76 335.86,-701.04"/>
<polygon fill="#964b00" stroke="#964b00" points="308.23,-738.57 305.89,-748.9 314.17,-742.28 308.23,-738.57"/>
<polygon fill="#964b00" stroke="#964b00" points="338.62,-703.22 340.96,-692.88 332.69,-699.5 338.62,-703.22"/>
</g>
<!-- node_0x606000006e60 -->
<g id="node4" class="node">
<title>node_0x606000006e60</title>
<path fill="#daa520" stroke="#964b00" d="M12,-500.5C12,-500.5 111.72,-500.5 111.72,-500.5 117.72,-500.5 123.72,-506.5 123.72,-512.5 123.72,-512.5 123.72,-554.5 123.72,-554.5 123.72,-560.5 117.72,-566.5 111.72,-566.5 111.72,-566.5 12,-566.5 12,-566.5 6,-566.5 0,-560.5 0,-554.5 0,-554.5 0,-512.5 0,-512.5 0,-506.5 6,-500.5 12,-500.5"/>
<text xml:space="preserve" text-anchor="middle" x="61.86" y="-551.3" font-family="Times,serif" font-size="14.00">type = VARIABLE</text>
<polyline fill="none" stroke="#964b00" points="0,-544.5 123.72,-544.5"/>
<text xml:space="preserve" text-anchor="middle" x="61.61" y="-529.3" font-family="Times,serif" font-size="14.00">val = a</text>
<polyline fill="none" stroke="#964b00" points="0,-522.5 123.72,-522.5"/>
<text xml:space="preserve" text-anchor="middle" x="30.5" y="-507.3" font-family="Times,serif" font-size="14.00">0</text>
<polyline fill="none" stroke="#964b00" points="61,-500.5 61,-522.5"/>
<text xml:space="preserve" text-anchor="middle" x="92" y="-507.3" font-family="Times,serif" font-size="14.00">0</text>
</g>
<!-- node_0x606000006ec0&#45;&gt;node_0x606000006e60 -->
<g id="edge3" class="edge">
<title>node_0x606000006ec0&#45;&gt;node_0x606000006e60</title>
<path fill="none" stroke="#964b00" d="M162.36,-618.02C145.41,-603.94 126.33,-588.08 109.39,-574"/>
<polygon fill="#964b00" stroke="#964b00" points="159.88,-620.52 169.81,-624.22 164.36,-615.13 159.88,-620.52"/>
<polygon fill="#964b00" stroke="#964b00" points="111.83,-571.48 101.91,-567.78 107.36,-576.87 111.83,-571.48"/>
</g>
<!-- node_0x606000006f80 -->
<g id="node5" class="node">
<title>node_0x606000006f80</title>
<path fill="#00ffff" stroke="#964b00" d="M157.8,-500.5C157.8,-500.5 261.92,-500.5 261.92,-500.5 267.92,-500.5 273.92,-506.5 273.92,-512.5 273.92,-512.5 273.92,-554.5 273.92,-554.5 273.92,-560.5 267.92,-566.5 261.92,-566.5 261.92,-566.5 157.8,-566.5 157.8,-566.5 151.8,-566.5 145.8,-560.5 145.8,-554.5 145.8,-554.5 145.8,-512.5 145.8,-512.5 145.8,-506.5 151.8,-500.5 157.8,-500.5"/>
<text xml:space="preserve" text-anchor="middle" x="209.85" y="-551.3" font-family="Times,serif" font-size="14.00">type = OPERATOR</text>
<polyline fill="none" stroke="#964b00" points="145.8,-544.5 273.92,-544.5"/>
<text xml:space="preserve" text-anchor="middle" x="209.86" y="-529.3" font-family="Times,serif" font-size="14.00">val = 19(OP_COM)</text>
<polyline fill="none" stroke="#964b00" points="145.8,-522.5 273.92,-522.5"/>
<text xml:space="preserve" text-anchor="middle" x="177.58" y="-507.3" font-family="Times,serif" font-size="14.00">L</text>
<polyline fill="none" stroke="#964b00" points="209.35,-500.5 209.35,-522.5"/>
<text xml:space="preserve" text-anchor="middle" x="241.52" y="-507.3" font-family="Times,serif" font-size="14.00">R</text>
</g>
<!-- node_0x606000006ec0&#45;&gt;node_0x606000006f80 -->
<g id="edge4" class="edge">
<title>node_0x606000006ec0&#45;&gt;node_0x606000006f80</title>
<path fill="none" stroke="#964b00" d="M209.86,-613.7C209.86,-602.05 209.86,-589.47 209.86,-577.84"/>
<polygon fill="#964b00" stroke="#964b00" points="206.36,-613.67 209.86,-623.67 213.36,-613.67 206.36,-613.67"/>
<polygon fill="#964b00" stroke="#964b00" points="213.36,-578.11 209.86,-568.11 206.36,-578.11 213.36,-578.11"/>
</g>
<!-- node_0x606000006f20 -->
<g id="node6" class="node">
<title>node_0x606000006f20</title>
<path fill="#daa520" stroke="#964b00" d="M12,-375.5C12,-375.5 111.72,-375.5 111.72,-375.5 117.72,-375.5 123.72,-381.5 123.72,-387.5 123.72,-387.5 123.72,-429.5 123.72,-429.5 123.72,-435.5 117.72,-441.5 111.72,-441.5 111.72,-441.5 12,-441.5 12,-441.5 6,-441.5 0,-435.5 0,-429.5 0,-429.5 0,-387.5 0,-387.5 0,-381.5 6,-375.5 12,-375.5"/>
<text xml:space="preserve" text-anchor="middle" x="61.86" y="-426.3" font-family="Times,serif" font-size="14.00">type = VARIABLE</text>
<polyline fill="none" stroke="#964b00" points="0,-419.5 123.72,-419.5"/>
<text xml:space="preserve" text-anchor="middle" x="61.5" y="-404.3" font-family="Times,serif" font-size="14.00">val = b</text>
<polyline fill="none" stroke="#964b00" points="0,-397.5 123.72,-397.5"/>
<text xml:space="preserve" text-anchor="middle" x="30.5" y="-382.3" font-family="Times,serif" font-size="14.00">0</text>
<polyline fill="none" stroke="#964b00" points="61,-375.5 61,-397.5"/>
<text xml:space="preserve" text-anchor="middle" x="92" y="-382.3" font-family="Times,serif" font-size="14.00">0</text>
</g>
<!-- node_0x606000006f80&#45;&gt;node_0x606000006f20 -->
<g id="edge5" class="edge">
<title>node_0x606000006f80&#45;&gt;node_0x606000006f20</title>
<path fill="none" stroke="#964b00" d="M162.36,-493.02C145.41,-478.94 126.33,-463.08 109.39,-449"/>
<polygon fill="#964b00" stroke="#964b00" points="159.88,-495.52 169.81,-499.22 164.36,-490.13 159.88,-495.52"/>
<polygon fill="#964b00" stroke="#964b00" points="111.83,-446.48 101.91,-442.78 107.36,-451.87 111.83,-446.48"/>
</g>
<!-- node_0x606000007040 -->
<g id="node7" class="node">
<title>node_0x606000007040</title>
<path fill="#00ffff" stroke="#964b00" d="M157.8,-375.5C157.8,-375.5 261.92,-375.5 261.92,-375.5 267.92,-375.5 273.92,-381.5 273.92,-387.5 273.92,-387.5 273.92,-429.5 273.92,-429.5 273.92,-435.5 267.92,-441.5 261.92,-441.5 261.92,-441.5 157.8,-441.5 157.8,-441.5 151.8,-441.5 145.8,-435.5 145.8,-429.5 145.8,-429.5 145.8,-387.5 145.8,-387.5 145.8,-381.5 151.8,-375.5 157.8,-375.5"/>
<text xml:space="preserve" text-anchor="middle" x="209.85" y="-426.3" font-family="Times,serif" font-size="14.00">type = OPERATOR</text>
<polyline fill="none" stroke="#964b00" points="145.8,-419.5 273.92,-419.5"/>
<text xml:space="preserve" text-anchor="middle" x="209.86" y="-404.3" font-family="Times,serif" font-size="14.00">val = 19(OP_COM)</text>
<polyline fill="none" stroke="#964b00" points="145.8,-397.5 273.92,-397.5"/>
<text xml:space="preserve" text-anchor="middle" x="177.58" y="-382.3" font-family="Times,serif" font-size="14.00">L</text>
<polyline fill="none" stroke="#964b00" points="209.35,-375.5 209.35,-397.5"/>
<text xml:space="preserve" text-anchor="middle" x="241.52" y="-382.3" font-family="Times,serif" font-size="14.00">R</text>
</g>
<!-- node_0x606000006f80&#45;&gt;node_0x606000007040 -->
<g id="edge6" class="edge">
<title>node_0x606000006f80&#45;&gt;node_0x606000007040</title>
<path fill="none" stroke="#964b00" d="M209.86,-488.7C209.86,-477.05 209.86,-464.47 209.86,-452.84"/>
<polygon fill="#964b00" stroke="#964b00" points="206.36,-488.67 209.86,-498.67 213.36,-488.67 206.36,-488.67"/>
<polygon fill="#964b00" stroke="#964b00" points="213.36,-453.11 209.86,-443.11 206.36,-453.11 213.36,-453.11"/>
</g>
<!-- node_0x606000006fe0 -->
<g id="node8" class="node">
<title>node_0x606000006fe0</title>
<path fill="#daa520" stroke="#964b00" d="M12,-250.5C12,-250.5 111.72,-250.5 111.72,-250.5 117.72,-250.5 123.72,-256.5 123.72,-262.5 123.72,-262.5 123.72,-304.5 123.72,-304.5 123.72,-310.5 117.72,-316.5 111.72,-316.5 111.72,-316.5 12,-316.5 12,-316.5 6,-316.5 0,-310.5 0,-304.5 0,-304.5 0,-262.5 0,-262.5 0,-256.5 6,-250.5 12,-250.5"/>
<text xml:space="preserve" text-anchor="middle" x="61.86" y="-301.3" font-family="Times,serif" font-size="14.00">type = VARIABLE</text>
<polyline fill="none" stroke="#964b00" points="0,-294.5 123.72,-294.5"/>
<text xml:space="preserve" text-anchor="middle" x="61.61" y="-279.3" font-family="Times,serif" font-size="14.00">val = c</text>
<polyline fill="none" stroke="#964b00" points="0,-272.5 123.72,-272.5"/>
<text xml:space="preserve" text-anchor="middle" x="30.5" y="-257.3" font-family="Times,serif" font-size="14.00">0</text>
<polyline fill="none" stroke="#964b00" points="61,-250.5 61,-272.5"/>
<text xml:space="preserve" text-anchor="middle" x="92" y="-257.3" font-family="Times,serif" font-size="14.00">0</text>
</g>
<!-- node_0x606000007040&#45;&gt;node_0x606000006fe0 -->
<g id="edge7" class="edge">
<title>node_0x606000007040&#45;&gt;node_0x606000006fe0</title>
<path fill="none" stroke="#964b00" d="M162.36,-368.02C145.41,-353.94 126.33,-338.08 109.39,-324"/>
<polygon fill="#964b00" stroke="#964b00" points="159.88,-370.52 169.81,-374.22 164.36,-365.13 159.88,-370.52"/>
<polygon fill="#964b00" stroke="#964b00" points="111.83,-321.48 101.91,-317.78 107.36,-326.87 111.83,-321.48"/>
</g>
<!-- node_0x606000009620 -->
<g id="node9" class="node">
<title>node_0x606000009620</title>
<path fill="#00ffff" stroke="#964b00" d="M157.8,-250.5C157.8,-250.5 261.92,-250.5 261.92,-250.5 267.92,-250.5 273.92,-256.5 273.92,-262.5 273.92,-262.5 273.92,-304.5 273.92,-304.5 273.92,-310.5 267.92,-316.5 261.92,-316.5 261.92,-316.5 157.8,-316.5 157.8,-316.5 151.8,-316.5 145.8,-310.5 145.8,-304.5 145.8,-304.5 145.8,-262.5 145.8,-262.5 145.8,-256.5 151.8,-250.5 157.8,-250.5"/>
<text xml:space="preserve" text-anchor="middle" x="209.85" y="-301.3" font-family="Times,serif" font-size="14.00">type = OPERATOR</text>
<polyline fill="none" stroke="#964b00" points="145.8,-294.5 273.92,-294.5"/>
<text xml:space="preserve" text-anchor="middle" x="209.86" y="-279.3" font-family="Times,serif" font-size="14.00">val = 19(OP_COM)</text>
<polyline fill="none" stroke="#964b00" points="145.8,-272.5 273.92,-272.5"/>
<text xml:space="preserve" text-anchor="middle" x="177.58" y="-257.3" font-family="Times,serif" font-size="14.00">L</text>
<polyline fill="none" stroke="#964b00" points="209.35,-250.5 209.35,-272.5"/>
<text xml:space="preserve" text-anchor="middle" x="241.52" y="-257.3" font-family="Times,serif" font-size="14.00">R</text>
</g>
<!-- node_0x606000007040&#45;&gt;node_0x606000009620 -->
<g id="edge8" class="edge">
<title>node_0x606000007040&#45;&gt;node_0x606000009620</title>
<path fill="none" stroke="#964b00" d="M209.86,-363.7C209.86,-352.05 209.86,-339.47 209.86,-327.84"/>
<polygon fill="#964b00" stroke="#964b00" points="206.36,-363.67 209.86,-373.67 213.36,-363.67 206.36,-363.67"/>
<polygon fill="#964b00" stroke="#964b00" points="213.36,-328.11 209.86,-318.11 206.36,-328.11 213.36,-328.11"/>
</g>
<!-- node_0x6060000070a0 -->
<g id="node10" class="node">
<title>node_0x6060000070a0</title>
<path fill="#daa520" stroke="#964b00" d="M160,-125.5C160,-125.5 259.72,-125.5 259.72,-125.5 265.72,-125.5 271.72,-131.5 271.72,-137.5 271.72,-137.5 271.72,-179.5 271.72,-179.5 271.72,-185.5 265.72,-191.5 259.72,-191.5 259.72,-191.5 160,-191.5 160,-191.5 154,-191.5 148,-185.5 148,-179.5 148,-179.5 148,-137.5 148,-137.5 148,-131.5 154,-125.5 160,-125.5"/>
<text xml:space="preserve" text-anchor="middle" x="209.86" y="-176.3" font-family="Times,serif" font-size="14.00">type = VARIABLE</text>
<polyline fill="none" stroke="#964b00" points="148,-169.5 271.72,-169.5"/>
<text xml:space="preserve" text-anchor="middle" x="209.5" y="-154.3" font-family="Times,serif" font-size="14.00">val = d</text>
<polyline fill="none" stroke="#964b00" points="148,-147.5 271.72,-147.5"/>
<text xml:space="preserve" text-anchor="middle" x="178.5" y="-132.3" font-family="Times,serif" font-size="14.00">0</text>
<polyline fill="none" stroke="#964b00" points="209,-125.5 209,-147.5"/>
<text xml:space="preserve" text-anchor="middle" x="240" y="-132.3" font-family="Times,serif" font-size="14.00">0</text>
</g>
<!-- node_0x606000009620&#45;&gt;node_0x6060000070a0 -->
<g id="edge9" class="edge">
<title>node_0x606000009620&#45;&gt;node_0x6060000070a0</title>
<path fill="none" stroke="#964b00" d="M209.86,-238.7C209.86,-227.05 209.86,-214.47 209.86,-202.84"/>
<polygon fill="#964b00" stroke="#964b00" points="206.36,-238.67 209.86,-248.67 213.36,-238.67 206.36,-238.67"/>
<polygon fill="#964b00" stroke="#964b00" points="213.36,-203.11 209.86,-193.11 206.36,-203.11 213.36,-203.11"/>
</g>
<!-- node_0x606000007220 -->
<g id="node12" class="node">
<title>node_0x606000007220</title>
<path fill="#00ffff" stroke="#964b00" d="M310.31,-500.5C310.31,-500.5 413.41,-500.5 413.41,-500.5 419.41,-500.5 425.41,-506.5 425.41,-512.5 425.41,-512.5 425.41,-554.5 425.41,-554.5 425.41,-560.5 419.41,-566.5 413.41,-566.5 413.41,-566.5 310.31,-566.5 310.31,-566.5 304.31,-566.5 298.31,-560.5 298.31,-554.5 298.31,-554.5 298.31,-512.5 298.31,-512.5 298.31,-506.5 304.31,-500.5 310.31,-500.5"/>
<text xml:space="preserve" text-anchor="middle" x="361.86" y="-551.3" font-family="Times,serif" font-size="14.00">type = OPERATOR</text>
<polyline fill="none" stroke="#964b00" points="298.31,-544.5 425.41,-544.5"/>
<text xml:space="preserve" text-anchor="middle" x="361.41" y="-529.3" font-family="Times,serif" font-size="14.00">val = 6(OP_INIT)</text>
<polyline fill="none" stroke="#964b00" points="298.31,-522.5 425.41,-522.5"/>
<text xml:space="preserve" text-anchor="middle" x="329.59" y="-507.3" font-family="Times,serif" font-size="14.00">L</text>
<polyline fill="none" stroke="#964b00" points="360.86,-500.5 360.86,-522.5"/>
<text xml:space="preserve" text-anchor="middle" x="393.03" y="-507.3" font-family="Times,serif" font-size="14.00">R</text>
</g>
<!-- node_0x6060000073a0&#45;&gt;node_0x606000007220 -->
<g id="edge11" class="edge">
<title>node_0x6060000073a0&#45;&gt;node_0x606000007220</title>
<path fill="none" stroke="#964b00" d="M361.86,-613.7C361.86,-602.05 361.86,-589.47 361.86,-577.84"/>
<polygon fill="#964b00" stroke="#964b00" points="358.36,-613.67 361.86,-623.67 365.36,-613.67 358.36,-613.67"/>
<polygon fill="#964b00" stroke="#964b00" points="365.36,-578.11 361.86,-568.11 358.36,-578.11 365.36,-578.11"/>
</g>
<!-- node_0x606000007400 -->
<g id="node17" class="node">
<title>node_0x606000007400</title>
<path fill="#00ffff" stroke="#964b00" d="M535.31,-500.5C535.31,-500.5 638.41,-500.5 638.41,-500.5 644.41,-500.5 650.41,-506.5 650.41,-512.5 650.41,-512.5 650.41,-554.5 650.41,-554.5 650.41,-560.5 644.41,-566.5 638.41,-566.5 638.41,-566.5 535.31,-566.5 535.31,-566.5 529.31,-566.5 523.31,-560.5 523.31,-554.5 523.31,-554.5 523.31,-512.5 523.31,-512.5 523.31,-506.5 529.31,-500.5 535.31,-500.5"/>
<text xml:space="preserve" text-anchor="middle" x="586.86" y="-551.3" font-family="Times,serif" font-size="14.00">type = OPERATOR</text>
<polyline fill="none" stroke="#964b00" points="523.31,-544.5 650.41,-544.5"/>
<text xml:space="preserve" text-anchor="middle" x="586.64" y="-529.3" font-family="Times,serif" font-size="14.00">val = 20(OP_RET)</text>
<polyline fill="none" stroke="#964b00" points="523.31,-522.5 650.41,-522.5"/>
<text xml:space="preserve" text-anchor="middle" x="554.59" y="-507.3" font-family="Times,serif" font-size="14.00">L</text>
<polyline fill="none" stroke="#964b00" points="585.86,-500.5 585.86,-522.5"/>
<text xml:space="preserve" text-anchor="middle" x="618.03" y="-507.3" font-family="Times,serif" font-size="14.00">R</text>
</g>
<!-- node_0x6060000073a0&#45;&gt;node_0x606000007400 -->
<g id="edge16" class="edge">
<title>node_0x6060000073a0&#45;&gt;node_0x606000007400</title>
<path fill="none" stroke="#964b00" d="M431.09,-619.65C458.57,-604.63 490.1,-587.39 517.58,-572.37"/>
<polygon fill="#964b00" stroke="#964b00" points="429.69,-616.43 422.6,-624.3 433.05,-622.57 429.69,-616.43"/>
<polygon fill="#964b00" stroke="#964b00" points="519.08,-575.54 526.18,-567.67 515.73,-569.4 519.08,-575.54"/>
</g>
<!-- node_0x6060000071c0 -->
<g id="node13" class="node">
<title>node_0x6060000071c0</title>
<path fill="#daa520" stroke="#964b00" d="M311,-375.5C311,-375.5 410.72,-375.5 410.72,-375.5 416.72,-375.5 422.72,-381.5 422.72,-387.5 422.72,-387.5 422.72,-429.5 422.72,-429.5 422.72,-435.5 416.72,-441.5 410.72,-441.5 410.72,-441.5 311,-441.5 311,-441.5 305,-441.5 299,-435.5 299,-429.5 299,-429.5 299,-387.5 299,-387.5 299,-381.5 305,-375.5 311,-375.5"/>
<text xml:space="preserve" text-anchor="middle" x="360.86" y="-426.3" font-family="Times,serif" font-size="14.00">type = VARIABLE</text>
<polyline fill="none" stroke="#964b00" points="299,-419.5 422.72,-419.5"/>
<text xml:space="preserve" text-anchor="middle" x="360.5" y="-404.3" font-family="Times,serif" font-size="14.00">val = diskr</text>
<polyline fill="none" stroke="#964b00" points="299,-397.5 422.72,-397.5"/>
<text xml:space="preserve" text-anchor="middle" x="329.5" y="-382.3" font-family="Times,serif" font-size="14.00">0</text>
<polyline fill="none" stroke="#964b00" points="360,-375.5 360,-397.5"/>
<text xml:space="preserve" text-anchor="middle" x="391" y="-382.3" font-family="Times,serif" font-size="14.00">0</text>
</g>
<!-- node_0x606000007220&#45;&gt;node_0x6060000071c0 -->
<g id="edge12" class="edge">
<title>node_0x606000007220&#45;&gt;node_0x6060000071c0</title>
<path fill="none" stroke="#964b00" d="M361.5,-488.7C361.41,-477.05 361.31,-464.47 361.21,-452.84"/>
<polygon fill="#964b00" stroke="#964b00" points="358,-488.7 361.59,-498.67 365,-488.64 358,-488.7"/>
<polygon fill="#964b00" stroke="#964b00" points="364.71,-453.09 361.13,-443.11 357.72,-453.14 364.71,-453.09"/>
</g>
<!-- node_0x6060000072e0 -->
<g id="node14" class="node">
<title>node_0x6060000072e0</title>
<path fill="#00ffff" stroke="#964b00" d="M456.31,-375.5C456.31,-375.5 559.41,-375.5 559.41,-375.5 565.41,-375.5 571.41,-381.5 571.41,-387.5 571.41,-387.5 571.41,-429.5 571.41,-429.5 571.41,-435.5 565.41,-441.5 559.41,-441.5 559.41,-441.5 456.31,-441.5 456.31,-441.5 450.31,-441.5 444.31,-435.5 444.31,-429.5 444.31,-429.5 444.31,-387.5 444.31,-387.5 444.31,-381.5 450.31,-375.5 456.31,-375.5"/>
<text xml:space="preserve" text-anchor="middle" x="507.86" y="-426.3" font-family="Times,serif" font-size="14.00">type = OPERATOR</text>
<polyline fill="none" stroke="#964b00" points="444.31,-419.5 571.41,-419.5"/>
<text xml:space="preserve" text-anchor="middle" x="507.81" y="-404.3" font-family="Times,serif" font-size="14.00">val = 5(OP_DEG)</text>
<polyline fill="none" stroke="#964b00" points="444.31,-397.5 571.41,-397.5"/>
<text xml:space="preserve" text-anchor="middle" x="475.59" y="-382.3" font-family="Times,serif" font-size="14.00">L</text>
<polyline fill="none" stroke="#964b00" points="506.86,-375.5 506.86,-397.5"/>
<text xml:space="preserve" text-anchor="middle" x="539.03" y="-382.3" font-family="Times,serif" font-size="14.00">R</text>
</g>
<!-- node_0x606000007220&#45;&gt;node_0x6060000072e0 -->
<g id="edge13" class="edge">
<title>node_0x606000007220&#45;&gt;node_0x6060000072e0</title>
<path fill="none" stroke="#964b00" d="M408.99,-492.8C425.65,-478.76 444.38,-462.98 461.01,-448.97"/>
<polygon fill="#964b00" stroke="#964b00" points="406.77,-490.09 401.38,-499.21 411.28,-495.44 406.77,-490.09"/>
<polygon fill="#964b00" stroke="#964b00" points="462.95,-451.91 468.35,-442.79 458.44,-446.56 462.95,-451.91"/>
</g>
<!-- node_0x606000007280 -->
<g id="node15" class="node">
<title>node_0x606000007280</title>
<path fill="#daa520" stroke="#964b00" d="M308,-250.5C308,-250.5 407.72,-250.5 407.72,-250.5 413.72,-250.5 419.72,-256.5 419.72,-262.5 419.72,-262.5 419.72,-304.5 419.72,-304.5 419.72,-310.5 413.72,-316.5 407.72,-316.5 407.72,-316.5 308,-316.5 308,-316.5 302,-316.5 296,-310.5 296,-304.5 296,-304.5 296,-262.5 296,-262.5 296,-256.5 302,-250.5 308,-250.5"/>
<text xml:space="preserve" text-anchor="middle" x="357.86" y="-301.3" font-family="Times,serif" font-size="14.00">type = VARIABLE</text>
<polyline fill="none" stroke="#964b00" points="296,-294.5 419.72,-294.5"/>
<text xml:space="preserve" text-anchor="middle" x="357.5" y="-279.3" font-family="Times,serif" font-size="14.00">val = d</text>
<polyline fill="none" stroke="#964b00" points="296,-272.5 419.72,-272.5"/>
<text xml:space="preserve" text-anchor="middle" x="326.5" y="-257.3" font-family="Times,serif" font-size="14.00">0</text>
<polyline fill="none" stroke="#964b00" points="357,-250.5 357,-272.5"/>
<text xml:space="preserve" text-anchor="middle" x="388" y="-257.3" font-family="Times,serif" font-size="14.00">0</text>
</g>
<!-- node_0x6060000072e0&#45;&gt;node_0x606000007280 -->
<g id="edge14" class="edge">
<title>node_0x6060000072e0&#45;&gt;node_0x606000007280</title>
<path fill="none" stroke="#964b00" d="M459.72,-368.02C442.54,-353.94 423.2,-338.08 406.03,-324"/>
<polygon fill="#964b00" stroke="#964b00" points="457.33,-370.59 467.28,-374.22 461.77,-365.18 457.33,-370.59"/>
<polygon fill="#964b00" stroke="#964b00" points="408.39,-321.41 398.44,-317.77 403.95,-326.82 408.39,-321.41"/>
</g>
<!-- node_0x606000007340 -->
<g id="node16" class="node">
<title>node_0x606000007340</title>
<path fill="#98fb98" stroke="#964b00" d="M454.04,-250.5C454.04,-250.5 565.69,-250.5 565.69,-250.5 571.69,-250.5 577.69,-256.5 577.69,-262.5 577.69,-262.5 577.69,-304.5 577.69,-304.5 577.69,-310.5 571.69,-316.5 565.69,-316.5 565.69,-316.5 454.04,-316.5 454.04,-316.5 448.04,-316.5 442.04,-310.5 442.04,-304.5 442.04,-304.5 442.04,-262.5 442.04,-262.5 442.04,-256.5 448.04,-250.5 454.04,-250.5"/>
<text xml:space="preserve" text-anchor="middle" x="509.86" y="-301.3" font-family="Times,serif" font-size="14.00">type = CONST_VAR</text>
<polyline fill="none" stroke="#964b00" points="442.04,-294.5 577.69,-294.5"/>
<text xml:space="preserve" text-anchor="middle" x="509.79" y="-279.3" font-family="Times,serif" font-size="14.00">val = 0.5</text>
<polyline fill="none" stroke="#964b00" points="442.04,-272.5 577.69,-272.5"/>
<text xml:space="preserve" text-anchor="middle" x="475.54" y="-257.3" font-family="Times,serif" font-size="14.00">0</text>
<polyline fill="none" stroke="#964b00" points="509.04,-250.5 509.04,-272.5"/>
<text xml:space="preserve" text-anchor="middle" x="543.04" y="-257.3" font-family="Times,serif" font-size="14.00">0</text>
</g>
<!-- node_0x6060000072e0&#45;&gt;node_0x606000007340 -->
<g id="edge15" class="edge">
<title>node_0x6060000072e0&#45;&gt;node_0x606000007340</title>
<path fill="none" stroke="#964b00" d="M508.57,-363.7C508.76,-352.05 508.97,-339.47 509.16,-327.84"/>
<polygon fill="#964b00" stroke="#964b00" points="505.07,-363.61 508.41,-373.67 512.07,-363.73 505.07,-363.61"/>
<polygon fill="#964b00" stroke="#964b00" points="512.65,-328.17 509.31,-318.11 505.65,-328.06 512.65,-328.17"/>
</g>
<!-- node_0x6060000077c0 -->
<g id="node18" class="node">
<title>node_0x6060000077c0</title>
<path fill="#00ffff" stroke="#964b00" d="M611.31,-375.5C611.31,-375.5 714.41,-375.5 714.41,-375.5 720.41,-375.5 726.41,-381.5 726.41,-387.5 726.41,-387.5 726.41,-429.5 726.41,-429.5 726.41,-435.5 720.41,-441.5 714.41,-441.5 714.41,-441.5 611.31,-441.5 611.31,-441.5 605.31,-441.5 599.31,-435.5 599.31,-429.5 599.31,-429.5 599.31,-387.5 599.31,-387.5 599.31,-381.5 605.31,-375.5 611.31,-375.5"/>
<text xml:space="preserve" text-anchor="middle" x="662.86" y="-426.3" font-family="Times,serif" font-size="14.00">type = OPERATOR</text>
<polyline fill="none" stroke="#964b00" points="599.31,-419.5 726.41,-419.5"/>
<text xml:space="preserve" text-anchor="middle" x="662.36" y="-404.3" font-family="Times,serif" font-size="14.00">val = 4(OP_DIV)</text>
<polyline fill="none" stroke="#964b00" points="599.31,-397.5 726.41,-397.5"/>
<text xml:space="preserve" text-anchor="middle" x="630.59" y="-382.3" font-family="Times,serif" font-size="14.00">L</text>
<polyline fill="none" stroke="#964b00" points="661.86,-375.5 661.86,-397.5"/>
<text xml:space="preserve" text-anchor="middle" x="694.03" y="-382.3" font-family="Times,serif" font-size="14.00">R</text>
</g>
<!-- node_0x606000007400&#45;&gt;node_0x6060000077c0 -->
<g id="edge17" class="edge">
<title>node_0x606000007400&#45;&gt;node_0x6060000077c0</title>
<path fill="none" stroke="#964b00" d="M612.8,-490.52C620.68,-477.76 629.33,-463.76 637.19,-451.04"/>
<polygon fill="#964b00" stroke="#964b00" points="609.9,-488.55 607.62,-498.9 615.86,-492.23 609.9,-488.55"/>
<polygon fill="#964b00" stroke="#964b00" points="639.95,-453.24 642.23,-442.89 634,-449.56 639.95,-453.24"/>
</g>
<!-- node_0x6060000076a0 -->
<g id="node19" class="node">
<title>node_0x6060000076a0</title>
<path fill="#00ffff" stroke="#964b00" d="M611.31,-250.5C611.31,-250.5 714.41,-250.5 714.41,-250.5 720.41,-250.5 726.41,-256.5 726.41,-262.5 726.41,-262.5 726.41,-304.5 726.41,-304.5 726.41,-310.5 720.41,-316.5 714.41,-316.5 714.41,-316.5 611.31,-316.5 611.31,-316.5 605.31,-316.5 599.31,-310.5 599.31,-304.5 599.31,-304.5 599.31,-262.5 599.31,-262.5 599.31,-256.5 605.31,-250.5 611.31,-250.5"/>
<text xml:space="preserve" text-anchor="middle" x="662.86" y="-301.3" font-family="Times,serif" font-size="14.00">type = OPERATOR</text>
<polyline fill="none" stroke="#964b00" points="599.31,-294.5 726.41,-294.5"/>
<text xml:space="preserve" text-anchor="middle" x="662.54" y="-279.3" font-family="Times,serif" font-size="14.00">val = 2(OP_SUB)</text>
<polyline fill="none" stroke="#964b00" points="599.31,-272.5 726.41,-272.5"/>
<text xml:space="preserve" text-anchor="middle" x="630.59" y="-257.3" font-family="Times,serif" font-size="14.00">L</text>
<polyline fill="none" stroke="#964b00" points="661.86,-250.5 661.86,-272.5"/>
<text xml:space="preserve" text-anchor="middle" x="694.03" y="-257.3" font-family="Times,serif" font-size="14.00">R</text>
</g>
<!-- node_0x6060000077c0&#45;&gt;node_0x6060000076a0 -->
<g id="edge18" class="edge">
<title>node_0x6060000077c0&#45;&gt;node_0x6060000076a0</title>
<path fill="none" stroke="#964b00" d="M662.86,-363.7C662.86,-352.05 662.86,-339.47 662.86,-327.84"/>
<polygon fill="#964b00" stroke="#964b00" points="659.36,-363.67 662.86,-373.67 666.36,-363.67 659.36,-363.67"/>
<polygon fill="#964b00" stroke="#964b00" points="666.36,-328.11 662.86,-318.11 659.36,-328.11 666.36,-328.11"/>
</g>
<!-- node_0x6060000078e0 -->
<g id="node24" class="node">
<title>node_0x6060000078e0</title>
<path fill="#00ffff" stroke="#964b00" d="M763.31,-250.5C763.31,-250.5 866.41,-250.5 866.41,-250.5 872.41,-250.5 878.41,-256.5 878.41,-262.5 878.41,-262.5 878.41,-304.5 878.41,-304.5 878.41,-310.5 872.41,-316.5 866.41,-316.5 866.41,-316.5 763.31,-316.5 763.31,-316.5 757.31,-316.5 751.31,-310.5 751.31,-304.5 751.31,-304.5 751.31,-262.5 751.31,-262.5 751.31,-256.5 757.31,-250.5 763.31,-250.5"/>
<text xml:space="preserve" text-anchor="middle" x="814.86" y="-301.3" font-family="Times,serif" font-size="14.00">type = OPERATOR</text>
<polyline fill="none" stroke="#964b00" points="751.31,-294.5 878.41,-294.5"/>
<text xml:space="preserve" text-anchor="middle" x="814.48" y="-279.3" font-family="Times,serif" font-size="14.00">val = 3(OP_MUL)</text>
<polyline fill="none" stroke="#964b00" points="751.31,-272.5 878.41,-272.5"/>
<text xml:space="preserve" text-anchor="middle" x="782.59" y="-257.3" font-family="Times,serif" font-size="14.00">L</text>
<polyline fill="none" stroke="#964b00" points="813.86,-250.5 813.86,-272.5"/>
<text xml:space="preserve" text-anchor="middle" x="846.03" y="-257.3" font-family="Times,serif" font-size="14.00">R</text>
</g>
<!-- node_0x6060000077c0&#45;&gt;node_0x6060000078e0 -->
<g id="edge23" class="edge">
<title>node_0x6060000077c0&#45;&gt;node_0x6060000078e0</title>
<path fill="none" stroke="#964b00" d="M711.65,-368.02C729.05,-353.94 748.64,-338.08 766.05,-324"/>
<polygon fill="#964b00" stroke="#964b00" points="709.55,-365.22 703.97,-374.23 713.95,-370.66 709.55,-365.22"/>
<polygon fill="#964b00" stroke="#964b00" points="768.18,-326.78 773.75,-317.77 763.78,-321.34 768.18,-326.78"/>
</g>
<!-- node_0x6060000075e0 -->
<g id="node20" class="node">
<title>node_0x6060000075e0</title>
<path fill="#00ffff" stroke="#964b00" d="M464.31,-125.5C464.31,-125.5 567.41,-125.5 567.41,-125.5 573.41,-125.5 579.41,-131.5 579.41,-137.5 579.41,-137.5 579.41,-179.5 579.41,-179.5 579.41,-185.5 573.41,-191.5 567.41,-191.5 567.41,-191.5 464.31,-191.5 464.31,-191.5 458.31,-191.5 452.31,-185.5 452.31,-179.5 452.31,-179.5 452.31,-137.5 452.31,-137.5 452.31,-131.5 458.31,-125.5 464.31,-125.5"/>
<text xml:space="preserve" text-anchor="middle" x="515.86" y="-176.3" font-family="Times,serif" font-size="14.00">type = OPERATOR</text>
<polyline fill="none" stroke="#964b00" points="452.31,-169.5 579.41,-169.5"/>
<text xml:space="preserve" text-anchor="middle" x="515.48" y="-154.3" font-family="Times,serif" font-size="14.00">val = 3(OP_MUL)</text>
<polyline fill="none" stroke="#964b00" points="452.31,-147.5 579.41,-147.5"/>
<text xml:space="preserve" text-anchor="middle" x="483.59" y="-132.3" font-family="Times,serif" font-size="14.00">L</text>
<polyline fill="none" stroke="#964b00" points="514.86,-125.5 514.86,-147.5"/>
<text xml:space="preserve" text-anchor="middle" x="547.03" y="-132.3" font-family="Times,serif" font-size="14.00">R</text>
</g>
<!-- node_0x6060000076a0&#45;&gt;node_0x6060000075e0 -->
<g id="edge19" class="edge">
<title>node_0x6060000076a0&#45;&gt;node_0x6060000075e0</title>
<path fill="none" stroke="#964b00" d="M615.41,-242.8C598.64,-228.76 579.78,-212.98 563.03,-198.97"/>
<polygon fill="#964b00" stroke="#964b00" points="613.16,-245.48 623.08,-249.21 617.65,-240.11 613.16,-245.48"/>
<polygon fill="#964b00" stroke="#964b00" points="565.56,-196.52 555.64,-192.79 561.06,-201.89 565.56,-196.52"/>
</g>
<!-- node_0x606000007700 -->
<g id="node23" class="node">
<title>node_0x606000007700</title>
<path fill="#daa520" stroke="#964b00" d="M613,-125.5C613,-125.5 712.72,-125.5 712.72,-125.5 718.72,-125.5 724.72,-131.5 724.72,-137.5 724.72,-137.5 724.72,-179.5 724.72,-179.5 724.72,-185.5 718.72,-191.5 712.72,-191.5 712.72,-191.5 613,-191.5 613,-191.5 607,-191.5 601,-185.5 601,-179.5 601,-179.5 601,-137.5 601,-137.5 601,-131.5 607,-125.5 613,-125.5"/>
<text xml:space="preserve" text-anchor="middle" x="662.86" y="-176.3" font-family="Times,serif" font-size="14.00">type = VARIABLE</text>
<polyline fill="none" stroke="#964b00" points="601,-169.5 724.72,-169.5"/>
<text xml:space="preserve" text-anchor="middle" x="662.5" y="-154.3" font-family="Times,serif" font-size="14.00">val = diskr</text>
<polyline fill="none" stroke="#964b00" points="601,-147.5 724.72,-147.5"/>
<text xml:space="preserve" text-anchor="middle" x="631.5" y="-132.3" font-family="Times,serif" font-size="14.00">0</text>
<polyline fill="none" stroke="#964b00" points="662,-125.5 662,-147.5"/>
<text xml:space="preserve" text-anchor="middle" x="693" y="-132.3" font-family="Times,serif" font-size="14.00">0</text>
</g>
<!-- node_0x6060000076a0&#45;&gt;node_0x606000007700 -->
<g id="edge22" class="edge">
<title>node_0x6060000076a0&#45;&gt;node_0x606000007700</title>
<path fill="none" stroke="#964b00" d="M662.86,-238.7C662.86,-227.05 662.86,-214.47 662.86,-202.84"/>
<polygon fill="#964b00" stroke="#964b00" points="659.36,-238.67 662.86,-248.67 666.36,-238.67 659.36,-238.67"/>
<polygon fill="#964b00" stroke="#964b00" points="666.36,-203.11 662.86,-193.11 659.36,-203.11 666.36,-203.11"/>
</g>
<!-- node_0x606000007520 -->
<g id="node21" class="node">
<title>node_0x606000007520</title>
<path fill="#98fb98" stroke="#964b00" d="M384.04,-0.5C384.04,-0.5 495.69,-0.5 495.69,-0.5 501.69,-0.5 507.69,-6.5 507.69,-12.5 507.69,-12.5 507.69,-54.5 507.69,-54.5 507.69,-60.5 501.69,-66.5 495.69,-66.5 495.69,-66.5 384.04,-66.5 384.04,-66.5 378.04,-66.5 372.04,-60.5 372.04,-54.5 372.04,-54.5 372.04,-12.5 372.04,-12.5 372.04,-6.5 378.04,-0.5 384.04,-0.5"/>
<text xml:space="preserve" text-anchor="middle" x="439.86" y="-51.3" font-family="Times,serif" font-size="14.00">type = CONST_VAR</text>
<polyline fill="none" stroke="#964b00" points="372.04,-44.5 507.69,-44.5"/>
<text xml:space="preserve" text-anchor="middle" x="439.37" y="-29.3" font-family="Times,serif" font-size="14.00">val = &#45;1</text>
<polyline fill="none" stroke="#964b00" points="372.04,-22.5 507.69,-22.5"/>
<text xml:space="preserve" text-anchor="middle" x="405.54" y="-7.3" font-family="Times,serif" font-size="14.00">0</text>
<polyline fill="none" stroke="#964b00" points="439.04,-0.5 439.04,-22.5"/>
<text xml:space="preserve" text-anchor="middle" x="473.04" y="-7.3" font-family="Times,serif" font-size="14.00">0</text>
</g>
<!-- node_0x6060000075e0&#45;&gt;node_0x606000007520 -->
<g id="edge20" class="edge">
<title>node_0x6060000075e0&#45;&gt;node_0x606000007520</title>
<path fill="none" stroke="#964b00" d="M489.92,-115.52C482.04,-102.76 473.39,-88.76 465.53,-76.04"/>
<polygon fill="#964b00" stroke="#964b00" points="486.86,-117.23 495.1,-123.9 492.82,-113.55 486.86,-117.23"/>
<polygon fill="#964b00" stroke="#964b00" points="468.72,-74.56 460.49,-67.89 462.77,-78.24 468.72,-74.56"/>
</g>
<!-- node_0x606000007640 -->
<g id="node22" class="node">
<title>node_0x606000007640</title>
<path fill="#daa520" stroke="#964b00" d="M542,-0.5C542,-0.5 641.72,-0.5 641.72,-0.5 647.72,-0.5 653.72,-6.5 653.72,-12.5 653.72,-12.5 653.72,-54.5 653.72,-54.5 653.72,-60.5 647.72,-66.5 641.72,-66.5 641.72,-66.5 542,-66.5 542,-66.5 536,-66.5 530,-60.5 530,-54.5 530,-54.5 530,-12.5 530,-12.5 530,-6.5 536,-0.5 542,-0.5"/>
<text xml:space="preserve" text-anchor="middle" x="591.86" y="-51.3" font-family="Times,serif" font-size="14.00">type = VARIABLE</text>
<polyline fill="none" stroke="#964b00" points="530,-44.5 653.72,-44.5"/>
<text xml:space="preserve" text-anchor="middle" x="591.5" y="-29.3" font-family="Times,serif" font-size="14.00">val = b</text>
<polyline fill="none" stroke="#964b00" points="530,-22.5 653.72,-22.5"/>
<text xml:space="preserve" text-anchor="middle" x="560.5" y="-7.3" font-family="Times,serif" font-size="14.00">0</text>
<polyline fill="none" stroke="#964b00" points="591,-0.5 591,-22.5"/>
<text xml:space="preserve" text-anchor="middle" x="622" y="-7.3" font-family="Times,serif" font-size="14.00">0</text>
</g>
<!-- node_0x6060000075e0&#45;&gt;node_0x606000007640 -->
<g id="edge21" class="edge">
<title>node_0x6060000075e0&#45;&gt;node_0x606000007640</title>
<path fill="none" stroke="#964b00" d="M541.8,-115.52C549.68,-102.76 558.33,-88.76 566.19,-76.04"/>
<polygon fill="#964b00" stroke="#964b00" points="538.9,-113.55 536.62,-123.9 544.86,-117.23 538.9,-113.55"/>
<polygon fill="#964b00" stroke="#964b00" points="568.95,-78.24 571.23,-67.89 563,-74.56 568.95,-78.24"/>
</g>
<!-- node_0x606000007880 -->
<g id="node25" class="node">
<title>node_0x606000007880</title>
<path fill="#98fb98" stroke="#964b00" d="M759.04,-125.5C759.04,-125.5 870.69,-125.5 870.69,-125.5 876.69,-125.5 882.69,-131.5 882.69,-137.5 882.69,-137.5 882.69,-179.5 882.69,-179.5 882.69,-185.5 876.69,-191.5 870.69,-191.5 870.69,-191.5 759.04,-191.5 759.04,-191.5 753.04,-191.5 747.04,-185.5 747.04,-179.5 747.04,-179.5 747.04,-137.5 747.04,-137.5 747.04,-131.5 753.04,-125.5 759.04,-125.5"/>
<text xml:space="preserve" text-anchor="middle" x="814.86" y="-176.3" font-family="Times,serif" font-size="14.00">type = CONST_VAR</text>
<polyline fill="none" stroke="#964b00" points="747.04,-169.5 882.69,-169.5"/>
<text xml:space="preserve" text-anchor="middle" x="814.54" y="-154.3" font-family="Times,serif" font-size="14.00">val = 2</text>
<polyline fill="none" stroke="#964b00" points="747.04,-147.5 882.69,-147.5"/>
<text xml:space="preserve" text-anchor="middle" x="780.54" y="-132.3" font-family="Times,serif" font-size="14.00">0</text>
<polyline fill="none" stroke="#964b00" points="814.04,-125.5 814.04,-147.5"/>
<text xml:space="preserve" text-anchor="middle" x="848.04" y="-132.3" font-family="Times,serif" font-size="14.00">0</text>
</g>
<!-- node_0x6060000078e0&#45;&gt;node_0x606000007880 -->
<g id="edge24" class="edge">
<title>node_0x6060000078e0&#45;&gt;node_0x606000007880</title>
<path fill="none" stroke="#964b00" d="M814.86,-238.7C814.86,-227.05 814.86,-214.47 814.86,-202.84"/>
<polygon fill="#964b00" stroke="#964b00" points="811.36,-238.67 814.86,-248.67 818.36,-238.67 811.36,-238.67"/>
<polygon fill="#964b00" stroke="#964b00" points="818.36,-203.11 814.86,-193.11 811.36,-203.11 818.36,-203.11"/>
</g>
<!-- node_0x606000007940 -->
<g id="node26" class="node">
<title>node_0x606000007940</title>
<path fill="#daa520" stroke="#964b00" d="M917,-125.5C917,-125.5 1016.72,-125.5 1016.72,-125.5 1022.72,-125.5 1028.72,-131.5 1028.72,-137.5 1028.72,-137.5 1028.72,-179.5 1028.72,-179.5 1028.72,-185.5 1022.72,-191.5 1016.72,-191.5 1016.72,-191.5 917,-191.5 917,-191.5 911,-191.5 905,-185.5 905,-179.5 905,-179.5 905,-137.5 905,-137.5 905,-131.5 911,-125.5 917,-125.5"/>
<text xml:space="preserve" text-anchor="middle" x="966.86" y="-176.3" font-family="Times,serif" font-size="14.00">type = VARIABLE</text>
<polyline fill="none" stroke="#964b00" points="905,-169.5 1028.72,-169.5"/>
<text xml:space="preserve" text-anchor="middle" x="966.61" y="-154.3" font-family="Times,serif" font-size="14.00">val = a</text>
<polyline fill="none" stroke="#964b00" points="905,-147.5 1028.72,-147.5"/>
<text xml:space="preserve" text-anchor="middle" x="935.5" y="-132.3" font-family="Times,serif" font-size="14.00">0</text>
<polyline fill="none" stroke="#964b00" points="966,-125.5 966,-147.5"/>
<text xml:space="preserve" text-anchor="middle" x="997" y="-132.3" font-family="Times,serif" font-size="14.00">0</text>
</g>
<!-- node_0x6060000078e0&#45;&gt;node_0x606000007940 -->
<g id="edge25" class="edge">
<title>node_0x6060000078e0&#45;&gt;node_0x606000007940</title>
<path fill="none" stroke="#964b00" d="M863.65,-243.02C881.05,-228.94 900.64,-213.08 918.05,-199"/>
<polygon fill="#964b00" stroke="#964b00" points="861.55,-240.22 855.97,-249.23 865.95,-245.66 861.55,-240.22"/>
<polygon fill="#964b00" stroke="#964b00" points="920.18,-201.78 925.75,-192.77 915.78,-196.34 920.18,-201.78"/>
</g>
</g>
</svg>
