<?xml version="1.0" encoding="UTF-8" standalone="no"?>
<!DOCTYPE svg PUBLIC "-//W3C//DTD SVG 1.1//EN"
 "http://www.w3.org/Graphics/SVG/1.1/DTD/svg11.dtd">
<!-- Generated by graphviz version 14.0.2 (20251019.1705)
 -->
<!-- Title: G Pages: 1 -->
<svg width="662pt" height="575pt"
 viewBox="0.00 0.00 662.00 575.00" xmlns="http://www.w3.org/2000/svg" xmlns:xlink="http://www.w3.org/1999/xlink">
<g id="graph0" class="graph" transform="scale(1 1) rotate(0) translate(4 571)">
<title>G</title>
<polygon fill="#fffafa" stroke="none" points="-4,4 -4,-571 658.26,-571 658.26,4 -4,4"/>
<!-- node_0x606000008c60 -->
<g id="node1" class="node">
<title>node_0x606000008c60</title>
<path fill="#00ffff" stroke="#964b00" d="M293.67,-500.5C293.67,-500.5 396.77,-500.5 396.77,-500.5 402.77,-500.5 408.77,-506.5 408.77,-512.5 408.77,-512.5 408.77,-554.5 408.77,-554.5 408.77,-560.5 402.77,-566.5 396.77,-566.5 396.77,-566.5 293.67,-566.5 293.67,-566.5 287.67,-566.5 281.67,-560.5 281.67,-554.5 281.67,-554.5 281.67,-512.5 281.67,-512.5 281.67,-506.5 287.67,-500.5 293.67,-500.5"/>
<text xml:space="preserve" text-anchor="middle" x="345.22" y="-551.3" font-family="Times,serif" font-size="14.00">type = OPERATOR</text>
<polyline fill="none" stroke="#964b00" points="281.67,-544.5 408.77,-544.5"/>
<text xml:space="preserve" text-anchor="middle" x="345.01" y="-529.3" font-family="Times,serif" font-size="14.00">val = 18(OP_CFB)</text>
<polyline fill="none" stroke="#964b00" points="281.67,-522.5 408.77,-522.5"/>
<text xml:space="preserve" text-anchor="middle" x="312.94" y="-507.3" font-family="Times,serif" font-size="14.00">L</text>
<polyline fill="none" stroke="#964b00" points="344.22,-500.5 344.22,-522.5"/>
<text xml:space="preserve" text-anchor="middle" x="376.39" y="-507.3" font-family="Times,serif" font-size="14.00">R</text>
</g>
<!-- node_0x606000000d40 -->
<g id="node2" class="node">
<title>node_0x606000000d40</title>
<path fill="#00ffff" stroke="#964b00" d="M293.67,-375.5C293.67,-375.5 396.77,-375.5 396.77,-375.5 402.77,-375.5 408.77,-381.5 408.77,-387.5 408.77,-387.5 408.77,-429.5 408.77,-429.5 408.77,-435.5 402.77,-441.5 396.77,-441.5 396.77,-441.5 293.67,-441.5 293.67,-441.5 287.67,-441.5 281.67,-435.5 281.67,-429.5 281.67,-429.5 281.67,-387.5 281.67,-387.5 281.67,-381.5 287.67,-375.5 293.67,-375.5"/>
<text xml:space="preserve" text-anchor="middle" x="345.22" y="-426.3" font-family="Times,serif" font-size="14.00">type = OPERATOR</text>
<polyline fill="none" stroke="#964b00" points="281.67,-419.5 408.77,-419.5"/>
<text xml:space="preserve" text-anchor="middle" x="345" y="-404.3" font-family="Times,serif" font-size="14.00">val = 12(OP_IF)</text>
<polyline fill="none" stroke="#964b00" points="281.67,-397.5 408.77,-397.5"/>
<text xml:space="preserve" text-anchor="middle" x="312.94" y="-382.3" font-family="Times,serif" font-size="14.00">L</text>
<polyline fill="none" stroke="#964b00" points="344.22,-375.5 344.22,-397.5"/>
<text xml:space="preserve" text-anchor="middle" x="376.39" y="-382.3" font-family="Times,serif" font-size="14.00">R</text>
</g>
<!-- node_0x606000008c60&#45;&gt;node_0x606000000d40 -->
<g id="edge1" class="edge">
<title>node_0x606000008c60&#45;&gt;node_0x606000000d40</title>
<path fill="none" stroke="#964b00" d="M345.22,-488.7C345.22,-477.05 345.22,-464.47 345.22,-452.84"/>
<polygon fill="#964b00" stroke="#964b00" points="341.72,-488.67 345.22,-498.67 348.72,-488.67 341.72,-488.67"/>
<polygon fill="#964b00" stroke="#964b00" points="348.72,-453.11 345.22,-443.11 341.72,-453.11 348.72,-453.11"/>
</g>
<!-- node_0x606000000e60 -->
<g id="node3" class="node">
<title>node_0x606000000e60</title>
<path fill="#00ffff" stroke="#964b00" d="M210.67,-250.5C210.67,-250.5 313.77,-250.5 313.77,-250.5 319.77,-250.5 325.77,-256.5 325.77,-262.5 325.77,-262.5 325.77,-304.5 325.77,-304.5 325.77,-310.5 319.77,-316.5 313.77,-316.5 313.77,-316.5 210.67,-316.5 210.67,-316.5 204.67,-316.5 198.67,-310.5 198.67,-304.5 198.67,-304.5 198.67,-262.5 198.67,-262.5 198.67,-256.5 204.67,-250.5 210.67,-250.5"/>
<text xml:space="preserve" text-anchor="middle" x="262.22" y="-301.3" font-family="Times,serif" font-size="14.00">type = OPERATOR</text>
<polyline fill="none" stroke="#964b00" points="198.67,-294.5 325.77,-294.5"/>
<text xml:space="preserve" text-anchor="middle" x="262.11" y="-279.3" font-family="Times,serif" font-size="14.00">val = 8(OP_EQ)</text>
<polyline fill="none" stroke="#964b00" points="198.67,-272.5 325.77,-272.5"/>
<text xml:space="preserve" text-anchor="middle" x="229.94" y="-257.3" font-family="Times,serif" font-size="14.00">L</text>
<polyline fill="none" stroke="#964b00" points="261.22,-250.5 261.22,-272.5"/>
<text xml:space="preserve" text-anchor="middle" x="293.39" y="-257.3" font-family="Times,serif" font-size="14.00">R</text>
</g>
<!-- node_0x606000000d40&#45;&gt;node_0x606000000e60 -->
<g id="edge2" class="edge">
<title>node_0x606000000d40&#45;&gt;node_0x606000000e60</title>
<path fill="none" stroke="#964b00" d="M317.19,-365.97C308.53,-353.13 298.98,-338.98 290.31,-326.13"/>
<polygon fill="#964b00" stroke="#964b00" points="314.07,-367.6 322.56,-373.93 319.87,-363.68 314.07,-367.6"/>
<polygon fill="#964b00" stroke="#964b00" points="293.22,-324.19 284.73,-317.86 287.42,-328.1 293.22,-324.19"/>
</g>
<!-- node_0x6060000010a0 -->
<g id="node6" class="node">
<title>node_0x6060000010a0</title>
<path fill="#00ffff" stroke="#964b00" d="M376.67,-250.5C376.67,-250.5 479.77,-250.5 479.77,-250.5 485.77,-250.5 491.77,-256.5 491.77,-262.5 491.77,-262.5 491.77,-304.5 491.77,-304.5 491.77,-310.5 485.77,-316.5 479.77,-316.5 479.77,-316.5 376.67,-316.5 376.67,-316.5 370.67,-316.5 364.67,-310.5 364.67,-304.5 364.67,-304.5 364.67,-262.5 364.67,-262.5 364.67,-256.5 370.67,-250.5 376.67,-250.5"/>
<text xml:space="preserve" text-anchor="middle" x="428.22" y="-301.3" font-family="Times,serif" font-size="14.00">type = OPERATOR</text>
<polyline fill="none" stroke="#964b00" points="364.67,-294.5 491.77,-294.5"/>
<text xml:space="preserve" text-anchor="middle" x="427.81" y="-279.3" font-family="Times,serif" font-size="14.00">val = 11(OP_SP)</text>
<polyline fill="none" stroke="#964b00" points="364.67,-272.5 491.77,-272.5"/>
<text xml:space="preserve" text-anchor="middle" x="395.94" y="-257.3" font-family="Times,serif" font-size="14.00">L</text>
<polyline fill="none" stroke="#964b00" points="427.22,-250.5 427.22,-272.5"/>
<text xml:space="preserve" text-anchor="middle" x="459.39" y="-257.3" font-family="Times,serif" font-size="14.00">R</text>
</g>
<!-- node_0x606000000d40&#45;&gt;node_0x6060000010a0 -->
<g id="edge5" class="edge">
<title>node_0x606000000d40&#45;&gt;node_0x6060000010a0</title>
<path fill="none" stroke="#964b00" d="M373.24,-365.97C381.91,-353.13 391.45,-338.98 400.12,-326.13"/>
<polygon fill="#964b00" stroke="#964b00" points="370.56,-363.68 367.87,-373.93 376.37,-367.6 370.56,-363.68"/>
<polygon fill="#964b00" stroke="#964b00" points="403.02,-328.1 405.71,-317.86 397.21,-324.19 403.02,-328.1"/>
</g>
<!-- node_0x606000000e00 -->
<g id="node4" class="node">
<title>node_0x606000000e00</title>
<path fill="#daa520" stroke="#964b00" d="M12,-125.5C12,-125.5 160.43,-125.5 160.43,-125.5 166.43,-125.5 172.43,-131.5 172.43,-137.5 172.43,-137.5 172.43,-179.5 172.43,-179.5 172.43,-185.5 166.43,-191.5 160.43,-191.5 160.43,-191.5 12,-191.5 12,-191.5 6,-191.5 0,-185.5 0,-179.5 0,-179.5 0,-137.5 0,-137.5 0,-131.5 6,-125.5 12,-125.5"/>
<text xml:space="preserve" text-anchor="middle" x="85.86" y="-176.3" font-family="Times,serif" font-size="14.00">type = VARIABLE</text>
<polyline fill="none" stroke="#964b00" points="0,-169.5 172.43,-169.5"/>
<text xml:space="preserve" text-anchor="middle" x="86.22" y="-154.3" font-family="Times,serif" font-size="14.00">val = quantaty_of_solutions</text>
<polyline fill="none" stroke="#964b00" points="0,-147.5 172.43,-147.5"/>
<text xml:space="preserve" text-anchor="middle" x="43" y="-132.3" font-family="Times,serif" font-size="14.00">0</text>
<polyline fill="none" stroke="#964b00" points="86,-125.5 86,-147.5"/>
<text xml:space="preserve" text-anchor="middle" x="129" y="-132.3" font-family="Times,serif" font-size="14.00">0</text>
</g>
<!-- node_0x606000000e60&#45;&gt;node_0x606000000e00 -->
<g id="edge3" class="edge">
<title>node_0x606000000e60&#45;&gt;node_0x606000000e00</title>
<path fill="none" stroke="#964b00" d="M206.68,-243.69C185.97,-229.21 162.47,-212.79 141.75,-198.31"/>
<polygon fill="#964b00" stroke="#964b00" points="204.53,-246.46 214.73,-249.32 208.54,-240.72 204.53,-246.46"/>
<polygon fill="#964b00" stroke="#964b00" points="143.9,-195.54 133.7,-192.68 139.89,-201.28 143.9,-195.54"/>
</g>
<!-- node_0x606000000ec0 -->
<g id="node5" class="node">
<title>node_0x606000000ec0</title>
<path fill="#98fb98" stroke="#964b00" d="M206.39,-125.5C206.39,-125.5 318.04,-125.5 318.04,-125.5 324.04,-125.5 330.04,-131.5 330.04,-137.5 330.04,-137.5 330.04,-179.5 330.04,-179.5 330.04,-185.5 324.04,-191.5 318.04,-191.5 318.04,-191.5 206.39,-191.5 206.39,-191.5 200.39,-191.5 194.39,-185.5 194.39,-179.5 194.39,-179.5 194.39,-137.5 194.39,-137.5 194.39,-131.5 200.39,-125.5 206.39,-125.5"/>
<text xml:space="preserve" text-anchor="middle" x="262.22" y="-176.3" font-family="Times,serif" font-size="14.00">type = CONST_VAR</text>
<polyline fill="none" stroke="#964b00" points="194.39,-169.5 330.04,-169.5"/>
<text xml:space="preserve" text-anchor="middle" x="261.89" y="-154.3" font-family="Times,serif" font-size="14.00">val = 0</text>
<polyline fill="none" stroke="#964b00" points="194.39,-147.5 330.04,-147.5"/>
<text xml:space="preserve" text-anchor="middle" x="227.89" y="-132.3" font-family="Times,serif" font-size="14.00">0</text>
<polyline fill="none" stroke="#964b00" points="261.39,-125.5 261.39,-147.5"/>
<text xml:space="preserve" text-anchor="middle" x="295.39" y="-132.3" font-family="Times,serif" font-size="14.00">0</text>
</g>
<!-- node_0x606000000e60&#45;&gt;node_0x606000000ec0 -->
<g id="edge4" class="edge">
<title>node_0x606000000e60&#45;&gt;node_0x606000000ec0</title>
<path fill="none" stroke="#964b00" d="M262.22,-238.7C262.22,-227.05 262.22,-214.47 262.22,-202.84"/>
<polygon fill="#964b00" stroke="#964b00" points="258.72,-238.67 262.22,-248.67 265.72,-238.67 258.72,-238.67"/>
<polygon fill="#964b00" stroke="#964b00" points="265.72,-203.11 262.22,-193.11 258.72,-203.11 265.72,-203.11"/>
</g>
<!-- node_0x606000000fe0 -->
<g id="node7" class="node">
<title>node_0x606000000fe0</title>
<path fill="#00ffff" stroke="#964b00" d="M364.5,-125.5C364.5,-125.5 491.94,-125.5 491.94,-125.5 497.94,-125.5 503.94,-131.5 503.94,-137.5 503.94,-137.5 503.94,-179.5 503.94,-179.5 503.94,-185.5 497.94,-191.5 491.94,-191.5 491.94,-191.5 364.5,-191.5 364.5,-191.5 358.5,-191.5 352.5,-185.5 352.5,-179.5 352.5,-179.5 352.5,-137.5 352.5,-137.5 352.5,-131.5 358.5,-125.5 364.5,-125.5"/>
<text xml:space="preserve" text-anchor="middle" x="428.05" y="-176.3" font-family="Times,serif" font-size="14.00">type = OPERATOR</text>
<polyline fill="none" stroke="#964b00" points="352.5,-169.5 503.94,-169.5"/>
<text xml:space="preserve" text-anchor="middle" x="428.22" y="-154.3" font-family="Times,serif" font-size="14.00">val = 22(OP_OUTPUT)</text>
<polyline fill="none" stroke="#964b00" points="352.5,-147.5 503.94,-147.5"/>
<text xml:space="preserve" text-anchor="middle" x="389.77" y="-132.3" font-family="Times,serif" font-size="14.00">L</text>
<polyline fill="none" stroke="#964b00" points="427.05,-125.5 427.05,-147.5"/>
<text xml:space="preserve" text-anchor="middle" x="465.22" y="-132.3" font-family="Times,serif" font-size="14.00">R</text>
</g>
<!-- node_0x6060000010a0&#45;&gt;node_0x606000000fe0 -->
<g id="edge6" class="edge">
<title>node_0x6060000010a0&#45;&gt;node_0x606000000fe0</title>
<path fill="none" stroke="#964b00" d="M428.22,-238.7C428.22,-227.05 428.22,-214.47 428.22,-202.84"/>
<polygon fill="#964b00" stroke="#964b00" points="424.72,-238.67 428.22,-248.67 431.72,-238.67 424.72,-238.67"/>
<polygon fill="#964b00" stroke="#964b00" points="431.72,-203.11 428.22,-193.11 424.72,-203.11 431.72,-203.11"/>
</g>
<!-- node_0x606000001100 -->
<g id="node9" class="node">
<title>node_0x606000001100</title>
<path fill="#00ffff" stroke="#964b00" d="M538.17,-125.5C538.17,-125.5 642.26,-125.5 642.26,-125.5 648.26,-125.5 654.26,-131.5 654.26,-137.5 654.26,-137.5 654.26,-179.5 654.26,-179.5 654.26,-185.5 648.26,-191.5 642.26,-191.5 642.26,-191.5 538.17,-191.5 538.17,-191.5 532.17,-191.5 526.17,-185.5 526.17,-179.5 526.17,-179.5 526.17,-137.5 526.17,-137.5 526.17,-131.5 532.17,-125.5 538.17,-125.5"/>
<text xml:space="preserve" text-anchor="middle" x="589.72" y="-176.3" font-family="Times,serif" font-size="14.00">type = OPERATOR</text>
<polyline fill="none" stroke="#964b00" points="526.17,-169.5 654.26,-169.5"/>
<text xml:space="preserve" text-anchor="middle" x="590.22" y="-154.3" font-family="Times,serif" font-size="14.00">val = 23(OP_EXIT)</text>
<polyline fill="none" stroke="#964b00" points="526.17,-147.5 654.26,-147.5"/>
<text xml:space="preserve" text-anchor="middle" x="557.94" y="-132.3" font-family="Times,serif" font-size="14.00">L</text>
<polyline fill="none" stroke="#964b00" points="589.72,-125.5 589.72,-147.5"/>
<text xml:space="preserve" text-anchor="middle" x="621.89" y="-132.3" font-family="Times,serif" font-size="14.00">R</text>
</g>
<!-- node_0x6060000010a0&#45;&gt;node_0x606000001100 -->
<g id="edge8" class="edge">
<title>node_0x6060000010a0&#45;&gt;node_0x606000001100</title>
<path fill="none" stroke="#964b00" d="M479.92,-243.24C498.7,-228.99 519.9,-212.89 538.66,-198.64"/>
<polygon fill="#964b00" stroke="#964b00" points="477.83,-240.43 471.99,-249.27 482.07,-246.01 477.83,-240.43"/>
<polygon fill="#964b00" stroke="#964b00" points="540.6,-201.56 546.45,-192.73 536.37,-195.99 540.6,-201.56"/>
</g>
<!-- node_0x606000001040 -->
<g id="node8" class="node">
<title>node_0x606000001040</title>
<path fill="#98fb98" stroke="#964b00" d="M372.39,-0.5C372.39,-0.5 484.04,-0.5 484.04,-0.5 490.04,-0.5 496.04,-6.5 496.04,-12.5 496.04,-12.5 496.04,-54.5 496.04,-54.5 496.04,-60.5 490.04,-66.5 484.04,-66.5 484.04,-66.5 372.39,-66.5 372.39,-66.5 366.39,-66.5 360.39,-60.5 360.39,-54.5 360.39,-54.5 360.39,-12.5 360.39,-12.5 360.39,-6.5 366.39,-0.5 372.39,-0.5"/>
<text xml:space="preserve" text-anchor="middle" x="428.22" y="-51.3" font-family="Times,serif" font-size="14.00">type = CONST_VAR</text>
<polyline fill="none" stroke="#964b00" points="360.39,-44.5 496.04,-44.5"/>
<text xml:space="preserve" text-anchor="middle" x="427.72" y="-29.3" font-family="Times,serif" font-size="14.00">val = &#45;1</text>
<polyline fill="none" stroke="#964b00" points="360.39,-22.5 496.04,-22.5"/>
<text xml:space="preserve" text-anchor="middle" x="393.89" y="-7.3" font-family="Times,serif" font-size="14.00">0</text>
<polyline fill="none" stroke="#964b00" points="427.39,-0.5 427.39,-22.5"/>
<text xml:space="preserve" text-anchor="middle" x="461.39" y="-7.3" font-family="Times,serif" font-size="14.00">0</text>
</g>
<!-- node_0x606000000fe0&#45;&gt;node_0x606000001040 -->
<g id="edge7" class="edge">
<title>node_0x606000000fe0&#45;&gt;node_0x606000001040</title>
<path fill="none" stroke="#964b00" d="M428.22,-113.7C428.22,-102.05 428.22,-89.47 428.22,-77.84"/>
<polygon fill="#964b00" stroke="#964b00" points="424.72,-113.67 428.22,-123.67 431.72,-113.67 424.72,-113.67"/>
<polygon fill="#964b00" stroke="#964b00" points="431.72,-78.11 428.22,-68.11 424.72,-78.11 431.72,-78.11"/>
</g>
</g>
</svg>
