<?xml version="1.0" encoding="UTF-8" standalone="no"?>
<!DOCTYPE svg PUBLIC "-//W3C//DTD SVG 1.1//EN"
 "http://www.w3.org/Graphics/SVG/1.1/DTD/svg11.dtd">
<!-- Generated by graphviz version 14.0.2 (20251019.1705)
 -->
<!-- Title: G Pages: 1 -->
<svg width="903pt" height="825pt"
 viewBox="0.00 0.00 903.00 825.00" xmlns="http://www.w3.org/2000/svg" xmlns:xlink="http://www.w3.org/1999/xlink">
<g id="graph0" class="graph" transform="scale(1 1) rotate(0) translate(4 821)">
<title>G</title>
<polygon fill="#fffafa" stroke="none" points="-4,4 -4,-821 898.69,-821 898.69,4 -4,4"/>
<!-- node_0x6060000095c0 -->
<g id="node1" class="node">
<title>node_0x6060000095c0</title>
<path fill="#00ffff" stroke="#964b00" d="M247.31,-750.5C247.31,-750.5 350.41,-750.5 350.41,-750.5 356.41,-750.5 362.41,-756.5 362.41,-762.5 362.41,-762.5 362.41,-804.5 362.41,-804.5 362.41,-810.5 356.41,-816.5 350.41,-816.5 350.41,-816.5 247.31,-816.5 247.31,-816.5 241.31,-816.5 235.31,-810.5 235.31,-804.5 235.31,-804.5 235.31,-762.5 235.31,-762.5 235.31,-756.5 241.31,-750.5 247.31,-750.5"/>
<text xml:space="preserve" text-anchor="middle" x="298.86" y="-801.3" font-family="Times,serif" font-size="14.00">type = OPERATOR</text>
<polyline fill="none" stroke="#964b00" points="235.31,-794.5 362.41,-794.5"/>
<text xml:space="preserve" text-anchor="middle" x="298.65" y="-779.3" font-family="Times,serif" font-size="14.00">val = 18(OP_CFB)</text>
<polyline fill="none" stroke="#964b00" points="235.31,-772.5 362.41,-772.5"/>
<text xml:space="preserve" text-anchor="middle" x="266.59" y="-757.3" font-family="Times,serif" font-size="14.00">L</text>
<polyline fill="none" stroke="#964b00" points="297.86,-750.5 297.86,-772.5"/>
<text xml:space="preserve" text-anchor="middle" x="330.03" y="-757.3" font-family="Times,serif" font-size="14.00">R</text>
</g>
<!-- node_0x606000006200 -->
<g id="node2" class="node">
<title>node_0x606000006200</title>
<path fill="#a7a7f2" stroke="#964b00" d="M160.89,-625.5C160.89,-625.5 436.83,-625.5 436.83,-625.5 442.83,-625.5 448.83,-631.5 448.83,-637.5 448.83,-637.5 448.83,-679.5 448.83,-679.5 448.83,-685.5 442.83,-691.5 436.83,-691.5 436.83,-691.5 160.89,-691.5 160.89,-691.5 154.89,-691.5 148.89,-685.5 148.89,-679.5 148.89,-679.5 148.89,-637.5 148.89,-637.5 148.89,-631.5 154.89,-625.5 160.89,-625.5"/>
<text xml:space="preserve" text-anchor="middle" x="298.78" y="-676.3" font-family="Times,serif" font-size="14.00">type = FUNCTION</text>
<polyline fill="none" stroke="#964b00" points="148.89,-669.5 448.83,-669.5"/>
<text xml:space="preserve" text-anchor="middle" x="298.86" y="-654.3" font-family="Times,serif" font-size="14.00">val = Che_cazzo_get_quantaty_of_solutions_diskr</text>
<polyline fill="none" stroke="#964b00" points="148.89,-647.5 448.83,-647.5"/>
<text xml:space="preserve" text-anchor="middle" x="223.39" y="-632.3" font-family="Times,serif" font-size="14.00">0</text>
<polyline fill="none" stroke="#964b00" points="297.89,-625.5 297.89,-647.5"/>
<text xml:space="preserve" text-anchor="middle" x="372.89" y="-632.3" font-family="Times,serif" font-size="14.00">0</text>
</g>
<!-- node_0x6060000095c0&#45;&gt;node_0x606000006200 -->
<g id="edge1" class="edge">
<title>node_0x6060000095c0&#45;&gt;node_0x606000006200</title>
<path fill="none" stroke="#964b00" d="M298.86,-738.7C298.86,-727.05 298.86,-714.47 298.86,-702.84"/>
<polygon fill="#964b00" stroke="#964b00" points="295.36,-738.67 298.86,-748.67 302.36,-738.67 295.36,-738.67"/>
<polygon fill="#964b00" stroke="#964b00" points="302.36,-703.11 298.86,-693.11 295.36,-703.11 302.36,-703.11"/>
</g>
<!-- node_0x6060000094a0 -->
<g id="node3" class="node">
<title>node_0x6060000094a0</title>
<path fill="#00ffff" stroke="#964b00" d="M171.8,-500.5C171.8,-500.5 275.92,-500.5 275.92,-500.5 281.92,-500.5 287.92,-506.5 287.92,-512.5 287.92,-512.5 287.92,-554.5 287.92,-554.5 287.92,-560.5 281.92,-566.5 275.92,-566.5 275.92,-566.5 171.8,-566.5 171.8,-566.5 165.8,-566.5 159.8,-560.5 159.8,-554.5 159.8,-554.5 159.8,-512.5 159.8,-512.5 159.8,-506.5 165.8,-500.5 171.8,-500.5"/>
<text xml:space="preserve" text-anchor="middle" x="223.85" y="-551.3" font-family="Times,serif" font-size="14.00">type = OPERATOR</text>
<polyline fill="none" stroke="#964b00" points="159.8,-544.5 287.92,-544.5"/>
<text xml:space="preserve" text-anchor="middle" x="223.86" y="-529.3" font-family="Times,serif" font-size="14.00">val = 19(OP_COM)</text>
<polyline fill="none" stroke="#964b00" points="159.8,-522.5 287.92,-522.5"/>
<text xml:space="preserve" text-anchor="middle" x="191.58" y="-507.3" font-family="Times,serif" font-size="14.00">L</text>
<polyline fill="none" stroke="#964b00" points="223.35,-500.5 223.35,-522.5"/>
<text xml:space="preserve" text-anchor="middle" x="255.52" y="-507.3" font-family="Times,serif" font-size="14.00">R</text>
</g>
<!-- node_0x606000006200&#45;&gt;node_0x6060000094a0 -->
<g id="edge2" class="edge">
<title>node_0x606000006200&#45;&gt;node_0x6060000094a0</title>
<path fill="none" stroke="#964b00" d="M273.26,-615.52C265.56,-602.89 257.11,-589.04 249.42,-576.41"/>
<polygon fill="#964b00" stroke="#964b00" points="270.17,-617.18 278.37,-623.89 276.15,-613.53 270.17,-617.18"/>
<polygon fill="#964b00" stroke="#964b00" points="252.42,-574.61 244.22,-567.89 246.44,-578.25 252.42,-574.61"/>
</g>
<!-- node_0x606000009500 -->
<g id="node5" class="node">
<title>node_0x606000009500</title>
<path fill="#00ffff" stroke="#964b00" d="M322.31,-500.5C322.31,-500.5 425.41,-500.5 425.41,-500.5 431.41,-500.5 437.41,-506.5 437.41,-512.5 437.41,-512.5 437.41,-554.5 437.41,-554.5 437.41,-560.5 431.41,-566.5 425.41,-566.5 425.41,-566.5 322.31,-566.5 322.31,-566.5 316.31,-566.5 310.31,-560.5 310.31,-554.5 310.31,-554.5 310.31,-512.5 310.31,-512.5 310.31,-506.5 316.31,-500.5 322.31,-500.5"/>
<text xml:space="preserve" text-anchor="middle" x="373.86" y="-551.3" font-family="Times,serif" font-size="14.00">type = OPERATOR</text>
<polyline fill="none" stroke="#964b00" points="310.31,-544.5 437.41,-544.5"/>
<text xml:space="preserve" text-anchor="middle" x="373.65" y="-529.3" font-family="Times,serif" font-size="14.00">val = 18(OP_CFB)</text>
<polyline fill="none" stroke="#964b00" points="310.31,-522.5 437.41,-522.5"/>
<text xml:space="preserve" text-anchor="middle" x="341.59" y="-507.3" font-family="Times,serif" font-size="14.00">L</text>
<polyline fill="none" stroke="#964b00" points="372.86,-500.5 372.86,-522.5"/>
<text xml:space="preserve" text-anchor="middle" x="405.03" y="-507.3" font-family="Times,serif" font-size="14.00">R</text>
</g>
<!-- node_0x606000006200&#45;&gt;node_0x606000009500 -->
<g id="edge4" class="edge">
<title>node_0x606000006200&#45;&gt;node_0x606000009500</title>
<path fill="none" stroke="#964b00" d="M324.46,-615.52C332.16,-602.89 340.61,-589.04 348.3,-576.41"/>
<polygon fill="#964b00" stroke="#964b00" points="321.57,-613.53 319.35,-623.89 327.55,-617.18 321.57,-613.53"/>
<polygon fill="#964b00" stroke="#964b00" points="351.28,-578.25 353.5,-567.89 345.3,-574.61 351.28,-578.25"/>
</g>
<!-- node_0x6060000062c0 -->
<g id="node4" class="node">
<title>node_0x6060000062c0</title>
<path fill="#daa520" stroke="#964b00" d="M174,-375.5C174,-375.5 273.72,-375.5 273.72,-375.5 279.72,-375.5 285.72,-381.5 285.72,-387.5 285.72,-387.5 285.72,-429.5 285.72,-429.5 285.72,-435.5 279.72,-441.5 273.72,-441.5 273.72,-441.5 174,-441.5 174,-441.5 168,-441.5 162,-435.5 162,-429.5 162,-429.5 162,-387.5 162,-387.5 162,-381.5 168,-375.5 174,-375.5"/>
<text xml:space="preserve" text-anchor="middle" x="223.86" y="-426.3" font-family="Times,serif" font-size="14.00">type = VARIABLE</text>
<polyline fill="none" stroke="#964b00" points="162,-419.5 285.72,-419.5"/>
<text xml:space="preserve" text-anchor="middle" x="223.5" y="-404.3" font-family="Times,serif" font-size="14.00">val = d</text>
<polyline fill="none" stroke="#964b00" points="162,-397.5 285.72,-397.5"/>
<text xml:space="preserve" text-anchor="middle" x="192.5" y="-382.3" font-family="Times,serif" font-size="14.00">0</text>
<polyline fill="none" stroke="#964b00" points="223,-375.5 223,-397.5"/>
<text xml:space="preserve" text-anchor="middle" x="254" y="-382.3" font-family="Times,serif" font-size="14.00">0</text>
</g>
<!-- node_0x6060000094a0&#45;&gt;node_0x6060000062c0 -->
<g id="edge3" class="edge">
<title>node_0x6060000094a0&#45;&gt;node_0x6060000062c0</title>
<path fill="none" stroke="#964b00" d="M223.86,-488.7C223.86,-477.05 223.86,-464.47 223.86,-452.84"/>
<polygon fill="#964b00" stroke="#964b00" points="220.36,-488.67 223.86,-498.67 227.36,-488.67 220.36,-488.67"/>
<polygon fill="#964b00" stroke="#964b00" points="227.36,-453.11 223.86,-443.11 220.36,-453.11 227.36,-453.11"/>
</g>
<!-- node_0x6060000063e0 -->
<g id="node6" class="node">
<title>node_0x6060000063e0</title>
<path fill="#00ffff" stroke="#964b00" d="M320.31,-375.5C320.31,-375.5 423.41,-375.5 423.41,-375.5 429.41,-375.5 435.41,-381.5 435.41,-387.5 435.41,-387.5 435.41,-429.5 435.41,-429.5 435.41,-435.5 429.41,-441.5 423.41,-441.5 423.41,-441.5 320.31,-441.5 320.31,-441.5 314.31,-441.5 308.31,-435.5 308.31,-429.5 308.31,-429.5 308.31,-387.5 308.31,-387.5 308.31,-381.5 314.31,-375.5 320.31,-375.5"/>
<text xml:space="preserve" text-anchor="middle" x="371.86" y="-426.3" font-family="Times,serif" font-size="14.00">type = OPERATOR</text>
<polyline fill="none" stroke="#964b00" points="308.31,-419.5 435.41,-419.5"/>
<text xml:space="preserve" text-anchor="middle" x="371.65" y="-404.3" font-family="Times,serif" font-size="14.00">val = 12(OP_IF)</text>
<polyline fill="none" stroke="#964b00" points="308.31,-397.5 435.41,-397.5"/>
<text xml:space="preserve" text-anchor="middle" x="339.59" y="-382.3" font-family="Times,serif" font-size="14.00">L</text>
<polyline fill="none" stroke="#964b00" points="370.86,-375.5 370.86,-397.5"/>
<text xml:space="preserve" text-anchor="middle" x="403.03" y="-382.3" font-family="Times,serif" font-size="14.00">R</text>
</g>
<!-- node_0x606000009500&#45;&gt;node_0x6060000063e0 -->
<g id="edge5" class="edge">
<title>node_0x606000009500&#45;&gt;node_0x6060000063e0</title>
<path fill="none" stroke="#964b00" d="M373.15,-488.7C372.96,-477.05 372.75,-464.47 372.57,-452.84"/>
<polygon fill="#964b00" stroke="#964b00" points="369.65,-488.73 373.31,-498.67 376.65,-488.61 369.65,-488.73"/>
<polygon fill="#964b00" stroke="#964b00" points="376.07,-453.06 372.41,-443.11 369.07,-453.17 376.07,-453.06"/>
</g>
<!-- node_0x606000009560 -->
<g id="node12" class="node">
<title>node_0x606000009560</title>
<path fill="#00ffff" stroke="#964b00" d="M511.31,-375.5C511.31,-375.5 614.41,-375.5 614.41,-375.5 620.41,-375.5 626.41,-381.5 626.41,-387.5 626.41,-387.5 626.41,-429.5 626.41,-429.5 626.41,-435.5 620.41,-441.5 614.41,-441.5 614.41,-441.5 511.31,-441.5 511.31,-441.5 505.31,-441.5 499.31,-435.5 499.31,-429.5 499.31,-429.5 499.31,-387.5 499.31,-387.5 499.31,-381.5 505.31,-375.5 511.31,-375.5"/>
<text xml:space="preserve" text-anchor="middle" x="562.86" y="-426.3" font-family="Times,serif" font-size="14.00">type = OPERATOR</text>
<polyline fill="none" stroke="#964b00" points="499.31,-419.5 626.41,-419.5"/>
<text xml:space="preserve" text-anchor="middle" x="562.65" y="-404.3" font-family="Times,serif" font-size="14.00">val = 18(OP_CFB)</text>
<polyline fill="none" stroke="#964b00" points="499.31,-397.5 626.41,-397.5"/>
<text xml:space="preserve" text-anchor="middle" x="530.59" y="-382.3" font-family="Times,serif" font-size="14.00">L</text>
<polyline fill="none" stroke="#964b00" points="561.86,-375.5 561.86,-397.5"/>
<text xml:space="preserve" text-anchor="middle" x="594.03" y="-382.3" font-family="Times,serif" font-size="14.00">R</text>
</g>
<!-- node_0x606000009500&#45;&gt;node_0x606000009560 -->
<g id="edge11" class="edge">
<title>node_0x606000009500&#45;&gt;node_0x606000009560</title>
<path fill="none" stroke="#964b00" d="M433.16,-493.91C455.67,-479.26 481.29,-462.59 503.78,-447.95"/>
<polygon fill="#964b00" stroke="#964b00" points="431.26,-490.97 424.79,-499.36 435.08,-496.84 431.26,-490.97"/>
<polygon fill="#964b00" stroke="#964b00" points="505.47,-451.03 511.94,-442.64 501.65,-445.16 505.47,-451.03"/>
</g>
<!-- node_0x606000006500 -->
<g id="node7" class="node">
<title>node_0x606000006500</title>
<path fill="#00ffff" stroke="#964b00" d="M162.31,-250.5C162.31,-250.5 265.41,-250.5 265.41,-250.5 271.41,-250.5 277.41,-256.5 277.41,-262.5 277.41,-262.5 277.41,-304.5 277.41,-304.5 277.41,-310.5 271.41,-316.5 265.41,-316.5 265.41,-316.5 162.31,-316.5 162.31,-316.5 156.31,-316.5 150.31,-310.5 150.31,-304.5 150.31,-304.5 150.31,-262.5 150.31,-262.5 150.31,-256.5 156.31,-250.5 162.31,-250.5"/>
<text xml:space="preserve" text-anchor="middle" x="213.86" y="-301.3" font-family="Times,serif" font-size="14.00">type = OPERATOR</text>
<polyline fill="none" stroke="#964b00" points="150.31,-294.5 277.41,-294.5"/>
<text xml:space="preserve" text-anchor="middle" x="213.47" y="-279.3" font-family="Times,serif" font-size="14.00">val = 10(OP_LE)</text>
<polyline fill="none" stroke="#964b00" points="150.31,-272.5 277.41,-272.5"/>
<text xml:space="preserve" text-anchor="middle" x="181.59" y="-257.3" font-family="Times,serif" font-size="14.00">L</text>
<polyline fill="none" stroke="#964b00" points="212.86,-250.5 212.86,-272.5"/>
<text xml:space="preserve" text-anchor="middle" x="245.03" y="-257.3" font-family="Times,serif" font-size="14.00">R</text>
</g>
<!-- node_0x6060000063e0&#45;&gt;node_0x606000006500 -->
<g id="edge6" class="edge">
<title>node_0x6060000063e0&#45;&gt;node_0x606000006500</title>
<path fill="none" stroke="#964b00" d="M321.43,-368.24C303.12,-353.99 282.44,-337.89 264.14,-323.64"/>
<polygon fill="#964b00" stroke="#964b00" points="319.11,-370.87 329.15,-374.25 323.41,-365.35 319.11,-370.87"/>
<polygon fill="#964b00" stroke="#964b00" points="266.6,-321.13 256.56,-317.74 262.3,-326.65 266.6,-321.13"/>
</g>
<!-- node_0x606000006680 -->
<g id="node10" class="node">
<title>node_0x606000006680</title>
<path fill="#00ffff" stroke="#964b00" d="M320.31,-250.5C320.31,-250.5 423.41,-250.5 423.41,-250.5 429.41,-250.5 435.41,-256.5 435.41,-262.5 435.41,-262.5 435.41,-304.5 435.41,-304.5 435.41,-310.5 429.41,-316.5 423.41,-316.5 423.41,-316.5 320.31,-316.5 320.31,-316.5 314.31,-316.5 308.31,-310.5 308.31,-304.5 308.31,-304.5 308.31,-262.5 308.31,-262.5 308.31,-256.5 314.31,-250.5 320.31,-250.5"/>
<text xml:space="preserve" text-anchor="middle" x="371.86" y="-301.3" font-family="Times,serif" font-size="14.00">type = OPERATOR</text>
<polyline fill="none" stroke="#964b00" points="308.31,-294.5 435.41,-294.5"/>
<text xml:space="preserve" text-anchor="middle" x="371.64" y="-279.3" font-family="Times,serif" font-size="14.00">val = 20(OP_RET)</text>
<polyline fill="none" stroke="#964b00" points="308.31,-272.5 435.41,-272.5"/>
<text xml:space="preserve" text-anchor="middle" x="339.59" y="-257.3" font-family="Times,serif" font-size="14.00">L</text>
<polyline fill="none" stroke="#964b00" points="370.86,-250.5 370.86,-272.5"/>
<text xml:space="preserve" text-anchor="middle" x="403.03" y="-257.3" font-family="Times,serif" font-size="14.00">R</text>
</g>
<!-- node_0x6060000063e0&#45;&gt;node_0x606000006680 -->
<g id="edge9" class="edge">
<title>node_0x6060000063e0&#45;&gt;node_0x606000006680</title>
<path fill="none" stroke="#964b00" d="M371.86,-363.7C371.86,-352.05 371.86,-339.47 371.86,-327.84"/>
<polygon fill="#964b00" stroke="#964b00" points="368.36,-363.67 371.86,-373.67 375.36,-363.67 368.36,-363.67"/>
<polygon fill="#964b00" stroke="#964b00" points="375.36,-328.11 371.86,-318.11 368.36,-328.11 375.36,-328.11"/>
</g>
<!-- node_0x6060000064a0 -->
<g id="node8" class="node">
<title>node_0x6060000064a0</title>
<path fill="#daa520" stroke="#964b00" d="M12,-125.5C12,-125.5 111.72,-125.5 111.72,-125.5 117.72,-125.5 123.72,-131.5 123.72,-137.5 123.72,-137.5 123.72,-179.5 123.72,-179.5 123.72,-185.5 117.72,-191.5 111.72,-191.5 111.72,-191.5 12,-191.5 12,-191.5 6,-191.5 0,-185.5 0,-179.5 0,-179.5 0,-137.5 0,-137.5 0,-131.5 6,-125.5 12,-125.5"/>
<text xml:space="preserve" text-anchor="middle" x="61.86" y="-176.3" font-family="Times,serif" font-size="14.00">type = VARIABLE</text>
<polyline fill="none" stroke="#964b00" points="0,-169.5 123.72,-169.5"/>
<text xml:space="preserve" text-anchor="middle" x="61.5" y="-154.3" font-family="Times,serif" font-size="14.00">val = d</text>
<polyline fill="none" stroke="#964b00" points="0,-147.5 123.72,-147.5"/>
<text xml:space="preserve" text-anchor="middle" x="30.5" y="-132.3" font-family="Times,serif" font-size="14.00">0</text>
<polyline fill="none" stroke="#964b00" points="61,-125.5 61,-147.5"/>
<text xml:space="preserve" text-anchor="middle" x="92" y="-132.3" font-family="Times,serif" font-size="14.00">0</text>
</g>
<!-- node_0x606000006500&#45;&gt;node_0x6060000064a0 -->
<g id="edge7" class="edge">
<title>node_0x606000006500&#45;&gt;node_0x6060000064a0</title>
<path fill="none" stroke="#964b00" d="M165.07,-243.02C147.67,-228.94 128.08,-213.08 110.67,-199"/>
<polygon fill="#964b00" stroke="#964b00" points="162.77,-245.66 172.75,-249.23 167.18,-240.22 162.77,-245.66"/>
<polygon fill="#964b00" stroke="#964b00" points="112.95,-196.34 102.97,-192.77 108.54,-201.78 112.95,-196.34"/>
</g>
<!-- node_0x606000006560 -->
<g id="node9" class="node">
<title>node_0x606000006560</title>
<path fill="#98fb98" stroke="#964b00" d="M158.04,-125.5C158.04,-125.5 269.69,-125.5 269.69,-125.5 275.69,-125.5 281.69,-131.5 281.69,-137.5 281.69,-137.5 281.69,-179.5 281.69,-179.5 281.69,-185.5 275.69,-191.5 269.69,-191.5 269.69,-191.5 158.04,-191.5 158.04,-191.5 152.04,-191.5 146.04,-185.5 146.04,-179.5 146.04,-179.5 146.04,-137.5 146.04,-137.5 146.04,-131.5 152.04,-125.5 158.04,-125.5"/>
<text xml:space="preserve" text-anchor="middle" x="213.86" y="-176.3" font-family="Times,serif" font-size="14.00">type = CONST_VAR</text>
<polyline fill="none" stroke="#964b00" points="146.04,-169.5 281.69,-169.5"/>
<text xml:space="preserve" text-anchor="middle" x="213.54" y="-154.3" font-family="Times,serif" font-size="14.00">val = 0</text>
<polyline fill="none" stroke="#964b00" points="146.04,-147.5 281.69,-147.5"/>
<text xml:space="preserve" text-anchor="middle" x="179.54" y="-132.3" font-family="Times,serif" font-size="14.00">0</text>
<polyline fill="none" stroke="#964b00" points="213.04,-125.5 213.04,-147.5"/>
<text xml:space="preserve" text-anchor="middle" x="247.04" y="-132.3" font-family="Times,serif" font-size="14.00">0</text>
</g>
<!-- node_0x606000006500&#45;&gt;node_0x606000006560 -->
<g id="edge8" class="edge">
<title>node_0x606000006500&#45;&gt;node_0x606000006560</title>
<path fill="none" stroke="#964b00" d="M213.86,-238.7C213.86,-227.05 213.86,-214.47 213.86,-202.84"/>
<polygon fill="#964b00" stroke="#964b00" points="210.36,-238.67 213.86,-248.67 217.36,-238.67 210.36,-238.67"/>
<polygon fill="#964b00" stroke="#964b00" points="217.36,-203.11 213.86,-193.11 210.36,-203.11 217.36,-203.11"/>
</g>
<!-- node_0x6060000066e0 -->
<g id="node11" class="node">
<title>node_0x6060000066e0</title>
<path fill="#98fb98" stroke="#964b00" d="M316.04,-125.5C316.04,-125.5 427.69,-125.5 427.69,-125.5 433.69,-125.5 439.69,-131.5 439.69,-137.5 439.69,-137.5 439.69,-179.5 439.69,-179.5 439.69,-185.5 433.69,-191.5 427.69,-191.5 427.69,-191.5 316.04,-191.5 316.04,-191.5 310.04,-191.5 304.04,-185.5 304.04,-179.5 304.04,-179.5 304.04,-137.5 304.04,-137.5 304.04,-131.5 310.04,-125.5 316.04,-125.5"/>
<text xml:space="preserve" text-anchor="middle" x="371.86" y="-176.3" font-family="Times,serif" font-size="14.00">type = CONST_VAR</text>
<polyline fill="none" stroke="#964b00" points="304.04,-169.5 439.69,-169.5"/>
<text xml:space="preserve" text-anchor="middle" x="371.54" y="-154.3" font-family="Times,serif" font-size="14.00">val = 0</text>
<polyline fill="none" stroke="#964b00" points="304.04,-147.5 439.69,-147.5"/>
<text xml:space="preserve" text-anchor="middle" x="337.54" y="-132.3" font-family="Times,serif" font-size="14.00">0</text>
<polyline fill="none" stroke="#964b00" points="371.04,-125.5 371.04,-147.5"/>
<text xml:space="preserve" text-anchor="middle" x="405.04" y="-132.3" font-family="Times,serif" font-size="14.00">0</text>
</g>
<!-- node_0x606000006680&#45;&gt;node_0x6060000066e0 -->
<g id="edge10" class="edge">
<title>node_0x606000006680&#45;&gt;node_0x6060000066e0</title>
<path fill="none" stroke="#964b00" d="M371.86,-238.7C371.86,-227.05 371.86,-214.47 371.86,-202.84"/>
<polygon fill="#964b00" stroke="#964b00" points="368.36,-238.67 371.86,-248.67 375.36,-238.67 368.36,-238.67"/>
<polygon fill="#964b00" stroke="#964b00" points="375.36,-203.11 371.86,-193.11 368.36,-203.11 375.36,-203.11"/>
</g>
<!-- node_0x606000006800 -->
<g id="node13" class="node">
<title>node_0x606000006800</title>
<path fill="#00ffff" stroke="#964b00" d="M511.31,-250.5C511.31,-250.5 614.41,-250.5 614.41,-250.5 620.41,-250.5 626.41,-256.5 626.41,-262.5 626.41,-262.5 626.41,-304.5 626.41,-304.5 626.41,-310.5 620.41,-316.5 614.41,-316.5 614.41,-316.5 511.31,-316.5 511.31,-316.5 505.31,-316.5 499.31,-310.5 499.31,-304.5 499.31,-304.5 499.31,-262.5 499.31,-262.5 499.31,-256.5 505.31,-250.5 511.31,-250.5"/>
<text xml:space="preserve" text-anchor="middle" x="562.86" y="-301.3" font-family="Times,serif" font-size="14.00">type = OPERATOR</text>
<polyline fill="none" stroke="#964b00" points="499.31,-294.5 626.41,-294.5"/>
<text xml:space="preserve" text-anchor="middle" x="562.65" y="-279.3" font-family="Times,serif" font-size="14.00">val = 12(OP_IF)</text>
<polyline fill="none" stroke="#964b00" points="499.31,-272.5 626.41,-272.5"/>
<text xml:space="preserve" text-anchor="middle" x="530.59" y="-257.3" font-family="Times,serif" font-size="14.00">L</text>
<polyline fill="none" stroke="#964b00" points="561.86,-250.5 561.86,-272.5"/>
<text xml:space="preserve" text-anchor="middle" x="594.03" y="-257.3" font-family="Times,serif" font-size="14.00">R</text>
</g>
<!-- node_0x606000009560&#45;&gt;node_0x606000006800 -->
<g id="edge12" class="edge">
<title>node_0x606000009560&#45;&gt;node_0x606000006800</title>
<path fill="none" stroke="#964b00" d="M562.86,-363.7C562.86,-352.05 562.86,-339.47 562.86,-327.84"/>
<polygon fill="#964b00" stroke="#964b00" points="559.36,-363.67 562.86,-373.67 566.36,-363.67 559.36,-363.67"/>
<polygon fill="#964b00" stroke="#964b00" points="566.36,-328.11 562.86,-318.11 559.36,-328.11 566.36,-328.11"/>
</g>
<!-- node_0x606000006c20 -->
<g id="node19" class="node">
<title>node_0x606000006c20</title>
<path fill="#00ffff" stroke="#964b00" d="M736.31,-250.5C736.31,-250.5 839.41,-250.5 839.41,-250.5 845.41,-250.5 851.41,-256.5 851.41,-262.5 851.41,-262.5 851.41,-304.5 851.41,-304.5 851.41,-310.5 845.41,-316.5 839.41,-316.5 839.41,-316.5 736.31,-316.5 736.31,-316.5 730.31,-316.5 724.31,-310.5 724.31,-304.5 724.31,-304.5 724.31,-262.5 724.31,-262.5 724.31,-256.5 730.31,-250.5 736.31,-250.5"/>
<text xml:space="preserve" text-anchor="middle" x="787.86" y="-301.3" font-family="Times,serif" font-size="14.00">type = OPERATOR</text>
<polyline fill="none" stroke="#964b00" points="724.31,-294.5 851.41,-294.5"/>
<text xml:space="preserve" text-anchor="middle" x="787.64" y="-279.3" font-family="Times,serif" font-size="14.00">val = 20(OP_RET)</text>
<polyline fill="none" stroke="#964b00" points="724.31,-272.5 851.41,-272.5"/>
<text xml:space="preserve" text-anchor="middle" x="755.59" y="-257.3" font-family="Times,serif" font-size="14.00">L</text>
<polyline fill="none" stroke="#964b00" points="786.86,-250.5 786.86,-272.5"/>
<text xml:space="preserve" text-anchor="middle" x="819.03" y="-257.3" font-family="Times,serif" font-size="14.00">R</text>
</g>
<!-- node_0x606000009560&#45;&gt;node_0x606000006c20 -->
<g id="edge18" class="edge">
<title>node_0x606000009560&#45;&gt;node_0x606000006c20</title>
<path fill="none" stroke="#964b00" d="M632.09,-369.65C659.57,-354.63 691.1,-337.39 718.58,-322.37"/>
<polygon fill="#964b00" stroke="#964b00" points="630.69,-366.43 623.6,-374.3 634.05,-372.57 630.69,-366.43"/>
<polygon fill="#964b00" stroke="#964b00" points="720.08,-325.54 727.18,-317.67 716.73,-319.4 720.08,-325.54"/>
</g>
<!-- node_0x606000006920 -->
<g id="node14" class="node">
<title>node_0x606000006920</title>
<path fill="#00ffff" stroke="#964b00" d="M473.31,-125.5C473.31,-125.5 576.41,-125.5 576.41,-125.5 582.41,-125.5 588.41,-131.5 588.41,-137.5 588.41,-137.5 588.41,-179.5 588.41,-179.5 588.41,-185.5 582.41,-191.5 576.41,-191.5 576.41,-191.5 473.31,-191.5 473.31,-191.5 467.31,-191.5 461.31,-185.5 461.31,-179.5 461.31,-179.5 461.31,-137.5 461.31,-137.5 461.31,-131.5 467.31,-125.5 473.31,-125.5"/>
<text xml:space="preserve" text-anchor="middle" x="524.86" y="-176.3" font-family="Times,serif" font-size="14.00">type = OPERATOR</text>
<polyline fill="none" stroke="#964b00" points="461.31,-169.5 588.41,-169.5"/>
<text xml:space="preserve" text-anchor="middle" x="524.75" y="-154.3" font-family="Times,serif" font-size="14.00">val = 8(OP_EQ)</text>
<polyline fill="none" stroke="#964b00" points="461.31,-147.5 588.41,-147.5"/>
<text xml:space="preserve" text-anchor="middle" x="492.59" y="-132.3" font-family="Times,serif" font-size="14.00">L</text>
<polyline fill="none" stroke="#964b00" points="523.86,-125.5 523.86,-147.5"/>
<text xml:space="preserve" text-anchor="middle" x="556.03" y="-132.3" font-family="Times,serif" font-size="14.00">R</text>
</g>
<!-- node_0x606000006800&#45;&gt;node_0x606000006920 -->
<g id="edge13" class="edge">
<title>node_0x606000006800&#45;&gt;node_0x606000006920</title>
<path fill="none" stroke="#964b00" d="M549.61,-239.61C545.88,-227.53 541.82,-214.4 538.09,-202.33"/>
<polygon fill="#964b00" stroke="#964b00" points="546.13,-240.22 552.43,-248.74 552.82,-238.15 546.13,-240.22"/>
<polygon fill="#964b00" stroke="#964b00" points="541.52,-201.57 535.22,-193.05 534.83,-203.63 541.52,-201.57"/>
</g>
<!-- node_0x606000006aa0 -->
<g id="node17" class="node">
<title>node_0x606000006aa0</title>
<path fill="#00ffff" stroke="#964b00" d="M622.31,-125.5C622.31,-125.5 725.41,-125.5 725.41,-125.5 731.41,-125.5 737.41,-131.5 737.41,-137.5 737.41,-137.5 737.41,-179.5 737.41,-179.5 737.41,-185.5 731.41,-191.5 725.41,-191.5 725.41,-191.5 622.31,-191.5 622.31,-191.5 616.31,-191.5 610.31,-185.5 610.31,-179.5 610.31,-179.5 610.31,-137.5 610.31,-137.5 610.31,-131.5 616.31,-125.5 622.31,-125.5"/>
<text xml:space="preserve" text-anchor="middle" x="673.86" y="-176.3" font-family="Times,serif" font-size="14.00">type = OPERATOR</text>
<polyline fill="none" stroke="#964b00" points="610.31,-169.5 737.41,-169.5"/>
<text xml:space="preserve" text-anchor="middle" x="673.64" y="-154.3" font-family="Times,serif" font-size="14.00">val = 20(OP_RET)</text>
<polyline fill="none" stroke="#964b00" points="610.31,-147.5 737.41,-147.5"/>
<text xml:space="preserve" text-anchor="middle" x="641.59" y="-132.3" font-family="Times,serif" font-size="14.00">L</text>
<polyline fill="none" stroke="#964b00" points="672.86,-125.5 672.86,-147.5"/>
<text xml:space="preserve" text-anchor="middle" x="705.03" y="-132.3" font-family="Times,serif" font-size="14.00">R</text>
</g>
<!-- node_0x606000006800&#45;&gt;node_0x606000006aa0 -->
<g id="edge16" class="edge">
<title>node_0x606000006800&#45;&gt;node_0x606000006aa0</title>
<path fill="none" stroke="#964b00" d="M599.52,-241.87C611.73,-228.34 625.32,-213.28 637.51,-199.78"/>
<polygon fill="#964b00" stroke="#964b00" points="597.14,-239.29 593.04,-249.06 602.34,-243.98 597.14,-239.29"/>
<polygon fill="#964b00" stroke="#964b00" points="639.78,-202.49 643.88,-192.72 634.58,-197.8 639.78,-202.49"/>
</g>
<!-- node_0x6060000068c0 -->
<g id="node15" class="node">
<title>node_0x6060000068c0</title>
<path fill="#daa520" stroke="#964b00" d="M323,-0.5C323,-0.5 422.72,-0.5 422.72,-0.5 428.72,-0.5 434.72,-6.5 434.72,-12.5 434.72,-12.5 434.72,-54.5 434.72,-54.5 434.72,-60.5 428.72,-66.5 422.72,-66.5 422.72,-66.5 323,-66.5 323,-66.5 317,-66.5 311,-60.5 311,-54.5 311,-54.5 311,-12.5 311,-12.5 311,-6.5 317,-0.5 323,-0.5"/>
<text xml:space="preserve" text-anchor="middle" x="372.86" y="-51.3" font-family="Times,serif" font-size="14.00">type = VARIABLE</text>
<polyline fill="none" stroke="#964b00" points="311,-44.5 434.72,-44.5"/>
<text xml:space="preserve" text-anchor="middle" x="372.5" y="-29.3" font-family="Times,serif" font-size="14.00">val = d</text>
<polyline fill="none" stroke="#964b00" points="311,-22.5 434.72,-22.5"/>
<text xml:space="preserve" text-anchor="middle" x="341.5" y="-7.3" font-family="Times,serif" font-size="14.00">0</text>
<polyline fill="none" stroke="#964b00" points="372,-0.5 372,-22.5"/>
<text xml:space="preserve" text-anchor="middle" x="403" y="-7.3" font-family="Times,serif" font-size="14.00">0</text>
</g>
<!-- node_0x606000006920&#45;&gt;node_0x6060000068c0 -->
<g id="edge14" class="edge">
<title>node_0x606000006920&#45;&gt;node_0x6060000068c0</title>
<path fill="none" stroke="#964b00" d="M476.07,-118.02C458.67,-103.94 439.08,-88.08 421.67,-74"/>
<polygon fill="#964b00" stroke="#964b00" points="473.77,-120.66 483.75,-124.23 478.18,-115.22 473.77,-120.66"/>
<polygon fill="#964b00" stroke="#964b00" points="423.95,-71.34 413.97,-67.77 419.54,-76.78 423.95,-71.34"/>
</g>
<!-- node_0x606000006980 -->
<g id="node16" class="node">
<title>node_0x606000006980</title>
<path fill="#98fb98" stroke="#964b00" d="M469.04,-0.5C469.04,-0.5 580.69,-0.5 580.69,-0.5 586.69,-0.5 592.69,-6.5 592.69,-12.5 592.69,-12.5 592.69,-54.5 592.69,-54.5 592.69,-60.5 586.69,-66.5 580.69,-66.5 580.69,-66.5 469.04,-66.5 469.04,-66.5 463.04,-66.5 457.04,-60.5 457.04,-54.5 457.04,-54.5 457.04,-12.5 457.04,-12.5 457.04,-6.5 463.04,-0.5 469.04,-0.5"/>
<text xml:space="preserve" text-anchor="middle" x="524.86" y="-51.3" font-family="Times,serif" font-size="14.00">type = CONST_VAR</text>
<polyline fill="none" stroke="#964b00" points="457.04,-44.5 592.69,-44.5"/>
<text xml:space="preserve" text-anchor="middle" x="524.54" y="-29.3" font-family="Times,serif" font-size="14.00">val = 0</text>
<polyline fill="none" stroke="#964b00" points="457.04,-22.5 592.69,-22.5"/>
<text xml:space="preserve" text-anchor="middle" x="490.54" y="-7.3" font-family="Times,serif" font-size="14.00">0</text>
<polyline fill="none" stroke="#964b00" points="524.04,-0.5 524.04,-22.5"/>
<text xml:space="preserve" text-anchor="middle" x="558.04" y="-7.3" font-family="Times,serif" font-size="14.00">0</text>
</g>
<!-- node_0x606000006920&#45;&gt;node_0x606000006980 -->
<g id="edge15" class="edge">
<title>node_0x606000006920&#45;&gt;node_0x606000006980</title>
<path fill="none" stroke="#964b00" d="M524.86,-113.7C524.86,-102.05 524.86,-89.47 524.86,-77.84"/>
<polygon fill="#964b00" stroke="#964b00" points="521.36,-113.67 524.86,-123.67 528.36,-113.67 521.36,-113.67"/>
<polygon fill="#964b00" stroke="#964b00" points="528.36,-78.11 524.86,-68.11 521.36,-78.11 528.36,-78.11"/>
</g>
<!-- node_0x606000006b00 -->
<g id="node18" class="node">
<title>node_0x606000006b00</title>
<path fill="#98fb98" stroke="#964b00" d="M627.04,-0.5C627.04,-0.5 738.69,-0.5 738.69,-0.5 744.69,-0.5 750.69,-6.5 750.69,-12.5 750.69,-12.5 750.69,-54.5 750.69,-54.5 750.69,-60.5 744.69,-66.5 738.69,-66.5 738.69,-66.5 627.04,-66.5 627.04,-66.5 621.04,-66.5 615.04,-60.5 615.04,-54.5 615.04,-54.5 615.04,-12.5 615.04,-12.5 615.04,-6.5 621.04,-0.5 627.04,-0.5"/>
<text xml:space="preserve" text-anchor="middle" x="682.86" y="-51.3" font-family="Times,serif" font-size="14.00">type = CONST_VAR</text>
<polyline fill="none" stroke="#964b00" points="615.04,-44.5 750.69,-44.5"/>
<text xml:space="preserve" text-anchor="middle" x="682.54" y="-29.3" font-family="Times,serif" font-size="14.00">val = 1</text>
<polyline fill="none" stroke="#964b00" points="615.04,-22.5 750.69,-22.5"/>
<text xml:space="preserve" text-anchor="middle" x="648.54" y="-7.3" font-family="Times,serif" font-size="14.00">0</text>
<polyline fill="none" stroke="#964b00" points="682.04,-0.5 682.04,-22.5"/>
<text xml:space="preserve" text-anchor="middle" x="716.04" y="-7.3" font-family="Times,serif" font-size="14.00">0</text>
</g>
<!-- node_0x606000006aa0&#45;&gt;node_0x606000006b00 -->
<g id="edge17" class="edge">
<title>node_0x606000006aa0&#45;&gt;node_0x606000006b00</title>
<path fill="none" stroke="#964b00" d="M677.03,-114.15C677.89,-102.41 678.82,-89.7 679.68,-77.96"/>
<polygon fill="#964b00" stroke="#964b00" points="673.57,-113.44 676.34,-123.67 680.56,-113.96 673.57,-113.44"/>
<polygon fill="#964b00" stroke="#964b00" points="683.16,-78.34 680.4,-68.11 676.18,-77.83 683.16,-78.34"/>
</g>
<!-- node_0x606000006c80 -->
<g id="node20" class="node">
<title>node_0x606000006c80</title>
<path fill="#98fb98" stroke="#964b00" d="M771.04,-125.5C771.04,-125.5 882.69,-125.5 882.69,-125.5 888.69,-125.5 894.69,-131.5 894.69,-137.5 894.69,-137.5 894.69,-179.5 894.69,-179.5 894.69,-185.5 888.69,-191.5 882.69,-191.5 882.69,-191.5 771.04,-191.5 771.04,-191.5 765.04,-191.5 759.04,-185.5 759.04,-179.5 759.04,-179.5 759.04,-137.5 759.04,-137.5 759.04,-131.5 765.04,-125.5 771.04,-125.5"/>
<text xml:space="preserve" text-anchor="middle" x="826.86" y="-176.3" font-family="Times,serif" font-size="14.00">type = CONST_VAR</text>
<polyline fill="none" stroke="#964b00" points="759.04,-169.5 894.69,-169.5"/>
<text xml:space="preserve" text-anchor="middle" x="826.54" y="-154.3" font-family="Times,serif" font-size="14.00">val = 2</text>
<polyline fill="none" stroke="#964b00" points="759.04,-147.5 894.69,-147.5"/>
<text xml:space="preserve" text-anchor="middle" x="792.54" y="-132.3" font-family="Times,serif" font-size="14.00">0</text>
<polyline fill="none" stroke="#964b00" points="826.04,-125.5 826.04,-147.5"/>
<text xml:space="preserve" text-anchor="middle" x="860.04" y="-132.3" font-family="Times,serif" font-size="14.00">0</text>
</g>
<!-- node_0x606000006c20&#45;&gt;node_0x606000006c80 -->
<g id="edge19" class="edge">
<title>node_0x606000006c20&#45;&gt;node_0x606000006c80</title>
<path fill="none" stroke="#964b00" d="M801.46,-239.61C805.29,-227.53 809.45,-214.4 813.28,-202.33"/>
<polygon fill="#964b00" stroke="#964b00" points="798.25,-238.15 798.56,-248.74 804.92,-240.27 798.25,-238.15"/>
<polygon fill="#964b00" stroke="#964b00" points="816.54,-203.63 816.22,-193.04 809.87,-201.52 816.54,-203.63"/>
</g>
</g>
</svg>
